%TF.GenerationSoftware,KiCad,Pcbnew,9.0.4*%
%TF.CreationDate,2025-09-29T16:45:49+02:00*%
%TF.ProjectId,gpsdo,67707364-6f2e-46b6-9963-61645f706362,rev?*%
%TF.SameCoordinates,Original*%
%TF.FileFunction,Soldermask,Top*%
%TF.FilePolarity,Negative*%
%FSLAX46Y46*%
G04 Gerber Fmt 4.6, Leading zero omitted, Abs format (unit mm)*
G04 Created by KiCad (PCBNEW 9.0.4) date 2025-09-29 16:45:49*
%MOMM*%
%LPD*%
G01*
G04 APERTURE LIST*
G04 Aperture macros list*
%AMRoundRect*
0 Rectangle with rounded corners*
0 $1 Rounding radius*
0 $2 $3 $4 $5 $6 $7 $8 $9 X,Y pos of 4 corners*
0 Add a 4 corners polygon primitive as box body*
4,1,4,$2,$3,$4,$5,$6,$7,$8,$9,$2,$3,0*
0 Add four circle primitives for the rounded corners*
1,1,$1+$1,$2,$3*
1,1,$1+$1,$4,$5*
1,1,$1+$1,$6,$7*
1,1,$1+$1,$8,$9*
0 Add four rect primitives between the rounded corners*
20,1,$1+$1,$2,$3,$4,$5,0*
20,1,$1+$1,$4,$5,$6,$7,0*
20,1,$1+$1,$6,$7,$8,$9,0*
20,1,$1+$1,$8,$9,$2,$3,0*%
G04 Aperture macros list end*
%ADD10RoundRect,0.250000X-0.800000X-0.650000X0.800000X-0.650000X0.800000X0.650000X-0.800000X0.650000X0*%
%ADD11RoundRect,0.375000X-0.625000X-0.375000X0.625000X-0.375000X0.625000X0.375000X-0.625000X0.375000X0*%
%ADD12RoundRect,0.500000X-0.500000X-1.400000X0.500000X-1.400000X0.500000X1.400000X-0.500000X1.400000X0*%
%ADD13RoundRect,0.062500X-0.375000X-0.062500X0.375000X-0.062500X0.375000X0.062500X-0.375000X0.062500X0*%
%ADD14RoundRect,0.062500X-0.062500X-0.375000X0.062500X-0.375000X0.062500X0.375000X-0.062500X0.375000X0*%
%ADD15R,5.600000X5.600000*%
%ADD16RoundRect,0.150000X-0.825000X-0.150000X0.825000X-0.150000X0.825000X0.150000X-0.825000X0.150000X0*%
%ADD17RoundRect,0.087500X-0.725000X-0.087500X0.725000X-0.087500X0.725000X0.087500X-0.725000X0.087500X0*%
%ADD18C,1.500000*%
%ADD19RoundRect,0.100000X-0.217500X-0.100000X0.217500X-0.100000X0.217500X0.100000X-0.217500X0.100000X0*%
%ADD20C,0.650000*%
%ADD21R,0.600000X1.240000*%
%ADD22R,0.300000X1.240000*%
%ADD23O,1.000000X2.100000*%
%ADD24O,1.000000X1.800000*%
%ADD25R,1.700000X1.700000*%
%ADD26C,1.700000*%
%ADD27RoundRect,0.250000X-0.325000X-0.450000X0.325000X-0.450000X0.325000X0.450000X-0.325000X0.450000X0*%
%ADD28RoundRect,0.100000X-0.100000X0.217500X-0.100000X-0.217500X0.100000X-0.217500X0.100000X0.217500X0*%
%ADD29RoundRect,0.100000X0.100000X-0.217500X0.100000X0.217500X-0.100000X0.217500X-0.100000X-0.217500X0*%
%ADD30RoundRect,0.102000X-0.850900X-0.266700X0.850900X-0.266700X0.850900X0.266700X-0.850900X0.266700X0*%
%ADD31C,2.540000*%
G04 APERTURE END LIST*
D10*
%TO.C,X1*%
X78142500Y-123565000D03*
X81042500Y-123565000D03*
X81042500Y-121265000D03*
X78142500Y-121265000D03*
%TD*%
D11*
%TO.C,U7*%
X20850000Y-137700000D03*
X20850000Y-140000000D03*
D12*
X27150000Y-140000000D03*
D11*
X20850000Y-142300000D03*
%TD*%
D13*
%TO.C,U6*%
X100562500Y-179000000D03*
X100562500Y-179500000D03*
X100562500Y-180000000D03*
X100562500Y-180500000D03*
X100562500Y-181000000D03*
X100562500Y-181500000D03*
X100562500Y-182000000D03*
X100562500Y-182500000D03*
X100562500Y-183000000D03*
X100562500Y-183500000D03*
X100562500Y-184000000D03*
X100562500Y-184500000D03*
D14*
X101250000Y-185187500D03*
X101750000Y-185187500D03*
X102250000Y-185187500D03*
X102750000Y-185187500D03*
X103250000Y-185187500D03*
X103750000Y-185187500D03*
X104250000Y-185187500D03*
X104750000Y-185187500D03*
X105250000Y-185187500D03*
X105750000Y-185187500D03*
X106250000Y-185187500D03*
X106750000Y-185187500D03*
D13*
X107437500Y-184500000D03*
X107437500Y-184000000D03*
X107437500Y-183500000D03*
X107437500Y-183000000D03*
X107437500Y-182500000D03*
X107437500Y-182000000D03*
X107437500Y-181500000D03*
X107437500Y-181000000D03*
X107437500Y-180500000D03*
X107437500Y-180000000D03*
X107437500Y-179500000D03*
X107437500Y-179000000D03*
D14*
X106750000Y-178312500D03*
X106250000Y-178312500D03*
X105750000Y-178312500D03*
X105250000Y-178312500D03*
X104750000Y-178312500D03*
X104250000Y-178312500D03*
X103750000Y-178312500D03*
X103250000Y-178312500D03*
X102750000Y-178312500D03*
X102250000Y-178312500D03*
X101750000Y-178312500D03*
X101250000Y-178312500D03*
D15*
X104000000Y-181750000D03*
%TD*%
D16*
%TO.C,U5*%
X96025000Y-126345000D03*
X96025000Y-127615000D03*
X96025000Y-128885000D03*
X96025000Y-130155000D03*
X100975000Y-130155000D03*
X100975000Y-128885000D03*
X100975000Y-127615000D03*
X100975000Y-126345000D03*
%TD*%
D17*
%TO.C,U4*%
X65845000Y-141700000D03*
X65845000Y-142200000D03*
X65845000Y-142700000D03*
X65845000Y-143200000D03*
X65845000Y-143700000D03*
X70070000Y-143700000D03*
X70070000Y-143200000D03*
X70070000Y-142700000D03*
X70070000Y-142200000D03*
X70070000Y-141700000D03*
%TD*%
D16*
%TO.C,U3*%
X55800000Y-102190000D03*
X55800000Y-103460000D03*
X55800000Y-104730000D03*
X55800000Y-106000000D03*
X60750000Y-106000000D03*
X60750000Y-104730000D03*
X60750000Y-103460000D03*
X60750000Y-102190000D03*
%TD*%
D18*
%TO.C,TP3*%
X62477500Y-142670000D03*
%TD*%
%TO.C,TP2*%
X62477500Y-139120000D03*
%TD*%
%TO.C,TP1*%
X62477500Y-135570000D03*
%TD*%
D19*
%TO.C,R16*%
X67320000Y-130920000D03*
X68135000Y-130920000D03*
%TD*%
%TO.C,R15*%
X67320000Y-129170000D03*
X68135000Y-129170000D03*
%TD*%
%TO.C,R14*%
X67320000Y-127420000D03*
X68135000Y-127420000D03*
%TD*%
%TO.C,R13*%
X67320000Y-125670000D03*
X68135000Y-125670000D03*
%TD*%
%TO.C,R12*%
X67320000Y-123920000D03*
X68135000Y-123920000D03*
%TD*%
%TO.C,R11*%
X67320000Y-122170000D03*
X68135000Y-122170000D03*
%TD*%
%TO.C,R10*%
X67320000Y-120420000D03*
X68135000Y-120420000D03*
%TD*%
%TO.C,R9*%
X64510000Y-130920000D03*
X65325000Y-130920000D03*
%TD*%
%TO.C,R6*%
X72660000Y-144750000D03*
X73475000Y-144750000D03*
%TD*%
%TO.C,R5*%
X72660000Y-143000000D03*
X73475000Y-143000000D03*
%TD*%
D20*
%TO.C,J3*%
X63657500Y-112235000D03*
X69437500Y-112235000D03*
D21*
X63347500Y-111115000D03*
X64147500Y-111115000D03*
D22*
X65297500Y-111115000D03*
X66297500Y-111115000D03*
X66797500Y-111115000D03*
X67797500Y-111115000D03*
D21*
X68947500Y-111115000D03*
X69747500Y-111115000D03*
X69747500Y-111115000D03*
X68947500Y-111115000D03*
D22*
X68297500Y-111115000D03*
X67297500Y-111115000D03*
X65797500Y-111115000D03*
X64797500Y-111115000D03*
D21*
X64147500Y-111115000D03*
X63347500Y-111115000D03*
D23*
X62227500Y-111715000D03*
D24*
X62227500Y-115915000D03*
D23*
X70867500Y-111715000D03*
D24*
X70867500Y-115915000D03*
%TD*%
D25*
%TO.C,J2*%
X71427500Y-121840000D03*
D26*
X73967500Y-121840000D03*
X71427500Y-124380000D03*
X73967500Y-124380000D03*
X71427500Y-126920000D03*
X73967500Y-126920000D03*
%TD*%
D25*
%TO.C,J1*%
X79477500Y-111760000D03*
D26*
X79477500Y-114300000D03*
%TD*%
D27*
%TO.C,D3*%
X73787500Y-117065000D03*
X75837500Y-117065000D03*
%TD*%
%TO.C,D2*%
X73787500Y-114025000D03*
X75837500Y-114025000D03*
%TD*%
%TO.C,D1*%
X73787500Y-110985000D03*
X75837500Y-110985000D03*
%TD*%
D28*
%TO.C,C29*%
X17750000Y-139660000D03*
X17750000Y-140475000D03*
%TD*%
D29*
%TO.C,C28*%
X17750000Y-141592500D03*
X17750000Y-142407500D03*
%TD*%
D19*
%TO.C,C27*%
X64510000Y-125670000D03*
X65325000Y-125670000D03*
%TD*%
%TO.C,C26*%
X64510000Y-123920000D03*
X65325000Y-123920000D03*
%TD*%
%TO.C,C25*%
X64510000Y-122170000D03*
X65325000Y-122170000D03*
%TD*%
%TO.C,C24*%
X64510000Y-120420000D03*
X65325000Y-120420000D03*
%TD*%
%TO.C,C23*%
X61700000Y-130920000D03*
X62515000Y-130920000D03*
%TD*%
%TO.C,C22*%
X61700000Y-129170000D03*
X62515000Y-129170000D03*
%TD*%
%TO.C,C21*%
X61700000Y-127420000D03*
X62515000Y-127420000D03*
%TD*%
%TO.C,C20*%
X61700000Y-125670000D03*
X62515000Y-125670000D03*
%TD*%
%TO.C,C19*%
X61700000Y-123920000D03*
X62515000Y-123920000D03*
%TD*%
%TO.C,C18*%
X61700000Y-122170000D03*
X62515000Y-122170000D03*
%TD*%
%TO.C,C17*%
X61700000Y-120420000D03*
X62515000Y-120420000D03*
%TD*%
%TO.C,C15*%
X72660000Y-141250000D03*
X73475000Y-141250000D03*
%TD*%
%TO.C,R8*%
X42470000Y-124000000D03*
X43285000Y-124000000D03*
%TD*%
%TO.C,R7*%
X42470000Y-122250000D03*
X43285000Y-122250000D03*
%TD*%
%TO.C,R4*%
X42470000Y-120500000D03*
X43285000Y-120500000D03*
%TD*%
%TO.C,R3*%
X42470000Y-118750000D03*
X43285000Y-118750000D03*
%TD*%
%TO.C,R2*%
X42470000Y-117000000D03*
X43285000Y-117000000D03*
%TD*%
%TO.C,R1*%
X39660000Y-127500000D03*
X40475000Y-127500000D03*
%TD*%
%TO.C,L1*%
X39660000Y-125750000D03*
X40475000Y-125750000D03*
%TD*%
%TO.C,C16*%
X39660000Y-124000000D03*
X40475000Y-124000000D03*
%TD*%
%TO.C,C14*%
X39660000Y-122250000D03*
X40475000Y-122250000D03*
%TD*%
%TO.C,C13*%
X39660000Y-120500000D03*
X40475000Y-120500000D03*
%TD*%
%TO.C,C12*%
X39660000Y-118750000D03*
X40475000Y-118750000D03*
%TD*%
%TO.C,C11*%
X39660000Y-117000000D03*
X40475000Y-117000000D03*
%TD*%
%TO.C,C10*%
X36850000Y-127500000D03*
X37665000Y-127500000D03*
%TD*%
%TO.C,C9*%
X36850000Y-125750000D03*
X37665000Y-125750000D03*
%TD*%
%TO.C,C8*%
X36850000Y-124000000D03*
X37665000Y-124000000D03*
%TD*%
%TO.C,C7*%
X36850000Y-122250000D03*
X37665000Y-122250000D03*
%TD*%
%TO.C,C6*%
X36850000Y-120500000D03*
X37665000Y-120500000D03*
%TD*%
D29*
%TO.C,C5*%
X20000000Y-119657500D03*
X20000000Y-118842500D03*
%TD*%
D19*
%TO.C,C4*%
X36850000Y-117000000D03*
X37665000Y-117000000D03*
%TD*%
%TO.C,C3*%
X53660000Y-76500000D03*
X54475000Y-76500000D03*
%TD*%
D30*
%TO.C,U1*%
X63818400Y-73110000D03*
X63818400Y-74380000D03*
X63818400Y-75650000D03*
X63818400Y-76920000D03*
X63818400Y-78190000D03*
X63818400Y-79460000D03*
X63818400Y-80730000D03*
X63818400Y-82000000D03*
X69000000Y-82000000D03*
X69000000Y-80730000D03*
X69000000Y-79460000D03*
X69000000Y-78190000D03*
X69000000Y-76920000D03*
X69000000Y-75650000D03*
X69000000Y-74380000D03*
X69000000Y-73110000D03*
%TD*%
%TO.C,U2*%
X119159200Y-70055000D03*
X119159200Y-71325000D03*
X119159200Y-72595000D03*
X119159200Y-73865000D03*
X119159200Y-75135000D03*
X119159200Y-76405000D03*
X119159200Y-77675000D03*
X119159200Y-78945000D03*
X124340800Y-78945000D03*
X124340800Y-77675000D03*
X124340800Y-76405000D03*
X124340800Y-75135000D03*
X124340800Y-73865000D03*
X124340800Y-72595000D03*
X124340800Y-71325000D03*
X124340800Y-70055000D03*
%TD*%
D19*
%TO.C,C1*%
X53660000Y-73000000D03*
X54475000Y-73000000D03*
%TD*%
%TO.C,C2*%
X53660000Y-74750000D03*
X54475000Y-74750000D03*
%TD*%
D31*
%TO.C,OSC5A2B1*%
X180975000Y-47975000D03*
X180975000Y-57500000D03*
X180975000Y-67025000D03*
X200025000Y-67025000D03*
X200025000Y-47975000D03*
%TD*%
M02*
