%TF.GenerationSoftware,KiCad,Pcbnew,9.0.4*%
%TF.CreationDate,2025-09-29T16:45:49+02:00*%
%TF.ProjectId,gpsdo,67707364-6f2e-46b6-9963-61645f706362,rev?*%
%TF.SameCoordinates,Original*%
%TF.FileFunction,Legend,Top*%
%TF.FilePolarity,Positive*%
%FSLAX46Y46*%
G04 Gerber Fmt 4.6, Leading zero omitted, Abs format (unit mm)*
G04 Created by KiCad (PCBNEW 9.0.4) date 2025-09-29 16:45:49*
%MOMM*%
%LPD*%
G01*
G04 APERTURE LIST*
%ADD10C,0.150000*%
%ADD11C,0.100000*%
%ADD12C,0.120000*%
%ADD13C,0.152400*%
%ADD14C,0.300000*%
G04 APERTURE END LIST*
D10*
X78782976Y-118869819D02*
X79449642Y-119869819D01*
X79449642Y-118869819D02*
X78782976Y-119869819D01*
X80354404Y-119869819D02*
X79782976Y-119869819D01*
X80068690Y-119869819D02*
X80068690Y-118869819D01*
X80068690Y-118869819D02*
X79973452Y-119012676D01*
X79973452Y-119012676D02*
X79878214Y-119107914D01*
X79878214Y-119107914D02*
X79782976Y-119155533D01*
X23238095Y-134954819D02*
X23238095Y-135764342D01*
X23238095Y-135764342D02*
X23285714Y-135859580D01*
X23285714Y-135859580D02*
X23333333Y-135907200D01*
X23333333Y-135907200D02*
X23428571Y-135954819D01*
X23428571Y-135954819D02*
X23619047Y-135954819D01*
X23619047Y-135954819D02*
X23714285Y-135907200D01*
X23714285Y-135907200D02*
X23761904Y-135859580D01*
X23761904Y-135859580D02*
X23809523Y-135764342D01*
X23809523Y-135764342D02*
X23809523Y-134954819D01*
X24190476Y-134954819D02*
X24857142Y-134954819D01*
X24857142Y-134954819D02*
X24428571Y-135954819D01*
X103238095Y-176374819D02*
X103238095Y-177184342D01*
X103238095Y-177184342D02*
X103285714Y-177279580D01*
X103285714Y-177279580D02*
X103333333Y-177327200D01*
X103333333Y-177327200D02*
X103428571Y-177374819D01*
X103428571Y-177374819D02*
X103619047Y-177374819D01*
X103619047Y-177374819D02*
X103714285Y-177327200D01*
X103714285Y-177327200D02*
X103761904Y-177279580D01*
X103761904Y-177279580D02*
X103809523Y-177184342D01*
X103809523Y-177184342D02*
X103809523Y-176374819D01*
X104714285Y-176374819D02*
X104523809Y-176374819D01*
X104523809Y-176374819D02*
X104428571Y-176422438D01*
X104428571Y-176422438D02*
X104380952Y-176470057D01*
X104380952Y-176470057D02*
X104285714Y-176612914D01*
X104285714Y-176612914D02*
X104238095Y-176803390D01*
X104238095Y-176803390D02*
X104238095Y-177184342D01*
X104238095Y-177184342D02*
X104285714Y-177279580D01*
X104285714Y-177279580D02*
X104333333Y-177327200D01*
X104333333Y-177327200D02*
X104428571Y-177374819D01*
X104428571Y-177374819D02*
X104619047Y-177374819D01*
X104619047Y-177374819D02*
X104714285Y-177327200D01*
X104714285Y-177327200D02*
X104761904Y-177279580D01*
X104761904Y-177279580D02*
X104809523Y-177184342D01*
X104809523Y-177184342D02*
X104809523Y-176946247D01*
X104809523Y-176946247D02*
X104761904Y-176851009D01*
X104761904Y-176851009D02*
X104714285Y-176803390D01*
X104714285Y-176803390D02*
X104619047Y-176755771D01*
X104619047Y-176755771D02*
X104428571Y-176755771D01*
X104428571Y-176755771D02*
X104333333Y-176803390D01*
X104333333Y-176803390D02*
X104285714Y-176851009D01*
X104285714Y-176851009D02*
X104238095Y-176946247D01*
X97738095Y-124304819D02*
X97738095Y-125114342D01*
X97738095Y-125114342D02*
X97785714Y-125209580D01*
X97785714Y-125209580D02*
X97833333Y-125257200D01*
X97833333Y-125257200D02*
X97928571Y-125304819D01*
X97928571Y-125304819D02*
X98119047Y-125304819D01*
X98119047Y-125304819D02*
X98214285Y-125257200D01*
X98214285Y-125257200D02*
X98261904Y-125209580D01*
X98261904Y-125209580D02*
X98309523Y-125114342D01*
X98309523Y-125114342D02*
X98309523Y-124304819D01*
X99261904Y-124304819D02*
X98785714Y-124304819D01*
X98785714Y-124304819D02*
X98738095Y-124781009D01*
X98738095Y-124781009D02*
X98785714Y-124733390D01*
X98785714Y-124733390D02*
X98880952Y-124685771D01*
X98880952Y-124685771D02*
X99119047Y-124685771D01*
X99119047Y-124685771D02*
X99214285Y-124733390D01*
X99214285Y-124733390D02*
X99261904Y-124781009D01*
X99261904Y-124781009D02*
X99309523Y-124876247D01*
X99309523Y-124876247D02*
X99309523Y-125114342D01*
X99309523Y-125114342D02*
X99261904Y-125209580D01*
X99261904Y-125209580D02*
X99214285Y-125257200D01*
X99214285Y-125257200D02*
X99119047Y-125304819D01*
X99119047Y-125304819D02*
X98880952Y-125304819D01*
X98880952Y-125304819D02*
X98785714Y-125257200D01*
X98785714Y-125257200D02*
X98738095Y-125209580D01*
X67195595Y-139704819D02*
X67195595Y-140514342D01*
X67195595Y-140514342D02*
X67243214Y-140609580D01*
X67243214Y-140609580D02*
X67290833Y-140657200D01*
X67290833Y-140657200D02*
X67386071Y-140704819D01*
X67386071Y-140704819D02*
X67576547Y-140704819D01*
X67576547Y-140704819D02*
X67671785Y-140657200D01*
X67671785Y-140657200D02*
X67719404Y-140609580D01*
X67719404Y-140609580D02*
X67767023Y-140514342D01*
X67767023Y-140514342D02*
X67767023Y-139704819D01*
X68671785Y-140038152D02*
X68671785Y-140704819D01*
X68433690Y-139657200D02*
X68195595Y-140371485D01*
X68195595Y-140371485D02*
X68814642Y-140371485D01*
X57513095Y-100149819D02*
X57513095Y-100959342D01*
X57513095Y-100959342D02*
X57560714Y-101054580D01*
X57560714Y-101054580D02*
X57608333Y-101102200D01*
X57608333Y-101102200D02*
X57703571Y-101149819D01*
X57703571Y-101149819D02*
X57894047Y-101149819D01*
X57894047Y-101149819D02*
X57989285Y-101102200D01*
X57989285Y-101102200D02*
X58036904Y-101054580D01*
X58036904Y-101054580D02*
X58084523Y-100959342D01*
X58084523Y-100959342D02*
X58084523Y-100149819D01*
X58465476Y-100149819D02*
X59084523Y-100149819D01*
X59084523Y-100149819D02*
X58751190Y-100530771D01*
X58751190Y-100530771D02*
X58894047Y-100530771D01*
X58894047Y-100530771D02*
X58989285Y-100578390D01*
X58989285Y-100578390D02*
X59036904Y-100626009D01*
X59036904Y-100626009D02*
X59084523Y-100721247D01*
X59084523Y-100721247D02*
X59084523Y-100959342D01*
X59084523Y-100959342D02*
X59036904Y-101054580D01*
X59036904Y-101054580D02*
X58989285Y-101102200D01*
X58989285Y-101102200D02*
X58894047Y-101149819D01*
X58894047Y-101149819D02*
X58608333Y-101149819D01*
X58608333Y-101149819D02*
X58513095Y-101102200D01*
X58513095Y-101102200D02*
X58465476Y-101054580D01*
X61215595Y-140476819D02*
X61787023Y-140476819D01*
X61501309Y-141476819D02*
X61501309Y-140476819D01*
X62120357Y-141476819D02*
X62120357Y-140476819D01*
X62120357Y-140476819D02*
X62501309Y-140476819D01*
X62501309Y-140476819D02*
X62596547Y-140524438D01*
X62596547Y-140524438D02*
X62644166Y-140572057D01*
X62644166Y-140572057D02*
X62691785Y-140667295D01*
X62691785Y-140667295D02*
X62691785Y-140810152D01*
X62691785Y-140810152D02*
X62644166Y-140905390D01*
X62644166Y-140905390D02*
X62596547Y-140953009D01*
X62596547Y-140953009D02*
X62501309Y-141000628D01*
X62501309Y-141000628D02*
X62120357Y-141000628D01*
X63025119Y-140476819D02*
X63644166Y-140476819D01*
X63644166Y-140476819D02*
X63310833Y-140857771D01*
X63310833Y-140857771D02*
X63453690Y-140857771D01*
X63453690Y-140857771D02*
X63548928Y-140905390D01*
X63548928Y-140905390D02*
X63596547Y-140953009D01*
X63596547Y-140953009D02*
X63644166Y-141048247D01*
X63644166Y-141048247D02*
X63644166Y-141286342D01*
X63644166Y-141286342D02*
X63596547Y-141381580D01*
X63596547Y-141381580D02*
X63548928Y-141429200D01*
X63548928Y-141429200D02*
X63453690Y-141476819D01*
X63453690Y-141476819D02*
X63167976Y-141476819D01*
X63167976Y-141476819D02*
X63072738Y-141429200D01*
X63072738Y-141429200D02*
X63025119Y-141381580D01*
X61215595Y-136926819D02*
X61787023Y-136926819D01*
X61501309Y-137926819D02*
X61501309Y-136926819D01*
X62120357Y-137926819D02*
X62120357Y-136926819D01*
X62120357Y-136926819D02*
X62501309Y-136926819D01*
X62501309Y-136926819D02*
X62596547Y-136974438D01*
X62596547Y-136974438D02*
X62644166Y-137022057D01*
X62644166Y-137022057D02*
X62691785Y-137117295D01*
X62691785Y-137117295D02*
X62691785Y-137260152D01*
X62691785Y-137260152D02*
X62644166Y-137355390D01*
X62644166Y-137355390D02*
X62596547Y-137403009D01*
X62596547Y-137403009D02*
X62501309Y-137450628D01*
X62501309Y-137450628D02*
X62120357Y-137450628D01*
X63072738Y-137022057D02*
X63120357Y-136974438D01*
X63120357Y-136974438D02*
X63215595Y-136926819D01*
X63215595Y-136926819D02*
X63453690Y-136926819D01*
X63453690Y-136926819D02*
X63548928Y-136974438D01*
X63548928Y-136974438D02*
X63596547Y-137022057D01*
X63596547Y-137022057D02*
X63644166Y-137117295D01*
X63644166Y-137117295D02*
X63644166Y-137212533D01*
X63644166Y-137212533D02*
X63596547Y-137355390D01*
X63596547Y-137355390D02*
X63025119Y-137926819D01*
X63025119Y-137926819D02*
X63644166Y-137926819D01*
X61215595Y-133376819D02*
X61787023Y-133376819D01*
X61501309Y-134376819D02*
X61501309Y-133376819D01*
X62120357Y-134376819D02*
X62120357Y-133376819D01*
X62120357Y-133376819D02*
X62501309Y-133376819D01*
X62501309Y-133376819D02*
X62596547Y-133424438D01*
X62596547Y-133424438D02*
X62644166Y-133472057D01*
X62644166Y-133472057D02*
X62691785Y-133567295D01*
X62691785Y-133567295D02*
X62691785Y-133710152D01*
X62691785Y-133710152D02*
X62644166Y-133805390D01*
X62644166Y-133805390D02*
X62596547Y-133853009D01*
X62596547Y-133853009D02*
X62501309Y-133900628D01*
X62501309Y-133900628D02*
X62120357Y-133900628D01*
X63644166Y-134376819D02*
X63072738Y-134376819D01*
X63358452Y-134376819D02*
X63358452Y-133376819D01*
X63358452Y-133376819D02*
X63263214Y-133519676D01*
X63263214Y-133519676D02*
X63167976Y-133614914D01*
X63167976Y-133614914D02*
X63072738Y-133662533D01*
X67084642Y-130324819D02*
X66751309Y-129848628D01*
X66513214Y-130324819D02*
X66513214Y-129324819D01*
X66513214Y-129324819D02*
X66894166Y-129324819D01*
X66894166Y-129324819D02*
X66989404Y-129372438D01*
X66989404Y-129372438D02*
X67037023Y-129420057D01*
X67037023Y-129420057D02*
X67084642Y-129515295D01*
X67084642Y-129515295D02*
X67084642Y-129658152D01*
X67084642Y-129658152D02*
X67037023Y-129753390D01*
X67037023Y-129753390D02*
X66989404Y-129801009D01*
X66989404Y-129801009D02*
X66894166Y-129848628D01*
X66894166Y-129848628D02*
X66513214Y-129848628D01*
X68037023Y-130324819D02*
X67465595Y-130324819D01*
X67751309Y-130324819D02*
X67751309Y-129324819D01*
X67751309Y-129324819D02*
X67656071Y-129467676D01*
X67656071Y-129467676D02*
X67560833Y-129562914D01*
X67560833Y-129562914D02*
X67465595Y-129610533D01*
X68894166Y-129324819D02*
X68703690Y-129324819D01*
X68703690Y-129324819D02*
X68608452Y-129372438D01*
X68608452Y-129372438D02*
X68560833Y-129420057D01*
X68560833Y-129420057D02*
X68465595Y-129562914D01*
X68465595Y-129562914D02*
X68417976Y-129753390D01*
X68417976Y-129753390D02*
X68417976Y-130134342D01*
X68417976Y-130134342D02*
X68465595Y-130229580D01*
X68465595Y-130229580D02*
X68513214Y-130277200D01*
X68513214Y-130277200D02*
X68608452Y-130324819D01*
X68608452Y-130324819D02*
X68798928Y-130324819D01*
X68798928Y-130324819D02*
X68894166Y-130277200D01*
X68894166Y-130277200D02*
X68941785Y-130229580D01*
X68941785Y-130229580D02*
X68989404Y-130134342D01*
X68989404Y-130134342D02*
X68989404Y-129896247D01*
X68989404Y-129896247D02*
X68941785Y-129801009D01*
X68941785Y-129801009D02*
X68894166Y-129753390D01*
X68894166Y-129753390D02*
X68798928Y-129705771D01*
X68798928Y-129705771D02*
X68608452Y-129705771D01*
X68608452Y-129705771D02*
X68513214Y-129753390D01*
X68513214Y-129753390D02*
X68465595Y-129801009D01*
X68465595Y-129801009D02*
X68417976Y-129896247D01*
X67084642Y-128574819D02*
X66751309Y-128098628D01*
X66513214Y-128574819D02*
X66513214Y-127574819D01*
X66513214Y-127574819D02*
X66894166Y-127574819D01*
X66894166Y-127574819D02*
X66989404Y-127622438D01*
X66989404Y-127622438D02*
X67037023Y-127670057D01*
X67037023Y-127670057D02*
X67084642Y-127765295D01*
X67084642Y-127765295D02*
X67084642Y-127908152D01*
X67084642Y-127908152D02*
X67037023Y-128003390D01*
X67037023Y-128003390D02*
X66989404Y-128051009D01*
X66989404Y-128051009D02*
X66894166Y-128098628D01*
X66894166Y-128098628D02*
X66513214Y-128098628D01*
X68037023Y-128574819D02*
X67465595Y-128574819D01*
X67751309Y-128574819D02*
X67751309Y-127574819D01*
X67751309Y-127574819D02*
X67656071Y-127717676D01*
X67656071Y-127717676D02*
X67560833Y-127812914D01*
X67560833Y-127812914D02*
X67465595Y-127860533D01*
X68941785Y-127574819D02*
X68465595Y-127574819D01*
X68465595Y-127574819D02*
X68417976Y-128051009D01*
X68417976Y-128051009D02*
X68465595Y-128003390D01*
X68465595Y-128003390D02*
X68560833Y-127955771D01*
X68560833Y-127955771D02*
X68798928Y-127955771D01*
X68798928Y-127955771D02*
X68894166Y-128003390D01*
X68894166Y-128003390D02*
X68941785Y-128051009D01*
X68941785Y-128051009D02*
X68989404Y-128146247D01*
X68989404Y-128146247D02*
X68989404Y-128384342D01*
X68989404Y-128384342D02*
X68941785Y-128479580D01*
X68941785Y-128479580D02*
X68894166Y-128527200D01*
X68894166Y-128527200D02*
X68798928Y-128574819D01*
X68798928Y-128574819D02*
X68560833Y-128574819D01*
X68560833Y-128574819D02*
X68465595Y-128527200D01*
X68465595Y-128527200D02*
X68417976Y-128479580D01*
X67084642Y-126824819D02*
X66751309Y-126348628D01*
X66513214Y-126824819D02*
X66513214Y-125824819D01*
X66513214Y-125824819D02*
X66894166Y-125824819D01*
X66894166Y-125824819D02*
X66989404Y-125872438D01*
X66989404Y-125872438D02*
X67037023Y-125920057D01*
X67037023Y-125920057D02*
X67084642Y-126015295D01*
X67084642Y-126015295D02*
X67084642Y-126158152D01*
X67084642Y-126158152D02*
X67037023Y-126253390D01*
X67037023Y-126253390D02*
X66989404Y-126301009D01*
X66989404Y-126301009D02*
X66894166Y-126348628D01*
X66894166Y-126348628D02*
X66513214Y-126348628D01*
X68037023Y-126824819D02*
X67465595Y-126824819D01*
X67751309Y-126824819D02*
X67751309Y-125824819D01*
X67751309Y-125824819D02*
X67656071Y-125967676D01*
X67656071Y-125967676D02*
X67560833Y-126062914D01*
X67560833Y-126062914D02*
X67465595Y-126110533D01*
X68894166Y-126158152D02*
X68894166Y-126824819D01*
X68656071Y-125777200D02*
X68417976Y-126491485D01*
X68417976Y-126491485D02*
X69037023Y-126491485D01*
X67084642Y-125074819D02*
X66751309Y-124598628D01*
X66513214Y-125074819D02*
X66513214Y-124074819D01*
X66513214Y-124074819D02*
X66894166Y-124074819D01*
X66894166Y-124074819D02*
X66989404Y-124122438D01*
X66989404Y-124122438D02*
X67037023Y-124170057D01*
X67037023Y-124170057D02*
X67084642Y-124265295D01*
X67084642Y-124265295D02*
X67084642Y-124408152D01*
X67084642Y-124408152D02*
X67037023Y-124503390D01*
X67037023Y-124503390D02*
X66989404Y-124551009D01*
X66989404Y-124551009D02*
X66894166Y-124598628D01*
X66894166Y-124598628D02*
X66513214Y-124598628D01*
X68037023Y-125074819D02*
X67465595Y-125074819D01*
X67751309Y-125074819D02*
X67751309Y-124074819D01*
X67751309Y-124074819D02*
X67656071Y-124217676D01*
X67656071Y-124217676D02*
X67560833Y-124312914D01*
X67560833Y-124312914D02*
X67465595Y-124360533D01*
X68370357Y-124074819D02*
X68989404Y-124074819D01*
X68989404Y-124074819D02*
X68656071Y-124455771D01*
X68656071Y-124455771D02*
X68798928Y-124455771D01*
X68798928Y-124455771D02*
X68894166Y-124503390D01*
X68894166Y-124503390D02*
X68941785Y-124551009D01*
X68941785Y-124551009D02*
X68989404Y-124646247D01*
X68989404Y-124646247D02*
X68989404Y-124884342D01*
X68989404Y-124884342D02*
X68941785Y-124979580D01*
X68941785Y-124979580D02*
X68894166Y-125027200D01*
X68894166Y-125027200D02*
X68798928Y-125074819D01*
X68798928Y-125074819D02*
X68513214Y-125074819D01*
X68513214Y-125074819D02*
X68417976Y-125027200D01*
X68417976Y-125027200D02*
X68370357Y-124979580D01*
X67084642Y-123324819D02*
X66751309Y-122848628D01*
X66513214Y-123324819D02*
X66513214Y-122324819D01*
X66513214Y-122324819D02*
X66894166Y-122324819D01*
X66894166Y-122324819D02*
X66989404Y-122372438D01*
X66989404Y-122372438D02*
X67037023Y-122420057D01*
X67037023Y-122420057D02*
X67084642Y-122515295D01*
X67084642Y-122515295D02*
X67084642Y-122658152D01*
X67084642Y-122658152D02*
X67037023Y-122753390D01*
X67037023Y-122753390D02*
X66989404Y-122801009D01*
X66989404Y-122801009D02*
X66894166Y-122848628D01*
X66894166Y-122848628D02*
X66513214Y-122848628D01*
X68037023Y-123324819D02*
X67465595Y-123324819D01*
X67751309Y-123324819D02*
X67751309Y-122324819D01*
X67751309Y-122324819D02*
X67656071Y-122467676D01*
X67656071Y-122467676D02*
X67560833Y-122562914D01*
X67560833Y-122562914D02*
X67465595Y-122610533D01*
X68417976Y-122420057D02*
X68465595Y-122372438D01*
X68465595Y-122372438D02*
X68560833Y-122324819D01*
X68560833Y-122324819D02*
X68798928Y-122324819D01*
X68798928Y-122324819D02*
X68894166Y-122372438D01*
X68894166Y-122372438D02*
X68941785Y-122420057D01*
X68941785Y-122420057D02*
X68989404Y-122515295D01*
X68989404Y-122515295D02*
X68989404Y-122610533D01*
X68989404Y-122610533D02*
X68941785Y-122753390D01*
X68941785Y-122753390D02*
X68370357Y-123324819D01*
X68370357Y-123324819D02*
X68989404Y-123324819D01*
X67084642Y-121574819D02*
X66751309Y-121098628D01*
X66513214Y-121574819D02*
X66513214Y-120574819D01*
X66513214Y-120574819D02*
X66894166Y-120574819D01*
X66894166Y-120574819D02*
X66989404Y-120622438D01*
X66989404Y-120622438D02*
X67037023Y-120670057D01*
X67037023Y-120670057D02*
X67084642Y-120765295D01*
X67084642Y-120765295D02*
X67084642Y-120908152D01*
X67084642Y-120908152D02*
X67037023Y-121003390D01*
X67037023Y-121003390D02*
X66989404Y-121051009D01*
X66989404Y-121051009D02*
X66894166Y-121098628D01*
X66894166Y-121098628D02*
X66513214Y-121098628D01*
X68037023Y-121574819D02*
X67465595Y-121574819D01*
X67751309Y-121574819D02*
X67751309Y-120574819D01*
X67751309Y-120574819D02*
X67656071Y-120717676D01*
X67656071Y-120717676D02*
X67560833Y-120812914D01*
X67560833Y-120812914D02*
X67465595Y-120860533D01*
X68989404Y-121574819D02*
X68417976Y-121574819D01*
X68703690Y-121574819D02*
X68703690Y-120574819D01*
X68703690Y-120574819D02*
X68608452Y-120717676D01*
X68608452Y-120717676D02*
X68513214Y-120812914D01*
X68513214Y-120812914D02*
X68417976Y-120860533D01*
X67084642Y-119824819D02*
X66751309Y-119348628D01*
X66513214Y-119824819D02*
X66513214Y-118824819D01*
X66513214Y-118824819D02*
X66894166Y-118824819D01*
X66894166Y-118824819D02*
X66989404Y-118872438D01*
X66989404Y-118872438D02*
X67037023Y-118920057D01*
X67037023Y-118920057D02*
X67084642Y-119015295D01*
X67084642Y-119015295D02*
X67084642Y-119158152D01*
X67084642Y-119158152D02*
X67037023Y-119253390D01*
X67037023Y-119253390D02*
X66989404Y-119301009D01*
X66989404Y-119301009D02*
X66894166Y-119348628D01*
X66894166Y-119348628D02*
X66513214Y-119348628D01*
X68037023Y-119824819D02*
X67465595Y-119824819D01*
X67751309Y-119824819D02*
X67751309Y-118824819D01*
X67751309Y-118824819D02*
X67656071Y-118967676D01*
X67656071Y-118967676D02*
X67560833Y-119062914D01*
X67560833Y-119062914D02*
X67465595Y-119110533D01*
X68656071Y-118824819D02*
X68751309Y-118824819D01*
X68751309Y-118824819D02*
X68846547Y-118872438D01*
X68846547Y-118872438D02*
X68894166Y-118920057D01*
X68894166Y-118920057D02*
X68941785Y-119015295D01*
X68941785Y-119015295D02*
X68989404Y-119205771D01*
X68989404Y-119205771D02*
X68989404Y-119443866D01*
X68989404Y-119443866D02*
X68941785Y-119634342D01*
X68941785Y-119634342D02*
X68894166Y-119729580D01*
X68894166Y-119729580D02*
X68846547Y-119777200D01*
X68846547Y-119777200D02*
X68751309Y-119824819D01*
X68751309Y-119824819D02*
X68656071Y-119824819D01*
X68656071Y-119824819D02*
X68560833Y-119777200D01*
X68560833Y-119777200D02*
X68513214Y-119729580D01*
X68513214Y-119729580D02*
X68465595Y-119634342D01*
X68465595Y-119634342D02*
X68417976Y-119443866D01*
X68417976Y-119443866D02*
X68417976Y-119205771D01*
X68417976Y-119205771D02*
X68465595Y-119015295D01*
X68465595Y-119015295D02*
X68513214Y-118920057D01*
X68513214Y-118920057D02*
X68560833Y-118872438D01*
X68560833Y-118872438D02*
X68656071Y-118824819D01*
X64750833Y-130324819D02*
X64417500Y-129848628D01*
X64179405Y-130324819D02*
X64179405Y-129324819D01*
X64179405Y-129324819D02*
X64560357Y-129324819D01*
X64560357Y-129324819D02*
X64655595Y-129372438D01*
X64655595Y-129372438D02*
X64703214Y-129420057D01*
X64703214Y-129420057D02*
X64750833Y-129515295D01*
X64750833Y-129515295D02*
X64750833Y-129658152D01*
X64750833Y-129658152D02*
X64703214Y-129753390D01*
X64703214Y-129753390D02*
X64655595Y-129801009D01*
X64655595Y-129801009D02*
X64560357Y-129848628D01*
X64560357Y-129848628D02*
X64179405Y-129848628D01*
X65227024Y-130324819D02*
X65417500Y-130324819D01*
X65417500Y-130324819D02*
X65512738Y-130277200D01*
X65512738Y-130277200D02*
X65560357Y-130229580D01*
X65560357Y-130229580D02*
X65655595Y-130086723D01*
X65655595Y-130086723D02*
X65703214Y-129896247D01*
X65703214Y-129896247D02*
X65703214Y-129515295D01*
X65703214Y-129515295D02*
X65655595Y-129420057D01*
X65655595Y-129420057D02*
X65607976Y-129372438D01*
X65607976Y-129372438D02*
X65512738Y-129324819D01*
X65512738Y-129324819D02*
X65322262Y-129324819D01*
X65322262Y-129324819D02*
X65227024Y-129372438D01*
X65227024Y-129372438D02*
X65179405Y-129420057D01*
X65179405Y-129420057D02*
X65131786Y-129515295D01*
X65131786Y-129515295D02*
X65131786Y-129753390D01*
X65131786Y-129753390D02*
X65179405Y-129848628D01*
X65179405Y-129848628D02*
X65227024Y-129896247D01*
X65227024Y-129896247D02*
X65322262Y-129943866D01*
X65322262Y-129943866D02*
X65512738Y-129943866D01*
X65512738Y-129943866D02*
X65607976Y-129896247D01*
X65607976Y-129896247D02*
X65655595Y-129848628D01*
X65655595Y-129848628D02*
X65703214Y-129753390D01*
X72900833Y-144154819D02*
X72567500Y-143678628D01*
X72329405Y-144154819D02*
X72329405Y-143154819D01*
X72329405Y-143154819D02*
X72710357Y-143154819D01*
X72710357Y-143154819D02*
X72805595Y-143202438D01*
X72805595Y-143202438D02*
X72853214Y-143250057D01*
X72853214Y-143250057D02*
X72900833Y-143345295D01*
X72900833Y-143345295D02*
X72900833Y-143488152D01*
X72900833Y-143488152D02*
X72853214Y-143583390D01*
X72853214Y-143583390D02*
X72805595Y-143631009D01*
X72805595Y-143631009D02*
X72710357Y-143678628D01*
X72710357Y-143678628D02*
X72329405Y-143678628D01*
X73757976Y-143154819D02*
X73567500Y-143154819D01*
X73567500Y-143154819D02*
X73472262Y-143202438D01*
X73472262Y-143202438D02*
X73424643Y-143250057D01*
X73424643Y-143250057D02*
X73329405Y-143392914D01*
X73329405Y-143392914D02*
X73281786Y-143583390D01*
X73281786Y-143583390D02*
X73281786Y-143964342D01*
X73281786Y-143964342D02*
X73329405Y-144059580D01*
X73329405Y-144059580D02*
X73377024Y-144107200D01*
X73377024Y-144107200D02*
X73472262Y-144154819D01*
X73472262Y-144154819D02*
X73662738Y-144154819D01*
X73662738Y-144154819D02*
X73757976Y-144107200D01*
X73757976Y-144107200D02*
X73805595Y-144059580D01*
X73805595Y-144059580D02*
X73853214Y-143964342D01*
X73853214Y-143964342D02*
X73853214Y-143726247D01*
X73853214Y-143726247D02*
X73805595Y-143631009D01*
X73805595Y-143631009D02*
X73757976Y-143583390D01*
X73757976Y-143583390D02*
X73662738Y-143535771D01*
X73662738Y-143535771D02*
X73472262Y-143535771D01*
X73472262Y-143535771D02*
X73377024Y-143583390D01*
X73377024Y-143583390D02*
X73329405Y-143631009D01*
X73329405Y-143631009D02*
X73281786Y-143726247D01*
X72900833Y-142404819D02*
X72567500Y-141928628D01*
X72329405Y-142404819D02*
X72329405Y-141404819D01*
X72329405Y-141404819D02*
X72710357Y-141404819D01*
X72710357Y-141404819D02*
X72805595Y-141452438D01*
X72805595Y-141452438D02*
X72853214Y-141500057D01*
X72853214Y-141500057D02*
X72900833Y-141595295D01*
X72900833Y-141595295D02*
X72900833Y-141738152D01*
X72900833Y-141738152D02*
X72853214Y-141833390D01*
X72853214Y-141833390D02*
X72805595Y-141881009D01*
X72805595Y-141881009D02*
X72710357Y-141928628D01*
X72710357Y-141928628D02*
X72329405Y-141928628D01*
X73805595Y-141404819D02*
X73329405Y-141404819D01*
X73329405Y-141404819D02*
X73281786Y-141881009D01*
X73281786Y-141881009D02*
X73329405Y-141833390D01*
X73329405Y-141833390D02*
X73424643Y-141785771D01*
X73424643Y-141785771D02*
X73662738Y-141785771D01*
X73662738Y-141785771D02*
X73757976Y-141833390D01*
X73757976Y-141833390D02*
X73805595Y-141881009D01*
X73805595Y-141881009D02*
X73853214Y-141976247D01*
X73853214Y-141976247D02*
X73853214Y-142214342D01*
X73853214Y-142214342D02*
X73805595Y-142309580D01*
X73805595Y-142309580D02*
X73757976Y-142357200D01*
X73757976Y-142357200D02*
X73662738Y-142404819D01*
X73662738Y-142404819D02*
X73424643Y-142404819D01*
X73424643Y-142404819D02*
X73329405Y-142357200D01*
X73329405Y-142357200D02*
X73281786Y-142309580D01*
X66214166Y-108794819D02*
X66214166Y-109509104D01*
X66214166Y-109509104D02*
X66166547Y-109651961D01*
X66166547Y-109651961D02*
X66071309Y-109747200D01*
X66071309Y-109747200D02*
X65928452Y-109794819D01*
X65928452Y-109794819D02*
X65833214Y-109794819D01*
X66595119Y-108794819D02*
X67214166Y-108794819D01*
X67214166Y-108794819D02*
X66880833Y-109175771D01*
X66880833Y-109175771D02*
X67023690Y-109175771D01*
X67023690Y-109175771D02*
X67118928Y-109223390D01*
X67118928Y-109223390D02*
X67166547Y-109271009D01*
X67166547Y-109271009D02*
X67214166Y-109366247D01*
X67214166Y-109366247D02*
X67214166Y-109604342D01*
X67214166Y-109604342D02*
X67166547Y-109699580D01*
X67166547Y-109699580D02*
X67118928Y-109747200D01*
X67118928Y-109747200D02*
X67023690Y-109794819D01*
X67023690Y-109794819D02*
X66737976Y-109794819D01*
X66737976Y-109794819D02*
X66642738Y-109747200D01*
X66642738Y-109747200D02*
X66595119Y-109699580D01*
X72364166Y-118914819D02*
X72364166Y-119629104D01*
X72364166Y-119629104D02*
X72316547Y-119771961D01*
X72316547Y-119771961D02*
X72221309Y-119867200D01*
X72221309Y-119867200D02*
X72078452Y-119914819D01*
X72078452Y-119914819D02*
X71983214Y-119914819D01*
X72792738Y-119010057D02*
X72840357Y-118962438D01*
X72840357Y-118962438D02*
X72935595Y-118914819D01*
X72935595Y-118914819D02*
X73173690Y-118914819D01*
X73173690Y-118914819D02*
X73268928Y-118962438D01*
X73268928Y-118962438D02*
X73316547Y-119010057D01*
X73316547Y-119010057D02*
X73364166Y-119105295D01*
X73364166Y-119105295D02*
X73364166Y-119200533D01*
X73364166Y-119200533D02*
X73316547Y-119343390D01*
X73316547Y-119343390D02*
X72745119Y-119914819D01*
X72745119Y-119914819D02*
X73364166Y-119914819D01*
X79144166Y-108834819D02*
X79144166Y-109549104D01*
X79144166Y-109549104D02*
X79096547Y-109691961D01*
X79096547Y-109691961D02*
X79001309Y-109787200D01*
X79001309Y-109787200D02*
X78858452Y-109834819D01*
X78858452Y-109834819D02*
X78763214Y-109834819D01*
X80144166Y-109834819D02*
X79572738Y-109834819D01*
X79858452Y-109834819D02*
X79858452Y-108834819D01*
X79858452Y-108834819D02*
X79763214Y-108977676D01*
X79763214Y-108977676D02*
X79667976Y-109072914D01*
X79667976Y-109072914D02*
X79572738Y-109120533D01*
X74074405Y-115869819D02*
X74074405Y-114869819D01*
X74074405Y-114869819D02*
X74312500Y-114869819D01*
X74312500Y-114869819D02*
X74455357Y-114917438D01*
X74455357Y-114917438D02*
X74550595Y-115012676D01*
X74550595Y-115012676D02*
X74598214Y-115107914D01*
X74598214Y-115107914D02*
X74645833Y-115298390D01*
X74645833Y-115298390D02*
X74645833Y-115441247D01*
X74645833Y-115441247D02*
X74598214Y-115631723D01*
X74598214Y-115631723D02*
X74550595Y-115726961D01*
X74550595Y-115726961D02*
X74455357Y-115822200D01*
X74455357Y-115822200D02*
X74312500Y-115869819D01*
X74312500Y-115869819D02*
X74074405Y-115869819D01*
X74979167Y-114869819D02*
X75598214Y-114869819D01*
X75598214Y-114869819D02*
X75264881Y-115250771D01*
X75264881Y-115250771D02*
X75407738Y-115250771D01*
X75407738Y-115250771D02*
X75502976Y-115298390D01*
X75502976Y-115298390D02*
X75550595Y-115346009D01*
X75550595Y-115346009D02*
X75598214Y-115441247D01*
X75598214Y-115441247D02*
X75598214Y-115679342D01*
X75598214Y-115679342D02*
X75550595Y-115774580D01*
X75550595Y-115774580D02*
X75502976Y-115822200D01*
X75502976Y-115822200D02*
X75407738Y-115869819D01*
X75407738Y-115869819D02*
X75122024Y-115869819D01*
X75122024Y-115869819D02*
X75026786Y-115822200D01*
X75026786Y-115822200D02*
X74979167Y-115774580D01*
X74074405Y-112829819D02*
X74074405Y-111829819D01*
X74074405Y-111829819D02*
X74312500Y-111829819D01*
X74312500Y-111829819D02*
X74455357Y-111877438D01*
X74455357Y-111877438D02*
X74550595Y-111972676D01*
X74550595Y-111972676D02*
X74598214Y-112067914D01*
X74598214Y-112067914D02*
X74645833Y-112258390D01*
X74645833Y-112258390D02*
X74645833Y-112401247D01*
X74645833Y-112401247D02*
X74598214Y-112591723D01*
X74598214Y-112591723D02*
X74550595Y-112686961D01*
X74550595Y-112686961D02*
X74455357Y-112782200D01*
X74455357Y-112782200D02*
X74312500Y-112829819D01*
X74312500Y-112829819D02*
X74074405Y-112829819D01*
X75026786Y-111925057D02*
X75074405Y-111877438D01*
X75074405Y-111877438D02*
X75169643Y-111829819D01*
X75169643Y-111829819D02*
X75407738Y-111829819D01*
X75407738Y-111829819D02*
X75502976Y-111877438D01*
X75502976Y-111877438D02*
X75550595Y-111925057D01*
X75550595Y-111925057D02*
X75598214Y-112020295D01*
X75598214Y-112020295D02*
X75598214Y-112115533D01*
X75598214Y-112115533D02*
X75550595Y-112258390D01*
X75550595Y-112258390D02*
X74979167Y-112829819D01*
X74979167Y-112829819D02*
X75598214Y-112829819D01*
X74074405Y-109789819D02*
X74074405Y-108789819D01*
X74074405Y-108789819D02*
X74312500Y-108789819D01*
X74312500Y-108789819D02*
X74455357Y-108837438D01*
X74455357Y-108837438D02*
X74550595Y-108932676D01*
X74550595Y-108932676D02*
X74598214Y-109027914D01*
X74598214Y-109027914D02*
X74645833Y-109218390D01*
X74645833Y-109218390D02*
X74645833Y-109361247D01*
X74645833Y-109361247D02*
X74598214Y-109551723D01*
X74598214Y-109551723D02*
X74550595Y-109646961D01*
X74550595Y-109646961D02*
X74455357Y-109742200D01*
X74455357Y-109742200D02*
X74312500Y-109789819D01*
X74312500Y-109789819D02*
X74074405Y-109789819D01*
X75598214Y-109789819D02*
X75026786Y-109789819D01*
X75312500Y-109789819D02*
X75312500Y-108789819D01*
X75312500Y-108789819D02*
X75217262Y-108932676D01*
X75217262Y-108932676D02*
X75122024Y-109027914D01*
X75122024Y-109027914D02*
X75026786Y-109075533D01*
X19159580Y-140710357D02*
X19207200Y-140757976D01*
X19207200Y-140757976D02*
X19254819Y-140900833D01*
X19254819Y-140900833D02*
X19254819Y-140996071D01*
X19254819Y-140996071D02*
X19207200Y-141138928D01*
X19207200Y-141138928D02*
X19111961Y-141234166D01*
X19111961Y-141234166D02*
X19016723Y-141281785D01*
X19016723Y-141281785D02*
X18826247Y-141329404D01*
X18826247Y-141329404D02*
X18683390Y-141329404D01*
X18683390Y-141329404D02*
X18492914Y-141281785D01*
X18492914Y-141281785D02*
X18397676Y-141234166D01*
X18397676Y-141234166D02*
X18302438Y-141138928D01*
X18302438Y-141138928D02*
X18254819Y-140996071D01*
X18254819Y-140996071D02*
X18254819Y-140900833D01*
X18254819Y-140900833D02*
X18302438Y-140757976D01*
X18302438Y-140757976D02*
X18350057Y-140710357D01*
X18350057Y-140329404D02*
X18302438Y-140281785D01*
X18302438Y-140281785D02*
X18254819Y-140186547D01*
X18254819Y-140186547D02*
X18254819Y-139948452D01*
X18254819Y-139948452D02*
X18302438Y-139853214D01*
X18302438Y-139853214D02*
X18350057Y-139805595D01*
X18350057Y-139805595D02*
X18445295Y-139757976D01*
X18445295Y-139757976D02*
X18540533Y-139757976D01*
X18540533Y-139757976D02*
X18683390Y-139805595D01*
X18683390Y-139805595D02*
X19254819Y-140377023D01*
X19254819Y-140377023D02*
X19254819Y-139757976D01*
X19254819Y-139281785D02*
X19254819Y-139091309D01*
X19254819Y-139091309D02*
X19207200Y-138996071D01*
X19207200Y-138996071D02*
X19159580Y-138948452D01*
X19159580Y-138948452D02*
X19016723Y-138853214D01*
X19016723Y-138853214D02*
X18826247Y-138805595D01*
X18826247Y-138805595D02*
X18445295Y-138805595D01*
X18445295Y-138805595D02*
X18350057Y-138853214D01*
X18350057Y-138853214D02*
X18302438Y-138900833D01*
X18302438Y-138900833D02*
X18254819Y-138996071D01*
X18254819Y-138996071D02*
X18254819Y-139186547D01*
X18254819Y-139186547D02*
X18302438Y-139281785D01*
X18302438Y-139281785D02*
X18350057Y-139329404D01*
X18350057Y-139329404D02*
X18445295Y-139377023D01*
X18445295Y-139377023D02*
X18683390Y-139377023D01*
X18683390Y-139377023D02*
X18778628Y-139329404D01*
X18778628Y-139329404D02*
X18826247Y-139281785D01*
X18826247Y-139281785D02*
X18873866Y-139186547D01*
X18873866Y-139186547D02*
X18873866Y-138996071D01*
X18873866Y-138996071D02*
X18826247Y-138900833D01*
X18826247Y-138900833D02*
X18778628Y-138853214D01*
X18778628Y-138853214D02*
X18683390Y-138805595D01*
X17059580Y-142642857D02*
X17107200Y-142690476D01*
X17107200Y-142690476D02*
X17154819Y-142833333D01*
X17154819Y-142833333D02*
X17154819Y-142928571D01*
X17154819Y-142928571D02*
X17107200Y-143071428D01*
X17107200Y-143071428D02*
X17011961Y-143166666D01*
X17011961Y-143166666D02*
X16916723Y-143214285D01*
X16916723Y-143214285D02*
X16726247Y-143261904D01*
X16726247Y-143261904D02*
X16583390Y-143261904D01*
X16583390Y-143261904D02*
X16392914Y-143214285D01*
X16392914Y-143214285D02*
X16297676Y-143166666D01*
X16297676Y-143166666D02*
X16202438Y-143071428D01*
X16202438Y-143071428D02*
X16154819Y-142928571D01*
X16154819Y-142928571D02*
X16154819Y-142833333D01*
X16154819Y-142833333D02*
X16202438Y-142690476D01*
X16202438Y-142690476D02*
X16250057Y-142642857D01*
X16250057Y-142261904D02*
X16202438Y-142214285D01*
X16202438Y-142214285D02*
X16154819Y-142119047D01*
X16154819Y-142119047D02*
X16154819Y-141880952D01*
X16154819Y-141880952D02*
X16202438Y-141785714D01*
X16202438Y-141785714D02*
X16250057Y-141738095D01*
X16250057Y-141738095D02*
X16345295Y-141690476D01*
X16345295Y-141690476D02*
X16440533Y-141690476D01*
X16440533Y-141690476D02*
X16583390Y-141738095D01*
X16583390Y-141738095D02*
X17154819Y-142309523D01*
X17154819Y-142309523D02*
X17154819Y-141690476D01*
X16583390Y-141119047D02*
X16535771Y-141214285D01*
X16535771Y-141214285D02*
X16488152Y-141261904D01*
X16488152Y-141261904D02*
X16392914Y-141309523D01*
X16392914Y-141309523D02*
X16345295Y-141309523D01*
X16345295Y-141309523D02*
X16250057Y-141261904D01*
X16250057Y-141261904D02*
X16202438Y-141214285D01*
X16202438Y-141214285D02*
X16154819Y-141119047D01*
X16154819Y-141119047D02*
X16154819Y-140928571D01*
X16154819Y-140928571D02*
X16202438Y-140833333D01*
X16202438Y-140833333D02*
X16250057Y-140785714D01*
X16250057Y-140785714D02*
X16345295Y-140738095D01*
X16345295Y-140738095D02*
X16392914Y-140738095D01*
X16392914Y-140738095D02*
X16488152Y-140785714D01*
X16488152Y-140785714D02*
X16535771Y-140833333D01*
X16535771Y-140833333D02*
X16583390Y-140928571D01*
X16583390Y-140928571D02*
X16583390Y-141119047D01*
X16583390Y-141119047D02*
X16631009Y-141214285D01*
X16631009Y-141214285D02*
X16678628Y-141261904D01*
X16678628Y-141261904D02*
X16773866Y-141309523D01*
X16773866Y-141309523D02*
X16964342Y-141309523D01*
X16964342Y-141309523D02*
X17059580Y-141261904D01*
X17059580Y-141261904D02*
X17107200Y-141214285D01*
X17107200Y-141214285D02*
X17154819Y-141119047D01*
X17154819Y-141119047D02*
X17154819Y-140928571D01*
X17154819Y-140928571D02*
X17107200Y-140833333D01*
X17107200Y-140833333D02*
X17059580Y-140785714D01*
X17059580Y-140785714D02*
X16964342Y-140738095D01*
X16964342Y-140738095D02*
X16773866Y-140738095D01*
X16773866Y-140738095D02*
X16678628Y-140785714D01*
X16678628Y-140785714D02*
X16631009Y-140833333D01*
X16631009Y-140833333D02*
X16583390Y-140928571D01*
X64274642Y-124979580D02*
X64227023Y-125027200D01*
X64227023Y-125027200D02*
X64084166Y-125074819D01*
X64084166Y-125074819D02*
X63988928Y-125074819D01*
X63988928Y-125074819D02*
X63846071Y-125027200D01*
X63846071Y-125027200D02*
X63750833Y-124931961D01*
X63750833Y-124931961D02*
X63703214Y-124836723D01*
X63703214Y-124836723D02*
X63655595Y-124646247D01*
X63655595Y-124646247D02*
X63655595Y-124503390D01*
X63655595Y-124503390D02*
X63703214Y-124312914D01*
X63703214Y-124312914D02*
X63750833Y-124217676D01*
X63750833Y-124217676D02*
X63846071Y-124122438D01*
X63846071Y-124122438D02*
X63988928Y-124074819D01*
X63988928Y-124074819D02*
X64084166Y-124074819D01*
X64084166Y-124074819D02*
X64227023Y-124122438D01*
X64227023Y-124122438D02*
X64274642Y-124170057D01*
X64655595Y-124170057D02*
X64703214Y-124122438D01*
X64703214Y-124122438D02*
X64798452Y-124074819D01*
X64798452Y-124074819D02*
X65036547Y-124074819D01*
X65036547Y-124074819D02*
X65131785Y-124122438D01*
X65131785Y-124122438D02*
X65179404Y-124170057D01*
X65179404Y-124170057D02*
X65227023Y-124265295D01*
X65227023Y-124265295D02*
X65227023Y-124360533D01*
X65227023Y-124360533D02*
X65179404Y-124503390D01*
X65179404Y-124503390D02*
X64607976Y-125074819D01*
X64607976Y-125074819D02*
X65227023Y-125074819D01*
X65560357Y-124074819D02*
X66227023Y-124074819D01*
X66227023Y-124074819D02*
X65798452Y-125074819D01*
X64274642Y-123229580D02*
X64227023Y-123277200D01*
X64227023Y-123277200D02*
X64084166Y-123324819D01*
X64084166Y-123324819D02*
X63988928Y-123324819D01*
X63988928Y-123324819D02*
X63846071Y-123277200D01*
X63846071Y-123277200D02*
X63750833Y-123181961D01*
X63750833Y-123181961D02*
X63703214Y-123086723D01*
X63703214Y-123086723D02*
X63655595Y-122896247D01*
X63655595Y-122896247D02*
X63655595Y-122753390D01*
X63655595Y-122753390D02*
X63703214Y-122562914D01*
X63703214Y-122562914D02*
X63750833Y-122467676D01*
X63750833Y-122467676D02*
X63846071Y-122372438D01*
X63846071Y-122372438D02*
X63988928Y-122324819D01*
X63988928Y-122324819D02*
X64084166Y-122324819D01*
X64084166Y-122324819D02*
X64227023Y-122372438D01*
X64227023Y-122372438D02*
X64274642Y-122420057D01*
X64655595Y-122420057D02*
X64703214Y-122372438D01*
X64703214Y-122372438D02*
X64798452Y-122324819D01*
X64798452Y-122324819D02*
X65036547Y-122324819D01*
X65036547Y-122324819D02*
X65131785Y-122372438D01*
X65131785Y-122372438D02*
X65179404Y-122420057D01*
X65179404Y-122420057D02*
X65227023Y-122515295D01*
X65227023Y-122515295D02*
X65227023Y-122610533D01*
X65227023Y-122610533D02*
X65179404Y-122753390D01*
X65179404Y-122753390D02*
X64607976Y-123324819D01*
X64607976Y-123324819D02*
X65227023Y-123324819D01*
X66084166Y-122324819D02*
X65893690Y-122324819D01*
X65893690Y-122324819D02*
X65798452Y-122372438D01*
X65798452Y-122372438D02*
X65750833Y-122420057D01*
X65750833Y-122420057D02*
X65655595Y-122562914D01*
X65655595Y-122562914D02*
X65607976Y-122753390D01*
X65607976Y-122753390D02*
X65607976Y-123134342D01*
X65607976Y-123134342D02*
X65655595Y-123229580D01*
X65655595Y-123229580D02*
X65703214Y-123277200D01*
X65703214Y-123277200D02*
X65798452Y-123324819D01*
X65798452Y-123324819D02*
X65988928Y-123324819D01*
X65988928Y-123324819D02*
X66084166Y-123277200D01*
X66084166Y-123277200D02*
X66131785Y-123229580D01*
X66131785Y-123229580D02*
X66179404Y-123134342D01*
X66179404Y-123134342D02*
X66179404Y-122896247D01*
X66179404Y-122896247D02*
X66131785Y-122801009D01*
X66131785Y-122801009D02*
X66084166Y-122753390D01*
X66084166Y-122753390D02*
X65988928Y-122705771D01*
X65988928Y-122705771D02*
X65798452Y-122705771D01*
X65798452Y-122705771D02*
X65703214Y-122753390D01*
X65703214Y-122753390D02*
X65655595Y-122801009D01*
X65655595Y-122801009D02*
X65607976Y-122896247D01*
X64274642Y-121479580D02*
X64227023Y-121527200D01*
X64227023Y-121527200D02*
X64084166Y-121574819D01*
X64084166Y-121574819D02*
X63988928Y-121574819D01*
X63988928Y-121574819D02*
X63846071Y-121527200D01*
X63846071Y-121527200D02*
X63750833Y-121431961D01*
X63750833Y-121431961D02*
X63703214Y-121336723D01*
X63703214Y-121336723D02*
X63655595Y-121146247D01*
X63655595Y-121146247D02*
X63655595Y-121003390D01*
X63655595Y-121003390D02*
X63703214Y-120812914D01*
X63703214Y-120812914D02*
X63750833Y-120717676D01*
X63750833Y-120717676D02*
X63846071Y-120622438D01*
X63846071Y-120622438D02*
X63988928Y-120574819D01*
X63988928Y-120574819D02*
X64084166Y-120574819D01*
X64084166Y-120574819D02*
X64227023Y-120622438D01*
X64227023Y-120622438D02*
X64274642Y-120670057D01*
X64655595Y-120670057D02*
X64703214Y-120622438D01*
X64703214Y-120622438D02*
X64798452Y-120574819D01*
X64798452Y-120574819D02*
X65036547Y-120574819D01*
X65036547Y-120574819D02*
X65131785Y-120622438D01*
X65131785Y-120622438D02*
X65179404Y-120670057D01*
X65179404Y-120670057D02*
X65227023Y-120765295D01*
X65227023Y-120765295D02*
X65227023Y-120860533D01*
X65227023Y-120860533D02*
X65179404Y-121003390D01*
X65179404Y-121003390D02*
X64607976Y-121574819D01*
X64607976Y-121574819D02*
X65227023Y-121574819D01*
X66131785Y-120574819D02*
X65655595Y-120574819D01*
X65655595Y-120574819D02*
X65607976Y-121051009D01*
X65607976Y-121051009D02*
X65655595Y-121003390D01*
X65655595Y-121003390D02*
X65750833Y-120955771D01*
X65750833Y-120955771D02*
X65988928Y-120955771D01*
X65988928Y-120955771D02*
X66084166Y-121003390D01*
X66084166Y-121003390D02*
X66131785Y-121051009D01*
X66131785Y-121051009D02*
X66179404Y-121146247D01*
X66179404Y-121146247D02*
X66179404Y-121384342D01*
X66179404Y-121384342D02*
X66131785Y-121479580D01*
X66131785Y-121479580D02*
X66084166Y-121527200D01*
X66084166Y-121527200D02*
X65988928Y-121574819D01*
X65988928Y-121574819D02*
X65750833Y-121574819D01*
X65750833Y-121574819D02*
X65655595Y-121527200D01*
X65655595Y-121527200D02*
X65607976Y-121479580D01*
X64274642Y-119729580D02*
X64227023Y-119777200D01*
X64227023Y-119777200D02*
X64084166Y-119824819D01*
X64084166Y-119824819D02*
X63988928Y-119824819D01*
X63988928Y-119824819D02*
X63846071Y-119777200D01*
X63846071Y-119777200D02*
X63750833Y-119681961D01*
X63750833Y-119681961D02*
X63703214Y-119586723D01*
X63703214Y-119586723D02*
X63655595Y-119396247D01*
X63655595Y-119396247D02*
X63655595Y-119253390D01*
X63655595Y-119253390D02*
X63703214Y-119062914D01*
X63703214Y-119062914D02*
X63750833Y-118967676D01*
X63750833Y-118967676D02*
X63846071Y-118872438D01*
X63846071Y-118872438D02*
X63988928Y-118824819D01*
X63988928Y-118824819D02*
X64084166Y-118824819D01*
X64084166Y-118824819D02*
X64227023Y-118872438D01*
X64227023Y-118872438D02*
X64274642Y-118920057D01*
X64655595Y-118920057D02*
X64703214Y-118872438D01*
X64703214Y-118872438D02*
X64798452Y-118824819D01*
X64798452Y-118824819D02*
X65036547Y-118824819D01*
X65036547Y-118824819D02*
X65131785Y-118872438D01*
X65131785Y-118872438D02*
X65179404Y-118920057D01*
X65179404Y-118920057D02*
X65227023Y-119015295D01*
X65227023Y-119015295D02*
X65227023Y-119110533D01*
X65227023Y-119110533D02*
X65179404Y-119253390D01*
X65179404Y-119253390D02*
X64607976Y-119824819D01*
X64607976Y-119824819D02*
X65227023Y-119824819D01*
X66084166Y-119158152D02*
X66084166Y-119824819D01*
X65846071Y-118777200D02*
X65607976Y-119491485D01*
X65607976Y-119491485D02*
X66227023Y-119491485D01*
X61464642Y-130229580D02*
X61417023Y-130277200D01*
X61417023Y-130277200D02*
X61274166Y-130324819D01*
X61274166Y-130324819D02*
X61178928Y-130324819D01*
X61178928Y-130324819D02*
X61036071Y-130277200D01*
X61036071Y-130277200D02*
X60940833Y-130181961D01*
X60940833Y-130181961D02*
X60893214Y-130086723D01*
X60893214Y-130086723D02*
X60845595Y-129896247D01*
X60845595Y-129896247D02*
X60845595Y-129753390D01*
X60845595Y-129753390D02*
X60893214Y-129562914D01*
X60893214Y-129562914D02*
X60940833Y-129467676D01*
X60940833Y-129467676D02*
X61036071Y-129372438D01*
X61036071Y-129372438D02*
X61178928Y-129324819D01*
X61178928Y-129324819D02*
X61274166Y-129324819D01*
X61274166Y-129324819D02*
X61417023Y-129372438D01*
X61417023Y-129372438D02*
X61464642Y-129420057D01*
X61845595Y-129420057D02*
X61893214Y-129372438D01*
X61893214Y-129372438D02*
X61988452Y-129324819D01*
X61988452Y-129324819D02*
X62226547Y-129324819D01*
X62226547Y-129324819D02*
X62321785Y-129372438D01*
X62321785Y-129372438D02*
X62369404Y-129420057D01*
X62369404Y-129420057D02*
X62417023Y-129515295D01*
X62417023Y-129515295D02*
X62417023Y-129610533D01*
X62417023Y-129610533D02*
X62369404Y-129753390D01*
X62369404Y-129753390D02*
X61797976Y-130324819D01*
X61797976Y-130324819D02*
X62417023Y-130324819D01*
X62750357Y-129324819D02*
X63369404Y-129324819D01*
X63369404Y-129324819D02*
X63036071Y-129705771D01*
X63036071Y-129705771D02*
X63178928Y-129705771D01*
X63178928Y-129705771D02*
X63274166Y-129753390D01*
X63274166Y-129753390D02*
X63321785Y-129801009D01*
X63321785Y-129801009D02*
X63369404Y-129896247D01*
X63369404Y-129896247D02*
X63369404Y-130134342D01*
X63369404Y-130134342D02*
X63321785Y-130229580D01*
X63321785Y-130229580D02*
X63274166Y-130277200D01*
X63274166Y-130277200D02*
X63178928Y-130324819D01*
X63178928Y-130324819D02*
X62893214Y-130324819D01*
X62893214Y-130324819D02*
X62797976Y-130277200D01*
X62797976Y-130277200D02*
X62750357Y-130229580D01*
X61464642Y-128479580D02*
X61417023Y-128527200D01*
X61417023Y-128527200D02*
X61274166Y-128574819D01*
X61274166Y-128574819D02*
X61178928Y-128574819D01*
X61178928Y-128574819D02*
X61036071Y-128527200D01*
X61036071Y-128527200D02*
X60940833Y-128431961D01*
X60940833Y-128431961D02*
X60893214Y-128336723D01*
X60893214Y-128336723D02*
X60845595Y-128146247D01*
X60845595Y-128146247D02*
X60845595Y-128003390D01*
X60845595Y-128003390D02*
X60893214Y-127812914D01*
X60893214Y-127812914D02*
X60940833Y-127717676D01*
X60940833Y-127717676D02*
X61036071Y-127622438D01*
X61036071Y-127622438D02*
X61178928Y-127574819D01*
X61178928Y-127574819D02*
X61274166Y-127574819D01*
X61274166Y-127574819D02*
X61417023Y-127622438D01*
X61417023Y-127622438D02*
X61464642Y-127670057D01*
X61845595Y-127670057D02*
X61893214Y-127622438D01*
X61893214Y-127622438D02*
X61988452Y-127574819D01*
X61988452Y-127574819D02*
X62226547Y-127574819D01*
X62226547Y-127574819D02*
X62321785Y-127622438D01*
X62321785Y-127622438D02*
X62369404Y-127670057D01*
X62369404Y-127670057D02*
X62417023Y-127765295D01*
X62417023Y-127765295D02*
X62417023Y-127860533D01*
X62417023Y-127860533D02*
X62369404Y-128003390D01*
X62369404Y-128003390D02*
X61797976Y-128574819D01*
X61797976Y-128574819D02*
X62417023Y-128574819D01*
X62797976Y-127670057D02*
X62845595Y-127622438D01*
X62845595Y-127622438D02*
X62940833Y-127574819D01*
X62940833Y-127574819D02*
X63178928Y-127574819D01*
X63178928Y-127574819D02*
X63274166Y-127622438D01*
X63274166Y-127622438D02*
X63321785Y-127670057D01*
X63321785Y-127670057D02*
X63369404Y-127765295D01*
X63369404Y-127765295D02*
X63369404Y-127860533D01*
X63369404Y-127860533D02*
X63321785Y-128003390D01*
X63321785Y-128003390D02*
X62750357Y-128574819D01*
X62750357Y-128574819D02*
X63369404Y-128574819D01*
X61464642Y-126729580D02*
X61417023Y-126777200D01*
X61417023Y-126777200D02*
X61274166Y-126824819D01*
X61274166Y-126824819D02*
X61178928Y-126824819D01*
X61178928Y-126824819D02*
X61036071Y-126777200D01*
X61036071Y-126777200D02*
X60940833Y-126681961D01*
X60940833Y-126681961D02*
X60893214Y-126586723D01*
X60893214Y-126586723D02*
X60845595Y-126396247D01*
X60845595Y-126396247D02*
X60845595Y-126253390D01*
X60845595Y-126253390D02*
X60893214Y-126062914D01*
X60893214Y-126062914D02*
X60940833Y-125967676D01*
X60940833Y-125967676D02*
X61036071Y-125872438D01*
X61036071Y-125872438D02*
X61178928Y-125824819D01*
X61178928Y-125824819D02*
X61274166Y-125824819D01*
X61274166Y-125824819D02*
X61417023Y-125872438D01*
X61417023Y-125872438D02*
X61464642Y-125920057D01*
X61845595Y-125920057D02*
X61893214Y-125872438D01*
X61893214Y-125872438D02*
X61988452Y-125824819D01*
X61988452Y-125824819D02*
X62226547Y-125824819D01*
X62226547Y-125824819D02*
X62321785Y-125872438D01*
X62321785Y-125872438D02*
X62369404Y-125920057D01*
X62369404Y-125920057D02*
X62417023Y-126015295D01*
X62417023Y-126015295D02*
X62417023Y-126110533D01*
X62417023Y-126110533D02*
X62369404Y-126253390D01*
X62369404Y-126253390D02*
X61797976Y-126824819D01*
X61797976Y-126824819D02*
X62417023Y-126824819D01*
X63369404Y-126824819D02*
X62797976Y-126824819D01*
X63083690Y-126824819D02*
X63083690Y-125824819D01*
X63083690Y-125824819D02*
X62988452Y-125967676D01*
X62988452Y-125967676D02*
X62893214Y-126062914D01*
X62893214Y-126062914D02*
X62797976Y-126110533D01*
X61464642Y-124979580D02*
X61417023Y-125027200D01*
X61417023Y-125027200D02*
X61274166Y-125074819D01*
X61274166Y-125074819D02*
X61178928Y-125074819D01*
X61178928Y-125074819D02*
X61036071Y-125027200D01*
X61036071Y-125027200D02*
X60940833Y-124931961D01*
X60940833Y-124931961D02*
X60893214Y-124836723D01*
X60893214Y-124836723D02*
X60845595Y-124646247D01*
X60845595Y-124646247D02*
X60845595Y-124503390D01*
X60845595Y-124503390D02*
X60893214Y-124312914D01*
X60893214Y-124312914D02*
X60940833Y-124217676D01*
X60940833Y-124217676D02*
X61036071Y-124122438D01*
X61036071Y-124122438D02*
X61178928Y-124074819D01*
X61178928Y-124074819D02*
X61274166Y-124074819D01*
X61274166Y-124074819D02*
X61417023Y-124122438D01*
X61417023Y-124122438D02*
X61464642Y-124170057D01*
X61845595Y-124170057D02*
X61893214Y-124122438D01*
X61893214Y-124122438D02*
X61988452Y-124074819D01*
X61988452Y-124074819D02*
X62226547Y-124074819D01*
X62226547Y-124074819D02*
X62321785Y-124122438D01*
X62321785Y-124122438D02*
X62369404Y-124170057D01*
X62369404Y-124170057D02*
X62417023Y-124265295D01*
X62417023Y-124265295D02*
X62417023Y-124360533D01*
X62417023Y-124360533D02*
X62369404Y-124503390D01*
X62369404Y-124503390D02*
X61797976Y-125074819D01*
X61797976Y-125074819D02*
X62417023Y-125074819D01*
X63036071Y-124074819D02*
X63131309Y-124074819D01*
X63131309Y-124074819D02*
X63226547Y-124122438D01*
X63226547Y-124122438D02*
X63274166Y-124170057D01*
X63274166Y-124170057D02*
X63321785Y-124265295D01*
X63321785Y-124265295D02*
X63369404Y-124455771D01*
X63369404Y-124455771D02*
X63369404Y-124693866D01*
X63369404Y-124693866D02*
X63321785Y-124884342D01*
X63321785Y-124884342D02*
X63274166Y-124979580D01*
X63274166Y-124979580D02*
X63226547Y-125027200D01*
X63226547Y-125027200D02*
X63131309Y-125074819D01*
X63131309Y-125074819D02*
X63036071Y-125074819D01*
X63036071Y-125074819D02*
X62940833Y-125027200D01*
X62940833Y-125027200D02*
X62893214Y-124979580D01*
X62893214Y-124979580D02*
X62845595Y-124884342D01*
X62845595Y-124884342D02*
X62797976Y-124693866D01*
X62797976Y-124693866D02*
X62797976Y-124455771D01*
X62797976Y-124455771D02*
X62845595Y-124265295D01*
X62845595Y-124265295D02*
X62893214Y-124170057D01*
X62893214Y-124170057D02*
X62940833Y-124122438D01*
X62940833Y-124122438D02*
X63036071Y-124074819D01*
X61464642Y-123229580D02*
X61417023Y-123277200D01*
X61417023Y-123277200D02*
X61274166Y-123324819D01*
X61274166Y-123324819D02*
X61178928Y-123324819D01*
X61178928Y-123324819D02*
X61036071Y-123277200D01*
X61036071Y-123277200D02*
X60940833Y-123181961D01*
X60940833Y-123181961D02*
X60893214Y-123086723D01*
X60893214Y-123086723D02*
X60845595Y-122896247D01*
X60845595Y-122896247D02*
X60845595Y-122753390D01*
X60845595Y-122753390D02*
X60893214Y-122562914D01*
X60893214Y-122562914D02*
X60940833Y-122467676D01*
X60940833Y-122467676D02*
X61036071Y-122372438D01*
X61036071Y-122372438D02*
X61178928Y-122324819D01*
X61178928Y-122324819D02*
X61274166Y-122324819D01*
X61274166Y-122324819D02*
X61417023Y-122372438D01*
X61417023Y-122372438D02*
X61464642Y-122420057D01*
X62417023Y-123324819D02*
X61845595Y-123324819D01*
X62131309Y-123324819D02*
X62131309Y-122324819D01*
X62131309Y-122324819D02*
X62036071Y-122467676D01*
X62036071Y-122467676D02*
X61940833Y-122562914D01*
X61940833Y-122562914D02*
X61845595Y-122610533D01*
X62893214Y-123324819D02*
X63083690Y-123324819D01*
X63083690Y-123324819D02*
X63178928Y-123277200D01*
X63178928Y-123277200D02*
X63226547Y-123229580D01*
X63226547Y-123229580D02*
X63321785Y-123086723D01*
X63321785Y-123086723D02*
X63369404Y-122896247D01*
X63369404Y-122896247D02*
X63369404Y-122515295D01*
X63369404Y-122515295D02*
X63321785Y-122420057D01*
X63321785Y-122420057D02*
X63274166Y-122372438D01*
X63274166Y-122372438D02*
X63178928Y-122324819D01*
X63178928Y-122324819D02*
X62988452Y-122324819D01*
X62988452Y-122324819D02*
X62893214Y-122372438D01*
X62893214Y-122372438D02*
X62845595Y-122420057D01*
X62845595Y-122420057D02*
X62797976Y-122515295D01*
X62797976Y-122515295D02*
X62797976Y-122753390D01*
X62797976Y-122753390D02*
X62845595Y-122848628D01*
X62845595Y-122848628D02*
X62893214Y-122896247D01*
X62893214Y-122896247D02*
X62988452Y-122943866D01*
X62988452Y-122943866D02*
X63178928Y-122943866D01*
X63178928Y-122943866D02*
X63274166Y-122896247D01*
X63274166Y-122896247D02*
X63321785Y-122848628D01*
X63321785Y-122848628D02*
X63369404Y-122753390D01*
X61464642Y-121479580D02*
X61417023Y-121527200D01*
X61417023Y-121527200D02*
X61274166Y-121574819D01*
X61274166Y-121574819D02*
X61178928Y-121574819D01*
X61178928Y-121574819D02*
X61036071Y-121527200D01*
X61036071Y-121527200D02*
X60940833Y-121431961D01*
X60940833Y-121431961D02*
X60893214Y-121336723D01*
X60893214Y-121336723D02*
X60845595Y-121146247D01*
X60845595Y-121146247D02*
X60845595Y-121003390D01*
X60845595Y-121003390D02*
X60893214Y-120812914D01*
X60893214Y-120812914D02*
X60940833Y-120717676D01*
X60940833Y-120717676D02*
X61036071Y-120622438D01*
X61036071Y-120622438D02*
X61178928Y-120574819D01*
X61178928Y-120574819D02*
X61274166Y-120574819D01*
X61274166Y-120574819D02*
X61417023Y-120622438D01*
X61417023Y-120622438D02*
X61464642Y-120670057D01*
X62417023Y-121574819D02*
X61845595Y-121574819D01*
X62131309Y-121574819D02*
X62131309Y-120574819D01*
X62131309Y-120574819D02*
X62036071Y-120717676D01*
X62036071Y-120717676D02*
X61940833Y-120812914D01*
X61940833Y-120812914D02*
X61845595Y-120860533D01*
X62988452Y-121003390D02*
X62893214Y-120955771D01*
X62893214Y-120955771D02*
X62845595Y-120908152D01*
X62845595Y-120908152D02*
X62797976Y-120812914D01*
X62797976Y-120812914D02*
X62797976Y-120765295D01*
X62797976Y-120765295D02*
X62845595Y-120670057D01*
X62845595Y-120670057D02*
X62893214Y-120622438D01*
X62893214Y-120622438D02*
X62988452Y-120574819D01*
X62988452Y-120574819D02*
X63178928Y-120574819D01*
X63178928Y-120574819D02*
X63274166Y-120622438D01*
X63274166Y-120622438D02*
X63321785Y-120670057D01*
X63321785Y-120670057D02*
X63369404Y-120765295D01*
X63369404Y-120765295D02*
X63369404Y-120812914D01*
X63369404Y-120812914D02*
X63321785Y-120908152D01*
X63321785Y-120908152D02*
X63274166Y-120955771D01*
X63274166Y-120955771D02*
X63178928Y-121003390D01*
X63178928Y-121003390D02*
X62988452Y-121003390D01*
X62988452Y-121003390D02*
X62893214Y-121051009D01*
X62893214Y-121051009D02*
X62845595Y-121098628D01*
X62845595Y-121098628D02*
X62797976Y-121193866D01*
X62797976Y-121193866D02*
X62797976Y-121384342D01*
X62797976Y-121384342D02*
X62845595Y-121479580D01*
X62845595Y-121479580D02*
X62893214Y-121527200D01*
X62893214Y-121527200D02*
X62988452Y-121574819D01*
X62988452Y-121574819D02*
X63178928Y-121574819D01*
X63178928Y-121574819D02*
X63274166Y-121527200D01*
X63274166Y-121527200D02*
X63321785Y-121479580D01*
X63321785Y-121479580D02*
X63369404Y-121384342D01*
X63369404Y-121384342D02*
X63369404Y-121193866D01*
X63369404Y-121193866D02*
X63321785Y-121098628D01*
X63321785Y-121098628D02*
X63274166Y-121051009D01*
X63274166Y-121051009D02*
X63178928Y-121003390D01*
X61464642Y-119729580D02*
X61417023Y-119777200D01*
X61417023Y-119777200D02*
X61274166Y-119824819D01*
X61274166Y-119824819D02*
X61178928Y-119824819D01*
X61178928Y-119824819D02*
X61036071Y-119777200D01*
X61036071Y-119777200D02*
X60940833Y-119681961D01*
X60940833Y-119681961D02*
X60893214Y-119586723D01*
X60893214Y-119586723D02*
X60845595Y-119396247D01*
X60845595Y-119396247D02*
X60845595Y-119253390D01*
X60845595Y-119253390D02*
X60893214Y-119062914D01*
X60893214Y-119062914D02*
X60940833Y-118967676D01*
X60940833Y-118967676D02*
X61036071Y-118872438D01*
X61036071Y-118872438D02*
X61178928Y-118824819D01*
X61178928Y-118824819D02*
X61274166Y-118824819D01*
X61274166Y-118824819D02*
X61417023Y-118872438D01*
X61417023Y-118872438D02*
X61464642Y-118920057D01*
X62417023Y-119824819D02*
X61845595Y-119824819D01*
X62131309Y-119824819D02*
X62131309Y-118824819D01*
X62131309Y-118824819D02*
X62036071Y-118967676D01*
X62036071Y-118967676D02*
X61940833Y-119062914D01*
X61940833Y-119062914D02*
X61845595Y-119110533D01*
X62750357Y-118824819D02*
X63417023Y-118824819D01*
X63417023Y-118824819D02*
X62988452Y-119824819D01*
X72424642Y-140559580D02*
X72377023Y-140607200D01*
X72377023Y-140607200D02*
X72234166Y-140654819D01*
X72234166Y-140654819D02*
X72138928Y-140654819D01*
X72138928Y-140654819D02*
X71996071Y-140607200D01*
X71996071Y-140607200D02*
X71900833Y-140511961D01*
X71900833Y-140511961D02*
X71853214Y-140416723D01*
X71853214Y-140416723D02*
X71805595Y-140226247D01*
X71805595Y-140226247D02*
X71805595Y-140083390D01*
X71805595Y-140083390D02*
X71853214Y-139892914D01*
X71853214Y-139892914D02*
X71900833Y-139797676D01*
X71900833Y-139797676D02*
X71996071Y-139702438D01*
X71996071Y-139702438D02*
X72138928Y-139654819D01*
X72138928Y-139654819D02*
X72234166Y-139654819D01*
X72234166Y-139654819D02*
X72377023Y-139702438D01*
X72377023Y-139702438D02*
X72424642Y-139750057D01*
X73377023Y-140654819D02*
X72805595Y-140654819D01*
X73091309Y-140654819D02*
X73091309Y-139654819D01*
X73091309Y-139654819D02*
X72996071Y-139797676D01*
X72996071Y-139797676D02*
X72900833Y-139892914D01*
X72900833Y-139892914D02*
X72805595Y-139940533D01*
X74281785Y-139654819D02*
X73805595Y-139654819D01*
X73805595Y-139654819D02*
X73757976Y-140131009D01*
X73757976Y-140131009D02*
X73805595Y-140083390D01*
X73805595Y-140083390D02*
X73900833Y-140035771D01*
X73900833Y-140035771D02*
X74138928Y-140035771D01*
X74138928Y-140035771D02*
X74234166Y-140083390D01*
X74234166Y-140083390D02*
X74281785Y-140131009D01*
X74281785Y-140131009D02*
X74329404Y-140226247D01*
X74329404Y-140226247D02*
X74329404Y-140464342D01*
X74329404Y-140464342D02*
X74281785Y-140559580D01*
X74281785Y-140559580D02*
X74234166Y-140607200D01*
X74234166Y-140607200D02*
X74138928Y-140654819D01*
X74138928Y-140654819D02*
X73900833Y-140654819D01*
X73900833Y-140654819D02*
X73805595Y-140607200D01*
X73805595Y-140607200D02*
X73757976Y-140559580D01*
X42710833Y-123404819D02*
X42377500Y-122928628D01*
X42139405Y-123404819D02*
X42139405Y-122404819D01*
X42139405Y-122404819D02*
X42520357Y-122404819D01*
X42520357Y-122404819D02*
X42615595Y-122452438D01*
X42615595Y-122452438D02*
X42663214Y-122500057D01*
X42663214Y-122500057D02*
X42710833Y-122595295D01*
X42710833Y-122595295D02*
X42710833Y-122738152D01*
X42710833Y-122738152D02*
X42663214Y-122833390D01*
X42663214Y-122833390D02*
X42615595Y-122881009D01*
X42615595Y-122881009D02*
X42520357Y-122928628D01*
X42520357Y-122928628D02*
X42139405Y-122928628D01*
X43282262Y-122833390D02*
X43187024Y-122785771D01*
X43187024Y-122785771D02*
X43139405Y-122738152D01*
X43139405Y-122738152D02*
X43091786Y-122642914D01*
X43091786Y-122642914D02*
X43091786Y-122595295D01*
X43091786Y-122595295D02*
X43139405Y-122500057D01*
X43139405Y-122500057D02*
X43187024Y-122452438D01*
X43187024Y-122452438D02*
X43282262Y-122404819D01*
X43282262Y-122404819D02*
X43472738Y-122404819D01*
X43472738Y-122404819D02*
X43567976Y-122452438D01*
X43567976Y-122452438D02*
X43615595Y-122500057D01*
X43615595Y-122500057D02*
X43663214Y-122595295D01*
X43663214Y-122595295D02*
X43663214Y-122642914D01*
X43663214Y-122642914D02*
X43615595Y-122738152D01*
X43615595Y-122738152D02*
X43567976Y-122785771D01*
X43567976Y-122785771D02*
X43472738Y-122833390D01*
X43472738Y-122833390D02*
X43282262Y-122833390D01*
X43282262Y-122833390D02*
X43187024Y-122881009D01*
X43187024Y-122881009D02*
X43139405Y-122928628D01*
X43139405Y-122928628D02*
X43091786Y-123023866D01*
X43091786Y-123023866D02*
X43091786Y-123214342D01*
X43091786Y-123214342D02*
X43139405Y-123309580D01*
X43139405Y-123309580D02*
X43187024Y-123357200D01*
X43187024Y-123357200D02*
X43282262Y-123404819D01*
X43282262Y-123404819D02*
X43472738Y-123404819D01*
X43472738Y-123404819D02*
X43567976Y-123357200D01*
X43567976Y-123357200D02*
X43615595Y-123309580D01*
X43615595Y-123309580D02*
X43663214Y-123214342D01*
X43663214Y-123214342D02*
X43663214Y-123023866D01*
X43663214Y-123023866D02*
X43615595Y-122928628D01*
X43615595Y-122928628D02*
X43567976Y-122881009D01*
X43567976Y-122881009D02*
X43472738Y-122833390D01*
X42710833Y-121654819D02*
X42377500Y-121178628D01*
X42139405Y-121654819D02*
X42139405Y-120654819D01*
X42139405Y-120654819D02*
X42520357Y-120654819D01*
X42520357Y-120654819D02*
X42615595Y-120702438D01*
X42615595Y-120702438D02*
X42663214Y-120750057D01*
X42663214Y-120750057D02*
X42710833Y-120845295D01*
X42710833Y-120845295D02*
X42710833Y-120988152D01*
X42710833Y-120988152D02*
X42663214Y-121083390D01*
X42663214Y-121083390D02*
X42615595Y-121131009D01*
X42615595Y-121131009D02*
X42520357Y-121178628D01*
X42520357Y-121178628D02*
X42139405Y-121178628D01*
X43044167Y-120654819D02*
X43710833Y-120654819D01*
X43710833Y-120654819D02*
X43282262Y-121654819D01*
X42710833Y-119904819D02*
X42377500Y-119428628D01*
X42139405Y-119904819D02*
X42139405Y-118904819D01*
X42139405Y-118904819D02*
X42520357Y-118904819D01*
X42520357Y-118904819D02*
X42615595Y-118952438D01*
X42615595Y-118952438D02*
X42663214Y-119000057D01*
X42663214Y-119000057D02*
X42710833Y-119095295D01*
X42710833Y-119095295D02*
X42710833Y-119238152D01*
X42710833Y-119238152D02*
X42663214Y-119333390D01*
X42663214Y-119333390D02*
X42615595Y-119381009D01*
X42615595Y-119381009D02*
X42520357Y-119428628D01*
X42520357Y-119428628D02*
X42139405Y-119428628D01*
X43567976Y-119238152D02*
X43567976Y-119904819D01*
X43329881Y-118857200D02*
X43091786Y-119571485D01*
X43091786Y-119571485D02*
X43710833Y-119571485D01*
X42710833Y-118154819D02*
X42377500Y-117678628D01*
X42139405Y-118154819D02*
X42139405Y-117154819D01*
X42139405Y-117154819D02*
X42520357Y-117154819D01*
X42520357Y-117154819D02*
X42615595Y-117202438D01*
X42615595Y-117202438D02*
X42663214Y-117250057D01*
X42663214Y-117250057D02*
X42710833Y-117345295D01*
X42710833Y-117345295D02*
X42710833Y-117488152D01*
X42710833Y-117488152D02*
X42663214Y-117583390D01*
X42663214Y-117583390D02*
X42615595Y-117631009D01*
X42615595Y-117631009D02*
X42520357Y-117678628D01*
X42520357Y-117678628D02*
X42139405Y-117678628D01*
X43044167Y-117154819D02*
X43663214Y-117154819D01*
X43663214Y-117154819D02*
X43329881Y-117535771D01*
X43329881Y-117535771D02*
X43472738Y-117535771D01*
X43472738Y-117535771D02*
X43567976Y-117583390D01*
X43567976Y-117583390D02*
X43615595Y-117631009D01*
X43615595Y-117631009D02*
X43663214Y-117726247D01*
X43663214Y-117726247D02*
X43663214Y-117964342D01*
X43663214Y-117964342D02*
X43615595Y-118059580D01*
X43615595Y-118059580D02*
X43567976Y-118107200D01*
X43567976Y-118107200D02*
X43472738Y-118154819D01*
X43472738Y-118154819D02*
X43187024Y-118154819D01*
X43187024Y-118154819D02*
X43091786Y-118107200D01*
X43091786Y-118107200D02*
X43044167Y-118059580D01*
X42710833Y-116404819D02*
X42377500Y-115928628D01*
X42139405Y-116404819D02*
X42139405Y-115404819D01*
X42139405Y-115404819D02*
X42520357Y-115404819D01*
X42520357Y-115404819D02*
X42615595Y-115452438D01*
X42615595Y-115452438D02*
X42663214Y-115500057D01*
X42663214Y-115500057D02*
X42710833Y-115595295D01*
X42710833Y-115595295D02*
X42710833Y-115738152D01*
X42710833Y-115738152D02*
X42663214Y-115833390D01*
X42663214Y-115833390D02*
X42615595Y-115881009D01*
X42615595Y-115881009D02*
X42520357Y-115928628D01*
X42520357Y-115928628D02*
X42139405Y-115928628D01*
X43091786Y-115500057D02*
X43139405Y-115452438D01*
X43139405Y-115452438D02*
X43234643Y-115404819D01*
X43234643Y-115404819D02*
X43472738Y-115404819D01*
X43472738Y-115404819D02*
X43567976Y-115452438D01*
X43567976Y-115452438D02*
X43615595Y-115500057D01*
X43615595Y-115500057D02*
X43663214Y-115595295D01*
X43663214Y-115595295D02*
X43663214Y-115690533D01*
X43663214Y-115690533D02*
X43615595Y-115833390D01*
X43615595Y-115833390D02*
X43044167Y-116404819D01*
X43044167Y-116404819D02*
X43663214Y-116404819D01*
X39900833Y-126904819D02*
X39567500Y-126428628D01*
X39329405Y-126904819D02*
X39329405Y-125904819D01*
X39329405Y-125904819D02*
X39710357Y-125904819D01*
X39710357Y-125904819D02*
X39805595Y-125952438D01*
X39805595Y-125952438D02*
X39853214Y-126000057D01*
X39853214Y-126000057D02*
X39900833Y-126095295D01*
X39900833Y-126095295D02*
X39900833Y-126238152D01*
X39900833Y-126238152D02*
X39853214Y-126333390D01*
X39853214Y-126333390D02*
X39805595Y-126381009D01*
X39805595Y-126381009D02*
X39710357Y-126428628D01*
X39710357Y-126428628D02*
X39329405Y-126428628D01*
X40853214Y-126904819D02*
X40281786Y-126904819D01*
X40567500Y-126904819D02*
X40567500Y-125904819D01*
X40567500Y-125904819D02*
X40472262Y-126047676D01*
X40472262Y-126047676D02*
X40377024Y-126142914D01*
X40377024Y-126142914D02*
X40281786Y-126190533D01*
X39900833Y-125154819D02*
X39424643Y-125154819D01*
X39424643Y-125154819D02*
X39424643Y-124154819D01*
X40757976Y-125154819D02*
X40186548Y-125154819D01*
X40472262Y-125154819D02*
X40472262Y-124154819D01*
X40472262Y-124154819D02*
X40377024Y-124297676D01*
X40377024Y-124297676D02*
X40281786Y-124392914D01*
X40281786Y-124392914D02*
X40186548Y-124440533D01*
X39424642Y-123309580D02*
X39377023Y-123357200D01*
X39377023Y-123357200D02*
X39234166Y-123404819D01*
X39234166Y-123404819D02*
X39138928Y-123404819D01*
X39138928Y-123404819D02*
X38996071Y-123357200D01*
X38996071Y-123357200D02*
X38900833Y-123261961D01*
X38900833Y-123261961D02*
X38853214Y-123166723D01*
X38853214Y-123166723D02*
X38805595Y-122976247D01*
X38805595Y-122976247D02*
X38805595Y-122833390D01*
X38805595Y-122833390D02*
X38853214Y-122642914D01*
X38853214Y-122642914D02*
X38900833Y-122547676D01*
X38900833Y-122547676D02*
X38996071Y-122452438D01*
X38996071Y-122452438D02*
X39138928Y-122404819D01*
X39138928Y-122404819D02*
X39234166Y-122404819D01*
X39234166Y-122404819D02*
X39377023Y-122452438D01*
X39377023Y-122452438D02*
X39424642Y-122500057D01*
X40377023Y-123404819D02*
X39805595Y-123404819D01*
X40091309Y-123404819D02*
X40091309Y-122404819D01*
X40091309Y-122404819D02*
X39996071Y-122547676D01*
X39996071Y-122547676D02*
X39900833Y-122642914D01*
X39900833Y-122642914D02*
X39805595Y-122690533D01*
X41234166Y-122404819D02*
X41043690Y-122404819D01*
X41043690Y-122404819D02*
X40948452Y-122452438D01*
X40948452Y-122452438D02*
X40900833Y-122500057D01*
X40900833Y-122500057D02*
X40805595Y-122642914D01*
X40805595Y-122642914D02*
X40757976Y-122833390D01*
X40757976Y-122833390D02*
X40757976Y-123214342D01*
X40757976Y-123214342D02*
X40805595Y-123309580D01*
X40805595Y-123309580D02*
X40853214Y-123357200D01*
X40853214Y-123357200D02*
X40948452Y-123404819D01*
X40948452Y-123404819D02*
X41138928Y-123404819D01*
X41138928Y-123404819D02*
X41234166Y-123357200D01*
X41234166Y-123357200D02*
X41281785Y-123309580D01*
X41281785Y-123309580D02*
X41329404Y-123214342D01*
X41329404Y-123214342D02*
X41329404Y-122976247D01*
X41329404Y-122976247D02*
X41281785Y-122881009D01*
X41281785Y-122881009D02*
X41234166Y-122833390D01*
X41234166Y-122833390D02*
X41138928Y-122785771D01*
X41138928Y-122785771D02*
X40948452Y-122785771D01*
X40948452Y-122785771D02*
X40853214Y-122833390D01*
X40853214Y-122833390D02*
X40805595Y-122881009D01*
X40805595Y-122881009D02*
X40757976Y-122976247D01*
X39424642Y-121559580D02*
X39377023Y-121607200D01*
X39377023Y-121607200D02*
X39234166Y-121654819D01*
X39234166Y-121654819D02*
X39138928Y-121654819D01*
X39138928Y-121654819D02*
X38996071Y-121607200D01*
X38996071Y-121607200D02*
X38900833Y-121511961D01*
X38900833Y-121511961D02*
X38853214Y-121416723D01*
X38853214Y-121416723D02*
X38805595Y-121226247D01*
X38805595Y-121226247D02*
X38805595Y-121083390D01*
X38805595Y-121083390D02*
X38853214Y-120892914D01*
X38853214Y-120892914D02*
X38900833Y-120797676D01*
X38900833Y-120797676D02*
X38996071Y-120702438D01*
X38996071Y-120702438D02*
X39138928Y-120654819D01*
X39138928Y-120654819D02*
X39234166Y-120654819D01*
X39234166Y-120654819D02*
X39377023Y-120702438D01*
X39377023Y-120702438D02*
X39424642Y-120750057D01*
X40377023Y-121654819D02*
X39805595Y-121654819D01*
X40091309Y-121654819D02*
X40091309Y-120654819D01*
X40091309Y-120654819D02*
X39996071Y-120797676D01*
X39996071Y-120797676D02*
X39900833Y-120892914D01*
X39900833Y-120892914D02*
X39805595Y-120940533D01*
X41234166Y-120988152D02*
X41234166Y-121654819D01*
X40996071Y-120607200D02*
X40757976Y-121321485D01*
X40757976Y-121321485D02*
X41377023Y-121321485D01*
X39424642Y-119809580D02*
X39377023Y-119857200D01*
X39377023Y-119857200D02*
X39234166Y-119904819D01*
X39234166Y-119904819D02*
X39138928Y-119904819D01*
X39138928Y-119904819D02*
X38996071Y-119857200D01*
X38996071Y-119857200D02*
X38900833Y-119761961D01*
X38900833Y-119761961D02*
X38853214Y-119666723D01*
X38853214Y-119666723D02*
X38805595Y-119476247D01*
X38805595Y-119476247D02*
X38805595Y-119333390D01*
X38805595Y-119333390D02*
X38853214Y-119142914D01*
X38853214Y-119142914D02*
X38900833Y-119047676D01*
X38900833Y-119047676D02*
X38996071Y-118952438D01*
X38996071Y-118952438D02*
X39138928Y-118904819D01*
X39138928Y-118904819D02*
X39234166Y-118904819D01*
X39234166Y-118904819D02*
X39377023Y-118952438D01*
X39377023Y-118952438D02*
X39424642Y-119000057D01*
X40377023Y-119904819D02*
X39805595Y-119904819D01*
X40091309Y-119904819D02*
X40091309Y-118904819D01*
X40091309Y-118904819D02*
X39996071Y-119047676D01*
X39996071Y-119047676D02*
X39900833Y-119142914D01*
X39900833Y-119142914D02*
X39805595Y-119190533D01*
X40710357Y-118904819D02*
X41329404Y-118904819D01*
X41329404Y-118904819D02*
X40996071Y-119285771D01*
X40996071Y-119285771D02*
X41138928Y-119285771D01*
X41138928Y-119285771D02*
X41234166Y-119333390D01*
X41234166Y-119333390D02*
X41281785Y-119381009D01*
X41281785Y-119381009D02*
X41329404Y-119476247D01*
X41329404Y-119476247D02*
X41329404Y-119714342D01*
X41329404Y-119714342D02*
X41281785Y-119809580D01*
X41281785Y-119809580D02*
X41234166Y-119857200D01*
X41234166Y-119857200D02*
X41138928Y-119904819D01*
X41138928Y-119904819D02*
X40853214Y-119904819D01*
X40853214Y-119904819D02*
X40757976Y-119857200D01*
X40757976Y-119857200D02*
X40710357Y-119809580D01*
X39424642Y-118059580D02*
X39377023Y-118107200D01*
X39377023Y-118107200D02*
X39234166Y-118154819D01*
X39234166Y-118154819D02*
X39138928Y-118154819D01*
X39138928Y-118154819D02*
X38996071Y-118107200D01*
X38996071Y-118107200D02*
X38900833Y-118011961D01*
X38900833Y-118011961D02*
X38853214Y-117916723D01*
X38853214Y-117916723D02*
X38805595Y-117726247D01*
X38805595Y-117726247D02*
X38805595Y-117583390D01*
X38805595Y-117583390D02*
X38853214Y-117392914D01*
X38853214Y-117392914D02*
X38900833Y-117297676D01*
X38900833Y-117297676D02*
X38996071Y-117202438D01*
X38996071Y-117202438D02*
X39138928Y-117154819D01*
X39138928Y-117154819D02*
X39234166Y-117154819D01*
X39234166Y-117154819D02*
X39377023Y-117202438D01*
X39377023Y-117202438D02*
X39424642Y-117250057D01*
X40377023Y-118154819D02*
X39805595Y-118154819D01*
X40091309Y-118154819D02*
X40091309Y-117154819D01*
X40091309Y-117154819D02*
X39996071Y-117297676D01*
X39996071Y-117297676D02*
X39900833Y-117392914D01*
X39900833Y-117392914D02*
X39805595Y-117440533D01*
X40757976Y-117250057D02*
X40805595Y-117202438D01*
X40805595Y-117202438D02*
X40900833Y-117154819D01*
X40900833Y-117154819D02*
X41138928Y-117154819D01*
X41138928Y-117154819D02*
X41234166Y-117202438D01*
X41234166Y-117202438D02*
X41281785Y-117250057D01*
X41281785Y-117250057D02*
X41329404Y-117345295D01*
X41329404Y-117345295D02*
X41329404Y-117440533D01*
X41329404Y-117440533D02*
X41281785Y-117583390D01*
X41281785Y-117583390D02*
X40710357Y-118154819D01*
X40710357Y-118154819D02*
X41329404Y-118154819D01*
X39424642Y-116309580D02*
X39377023Y-116357200D01*
X39377023Y-116357200D02*
X39234166Y-116404819D01*
X39234166Y-116404819D02*
X39138928Y-116404819D01*
X39138928Y-116404819D02*
X38996071Y-116357200D01*
X38996071Y-116357200D02*
X38900833Y-116261961D01*
X38900833Y-116261961D02*
X38853214Y-116166723D01*
X38853214Y-116166723D02*
X38805595Y-115976247D01*
X38805595Y-115976247D02*
X38805595Y-115833390D01*
X38805595Y-115833390D02*
X38853214Y-115642914D01*
X38853214Y-115642914D02*
X38900833Y-115547676D01*
X38900833Y-115547676D02*
X38996071Y-115452438D01*
X38996071Y-115452438D02*
X39138928Y-115404819D01*
X39138928Y-115404819D02*
X39234166Y-115404819D01*
X39234166Y-115404819D02*
X39377023Y-115452438D01*
X39377023Y-115452438D02*
X39424642Y-115500057D01*
X40377023Y-116404819D02*
X39805595Y-116404819D01*
X40091309Y-116404819D02*
X40091309Y-115404819D01*
X40091309Y-115404819D02*
X39996071Y-115547676D01*
X39996071Y-115547676D02*
X39900833Y-115642914D01*
X39900833Y-115642914D02*
X39805595Y-115690533D01*
X41329404Y-116404819D02*
X40757976Y-116404819D01*
X41043690Y-116404819D02*
X41043690Y-115404819D01*
X41043690Y-115404819D02*
X40948452Y-115547676D01*
X40948452Y-115547676D02*
X40853214Y-115642914D01*
X40853214Y-115642914D02*
X40757976Y-115690533D01*
X36614642Y-126809580D02*
X36567023Y-126857200D01*
X36567023Y-126857200D02*
X36424166Y-126904819D01*
X36424166Y-126904819D02*
X36328928Y-126904819D01*
X36328928Y-126904819D02*
X36186071Y-126857200D01*
X36186071Y-126857200D02*
X36090833Y-126761961D01*
X36090833Y-126761961D02*
X36043214Y-126666723D01*
X36043214Y-126666723D02*
X35995595Y-126476247D01*
X35995595Y-126476247D02*
X35995595Y-126333390D01*
X35995595Y-126333390D02*
X36043214Y-126142914D01*
X36043214Y-126142914D02*
X36090833Y-126047676D01*
X36090833Y-126047676D02*
X36186071Y-125952438D01*
X36186071Y-125952438D02*
X36328928Y-125904819D01*
X36328928Y-125904819D02*
X36424166Y-125904819D01*
X36424166Y-125904819D02*
X36567023Y-125952438D01*
X36567023Y-125952438D02*
X36614642Y-126000057D01*
X37567023Y-126904819D02*
X36995595Y-126904819D01*
X37281309Y-126904819D02*
X37281309Y-125904819D01*
X37281309Y-125904819D02*
X37186071Y-126047676D01*
X37186071Y-126047676D02*
X37090833Y-126142914D01*
X37090833Y-126142914D02*
X36995595Y-126190533D01*
X38186071Y-125904819D02*
X38281309Y-125904819D01*
X38281309Y-125904819D02*
X38376547Y-125952438D01*
X38376547Y-125952438D02*
X38424166Y-126000057D01*
X38424166Y-126000057D02*
X38471785Y-126095295D01*
X38471785Y-126095295D02*
X38519404Y-126285771D01*
X38519404Y-126285771D02*
X38519404Y-126523866D01*
X38519404Y-126523866D02*
X38471785Y-126714342D01*
X38471785Y-126714342D02*
X38424166Y-126809580D01*
X38424166Y-126809580D02*
X38376547Y-126857200D01*
X38376547Y-126857200D02*
X38281309Y-126904819D01*
X38281309Y-126904819D02*
X38186071Y-126904819D01*
X38186071Y-126904819D02*
X38090833Y-126857200D01*
X38090833Y-126857200D02*
X38043214Y-126809580D01*
X38043214Y-126809580D02*
X37995595Y-126714342D01*
X37995595Y-126714342D02*
X37947976Y-126523866D01*
X37947976Y-126523866D02*
X37947976Y-126285771D01*
X37947976Y-126285771D02*
X37995595Y-126095295D01*
X37995595Y-126095295D02*
X38043214Y-126000057D01*
X38043214Y-126000057D02*
X38090833Y-125952438D01*
X38090833Y-125952438D02*
X38186071Y-125904819D01*
X37090833Y-125059580D02*
X37043214Y-125107200D01*
X37043214Y-125107200D02*
X36900357Y-125154819D01*
X36900357Y-125154819D02*
X36805119Y-125154819D01*
X36805119Y-125154819D02*
X36662262Y-125107200D01*
X36662262Y-125107200D02*
X36567024Y-125011961D01*
X36567024Y-125011961D02*
X36519405Y-124916723D01*
X36519405Y-124916723D02*
X36471786Y-124726247D01*
X36471786Y-124726247D02*
X36471786Y-124583390D01*
X36471786Y-124583390D02*
X36519405Y-124392914D01*
X36519405Y-124392914D02*
X36567024Y-124297676D01*
X36567024Y-124297676D02*
X36662262Y-124202438D01*
X36662262Y-124202438D02*
X36805119Y-124154819D01*
X36805119Y-124154819D02*
X36900357Y-124154819D01*
X36900357Y-124154819D02*
X37043214Y-124202438D01*
X37043214Y-124202438D02*
X37090833Y-124250057D01*
X37567024Y-125154819D02*
X37757500Y-125154819D01*
X37757500Y-125154819D02*
X37852738Y-125107200D01*
X37852738Y-125107200D02*
X37900357Y-125059580D01*
X37900357Y-125059580D02*
X37995595Y-124916723D01*
X37995595Y-124916723D02*
X38043214Y-124726247D01*
X38043214Y-124726247D02*
X38043214Y-124345295D01*
X38043214Y-124345295D02*
X37995595Y-124250057D01*
X37995595Y-124250057D02*
X37947976Y-124202438D01*
X37947976Y-124202438D02*
X37852738Y-124154819D01*
X37852738Y-124154819D02*
X37662262Y-124154819D01*
X37662262Y-124154819D02*
X37567024Y-124202438D01*
X37567024Y-124202438D02*
X37519405Y-124250057D01*
X37519405Y-124250057D02*
X37471786Y-124345295D01*
X37471786Y-124345295D02*
X37471786Y-124583390D01*
X37471786Y-124583390D02*
X37519405Y-124678628D01*
X37519405Y-124678628D02*
X37567024Y-124726247D01*
X37567024Y-124726247D02*
X37662262Y-124773866D01*
X37662262Y-124773866D02*
X37852738Y-124773866D01*
X37852738Y-124773866D02*
X37947976Y-124726247D01*
X37947976Y-124726247D02*
X37995595Y-124678628D01*
X37995595Y-124678628D02*
X38043214Y-124583390D01*
X37090833Y-123309580D02*
X37043214Y-123357200D01*
X37043214Y-123357200D02*
X36900357Y-123404819D01*
X36900357Y-123404819D02*
X36805119Y-123404819D01*
X36805119Y-123404819D02*
X36662262Y-123357200D01*
X36662262Y-123357200D02*
X36567024Y-123261961D01*
X36567024Y-123261961D02*
X36519405Y-123166723D01*
X36519405Y-123166723D02*
X36471786Y-122976247D01*
X36471786Y-122976247D02*
X36471786Y-122833390D01*
X36471786Y-122833390D02*
X36519405Y-122642914D01*
X36519405Y-122642914D02*
X36567024Y-122547676D01*
X36567024Y-122547676D02*
X36662262Y-122452438D01*
X36662262Y-122452438D02*
X36805119Y-122404819D01*
X36805119Y-122404819D02*
X36900357Y-122404819D01*
X36900357Y-122404819D02*
X37043214Y-122452438D01*
X37043214Y-122452438D02*
X37090833Y-122500057D01*
X37662262Y-122833390D02*
X37567024Y-122785771D01*
X37567024Y-122785771D02*
X37519405Y-122738152D01*
X37519405Y-122738152D02*
X37471786Y-122642914D01*
X37471786Y-122642914D02*
X37471786Y-122595295D01*
X37471786Y-122595295D02*
X37519405Y-122500057D01*
X37519405Y-122500057D02*
X37567024Y-122452438D01*
X37567024Y-122452438D02*
X37662262Y-122404819D01*
X37662262Y-122404819D02*
X37852738Y-122404819D01*
X37852738Y-122404819D02*
X37947976Y-122452438D01*
X37947976Y-122452438D02*
X37995595Y-122500057D01*
X37995595Y-122500057D02*
X38043214Y-122595295D01*
X38043214Y-122595295D02*
X38043214Y-122642914D01*
X38043214Y-122642914D02*
X37995595Y-122738152D01*
X37995595Y-122738152D02*
X37947976Y-122785771D01*
X37947976Y-122785771D02*
X37852738Y-122833390D01*
X37852738Y-122833390D02*
X37662262Y-122833390D01*
X37662262Y-122833390D02*
X37567024Y-122881009D01*
X37567024Y-122881009D02*
X37519405Y-122928628D01*
X37519405Y-122928628D02*
X37471786Y-123023866D01*
X37471786Y-123023866D02*
X37471786Y-123214342D01*
X37471786Y-123214342D02*
X37519405Y-123309580D01*
X37519405Y-123309580D02*
X37567024Y-123357200D01*
X37567024Y-123357200D02*
X37662262Y-123404819D01*
X37662262Y-123404819D02*
X37852738Y-123404819D01*
X37852738Y-123404819D02*
X37947976Y-123357200D01*
X37947976Y-123357200D02*
X37995595Y-123309580D01*
X37995595Y-123309580D02*
X38043214Y-123214342D01*
X38043214Y-123214342D02*
X38043214Y-123023866D01*
X38043214Y-123023866D02*
X37995595Y-122928628D01*
X37995595Y-122928628D02*
X37947976Y-122881009D01*
X37947976Y-122881009D02*
X37852738Y-122833390D01*
X37090833Y-121559580D02*
X37043214Y-121607200D01*
X37043214Y-121607200D02*
X36900357Y-121654819D01*
X36900357Y-121654819D02*
X36805119Y-121654819D01*
X36805119Y-121654819D02*
X36662262Y-121607200D01*
X36662262Y-121607200D02*
X36567024Y-121511961D01*
X36567024Y-121511961D02*
X36519405Y-121416723D01*
X36519405Y-121416723D02*
X36471786Y-121226247D01*
X36471786Y-121226247D02*
X36471786Y-121083390D01*
X36471786Y-121083390D02*
X36519405Y-120892914D01*
X36519405Y-120892914D02*
X36567024Y-120797676D01*
X36567024Y-120797676D02*
X36662262Y-120702438D01*
X36662262Y-120702438D02*
X36805119Y-120654819D01*
X36805119Y-120654819D02*
X36900357Y-120654819D01*
X36900357Y-120654819D02*
X37043214Y-120702438D01*
X37043214Y-120702438D02*
X37090833Y-120750057D01*
X37424167Y-120654819D02*
X38090833Y-120654819D01*
X38090833Y-120654819D02*
X37662262Y-121654819D01*
X37090833Y-119809580D02*
X37043214Y-119857200D01*
X37043214Y-119857200D02*
X36900357Y-119904819D01*
X36900357Y-119904819D02*
X36805119Y-119904819D01*
X36805119Y-119904819D02*
X36662262Y-119857200D01*
X36662262Y-119857200D02*
X36567024Y-119761961D01*
X36567024Y-119761961D02*
X36519405Y-119666723D01*
X36519405Y-119666723D02*
X36471786Y-119476247D01*
X36471786Y-119476247D02*
X36471786Y-119333390D01*
X36471786Y-119333390D02*
X36519405Y-119142914D01*
X36519405Y-119142914D02*
X36567024Y-119047676D01*
X36567024Y-119047676D02*
X36662262Y-118952438D01*
X36662262Y-118952438D02*
X36805119Y-118904819D01*
X36805119Y-118904819D02*
X36900357Y-118904819D01*
X36900357Y-118904819D02*
X37043214Y-118952438D01*
X37043214Y-118952438D02*
X37090833Y-119000057D01*
X37947976Y-118904819D02*
X37757500Y-118904819D01*
X37757500Y-118904819D02*
X37662262Y-118952438D01*
X37662262Y-118952438D02*
X37614643Y-119000057D01*
X37614643Y-119000057D02*
X37519405Y-119142914D01*
X37519405Y-119142914D02*
X37471786Y-119333390D01*
X37471786Y-119333390D02*
X37471786Y-119714342D01*
X37471786Y-119714342D02*
X37519405Y-119809580D01*
X37519405Y-119809580D02*
X37567024Y-119857200D01*
X37567024Y-119857200D02*
X37662262Y-119904819D01*
X37662262Y-119904819D02*
X37852738Y-119904819D01*
X37852738Y-119904819D02*
X37947976Y-119857200D01*
X37947976Y-119857200D02*
X37995595Y-119809580D01*
X37995595Y-119809580D02*
X38043214Y-119714342D01*
X38043214Y-119714342D02*
X38043214Y-119476247D01*
X38043214Y-119476247D02*
X37995595Y-119381009D01*
X37995595Y-119381009D02*
X37947976Y-119333390D01*
X37947976Y-119333390D02*
X37852738Y-119285771D01*
X37852738Y-119285771D02*
X37662262Y-119285771D01*
X37662262Y-119285771D02*
X37567024Y-119333390D01*
X37567024Y-119333390D02*
X37519405Y-119381009D01*
X37519405Y-119381009D02*
X37471786Y-119476247D01*
X19309580Y-119416666D02*
X19357200Y-119464285D01*
X19357200Y-119464285D02*
X19404819Y-119607142D01*
X19404819Y-119607142D02*
X19404819Y-119702380D01*
X19404819Y-119702380D02*
X19357200Y-119845237D01*
X19357200Y-119845237D02*
X19261961Y-119940475D01*
X19261961Y-119940475D02*
X19166723Y-119988094D01*
X19166723Y-119988094D02*
X18976247Y-120035713D01*
X18976247Y-120035713D02*
X18833390Y-120035713D01*
X18833390Y-120035713D02*
X18642914Y-119988094D01*
X18642914Y-119988094D02*
X18547676Y-119940475D01*
X18547676Y-119940475D02*
X18452438Y-119845237D01*
X18452438Y-119845237D02*
X18404819Y-119702380D01*
X18404819Y-119702380D02*
X18404819Y-119607142D01*
X18404819Y-119607142D02*
X18452438Y-119464285D01*
X18452438Y-119464285D02*
X18500057Y-119416666D01*
X18404819Y-118511904D02*
X18404819Y-118988094D01*
X18404819Y-118988094D02*
X18881009Y-119035713D01*
X18881009Y-119035713D02*
X18833390Y-118988094D01*
X18833390Y-118988094D02*
X18785771Y-118892856D01*
X18785771Y-118892856D02*
X18785771Y-118654761D01*
X18785771Y-118654761D02*
X18833390Y-118559523D01*
X18833390Y-118559523D02*
X18881009Y-118511904D01*
X18881009Y-118511904D02*
X18976247Y-118464285D01*
X18976247Y-118464285D02*
X19214342Y-118464285D01*
X19214342Y-118464285D02*
X19309580Y-118511904D01*
X19309580Y-118511904D02*
X19357200Y-118559523D01*
X19357200Y-118559523D02*
X19404819Y-118654761D01*
X19404819Y-118654761D02*
X19404819Y-118892856D01*
X19404819Y-118892856D02*
X19357200Y-118988094D01*
X19357200Y-118988094D02*
X19309580Y-119035713D01*
X37090833Y-116309580D02*
X37043214Y-116357200D01*
X37043214Y-116357200D02*
X36900357Y-116404819D01*
X36900357Y-116404819D02*
X36805119Y-116404819D01*
X36805119Y-116404819D02*
X36662262Y-116357200D01*
X36662262Y-116357200D02*
X36567024Y-116261961D01*
X36567024Y-116261961D02*
X36519405Y-116166723D01*
X36519405Y-116166723D02*
X36471786Y-115976247D01*
X36471786Y-115976247D02*
X36471786Y-115833390D01*
X36471786Y-115833390D02*
X36519405Y-115642914D01*
X36519405Y-115642914D02*
X36567024Y-115547676D01*
X36567024Y-115547676D02*
X36662262Y-115452438D01*
X36662262Y-115452438D02*
X36805119Y-115404819D01*
X36805119Y-115404819D02*
X36900357Y-115404819D01*
X36900357Y-115404819D02*
X37043214Y-115452438D01*
X37043214Y-115452438D02*
X37090833Y-115500057D01*
X37947976Y-115738152D02*
X37947976Y-116404819D01*
X37709881Y-115357200D02*
X37471786Y-116071485D01*
X37471786Y-116071485D02*
X38090833Y-116071485D01*
X53900833Y-75809580D02*
X53853214Y-75857200D01*
X53853214Y-75857200D02*
X53710357Y-75904819D01*
X53710357Y-75904819D02*
X53615119Y-75904819D01*
X53615119Y-75904819D02*
X53472262Y-75857200D01*
X53472262Y-75857200D02*
X53377024Y-75761961D01*
X53377024Y-75761961D02*
X53329405Y-75666723D01*
X53329405Y-75666723D02*
X53281786Y-75476247D01*
X53281786Y-75476247D02*
X53281786Y-75333390D01*
X53281786Y-75333390D02*
X53329405Y-75142914D01*
X53329405Y-75142914D02*
X53377024Y-75047676D01*
X53377024Y-75047676D02*
X53472262Y-74952438D01*
X53472262Y-74952438D02*
X53615119Y-74904819D01*
X53615119Y-74904819D02*
X53710357Y-74904819D01*
X53710357Y-74904819D02*
X53853214Y-74952438D01*
X53853214Y-74952438D02*
X53900833Y-75000057D01*
X54234167Y-74904819D02*
X54853214Y-74904819D01*
X54853214Y-74904819D02*
X54519881Y-75285771D01*
X54519881Y-75285771D02*
X54662738Y-75285771D01*
X54662738Y-75285771D02*
X54757976Y-75333390D01*
X54757976Y-75333390D02*
X54805595Y-75381009D01*
X54805595Y-75381009D02*
X54853214Y-75476247D01*
X54853214Y-75476247D02*
X54853214Y-75714342D01*
X54853214Y-75714342D02*
X54805595Y-75809580D01*
X54805595Y-75809580D02*
X54757976Y-75857200D01*
X54757976Y-75857200D02*
X54662738Y-75904819D01*
X54662738Y-75904819D02*
X54377024Y-75904819D01*
X54377024Y-75904819D02*
X54281786Y-75857200D01*
X54281786Y-75857200D02*
X54234167Y-75809580D01*
X66912460Y-68636244D02*
X66912460Y-69964347D01*
X66912460Y-69964347D02*
X66990584Y-70120595D01*
X66990584Y-70120595D02*
X67068708Y-70198719D01*
X67068708Y-70198719D02*
X67224955Y-70276842D01*
X67224955Y-70276842D02*
X67537450Y-70276842D01*
X67537450Y-70276842D02*
X67693697Y-70198719D01*
X67693697Y-70198719D02*
X67771821Y-70120595D01*
X67771821Y-70120595D02*
X67849945Y-69964347D01*
X67849945Y-69964347D02*
X67849945Y-68636244D01*
X69490543Y-70276842D02*
X68553058Y-70276842D01*
X69021801Y-70276842D02*
X69021801Y-68636244D01*
X69021801Y-68636244D02*
X68865553Y-68870615D01*
X68865553Y-68870615D02*
X68709306Y-69026863D01*
X68709306Y-69026863D02*
X68553058Y-69104987D01*
X122253260Y-65581244D02*
X122253260Y-66909347D01*
X122253260Y-66909347D02*
X122331384Y-67065595D01*
X122331384Y-67065595D02*
X122409508Y-67143719D01*
X122409508Y-67143719D02*
X122565755Y-67221842D01*
X122565755Y-67221842D02*
X122878250Y-67221842D01*
X122878250Y-67221842D02*
X123034497Y-67143719D01*
X123034497Y-67143719D02*
X123112621Y-67065595D01*
X123112621Y-67065595D02*
X123190745Y-66909347D01*
X123190745Y-66909347D02*
X123190745Y-65581244D01*
X123893858Y-65737492D02*
X123971982Y-65659368D01*
X123971982Y-65659368D02*
X124128230Y-65581244D01*
X124128230Y-65581244D02*
X124518848Y-65581244D01*
X124518848Y-65581244D02*
X124675096Y-65659368D01*
X124675096Y-65659368D02*
X124753219Y-65737492D01*
X124753219Y-65737492D02*
X124831343Y-65893739D01*
X124831343Y-65893739D02*
X124831343Y-66049987D01*
X124831343Y-66049987D02*
X124753219Y-66284358D01*
X124753219Y-66284358D02*
X123815735Y-67221842D01*
X123815735Y-67221842D02*
X124831343Y-67221842D01*
X53900833Y-72309580D02*
X53853214Y-72357200D01*
X53853214Y-72357200D02*
X53710357Y-72404819D01*
X53710357Y-72404819D02*
X53615119Y-72404819D01*
X53615119Y-72404819D02*
X53472262Y-72357200D01*
X53472262Y-72357200D02*
X53377024Y-72261961D01*
X53377024Y-72261961D02*
X53329405Y-72166723D01*
X53329405Y-72166723D02*
X53281786Y-71976247D01*
X53281786Y-71976247D02*
X53281786Y-71833390D01*
X53281786Y-71833390D02*
X53329405Y-71642914D01*
X53329405Y-71642914D02*
X53377024Y-71547676D01*
X53377024Y-71547676D02*
X53472262Y-71452438D01*
X53472262Y-71452438D02*
X53615119Y-71404819D01*
X53615119Y-71404819D02*
X53710357Y-71404819D01*
X53710357Y-71404819D02*
X53853214Y-71452438D01*
X53853214Y-71452438D02*
X53900833Y-71500057D01*
X54853214Y-72404819D02*
X54281786Y-72404819D01*
X54567500Y-72404819D02*
X54567500Y-71404819D01*
X54567500Y-71404819D02*
X54472262Y-71547676D01*
X54472262Y-71547676D02*
X54377024Y-71642914D01*
X54377024Y-71642914D02*
X54281786Y-71690533D01*
X53900833Y-74059580D02*
X53853214Y-74107200D01*
X53853214Y-74107200D02*
X53710357Y-74154819D01*
X53710357Y-74154819D02*
X53615119Y-74154819D01*
X53615119Y-74154819D02*
X53472262Y-74107200D01*
X53472262Y-74107200D02*
X53377024Y-74011961D01*
X53377024Y-74011961D02*
X53329405Y-73916723D01*
X53329405Y-73916723D02*
X53281786Y-73726247D01*
X53281786Y-73726247D02*
X53281786Y-73583390D01*
X53281786Y-73583390D02*
X53329405Y-73392914D01*
X53329405Y-73392914D02*
X53377024Y-73297676D01*
X53377024Y-73297676D02*
X53472262Y-73202438D01*
X53472262Y-73202438D02*
X53615119Y-73154819D01*
X53615119Y-73154819D02*
X53710357Y-73154819D01*
X53710357Y-73154819D02*
X53853214Y-73202438D01*
X53853214Y-73202438D02*
X53900833Y-73250057D01*
X54281786Y-73250057D02*
X54329405Y-73202438D01*
X54329405Y-73202438D02*
X54424643Y-73154819D01*
X54424643Y-73154819D02*
X54662738Y-73154819D01*
X54662738Y-73154819D02*
X54757976Y-73202438D01*
X54757976Y-73202438D02*
X54805595Y-73250057D01*
X54805595Y-73250057D02*
X54853214Y-73345295D01*
X54853214Y-73345295D02*
X54853214Y-73440533D01*
X54853214Y-73440533D02*
X54805595Y-73583390D01*
X54805595Y-73583390D02*
X54234167Y-74154819D01*
X54234167Y-74154819D02*
X54853214Y-74154819D01*
D11*
X189457419Y-60928571D02*
X189457419Y-60738095D01*
X189457419Y-60738095D02*
X189505038Y-60642857D01*
X189505038Y-60642857D02*
X189600276Y-60547619D01*
X189600276Y-60547619D02*
X189790752Y-60500000D01*
X189790752Y-60500000D02*
X190124085Y-60500000D01*
X190124085Y-60500000D02*
X190314561Y-60547619D01*
X190314561Y-60547619D02*
X190409800Y-60642857D01*
X190409800Y-60642857D02*
X190457419Y-60738095D01*
X190457419Y-60738095D02*
X190457419Y-60928571D01*
X190457419Y-60928571D02*
X190409800Y-61023809D01*
X190409800Y-61023809D02*
X190314561Y-61119047D01*
X190314561Y-61119047D02*
X190124085Y-61166666D01*
X190124085Y-61166666D02*
X189790752Y-61166666D01*
X189790752Y-61166666D02*
X189600276Y-61119047D01*
X189600276Y-61119047D02*
X189505038Y-61023809D01*
X189505038Y-61023809D02*
X189457419Y-60928571D01*
X190409800Y-60119047D02*
X190457419Y-59976190D01*
X190457419Y-59976190D02*
X190457419Y-59738095D01*
X190457419Y-59738095D02*
X190409800Y-59642857D01*
X190409800Y-59642857D02*
X190362180Y-59595238D01*
X190362180Y-59595238D02*
X190266942Y-59547619D01*
X190266942Y-59547619D02*
X190171704Y-59547619D01*
X190171704Y-59547619D02*
X190076466Y-59595238D01*
X190076466Y-59595238D02*
X190028847Y-59642857D01*
X190028847Y-59642857D02*
X189981228Y-59738095D01*
X189981228Y-59738095D02*
X189933609Y-59928571D01*
X189933609Y-59928571D02*
X189885990Y-60023809D01*
X189885990Y-60023809D02*
X189838371Y-60071428D01*
X189838371Y-60071428D02*
X189743133Y-60119047D01*
X189743133Y-60119047D02*
X189647895Y-60119047D01*
X189647895Y-60119047D02*
X189552657Y-60071428D01*
X189552657Y-60071428D02*
X189505038Y-60023809D01*
X189505038Y-60023809D02*
X189457419Y-59928571D01*
X189457419Y-59928571D02*
X189457419Y-59690476D01*
X189457419Y-59690476D02*
X189505038Y-59547619D01*
X190362180Y-58547619D02*
X190409800Y-58595238D01*
X190409800Y-58595238D02*
X190457419Y-58738095D01*
X190457419Y-58738095D02*
X190457419Y-58833333D01*
X190457419Y-58833333D02*
X190409800Y-58976190D01*
X190409800Y-58976190D02*
X190314561Y-59071428D01*
X190314561Y-59071428D02*
X190219323Y-59119047D01*
X190219323Y-59119047D02*
X190028847Y-59166666D01*
X190028847Y-59166666D02*
X189885990Y-59166666D01*
X189885990Y-59166666D02*
X189695514Y-59119047D01*
X189695514Y-59119047D02*
X189600276Y-59071428D01*
X189600276Y-59071428D02*
X189505038Y-58976190D01*
X189505038Y-58976190D02*
X189457419Y-58833333D01*
X189457419Y-58833333D02*
X189457419Y-58738095D01*
X189457419Y-58738095D02*
X189505038Y-58595238D01*
X189505038Y-58595238D02*
X189552657Y-58547619D01*
X189457419Y-57642857D02*
X189457419Y-58119047D01*
X189457419Y-58119047D02*
X189933609Y-58166666D01*
X189933609Y-58166666D02*
X189885990Y-58119047D01*
X189885990Y-58119047D02*
X189838371Y-58023809D01*
X189838371Y-58023809D02*
X189838371Y-57785714D01*
X189838371Y-57785714D02*
X189885990Y-57690476D01*
X189885990Y-57690476D02*
X189933609Y-57642857D01*
X189933609Y-57642857D02*
X190028847Y-57595238D01*
X190028847Y-57595238D02*
X190266942Y-57595238D01*
X190266942Y-57595238D02*
X190362180Y-57642857D01*
X190362180Y-57642857D02*
X190409800Y-57690476D01*
X190409800Y-57690476D02*
X190457419Y-57785714D01*
X190457419Y-57785714D02*
X190457419Y-58023809D01*
X190457419Y-58023809D02*
X190409800Y-58119047D01*
X190409800Y-58119047D02*
X190362180Y-58166666D01*
X190171704Y-57214285D02*
X190171704Y-56738095D01*
X190457419Y-57309523D02*
X189457419Y-56976190D01*
X189457419Y-56976190D02*
X190457419Y-56642857D01*
X189552657Y-56357142D02*
X189505038Y-56309523D01*
X189505038Y-56309523D02*
X189457419Y-56214285D01*
X189457419Y-56214285D02*
X189457419Y-55976190D01*
X189457419Y-55976190D02*
X189505038Y-55880952D01*
X189505038Y-55880952D02*
X189552657Y-55833333D01*
X189552657Y-55833333D02*
X189647895Y-55785714D01*
X189647895Y-55785714D02*
X189743133Y-55785714D01*
X189743133Y-55785714D02*
X189885990Y-55833333D01*
X189885990Y-55833333D02*
X190457419Y-56404761D01*
X190457419Y-56404761D02*
X190457419Y-55785714D01*
X189933609Y-55023809D02*
X189981228Y-54880952D01*
X189981228Y-54880952D02*
X190028847Y-54833333D01*
X190028847Y-54833333D02*
X190124085Y-54785714D01*
X190124085Y-54785714D02*
X190266942Y-54785714D01*
X190266942Y-54785714D02*
X190362180Y-54833333D01*
X190362180Y-54833333D02*
X190409800Y-54880952D01*
X190409800Y-54880952D02*
X190457419Y-54976190D01*
X190457419Y-54976190D02*
X190457419Y-55357142D01*
X190457419Y-55357142D02*
X189457419Y-55357142D01*
X189457419Y-55357142D02*
X189457419Y-55023809D01*
X189457419Y-55023809D02*
X189505038Y-54928571D01*
X189505038Y-54928571D02*
X189552657Y-54880952D01*
X189552657Y-54880952D02*
X189647895Y-54833333D01*
X189647895Y-54833333D02*
X189743133Y-54833333D01*
X189743133Y-54833333D02*
X189838371Y-54880952D01*
X189838371Y-54880952D02*
X189885990Y-54928571D01*
X189885990Y-54928571D02*
X189933609Y-55023809D01*
X189933609Y-55023809D02*
X189933609Y-55357142D01*
X190457419Y-53833333D02*
X190457419Y-54404761D01*
X190457419Y-54119047D02*
X189457419Y-54119047D01*
X189457419Y-54119047D02*
X189600276Y-54214285D01*
X189600276Y-54214285D02*
X189695514Y-54309523D01*
X189695514Y-54309523D02*
X189743133Y-54404761D01*
D12*
%TO.C,X1*%
X76832500Y-120105000D02*
X76832500Y-124725000D01*
X76832500Y-124725000D02*
X82352500Y-124725000D01*
%TO.C,U7*%
X22150000Y-136590000D02*
X25910000Y-136590000D01*
X22150000Y-143410000D02*
X25910000Y-143410000D01*
X25910000Y-136590000D02*
X25910000Y-137850000D01*
X25910000Y-143410000D02*
X25910000Y-142150000D01*
X20870000Y-136690000D02*
X20630000Y-136360000D01*
X21110000Y-136360000D01*
X20870000Y-136690000D01*
G36*
X20870000Y-136690000D02*
G01*
X20630000Y-136360000D01*
X21110000Y-136360000D01*
X20870000Y-136690000D01*
G37*
%TO.C,U6*%
X100390000Y-178615000D02*
X100390000Y-178380000D01*
X100390000Y-185360000D02*
X100390000Y-184885000D01*
X100865000Y-178140000D02*
X100690000Y-178140000D01*
X100865000Y-185360000D02*
X100390000Y-185360000D01*
X107135000Y-178140000D02*
X107610000Y-178140000D01*
X107135000Y-185360000D02*
X107610000Y-185360000D01*
X107610000Y-178140000D02*
X107610000Y-178615000D01*
X107610000Y-185360000D02*
X107610000Y-184885000D01*
X100390000Y-178140000D02*
X100150000Y-177810000D01*
X100630000Y-177810000D01*
X100390000Y-178140000D01*
G36*
X100390000Y-178140000D02*
G01*
X100150000Y-177810000D01*
X100630000Y-177810000D01*
X100390000Y-178140000D01*
G37*
%TO.C,U5*%
X98500000Y-125690000D02*
X96550000Y-125690000D01*
X98500000Y-125690000D02*
X100450000Y-125690000D01*
X98500000Y-130810000D02*
X96550000Y-130810000D01*
X98500000Y-130810000D02*
X100450000Y-130810000D01*
X95800000Y-125785000D02*
X95560000Y-125455000D01*
X96040000Y-125455000D01*
X95800000Y-125785000D01*
G36*
X95800000Y-125785000D02*
G01*
X95560000Y-125455000D01*
X96040000Y-125455000D01*
X95800000Y-125785000D01*
G37*
%TO.C,U4*%
X67957500Y-141090000D02*
X66457500Y-141090000D01*
X67957500Y-141090000D02*
X69457500Y-141090000D01*
X67957500Y-144310000D02*
X66457500Y-144310000D01*
X67957500Y-144310000D02*
X69457500Y-144310000D01*
X65745000Y-141265000D02*
X65505000Y-140935000D01*
X65985000Y-140935000D01*
X65745000Y-141265000D01*
G36*
X65745000Y-141265000D02*
G01*
X65505000Y-140935000D01*
X65985000Y-140935000D01*
X65745000Y-141265000D01*
G37*
%TO.C,U3*%
X58275000Y-101535000D02*
X56325000Y-101535000D01*
X58275000Y-101535000D02*
X60225000Y-101535000D01*
X58275000Y-106655000D02*
X56325000Y-106655000D01*
X58275000Y-106655000D02*
X60225000Y-106655000D01*
X55575000Y-101630000D02*
X55335000Y-101300000D01*
X55815000Y-101300000D01*
X55575000Y-101630000D01*
G36*
X55575000Y-101630000D02*
G01*
X55335000Y-101300000D01*
X55815000Y-101300000D01*
X55575000Y-101630000D01*
G37*
%TO.C,TP3*%
X63427500Y-142670000D02*
G75*
G02*
X61527500Y-142670000I-950000J0D01*
G01*
X61527500Y-142670000D02*
G75*
G02*
X63427500Y-142670000I950000J0D01*
G01*
%TO.C,TP2*%
X63427500Y-139120000D02*
G75*
G02*
X61527500Y-139120000I-950000J0D01*
G01*
X61527500Y-139120000D02*
G75*
G02*
X63427500Y-139120000I950000J0D01*
G01*
%TO.C,TP1*%
X63427500Y-135570000D02*
G75*
G02*
X61527500Y-135570000I-950000J0D01*
G01*
X61527500Y-135570000D02*
G75*
G02*
X63427500Y-135570000I950000J0D01*
G01*
%TO.C,J3*%
X61967500Y-112990000D02*
X61967500Y-114910000D01*
X61967500Y-118625000D02*
X61967500Y-116920000D01*
X71127500Y-114910000D02*
X71127500Y-112990000D01*
X71127500Y-116920000D02*
X71127500Y-118625000D01*
X71127500Y-118625000D02*
X61967500Y-118625000D01*
%TO.C,J2*%
X70047500Y-120460000D02*
X71427500Y-120460000D01*
X70047500Y-121840000D02*
X70047500Y-120460000D01*
X70047500Y-123110000D02*
X70047500Y-128300000D01*
X70047500Y-123110000D02*
X72697500Y-123110000D01*
X70047500Y-128300000D02*
X75347500Y-128300000D01*
X72697500Y-120460000D02*
X75347500Y-120460000D01*
X72697500Y-123110000D02*
X72697500Y-120460000D01*
X75347500Y-120460000D02*
X75347500Y-128300000D01*
%TO.C,J1*%
X78097500Y-110380000D02*
X79477500Y-110380000D01*
X78097500Y-111760000D02*
X78097500Y-110380000D01*
X78097500Y-113030000D02*
X78097500Y-115680000D01*
X78097500Y-113030000D02*
X80857500Y-113030000D01*
X78097500Y-115680000D02*
X80857500Y-115680000D01*
X80857500Y-113030000D02*
X80857500Y-115680000D01*
%TO.C,D3*%
X72952500Y-116105000D02*
X72952500Y-118025000D01*
X72952500Y-118025000D02*
X75812500Y-118025000D01*
X75812500Y-116105000D02*
X72952500Y-116105000D01*
%TO.C,D2*%
X72952500Y-113065000D02*
X72952500Y-114985000D01*
X72952500Y-114985000D02*
X75812500Y-114985000D01*
X75812500Y-113065000D02*
X72952500Y-113065000D01*
%TO.C,D1*%
X72952500Y-110025000D02*
X72952500Y-111945000D01*
X72952500Y-111945000D02*
X75812500Y-111945000D01*
X75812500Y-110025000D02*
X72952500Y-110025000D01*
D13*
%TO.C,U1*%
X64834400Y-82558800D02*
X67984000Y-82558800D01*
X66104400Y-72551200D02*
X64834400Y-72551200D01*
X66714000Y-72551200D02*
X66104400Y-72551200D01*
X67984000Y-72551200D02*
X66714000Y-72551200D01*
X66714000Y-72551200D02*
G75*
G02*
X66104400Y-72551200I-304800J0D01*
G01*
%TO.C,U2*%
X120175200Y-79503800D02*
X123324800Y-79503800D01*
X121445200Y-69496200D02*
X120175200Y-69496200D01*
X122054800Y-69496200D02*
X121445200Y-69496200D01*
X123324800Y-69496200D02*
X122054800Y-69496200D01*
X122054800Y-69496200D02*
G75*
G02*
X121445200Y-69496200I-304800J0D01*
G01*
%TO.C,OSC5A2B1*%
D11*
X177800000Y-70200000D02*
X203200000Y-70200000D01*
X203200000Y-44800000D01*
X177800000Y-44800000D01*
X177800000Y-70200000D01*
D14*
X179500000Y-45750000D02*
G75*
G02*
X178792894Y-45750000I-353553J0D01*
G01*
X178792894Y-45750000D02*
G75*
G02*
X179500000Y-45750000I353553J0D01*
G01*
%TD*%
M02*
