%TF.GenerationSoftware,KiCad,Pcbnew,9.0.4*%
%TF.CreationDate,2025-09-29T16:45:49+02:00*%
%TF.ProjectId,gpsdo,67707364-6f2e-46b6-9963-61645f706362,rev?*%
%TF.SameCoordinates,Original*%
%TF.FileFunction,Copper,L2,Inr*%
%TF.FilePolarity,Positive*%
%FSLAX46Y46*%
G04 Gerber Fmt 4.6, Leading zero omitted, Abs format (unit mm)*
G04 Created by KiCad (PCBNEW 9.0.4) date 2025-09-29 16:45:49*
%MOMM*%
%LPD*%
G01*
G04 APERTURE LIST*
%TA.AperFunction,NonConductor*%
%ADD10C,0.200000*%
%TD*%
%TA.AperFunction,HeatsinkPad*%
%ADD11O,1.000000X2.100000*%
%TD*%
%TA.AperFunction,HeatsinkPad*%
%ADD12O,1.000000X1.800000*%
%TD*%
%TA.AperFunction,ComponentPad*%
%ADD13R,1.700000X1.700000*%
%TD*%
%TA.AperFunction,ComponentPad*%
%ADD14C,1.700000*%
%TD*%
%TA.AperFunction,ComponentPad*%
%ADD15C,2.540000*%
%TD*%
%TA.AperFunction,ViaPad*%
%ADD16C,0.600000*%
%TD*%
G04 APERTURE END LIST*
D10*
X107750000Y-34750000D02*
X207750000Y-34750000D01*
X207750000Y-134750000D01*
X107750000Y-134750000D01*
X107750000Y-34750000D01*
D11*
%TO.N,GND*%
%TO.C,J3*%
X62227500Y-111715000D03*
D12*
X62227500Y-115915000D03*
D11*
X70867500Y-111715000D03*
D12*
X70867500Y-115915000D03*
%TD*%
D13*
%TO.N,VDDA_3V3*%
%TO.C,J2*%
X71427500Y-121840000D03*
D14*
%TO.N,NRST*%
X73967500Y-121840000D03*
%TO.N,SWO*%
X71427500Y-124380000D03*
%TO.N,SWCLK*%
X73967500Y-124380000D03*
%TO.N,SWDIO*%
X71427500Y-126920000D03*
%TO.N,GND*%
X73967500Y-126920000D03*
%TD*%
D13*
%TO.N,PPS_5V*%
%TO.C,J1*%
X79477500Y-111760000D03*
D14*
%TO.N,GND*%
X79477500Y-114300000D03*
%TD*%
D15*
%TO.N,OCXO_Out*%
%TO.C,OSC5A2B1*%
X180975000Y-47975000D03*
%TO.N,GND*%
X180975000Y-57500000D03*
%TO.N,Net-(OSC5A2B1-Vref)*%
X180975000Y-67025000D03*
%TO.N,unconnected-(OSC5A2B1-NC-Pad4)*%
X200025000Y-67025000D03*
%TO.N,VCC_5V*%
X200025000Y-47975000D03*
%TD*%
D16*
%TO.N,GND*%
X116500000Y-79000000D03*
%TD*%
%TA.AperFunction,Conductor*%
%TO.N,GND*%
G36*
X205880778Y-35357081D02*
G01*
X205955797Y-35382546D01*
X206007481Y-35400091D01*
X206022458Y-35406294D01*
X206231799Y-35509529D01*
X206242460Y-35514787D01*
X206256508Y-35522897D01*
X206460464Y-35659177D01*
X206473328Y-35669048D01*
X206657749Y-35830781D01*
X206669218Y-35842250D01*
X206830951Y-36026671D01*
X206840825Y-36039539D01*
X206977102Y-36243492D01*
X206985212Y-36257539D01*
X207093702Y-36477534D01*
X207099909Y-36492519D01*
X207142919Y-36619221D01*
X207149500Y-36659080D01*
X207149500Y-132840918D01*
X207148944Y-132844282D01*
X207149392Y-132846081D01*
X207142919Y-132880777D01*
X207099909Y-133007480D01*
X207093702Y-133022465D01*
X206985212Y-133242460D01*
X206977102Y-133256507D01*
X206840825Y-133460460D01*
X206830951Y-133473328D01*
X206669218Y-133657749D01*
X206657749Y-133669218D01*
X206473328Y-133830951D01*
X206460460Y-133840825D01*
X206256507Y-133977102D01*
X206242460Y-133985212D01*
X206022465Y-134093702D01*
X206007480Y-134099909D01*
X205880779Y-134142919D01*
X205840920Y-134149500D01*
X109659080Y-134149500D01*
X109655714Y-134148944D01*
X109653916Y-134149392D01*
X109619221Y-134142919D01*
X109492519Y-134099909D01*
X109477534Y-134093702D01*
X109257539Y-133985212D01*
X109243492Y-133977102D01*
X109039539Y-133840825D01*
X109026671Y-133830951D01*
X108842250Y-133669218D01*
X108830781Y-133657749D01*
X108669048Y-133473328D01*
X108659174Y-133460460D01*
X108522897Y-133256507D01*
X108514787Y-133242460D01*
X108509529Y-133231799D01*
X108406294Y-133022458D01*
X108400095Y-133007495D01*
X108357079Y-132880774D01*
X108350500Y-132840918D01*
X108350500Y-66908947D01*
X179204500Y-66908947D01*
X179204500Y-67141052D01*
X179234794Y-67371148D01*
X179294862Y-67595328D01*
X179383677Y-67809745D01*
X179383685Y-67809762D01*
X179499720Y-68010743D01*
X179499721Y-68010745D01*
X179641009Y-68194875D01*
X179641015Y-68194882D01*
X179805117Y-68358984D01*
X179805124Y-68358990D01*
X179989254Y-68500278D01*
X179989256Y-68500279D01*
X180190237Y-68616314D01*
X180190240Y-68616315D01*
X180190248Y-68616320D01*
X180404670Y-68705137D01*
X180628851Y-68765206D01*
X180858955Y-68795500D01*
X180858962Y-68795500D01*
X181091038Y-68795500D01*
X181091045Y-68795500D01*
X181321149Y-68765206D01*
X181545330Y-68705137D01*
X181759752Y-68616320D01*
X181960748Y-68500276D01*
X182144877Y-68358989D01*
X182308989Y-68194877D01*
X182450276Y-68010748D01*
X182566320Y-67809752D01*
X182655137Y-67595330D01*
X182715206Y-67371149D01*
X182745500Y-67141045D01*
X182745500Y-66908955D01*
X182745499Y-66908947D01*
X198254500Y-66908947D01*
X198254500Y-67141052D01*
X198284794Y-67371148D01*
X198344862Y-67595328D01*
X198433677Y-67809745D01*
X198433685Y-67809762D01*
X198549720Y-68010743D01*
X198549721Y-68010745D01*
X198691009Y-68194875D01*
X198691015Y-68194882D01*
X198855117Y-68358984D01*
X198855124Y-68358990D01*
X199039254Y-68500278D01*
X199039256Y-68500279D01*
X199240237Y-68616314D01*
X199240240Y-68616315D01*
X199240248Y-68616320D01*
X199454670Y-68705137D01*
X199678851Y-68765206D01*
X199908955Y-68795500D01*
X199908962Y-68795500D01*
X200141038Y-68795500D01*
X200141045Y-68795500D01*
X200371149Y-68765206D01*
X200595330Y-68705137D01*
X200809752Y-68616320D01*
X201010748Y-68500276D01*
X201194877Y-68358989D01*
X201358989Y-68194877D01*
X201500276Y-68010748D01*
X201616320Y-67809752D01*
X201705137Y-67595330D01*
X201765206Y-67371149D01*
X201795500Y-67141045D01*
X201795500Y-66908955D01*
X201765206Y-66678851D01*
X201705137Y-66454670D01*
X201616320Y-66240248D01*
X201616314Y-66240237D01*
X201500279Y-66039256D01*
X201500278Y-66039254D01*
X201358990Y-65855124D01*
X201358984Y-65855117D01*
X201194882Y-65691015D01*
X201194875Y-65691009D01*
X201010745Y-65549721D01*
X201010743Y-65549720D01*
X200809762Y-65433685D01*
X200809754Y-65433681D01*
X200809752Y-65433680D01*
X200595330Y-65344863D01*
X200595331Y-65344863D01*
X200595328Y-65344862D01*
X200453203Y-65306780D01*
X200371149Y-65284794D01*
X200342386Y-65281007D01*
X200141052Y-65254500D01*
X200141045Y-65254500D01*
X199908955Y-65254500D01*
X199908947Y-65254500D01*
X199678851Y-65284794D01*
X199454671Y-65344862D01*
X199240254Y-65433677D01*
X199240237Y-65433685D01*
X199039256Y-65549720D01*
X199039254Y-65549721D01*
X198855124Y-65691009D01*
X198855117Y-65691015D01*
X198691015Y-65855117D01*
X198691009Y-65855124D01*
X198549721Y-66039254D01*
X198549720Y-66039256D01*
X198433685Y-66240237D01*
X198433677Y-66240254D01*
X198344862Y-66454671D01*
X198284794Y-66678851D01*
X198254500Y-66908947D01*
X182745499Y-66908947D01*
X182715206Y-66678851D01*
X182655137Y-66454670D01*
X182566320Y-66240248D01*
X182566314Y-66240237D01*
X182450279Y-66039256D01*
X182450278Y-66039254D01*
X182308990Y-65855124D01*
X182308984Y-65855117D01*
X182144882Y-65691015D01*
X182144875Y-65691009D01*
X181960745Y-65549721D01*
X181960743Y-65549720D01*
X181759762Y-65433685D01*
X181759754Y-65433681D01*
X181759752Y-65433680D01*
X181545330Y-65344863D01*
X181545331Y-65344863D01*
X181545328Y-65344862D01*
X181403203Y-65306780D01*
X181321149Y-65284794D01*
X181292386Y-65281007D01*
X181091052Y-65254500D01*
X181091045Y-65254500D01*
X180858955Y-65254500D01*
X180858947Y-65254500D01*
X180628851Y-65284794D01*
X180404671Y-65344862D01*
X180190254Y-65433677D01*
X180190237Y-65433685D01*
X179989256Y-65549720D01*
X179989254Y-65549721D01*
X179805124Y-65691009D01*
X179805117Y-65691015D01*
X179641015Y-65855117D01*
X179641009Y-65855124D01*
X179499721Y-66039254D01*
X179499720Y-66039256D01*
X179383685Y-66240237D01*
X179383677Y-66240254D01*
X179294862Y-66454671D01*
X179234794Y-66678851D01*
X179204500Y-66908947D01*
X108350500Y-66908947D01*
X108350500Y-57383994D01*
X179205000Y-57383994D01*
X179205000Y-57616005D01*
X179205001Y-57616022D01*
X179235283Y-57846040D01*
X179235286Y-57846053D01*
X179295336Y-58070167D01*
X179384124Y-58284521D01*
X179384132Y-58284538D01*
X179500136Y-58485461D01*
X179500142Y-58485469D01*
X179559117Y-58562327D01*
X180575000Y-57546445D01*
X180575000Y-57552661D01*
X180602259Y-57654394D01*
X180654920Y-57745606D01*
X180729394Y-57820080D01*
X180820606Y-57872741D01*
X180922339Y-57900000D01*
X180928554Y-57900000D01*
X179912671Y-58915881D01*
X179989530Y-58974857D01*
X179989538Y-58974863D01*
X180190461Y-59090867D01*
X180190478Y-59090875D01*
X180404832Y-59179663D01*
X180628946Y-59239713D01*
X180628959Y-59239716D01*
X180858977Y-59269998D01*
X180858995Y-59270000D01*
X181091005Y-59270000D01*
X181091022Y-59269998D01*
X181321040Y-59239716D01*
X181321053Y-59239713D01*
X181545167Y-59179663D01*
X181759521Y-59090875D01*
X181759538Y-59090867D01*
X181960475Y-58974855D01*
X182037327Y-58915883D01*
X182037327Y-58915880D01*
X181021446Y-57900000D01*
X181027661Y-57900000D01*
X181129394Y-57872741D01*
X181220606Y-57820080D01*
X181295080Y-57745606D01*
X181347741Y-57654394D01*
X181375000Y-57552661D01*
X181375000Y-57546447D01*
X182390880Y-58562327D01*
X182390883Y-58562327D01*
X182449855Y-58485475D01*
X182565867Y-58284538D01*
X182565875Y-58284521D01*
X182654663Y-58070167D01*
X182714713Y-57846053D01*
X182714716Y-57846040D01*
X182744998Y-57616022D01*
X182745000Y-57616005D01*
X182745000Y-57383994D01*
X182744998Y-57383977D01*
X182714716Y-57153959D01*
X182714713Y-57153946D01*
X182654663Y-56929832D01*
X182565875Y-56715478D01*
X182565867Y-56715461D01*
X182449863Y-56514538D01*
X182449857Y-56514530D01*
X182390881Y-56437671D01*
X181375000Y-57453552D01*
X181375000Y-57447339D01*
X181347741Y-57345606D01*
X181295080Y-57254394D01*
X181220606Y-57179920D01*
X181129394Y-57127259D01*
X181027661Y-57100000D01*
X181021447Y-57100000D01*
X182037327Y-56084117D01*
X181960469Y-56025142D01*
X181960461Y-56025136D01*
X181759538Y-55909132D01*
X181759521Y-55909124D01*
X181545167Y-55820336D01*
X181321053Y-55760286D01*
X181321040Y-55760283D01*
X181091022Y-55730001D01*
X181091005Y-55730000D01*
X180858995Y-55730000D01*
X180858977Y-55730001D01*
X180628959Y-55760283D01*
X180628946Y-55760286D01*
X180404832Y-55820336D01*
X180190478Y-55909124D01*
X180190461Y-55909132D01*
X179989541Y-56025134D01*
X179989533Y-56025140D01*
X179912671Y-56084116D01*
X179912671Y-56084117D01*
X180928554Y-57100000D01*
X180922339Y-57100000D01*
X180820606Y-57127259D01*
X180729394Y-57179920D01*
X180654920Y-57254394D01*
X180602259Y-57345606D01*
X180575000Y-57447339D01*
X180575000Y-57453553D01*
X179559117Y-56437671D01*
X179559116Y-56437671D01*
X179500140Y-56514533D01*
X179500134Y-56514541D01*
X179384132Y-56715461D01*
X179384124Y-56715478D01*
X179295336Y-56929832D01*
X179235286Y-57153946D01*
X179235283Y-57153959D01*
X179205001Y-57383977D01*
X179205000Y-57383994D01*
X108350500Y-57383994D01*
X108350500Y-47858947D01*
X179204500Y-47858947D01*
X179204500Y-48091052D01*
X179234794Y-48321148D01*
X179294862Y-48545328D01*
X179383677Y-48759745D01*
X179383685Y-48759762D01*
X179499720Y-48960743D01*
X179499721Y-48960745D01*
X179641009Y-49144875D01*
X179641015Y-49144882D01*
X179805117Y-49308984D01*
X179805124Y-49308990D01*
X179989254Y-49450278D01*
X179989256Y-49450279D01*
X180190237Y-49566314D01*
X180190240Y-49566315D01*
X180190248Y-49566320D01*
X180404670Y-49655137D01*
X180628851Y-49715206D01*
X180858955Y-49745500D01*
X180858962Y-49745500D01*
X181091038Y-49745500D01*
X181091045Y-49745500D01*
X181321149Y-49715206D01*
X181545330Y-49655137D01*
X181759752Y-49566320D01*
X181960748Y-49450276D01*
X182144877Y-49308989D01*
X182308989Y-49144877D01*
X182450276Y-48960748D01*
X182566320Y-48759752D01*
X182655137Y-48545330D01*
X182715206Y-48321149D01*
X182745500Y-48091045D01*
X182745500Y-47858955D01*
X182745499Y-47858947D01*
X198254500Y-47858947D01*
X198254500Y-48091052D01*
X198284794Y-48321148D01*
X198344862Y-48545328D01*
X198433677Y-48759745D01*
X198433685Y-48759762D01*
X198549720Y-48960743D01*
X198549721Y-48960745D01*
X198691009Y-49144875D01*
X198691015Y-49144882D01*
X198855117Y-49308984D01*
X198855124Y-49308990D01*
X199039254Y-49450278D01*
X199039256Y-49450279D01*
X199240237Y-49566314D01*
X199240240Y-49566315D01*
X199240248Y-49566320D01*
X199454670Y-49655137D01*
X199678851Y-49715206D01*
X199908955Y-49745500D01*
X199908962Y-49745500D01*
X200141038Y-49745500D01*
X200141045Y-49745500D01*
X200371149Y-49715206D01*
X200595330Y-49655137D01*
X200809752Y-49566320D01*
X201010748Y-49450276D01*
X201194877Y-49308989D01*
X201358989Y-49144877D01*
X201500276Y-48960748D01*
X201616320Y-48759752D01*
X201705137Y-48545330D01*
X201765206Y-48321149D01*
X201795500Y-48091045D01*
X201795500Y-47858955D01*
X201765206Y-47628851D01*
X201705137Y-47404670D01*
X201616320Y-47190248D01*
X201616314Y-47190237D01*
X201500279Y-46989256D01*
X201500278Y-46989254D01*
X201358990Y-46805124D01*
X201358984Y-46805117D01*
X201194882Y-46641015D01*
X201194875Y-46641009D01*
X201010745Y-46499721D01*
X201010743Y-46499720D01*
X200809762Y-46383685D01*
X200809754Y-46383681D01*
X200809752Y-46383680D01*
X200595330Y-46294863D01*
X200595331Y-46294863D01*
X200595328Y-46294862D01*
X200453203Y-46256780D01*
X200371149Y-46234794D01*
X200342386Y-46231007D01*
X200141052Y-46204500D01*
X200141045Y-46204500D01*
X199908955Y-46204500D01*
X199908947Y-46204500D01*
X199678851Y-46234794D01*
X199454671Y-46294862D01*
X199240254Y-46383677D01*
X199240237Y-46383685D01*
X199039256Y-46499720D01*
X199039254Y-46499721D01*
X198855124Y-46641009D01*
X198855117Y-46641015D01*
X198691015Y-46805117D01*
X198691009Y-46805124D01*
X198549721Y-46989254D01*
X198549720Y-46989256D01*
X198433685Y-47190237D01*
X198433677Y-47190254D01*
X198344862Y-47404671D01*
X198284794Y-47628851D01*
X198254500Y-47858947D01*
X182745499Y-47858947D01*
X182715206Y-47628851D01*
X182655137Y-47404670D01*
X182566320Y-47190248D01*
X182566314Y-47190237D01*
X182450279Y-46989256D01*
X182450278Y-46989254D01*
X182308990Y-46805124D01*
X182308984Y-46805117D01*
X182144882Y-46641015D01*
X182144875Y-46641009D01*
X181960745Y-46499721D01*
X181960743Y-46499720D01*
X181759762Y-46383685D01*
X181759754Y-46383681D01*
X181759752Y-46383680D01*
X181545330Y-46294863D01*
X181545331Y-46294863D01*
X181545328Y-46294862D01*
X181403203Y-46256780D01*
X181321149Y-46234794D01*
X181292386Y-46231007D01*
X181091052Y-46204500D01*
X181091045Y-46204500D01*
X180858955Y-46204500D01*
X180858947Y-46204500D01*
X180628851Y-46234794D01*
X180404671Y-46294862D01*
X180190254Y-46383677D01*
X180190237Y-46383685D01*
X179989256Y-46499720D01*
X179989254Y-46499721D01*
X179805124Y-46641009D01*
X179805117Y-46641015D01*
X179641015Y-46805117D01*
X179641009Y-46805124D01*
X179499721Y-46989254D01*
X179499720Y-46989256D01*
X179383685Y-47190237D01*
X179383677Y-47190254D01*
X179294862Y-47404671D01*
X179234794Y-47628851D01*
X179204500Y-47858947D01*
X108350500Y-47858947D01*
X108350500Y-36659080D01*
X108351055Y-36655715D01*
X108350608Y-36653917D01*
X108357081Y-36619222D01*
X108372197Y-36574690D01*
X108400093Y-36492512D01*
X108406291Y-36477547D01*
X108514790Y-36257533D01*
X108522893Y-36243498D01*
X108659182Y-36039527D01*
X108669039Y-36026681D01*
X108830786Y-35842244D01*
X108842244Y-35830786D01*
X109026681Y-35669039D01*
X109039527Y-35659182D01*
X109243498Y-35522893D01*
X109257533Y-35514790D01*
X109477547Y-35406291D01*
X109492512Y-35400093D01*
X109574690Y-35372197D01*
X109619222Y-35357081D01*
X109659080Y-35350500D01*
X205840920Y-35350500D01*
X205880778Y-35357081D01*
G37*
%TD.AperFunction*%
%TD*%
M02*
