M48
; DRILL file {KiCad 9.0.4} date 2025-10-01T21:18:34+0200
; FORMAT={-:-/ absolute / metric / decimal}
; #@! TF.CreationDate,2025-10-01T21:18:34+02:00
; #@! TF.GenerationSoftware,Kicad,Pcbnew,9.0.4
; #@! TF.FileFunction,Plated,1,4,PTH
FMAT,2
METRIC
; #@! TA.AperFunction,Plated,PTH,ViaDrill
T1C0.300
; #@! TA.AperFunction,Plated,PTH,ComponentDrill
T2C0.300
; #@! TA.AperFunction,Plated,PTH,ComponentDrill
T3C0.600
; #@! TA.AperFunction,Plated,PTH,ComponentDrill
T4C0.800
; #@! TA.AperFunction,Plated,PTH,ComponentDrill
T5C1.000
; #@! TA.AperFunction,Plated,PTH,ComponentDrill
T6C3.200
%
G90
G05
T1
X110.4Y-76.4
X114.25Y-121.25
X117.8Y-78.2
X118.75Y-122.0
X119.0Y-110.713
X119.0Y-111.75
X119.0Y-112.75
X119.0Y-113.55
X119.25Y-84.75
X120.75Y-99.75
X121.0Y-94.25
X121.0Y-123.5
X122.75Y-87.25
X123.5Y-99.75
X123.75Y-87.25
X124.5Y-90.5
X125.0Y-70.75
X125.75Y-81.0
X125.75Y-82.5
X125.75Y-84.85
X126.25Y-95.75
X126.25Y-118.0
X126.75Y-125.75
X127.5Y-107.75
X127.75Y-70.75
X127.85Y-92.0
X128.0Y-95.5
X128.0Y-125.75
X128.5Y-114.979
X128.5Y-115.979
X130.25Y-111.25
X130.688Y-87.115
X130.75Y-116.0
X131.0Y-77.25
X132.25Y-81.5
X132.25Y-116.0
X132.75Y-78.25
X132.9Y-93.625
X133.0Y-92.0
X133.25Y-81.5
X134.0Y-114.0
X135.25Y-110.0
X136.25Y-88.65
X136.25Y-111.75
X136.682Y-82.182
X138.0Y-74.25
X138.0Y-83.25
X138.75Y-86.25
X140.0Y-88.0
X140.0Y-89.25
X140.625Y-120.75
X140.75Y-84.25
X140.75Y-117.75
X142.0Y-74.25
X142.0Y-77.75
X143.5Y-77.75
X143.537Y-74.25
X145.545Y-91.495
X147.5Y-74.25
X149.169Y-91.5
X151.25Y-68.75
X151.25Y-69.5
X151.25Y-70.25
X151.25Y-71.0
X151.25Y-71.75
X152.0Y-68.75
X152.419Y-91.5
X152.75Y-68.75
X152.795Y-84.245
X153.0Y-79.25
X153.5Y-68.75
X154.25Y-68.75
X155.25Y-77.75
X156.545Y-90.995
X159.0Y-68.75
X159.0Y-77.75
X159.75Y-68.75
X159.75Y-77.75
X160.5Y-68.75
X160.5Y-77.75
X160.75Y-91.5
X161.25Y-68.75
X161.25Y-77.75
X162.0Y-68.75
X162.0Y-69.5
X162.0Y-77.0
X162.0Y-77.75
X162.75Y-68.75
X162.75Y-69.5
X162.75Y-70.25
X162.75Y-76.25
X162.75Y-77.0
X162.75Y-77.75
X163.5Y-68.75
X163.5Y-69.5
X163.5Y-70.25
X163.5Y-76.25
X163.5Y-77.0
X163.5Y-77.75
X164.0Y-91.5
X165.5Y-72.0
X165.5Y-72.75
X165.5Y-73.5
X165.5Y-74.25
X166.0Y-88.0
X166.5Y-82.25
X168.25Y-98.75
X169.407Y-102.093
X171.5Y-83.0
X171.5Y-88.5
T2
X113.75Y-113.55
X113.75Y-114.75
X128.0Y-96.4
X129.2Y-96.4
X170.625Y-78.5
X170.625Y-79.7
T4
X145.45Y-102.225
X145.45Y-111.75
X145.45Y-121.275
X164.5Y-102.225
X164.5Y-121.275
T5
X111.25Y-89.277
X111.25Y-91.817
X111.25Y-94.358
X111.25Y-98.475
X111.25Y-101.015
X113.79Y-89.277
X113.79Y-91.817
X113.79Y-94.358
X122.5Y-68.25
X125.04Y-68.25
X127.58Y-68.25
T6
X112.75Y-69.75
X112.75Y-129.75
X172.75Y-69.25
X172.75Y-129.75
T3
X138.43Y-68.2G85X138.43Y-67.4
G05
X138.43Y-72.55G85X138.43Y-71.45
G05
X147.07Y-68.2G85X147.07Y-67.4
G05
X147.07Y-72.55G85X147.07Y-71.45
G05
M30
