%TF.GenerationSoftware,KiCad,Pcbnew,9.0.4*%
%TF.CreationDate,2025-10-01T21:18:34+02:00*%
%TF.ProjectId,gpsdo,67707364-6f2e-46b6-9963-61645f706362,rev?*%
%TF.SameCoordinates,Original*%
%TF.FileFunction,Drillmap*%
%TF.FilePolarity,Positive*%
%FSLAX45Y45*%
G04 Gerber Fmt 4.5, Leading zero omitted, Abs format (unit mm)*
G04 Created by KiCad (PCBNEW 9.0.4) date 2025-10-01 21:18:34*
%MOMM*%
%LPD*%
G01*
G04 APERTURE LIST*
%ADD10C,0.050000*%
%ADD11C,0.200000*%
%ADD12C,0.100000*%
G04 APERTURE END LIST*
D10*
X10775000Y-6975000D02*
G75*
G02*
X11275000Y-6475000I500000J0D01*
G01*
X11275000Y-6475000D02*
X17275000Y-6475000D01*
X11275000Y-13475000D02*
X17275000Y-13475000D01*
X14200000Y-12725000D02*
G75*
G02*
X13975000Y-12500000I0J225000D01*
G01*
X16800000Y-9425000D02*
G75*
G02*
X17275000Y-9900000I0J-475000D01*
G01*
X16800000Y-9675000D02*
G75*
G02*
X17025000Y-9900000I0J-225000D01*
G01*
X17025000Y-11500000D02*
G75*
G02*
X17275000Y-11500000I125000J0D01*
G01*
X15825000Y-9675000D02*
G75*
G02*
X15825000Y-9425000I0J125000D01*
G01*
X17025000Y-12000000D02*
X17025000Y-11500000D01*
X15825000Y-12975000D02*
X16325000Y-12975000D01*
X16800000Y-9425000D02*
X15825000Y-9425000D01*
X15825000Y-12725000D02*
X16325000Y-12725000D01*
X13725000Y-11500000D02*
G75*
G02*
X13975000Y-11500000I125000J0D01*
G01*
X14200000Y-12725000D02*
X15175000Y-12725000D01*
X15175000Y-12725000D02*
G75*
G02*
X15175000Y-12975000I0J-125000D01*
G01*
X17275000Y-10900000D02*
G75*
G02*
X17025000Y-10900000I-125000J0D01*
G01*
X14200000Y-9425000D02*
X15200000Y-9425000D01*
X11275000Y-13475000D02*
G75*
G02*
X10775000Y-12975000I0J500000D01*
G01*
X17025000Y-9900000D02*
X17025000Y-10900000D01*
X17775000Y-12975000D02*
X17775000Y-6975000D01*
X16325000Y-12725000D02*
G75*
G02*
X16325000Y-12975000I0J-125000D01*
G01*
X13975000Y-9900000D02*
X13975000Y-10875000D01*
X13725000Y-9900000D02*
G75*
G02*
X14200000Y-9425000I475000J0D01*
G01*
X13975000Y-12500000D02*
X13975000Y-11500000D01*
X10775000Y-6975000D02*
X10775000Y-12975000D01*
X14200000Y-12975000D02*
G75*
G02*
X13725000Y-12500000I0J475000D01*
G01*
X17275000Y-9900000D02*
X17275000Y-10900000D01*
X15825000Y-12975000D02*
G75*
G02*
X15825000Y-12725000I0J125000D01*
G01*
X14200000Y-12975000D02*
X15175000Y-12975000D01*
X13975000Y-10875000D02*
G75*
G02*
X13725000Y-10875000I-125000J0D01*
G01*
X17775000Y-12975000D02*
G75*
G02*
X17275000Y-13475000I-500000J0D01*
G01*
X17275000Y-12000000D02*
G75*
G02*
X17025000Y-12000000I-125000J0D01*
G01*
X13725000Y-12500000D02*
X13725000Y-11500000D01*
X13975000Y-9900000D02*
G75*
G02*
X14200000Y-9675000I225000J0D01*
G01*
X16800000Y-9675000D02*
X15825000Y-9675000D01*
X13725000Y-9900000D02*
X13725000Y-10875000D01*
X14200000Y-9675000D02*
X15200000Y-9675000D01*
X17275000Y-12000000D02*
X17275000Y-11500000D01*
X15200000Y-9425000D02*
G75*
G02*
X15200000Y-9675000I0J-125000D01*
G01*
X17275000Y-6475000D02*
G75*
G02*
X17775000Y-6975000I0J-500000D01*
G01*
D11*
D12*
X13953500Y-7115500D02*
X14018500Y-7180500D01*
X14018500Y-7115500D02*
X13953500Y-7180500D01*
X14531500Y-7115500D02*
X14596500Y-7180500D01*
X14596500Y-7115500D02*
X14531500Y-7180500D01*
D11*
X11033277Y-13788984D02*
X11033277Y-13588984D01*
X11033277Y-13588984D02*
X11080896Y-13588984D01*
X11080896Y-13588984D02*
X11109467Y-13598508D01*
X11109467Y-13598508D02*
X11128515Y-13617555D01*
X11128515Y-13617555D02*
X11138039Y-13636603D01*
X11138039Y-13636603D02*
X11147563Y-13674698D01*
X11147563Y-13674698D02*
X11147563Y-13703269D01*
X11147563Y-13703269D02*
X11138039Y-13741365D01*
X11138039Y-13741365D02*
X11128515Y-13760412D01*
X11128515Y-13760412D02*
X11109467Y-13779460D01*
X11109467Y-13779460D02*
X11080896Y-13788984D01*
X11080896Y-13788984D02*
X11033277Y-13788984D01*
X11233277Y-13788984D02*
X11233277Y-13655650D01*
X11233277Y-13693746D02*
X11242801Y-13674698D01*
X11242801Y-13674698D02*
X11252324Y-13665174D01*
X11252324Y-13665174D02*
X11271372Y-13655650D01*
X11271372Y-13655650D02*
X11290420Y-13655650D01*
X11357086Y-13788984D02*
X11357086Y-13655650D01*
X11357086Y-13588984D02*
X11347562Y-13598508D01*
X11347562Y-13598508D02*
X11357086Y-13608031D01*
X11357086Y-13608031D02*
X11366610Y-13598508D01*
X11366610Y-13598508D02*
X11357086Y-13588984D01*
X11357086Y-13588984D02*
X11357086Y-13608031D01*
X11480896Y-13788984D02*
X11461848Y-13779460D01*
X11461848Y-13779460D02*
X11452324Y-13760412D01*
X11452324Y-13760412D02*
X11452324Y-13588984D01*
X11585658Y-13788984D02*
X11566610Y-13779460D01*
X11566610Y-13779460D02*
X11557086Y-13760412D01*
X11557086Y-13760412D02*
X11557086Y-13588984D01*
X11814229Y-13788984D02*
X11814229Y-13588984D01*
X11814229Y-13588984D02*
X11880896Y-13731841D01*
X11880896Y-13731841D02*
X11947562Y-13588984D01*
X11947562Y-13588984D02*
X11947562Y-13788984D01*
X12128515Y-13788984D02*
X12128515Y-13684222D01*
X12128515Y-13684222D02*
X12118991Y-13665174D01*
X12118991Y-13665174D02*
X12099943Y-13655650D01*
X12099943Y-13655650D02*
X12061848Y-13655650D01*
X12061848Y-13655650D02*
X12042801Y-13665174D01*
X12128515Y-13779460D02*
X12109467Y-13788984D01*
X12109467Y-13788984D02*
X12061848Y-13788984D01*
X12061848Y-13788984D02*
X12042801Y-13779460D01*
X12042801Y-13779460D02*
X12033277Y-13760412D01*
X12033277Y-13760412D02*
X12033277Y-13741365D01*
X12033277Y-13741365D02*
X12042801Y-13722317D01*
X12042801Y-13722317D02*
X12061848Y-13712793D01*
X12061848Y-13712793D02*
X12109467Y-13712793D01*
X12109467Y-13712793D02*
X12128515Y-13703269D01*
X12223753Y-13655650D02*
X12223753Y-13855650D01*
X12223753Y-13665174D02*
X12242801Y-13655650D01*
X12242801Y-13655650D02*
X12280896Y-13655650D01*
X12280896Y-13655650D02*
X12299943Y-13665174D01*
X12299943Y-13665174D02*
X12309467Y-13674698D01*
X12309467Y-13674698D02*
X12318991Y-13693746D01*
X12318991Y-13693746D02*
X12318991Y-13750888D01*
X12318991Y-13750888D02*
X12309467Y-13769936D01*
X12309467Y-13769936D02*
X12299943Y-13779460D01*
X12299943Y-13779460D02*
X12280896Y-13788984D01*
X12280896Y-13788984D02*
X12242801Y-13788984D01*
X12242801Y-13788984D02*
X12223753Y-13779460D01*
X12404705Y-13769936D02*
X12414229Y-13779460D01*
X12414229Y-13779460D02*
X12404705Y-13788984D01*
X12404705Y-13788984D02*
X12395182Y-13779460D01*
X12395182Y-13779460D02*
X12404705Y-13769936D01*
X12404705Y-13769936D02*
X12404705Y-13788984D01*
X12404705Y-13665174D02*
X12414229Y-13674698D01*
X12414229Y-13674698D02*
X12404705Y-13684222D01*
X12404705Y-13684222D02*
X12395182Y-13674698D01*
X12395182Y-13674698D02*
X12404705Y-13665174D01*
X12404705Y-13665174D02*
X12404705Y-13684222D01*
D12*
X10707500Y-14085000D02*
X10772500Y-14150000D01*
X10772500Y-14085000D02*
X10707500Y-14150000D01*
D11*
X11071372Y-14008984D02*
X11090420Y-14008984D01*
X11090420Y-14008984D02*
X11109467Y-14018508D01*
X11109467Y-14018508D02*
X11118991Y-14028031D01*
X11118991Y-14028031D02*
X11128515Y-14047079D01*
X11128515Y-14047079D02*
X11138039Y-14085174D01*
X11138039Y-14085174D02*
X11138039Y-14132793D01*
X11138039Y-14132793D02*
X11128515Y-14170888D01*
X11128515Y-14170888D02*
X11118991Y-14189936D01*
X11118991Y-14189936D02*
X11109467Y-14199460D01*
X11109467Y-14199460D02*
X11090420Y-14208984D01*
X11090420Y-14208984D02*
X11071372Y-14208984D01*
X11071372Y-14208984D02*
X11052324Y-14199460D01*
X11052324Y-14199460D02*
X11042801Y-14189936D01*
X11042801Y-14189936D02*
X11033277Y-14170888D01*
X11033277Y-14170888D02*
X11023753Y-14132793D01*
X11023753Y-14132793D02*
X11023753Y-14085174D01*
X11023753Y-14085174D02*
X11033277Y-14047079D01*
X11033277Y-14047079D02*
X11042801Y-14028031D01*
X11042801Y-14028031D02*
X11052324Y-14018508D01*
X11052324Y-14018508D02*
X11071372Y-14008984D01*
X11223753Y-14189936D02*
X11233277Y-14199460D01*
X11233277Y-14199460D02*
X11223753Y-14208984D01*
X11223753Y-14208984D02*
X11214229Y-14199460D01*
X11214229Y-14199460D02*
X11223753Y-14189936D01*
X11223753Y-14189936D02*
X11223753Y-14208984D01*
X11404705Y-14008984D02*
X11366610Y-14008984D01*
X11366610Y-14008984D02*
X11347562Y-14018508D01*
X11347562Y-14018508D02*
X11338039Y-14028031D01*
X11338039Y-14028031D02*
X11318991Y-14056603D01*
X11318991Y-14056603D02*
X11309467Y-14094698D01*
X11309467Y-14094698D02*
X11309467Y-14170888D01*
X11309467Y-14170888D02*
X11318991Y-14189936D01*
X11318991Y-14189936D02*
X11328515Y-14199460D01*
X11328515Y-14199460D02*
X11347562Y-14208984D01*
X11347562Y-14208984D02*
X11385658Y-14208984D01*
X11385658Y-14208984D02*
X11404705Y-14199460D01*
X11404705Y-14199460D02*
X11414229Y-14189936D01*
X11414229Y-14189936D02*
X11423753Y-14170888D01*
X11423753Y-14170888D02*
X11423753Y-14123269D01*
X11423753Y-14123269D02*
X11414229Y-14104222D01*
X11414229Y-14104222D02*
X11404705Y-14094698D01*
X11404705Y-14094698D02*
X11385658Y-14085174D01*
X11385658Y-14085174D02*
X11347562Y-14085174D01*
X11347562Y-14085174D02*
X11328515Y-14094698D01*
X11328515Y-14094698D02*
X11318991Y-14104222D01*
X11318991Y-14104222D02*
X11309467Y-14123269D01*
X11604705Y-14008984D02*
X11509467Y-14008984D01*
X11509467Y-14008984D02*
X11499943Y-14104222D01*
X11499943Y-14104222D02*
X11509467Y-14094698D01*
X11509467Y-14094698D02*
X11528515Y-14085174D01*
X11528515Y-14085174D02*
X11576134Y-14085174D01*
X11576134Y-14085174D02*
X11595182Y-14094698D01*
X11595182Y-14094698D02*
X11604705Y-14104222D01*
X11604705Y-14104222D02*
X11614229Y-14123269D01*
X11614229Y-14123269D02*
X11614229Y-14170888D01*
X11614229Y-14170888D02*
X11604705Y-14189936D01*
X11604705Y-14189936D02*
X11595182Y-14199460D01*
X11595182Y-14199460D02*
X11576134Y-14208984D01*
X11576134Y-14208984D02*
X11528515Y-14208984D01*
X11528515Y-14208984D02*
X11509467Y-14199460D01*
X11509467Y-14199460D02*
X11499943Y-14189936D01*
X11738039Y-14008984D02*
X11757086Y-14008984D01*
X11757086Y-14008984D02*
X11776134Y-14018508D01*
X11776134Y-14018508D02*
X11785658Y-14028031D01*
X11785658Y-14028031D02*
X11795182Y-14047079D01*
X11795182Y-14047079D02*
X11804705Y-14085174D01*
X11804705Y-14085174D02*
X11804705Y-14132793D01*
X11804705Y-14132793D02*
X11795182Y-14170888D01*
X11795182Y-14170888D02*
X11785658Y-14189936D01*
X11785658Y-14189936D02*
X11776134Y-14199460D01*
X11776134Y-14199460D02*
X11757086Y-14208984D01*
X11757086Y-14208984D02*
X11738039Y-14208984D01*
X11738039Y-14208984D02*
X11718991Y-14199460D01*
X11718991Y-14199460D02*
X11709467Y-14189936D01*
X11709467Y-14189936D02*
X11699943Y-14170888D01*
X11699943Y-14170888D02*
X11690420Y-14132793D01*
X11690420Y-14132793D02*
X11690420Y-14085174D01*
X11690420Y-14085174D02*
X11699943Y-14047079D01*
X11699943Y-14047079D02*
X11709467Y-14028031D01*
X11709467Y-14028031D02*
X11718991Y-14018508D01*
X11718991Y-14018508D02*
X11738039Y-14008984D01*
X11890420Y-14208984D02*
X11890420Y-14075650D01*
X11890420Y-14094698D02*
X11899943Y-14085174D01*
X11899943Y-14085174D02*
X11918991Y-14075650D01*
X11918991Y-14075650D02*
X11947563Y-14075650D01*
X11947563Y-14075650D02*
X11966610Y-14085174D01*
X11966610Y-14085174D02*
X11976134Y-14104222D01*
X11976134Y-14104222D02*
X11976134Y-14208984D01*
X11976134Y-14104222D02*
X11985658Y-14085174D01*
X11985658Y-14085174D02*
X12004705Y-14075650D01*
X12004705Y-14075650D02*
X12033277Y-14075650D01*
X12033277Y-14075650D02*
X12052324Y-14085174D01*
X12052324Y-14085174D02*
X12061848Y-14104222D01*
X12061848Y-14104222D02*
X12061848Y-14208984D01*
X12157086Y-14208984D02*
X12157086Y-14075650D01*
X12157086Y-14094698D02*
X12166610Y-14085174D01*
X12166610Y-14085174D02*
X12185658Y-14075650D01*
X12185658Y-14075650D02*
X12214229Y-14075650D01*
X12214229Y-14075650D02*
X12233277Y-14085174D01*
X12233277Y-14085174D02*
X12242801Y-14104222D01*
X12242801Y-14104222D02*
X12242801Y-14208984D01*
X12242801Y-14104222D02*
X12252324Y-14085174D01*
X12252324Y-14085174D02*
X12271372Y-14075650D01*
X12271372Y-14075650D02*
X12299943Y-14075650D01*
X12299943Y-14075650D02*
X12318991Y-14085174D01*
X12318991Y-14085174D02*
X12328515Y-14104222D01*
X12328515Y-14104222D02*
X12328515Y-14208984D01*
X12718991Y-13999460D02*
X12547563Y-14256603D01*
X12976134Y-14008984D02*
X12995182Y-14008984D01*
X12995182Y-14008984D02*
X13014229Y-14018508D01*
X13014229Y-14018508D02*
X13023753Y-14028031D01*
X13023753Y-14028031D02*
X13033277Y-14047079D01*
X13033277Y-14047079D02*
X13042801Y-14085174D01*
X13042801Y-14085174D02*
X13042801Y-14132793D01*
X13042801Y-14132793D02*
X13033277Y-14170888D01*
X13033277Y-14170888D02*
X13023753Y-14189936D01*
X13023753Y-14189936D02*
X13014229Y-14199460D01*
X13014229Y-14199460D02*
X12995182Y-14208984D01*
X12995182Y-14208984D02*
X12976134Y-14208984D01*
X12976134Y-14208984D02*
X12957086Y-14199460D01*
X12957086Y-14199460D02*
X12947563Y-14189936D01*
X12947563Y-14189936D02*
X12938039Y-14170888D01*
X12938039Y-14170888D02*
X12928515Y-14132793D01*
X12928515Y-14132793D02*
X12928515Y-14085174D01*
X12928515Y-14085174D02*
X12938039Y-14047079D01*
X12938039Y-14047079D02*
X12947563Y-14028031D01*
X12947563Y-14028031D02*
X12957086Y-14018508D01*
X12957086Y-14018508D02*
X12976134Y-14008984D01*
X13128515Y-14189936D02*
X13138039Y-14199460D01*
X13138039Y-14199460D02*
X13128515Y-14208984D01*
X13128515Y-14208984D02*
X13118991Y-14199460D01*
X13118991Y-14199460D02*
X13128515Y-14189936D01*
X13128515Y-14189936D02*
X13128515Y-14208984D01*
X13261848Y-14008984D02*
X13280896Y-14008984D01*
X13280896Y-14008984D02*
X13299944Y-14018508D01*
X13299944Y-14018508D02*
X13309467Y-14028031D01*
X13309467Y-14028031D02*
X13318991Y-14047079D01*
X13318991Y-14047079D02*
X13328515Y-14085174D01*
X13328515Y-14085174D02*
X13328515Y-14132793D01*
X13328515Y-14132793D02*
X13318991Y-14170888D01*
X13318991Y-14170888D02*
X13309467Y-14189936D01*
X13309467Y-14189936D02*
X13299944Y-14199460D01*
X13299944Y-14199460D02*
X13280896Y-14208984D01*
X13280896Y-14208984D02*
X13261848Y-14208984D01*
X13261848Y-14208984D02*
X13242801Y-14199460D01*
X13242801Y-14199460D02*
X13233277Y-14189936D01*
X13233277Y-14189936D02*
X13223753Y-14170888D01*
X13223753Y-14170888D02*
X13214229Y-14132793D01*
X13214229Y-14132793D02*
X13214229Y-14085174D01*
X13214229Y-14085174D02*
X13223753Y-14047079D01*
X13223753Y-14047079D02*
X13233277Y-14028031D01*
X13233277Y-14028031D02*
X13242801Y-14018508D01*
X13242801Y-14018508D02*
X13261848Y-14008984D01*
X13404706Y-14028031D02*
X13414229Y-14018508D01*
X13414229Y-14018508D02*
X13433277Y-14008984D01*
X13433277Y-14008984D02*
X13480896Y-14008984D01*
X13480896Y-14008984D02*
X13499944Y-14018508D01*
X13499944Y-14018508D02*
X13509467Y-14028031D01*
X13509467Y-14028031D02*
X13518991Y-14047079D01*
X13518991Y-14047079D02*
X13518991Y-14066127D01*
X13518991Y-14066127D02*
X13509467Y-14094698D01*
X13509467Y-14094698D02*
X13395182Y-14208984D01*
X13395182Y-14208984D02*
X13518991Y-14208984D01*
X13699944Y-14008984D02*
X13604706Y-14008984D01*
X13604706Y-14008984D02*
X13595182Y-14104222D01*
X13595182Y-14104222D02*
X13604706Y-14094698D01*
X13604706Y-14094698D02*
X13623753Y-14085174D01*
X13623753Y-14085174D02*
X13671372Y-14085174D01*
X13671372Y-14085174D02*
X13690420Y-14094698D01*
X13690420Y-14094698D02*
X13699944Y-14104222D01*
X13699944Y-14104222D02*
X13709467Y-14123269D01*
X13709467Y-14123269D02*
X13709467Y-14170888D01*
X13709467Y-14170888D02*
X13699944Y-14189936D01*
X13699944Y-14189936D02*
X13690420Y-14199460D01*
X13690420Y-14199460D02*
X13671372Y-14208984D01*
X13671372Y-14208984D02*
X13623753Y-14208984D01*
X13623753Y-14208984D02*
X13604706Y-14199460D01*
X13604706Y-14199460D02*
X13595182Y-14189936D01*
X13880896Y-14008984D02*
X13842801Y-14008984D01*
X13842801Y-14008984D02*
X13823753Y-14018508D01*
X13823753Y-14018508D02*
X13814229Y-14028031D01*
X13814229Y-14028031D02*
X13795182Y-14056603D01*
X13795182Y-14056603D02*
X13785658Y-14094698D01*
X13785658Y-14094698D02*
X13785658Y-14170888D01*
X13785658Y-14170888D02*
X13795182Y-14189936D01*
X13795182Y-14189936D02*
X13804706Y-14199460D01*
X13804706Y-14199460D02*
X13823753Y-14208984D01*
X13823753Y-14208984D02*
X13861848Y-14208984D01*
X13861848Y-14208984D02*
X13880896Y-14199460D01*
X13880896Y-14199460D02*
X13890420Y-14189936D01*
X13890420Y-14189936D02*
X13899944Y-14170888D01*
X13899944Y-14170888D02*
X13899944Y-14123269D01*
X13899944Y-14123269D02*
X13890420Y-14104222D01*
X13890420Y-14104222D02*
X13880896Y-14094698D01*
X13880896Y-14094698D02*
X13861848Y-14085174D01*
X13861848Y-14085174D02*
X13823753Y-14085174D01*
X13823753Y-14085174D02*
X13804706Y-14094698D01*
X13804706Y-14094698D02*
X13795182Y-14104222D01*
X13795182Y-14104222D02*
X13785658Y-14123269D01*
X13976134Y-14008984D02*
X13976134Y-14047079D01*
X14052325Y-14008984D02*
X14052325Y-14047079D01*
X14347563Y-14285174D02*
X14338039Y-14275650D01*
X14338039Y-14275650D02*
X14318991Y-14247079D01*
X14318991Y-14247079D02*
X14309468Y-14228031D01*
X14309468Y-14228031D02*
X14299944Y-14199460D01*
X14299944Y-14199460D02*
X14290420Y-14151841D01*
X14290420Y-14151841D02*
X14290420Y-14113746D01*
X14290420Y-14113746D02*
X14299944Y-14066127D01*
X14299944Y-14066127D02*
X14309468Y-14037555D01*
X14309468Y-14037555D02*
X14318991Y-14018508D01*
X14318991Y-14018508D02*
X14338039Y-13989936D01*
X14338039Y-13989936D02*
X14347563Y-13980412D01*
X14414229Y-14028031D02*
X14423753Y-14018508D01*
X14423753Y-14018508D02*
X14442801Y-14008984D01*
X14442801Y-14008984D02*
X14490420Y-14008984D01*
X14490420Y-14008984D02*
X14509468Y-14018508D01*
X14509468Y-14018508D02*
X14518991Y-14028031D01*
X14518991Y-14028031D02*
X14528515Y-14047079D01*
X14528515Y-14047079D02*
X14528515Y-14066127D01*
X14528515Y-14066127D02*
X14518991Y-14094698D01*
X14518991Y-14094698D02*
X14404706Y-14208984D01*
X14404706Y-14208984D02*
X14528515Y-14208984D01*
X14766610Y-14208984D02*
X14766610Y-14008984D01*
X14852325Y-14208984D02*
X14852325Y-14104222D01*
X14852325Y-14104222D02*
X14842801Y-14085174D01*
X14842801Y-14085174D02*
X14823753Y-14075650D01*
X14823753Y-14075650D02*
X14795182Y-14075650D01*
X14795182Y-14075650D02*
X14776134Y-14085174D01*
X14776134Y-14085174D02*
X14766610Y-14094698D01*
X14976134Y-14208984D02*
X14957087Y-14199460D01*
X14957087Y-14199460D02*
X14947563Y-14189936D01*
X14947563Y-14189936D02*
X14938039Y-14170888D01*
X14938039Y-14170888D02*
X14938039Y-14113746D01*
X14938039Y-14113746D02*
X14947563Y-14094698D01*
X14947563Y-14094698D02*
X14957087Y-14085174D01*
X14957087Y-14085174D02*
X14976134Y-14075650D01*
X14976134Y-14075650D02*
X15004706Y-14075650D01*
X15004706Y-14075650D02*
X15023753Y-14085174D01*
X15023753Y-14085174D02*
X15033277Y-14094698D01*
X15033277Y-14094698D02*
X15042801Y-14113746D01*
X15042801Y-14113746D02*
X15042801Y-14170888D01*
X15042801Y-14170888D02*
X15033277Y-14189936D01*
X15033277Y-14189936D02*
X15023753Y-14199460D01*
X15023753Y-14199460D02*
X15004706Y-14208984D01*
X15004706Y-14208984D02*
X14976134Y-14208984D01*
X15157087Y-14208984D02*
X15138039Y-14199460D01*
X15138039Y-14199460D02*
X15128515Y-14180412D01*
X15128515Y-14180412D02*
X15128515Y-14008984D01*
X15309468Y-14199460D02*
X15290420Y-14208984D01*
X15290420Y-14208984D02*
X15252325Y-14208984D01*
X15252325Y-14208984D02*
X15233277Y-14199460D01*
X15233277Y-14199460D02*
X15223753Y-14180412D01*
X15223753Y-14180412D02*
X15223753Y-14104222D01*
X15223753Y-14104222D02*
X15233277Y-14085174D01*
X15233277Y-14085174D02*
X15252325Y-14075650D01*
X15252325Y-14075650D02*
X15290420Y-14075650D01*
X15290420Y-14075650D02*
X15309468Y-14085174D01*
X15309468Y-14085174D02*
X15318991Y-14104222D01*
X15318991Y-14104222D02*
X15318991Y-14123269D01*
X15318991Y-14123269D02*
X15223753Y-14142317D01*
X15395182Y-14199460D02*
X15414230Y-14208984D01*
X15414230Y-14208984D02*
X15452325Y-14208984D01*
X15452325Y-14208984D02*
X15471372Y-14199460D01*
X15471372Y-14199460D02*
X15480896Y-14180412D01*
X15480896Y-14180412D02*
X15480896Y-14170888D01*
X15480896Y-14170888D02*
X15471372Y-14151841D01*
X15471372Y-14151841D02*
X15452325Y-14142317D01*
X15452325Y-14142317D02*
X15423753Y-14142317D01*
X15423753Y-14142317D02*
X15404706Y-14132793D01*
X15404706Y-14132793D02*
X15395182Y-14113746D01*
X15395182Y-14113746D02*
X15395182Y-14104222D01*
X15395182Y-14104222D02*
X15404706Y-14085174D01*
X15404706Y-14085174D02*
X15423753Y-14075650D01*
X15423753Y-14075650D02*
X15452325Y-14075650D01*
X15452325Y-14075650D02*
X15471372Y-14085174D01*
X15547563Y-14285174D02*
X15557087Y-14275650D01*
X15557087Y-14275650D02*
X15576134Y-14247079D01*
X15576134Y-14247079D02*
X15585658Y-14228031D01*
X15585658Y-14228031D02*
X15595182Y-14199460D01*
X15595182Y-14199460D02*
X15604706Y-14151841D01*
X15604706Y-14151841D02*
X15604706Y-14113746D01*
X15604706Y-14113746D02*
X15595182Y-14066127D01*
X15595182Y-14066127D02*
X15585658Y-14037555D01*
X15585658Y-14037555D02*
X15576134Y-14018508D01*
X15576134Y-14018508D02*
X15557087Y-13989936D01*
X15557087Y-13989936D02*
X15547563Y-13980412D01*
X15909468Y-14285174D02*
X15899944Y-14275650D01*
X15899944Y-14275650D02*
X15880896Y-14247079D01*
X15880896Y-14247079D02*
X15871372Y-14228031D01*
X15871372Y-14228031D02*
X15861849Y-14199460D01*
X15861849Y-14199460D02*
X15852325Y-14151841D01*
X15852325Y-14151841D02*
X15852325Y-14113746D01*
X15852325Y-14113746D02*
X15861849Y-14066127D01*
X15861849Y-14066127D02*
X15871372Y-14037555D01*
X15871372Y-14037555D02*
X15880896Y-14018508D01*
X15880896Y-14018508D02*
X15899944Y-13989936D01*
X15899944Y-13989936D02*
X15909468Y-13980412D01*
X15985658Y-14075650D02*
X15985658Y-14208984D01*
X15985658Y-14094698D02*
X15995182Y-14085174D01*
X15995182Y-14085174D02*
X16014230Y-14075650D01*
X16014230Y-14075650D02*
X16042801Y-14075650D01*
X16042801Y-14075650D02*
X16061849Y-14085174D01*
X16061849Y-14085174D02*
X16071372Y-14104222D01*
X16071372Y-14104222D02*
X16071372Y-14208984D01*
X16195182Y-14208984D02*
X16176134Y-14199460D01*
X16176134Y-14199460D02*
X16166611Y-14189936D01*
X16166611Y-14189936D02*
X16157087Y-14170888D01*
X16157087Y-14170888D02*
X16157087Y-14113746D01*
X16157087Y-14113746D02*
X16166611Y-14094698D01*
X16166611Y-14094698D02*
X16176134Y-14085174D01*
X16176134Y-14085174D02*
X16195182Y-14075650D01*
X16195182Y-14075650D02*
X16223753Y-14075650D01*
X16223753Y-14075650D02*
X16242801Y-14085174D01*
X16242801Y-14085174D02*
X16252325Y-14094698D01*
X16252325Y-14094698D02*
X16261849Y-14113746D01*
X16261849Y-14113746D02*
X16261849Y-14170888D01*
X16261849Y-14170888D02*
X16252325Y-14189936D01*
X16252325Y-14189936D02*
X16242801Y-14199460D01*
X16242801Y-14199460D02*
X16223753Y-14208984D01*
X16223753Y-14208984D02*
X16195182Y-14208984D01*
X16318992Y-14075650D02*
X16395182Y-14075650D01*
X16347563Y-14008984D02*
X16347563Y-14180412D01*
X16347563Y-14180412D02*
X16357087Y-14199460D01*
X16357087Y-14199460D02*
X16376134Y-14208984D01*
X16376134Y-14208984D02*
X16395182Y-14208984D01*
X16614230Y-14075650D02*
X16614230Y-14275650D01*
X16614230Y-14085174D02*
X16633277Y-14075650D01*
X16633277Y-14075650D02*
X16671373Y-14075650D01*
X16671373Y-14075650D02*
X16690420Y-14085174D01*
X16690420Y-14085174D02*
X16699944Y-14094698D01*
X16699944Y-14094698D02*
X16709468Y-14113746D01*
X16709468Y-14113746D02*
X16709468Y-14170888D01*
X16709468Y-14170888D02*
X16699944Y-14189936D01*
X16699944Y-14189936D02*
X16690420Y-14199460D01*
X16690420Y-14199460D02*
X16671373Y-14208984D01*
X16671373Y-14208984D02*
X16633277Y-14208984D01*
X16633277Y-14208984D02*
X16614230Y-14199460D01*
X16823754Y-14208984D02*
X16804706Y-14199460D01*
X16804706Y-14199460D02*
X16795182Y-14180412D01*
X16795182Y-14180412D02*
X16795182Y-14008984D01*
X16985658Y-14208984D02*
X16985658Y-14104222D01*
X16985658Y-14104222D02*
X16976135Y-14085174D01*
X16976135Y-14085174D02*
X16957087Y-14075650D01*
X16957087Y-14075650D02*
X16918992Y-14075650D01*
X16918992Y-14075650D02*
X16899944Y-14085174D01*
X16985658Y-14199460D02*
X16966611Y-14208984D01*
X16966611Y-14208984D02*
X16918992Y-14208984D01*
X16918992Y-14208984D02*
X16899944Y-14199460D01*
X16899944Y-14199460D02*
X16890420Y-14180412D01*
X16890420Y-14180412D02*
X16890420Y-14161365D01*
X16890420Y-14161365D02*
X16899944Y-14142317D01*
X16899944Y-14142317D02*
X16918992Y-14132793D01*
X16918992Y-14132793D02*
X16966611Y-14132793D01*
X16966611Y-14132793D02*
X16985658Y-14123269D01*
X17052325Y-14075650D02*
X17128515Y-14075650D01*
X17080896Y-14008984D02*
X17080896Y-14180412D01*
X17080896Y-14180412D02*
X17090420Y-14199460D01*
X17090420Y-14199460D02*
X17109468Y-14208984D01*
X17109468Y-14208984D02*
X17128515Y-14208984D01*
X17271373Y-14199460D02*
X17252325Y-14208984D01*
X17252325Y-14208984D02*
X17214230Y-14208984D01*
X17214230Y-14208984D02*
X17195182Y-14199460D01*
X17195182Y-14199460D02*
X17185658Y-14180412D01*
X17185658Y-14180412D02*
X17185658Y-14104222D01*
X17185658Y-14104222D02*
X17195182Y-14085174D01*
X17195182Y-14085174D02*
X17214230Y-14075650D01*
X17214230Y-14075650D02*
X17252325Y-14075650D01*
X17252325Y-14075650D02*
X17271373Y-14085174D01*
X17271373Y-14085174D02*
X17280896Y-14104222D01*
X17280896Y-14104222D02*
X17280896Y-14123269D01*
X17280896Y-14123269D02*
X17185658Y-14142317D01*
X17452325Y-14208984D02*
X17452325Y-14008984D01*
X17452325Y-14199460D02*
X17433277Y-14208984D01*
X17433277Y-14208984D02*
X17395182Y-14208984D01*
X17395182Y-14208984D02*
X17376135Y-14199460D01*
X17376135Y-14199460D02*
X17366611Y-14189936D01*
X17366611Y-14189936D02*
X17357087Y-14170888D01*
X17357087Y-14170888D02*
X17357087Y-14113746D01*
X17357087Y-14113746D02*
X17366611Y-14094698D01*
X17366611Y-14094698D02*
X17376135Y-14085174D01*
X17376135Y-14085174D02*
X17395182Y-14075650D01*
X17395182Y-14075650D02*
X17433277Y-14075650D01*
X17433277Y-14075650D02*
X17452325Y-14085174D01*
X17528516Y-14285174D02*
X17538039Y-14275650D01*
X17538039Y-14275650D02*
X17557087Y-14247079D01*
X17557087Y-14247079D02*
X17566611Y-14228031D01*
X17566611Y-14228031D02*
X17576135Y-14199460D01*
X17576135Y-14199460D02*
X17585658Y-14151841D01*
X17585658Y-14151841D02*
X17585658Y-14113746D01*
X17585658Y-14113746D02*
X17576135Y-14066127D01*
X17576135Y-14066127D02*
X17566611Y-14037555D01*
X17566611Y-14037555D02*
X17557087Y-14018508D01*
X17557087Y-14018508D02*
X17538039Y-13989936D01*
X17538039Y-13989936D02*
X17528516Y-13980412D01*
M02*
