%TF.GenerationSoftware,KiCad,Pcbnew,9.0.4*%
%TF.CreationDate,2025-10-01T21:18:27+02:00*%
%TF.ProjectId,gpsdo,67707364-6f2e-46b6-9963-61645f706362,rev?*%
%TF.SameCoordinates,Original*%
%TF.FileFunction,Copper,L3,Inr*%
%TF.FilePolarity,Positive*%
%FSLAX46Y46*%
G04 Gerber Fmt 4.6, Leading zero omitted, Abs format (unit mm)*
G04 Created by KiCad (PCBNEW 9.0.4) date 2025-10-01 21:18:27*
%MOMM*%
%LPD*%
G01*
G04 APERTURE LIST*
%TA.AperFunction,ComponentPad*%
%ADD10C,2.540000*%
%TD*%
%TA.AperFunction,ComponentPad*%
%ADD11C,3.600000*%
%TD*%
%TA.AperFunction,ComponentPad*%
%ADD12R,1.700000X1.700000*%
%TD*%
%TA.AperFunction,ComponentPad*%
%ADD13C,1.700000*%
%TD*%
%TA.AperFunction,HeatsinkPad*%
%ADD14O,1.000000X2.100000*%
%TD*%
%TA.AperFunction,HeatsinkPad*%
%ADD15O,1.000000X1.800000*%
%TD*%
%TA.AperFunction,ComponentPad*%
%ADD16C,0.600000*%
%TD*%
%TA.AperFunction,ViaPad*%
%ADD17C,0.600000*%
%TD*%
G04 APERTURE END LIST*
D10*
%TO.N,OCXO_Out*%
%TO.C,OSC5A2B1*%
X145450000Y-102225000D03*
%TO.N,GNDA*%
X145450000Y-111750000D03*
%TO.N,Net-(OSC5A2B1-Vref)*%
X145450000Y-121275000D03*
%TO.N,unconnected-(OSC5A2B1-NC-Pad4)*%
X164500000Y-121275000D03*
%TO.N,VCC_5V*%
X164500000Y-102225000D03*
%TD*%
D11*
%TO.N,N/C*%
%TO.C,REF\u002A\u002A*%
X112750000Y-69750000D03*
%TD*%
D12*
%TO.N,OCXO_10MHZ*%
%TO.C,J4*%
X127580000Y-68250000D03*
D13*
%TO.N,OCXO_625KHZ*%
X125040000Y-68250000D03*
%TO.N,GND*%
X122500000Y-68250000D03*
%TD*%
D12*
%TO.N,PPS_5V*%
%TO.C,J1*%
X111250000Y-98475000D03*
D13*
%TO.N,GND*%
X111250000Y-101015000D03*
%TD*%
D11*
%TO.N,N/C*%
%TO.C,REF\u002A\u002A*%
X172750000Y-129750000D03*
%TD*%
D14*
%TO.N,GND*%
%TO.C,J3*%
X147070000Y-72000000D03*
D15*
X147070000Y-67800000D03*
D14*
X138430000Y-72000000D03*
D15*
X138430000Y-67800000D03*
%TD*%
D11*
%TO.N,N/C*%
%TO.C,REF\u002A\u002A*%
X172750000Y-69250000D03*
%TD*%
%TO.N,N/C*%
%TO.C,REF\u002A\u002A*%
X112750000Y-129750000D03*
%TD*%
D16*
%TO.N,GNDA*%
%TO.C,NT1*%
X113750000Y-114750000D03*
%TO.N,GND*%
X113750000Y-113550000D03*
%TD*%
%TO.N,VDDA_3V3*%
%TO.C,NT2*%
X129200000Y-96400000D03*
%TO.N,VDD_3V3*%
X128000000Y-96400000D03*
%TD*%
D12*
%TO.N,VDD_3V3*%
%TO.C,J2*%
X111250000Y-89277500D03*
D13*
%TO.N,NRST*%
X113790000Y-89277500D03*
%TO.N,SWO*%
X111250000Y-91817500D03*
%TO.N,SWCLK*%
X113790000Y-91817500D03*
%TO.N,SWDIO*%
X111250000Y-94357500D03*
%TO.N,GND*%
X113790000Y-94357500D03*
%TD*%
D16*
%TO.N,GNDA*%
%TO.C,NT3*%
X170625000Y-79700000D03*
%TO.N,GND*%
X170625000Y-78500000D03*
%TD*%
D17*
%TO.N,GNDA*%
X169407500Y-102092500D03*
X140625000Y-120750000D03*
X140750000Y-117750000D03*
X128000000Y-125750000D03*
%TO.N,GND*%
X149168750Y-91500000D03*
%TO.N,VDD_3V3*%
X127500000Y-107750000D03*
X163500000Y-76250000D03*
X159000000Y-77750000D03*
X163500000Y-68750000D03*
X152418750Y-91500000D03*
X163500000Y-69500000D03*
X162750000Y-68750000D03*
X162750000Y-77000000D03*
X162000000Y-69500000D03*
X163500000Y-77000000D03*
X110400000Y-76400000D03*
X162750000Y-69500000D03*
X159750000Y-68750000D03*
X162000000Y-77000000D03*
X160500000Y-68750000D03*
X162750000Y-76250000D03*
X162000000Y-68750000D03*
X163500000Y-70250000D03*
X162750000Y-70250000D03*
X161250000Y-68750000D03*
X138750000Y-86250000D03*
X119000000Y-113550003D03*
X162750000Y-77750000D03*
X160500000Y-77750000D03*
X162000000Y-77750000D03*
X131000000Y-77250000D03*
X123750000Y-87250000D03*
X159750000Y-77750000D03*
X136250000Y-111750000D03*
X159000000Y-68750000D03*
X163500000Y-77750000D03*
X161250000Y-77750000D03*
X164000000Y-91500000D03*
%TD*%
%TA.AperFunction,Conductor*%
%TO.N,VDD_3V3*%
G36*
X172751351Y-65250559D02*
G01*
X173139481Y-65267505D01*
X173144799Y-65267969D01*
X173528687Y-65318510D01*
X173533937Y-65319436D01*
X173911942Y-65403237D01*
X173917098Y-65404618D01*
X174229133Y-65503002D01*
X174286357Y-65521045D01*
X174291399Y-65522880D01*
X174649104Y-65671046D01*
X174653945Y-65673304D01*
X174997372Y-65852081D01*
X175002004Y-65854755D01*
X175165278Y-65958772D01*
X175328546Y-66062785D01*
X175332941Y-66065863D01*
X175458592Y-66162278D01*
X175640098Y-66301552D01*
X175644188Y-66304983D01*
X175929654Y-66566565D01*
X175933434Y-66570345D01*
X176195014Y-66855809D01*
X176198448Y-66859903D01*
X176245778Y-66921584D01*
X176434136Y-67167058D01*
X176437214Y-67171453D01*
X176645240Y-67497988D01*
X176647922Y-67502634D01*
X176826690Y-67846043D01*
X176828958Y-67850906D01*
X176977119Y-68208600D01*
X176978954Y-68213642D01*
X177095377Y-68582888D01*
X177096765Y-68588070D01*
X177180560Y-68966045D01*
X177181492Y-68971329D01*
X177232028Y-69355187D01*
X177232495Y-69360531D01*
X177249441Y-69748648D01*
X177249500Y-69751331D01*
X177249500Y-93703530D01*
X177231487Y-93747017D01*
X177188000Y-93765030D01*
X177187977Y-93765030D01*
X168367547Y-93761751D01*
X168362492Y-93761541D01*
X168217174Y-93749500D01*
X168217162Y-93749500D01*
X168065892Y-93749500D01*
X158315892Y-93749500D01*
X158250000Y-93749500D01*
X158124802Y-93749500D01*
X158124794Y-93749500D01*
X158070582Y-93757295D01*
X158061807Y-93757921D01*
X152172921Y-93755732D01*
X152164192Y-93755106D01*
X152125206Y-93749500D01*
X152125198Y-93749500D01*
X152065892Y-93749500D01*
X142065892Y-93749500D01*
X142000000Y-93749500D01*
X141782838Y-93749500D01*
X141782826Y-93749500D01*
X141756900Y-93751649D01*
X141751799Y-93751859D01*
X136750000Y-93750000D01*
X136750000Y-98774259D01*
X136749790Y-98779337D01*
X136749500Y-98782826D01*
X136749500Y-108875197D01*
X136749657Y-108877395D01*
X136749593Y-108877399D01*
X136750000Y-108883077D01*
X136750000Y-114866924D01*
X136749593Y-114872603D01*
X136749657Y-114872608D01*
X136749500Y-114874805D01*
X136749500Y-125217169D01*
X136749790Y-125220660D01*
X136750000Y-125225740D01*
X136750000Y-134188000D01*
X136731987Y-134231487D01*
X136688500Y-134249500D01*
X112751332Y-134249500D01*
X112748649Y-134249441D01*
X112360531Y-134232495D01*
X112355187Y-134232028D01*
X111971329Y-134181492D01*
X111966045Y-134180560D01*
X111588070Y-134096765D01*
X111582888Y-134095377D01*
X111213642Y-133978954D01*
X111208600Y-133977119D01*
X110850906Y-133828958D01*
X110846043Y-133826690D01*
X110502634Y-133647922D01*
X110497988Y-133645240D01*
X110171453Y-133437214D01*
X110167058Y-133434136D01*
X109985562Y-133294870D01*
X109859903Y-133198448D01*
X109855809Y-133195014D01*
X109570345Y-132933434D01*
X109566565Y-132929654D01*
X109304983Y-132644188D01*
X109301552Y-132640098D01*
X109162278Y-132458592D01*
X109065863Y-132332941D01*
X109062785Y-132328546D01*
X108854759Y-132002011D01*
X108852077Y-131997365D01*
X108673304Y-131653945D01*
X108671046Y-131649104D01*
X108522880Y-131291399D01*
X108521045Y-131286357D01*
X108463828Y-131104888D01*
X108404618Y-130917098D01*
X108403237Y-130911942D01*
X108319436Y-130533937D01*
X108318510Y-130528687D01*
X108267969Y-130144799D01*
X108267505Y-130139481D01*
X108250559Y-129751351D01*
X108250500Y-129748668D01*
X108250500Y-129615597D01*
X110699500Y-129615597D01*
X110699500Y-129884402D01*
X110734585Y-130150898D01*
X110804151Y-130410520D01*
X110804153Y-130410526D01*
X110907016Y-130658859D01*
X110992219Y-130806435D01*
X111041412Y-130891640D01*
X111060956Y-130917111D01*
X111205044Y-131104890D01*
X111395110Y-131294956D01*
X111608359Y-131458587D01*
X111841141Y-131592984D01*
X112089474Y-131695847D01*
X112271970Y-131744746D01*
X112349101Y-131765414D01*
X112349102Y-131765414D01*
X112349109Y-131765416D01*
X112615603Y-131800500D01*
X112615606Y-131800500D01*
X112884394Y-131800500D01*
X112884397Y-131800500D01*
X113150891Y-131765416D01*
X113410526Y-131695847D01*
X113658859Y-131592984D01*
X113891641Y-131458587D01*
X114104890Y-131294956D01*
X114294956Y-131104890D01*
X114458587Y-130891641D01*
X114592984Y-130658859D01*
X114695847Y-130410526D01*
X114765416Y-130150891D01*
X114800500Y-129884397D01*
X114800500Y-129615603D01*
X114765416Y-129349109D01*
X114763261Y-129341068D01*
X114695848Y-129089479D01*
X114695847Y-129089474D01*
X114592984Y-128841141D01*
X114458587Y-128608359D01*
X114435556Y-128578344D01*
X114294957Y-128395111D01*
X114104888Y-128205042D01*
X113891640Y-128041412D01*
X113806435Y-127992219D01*
X113658859Y-127907016D01*
X113410526Y-127804153D01*
X113410520Y-127804151D01*
X113150898Y-127734585D01*
X113150891Y-127734584D01*
X113122519Y-127730848D01*
X112884402Y-127699500D01*
X112884397Y-127699500D01*
X112615603Y-127699500D01*
X112615597Y-127699500D01*
X112349101Y-127734585D01*
X112089479Y-127804151D01*
X112089473Y-127804153D01*
X111841143Y-127907015D01*
X111608359Y-128041412D01*
X111395111Y-128205042D01*
X111205042Y-128395111D01*
X111041412Y-128608359D01*
X110907015Y-128841143D01*
X110804153Y-129089473D01*
X110804151Y-129089479D01*
X110734585Y-129349101D01*
X110699500Y-129615597D01*
X108250500Y-129615597D01*
X108250500Y-125697269D01*
X126349500Y-125697269D01*
X126349500Y-125802730D01*
X126376790Y-125904580D01*
X126376792Y-125904584D01*
X126376793Y-125904587D01*
X126429520Y-125995913D01*
X126504087Y-126070480D01*
X126595413Y-126123207D01*
X126595417Y-126123208D01*
X126595419Y-126123209D01*
X126697269Y-126150499D01*
X126697271Y-126150500D01*
X126697273Y-126150500D01*
X126802729Y-126150500D01*
X126802729Y-126150499D01*
X126904587Y-126123207D01*
X126995913Y-126070480D01*
X127070480Y-125995913D01*
X127123207Y-125904587D01*
X127150499Y-125802729D01*
X127150500Y-125802729D01*
X127150500Y-125697272D01*
X127148394Y-125689413D01*
X127148394Y-125689411D01*
X127145208Y-125677522D01*
X127449500Y-125677522D01*
X127449500Y-125822477D01*
X127487014Y-125962480D01*
X127487015Y-125962482D01*
X127487016Y-125962485D01*
X127559491Y-126088015D01*
X127661985Y-126190509D01*
X127787515Y-126262984D01*
X127787519Y-126262985D01*
X127927523Y-126300500D01*
X127927525Y-126300500D01*
X128072476Y-126300500D01*
X128134206Y-126283958D01*
X128212485Y-126262984D01*
X128338015Y-126190509D01*
X128440509Y-126088015D01*
X128512984Y-125962485D01*
X128528500Y-125904580D01*
X128550500Y-125822477D01*
X128550500Y-125677522D01*
X128512985Y-125537519D01*
X128512984Y-125537515D01*
X128440509Y-125411985D01*
X128338015Y-125309491D01*
X128212485Y-125237016D01*
X128212482Y-125237015D01*
X128212480Y-125237014D01*
X128072477Y-125199500D01*
X128072475Y-125199500D01*
X127927525Y-125199500D01*
X127927523Y-125199500D01*
X127787519Y-125237014D01*
X127787515Y-125237016D01*
X127661986Y-125309490D01*
X127661981Y-125309494D01*
X127559494Y-125411981D01*
X127559490Y-125411986D01*
X127487016Y-125537515D01*
X127487014Y-125537519D01*
X127449500Y-125677522D01*
X127145208Y-125677522D01*
X127123209Y-125595419D01*
X127123208Y-125595417D01*
X127123207Y-125595413D01*
X127070480Y-125504087D01*
X126995913Y-125429520D01*
X126904587Y-125376793D01*
X126904584Y-125376792D01*
X126904580Y-125376790D01*
X126802730Y-125349500D01*
X126802727Y-125349500D01*
X126697273Y-125349500D01*
X126697270Y-125349500D01*
X126595419Y-125376790D01*
X126595413Y-125376793D01*
X126504088Y-125429519D01*
X126504083Y-125429523D01*
X126429523Y-125504083D01*
X126429519Y-125504088D01*
X126376793Y-125595413D01*
X126376790Y-125595419D01*
X126349500Y-125697269D01*
X108250500Y-125697269D01*
X108250500Y-123447269D01*
X120599500Y-123447269D01*
X120599500Y-123552730D01*
X120626790Y-123654580D01*
X120626792Y-123654584D01*
X120626793Y-123654587D01*
X120679520Y-123745913D01*
X120754087Y-123820480D01*
X120845413Y-123873207D01*
X120845417Y-123873208D01*
X120845419Y-123873209D01*
X120947269Y-123900499D01*
X120947271Y-123900500D01*
X120947273Y-123900500D01*
X121052729Y-123900500D01*
X121052729Y-123900499D01*
X121154587Y-123873207D01*
X121245913Y-123820480D01*
X121320480Y-123745913D01*
X121373207Y-123654587D01*
X121400499Y-123552729D01*
X121400500Y-123552729D01*
X121400500Y-123447270D01*
X121400499Y-123447269D01*
X121373209Y-123345419D01*
X121373208Y-123345417D01*
X121373207Y-123345413D01*
X121320480Y-123254087D01*
X121245913Y-123179520D01*
X121154587Y-123126793D01*
X121154584Y-123126792D01*
X121154580Y-123126790D01*
X121052730Y-123099500D01*
X121052727Y-123099500D01*
X120947273Y-123099500D01*
X120947270Y-123099500D01*
X120845419Y-123126790D01*
X120845413Y-123126793D01*
X120754088Y-123179519D01*
X120754083Y-123179523D01*
X120679523Y-123254083D01*
X120679519Y-123254088D01*
X120626793Y-123345413D01*
X120626790Y-123345419D01*
X120599500Y-123447269D01*
X108250500Y-123447269D01*
X108250500Y-121947269D01*
X118349500Y-121947269D01*
X118349500Y-122052730D01*
X118376790Y-122154580D01*
X118376792Y-122154584D01*
X118376793Y-122154587D01*
X118429520Y-122245913D01*
X118504087Y-122320480D01*
X118595413Y-122373207D01*
X118595417Y-122373208D01*
X118595419Y-122373209D01*
X118697269Y-122400499D01*
X118697271Y-122400500D01*
X118697273Y-122400500D01*
X118802729Y-122400500D01*
X118802729Y-122400499D01*
X118904587Y-122373207D01*
X118995913Y-122320480D01*
X119070480Y-122245913D01*
X119123207Y-122154587D01*
X119150499Y-122052729D01*
X119150500Y-122052729D01*
X119150500Y-121947270D01*
X119150499Y-121947269D01*
X119123209Y-121845419D01*
X119123208Y-121845417D01*
X119123207Y-121845413D01*
X119070480Y-121754087D01*
X118995913Y-121679520D01*
X118904587Y-121626793D01*
X118904584Y-121626792D01*
X118904580Y-121626790D01*
X118802730Y-121599500D01*
X118802727Y-121599500D01*
X118697273Y-121599500D01*
X118697270Y-121599500D01*
X118595419Y-121626790D01*
X118595413Y-121626793D01*
X118504088Y-121679519D01*
X118504083Y-121679523D01*
X118429523Y-121754083D01*
X118429519Y-121754088D01*
X118376793Y-121845413D01*
X118376790Y-121845419D01*
X118349500Y-121947269D01*
X108250500Y-121947269D01*
X108250500Y-121197269D01*
X113849500Y-121197269D01*
X113849500Y-121302730D01*
X113876790Y-121404580D01*
X113876792Y-121404584D01*
X113876793Y-121404587D01*
X113929520Y-121495913D01*
X114004087Y-121570480D01*
X114095413Y-121623207D01*
X114095417Y-121623208D01*
X114095419Y-121623209D01*
X114197269Y-121650499D01*
X114197271Y-121650500D01*
X114197273Y-121650500D01*
X114302729Y-121650500D01*
X114302729Y-121650499D01*
X114365059Y-121633798D01*
X114404580Y-121623209D01*
X114404580Y-121623208D01*
X114404587Y-121623207D01*
X114495913Y-121570480D01*
X114570480Y-121495913D01*
X114623207Y-121404587D01*
X114650499Y-121302729D01*
X114650500Y-121302729D01*
X114650500Y-121197270D01*
X114650499Y-121197269D01*
X114623209Y-121095419D01*
X114623208Y-121095417D01*
X114623207Y-121095413D01*
X114570480Y-121004087D01*
X114495913Y-120929520D01*
X114404587Y-120876793D01*
X114404584Y-120876792D01*
X114404580Y-120876790D01*
X114302730Y-120849500D01*
X114302727Y-120849500D01*
X114197273Y-120849500D01*
X114197270Y-120849500D01*
X114095419Y-120876790D01*
X114095413Y-120876793D01*
X114004088Y-120929519D01*
X114004083Y-120929523D01*
X113929523Y-121004083D01*
X113929519Y-121004088D01*
X113876793Y-121095413D01*
X113876790Y-121095419D01*
X113849500Y-121197269D01*
X108250500Y-121197269D01*
X108250500Y-117947269D01*
X125849500Y-117947269D01*
X125849500Y-118052730D01*
X125876790Y-118154580D01*
X125876792Y-118154584D01*
X125876793Y-118154587D01*
X125929520Y-118245913D01*
X126004087Y-118320480D01*
X126095413Y-118373207D01*
X126095417Y-118373208D01*
X126095419Y-118373209D01*
X126197269Y-118400499D01*
X126197271Y-118400500D01*
X126197273Y-118400500D01*
X126302729Y-118400500D01*
X126302729Y-118400499D01*
X126404587Y-118373207D01*
X126495913Y-118320480D01*
X126570480Y-118245913D01*
X126623207Y-118154587D01*
X126650499Y-118052729D01*
X126650500Y-118052729D01*
X126650500Y-117947270D01*
X126650499Y-117947269D01*
X126623209Y-117845419D01*
X126623208Y-117845417D01*
X126623207Y-117845413D01*
X126570480Y-117754087D01*
X126495913Y-117679520D01*
X126404587Y-117626793D01*
X126404584Y-117626792D01*
X126404580Y-117626790D01*
X126302730Y-117599500D01*
X126302727Y-117599500D01*
X126197273Y-117599500D01*
X126197270Y-117599500D01*
X126095419Y-117626790D01*
X126095413Y-117626793D01*
X126004088Y-117679519D01*
X126004083Y-117679523D01*
X125929523Y-117754083D01*
X125929519Y-117754088D01*
X125876793Y-117845413D01*
X125876790Y-117845419D01*
X125849500Y-117947269D01*
X108250500Y-117947269D01*
X108250500Y-115926019D01*
X128099500Y-115926019D01*
X128099500Y-116031480D01*
X128126790Y-116133330D01*
X128126792Y-116133334D01*
X128126793Y-116133337D01*
X128179520Y-116224663D01*
X128254087Y-116299230D01*
X128345413Y-116351957D01*
X128345417Y-116351958D01*
X128345419Y-116351959D01*
X128447269Y-116379249D01*
X128447271Y-116379250D01*
X128447273Y-116379250D01*
X128552729Y-116379250D01*
X128552729Y-116379249D01*
X128654587Y-116351957D01*
X128745913Y-116299230D01*
X128820480Y-116224663D01*
X128873207Y-116133337D01*
X128900499Y-116031479D01*
X128900500Y-116031479D01*
X128900500Y-115947269D01*
X130349500Y-115947269D01*
X130349500Y-116052730D01*
X130376790Y-116154580D01*
X130376792Y-116154584D01*
X130376793Y-116154587D01*
X130429520Y-116245913D01*
X130504087Y-116320480D01*
X130595413Y-116373207D01*
X130595417Y-116373208D01*
X130595419Y-116373209D01*
X130697269Y-116400499D01*
X130697271Y-116400500D01*
X130697273Y-116400500D01*
X130802729Y-116400500D01*
X130802729Y-116400499D01*
X130904587Y-116373207D01*
X130995913Y-116320480D01*
X131070480Y-116245913D01*
X131123207Y-116154587D01*
X131150499Y-116052729D01*
X131150500Y-116052729D01*
X131150500Y-115947270D01*
X131150499Y-115947269D01*
X131849500Y-115947269D01*
X131849500Y-116052730D01*
X131876790Y-116154580D01*
X131876792Y-116154584D01*
X131876793Y-116154587D01*
X131929520Y-116245913D01*
X132004087Y-116320480D01*
X132095413Y-116373207D01*
X132095417Y-116373208D01*
X132095419Y-116373209D01*
X132197269Y-116400499D01*
X132197271Y-116400500D01*
X132197273Y-116400500D01*
X132302729Y-116400500D01*
X132302729Y-116400499D01*
X132404587Y-116373207D01*
X132495913Y-116320480D01*
X132570480Y-116245913D01*
X132623207Y-116154587D01*
X132650499Y-116052729D01*
X132650500Y-116052729D01*
X132650500Y-115947270D01*
X132650499Y-115947269D01*
X132623209Y-115845419D01*
X132623208Y-115845417D01*
X132623207Y-115845413D01*
X132570480Y-115754087D01*
X132495913Y-115679520D01*
X132404587Y-115626793D01*
X132404584Y-115626792D01*
X132404580Y-115626790D01*
X132302730Y-115599500D01*
X132302727Y-115599500D01*
X132197273Y-115599500D01*
X132197270Y-115599500D01*
X132095419Y-115626790D01*
X132095413Y-115626793D01*
X132004088Y-115679519D01*
X132004083Y-115679523D01*
X131929523Y-115754083D01*
X131929519Y-115754088D01*
X131876793Y-115845413D01*
X131876790Y-115845419D01*
X131849500Y-115947269D01*
X131150499Y-115947269D01*
X131123209Y-115845419D01*
X131123208Y-115845417D01*
X131123207Y-115845413D01*
X131070480Y-115754087D01*
X130995913Y-115679520D01*
X130904587Y-115626793D01*
X130904584Y-115626792D01*
X130904580Y-115626790D01*
X130802730Y-115599500D01*
X130802727Y-115599500D01*
X130697273Y-115599500D01*
X130697270Y-115599500D01*
X130595419Y-115626790D01*
X130595413Y-115626793D01*
X130504088Y-115679519D01*
X130504083Y-115679523D01*
X130429523Y-115754083D01*
X130429519Y-115754088D01*
X130376793Y-115845413D01*
X130376790Y-115845419D01*
X130349500Y-115947269D01*
X128900500Y-115947269D01*
X128900500Y-115926020D01*
X128900499Y-115926019D01*
X128873209Y-115824169D01*
X128873208Y-115824167D01*
X128873207Y-115824163D01*
X128820480Y-115732837D01*
X128745913Y-115658270D01*
X128654587Y-115605543D01*
X128654584Y-115605542D01*
X128654580Y-115605540D01*
X128552730Y-115578250D01*
X128552727Y-115578250D01*
X128447273Y-115578250D01*
X128447270Y-115578250D01*
X128345419Y-115605540D01*
X128345413Y-115605543D01*
X128254088Y-115658269D01*
X128254083Y-115658273D01*
X128179523Y-115732833D01*
X128179519Y-115732838D01*
X128126793Y-115824163D01*
X128126790Y-115824169D01*
X128099500Y-115926019D01*
X108250500Y-115926019D01*
X108250500Y-113477522D01*
X113199500Y-113477522D01*
X113199500Y-113622477D01*
X113237014Y-113762480D01*
X113237015Y-113762482D01*
X113237016Y-113762485D01*
X113309491Y-113888015D01*
X113411985Y-113990509D01*
X113537515Y-114062984D01*
X113537519Y-114062985D01*
X113640561Y-114090596D01*
X113677904Y-114119250D01*
X113684047Y-114165918D01*
X113655393Y-114203261D01*
X113640561Y-114209404D01*
X113537519Y-114237014D01*
X113537515Y-114237016D01*
X113411986Y-114309490D01*
X113411981Y-114309494D01*
X113309494Y-114411981D01*
X113309490Y-114411986D01*
X113237016Y-114537515D01*
X113237014Y-114537519D01*
X113199500Y-114677522D01*
X113199500Y-114822477D01*
X113237014Y-114962480D01*
X113237015Y-114962482D01*
X113237016Y-114962485D01*
X113309491Y-115088015D01*
X113411985Y-115190509D01*
X113537515Y-115262984D01*
X113537519Y-115262985D01*
X113677523Y-115300500D01*
X113677525Y-115300500D01*
X113822476Y-115300500D01*
X113884206Y-115283958D01*
X113962485Y-115262984D01*
X114088015Y-115190509D01*
X114190509Y-115088015D01*
X114262984Y-114962485D01*
X114272755Y-114926019D01*
X128099500Y-114926019D01*
X128099500Y-115031480D01*
X128126790Y-115133330D01*
X128126792Y-115133334D01*
X128126793Y-115133337D01*
X128179520Y-115224663D01*
X128254087Y-115299230D01*
X128345413Y-115351957D01*
X128345417Y-115351958D01*
X128345419Y-115351959D01*
X128447269Y-115379249D01*
X128447271Y-115379250D01*
X128447273Y-115379250D01*
X128552729Y-115379250D01*
X128552729Y-115379249D01*
X128654587Y-115351957D01*
X128745913Y-115299230D01*
X128820480Y-115224663D01*
X128873207Y-115133337D01*
X128900499Y-115031479D01*
X128900500Y-115031479D01*
X128900500Y-114926020D01*
X128900499Y-114926019D01*
X128873209Y-114824169D01*
X128873208Y-114824167D01*
X128873207Y-114824163D01*
X128820480Y-114732837D01*
X128745913Y-114658270D01*
X128654587Y-114605543D01*
X128654584Y-114605542D01*
X128654580Y-114605540D01*
X128552730Y-114578250D01*
X128552727Y-114578250D01*
X128447273Y-114578250D01*
X128447270Y-114578250D01*
X128345419Y-114605540D01*
X128345413Y-114605543D01*
X128254088Y-114658269D01*
X128254083Y-114658273D01*
X128179523Y-114732833D01*
X128179519Y-114732838D01*
X128126793Y-114824163D01*
X128126790Y-114824169D01*
X128099500Y-114926019D01*
X114272755Y-114926019D01*
X114278100Y-114906074D01*
X114300500Y-114822477D01*
X114300500Y-114677522D01*
X114262985Y-114537519D01*
X114262984Y-114537515D01*
X114190509Y-114411985D01*
X114088015Y-114309491D01*
X113962485Y-114237016D01*
X113962482Y-114237015D01*
X113962480Y-114237014D01*
X113859438Y-114209404D01*
X113822095Y-114180750D01*
X113815952Y-114134082D01*
X113844606Y-114096739D01*
X113859438Y-114090596D01*
X113909453Y-114077194D01*
X113962485Y-114062984D01*
X114088015Y-113990509D01*
X114131255Y-113947269D01*
X133599500Y-113947269D01*
X133599500Y-114052730D01*
X133626790Y-114154580D01*
X133626792Y-114154584D01*
X133626793Y-114154587D01*
X133679520Y-114245913D01*
X133754087Y-114320480D01*
X133845413Y-114373207D01*
X133845417Y-114373208D01*
X133845419Y-114373209D01*
X133947269Y-114400499D01*
X133947271Y-114400500D01*
X133947273Y-114400500D01*
X134052729Y-114400500D01*
X134052729Y-114400499D01*
X134154587Y-114373207D01*
X134245913Y-114320480D01*
X134320480Y-114245913D01*
X134373207Y-114154587D01*
X134400499Y-114052729D01*
X134400500Y-114052729D01*
X134400500Y-113947270D01*
X134400499Y-113947269D01*
X134373209Y-113845419D01*
X134373208Y-113845417D01*
X134373207Y-113845413D01*
X134320480Y-113754087D01*
X134245913Y-113679520D01*
X134154587Y-113626793D01*
X134154584Y-113626792D01*
X134154580Y-113626790D01*
X134052730Y-113599500D01*
X134052727Y-113599500D01*
X133947273Y-113599500D01*
X133947270Y-113599500D01*
X133845419Y-113626790D01*
X133845413Y-113626793D01*
X133754088Y-113679519D01*
X133754083Y-113679523D01*
X133679523Y-113754083D01*
X133679519Y-113754088D01*
X133626793Y-113845413D01*
X133626790Y-113845419D01*
X133599500Y-113947269D01*
X114131255Y-113947269D01*
X114190509Y-113888015D01*
X114262984Y-113762485D01*
X114299344Y-113626790D01*
X114300500Y-113622477D01*
X114300500Y-113477522D01*
X114262985Y-113337519D01*
X114262984Y-113337515D01*
X114190509Y-113211985D01*
X114088015Y-113109491D01*
X113962485Y-113037016D01*
X113962482Y-113037015D01*
X113962480Y-113037014D01*
X113822477Y-112999500D01*
X113822475Y-112999500D01*
X113677525Y-112999500D01*
X113677523Y-112999500D01*
X113537519Y-113037014D01*
X113537515Y-113037016D01*
X113411986Y-113109490D01*
X113411981Y-113109494D01*
X113309494Y-113211981D01*
X113309490Y-113211986D01*
X113237016Y-113337515D01*
X113237014Y-113337519D01*
X113199500Y-113477522D01*
X108250500Y-113477522D01*
X108250500Y-112697269D01*
X118599500Y-112697269D01*
X118599500Y-112802730D01*
X118626790Y-112904580D01*
X118626792Y-112904584D01*
X118626793Y-112904587D01*
X118679520Y-112995913D01*
X118754087Y-113070480D01*
X118845413Y-113123207D01*
X118845417Y-113123208D01*
X118845419Y-113123209D01*
X118947269Y-113150499D01*
X118947271Y-113150500D01*
X118947273Y-113150500D01*
X119052729Y-113150500D01*
X119052729Y-113150499D01*
X119154587Y-113123207D01*
X119245913Y-113070480D01*
X119320480Y-112995913D01*
X119373207Y-112904587D01*
X119400499Y-112802729D01*
X119400500Y-112802729D01*
X119400500Y-112697270D01*
X119400499Y-112697269D01*
X119373209Y-112595419D01*
X119373208Y-112595417D01*
X119373207Y-112595413D01*
X119320480Y-112504087D01*
X119245913Y-112429520D01*
X119154587Y-112376793D01*
X119154584Y-112376792D01*
X119154580Y-112376790D01*
X119052730Y-112349500D01*
X119052727Y-112349500D01*
X118947273Y-112349500D01*
X118947270Y-112349500D01*
X118845419Y-112376790D01*
X118845413Y-112376793D01*
X118754088Y-112429519D01*
X118754083Y-112429523D01*
X118679523Y-112504083D01*
X118679519Y-112504088D01*
X118626793Y-112595413D01*
X118626790Y-112595419D01*
X118599500Y-112697269D01*
X108250500Y-112697269D01*
X108250500Y-111697269D01*
X118599500Y-111697269D01*
X118599500Y-111802730D01*
X118626790Y-111904580D01*
X118626792Y-111904584D01*
X118626793Y-111904587D01*
X118679520Y-111995913D01*
X118754087Y-112070480D01*
X118845413Y-112123207D01*
X118845417Y-112123208D01*
X118845419Y-112123209D01*
X118947269Y-112150499D01*
X118947271Y-112150500D01*
X118947273Y-112150500D01*
X119052729Y-112150500D01*
X119052729Y-112150499D01*
X119154587Y-112123207D01*
X119245913Y-112070480D01*
X119320480Y-111995913D01*
X119373207Y-111904587D01*
X119400499Y-111802729D01*
X119400500Y-111802729D01*
X119400500Y-111697270D01*
X119400499Y-111697269D01*
X119373209Y-111595419D01*
X119373208Y-111595417D01*
X119373207Y-111595413D01*
X119320480Y-111504087D01*
X119245913Y-111429520D01*
X119154587Y-111376793D01*
X119154584Y-111376792D01*
X119154580Y-111376790D01*
X119052730Y-111349500D01*
X119052727Y-111349500D01*
X118947273Y-111349500D01*
X118947270Y-111349500D01*
X118845419Y-111376790D01*
X118845413Y-111376793D01*
X118754088Y-111429519D01*
X118754083Y-111429523D01*
X118679523Y-111504083D01*
X118679519Y-111504088D01*
X118626793Y-111595413D01*
X118626790Y-111595419D01*
X118599500Y-111697269D01*
X108250500Y-111697269D01*
X108250500Y-111197269D01*
X129849500Y-111197269D01*
X129849500Y-111302730D01*
X129876790Y-111404580D01*
X129876792Y-111404584D01*
X129876793Y-111404587D01*
X129929520Y-111495913D01*
X130004087Y-111570480D01*
X130095413Y-111623207D01*
X130095417Y-111623208D01*
X130095419Y-111623209D01*
X130197269Y-111650499D01*
X130197271Y-111650500D01*
X130197273Y-111650500D01*
X130302729Y-111650500D01*
X130302729Y-111650499D01*
X130365059Y-111633798D01*
X130404580Y-111623209D01*
X130404580Y-111623208D01*
X130404587Y-111623207D01*
X130495913Y-111570480D01*
X130570480Y-111495913D01*
X130623207Y-111404587D01*
X130626058Y-111393949D01*
X130650499Y-111302730D01*
X130650500Y-111302729D01*
X130650500Y-111197270D01*
X130650499Y-111197269D01*
X130623209Y-111095419D01*
X130623208Y-111095417D01*
X130623207Y-111095413D01*
X130570480Y-111004087D01*
X130495913Y-110929520D01*
X130404587Y-110876793D01*
X130404584Y-110876792D01*
X130404580Y-110876790D01*
X130302730Y-110849500D01*
X130302727Y-110849500D01*
X130197273Y-110849500D01*
X130197270Y-110849500D01*
X130095419Y-110876790D01*
X130095413Y-110876793D01*
X130004088Y-110929519D01*
X130004083Y-110929523D01*
X129929523Y-111004083D01*
X129929519Y-111004088D01*
X129876793Y-111095413D01*
X129876790Y-111095419D01*
X129849500Y-111197269D01*
X108250500Y-111197269D01*
X108250500Y-110660612D01*
X118599500Y-110660612D01*
X118599500Y-110766073D01*
X118626790Y-110867923D01*
X118626792Y-110867927D01*
X118626793Y-110867930D01*
X118679520Y-110959256D01*
X118754087Y-111033823D01*
X118845413Y-111086550D01*
X118845417Y-111086551D01*
X118845419Y-111086552D01*
X118947269Y-111113842D01*
X118947271Y-111113843D01*
X118947273Y-111113843D01*
X119052729Y-111113843D01*
X119052729Y-111113842D01*
X119121487Y-111095419D01*
X119154580Y-111086552D01*
X119154580Y-111086551D01*
X119154587Y-111086550D01*
X119245913Y-111033823D01*
X119320480Y-110959256D01*
X119373207Y-110867930D01*
X119400499Y-110766072D01*
X119400500Y-110766072D01*
X119400500Y-110660613D01*
X119400499Y-110660612D01*
X119373209Y-110558762D01*
X119373208Y-110558760D01*
X119373207Y-110558756D01*
X119320480Y-110467430D01*
X119245913Y-110392863D01*
X119154587Y-110340136D01*
X119154584Y-110340135D01*
X119154580Y-110340133D01*
X119052730Y-110312843D01*
X119052727Y-110312843D01*
X118947273Y-110312843D01*
X118947270Y-110312843D01*
X118845419Y-110340133D01*
X118845413Y-110340136D01*
X118754088Y-110392862D01*
X118754083Y-110392866D01*
X118679523Y-110467426D01*
X118679519Y-110467431D01*
X118626793Y-110558756D01*
X118626790Y-110558762D01*
X118599500Y-110660612D01*
X108250500Y-110660612D01*
X108250500Y-109947269D01*
X134849500Y-109947269D01*
X134849500Y-110052730D01*
X134876790Y-110154580D01*
X134876792Y-110154584D01*
X134876793Y-110154587D01*
X134929520Y-110245913D01*
X135004087Y-110320480D01*
X135095413Y-110373207D01*
X135095417Y-110373208D01*
X135095419Y-110373209D01*
X135197269Y-110400499D01*
X135197271Y-110400500D01*
X135197273Y-110400500D01*
X135302729Y-110400500D01*
X135302729Y-110400499D01*
X135404587Y-110373207D01*
X135495913Y-110320480D01*
X135570480Y-110245913D01*
X135623207Y-110154587D01*
X135650499Y-110052729D01*
X135650500Y-110052729D01*
X135650500Y-109947270D01*
X135650499Y-109947269D01*
X135623209Y-109845419D01*
X135623208Y-109845417D01*
X135623207Y-109845413D01*
X135570480Y-109754087D01*
X135495913Y-109679520D01*
X135404587Y-109626793D01*
X135404584Y-109626792D01*
X135404580Y-109626790D01*
X135302730Y-109599500D01*
X135302727Y-109599500D01*
X135197273Y-109599500D01*
X135197270Y-109599500D01*
X135095419Y-109626790D01*
X135095413Y-109626793D01*
X135004088Y-109679519D01*
X135004083Y-109679523D01*
X134929523Y-109754083D01*
X134929519Y-109754088D01*
X134876793Y-109845413D01*
X134876790Y-109845419D01*
X134849500Y-109947269D01*
X108250500Y-109947269D01*
X108250500Y-100928385D01*
X110149500Y-100928385D01*
X110149500Y-101101614D01*
X110176598Y-101272703D01*
X110230127Y-101437446D01*
X110308769Y-101591790D01*
X110410584Y-101731926D01*
X110533073Y-101854415D01*
X110673209Y-101956230D01*
X110673212Y-101956232D01*
X110827555Y-102034873D01*
X110992296Y-102088401D01*
X110992299Y-102088402D01*
X111163389Y-102115500D01*
X111163393Y-102115500D01*
X111336607Y-102115500D01*
X111336611Y-102115500D01*
X111507701Y-102088402D01*
X111672445Y-102034873D01*
X111826788Y-101956232D01*
X111966928Y-101854414D01*
X112089414Y-101731928D01*
X112191232Y-101591788D01*
X112269873Y-101437445D01*
X112323402Y-101272701D01*
X112350500Y-101101611D01*
X112350500Y-100928389D01*
X112323402Y-100757299D01*
X112269873Y-100592555D01*
X112191232Y-100438212D01*
X112089414Y-100298072D01*
X111966928Y-100175586D01*
X111966927Y-100175585D01*
X111966926Y-100175584D01*
X111826790Y-100073769D01*
X111672446Y-99995127D01*
X111507702Y-99941598D01*
X111507704Y-99941598D01*
X111336614Y-99914500D01*
X111336611Y-99914500D01*
X111163389Y-99914500D01*
X111163385Y-99914500D01*
X110992296Y-99941598D01*
X110827553Y-99995127D01*
X110673209Y-100073769D01*
X110533073Y-100175584D01*
X110533073Y-100175585D01*
X110533072Y-100175586D01*
X110410586Y-100298072D01*
X110410585Y-100298073D01*
X110410584Y-100298073D01*
X110308769Y-100438209D01*
X110230127Y-100592553D01*
X110176598Y-100757296D01*
X110149500Y-100928385D01*
X108250500Y-100928385D01*
X108250500Y-99697269D01*
X120349500Y-99697269D01*
X120349500Y-99802730D01*
X120376790Y-99904580D01*
X120376792Y-99904584D01*
X120376793Y-99904587D01*
X120429520Y-99995913D01*
X120504087Y-100070480D01*
X120595413Y-100123207D01*
X120595417Y-100123208D01*
X120595419Y-100123209D01*
X120697269Y-100150499D01*
X120697271Y-100150500D01*
X120697273Y-100150500D01*
X120802729Y-100150500D01*
X120802729Y-100150499D01*
X120904587Y-100123207D01*
X120995913Y-100070480D01*
X121070480Y-99995913D01*
X121123207Y-99904587D01*
X121150499Y-99802729D01*
X121150500Y-99802729D01*
X121150500Y-99697270D01*
X121150499Y-99697269D01*
X123099500Y-99697269D01*
X123099500Y-99802730D01*
X123126790Y-99904580D01*
X123126792Y-99904584D01*
X123126793Y-99904587D01*
X123179520Y-99995913D01*
X123254087Y-100070480D01*
X123345413Y-100123207D01*
X123345417Y-100123208D01*
X123345419Y-100123209D01*
X123447269Y-100150499D01*
X123447271Y-100150500D01*
X123447273Y-100150500D01*
X123552729Y-100150500D01*
X123552729Y-100150499D01*
X123654587Y-100123207D01*
X123745913Y-100070480D01*
X123820480Y-99995913D01*
X123873207Y-99904587D01*
X123900499Y-99802729D01*
X123900500Y-99802729D01*
X123900500Y-99697270D01*
X123900499Y-99697269D01*
X123873209Y-99595419D01*
X123873208Y-99595417D01*
X123873207Y-99595413D01*
X123820480Y-99504087D01*
X123745913Y-99429520D01*
X123654587Y-99376793D01*
X123654584Y-99376792D01*
X123654580Y-99376790D01*
X123552730Y-99349500D01*
X123552727Y-99349500D01*
X123447273Y-99349500D01*
X123447270Y-99349500D01*
X123345419Y-99376790D01*
X123345413Y-99376793D01*
X123254088Y-99429519D01*
X123254083Y-99429523D01*
X123179523Y-99504083D01*
X123179519Y-99504088D01*
X123126793Y-99595413D01*
X123126790Y-99595419D01*
X123099500Y-99697269D01*
X121150499Y-99697269D01*
X121123209Y-99595419D01*
X121123208Y-99595417D01*
X121123207Y-99595413D01*
X121070480Y-99504087D01*
X120995913Y-99429520D01*
X120904587Y-99376793D01*
X120904584Y-99376792D01*
X120904580Y-99376790D01*
X120802730Y-99349500D01*
X120802727Y-99349500D01*
X120697273Y-99349500D01*
X120697270Y-99349500D01*
X120595419Y-99376790D01*
X120595413Y-99376793D01*
X120504088Y-99429519D01*
X120504083Y-99429523D01*
X120429523Y-99504083D01*
X120429519Y-99504088D01*
X120376793Y-99595413D01*
X120376790Y-99595419D01*
X120349500Y-99697269D01*
X108250500Y-99697269D01*
X108250500Y-97600322D01*
X110149500Y-97600322D01*
X110149500Y-99349677D01*
X110164032Y-99422738D01*
X110168564Y-99429520D01*
X110219399Y-99505601D01*
X110281615Y-99547172D01*
X110302261Y-99560967D01*
X110360473Y-99572545D01*
X110375322Y-99575499D01*
X110375323Y-99575500D01*
X110375326Y-99575500D01*
X112124677Y-99575500D01*
X112124677Y-99575499D01*
X112153980Y-99569670D01*
X112197738Y-99560967D01*
X112197739Y-99560966D01*
X112197740Y-99560966D01*
X112280601Y-99505601D01*
X112335966Y-99422740D01*
X112335966Y-99422739D01*
X112335967Y-99422738D01*
X112350499Y-99349677D01*
X112350500Y-99349677D01*
X112350500Y-97600323D01*
X112350499Y-97600322D01*
X112335967Y-97527261D01*
X112318127Y-97500561D01*
X112280601Y-97444399D01*
X112222918Y-97405857D01*
X112197738Y-97389032D01*
X112124677Y-97374500D01*
X112124674Y-97374500D01*
X110375326Y-97374500D01*
X110375323Y-97374500D01*
X110302261Y-97389032D01*
X110219399Y-97444399D01*
X110164032Y-97527261D01*
X110149500Y-97600322D01*
X108250500Y-97600322D01*
X108250500Y-97115846D01*
X127637706Y-97115846D01*
X127766647Y-97169256D01*
X127766654Y-97169258D01*
X127921203Y-97199999D01*
X127921204Y-97200000D01*
X128078796Y-97200000D01*
X128078796Y-97199999D01*
X128233345Y-97169258D01*
X128233361Y-97169253D01*
X128362292Y-97115847D01*
X128362293Y-97115847D01*
X128000000Y-96753554D01*
X127637706Y-97115846D01*
X108250500Y-97115846D01*
X108250500Y-96321203D01*
X127200000Y-96321203D01*
X127200000Y-96478796D01*
X127230741Y-96633345D01*
X127230743Y-96633352D01*
X127284152Y-96762292D01*
X127646445Y-96399999D01*
X127616609Y-96370163D01*
X127850000Y-96370163D01*
X127850000Y-96429837D01*
X127872836Y-96484968D01*
X127915032Y-96527164D01*
X127970163Y-96550000D01*
X128029837Y-96550000D01*
X128084968Y-96527164D01*
X128127164Y-96484968D01*
X128150000Y-96429837D01*
X128150000Y-96399999D01*
X128353554Y-96399999D01*
X128353554Y-96400000D01*
X128715846Y-96762292D01*
X128740259Y-96757437D01*
X128786425Y-96766620D01*
X128795744Y-96774268D01*
X128861985Y-96840509D01*
X128987515Y-96912984D01*
X128987519Y-96912985D01*
X129127523Y-96950500D01*
X129127525Y-96950500D01*
X129272476Y-96950500D01*
X129334206Y-96933958D01*
X129412485Y-96912984D01*
X129538015Y-96840509D01*
X129640509Y-96738015D01*
X129712984Y-96612485D01*
X129727540Y-96558158D01*
X129750500Y-96472477D01*
X129750500Y-96327522D01*
X129712985Y-96187519D01*
X129712984Y-96187515D01*
X129640509Y-96061985D01*
X129538015Y-95959491D01*
X129412485Y-95887016D01*
X129412482Y-95887015D01*
X129412480Y-95887014D01*
X129272477Y-95849500D01*
X129272475Y-95849500D01*
X129127525Y-95849500D01*
X129127523Y-95849500D01*
X128987519Y-95887014D01*
X128987515Y-95887016D01*
X128861986Y-95959490D01*
X128861981Y-95959494D01*
X128795745Y-96025730D01*
X128752258Y-96043743D01*
X128740261Y-96042562D01*
X128715846Y-96037706D01*
X128353554Y-96399999D01*
X128150000Y-96399999D01*
X128150000Y-96370163D01*
X128127164Y-96315032D01*
X128084968Y-96272836D01*
X128029837Y-96250000D01*
X127970163Y-96250000D01*
X127915032Y-96272836D01*
X127872836Y-96315032D01*
X127850000Y-96370163D01*
X127616609Y-96370163D01*
X127284152Y-96037706D01*
X127230742Y-96166650D01*
X127230741Y-96166655D01*
X127200000Y-96321203D01*
X108250500Y-96321203D01*
X108250500Y-95697269D01*
X125849500Y-95697269D01*
X125849500Y-95802730D01*
X125876790Y-95904580D01*
X125876792Y-95904584D01*
X125876793Y-95904587D01*
X125929520Y-95995913D01*
X126004087Y-96070480D01*
X126095413Y-96123207D01*
X126095417Y-96123208D01*
X126095419Y-96123209D01*
X126197269Y-96150499D01*
X126197271Y-96150500D01*
X126197273Y-96150500D01*
X126302729Y-96150500D01*
X126302729Y-96150499D01*
X126404587Y-96123207D01*
X126495913Y-96070480D01*
X126570480Y-95995913D01*
X126623207Y-95904587D01*
X126650499Y-95802729D01*
X126650500Y-95802729D01*
X126650500Y-95697270D01*
X126650499Y-95697269D01*
X126623209Y-95595419D01*
X126623208Y-95595417D01*
X126623207Y-95595413D01*
X126570480Y-95504087D01*
X126513662Y-95447269D01*
X127599500Y-95447269D01*
X127599500Y-95552730D01*
X127626790Y-95654580D01*
X127626792Y-95654584D01*
X127626793Y-95654587D01*
X127637305Y-95672795D01*
X127656318Y-95705727D01*
X127671261Y-95731608D01*
X127679520Y-95745913D01*
X127754087Y-95820480D01*
X127794273Y-95843681D01*
X127807007Y-95853453D01*
X127999999Y-96046445D01*
X128192992Y-95853452D01*
X128205720Y-95843685D01*
X128245913Y-95820480D01*
X128320480Y-95745913D01*
X128373207Y-95654587D01*
X128400499Y-95552729D01*
X128400500Y-95552729D01*
X128400500Y-95447270D01*
X128400499Y-95447269D01*
X128373209Y-95345419D01*
X128373208Y-95345417D01*
X128373207Y-95345413D01*
X128320480Y-95254087D01*
X128245913Y-95179520D01*
X128154587Y-95126793D01*
X128154584Y-95126792D01*
X128154580Y-95126790D01*
X128052730Y-95099500D01*
X128052727Y-95099500D01*
X127947273Y-95099500D01*
X127947270Y-95099500D01*
X127845419Y-95126790D01*
X127845413Y-95126793D01*
X127754088Y-95179519D01*
X127754083Y-95179523D01*
X127679523Y-95254083D01*
X127679519Y-95254088D01*
X127626793Y-95345413D01*
X127626790Y-95345419D01*
X127599500Y-95447269D01*
X126513662Y-95447269D01*
X126495913Y-95429520D01*
X126404587Y-95376793D01*
X126404584Y-95376792D01*
X126404580Y-95376790D01*
X126302730Y-95349500D01*
X126302727Y-95349500D01*
X126197273Y-95349500D01*
X126197270Y-95349500D01*
X126095419Y-95376790D01*
X126095413Y-95376793D01*
X126004088Y-95429519D01*
X126004083Y-95429523D01*
X125929523Y-95504083D01*
X125929519Y-95504088D01*
X125876793Y-95595413D01*
X125876790Y-95595419D01*
X125849500Y-95697269D01*
X108250500Y-95697269D01*
X108250500Y-94270885D01*
X110149500Y-94270885D01*
X110149500Y-94444114D01*
X110176598Y-94615203D01*
X110230127Y-94779946D01*
X110308769Y-94934290D01*
X110410584Y-95074426D01*
X110533073Y-95196915D01*
X110653158Y-95284162D01*
X110673212Y-95298732D01*
X110827555Y-95377373D01*
X110992296Y-95430901D01*
X110992299Y-95430902D01*
X111163389Y-95458000D01*
X111163393Y-95458000D01*
X111336607Y-95458000D01*
X111336611Y-95458000D01*
X111507701Y-95430902D01*
X111672445Y-95377373D01*
X111826788Y-95298732D01*
X111966928Y-95196914D01*
X112089414Y-95074428D01*
X112191232Y-94934288D01*
X112269873Y-94779945D01*
X112323402Y-94615201D01*
X112350500Y-94444111D01*
X112350500Y-94270889D01*
X112350499Y-94270885D01*
X112689500Y-94270885D01*
X112689500Y-94444114D01*
X112716598Y-94615203D01*
X112770127Y-94779946D01*
X112848769Y-94934290D01*
X112950584Y-95074426D01*
X113073073Y-95196915D01*
X113193158Y-95284162D01*
X113213212Y-95298732D01*
X113367555Y-95377373D01*
X113532296Y-95430901D01*
X113532299Y-95430902D01*
X113703389Y-95458000D01*
X113703393Y-95458000D01*
X113876607Y-95458000D01*
X113876611Y-95458000D01*
X114047701Y-95430902D01*
X114212445Y-95377373D01*
X114366788Y-95298732D01*
X114506928Y-95196914D01*
X114629414Y-95074428D01*
X114731232Y-94934288D01*
X114809873Y-94779945D01*
X114863402Y-94615201D01*
X114890500Y-94444111D01*
X114890500Y-94270889D01*
X114878840Y-94197273D01*
X114878839Y-94197269D01*
X120599500Y-94197269D01*
X120599500Y-94302730D01*
X120626790Y-94404580D01*
X120626792Y-94404584D01*
X120626793Y-94404587D01*
X120679520Y-94495913D01*
X120754087Y-94570480D01*
X120845413Y-94623207D01*
X120845417Y-94623208D01*
X120845419Y-94623209D01*
X120947269Y-94650499D01*
X120947271Y-94650500D01*
X120947273Y-94650500D01*
X121052729Y-94650500D01*
X121052729Y-94650499D01*
X121154587Y-94623207D01*
X121245913Y-94570480D01*
X121320480Y-94495913D01*
X121373207Y-94404587D01*
X121400499Y-94302729D01*
X121400500Y-94302729D01*
X121400500Y-94197270D01*
X121400499Y-94197269D01*
X121373209Y-94095419D01*
X121373208Y-94095417D01*
X121373207Y-94095413D01*
X121320480Y-94004087D01*
X121245913Y-93929520D01*
X121154587Y-93876793D01*
X121154584Y-93876792D01*
X121154580Y-93876790D01*
X121052730Y-93849500D01*
X121052727Y-93849500D01*
X120947273Y-93849500D01*
X120947270Y-93849500D01*
X120845419Y-93876790D01*
X120845413Y-93876793D01*
X120754088Y-93929519D01*
X120754083Y-93929523D01*
X120679523Y-94004083D01*
X120679519Y-94004088D01*
X120626793Y-94095413D01*
X120626790Y-94095419D01*
X120599500Y-94197269D01*
X114878839Y-94197269D01*
X114864146Y-94104499D01*
X114863402Y-94099799D01*
X114809873Y-93935055D01*
X114731232Y-93780712D01*
X114730410Y-93779580D01*
X114629415Y-93640573D01*
X114561111Y-93572269D01*
X132499500Y-93572269D01*
X132499500Y-93677730D01*
X132526790Y-93779580D01*
X132526792Y-93779584D01*
X132526793Y-93779587D01*
X132579520Y-93870913D01*
X132654087Y-93945480D01*
X132745413Y-93998207D01*
X132745417Y-93998208D01*
X132745419Y-93998209D01*
X132847269Y-94025499D01*
X132847271Y-94025500D01*
X132847273Y-94025500D01*
X132952729Y-94025500D01*
X132952729Y-94025499D01*
X133032639Y-94004088D01*
X133054580Y-93998209D01*
X133054580Y-93998208D01*
X133054587Y-93998207D01*
X133145913Y-93945480D01*
X133220480Y-93870913D01*
X133273207Y-93779587D01*
X133277108Y-93765030D01*
X133300499Y-93677730D01*
X133300500Y-93677729D01*
X133300500Y-93572270D01*
X133300499Y-93572269D01*
X133273209Y-93470419D01*
X133273208Y-93470417D01*
X133273207Y-93470413D01*
X133220480Y-93379087D01*
X133145913Y-93304520D01*
X133054587Y-93251793D01*
X133054584Y-93251792D01*
X133054580Y-93251790D01*
X132952730Y-93224500D01*
X132952727Y-93224500D01*
X132847273Y-93224500D01*
X132847270Y-93224500D01*
X132745419Y-93251790D01*
X132745413Y-93251793D01*
X132654088Y-93304519D01*
X132654083Y-93304523D01*
X132579523Y-93379083D01*
X132579519Y-93379088D01*
X132526793Y-93470413D01*
X132526790Y-93470419D01*
X132499500Y-93572269D01*
X114561111Y-93572269D01*
X114506926Y-93518084D01*
X114366790Y-93416269D01*
X114212446Y-93337627D01*
X114047702Y-93284098D01*
X114047704Y-93284098D01*
X113876614Y-93257000D01*
X113876611Y-93257000D01*
X113703389Y-93257000D01*
X113703385Y-93257000D01*
X113532296Y-93284098D01*
X113367553Y-93337627D01*
X113213209Y-93416269D01*
X113073073Y-93518084D01*
X113073073Y-93518085D01*
X113073072Y-93518086D01*
X112950586Y-93640572D01*
X112950585Y-93640573D01*
X112950584Y-93640573D01*
X112848769Y-93780709D01*
X112770127Y-93935053D01*
X112716598Y-94099796D01*
X112689500Y-94270885D01*
X112350499Y-94270885D01*
X112323402Y-94099799D01*
X112269873Y-93935055D01*
X112191232Y-93780712D01*
X112190410Y-93779580D01*
X112089415Y-93640573D01*
X111966926Y-93518084D01*
X111826790Y-93416269D01*
X111672446Y-93337627D01*
X111507702Y-93284098D01*
X111507704Y-93284098D01*
X111336614Y-93257000D01*
X111336611Y-93257000D01*
X111163389Y-93257000D01*
X111163385Y-93257000D01*
X110992296Y-93284098D01*
X110827553Y-93337627D01*
X110673209Y-93416269D01*
X110533073Y-93518084D01*
X110533073Y-93518085D01*
X110533072Y-93518086D01*
X110410586Y-93640572D01*
X110410585Y-93640573D01*
X110410584Y-93640573D01*
X110308769Y-93780709D01*
X110230127Y-93935053D01*
X110176598Y-94099796D01*
X110149500Y-94270885D01*
X108250500Y-94270885D01*
X108250500Y-88379674D01*
X109900000Y-88379674D01*
X109900000Y-89027500D01*
X110816988Y-89027500D01*
X110784075Y-89084507D01*
X110750000Y-89211674D01*
X110750000Y-89343326D01*
X110784075Y-89470493D01*
X110816988Y-89527500D01*
X109900000Y-89527500D01*
X109900000Y-90175325D01*
X109906403Y-90234880D01*
X109956646Y-90369586D01*
X109956648Y-90369591D01*
X110042811Y-90484688D01*
X110157908Y-90570851D01*
X110157913Y-90570853D01*
X110292619Y-90621096D01*
X110352174Y-90627500D01*
X110962854Y-90627500D01*
X111006341Y-90645513D01*
X111024354Y-90689000D01*
X111006341Y-90732487D01*
X110981859Y-90747490D01*
X110827553Y-90797627D01*
X110673209Y-90876269D01*
X110533073Y-90978084D01*
X110533073Y-90978085D01*
X110533072Y-90978086D01*
X110410586Y-91100572D01*
X110410585Y-91100573D01*
X110410584Y-91100573D01*
X110308769Y-91240709D01*
X110230127Y-91395053D01*
X110176598Y-91559796D01*
X110149500Y-91730885D01*
X110149500Y-91904114D01*
X110176598Y-92075203D01*
X110230127Y-92239946D01*
X110308769Y-92394290D01*
X110410584Y-92534426D01*
X110410585Y-92534427D01*
X110410586Y-92534428D01*
X110533072Y-92656914D01*
X110673212Y-92758732D01*
X110827555Y-92837373D01*
X110992296Y-92890901D01*
X110992299Y-92890902D01*
X111163389Y-92918000D01*
X111163393Y-92918000D01*
X111336607Y-92918000D01*
X111336611Y-92918000D01*
X111507701Y-92890902D01*
X111672445Y-92837373D01*
X111826788Y-92758732D01*
X111966928Y-92656914D01*
X112089414Y-92534428D01*
X112191232Y-92394288D01*
X112269873Y-92239945D01*
X112323402Y-92075201D01*
X112350500Y-91904111D01*
X112350500Y-91730889D01*
X112350499Y-91730885D01*
X112689500Y-91730885D01*
X112689500Y-91904114D01*
X112716598Y-92075203D01*
X112770127Y-92239946D01*
X112848769Y-92394290D01*
X112950584Y-92534426D01*
X112950585Y-92534427D01*
X112950586Y-92534428D01*
X113073072Y-92656914D01*
X113213212Y-92758732D01*
X113367555Y-92837373D01*
X113532296Y-92890901D01*
X113532299Y-92890902D01*
X113703389Y-92918000D01*
X113703393Y-92918000D01*
X113876607Y-92918000D01*
X113876611Y-92918000D01*
X114047701Y-92890902D01*
X114212445Y-92837373D01*
X114366788Y-92758732D01*
X114506928Y-92656914D01*
X114629414Y-92534428D01*
X114731232Y-92394288D01*
X114809873Y-92239945D01*
X114863402Y-92075201D01*
X114883664Y-91947269D01*
X127449500Y-91947269D01*
X127449500Y-92052730D01*
X127476790Y-92154580D01*
X127476792Y-92154584D01*
X127476793Y-92154587D01*
X127529520Y-92245913D01*
X127604087Y-92320480D01*
X127695413Y-92373207D01*
X127695417Y-92373208D01*
X127695419Y-92373209D01*
X127797269Y-92400499D01*
X127797271Y-92400500D01*
X127797273Y-92400500D01*
X127902729Y-92400500D01*
X127902729Y-92400499D01*
X128004587Y-92373207D01*
X128095913Y-92320480D01*
X128170480Y-92245913D01*
X128223207Y-92154587D01*
X128250499Y-92052729D01*
X128250500Y-92052729D01*
X128250500Y-91947270D01*
X128250499Y-91947269D01*
X132599500Y-91947269D01*
X132599500Y-92052730D01*
X132626790Y-92154580D01*
X132626792Y-92154584D01*
X132626793Y-92154587D01*
X132679520Y-92245913D01*
X132754087Y-92320480D01*
X132845413Y-92373207D01*
X132845417Y-92373208D01*
X132845419Y-92373209D01*
X132947269Y-92400499D01*
X132947271Y-92400500D01*
X132947273Y-92400500D01*
X133052729Y-92400500D01*
X133052729Y-92400499D01*
X133154587Y-92373207D01*
X133245913Y-92320480D01*
X133320480Y-92245913D01*
X133373207Y-92154587D01*
X133400499Y-92052729D01*
X133400500Y-92052729D01*
X133400500Y-91947270D01*
X133400499Y-91947269D01*
X133373209Y-91845419D01*
X133373208Y-91845417D01*
X133373207Y-91845413D01*
X133320480Y-91754087D01*
X133245913Y-91679520D01*
X133154587Y-91626793D01*
X133154584Y-91626792D01*
X133154580Y-91626790D01*
X133052730Y-91599500D01*
X133052727Y-91599500D01*
X132947273Y-91599500D01*
X132947270Y-91599500D01*
X132845419Y-91626790D01*
X132845413Y-91626793D01*
X132754088Y-91679519D01*
X132754083Y-91679523D01*
X132679523Y-91754083D01*
X132679519Y-91754088D01*
X132626793Y-91845413D01*
X132626790Y-91845419D01*
X132599500Y-91947269D01*
X128250499Y-91947269D01*
X128223209Y-91845419D01*
X128223208Y-91845417D01*
X128223207Y-91845413D01*
X128170480Y-91754087D01*
X128095913Y-91679520D01*
X128004587Y-91626793D01*
X128004584Y-91626792D01*
X128004580Y-91626790D01*
X127902730Y-91599500D01*
X127902727Y-91599500D01*
X127797273Y-91599500D01*
X127797270Y-91599500D01*
X127695419Y-91626790D01*
X127695413Y-91626793D01*
X127604088Y-91679519D01*
X127604083Y-91679523D01*
X127529523Y-91754083D01*
X127529519Y-91754088D01*
X127476793Y-91845413D01*
X127476790Y-91845419D01*
X127449500Y-91947269D01*
X114883664Y-91947269D01*
X114890500Y-91904111D01*
X114890500Y-91730889D01*
X114863402Y-91559799D01*
X114825214Y-91442269D01*
X145144500Y-91442269D01*
X145144500Y-91547730D01*
X145171790Y-91649580D01*
X145171792Y-91649584D01*
X145171793Y-91649587D01*
X145224520Y-91740913D01*
X145299087Y-91815480D01*
X145390413Y-91868207D01*
X145390417Y-91868208D01*
X145390419Y-91868209D01*
X145492269Y-91895499D01*
X145492271Y-91895500D01*
X145492273Y-91895500D01*
X145597729Y-91895500D01*
X145597729Y-91895499D01*
X145680927Y-91873207D01*
X145699580Y-91868209D01*
X145699580Y-91868208D01*
X145699587Y-91868207D01*
X145790913Y-91815480D01*
X145865480Y-91740913D01*
X145918207Y-91649587D01*
X145945499Y-91547729D01*
X145945500Y-91547729D01*
X145945500Y-91442270D01*
X145945499Y-91442269D01*
X145944734Y-91439411D01*
X145941548Y-91427522D01*
X148618250Y-91427522D01*
X148618250Y-91572477D01*
X148655764Y-91712480D01*
X148655765Y-91712482D01*
X148655766Y-91712485D01*
X148728241Y-91838015D01*
X148830735Y-91940509D01*
X148956265Y-92012984D01*
X148956269Y-92012985D01*
X149096273Y-92050500D01*
X149096275Y-92050500D01*
X149241226Y-92050500D01*
X149302956Y-92033958D01*
X149381235Y-92012984D01*
X149506765Y-91940509D01*
X149609259Y-91838015D01*
X149681734Y-91712485D01*
X149698590Y-91649580D01*
X149719250Y-91572477D01*
X149719250Y-91447269D01*
X160349500Y-91447269D01*
X160349500Y-91552730D01*
X160376790Y-91654580D01*
X160376792Y-91654584D01*
X160376793Y-91654587D01*
X160429520Y-91745913D01*
X160504087Y-91820480D01*
X160595413Y-91873207D01*
X160595417Y-91873208D01*
X160595419Y-91873209D01*
X160697269Y-91900499D01*
X160697271Y-91900500D01*
X160697273Y-91900500D01*
X160802729Y-91900500D01*
X160802729Y-91900499D01*
X160904587Y-91873207D01*
X160995913Y-91820480D01*
X161070480Y-91745913D01*
X161123207Y-91654587D01*
X161150499Y-91552729D01*
X161150500Y-91552729D01*
X161150500Y-91447270D01*
X161150499Y-91447269D01*
X161123209Y-91345419D01*
X161123208Y-91345417D01*
X161123207Y-91345413D01*
X161070480Y-91254087D01*
X160995913Y-91179520D01*
X160904587Y-91126793D01*
X160904584Y-91126792D01*
X160904580Y-91126790D01*
X160802730Y-91099500D01*
X160802727Y-91099500D01*
X160697273Y-91099500D01*
X160697270Y-91099500D01*
X160595419Y-91126790D01*
X160595413Y-91126793D01*
X160504088Y-91179519D01*
X160504083Y-91179523D01*
X160429523Y-91254083D01*
X160429519Y-91254088D01*
X160376793Y-91345413D01*
X160376790Y-91345419D01*
X160349500Y-91447269D01*
X149719250Y-91447269D01*
X149719250Y-91427522D01*
X149681735Y-91287519D01*
X149681734Y-91287515D01*
X149609259Y-91161985D01*
X149506765Y-91059491D01*
X149381235Y-90987016D01*
X149381230Y-90987014D01*
X149241227Y-90949500D01*
X149241225Y-90949500D01*
X149096275Y-90949500D01*
X149096273Y-90949500D01*
X148956269Y-90987014D01*
X148956265Y-90987016D01*
X148830736Y-91059490D01*
X148830731Y-91059494D01*
X148728244Y-91161981D01*
X148728240Y-91161986D01*
X148655766Y-91287515D01*
X148655764Y-91287519D01*
X148618250Y-91427522D01*
X145941548Y-91427522D01*
X145918209Y-91340419D01*
X145918208Y-91340417D01*
X145918207Y-91340413D01*
X145865480Y-91249087D01*
X145790913Y-91174520D01*
X145699587Y-91121793D01*
X145699584Y-91121792D01*
X145699580Y-91121790D01*
X145597730Y-91094500D01*
X145597727Y-91094500D01*
X145492273Y-91094500D01*
X145492270Y-91094500D01*
X145390419Y-91121790D01*
X145390413Y-91121793D01*
X145299088Y-91174519D01*
X145299083Y-91174523D01*
X145224523Y-91249083D01*
X145224519Y-91249088D01*
X145171793Y-91340413D01*
X145171790Y-91340419D01*
X145144500Y-91442269D01*
X114825214Y-91442269D01*
X114809873Y-91395055D01*
X114731232Y-91240712D01*
X114731230Y-91240709D01*
X114629415Y-91100573D01*
X114506926Y-90978084D01*
X114457631Y-90942269D01*
X156144500Y-90942269D01*
X156144500Y-91047730D01*
X156171790Y-91149580D01*
X156171792Y-91149584D01*
X156171793Y-91149587D01*
X156224520Y-91240913D01*
X156299087Y-91315480D01*
X156390413Y-91368207D01*
X156390417Y-91368208D01*
X156390419Y-91368209D01*
X156492269Y-91395499D01*
X156492271Y-91395500D01*
X156492273Y-91395500D01*
X156597728Y-91395500D01*
X156641252Y-91383838D01*
X156641252Y-91383837D01*
X156699587Y-91368207D01*
X156790913Y-91315480D01*
X156865480Y-91240913D01*
X156918207Y-91149587D01*
X156945499Y-91047729D01*
X156945500Y-91047729D01*
X156945500Y-90942270D01*
X156945499Y-90942269D01*
X156918209Y-90840419D01*
X156918208Y-90840417D01*
X156918207Y-90840413D01*
X156865480Y-90749087D01*
X156790913Y-90674520D01*
X156699587Y-90621793D01*
X156699584Y-90621792D01*
X156699580Y-90621790D01*
X156597730Y-90594500D01*
X156597727Y-90594500D01*
X156492273Y-90594500D01*
X156492270Y-90594500D01*
X156390419Y-90621790D01*
X156390413Y-90621793D01*
X156299088Y-90674519D01*
X156299083Y-90674523D01*
X156224523Y-90749083D01*
X156224519Y-90749088D01*
X156171793Y-90840413D01*
X156171790Y-90840419D01*
X156144500Y-90942269D01*
X114457631Y-90942269D01*
X114366790Y-90876269D01*
X114212446Y-90797627D01*
X114047702Y-90744098D01*
X114047704Y-90744098D01*
X113876614Y-90717000D01*
X113876611Y-90717000D01*
X113703389Y-90717000D01*
X113703385Y-90717000D01*
X113532296Y-90744098D01*
X113367553Y-90797627D01*
X113213209Y-90876269D01*
X113073073Y-90978084D01*
X113073073Y-90978085D01*
X113073072Y-90978086D01*
X112950586Y-91100572D01*
X112950585Y-91100573D01*
X112950584Y-91100573D01*
X112848769Y-91240709D01*
X112770127Y-91395053D01*
X112716598Y-91559796D01*
X112689500Y-91730885D01*
X112350499Y-91730885D01*
X112323402Y-91559799D01*
X112269873Y-91395055D01*
X112191232Y-91240712D01*
X112191230Y-91240709D01*
X112089415Y-91100573D01*
X111966926Y-90978084D01*
X111826790Y-90876269D01*
X111672446Y-90797627D01*
X111518141Y-90747490D01*
X111482349Y-90716920D01*
X111478656Y-90669995D01*
X111509226Y-90634203D01*
X111537146Y-90627500D01*
X112147826Y-90627500D01*
X112207380Y-90621096D01*
X112342086Y-90570853D01*
X112342091Y-90570851D01*
X112457188Y-90484688D01*
X112485201Y-90447269D01*
X124099500Y-90447269D01*
X124099500Y-90552730D01*
X124126790Y-90654580D01*
X124126792Y-90654584D01*
X124126793Y-90654587D01*
X124179520Y-90745913D01*
X124254087Y-90820480D01*
X124345413Y-90873207D01*
X124345417Y-90873208D01*
X124345419Y-90873209D01*
X124447269Y-90900499D01*
X124447271Y-90900500D01*
X124447273Y-90900500D01*
X124552729Y-90900500D01*
X124552729Y-90900499D01*
X124615059Y-90883798D01*
X124654580Y-90873209D01*
X124654580Y-90873208D01*
X124654587Y-90873207D01*
X124745913Y-90820480D01*
X124820480Y-90745913D01*
X124873207Y-90654587D01*
X124900499Y-90552729D01*
X124900500Y-90552729D01*
X124900500Y-90447270D01*
X124900499Y-90447269D01*
X124873209Y-90345419D01*
X124873208Y-90345417D01*
X124873207Y-90345413D01*
X124820480Y-90254087D01*
X124745913Y-90179520D01*
X124654587Y-90126793D01*
X124654584Y-90126792D01*
X124654580Y-90126790D01*
X124552730Y-90099500D01*
X124552727Y-90099500D01*
X124447273Y-90099500D01*
X124447270Y-90099500D01*
X124345419Y-90126790D01*
X124345413Y-90126793D01*
X124254088Y-90179519D01*
X124254083Y-90179523D01*
X124179523Y-90254083D01*
X124179519Y-90254088D01*
X124126793Y-90345413D01*
X124126790Y-90345419D01*
X124099500Y-90447269D01*
X112485201Y-90447269D01*
X112515807Y-90406386D01*
X112543351Y-90369591D01*
X112543353Y-90369586D01*
X112593596Y-90234880D01*
X112600000Y-90175325D01*
X112600000Y-89564646D01*
X112618013Y-89521159D01*
X112661500Y-89503146D01*
X112704987Y-89521159D01*
X112719990Y-89545641D01*
X112770127Y-89699946D01*
X112848769Y-89854290D01*
X112950584Y-89994426D01*
X113073073Y-90116915D01*
X113213209Y-90218730D01*
X113213212Y-90218732D01*
X113367555Y-90297373D01*
X113532296Y-90350901D01*
X113532299Y-90350902D01*
X113703389Y-90378000D01*
X113703393Y-90378000D01*
X113876607Y-90378000D01*
X113876611Y-90378000D01*
X114047701Y-90350902D01*
X114212445Y-90297373D01*
X114366788Y-90218732D01*
X114506928Y-90116914D01*
X114629414Y-89994428D01*
X114731232Y-89854288D01*
X114809873Y-89699945D01*
X114863402Y-89535201D01*
X114890500Y-89364111D01*
X114890500Y-89197269D01*
X139599500Y-89197269D01*
X139599500Y-89302730D01*
X139626790Y-89404580D01*
X139626792Y-89404584D01*
X139626793Y-89404587D01*
X139679520Y-89495913D01*
X139754087Y-89570480D01*
X139845413Y-89623207D01*
X139845417Y-89623208D01*
X139845419Y-89623209D01*
X139947269Y-89650499D01*
X139947271Y-89650500D01*
X139947273Y-89650500D01*
X140052729Y-89650500D01*
X140052729Y-89650499D01*
X140154587Y-89623207D01*
X140245913Y-89570480D01*
X140320480Y-89495913D01*
X140373207Y-89404587D01*
X140400499Y-89302729D01*
X140400500Y-89302729D01*
X140400500Y-89197270D01*
X140400499Y-89197269D01*
X140373209Y-89095419D01*
X140373208Y-89095417D01*
X140373207Y-89095413D01*
X140320480Y-89004087D01*
X140245913Y-88929520D01*
X140154587Y-88876793D01*
X140154584Y-88876792D01*
X140154580Y-88876790D01*
X140052730Y-88849500D01*
X140052727Y-88849500D01*
X139947273Y-88849500D01*
X139947270Y-88849500D01*
X139845419Y-88876790D01*
X139845413Y-88876793D01*
X139754088Y-88929519D01*
X139754083Y-88929523D01*
X139679523Y-89004083D01*
X139679519Y-89004088D01*
X139626793Y-89095413D01*
X139626790Y-89095419D01*
X139599500Y-89197269D01*
X114890500Y-89197269D01*
X114890500Y-89190889D01*
X114863402Y-89019799D01*
X114809873Y-88855055D01*
X114731232Y-88700712D01*
X114679413Y-88629390D01*
X114679413Y-88629388D01*
X114656076Y-88597269D01*
X135849500Y-88597269D01*
X135849500Y-88702730D01*
X135876790Y-88804580D01*
X135876792Y-88804584D01*
X135876793Y-88804587D01*
X135929520Y-88895913D01*
X136004087Y-88970480D01*
X136095413Y-89023207D01*
X136095417Y-89023208D01*
X136095419Y-89023209D01*
X136197269Y-89050499D01*
X136197271Y-89050500D01*
X136197273Y-89050500D01*
X136302729Y-89050500D01*
X136302729Y-89050499D01*
X136404587Y-89023207D01*
X136495913Y-88970480D01*
X136570480Y-88895913D01*
X136623207Y-88804587D01*
X136650499Y-88702729D01*
X136650500Y-88702729D01*
X136650500Y-88597270D01*
X136650499Y-88597269D01*
X136623209Y-88495419D01*
X136623208Y-88495417D01*
X136623207Y-88495413D01*
X136595411Y-88447269D01*
X171099500Y-88447269D01*
X171099500Y-88552730D01*
X171126790Y-88654580D01*
X171126792Y-88654584D01*
X171126793Y-88654587D01*
X171179520Y-88745913D01*
X171254087Y-88820480D01*
X171345413Y-88873207D01*
X171345417Y-88873208D01*
X171345419Y-88873209D01*
X171447269Y-88900499D01*
X171447271Y-88900500D01*
X171447273Y-88900500D01*
X171552729Y-88900500D01*
X171552729Y-88900499D01*
X171654587Y-88873207D01*
X171745913Y-88820480D01*
X171820480Y-88745913D01*
X171873207Y-88654587D01*
X171900499Y-88552729D01*
X171900500Y-88552729D01*
X171900500Y-88447270D01*
X171900499Y-88447269D01*
X171873209Y-88345419D01*
X171873208Y-88345417D01*
X171873207Y-88345413D01*
X171820480Y-88254087D01*
X171745913Y-88179520D01*
X171654587Y-88126793D01*
X171654584Y-88126792D01*
X171654580Y-88126790D01*
X171552730Y-88099500D01*
X171552727Y-88099500D01*
X171447273Y-88099500D01*
X171447270Y-88099500D01*
X171345419Y-88126790D01*
X171345413Y-88126793D01*
X171254088Y-88179519D01*
X171254083Y-88179523D01*
X171179523Y-88254083D01*
X171179519Y-88254088D01*
X171126793Y-88345413D01*
X171126790Y-88345419D01*
X171099500Y-88447269D01*
X136595411Y-88447269D01*
X136570480Y-88404087D01*
X136495913Y-88329520D01*
X136404587Y-88276793D01*
X136404584Y-88276792D01*
X136404580Y-88276790D01*
X136302730Y-88249500D01*
X136302727Y-88249500D01*
X136197273Y-88249500D01*
X136197270Y-88249500D01*
X136095419Y-88276790D01*
X136095413Y-88276793D01*
X136004088Y-88329519D01*
X136004083Y-88329523D01*
X135929523Y-88404083D01*
X135929519Y-88404088D01*
X135876793Y-88495413D01*
X135876790Y-88495419D01*
X135849500Y-88597269D01*
X114656076Y-88597269D01*
X114629415Y-88560574D01*
X114629415Y-88560573D01*
X114506926Y-88438084D01*
X114366790Y-88336269D01*
X114212446Y-88257627D01*
X114047702Y-88204098D01*
X114047704Y-88204098D01*
X113876614Y-88177000D01*
X113876611Y-88177000D01*
X113703389Y-88177000D01*
X113703385Y-88177000D01*
X113532296Y-88204098D01*
X113367553Y-88257627D01*
X113213209Y-88336269D01*
X113073073Y-88438084D01*
X113073073Y-88438085D01*
X113073072Y-88438086D01*
X112950586Y-88560572D01*
X112950585Y-88560573D01*
X112950584Y-88560573D01*
X112848769Y-88700709D01*
X112770127Y-88855053D01*
X112719990Y-89009358D01*
X112689420Y-89045150D01*
X112642495Y-89048843D01*
X112606703Y-89018273D01*
X112600000Y-88990353D01*
X112600000Y-88379674D01*
X112593596Y-88320119D01*
X112543353Y-88185413D01*
X112543351Y-88185408D01*
X112457188Y-88070311D01*
X112353214Y-87992475D01*
X112342091Y-87984148D01*
X112342086Y-87984146D01*
X112243215Y-87947269D01*
X139599500Y-87947269D01*
X139599500Y-88052730D01*
X139626790Y-88154580D01*
X139626792Y-88154584D01*
X139626793Y-88154587D01*
X139679520Y-88245913D01*
X139754087Y-88320480D01*
X139845413Y-88373207D01*
X139845417Y-88373208D01*
X139845419Y-88373209D01*
X139947269Y-88400499D01*
X139947271Y-88400500D01*
X139947273Y-88400500D01*
X140052729Y-88400500D01*
X140052729Y-88400499D01*
X140154587Y-88373207D01*
X140245913Y-88320480D01*
X140320480Y-88245913D01*
X140373207Y-88154587D01*
X140400499Y-88052729D01*
X140400500Y-88052729D01*
X140400500Y-87947270D01*
X140400499Y-87947269D01*
X165599500Y-87947269D01*
X165599500Y-88052730D01*
X165626790Y-88154580D01*
X165626792Y-88154584D01*
X165626793Y-88154587D01*
X165679520Y-88245913D01*
X165754087Y-88320480D01*
X165845413Y-88373207D01*
X165845417Y-88373208D01*
X165845419Y-88373209D01*
X165947269Y-88400499D01*
X165947271Y-88400500D01*
X165947273Y-88400500D01*
X166052728Y-88400500D01*
X166114912Y-88383838D01*
X166114912Y-88383837D01*
X166154587Y-88373207D01*
X166245913Y-88320480D01*
X166320480Y-88245913D01*
X166373207Y-88154587D01*
X166400499Y-88052729D01*
X166400500Y-88052729D01*
X166400500Y-87947270D01*
X166400499Y-87947269D01*
X166373209Y-87845419D01*
X166373208Y-87845417D01*
X166373207Y-87845413D01*
X166320480Y-87754087D01*
X166245913Y-87679520D01*
X166154587Y-87626793D01*
X166154584Y-87626792D01*
X166154580Y-87626790D01*
X166052730Y-87599500D01*
X166052727Y-87599500D01*
X165947273Y-87599500D01*
X165947270Y-87599500D01*
X165845419Y-87626790D01*
X165845413Y-87626793D01*
X165754088Y-87679519D01*
X165754083Y-87679523D01*
X165679523Y-87754083D01*
X165679519Y-87754088D01*
X165626793Y-87845413D01*
X165626790Y-87845419D01*
X165599500Y-87947269D01*
X140400499Y-87947269D01*
X140373209Y-87845419D01*
X140373208Y-87845417D01*
X140373207Y-87845413D01*
X140320480Y-87754087D01*
X140245913Y-87679520D01*
X140154587Y-87626793D01*
X140154584Y-87626792D01*
X140154580Y-87626790D01*
X140052730Y-87599500D01*
X140052727Y-87599500D01*
X139947273Y-87599500D01*
X139947270Y-87599500D01*
X139845419Y-87626790D01*
X139845413Y-87626793D01*
X139754088Y-87679519D01*
X139754083Y-87679523D01*
X139679523Y-87754083D01*
X139679519Y-87754088D01*
X139626793Y-87845413D01*
X139626790Y-87845419D01*
X139599500Y-87947269D01*
X112243215Y-87947269D01*
X112207380Y-87933903D01*
X112147826Y-87927500D01*
X111500000Y-87927500D01*
X111500000Y-88844488D01*
X111442993Y-88811575D01*
X111315826Y-88777500D01*
X111184174Y-88777500D01*
X111057007Y-88811575D01*
X111000000Y-88844488D01*
X111000000Y-87927500D01*
X110352174Y-87927500D01*
X110292619Y-87933903D01*
X110157913Y-87984146D01*
X110157908Y-87984148D01*
X110042811Y-88070311D01*
X109956648Y-88185408D01*
X109956646Y-88185413D01*
X109906403Y-88320119D01*
X109900000Y-88379674D01*
X108250500Y-88379674D01*
X108250500Y-87197269D01*
X122349500Y-87197269D01*
X122349500Y-87302730D01*
X122376790Y-87404580D01*
X122376792Y-87404584D01*
X122376793Y-87404587D01*
X122429520Y-87495913D01*
X122504087Y-87570480D01*
X122595413Y-87623207D01*
X122595417Y-87623208D01*
X122595419Y-87623209D01*
X122697269Y-87650499D01*
X122697271Y-87650500D01*
X122697273Y-87650500D01*
X122802729Y-87650500D01*
X122802729Y-87650499D01*
X122904587Y-87623207D01*
X122995913Y-87570480D01*
X123070480Y-87495913D01*
X123123207Y-87404587D01*
X123150499Y-87302729D01*
X123150500Y-87302729D01*
X123150500Y-87197270D01*
X123150499Y-87197269D01*
X123123209Y-87095419D01*
X123123208Y-87095417D01*
X123123207Y-87095413D01*
X123104071Y-87062269D01*
X130287000Y-87062269D01*
X130287000Y-87167730D01*
X130314290Y-87269580D01*
X130314292Y-87269584D01*
X130314293Y-87269587D01*
X130367020Y-87360913D01*
X130441587Y-87435480D01*
X130532913Y-87488207D01*
X130532917Y-87488208D01*
X130532919Y-87488209D01*
X130634769Y-87515499D01*
X130634771Y-87515500D01*
X130634773Y-87515500D01*
X130740229Y-87515500D01*
X130740229Y-87515499D01*
X130813316Y-87495916D01*
X130842080Y-87488209D01*
X130842080Y-87488208D01*
X130842087Y-87488207D01*
X130933413Y-87435480D01*
X131007980Y-87360913D01*
X131060707Y-87269587D01*
X131087999Y-87167729D01*
X131088000Y-87167729D01*
X131088000Y-87062270D01*
X131087999Y-87062269D01*
X131060709Y-86960419D01*
X131060708Y-86960417D01*
X131060707Y-86960413D01*
X131007980Y-86869087D01*
X130933413Y-86794520D01*
X130842087Y-86741793D01*
X130842084Y-86741792D01*
X130842080Y-86741790D01*
X130740230Y-86714500D01*
X130740227Y-86714500D01*
X130634773Y-86714500D01*
X130634770Y-86714500D01*
X130532919Y-86741790D01*
X130532913Y-86741793D01*
X130441588Y-86794519D01*
X130441583Y-86794523D01*
X130367023Y-86869083D01*
X130367019Y-86869088D01*
X130314293Y-86960413D01*
X130314290Y-86960419D01*
X130287000Y-87062269D01*
X123104071Y-87062269D01*
X123070480Y-87004087D01*
X122995913Y-86929520D01*
X122904587Y-86876793D01*
X122904584Y-86876792D01*
X122904580Y-86876790D01*
X122802730Y-86849500D01*
X122802727Y-86849500D01*
X122697273Y-86849500D01*
X122697270Y-86849500D01*
X122595419Y-86876790D01*
X122595413Y-86876793D01*
X122504088Y-86929519D01*
X122504083Y-86929523D01*
X122429523Y-87004083D01*
X122429519Y-87004088D01*
X122376793Y-87095413D01*
X122376790Y-87095419D01*
X122349500Y-87197269D01*
X108250500Y-87197269D01*
X108250500Y-84697269D01*
X118849500Y-84697269D01*
X118849500Y-84802730D01*
X118876790Y-84904580D01*
X118876792Y-84904584D01*
X118876793Y-84904587D01*
X118929520Y-84995913D01*
X119004087Y-85070480D01*
X119095413Y-85123207D01*
X119095417Y-85123208D01*
X119095419Y-85123209D01*
X119197269Y-85150499D01*
X119197271Y-85150500D01*
X119197273Y-85150500D01*
X119302729Y-85150500D01*
X119302729Y-85150499D01*
X119404587Y-85123207D01*
X119495913Y-85070480D01*
X119570480Y-84995913D01*
X119623207Y-84904587D01*
X119650499Y-84802729D01*
X119650500Y-84802729D01*
X119650500Y-84797269D01*
X125349500Y-84797269D01*
X125349500Y-84902730D01*
X125376790Y-85004580D01*
X125376792Y-85004584D01*
X125376793Y-85004587D01*
X125429520Y-85095913D01*
X125504087Y-85170480D01*
X125595413Y-85223207D01*
X125595417Y-85223208D01*
X125595419Y-85223209D01*
X125697269Y-85250499D01*
X125697271Y-85250500D01*
X125697273Y-85250500D01*
X125802729Y-85250500D01*
X125802729Y-85250499D01*
X125904587Y-85223207D01*
X125995913Y-85170480D01*
X126070480Y-85095913D01*
X126123207Y-85004587D01*
X126150499Y-84902729D01*
X126150500Y-84902729D01*
X126150500Y-84797270D01*
X126150499Y-84797269D01*
X126123209Y-84695419D01*
X126123208Y-84695417D01*
X126123207Y-84695413D01*
X126070480Y-84604087D01*
X125995913Y-84529520D01*
X125904587Y-84476793D01*
X125904584Y-84476792D01*
X125904580Y-84476790D01*
X125802730Y-84449500D01*
X125802727Y-84449500D01*
X125697273Y-84449500D01*
X125697270Y-84449500D01*
X125595419Y-84476790D01*
X125595413Y-84476793D01*
X125504088Y-84529519D01*
X125504083Y-84529523D01*
X125429523Y-84604083D01*
X125429519Y-84604088D01*
X125376793Y-84695413D01*
X125376790Y-84695419D01*
X125349500Y-84797269D01*
X119650500Y-84797269D01*
X119650500Y-84697270D01*
X119650499Y-84697269D01*
X119623209Y-84595419D01*
X119623208Y-84595417D01*
X119623207Y-84595413D01*
X119570480Y-84504087D01*
X119495913Y-84429520D01*
X119404587Y-84376793D01*
X119404584Y-84376792D01*
X119404580Y-84376790D01*
X119302730Y-84349500D01*
X119302727Y-84349500D01*
X119197273Y-84349500D01*
X119197270Y-84349500D01*
X119095419Y-84376790D01*
X119095413Y-84376793D01*
X119004088Y-84429519D01*
X119004083Y-84429523D01*
X118929523Y-84504083D01*
X118929519Y-84504088D01*
X118876793Y-84595413D01*
X118876790Y-84595419D01*
X118849500Y-84697269D01*
X108250500Y-84697269D01*
X108250500Y-84197269D01*
X140349500Y-84197269D01*
X140349500Y-84302730D01*
X140376790Y-84404580D01*
X140376792Y-84404584D01*
X140376793Y-84404587D01*
X140429520Y-84495913D01*
X140504087Y-84570480D01*
X140595413Y-84623207D01*
X140595417Y-84623208D01*
X140595419Y-84623209D01*
X140697269Y-84650499D01*
X140697271Y-84650500D01*
X140697273Y-84650500D01*
X140802729Y-84650500D01*
X140802729Y-84650499D01*
X140904587Y-84623207D01*
X140995913Y-84570480D01*
X141070480Y-84495913D01*
X141123207Y-84404587D01*
X141150499Y-84302729D01*
X141150500Y-84302729D01*
X141150500Y-84197269D01*
X141149160Y-84192269D01*
X152394500Y-84192269D01*
X152394500Y-84297730D01*
X152421790Y-84399580D01*
X152421792Y-84399584D01*
X152421793Y-84399587D01*
X152474520Y-84490913D01*
X152549087Y-84565480D01*
X152640413Y-84618207D01*
X152640417Y-84618208D01*
X152640419Y-84618209D01*
X152742269Y-84645499D01*
X152742271Y-84645500D01*
X152742273Y-84645500D01*
X152847729Y-84645500D01*
X152847729Y-84645499D01*
X152930927Y-84623207D01*
X152949580Y-84618209D01*
X152949580Y-84618208D01*
X152949587Y-84618207D01*
X153040913Y-84565480D01*
X153115480Y-84490913D01*
X153168207Y-84399587D01*
X153195499Y-84297729D01*
X153195500Y-84297729D01*
X153195500Y-84192270D01*
X153195499Y-84192269D01*
X153168209Y-84090419D01*
X153168208Y-84090417D01*
X153168207Y-84090413D01*
X153115480Y-83999087D01*
X153040913Y-83924520D01*
X152949587Y-83871793D01*
X152949584Y-83871792D01*
X152949580Y-83871790D01*
X152847730Y-83844500D01*
X152847727Y-83844500D01*
X152742273Y-83844500D01*
X152742270Y-83844500D01*
X152640419Y-83871790D01*
X152640413Y-83871793D01*
X152549088Y-83924519D01*
X152549083Y-83924523D01*
X152474523Y-83999083D01*
X152474519Y-83999088D01*
X152421793Y-84090413D01*
X152421790Y-84090419D01*
X152394500Y-84192269D01*
X141149160Y-84192269D01*
X141123209Y-84095419D01*
X141123208Y-84095417D01*
X141123207Y-84095413D01*
X141070480Y-84004087D01*
X140995913Y-83929520D01*
X140904587Y-83876793D01*
X140904584Y-83876792D01*
X140904580Y-83876790D01*
X140802730Y-83849500D01*
X140802727Y-83849500D01*
X140697273Y-83849500D01*
X140697270Y-83849500D01*
X140595419Y-83876790D01*
X140595413Y-83876793D01*
X140504088Y-83929519D01*
X140504083Y-83929523D01*
X140429523Y-84004083D01*
X140429519Y-84004088D01*
X140376793Y-84095413D01*
X140376790Y-84095419D01*
X140349500Y-84197269D01*
X108250500Y-84197269D01*
X108250500Y-83197269D01*
X137599500Y-83197269D01*
X137599500Y-83302730D01*
X137626790Y-83404580D01*
X137626792Y-83404584D01*
X137626793Y-83404587D01*
X137679520Y-83495913D01*
X137754087Y-83570480D01*
X137845413Y-83623207D01*
X137845417Y-83623208D01*
X137845419Y-83623209D01*
X137947269Y-83650499D01*
X137947271Y-83650500D01*
X137947273Y-83650500D01*
X138052729Y-83650500D01*
X138052729Y-83650499D01*
X138154587Y-83623207D01*
X138245913Y-83570480D01*
X138320480Y-83495913D01*
X138373207Y-83404587D01*
X138400499Y-83302729D01*
X138400500Y-83302729D01*
X138400500Y-83197270D01*
X138400499Y-83197269D01*
X138373209Y-83095419D01*
X138373208Y-83095417D01*
X138373207Y-83095413D01*
X138320480Y-83004087D01*
X138263662Y-82947269D01*
X171099500Y-82947269D01*
X171099500Y-83052730D01*
X171126790Y-83154580D01*
X171126792Y-83154584D01*
X171126793Y-83154587D01*
X171179520Y-83245913D01*
X171254087Y-83320480D01*
X171345413Y-83373207D01*
X171345417Y-83373208D01*
X171345419Y-83373209D01*
X171447269Y-83400499D01*
X171447271Y-83400500D01*
X171447273Y-83400500D01*
X171552729Y-83400500D01*
X171552729Y-83400499D01*
X171654587Y-83373207D01*
X171745913Y-83320480D01*
X171820480Y-83245913D01*
X171873207Y-83154587D01*
X171900499Y-83052729D01*
X171900500Y-83052729D01*
X171900500Y-82947270D01*
X171900499Y-82947269D01*
X171873209Y-82845419D01*
X171873208Y-82845417D01*
X171873207Y-82845413D01*
X171820480Y-82754087D01*
X171745913Y-82679520D01*
X171654587Y-82626793D01*
X171654584Y-82626792D01*
X171654580Y-82626790D01*
X171552730Y-82599500D01*
X171552727Y-82599500D01*
X171447273Y-82599500D01*
X171447270Y-82599500D01*
X171345419Y-82626790D01*
X171345413Y-82626793D01*
X171254088Y-82679519D01*
X171254083Y-82679523D01*
X171179523Y-82754083D01*
X171179519Y-82754088D01*
X171126793Y-82845413D01*
X171126790Y-82845419D01*
X171099500Y-82947269D01*
X138263662Y-82947269D01*
X138245913Y-82929520D01*
X138154587Y-82876793D01*
X138154584Y-82876792D01*
X138154580Y-82876790D01*
X138052730Y-82849500D01*
X138052727Y-82849500D01*
X137947273Y-82849500D01*
X137947270Y-82849500D01*
X137845419Y-82876790D01*
X137845413Y-82876793D01*
X137754088Y-82929519D01*
X137754083Y-82929523D01*
X137679523Y-83004083D01*
X137679519Y-83004088D01*
X137626793Y-83095413D01*
X137626790Y-83095419D01*
X137599500Y-83197269D01*
X108250500Y-83197269D01*
X108250500Y-82447269D01*
X125349500Y-82447269D01*
X125349500Y-82552730D01*
X125376790Y-82654580D01*
X125376792Y-82654584D01*
X125376793Y-82654587D01*
X125429520Y-82745913D01*
X125504087Y-82820480D01*
X125595413Y-82873207D01*
X125595417Y-82873208D01*
X125595419Y-82873209D01*
X125697269Y-82900499D01*
X125697271Y-82900500D01*
X125697273Y-82900500D01*
X125802729Y-82900500D01*
X125802729Y-82900499D01*
X125904587Y-82873207D01*
X125995913Y-82820480D01*
X126070480Y-82745913D01*
X126123207Y-82654587D01*
X126150499Y-82552729D01*
X126150500Y-82552729D01*
X126150500Y-82447270D01*
X126150499Y-82447269D01*
X126123209Y-82345419D01*
X126123208Y-82345417D01*
X126123207Y-82345413D01*
X126070480Y-82254087D01*
X125995913Y-82179520D01*
X125908148Y-82128849D01*
X136281080Y-82128849D01*
X136281080Y-82234310D01*
X136308370Y-82336160D01*
X136308372Y-82336164D01*
X136308373Y-82336167D01*
X136361100Y-82427493D01*
X136435667Y-82502060D01*
X136526993Y-82554787D01*
X136526997Y-82554788D01*
X136526999Y-82554789D01*
X136628849Y-82582079D01*
X136628851Y-82582080D01*
X136628853Y-82582080D01*
X136734309Y-82582080D01*
X136734309Y-82582079D01*
X136836167Y-82554787D01*
X136927493Y-82502060D01*
X137002060Y-82427493D01*
X137054787Y-82336167D01*
X137082079Y-82234309D01*
X137082080Y-82234309D01*
X137082080Y-82197269D01*
X166099500Y-82197269D01*
X166099500Y-82302730D01*
X166126790Y-82404580D01*
X166126792Y-82404584D01*
X166126793Y-82404587D01*
X166179520Y-82495913D01*
X166254087Y-82570480D01*
X166345413Y-82623207D01*
X166345417Y-82623208D01*
X166345419Y-82623209D01*
X166447269Y-82650499D01*
X166447271Y-82650500D01*
X166447273Y-82650500D01*
X166552729Y-82650500D01*
X166552729Y-82650499D01*
X166654587Y-82623207D01*
X166745913Y-82570480D01*
X166820480Y-82495913D01*
X166873207Y-82404587D01*
X166900499Y-82302729D01*
X166900500Y-82302729D01*
X166900500Y-82197270D01*
X166900499Y-82197269D01*
X166873209Y-82095419D01*
X166873208Y-82095417D01*
X166873207Y-82095413D01*
X166820480Y-82004087D01*
X166745913Y-81929520D01*
X166654587Y-81876793D01*
X166654584Y-81876792D01*
X166654580Y-81876790D01*
X166552730Y-81849500D01*
X166552727Y-81849500D01*
X166447273Y-81849500D01*
X166447270Y-81849500D01*
X166345419Y-81876790D01*
X166345413Y-81876793D01*
X166254088Y-81929519D01*
X166254083Y-81929523D01*
X166179523Y-82004083D01*
X166179519Y-82004088D01*
X166126793Y-82095413D01*
X166126790Y-82095419D01*
X166099500Y-82197269D01*
X137082080Y-82197269D01*
X137082080Y-82128850D01*
X137082079Y-82128849D01*
X137054789Y-82026999D01*
X137054788Y-82026997D01*
X137054787Y-82026993D01*
X137002060Y-81935667D01*
X136927493Y-81861100D01*
X136836167Y-81808373D01*
X136836164Y-81808372D01*
X136836160Y-81808370D01*
X136734310Y-81781080D01*
X136734307Y-81781080D01*
X136628853Y-81781080D01*
X136628850Y-81781080D01*
X136526999Y-81808370D01*
X136526993Y-81808373D01*
X136435668Y-81861099D01*
X136435663Y-81861103D01*
X136361103Y-81935663D01*
X136361099Y-81935668D01*
X136308373Y-82026993D01*
X136308370Y-82026999D01*
X136281080Y-82128849D01*
X125908148Y-82128849D01*
X125904587Y-82126793D01*
X125904584Y-82126792D01*
X125904580Y-82126790D01*
X125802730Y-82099500D01*
X125802727Y-82099500D01*
X125697273Y-82099500D01*
X125697270Y-82099500D01*
X125595419Y-82126790D01*
X125595413Y-82126793D01*
X125504088Y-82179519D01*
X125504083Y-82179523D01*
X125429523Y-82254083D01*
X125429519Y-82254088D01*
X125376793Y-82345413D01*
X125376790Y-82345419D01*
X125349500Y-82447269D01*
X108250500Y-82447269D01*
X108250500Y-81447269D01*
X131849500Y-81447269D01*
X131849500Y-81552730D01*
X131876790Y-81654580D01*
X131876792Y-81654584D01*
X131876793Y-81654587D01*
X131929520Y-81745913D01*
X132004087Y-81820480D01*
X132095413Y-81873207D01*
X132095417Y-81873208D01*
X132095419Y-81873209D01*
X132197269Y-81900499D01*
X132197271Y-81900500D01*
X132197273Y-81900500D01*
X132302729Y-81900500D01*
X132302729Y-81900499D01*
X132404587Y-81873207D01*
X132495913Y-81820480D01*
X132570480Y-81745913D01*
X132623207Y-81654587D01*
X132650499Y-81552729D01*
X132650500Y-81552729D01*
X132650500Y-81447270D01*
X132650499Y-81447269D01*
X132849500Y-81447269D01*
X132849500Y-81552730D01*
X132876790Y-81654580D01*
X132876792Y-81654584D01*
X132876793Y-81654587D01*
X132929520Y-81745913D01*
X133004087Y-81820480D01*
X133095413Y-81873207D01*
X133095417Y-81873208D01*
X133095419Y-81873209D01*
X133197269Y-81900499D01*
X133197271Y-81900500D01*
X133197273Y-81900500D01*
X133302729Y-81900500D01*
X133302729Y-81900499D01*
X133404587Y-81873207D01*
X133495913Y-81820480D01*
X133570480Y-81745913D01*
X133623207Y-81654587D01*
X133650499Y-81552729D01*
X133650500Y-81552729D01*
X133650500Y-81447270D01*
X133650499Y-81447269D01*
X133623209Y-81345419D01*
X133623208Y-81345417D01*
X133623207Y-81345413D01*
X133570480Y-81254087D01*
X133495913Y-81179520D01*
X133404587Y-81126793D01*
X133404584Y-81126792D01*
X133404580Y-81126790D01*
X133302730Y-81099500D01*
X133302727Y-81099500D01*
X133197273Y-81099500D01*
X133197270Y-81099500D01*
X133095419Y-81126790D01*
X133095413Y-81126793D01*
X133004088Y-81179519D01*
X133004083Y-81179523D01*
X132929523Y-81254083D01*
X132929519Y-81254088D01*
X132876793Y-81345413D01*
X132876790Y-81345419D01*
X132849500Y-81447269D01*
X132650499Y-81447269D01*
X132623209Y-81345419D01*
X132623208Y-81345417D01*
X132623207Y-81345413D01*
X132570480Y-81254087D01*
X132495913Y-81179520D01*
X132404587Y-81126793D01*
X132404584Y-81126792D01*
X132404580Y-81126790D01*
X132302730Y-81099500D01*
X132302727Y-81099500D01*
X132197273Y-81099500D01*
X132197270Y-81099500D01*
X132095419Y-81126790D01*
X132095413Y-81126793D01*
X132004088Y-81179519D01*
X132004083Y-81179523D01*
X131929523Y-81254083D01*
X131929519Y-81254088D01*
X131876793Y-81345413D01*
X131876790Y-81345419D01*
X131849500Y-81447269D01*
X108250500Y-81447269D01*
X108250500Y-80947269D01*
X125349500Y-80947269D01*
X125349500Y-81052730D01*
X125376790Y-81154580D01*
X125376792Y-81154584D01*
X125376793Y-81154587D01*
X125429520Y-81245913D01*
X125504087Y-81320480D01*
X125595413Y-81373207D01*
X125595417Y-81373208D01*
X125595419Y-81373209D01*
X125697269Y-81400499D01*
X125697271Y-81400500D01*
X125697273Y-81400500D01*
X125802728Y-81400500D01*
X125864912Y-81383838D01*
X125864912Y-81383837D01*
X125904587Y-81373207D01*
X125995913Y-81320480D01*
X126070480Y-81245913D01*
X126123207Y-81154587D01*
X126150499Y-81052729D01*
X126150500Y-81052729D01*
X126150500Y-80947270D01*
X126150499Y-80947269D01*
X126123209Y-80845419D01*
X126123208Y-80845417D01*
X126123207Y-80845413D01*
X126070480Y-80754087D01*
X125995913Y-80679520D01*
X125904587Y-80626793D01*
X125904584Y-80626792D01*
X125904580Y-80626790D01*
X125802730Y-80599500D01*
X125802727Y-80599500D01*
X125697273Y-80599500D01*
X125697270Y-80599500D01*
X125595419Y-80626790D01*
X125595413Y-80626793D01*
X125504088Y-80679519D01*
X125504083Y-80679523D01*
X125429523Y-80754083D01*
X125429519Y-80754088D01*
X125376793Y-80845413D01*
X125376790Y-80845419D01*
X125349500Y-80947269D01*
X108250500Y-80947269D01*
X108250500Y-79197269D01*
X152599500Y-79197269D01*
X152599500Y-79302730D01*
X152626790Y-79404580D01*
X152626792Y-79404584D01*
X152626793Y-79404587D01*
X152679520Y-79495913D01*
X152754087Y-79570480D01*
X152845413Y-79623207D01*
X152845417Y-79623208D01*
X152845419Y-79623209D01*
X152947269Y-79650499D01*
X152947271Y-79650500D01*
X152947273Y-79650500D01*
X153052729Y-79650500D01*
X153052729Y-79650499D01*
X153154587Y-79623207D01*
X153245913Y-79570480D01*
X153320480Y-79495913D01*
X153373207Y-79404587D01*
X153400499Y-79302729D01*
X153400500Y-79302729D01*
X153400500Y-79197270D01*
X153400499Y-79197269D01*
X153373209Y-79095419D01*
X153373208Y-79095417D01*
X153373207Y-79095413D01*
X153320480Y-79004087D01*
X153245913Y-78929520D01*
X153154587Y-78876793D01*
X153154584Y-78876792D01*
X153154580Y-78876790D01*
X153052730Y-78849500D01*
X153052727Y-78849500D01*
X152947273Y-78849500D01*
X152947270Y-78849500D01*
X152845419Y-78876790D01*
X152845413Y-78876793D01*
X152754088Y-78929519D01*
X152754083Y-78929523D01*
X152679523Y-79004083D01*
X152679519Y-79004088D01*
X152626793Y-79095413D01*
X152626790Y-79095419D01*
X152599500Y-79197269D01*
X108250500Y-79197269D01*
X108250500Y-78147269D01*
X117399500Y-78147269D01*
X117399500Y-78252730D01*
X117426790Y-78354580D01*
X117426792Y-78354584D01*
X117426793Y-78354587D01*
X117479520Y-78445913D01*
X117554087Y-78520480D01*
X117645413Y-78573207D01*
X117645417Y-78573208D01*
X117645419Y-78573209D01*
X117747269Y-78600499D01*
X117747271Y-78600500D01*
X117747273Y-78600500D01*
X117852729Y-78600500D01*
X117852729Y-78600499D01*
X117954587Y-78573207D01*
X118045913Y-78520480D01*
X118120480Y-78445913D01*
X118173207Y-78354587D01*
X118200499Y-78252729D01*
X118200500Y-78252729D01*
X118200500Y-78197269D01*
X132349500Y-78197269D01*
X132349500Y-78302730D01*
X132376790Y-78404580D01*
X132376792Y-78404584D01*
X132376793Y-78404587D01*
X132429520Y-78495913D01*
X132504087Y-78570480D01*
X132595413Y-78623207D01*
X132595417Y-78623208D01*
X132595419Y-78623209D01*
X132697269Y-78650499D01*
X132697271Y-78650500D01*
X132697273Y-78650500D01*
X132802729Y-78650500D01*
X132802729Y-78650499D01*
X132904587Y-78623207D01*
X132995913Y-78570480D01*
X133070480Y-78495913D01*
X133109965Y-78427522D01*
X170074500Y-78427522D01*
X170074500Y-78572477D01*
X170112014Y-78712480D01*
X170112015Y-78712482D01*
X170112016Y-78712485D01*
X170184491Y-78838015D01*
X170286985Y-78940509D01*
X170412515Y-79012984D01*
X170412519Y-79012985D01*
X170515561Y-79040596D01*
X170552904Y-79069250D01*
X170559047Y-79115918D01*
X170530393Y-79153261D01*
X170515561Y-79159404D01*
X170412519Y-79187014D01*
X170412515Y-79187016D01*
X170286986Y-79259490D01*
X170286981Y-79259494D01*
X170184494Y-79361981D01*
X170184490Y-79361986D01*
X170112016Y-79487515D01*
X170112014Y-79487519D01*
X170074500Y-79627522D01*
X170074500Y-79772477D01*
X170112014Y-79912480D01*
X170112015Y-79912482D01*
X170112016Y-79912485D01*
X170184491Y-80038015D01*
X170286985Y-80140509D01*
X170412515Y-80212984D01*
X170412519Y-80212985D01*
X170552523Y-80250500D01*
X170552525Y-80250500D01*
X170697476Y-80250500D01*
X170759206Y-80233958D01*
X170837485Y-80212984D01*
X170963015Y-80140509D01*
X171065509Y-80038015D01*
X171137984Y-79912485D01*
X171152540Y-79858158D01*
X171175500Y-79772477D01*
X171175500Y-79627522D01*
X171137985Y-79487519D01*
X171137984Y-79487515D01*
X171065509Y-79361985D01*
X170963015Y-79259491D01*
X170837485Y-79187016D01*
X170837482Y-79187015D01*
X170837480Y-79187014D01*
X170734438Y-79159404D01*
X170697095Y-79130750D01*
X170690952Y-79084082D01*
X170719606Y-79046739D01*
X170734438Y-79040596D01*
X170784453Y-79027194D01*
X170837485Y-79012984D01*
X170963015Y-78940509D01*
X171065509Y-78838015D01*
X171137984Y-78712485D01*
X171167991Y-78600499D01*
X171175500Y-78572477D01*
X171175500Y-78427522D01*
X171137985Y-78287519D01*
X171137984Y-78287515D01*
X171065509Y-78161985D01*
X170963015Y-78059491D01*
X170837485Y-77987016D01*
X170837482Y-77987015D01*
X170837480Y-77987014D01*
X170697477Y-77949500D01*
X170697475Y-77949500D01*
X170552525Y-77949500D01*
X170552523Y-77949500D01*
X170412519Y-77987014D01*
X170412515Y-77987016D01*
X170286986Y-78059490D01*
X170286981Y-78059494D01*
X170184494Y-78161981D01*
X170184490Y-78161986D01*
X170112016Y-78287515D01*
X170112014Y-78287519D01*
X170074500Y-78427522D01*
X133109965Y-78427522D01*
X133123207Y-78404587D01*
X133139582Y-78343471D01*
X133150500Y-78302729D01*
X133150500Y-78197270D01*
X133150499Y-78197269D01*
X133123209Y-78095419D01*
X133123208Y-78095417D01*
X133123207Y-78095413D01*
X133070480Y-78004087D01*
X132995913Y-77929520D01*
X132904587Y-77876793D01*
X132904584Y-77876792D01*
X132904580Y-77876790D01*
X132802730Y-77849500D01*
X132802727Y-77849500D01*
X132697273Y-77849500D01*
X132697270Y-77849500D01*
X132595419Y-77876790D01*
X132595413Y-77876793D01*
X132504088Y-77929519D01*
X132504083Y-77929523D01*
X132429523Y-78004083D01*
X132429519Y-78004088D01*
X132376793Y-78095413D01*
X132376790Y-78095419D01*
X132349500Y-78197269D01*
X118200500Y-78197269D01*
X118200500Y-78147270D01*
X118200499Y-78147269D01*
X118173209Y-78045419D01*
X118173208Y-78045417D01*
X118173207Y-78045413D01*
X118120480Y-77954087D01*
X118045913Y-77879520D01*
X117954587Y-77826793D01*
X117954584Y-77826792D01*
X117954580Y-77826790D01*
X117852730Y-77799500D01*
X117852727Y-77799500D01*
X117747273Y-77799500D01*
X117747270Y-77799500D01*
X117645419Y-77826790D01*
X117645413Y-77826793D01*
X117554088Y-77879519D01*
X117554083Y-77879523D01*
X117479523Y-77954083D01*
X117479519Y-77954088D01*
X117426793Y-78045413D01*
X117426790Y-78045419D01*
X117399500Y-78147269D01*
X108250500Y-78147269D01*
X108250500Y-77697269D01*
X141599500Y-77697269D01*
X141599500Y-77802730D01*
X141626790Y-77904580D01*
X141626792Y-77904584D01*
X141626793Y-77904587D01*
X141679520Y-77995913D01*
X141754087Y-78070480D01*
X141845413Y-78123207D01*
X141845417Y-78123208D01*
X141845419Y-78123209D01*
X141947269Y-78150499D01*
X141947271Y-78150500D01*
X141947273Y-78150500D01*
X142052729Y-78150500D01*
X142052729Y-78150499D01*
X142154587Y-78123207D01*
X142245913Y-78070480D01*
X142320480Y-77995913D01*
X142373207Y-77904587D01*
X142400499Y-77802729D01*
X142400500Y-77802729D01*
X142400500Y-77697270D01*
X142400499Y-77697269D01*
X143099500Y-77697269D01*
X143099500Y-77802730D01*
X143126790Y-77904580D01*
X143126792Y-77904584D01*
X143126793Y-77904587D01*
X143179520Y-77995913D01*
X143254087Y-78070480D01*
X143345413Y-78123207D01*
X143345417Y-78123208D01*
X143345419Y-78123209D01*
X143447269Y-78150499D01*
X143447271Y-78150500D01*
X143447273Y-78150500D01*
X143552729Y-78150500D01*
X143552729Y-78150499D01*
X143654587Y-78123207D01*
X143745913Y-78070480D01*
X143820480Y-77995913D01*
X143873207Y-77904587D01*
X143900499Y-77802729D01*
X143900500Y-77802729D01*
X143900500Y-77697270D01*
X143900499Y-77697269D01*
X154849500Y-77697269D01*
X154849500Y-77802730D01*
X154876790Y-77904580D01*
X154876792Y-77904584D01*
X154876793Y-77904587D01*
X154929520Y-77995913D01*
X155004087Y-78070480D01*
X155095413Y-78123207D01*
X155095417Y-78123208D01*
X155095419Y-78123209D01*
X155197269Y-78150499D01*
X155197271Y-78150500D01*
X155197273Y-78150500D01*
X155302729Y-78150500D01*
X155302729Y-78150499D01*
X155404587Y-78123207D01*
X155495913Y-78070480D01*
X155570480Y-77995913D01*
X155623207Y-77904587D01*
X155650499Y-77802729D01*
X155650500Y-77802729D01*
X155650500Y-77697270D01*
X155650499Y-77697269D01*
X155623209Y-77595419D01*
X155623208Y-77595417D01*
X155623207Y-77595413D01*
X155570480Y-77504087D01*
X155495913Y-77429520D01*
X155404587Y-77376793D01*
X155404584Y-77376792D01*
X155404580Y-77376790D01*
X155302730Y-77349500D01*
X155302727Y-77349500D01*
X155197273Y-77349500D01*
X155197270Y-77349500D01*
X155095419Y-77376790D01*
X155095413Y-77376793D01*
X155004088Y-77429519D01*
X155004083Y-77429523D01*
X154929523Y-77504083D01*
X154929519Y-77504088D01*
X154876793Y-77595413D01*
X154876790Y-77595419D01*
X154849500Y-77697269D01*
X143900499Y-77697269D01*
X143873209Y-77595419D01*
X143873208Y-77595417D01*
X143873207Y-77595413D01*
X143820480Y-77504087D01*
X143745913Y-77429520D01*
X143654587Y-77376793D01*
X143654584Y-77376792D01*
X143654580Y-77376790D01*
X143552730Y-77349500D01*
X143552727Y-77349500D01*
X143447273Y-77349500D01*
X143447270Y-77349500D01*
X143345419Y-77376790D01*
X143345413Y-77376793D01*
X143254088Y-77429519D01*
X143254083Y-77429523D01*
X143179523Y-77504083D01*
X143179519Y-77504088D01*
X143126793Y-77595413D01*
X143126790Y-77595419D01*
X143099500Y-77697269D01*
X142400499Y-77697269D01*
X142373209Y-77595419D01*
X142373208Y-77595417D01*
X142373207Y-77595413D01*
X142320480Y-77504087D01*
X142245913Y-77429520D01*
X142154587Y-77376793D01*
X142154584Y-77376792D01*
X142154580Y-77376790D01*
X142052730Y-77349500D01*
X142052727Y-77349500D01*
X141947273Y-77349500D01*
X141947270Y-77349500D01*
X141845419Y-77376790D01*
X141845413Y-77376793D01*
X141754088Y-77429519D01*
X141754083Y-77429523D01*
X141679523Y-77504083D01*
X141679519Y-77504088D01*
X141626793Y-77595413D01*
X141626790Y-77595419D01*
X141599500Y-77697269D01*
X108250500Y-77697269D01*
X108250500Y-74197269D01*
X137599500Y-74197269D01*
X137599500Y-74302730D01*
X137626790Y-74404580D01*
X137626792Y-74404584D01*
X137626793Y-74404587D01*
X137679520Y-74495913D01*
X137754087Y-74570480D01*
X137845413Y-74623207D01*
X137845417Y-74623208D01*
X137845419Y-74623209D01*
X137947269Y-74650499D01*
X137947271Y-74650500D01*
X137947273Y-74650500D01*
X138052729Y-74650500D01*
X138052729Y-74650499D01*
X138154587Y-74623207D01*
X138245913Y-74570480D01*
X138320480Y-74495913D01*
X138373207Y-74404587D01*
X138400499Y-74302729D01*
X138400500Y-74302729D01*
X138400500Y-74197270D01*
X138400499Y-74197269D01*
X141599500Y-74197269D01*
X141599500Y-74302730D01*
X141626790Y-74404580D01*
X141626792Y-74404584D01*
X141626793Y-74404587D01*
X141679520Y-74495913D01*
X141754087Y-74570480D01*
X141845413Y-74623207D01*
X141845417Y-74623208D01*
X141845419Y-74623209D01*
X141947269Y-74650499D01*
X141947271Y-74650500D01*
X141947273Y-74650500D01*
X142052729Y-74650500D01*
X142052729Y-74650499D01*
X142154587Y-74623207D01*
X142245913Y-74570480D01*
X142320480Y-74495913D01*
X142373207Y-74404587D01*
X142400499Y-74302729D01*
X142400500Y-74302729D01*
X142400500Y-74197270D01*
X142400499Y-74197269D01*
X143136157Y-74197269D01*
X143136157Y-74302730D01*
X143163447Y-74404580D01*
X143163449Y-74404584D01*
X143163450Y-74404587D01*
X143216177Y-74495913D01*
X143290744Y-74570480D01*
X143382070Y-74623207D01*
X143382074Y-74623208D01*
X143382076Y-74623209D01*
X143483926Y-74650499D01*
X143483928Y-74650500D01*
X143483930Y-74650500D01*
X143589386Y-74650500D01*
X143589386Y-74650499D01*
X143691244Y-74623207D01*
X143782570Y-74570480D01*
X143857137Y-74495913D01*
X143909864Y-74404587D01*
X143937156Y-74302729D01*
X143937157Y-74302729D01*
X143937157Y-74197270D01*
X143937156Y-74197269D01*
X147099500Y-74197269D01*
X147099500Y-74302730D01*
X147126790Y-74404580D01*
X147126792Y-74404584D01*
X147126793Y-74404587D01*
X147179520Y-74495913D01*
X147254087Y-74570480D01*
X147345413Y-74623207D01*
X147345417Y-74623208D01*
X147345419Y-74623209D01*
X147447269Y-74650499D01*
X147447271Y-74650500D01*
X147447273Y-74650500D01*
X147552729Y-74650500D01*
X147552729Y-74650499D01*
X147654587Y-74623207D01*
X147745913Y-74570480D01*
X147820480Y-74495913D01*
X147873207Y-74404587D01*
X147900499Y-74302729D01*
X147900500Y-74302729D01*
X147900500Y-74197270D01*
X147900499Y-74197269D01*
X147873209Y-74095419D01*
X147873208Y-74095417D01*
X147873207Y-74095413D01*
X147820480Y-74004087D01*
X147745913Y-73929520D01*
X147654587Y-73876793D01*
X147654584Y-73876792D01*
X147654580Y-73876790D01*
X147552730Y-73849500D01*
X147552727Y-73849500D01*
X147447273Y-73849500D01*
X147447270Y-73849500D01*
X147345419Y-73876790D01*
X147345413Y-73876793D01*
X147254088Y-73929519D01*
X147254083Y-73929523D01*
X147179523Y-74004083D01*
X147179519Y-74004088D01*
X147126793Y-74095413D01*
X147126790Y-74095419D01*
X147099500Y-74197269D01*
X143937156Y-74197269D01*
X143909866Y-74095419D01*
X143909865Y-74095417D01*
X143909864Y-74095413D01*
X143857137Y-74004087D01*
X143782570Y-73929520D01*
X143691244Y-73876793D01*
X143691241Y-73876792D01*
X143691237Y-73876790D01*
X143589387Y-73849500D01*
X143589384Y-73849500D01*
X143483930Y-73849500D01*
X143483927Y-73849500D01*
X143382076Y-73876790D01*
X143382070Y-73876793D01*
X143290745Y-73929519D01*
X143290740Y-73929523D01*
X143216180Y-74004083D01*
X143216176Y-74004088D01*
X143163450Y-74095413D01*
X143163447Y-74095419D01*
X143136157Y-74197269D01*
X142400499Y-74197269D01*
X142373209Y-74095419D01*
X142373208Y-74095417D01*
X142373207Y-74095413D01*
X142320480Y-74004087D01*
X142245913Y-73929520D01*
X142154587Y-73876793D01*
X142154584Y-73876792D01*
X142154580Y-73876790D01*
X142052730Y-73849500D01*
X142052727Y-73849500D01*
X141947273Y-73849500D01*
X141947270Y-73849500D01*
X141845419Y-73876790D01*
X141845413Y-73876793D01*
X141754088Y-73929519D01*
X141754083Y-73929523D01*
X141679523Y-74004083D01*
X141679519Y-74004088D01*
X141626793Y-74095413D01*
X141626790Y-74095419D01*
X141599500Y-74197269D01*
X138400499Y-74197269D01*
X138373209Y-74095419D01*
X138373208Y-74095417D01*
X138373207Y-74095413D01*
X138320480Y-74004087D01*
X138245913Y-73929520D01*
X138154587Y-73876793D01*
X138154584Y-73876792D01*
X138154580Y-73876790D01*
X138052730Y-73849500D01*
X138052727Y-73849500D01*
X137947273Y-73849500D01*
X137947270Y-73849500D01*
X137845419Y-73876790D01*
X137845413Y-73876793D01*
X137754088Y-73929519D01*
X137754083Y-73929523D01*
X137679523Y-74004083D01*
X137679519Y-74004088D01*
X137626793Y-74095413D01*
X137626790Y-74095419D01*
X137599500Y-74197269D01*
X108250500Y-74197269D01*
X108250500Y-69751331D01*
X108250559Y-69748648D01*
X108256368Y-69615597D01*
X110699500Y-69615597D01*
X110699500Y-69884402D01*
X110734585Y-70150898D01*
X110804151Y-70410520D01*
X110804153Y-70410526D01*
X110907016Y-70658859D01*
X110979795Y-70784916D01*
X111041412Y-70891640D01*
X111205042Y-71104888D01*
X111395111Y-71294957D01*
X111570471Y-71429515D01*
X111608359Y-71458587D01*
X111841141Y-71592984D01*
X112089474Y-71695847D01*
X112271970Y-71744746D01*
X112349101Y-71765414D01*
X112349102Y-71765414D01*
X112349109Y-71765416D01*
X112615603Y-71800500D01*
X112615606Y-71800500D01*
X112884394Y-71800500D01*
X112884397Y-71800500D01*
X113150891Y-71765416D01*
X113410526Y-71695847D01*
X113658859Y-71592984D01*
X113891641Y-71458587D01*
X113999169Y-71376078D01*
X137679500Y-71376078D01*
X137679500Y-72623921D01*
X137708340Y-72768906D01*
X137708345Y-72768923D01*
X137722349Y-72802730D01*
X137764916Y-72905495D01*
X137764917Y-72905496D01*
X137847048Y-73028415D01*
X137951584Y-73132951D01*
X137951583Y-73132951D01*
X137963510Y-73140920D01*
X138074505Y-73215084D01*
X138138134Y-73241440D01*
X138211076Y-73271654D01*
X138211080Y-73271655D01*
X138211087Y-73271658D01*
X138356078Y-73300499D01*
X138356079Y-73300500D01*
X138356082Y-73300500D01*
X138503921Y-73300500D01*
X138503921Y-73300499D01*
X138648913Y-73271658D01*
X138785495Y-73215084D01*
X138908416Y-73132951D01*
X139012951Y-73028416D01*
X139095084Y-72905495D01*
X139151658Y-72768913D01*
X139180499Y-72623921D01*
X139180500Y-72623921D01*
X139180500Y-71410813D01*
X139334500Y-71410813D01*
X139334500Y-71549186D01*
X139370309Y-71682829D01*
X139370311Y-71682833D01*
X139370312Y-71682836D01*
X139439495Y-71802665D01*
X139537335Y-71900505D01*
X139657164Y-71969688D01*
X139657168Y-71969689D01*
X139657170Y-71969690D01*
X139790813Y-72005499D01*
X139790815Y-72005500D01*
X139790817Y-72005500D01*
X139929185Y-72005500D01*
X139929185Y-72005499D01*
X140062836Y-71969688D01*
X140182665Y-71900505D01*
X140280505Y-71802665D01*
X140349688Y-71682836D01*
X140385499Y-71549185D01*
X140385500Y-71549185D01*
X140385500Y-71410814D01*
X140385499Y-71410813D01*
X145114500Y-71410813D01*
X145114500Y-71549186D01*
X145150309Y-71682829D01*
X145150311Y-71682833D01*
X145150312Y-71682836D01*
X145219495Y-71802665D01*
X145317335Y-71900505D01*
X145437164Y-71969688D01*
X145437168Y-71969689D01*
X145437170Y-71969690D01*
X145570813Y-72005499D01*
X145570815Y-72005500D01*
X145570817Y-72005500D01*
X145709185Y-72005500D01*
X145709185Y-72005499D01*
X145842836Y-71969688D01*
X145962665Y-71900505D01*
X146060505Y-71802665D01*
X146129688Y-71682836D01*
X146165499Y-71549185D01*
X146165500Y-71549185D01*
X146165500Y-71410814D01*
X146159649Y-71388979D01*
X146159649Y-71388978D01*
X146156192Y-71376078D01*
X146319500Y-71376078D01*
X146319500Y-72623921D01*
X146348340Y-72768906D01*
X146348345Y-72768923D01*
X146362349Y-72802730D01*
X146404916Y-72905495D01*
X146404917Y-72905496D01*
X146487048Y-73028415D01*
X146591584Y-73132951D01*
X146591583Y-73132951D01*
X146603510Y-73140920D01*
X146714505Y-73215084D01*
X146778134Y-73241440D01*
X146851076Y-73271654D01*
X146851080Y-73271655D01*
X146851087Y-73271658D01*
X146996078Y-73300499D01*
X146996079Y-73300500D01*
X146996082Y-73300500D01*
X147143921Y-73300500D01*
X147143921Y-73300499D01*
X147288913Y-73271658D01*
X147425495Y-73215084D01*
X147548416Y-73132951D01*
X147652951Y-73028416D01*
X147735084Y-72905495D01*
X147791658Y-72768913D01*
X147820499Y-72623921D01*
X147820500Y-72623921D01*
X147820500Y-71376079D01*
X147820499Y-71376078D01*
X147810193Y-71324269D01*
X147791658Y-71231087D01*
X147791655Y-71231080D01*
X147791654Y-71231076D01*
X147758277Y-71150499D01*
X147735084Y-71094505D01*
X147652951Y-70971584D01*
X147548416Y-70867049D01*
X147548415Y-70867048D01*
X147548416Y-70867048D01*
X147425496Y-70784917D01*
X147425497Y-70784917D01*
X147425495Y-70784916D01*
X147425488Y-70784913D01*
X147288923Y-70728345D01*
X147288906Y-70728340D01*
X147143921Y-70699500D01*
X147143918Y-70699500D01*
X146996082Y-70699500D01*
X146996079Y-70699500D01*
X146851093Y-70728340D01*
X146851076Y-70728345D01*
X146714511Y-70784913D01*
X146714503Y-70784917D01*
X146591584Y-70867048D01*
X146487048Y-70971584D01*
X146404917Y-71094503D01*
X146404913Y-71094511D01*
X146348345Y-71231076D01*
X146348340Y-71231093D01*
X146319500Y-71376078D01*
X146156192Y-71376078D01*
X146129690Y-71277170D01*
X146129689Y-71277168D01*
X146129688Y-71277164D01*
X146060505Y-71157335D01*
X145962665Y-71059495D01*
X145842836Y-70990312D01*
X145842833Y-70990311D01*
X145842829Y-70990309D01*
X145709186Y-70954500D01*
X145709183Y-70954500D01*
X145570817Y-70954500D01*
X145570814Y-70954500D01*
X145437170Y-70990309D01*
X145437164Y-70990312D01*
X145317336Y-71059494D01*
X145317331Y-71059498D01*
X145219498Y-71157331D01*
X145219494Y-71157336D01*
X145150312Y-71277164D01*
X145150309Y-71277170D01*
X145114500Y-71410813D01*
X140385499Y-71410813D01*
X140349690Y-71277170D01*
X140349689Y-71277168D01*
X140349688Y-71277164D01*
X140280505Y-71157335D01*
X140182665Y-71059495D01*
X140062836Y-70990312D01*
X140062833Y-70990311D01*
X140062829Y-70990309D01*
X139929186Y-70954500D01*
X139929183Y-70954500D01*
X139790817Y-70954500D01*
X139790814Y-70954500D01*
X139657170Y-70990309D01*
X139657164Y-70990312D01*
X139537336Y-71059494D01*
X139537331Y-71059498D01*
X139439498Y-71157331D01*
X139439494Y-71157336D01*
X139370312Y-71277164D01*
X139370309Y-71277170D01*
X139334500Y-71410813D01*
X139180500Y-71410813D01*
X139180500Y-71376079D01*
X139180499Y-71376078D01*
X139170193Y-71324269D01*
X139151658Y-71231087D01*
X139151655Y-71231080D01*
X139151654Y-71231076D01*
X139118277Y-71150499D01*
X139095084Y-71094505D01*
X139012951Y-70971584D01*
X138908416Y-70867049D01*
X138908415Y-70867048D01*
X138908416Y-70867048D01*
X138785496Y-70784917D01*
X138785497Y-70784917D01*
X138785495Y-70784916D01*
X138785488Y-70784913D01*
X138648923Y-70728345D01*
X138648906Y-70728340D01*
X138503921Y-70699500D01*
X138503918Y-70699500D01*
X138356082Y-70699500D01*
X138356079Y-70699500D01*
X138211093Y-70728340D01*
X138211076Y-70728345D01*
X138074511Y-70784913D01*
X138074503Y-70784917D01*
X137951584Y-70867048D01*
X137847048Y-70971584D01*
X137764917Y-71094503D01*
X137764913Y-71094511D01*
X137708345Y-71231076D01*
X137708340Y-71231093D01*
X137679500Y-71376078D01*
X113999169Y-71376078D01*
X114104890Y-71294956D01*
X114294956Y-71104890D01*
X114458587Y-70891641D01*
X114570808Y-70697269D01*
X124599500Y-70697269D01*
X124599500Y-70802730D01*
X124626790Y-70904580D01*
X124626792Y-70904584D01*
X124626793Y-70904587D01*
X124679520Y-70995913D01*
X124754087Y-71070480D01*
X124845413Y-71123207D01*
X124845417Y-71123208D01*
X124845419Y-71123209D01*
X124947269Y-71150499D01*
X124947271Y-71150500D01*
X124947273Y-71150500D01*
X125052729Y-71150500D01*
X125052729Y-71150499D01*
X125154587Y-71123207D01*
X125245913Y-71070480D01*
X125320480Y-70995913D01*
X125373207Y-70904587D01*
X125400499Y-70802729D01*
X125400500Y-70802729D01*
X125400500Y-70697270D01*
X125400499Y-70697269D01*
X127349500Y-70697269D01*
X127349500Y-70802730D01*
X127376790Y-70904580D01*
X127376792Y-70904584D01*
X127376793Y-70904587D01*
X127429520Y-70995913D01*
X127504087Y-71070480D01*
X127595413Y-71123207D01*
X127595417Y-71123208D01*
X127595419Y-71123209D01*
X127697269Y-71150499D01*
X127697271Y-71150500D01*
X127697273Y-71150500D01*
X127802729Y-71150500D01*
X127802729Y-71150499D01*
X127904587Y-71123207D01*
X127995913Y-71070480D01*
X128070480Y-70995913D01*
X128123207Y-70904587D01*
X128150499Y-70802729D01*
X128150500Y-70802729D01*
X128150500Y-70697270D01*
X128150499Y-70697269D01*
X128123209Y-70595419D01*
X128123208Y-70595417D01*
X128123207Y-70595413D01*
X128070480Y-70504087D01*
X127995913Y-70429520D01*
X127904587Y-70376793D01*
X127904584Y-70376792D01*
X127904580Y-70376790D01*
X127802730Y-70349500D01*
X127802727Y-70349500D01*
X127697273Y-70349500D01*
X127697270Y-70349500D01*
X127595419Y-70376790D01*
X127595413Y-70376793D01*
X127504088Y-70429519D01*
X127504083Y-70429523D01*
X127429523Y-70504083D01*
X127429519Y-70504088D01*
X127376793Y-70595413D01*
X127376790Y-70595419D01*
X127349500Y-70697269D01*
X125400499Y-70697269D01*
X125373209Y-70595419D01*
X125373208Y-70595417D01*
X125373207Y-70595413D01*
X125320480Y-70504087D01*
X125245913Y-70429520D01*
X125154587Y-70376793D01*
X125154584Y-70376792D01*
X125154580Y-70376790D01*
X125052730Y-70349500D01*
X125052727Y-70349500D01*
X124947273Y-70349500D01*
X124947270Y-70349500D01*
X124845419Y-70376790D01*
X124845413Y-70376793D01*
X124754088Y-70429519D01*
X124754083Y-70429523D01*
X124679523Y-70504083D01*
X124679519Y-70504088D01*
X124626793Y-70595413D01*
X124626790Y-70595419D01*
X124599500Y-70697269D01*
X114570808Y-70697269D01*
X114592984Y-70658859D01*
X114695847Y-70410526D01*
X114765416Y-70150891D01*
X114800500Y-69884397D01*
X114800500Y-69615603D01*
X114765416Y-69349109D01*
X114695847Y-69089474D01*
X114592984Y-68841141D01*
X114458587Y-68608359D01*
X114441004Y-68585444D01*
X114294957Y-68395111D01*
X114104888Y-68205042D01*
X114050599Y-68163385D01*
X121399500Y-68163385D01*
X121399500Y-68336614D01*
X121426598Y-68507703D01*
X121480127Y-68672446D01*
X121558769Y-68826790D01*
X121660584Y-68966926D01*
X121783073Y-69089415D01*
X121867148Y-69150499D01*
X121923212Y-69191232D01*
X122077555Y-69269873D01*
X122242296Y-69323401D01*
X122242299Y-69323402D01*
X122413389Y-69350500D01*
X122413393Y-69350500D01*
X122586607Y-69350500D01*
X122586611Y-69350500D01*
X122757701Y-69323402D01*
X122922445Y-69269873D01*
X123076788Y-69191232D01*
X123216928Y-69089414D01*
X123339414Y-68966928D01*
X123441232Y-68826788D01*
X123519873Y-68672445D01*
X123573402Y-68507701D01*
X123600500Y-68336611D01*
X123600500Y-68163389D01*
X123600499Y-68163385D01*
X123939500Y-68163385D01*
X123939500Y-68336614D01*
X123966598Y-68507703D01*
X124020127Y-68672446D01*
X124098769Y-68826790D01*
X124200584Y-68966926D01*
X124323073Y-69089415D01*
X124407148Y-69150499D01*
X124463212Y-69191232D01*
X124617555Y-69269873D01*
X124782296Y-69323401D01*
X124782299Y-69323402D01*
X124953389Y-69350500D01*
X124953393Y-69350500D01*
X125126607Y-69350500D01*
X125126611Y-69350500D01*
X125297701Y-69323402D01*
X125462445Y-69269873D01*
X125616788Y-69191232D01*
X125756928Y-69089414D01*
X125879414Y-68966928D01*
X125981232Y-68826788D01*
X126059873Y-68672445D01*
X126113402Y-68507701D01*
X126140500Y-68336611D01*
X126140500Y-68163389D01*
X126113402Y-67992299D01*
X126059873Y-67827555D01*
X125981232Y-67673212D01*
X125885474Y-67541413D01*
X125879415Y-67533073D01*
X125756926Y-67410584D01*
X125708392Y-67375322D01*
X126479500Y-67375322D01*
X126479500Y-69124677D01*
X126494032Y-69197738D01*
X126521621Y-69239028D01*
X126549399Y-69280601D01*
X126611615Y-69322172D01*
X126632261Y-69335967D01*
X126690473Y-69347545D01*
X126705322Y-69350499D01*
X126705323Y-69350500D01*
X126705326Y-69350500D01*
X128454677Y-69350500D01*
X128454677Y-69350499D01*
X128483980Y-69344670D01*
X128527738Y-69335967D01*
X128527739Y-69335966D01*
X128527740Y-69335966D01*
X128610601Y-69280601D01*
X128665966Y-69197740D01*
X128665966Y-69197739D01*
X128665967Y-69197738D01*
X128680499Y-69124677D01*
X128680500Y-69124677D01*
X128680500Y-67375323D01*
X128680499Y-67375322D01*
X128672491Y-67335059D01*
X128670705Y-67326078D01*
X137679500Y-67326078D01*
X137679500Y-68273921D01*
X137708340Y-68418906D01*
X137708345Y-68418923D01*
X137753849Y-68528777D01*
X137764916Y-68555495D01*
X137784927Y-68585444D01*
X137847048Y-68678415D01*
X137951584Y-68782951D01*
X137951583Y-68782951D01*
X137981185Y-68802730D01*
X138074505Y-68865084D01*
X138138134Y-68891440D01*
X138211076Y-68921654D01*
X138211080Y-68921655D01*
X138211087Y-68921658D01*
X138356078Y-68950499D01*
X138356079Y-68950500D01*
X138356082Y-68950500D01*
X138503921Y-68950500D01*
X138503921Y-68950499D01*
X138648913Y-68921658D01*
X138785495Y-68865084D01*
X138908416Y-68782951D01*
X139012951Y-68678416D01*
X139095084Y-68555495D01*
X139147263Y-68429523D01*
X139151654Y-68418923D01*
X139151654Y-68418921D01*
X139151658Y-68418913D01*
X139180499Y-68273921D01*
X139180500Y-68273921D01*
X139180500Y-67326079D01*
X139180499Y-67326078D01*
X146319500Y-67326078D01*
X146319500Y-68273921D01*
X146348340Y-68418906D01*
X146348345Y-68418923D01*
X146393849Y-68528777D01*
X146404916Y-68555495D01*
X146424927Y-68585444D01*
X146487048Y-68678415D01*
X146591584Y-68782951D01*
X146591583Y-68782951D01*
X146621185Y-68802730D01*
X146714505Y-68865084D01*
X146778134Y-68891440D01*
X146851076Y-68921654D01*
X146851080Y-68921655D01*
X146851087Y-68921658D01*
X146996078Y-68950499D01*
X146996079Y-68950500D01*
X146996082Y-68950500D01*
X147143921Y-68950500D01*
X147143921Y-68950499D01*
X147288913Y-68921658D01*
X147425495Y-68865084D01*
X147548416Y-68782951D01*
X147634098Y-68697269D01*
X150849500Y-68697269D01*
X150849500Y-68802730D01*
X150876790Y-68904580D01*
X150876792Y-68904584D01*
X150876793Y-68904587D01*
X150929520Y-68995913D01*
X151004087Y-69070480D01*
X151004090Y-69070482D01*
X151004093Y-69070484D01*
X151006270Y-69071741D01*
X151007041Y-69072746D01*
X151007286Y-69072934D01*
X151007235Y-69072999D01*
X151034923Y-69109085D01*
X151028777Y-69155752D01*
X151006270Y-69178259D01*
X151004093Y-69179515D01*
X151004083Y-69179523D01*
X150929523Y-69254083D01*
X150929519Y-69254088D01*
X150876793Y-69345413D01*
X150876790Y-69345419D01*
X150849500Y-69447269D01*
X150849500Y-69552730D01*
X150876790Y-69654580D01*
X150876792Y-69654584D01*
X150876793Y-69654587D01*
X150929520Y-69745913D01*
X151004087Y-69820480D01*
X151004090Y-69820482D01*
X151004093Y-69820484D01*
X151006270Y-69821741D01*
X151007041Y-69822746D01*
X151007286Y-69822934D01*
X151007235Y-69822999D01*
X151034923Y-69859085D01*
X151028777Y-69905752D01*
X151006270Y-69928259D01*
X151004093Y-69929515D01*
X151004083Y-69929523D01*
X150929523Y-70004083D01*
X150929519Y-70004088D01*
X150876793Y-70095413D01*
X150876790Y-70095419D01*
X150849500Y-70197269D01*
X150849500Y-70302730D01*
X150876790Y-70404580D01*
X150876792Y-70404584D01*
X150876793Y-70404587D01*
X150929520Y-70495913D01*
X151004087Y-70570480D01*
X151004090Y-70570482D01*
X151004093Y-70570484D01*
X151006270Y-70571741D01*
X151007041Y-70572746D01*
X151007286Y-70572934D01*
X151007235Y-70572999D01*
X151034923Y-70609085D01*
X151028777Y-70655752D01*
X151006270Y-70678259D01*
X151004093Y-70679515D01*
X151004083Y-70679523D01*
X150929523Y-70754083D01*
X150929519Y-70754088D01*
X150876793Y-70845413D01*
X150876790Y-70845419D01*
X150849500Y-70947269D01*
X150849500Y-71052730D01*
X150876790Y-71154580D01*
X150876792Y-71154584D01*
X150876793Y-71154587D01*
X150929520Y-71245913D01*
X151004087Y-71320480D01*
X151004090Y-71320482D01*
X151004093Y-71320484D01*
X151006270Y-71321741D01*
X151007041Y-71322746D01*
X151007286Y-71322934D01*
X151007235Y-71322999D01*
X151034923Y-71359085D01*
X151028777Y-71405752D01*
X151006270Y-71428259D01*
X151004093Y-71429515D01*
X151004083Y-71429523D01*
X150929523Y-71504083D01*
X150929519Y-71504088D01*
X150876793Y-71595413D01*
X150876790Y-71595419D01*
X150849500Y-71697269D01*
X150849500Y-71802730D01*
X150876790Y-71904580D01*
X150876792Y-71904584D01*
X150876793Y-71904587D01*
X150929520Y-71995913D01*
X151004087Y-72070480D01*
X151095413Y-72123207D01*
X151095417Y-72123208D01*
X151095419Y-72123209D01*
X151197269Y-72150499D01*
X151197271Y-72150500D01*
X151197273Y-72150500D01*
X151302729Y-72150500D01*
X151302729Y-72150499D01*
X151404587Y-72123207D01*
X151495913Y-72070480D01*
X151570480Y-71995913D01*
X151598565Y-71947269D01*
X165099500Y-71947269D01*
X165099500Y-72052730D01*
X165126790Y-72154580D01*
X165126792Y-72154584D01*
X165126793Y-72154587D01*
X165179520Y-72245913D01*
X165254087Y-72320480D01*
X165254090Y-72320482D01*
X165254093Y-72320484D01*
X165256270Y-72321741D01*
X165257041Y-72322746D01*
X165257286Y-72322934D01*
X165257235Y-72322999D01*
X165284923Y-72359085D01*
X165278777Y-72405752D01*
X165256270Y-72428259D01*
X165254093Y-72429515D01*
X165254083Y-72429523D01*
X165179523Y-72504083D01*
X165179519Y-72504088D01*
X165126793Y-72595413D01*
X165126790Y-72595419D01*
X165099500Y-72697269D01*
X165099500Y-72802730D01*
X165126790Y-72904580D01*
X165126792Y-72904584D01*
X165126793Y-72904587D01*
X165179520Y-72995913D01*
X165254087Y-73070480D01*
X165254090Y-73070482D01*
X165254093Y-73070484D01*
X165256270Y-73071741D01*
X165257041Y-73072746D01*
X165257286Y-73072934D01*
X165257235Y-73072999D01*
X165284923Y-73109085D01*
X165278777Y-73155752D01*
X165256270Y-73178259D01*
X165254093Y-73179515D01*
X165254083Y-73179523D01*
X165179523Y-73254083D01*
X165179519Y-73254088D01*
X165126793Y-73345413D01*
X165126790Y-73345419D01*
X165099500Y-73447269D01*
X165099500Y-73552730D01*
X165126790Y-73654580D01*
X165126792Y-73654584D01*
X165126793Y-73654587D01*
X165179520Y-73745913D01*
X165254087Y-73820480D01*
X165254090Y-73820482D01*
X165254093Y-73820484D01*
X165256270Y-73821741D01*
X165257041Y-73822746D01*
X165257286Y-73822934D01*
X165257235Y-73822999D01*
X165284923Y-73859085D01*
X165278777Y-73905752D01*
X165256270Y-73928259D01*
X165254093Y-73929515D01*
X165254083Y-73929523D01*
X165179523Y-74004083D01*
X165179519Y-74004088D01*
X165126793Y-74095413D01*
X165126790Y-74095419D01*
X165099500Y-74197269D01*
X165099500Y-74302730D01*
X165126790Y-74404580D01*
X165126792Y-74404584D01*
X165126793Y-74404587D01*
X165179520Y-74495913D01*
X165254087Y-74570480D01*
X165345413Y-74623207D01*
X165345417Y-74623208D01*
X165345419Y-74623209D01*
X165447269Y-74650499D01*
X165447271Y-74650500D01*
X165447273Y-74650500D01*
X165552729Y-74650500D01*
X165552729Y-74650499D01*
X165654587Y-74623207D01*
X165745913Y-74570480D01*
X165820480Y-74495913D01*
X165873207Y-74404587D01*
X165900499Y-74302729D01*
X165900500Y-74302729D01*
X165900500Y-74197270D01*
X165900499Y-74197269D01*
X165873209Y-74095419D01*
X165873208Y-74095417D01*
X165873207Y-74095413D01*
X165820480Y-74004087D01*
X165745913Y-73929520D01*
X165743732Y-73928260D01*
X165742960Y-73927254D01*
X165742714Y-73927066D01*
X165742764Y-73927000D01*
X165715077Y-73890920D01*
X165721219Y-73844252D01*
X165743731Y-73821739D01*
X165745913Y-73820480D01*
X165820480Y-73745913D01*
X165873207Y-73654587D01*
X165900499Y-73552729D01*
X165900500Y-73552729D01*
X165900500Y-73447270D01*
X165900499Y-73447269D01*
X165873209Y-73345419D01*
X165873208Y-73345417D01*
X165873207Y-73345413D01*
X165820480Y-73254087D01*
X165745913Y-73179520D01*
X165743732Y-73178260D01*
X165742960Y-73177254D01*
X165742714Y-73177066D01*
X165742764Y-73177000D01*
X165715077Y-73140920D01*
X165721219Y-73094252D01*
X165743731Y-73071739D01*
X165745913Y-73070480D01*
X165820480Y-72995913D01*
X165873207Y-72904587D01*
X165900499Y-72802729D01*
X165900500Y-72802729D01*
X165900500Y-72697270D01*
X165900499Y-72697269D01*
X165873209Y-72595419D01*
X165873208Y-72595417D01*
X165873207Y-72595413D01*
X165820480Y-72504087D01*
X165745913Y-72429520D01*
X165743732Y-72428260D01*
X165742960Y-72427254D01*
X165742714Y-72427066D01*
X165742764Y-72427000D01*
X165715077Y-72390920D01*
X165721219Y-72344252D01*
X165743731Y-72321739D01*
X165745913Y-72320480D01*
X165820480Y-72245913D01*
X165873207Y-72154587D01*
X165900499Y-72052729D01*
X165900500Y-72052729D01*
X165900500Y-71947270D01*
X165900499Y-71947269D01*
X165873209Y-71845419D01*
X165873208Y-71845417D01*
X165873207Y-71845413D01*
X165820480Y-71754087D01*
X165745913Y-71679520D01*
X165654587Y-71626793D01*
X165654584Y-71626792D01*
X165654580Y-71626790D01*
X165552730Y-71599500D01*
X165552727Y-71599500D01*
X165447273Y-71599500D01*
X165447270Y-71599500D01*
X165345419Y-71626790D01*
X165345413Y-71626793D01*
X165254088Y-71679519D01*
X165254083Y-71679523D01*
X165179523Y-71754083D01*
X165179519Y-71754088D01*
X165126793Y-71845413D01*
X165126790Y-71845419D01*
X165099500Y-71947269D01*
X151598565Y-71947269D01*
X151623207Y-71904587D01*
X151650499Y-71802729D01*
X151650500Y-71802729D01*
X151650500Y-71697270D01*
X151650499Y-71697269D01*
X151623209Y-71595419D01*
X151623208Y-71595417D01*
X151623207Y-71595413D01*
X151570480Y-71504087D01*
X151495913Y-71429520D01*
X151493732Y-71428260D01*
X151492960Y-71427254D01*
X151492714Y-71427066D01*
X151492764Y-71427000D01*
X151465077Y-71390920D01*
X151471219Y-71344252D01*
X151493731Y-71321739D01*
X151495913Y-71320480D01*
X151570480Y-71245913D01*
X151623207Y-71154587D01*
X151650499Y-71052729D01*
X151650500Y-71052729D01*
X151650500Y-70947270D01*
X151650499Y-70947269D01*
X151623209Y-70845419D01*
X151623208Y-70845417D01*
X151623207Y-70845413D01*
X151570480Y-70754087D01*
X151495913Y-70679520D01*
X151493732Y-70678260D01*
X151492960Y-70677254D01*
X151492714Y-70677066D01*
X151492764Y-70677000D01*
X151465077Y-70640920D01*
X151471219Y-70594252D01*
X151493731Y-70571739D01*
X151495913Y-70570480D01*
X151570480Y-70495913D01*
X151623207Y-70404587D01*
X151650499Y-70302729D01*
X151650500Y-70302729D01*
X151650500Y-70197270D01*
X151650499Y-70197269D01*
X151623209Y-70095419D01*
X151623208Y-70095417D01*
X151623207Y-70095413D01*
X151570480Y-70004087D01*
X151495913Y-69929520D01*
X151493732Y-69928260D01*
X151492960Y-69927254D01*
X151492714Y-69927066D01*
X151492764Y-69927000D01*
X151465077Y-69890920D01*
X151471219Y-69844252D01*
X151493731Y-69821739D01*
X151495913Y-69820480D01*
X151570480Y-69745913D01*
X151623207Y-69654587D01*
X151624196Y-69650898D01*
X151650499Y-69552730D01*
X151650500Y-69552729D01*
X151650500Y-69447270D01*
X151650499Y-69447269D01*
X151623209Y-69345419D01*
X151623208Y-69345417D01*
X151623207Y-69345413D01*
X151570480Y-69254087D01*
X151495913Y-69179520D01*
X151493732Y-69178260D01*
X151492960Y-69177254D01*
X151492714Y-69177066D01*
X151492764Y-69177000D01*
X151465077Y-69140920D01*
X151471219Y-69094252D01*
X151493731Y-69071739D01*
X151495913Y-69070480D01*
X151570480Y-68995913D01*
X151571739Y-68993732D01*
X151572745Y-68992960D01*
X151572934Y-68992714D01*
X151572999Y-68992764D01*
X151609080Y-68965077D01*
X151655748Y-68971219D01*
X151678260Y-68993731D01*
X151679520Y-68995913D01*
X151754087Y-69070480D01*
X151845413Y-69123207D01*
X151845417Y-69123208D01*
X151845419Y-69123209D01*
X151947269Y-69150499D01*
X151947271Y-69150500D01*
X151947273Y-69150500D01*
X152052729Y-69150500D01*
X152052729Y-69150499D01*
X152141204Y-69126793D01*
X152154580Y-69123209D01*
X152154580Y-69123208D01*
X152154587Y-69123207D01*
X152245913Y-69070480D01*
X152320480Y-68995913D01*
X152321739Y-68993732D01*
X152322745Y-68992960D01*
X152322934Y-68992714D01*
X152322999Y-68992764D01*
X152359080Y-68965077D01*
X152405748Y-68971219D01*
X152428260Y-68993731D01*
X152429520Y-68995913D01*
X152504087Y-69070480D01*
X152595413Y-69123207D01*
X152595417Y-69123208D01*
X152595419Y-69123209D01*
X152697269Y-69150499D01*
X152697271Y-69150500D01*
X152697273Y-69150500D01*
X152802729Y-69150500D01*
X152802729Y-69150499D01*
X152891204Y-69126793D01*
X152904580Y-69123209D01*
X152904580Y-69123208D01*
X152904587Y-69123207D01*
X152995913Y-69070480D01*
X153070480Y-68995913D01*
X153071739Y-68993732D01*
X153072745Y-68992960D01*
X153072934Y-68992714D01*
X153072999Y-68992764D01*
X153109080Y-68965077D01*
X153155748Y-68971219D01*
X153178260Y-68993731D01*
X153179520Y-68995913D01*
X153254087Y-69070480D01*
X153345413Y-69123207D01*
X153345417Y-69123208D01*
X153345419Y-69123209D01*
X153447269Y-69150499D01*
X153447271Y-69150500D01*
X153447273Y-69150500D01*
X153552729Y-69150500D01*
X153552729Y-69150499D01*
X153641204Y-69126793D01*
X153654580Y-69123209D01*
X153654580Y-69123208D01*
X153654587Y-69123207D01*
X153745913Y-69070480D01*
X153820480Y-68995913D01*
X153821739Y-68993732D01*
X153822745Y-68992960D01*
X153822934Y-68992714D01*
X153822999Y-68992764D01*
X153859080Y-68965077D01*
X153905748Y-68971219D01*
X153928260Y-68993731D01*
X153929520Y-68995913D01*
X154004087Y-69070480D01*
X154095413Y-69123207D01*
X154095417Y-69123208D01*
X154095419Y-69123209D01*
X154197269Y-69150499D01*
X154197271Y-69150500D01*
X154197273Y-69150500D01*
X154302729Y-69150500D01*
X154302729Y-69150499D01*
X154391204Y-69126793D01*
X154404580Y-69123209D01*
X154404580Y-69123208D01*
X154404587Y-69123207D01*
X154417768Y-69115597D01*
X170699500Y-69115597D01*
X170699500Y-69384402D01*
X170734585Y-69650898D01*
X170804151Y-69910520D01*
X170804153Y-69910526D01*
X170907016Y-70158859D01*
X170990078Y-70302727D01*
X171041412Y-70391640D01*
X171205042Y-70604888D01*
X171395111Y-70794957D01*
X171593609Y-70947269D01*
X171608359Y-70958587D01*
X171841141Y-71092984D01*
X172089474Y-71195847D01*
X172221014Y-71231093D01*
X172349101Y-71265414D01*
X172349102Y-71265414D01*
X172349109Y-71265416D01*
X172615603Y-71300500D01*
X172615606Y-71300500D01*
X172884394Y-71300500D01*
X172884397Y-71300500D01*
X173150891Y-71265416D01*
X173410526Y-71195847D01*
X173658859Y-71092984D01*
X173891641Y-70958587D01*
X174104890Y-70794956D01*
X174294956Y-70604890D01*
X174458587Y-70391641D01*
X174592984Y-70158859D01*
X174695847Y-69910526D01*
X174765416Y-69650891D01*
X174800500Y-69384397D01*
X174800500Y-69115603D01*
X174765416Y-68849109D01*
X174695847Y-68589474D01*
X174592984Y-68341141D01*
X174458587Y-68108359D01*
X174407217Y-68041412D01*
X174294957Y-67895111D01*
X174104888Y-67705042D01*
X173891640Y-67541412D01*
X173806435Y-67492219D01*
X173658859Y-67407016D01*
X173410526Y-67304153D01*
X173410520Y-67304151D01*
X173150898Y-67234585D01*
X173150891Y-67234584D01*
X173117036Y-67230127D01*
X172884402Y-67199500D01*
X172884397Y-67199500D01*
X172615603Y-67199500D01*
X172615597Y-67199500D01*
X172349101Y-67234585D01*
X172089479Y-67304151D01*
X172089473Y-67304153D01*
X171917647Y-67375326D01*
X171841141Y-67407016D01*
X171834958Y-67410586D01*
X171608359Y-67541412D01*
X171395111Y-67705042D01*
X171205042Y-67895111D01*
X171041412Y-68108359D01*
X170925021Y-68309955D01*
X170909632Y-68336611D01*
X170907015Y-68341143D01*
X170804153Y-68589473D01*
X170804151Y-68589479D01*
X170734585Y-68849101D01*
X170699500Y-69115597D01*
X154417768Y-69115597D01*
X154495913Y-69070480D01*
X154570480Y-68995913D01*
X154623207Y-68904587D01*
X154650499Y-68802729D01*
X154650500Y-68802729D01*
X154650500Y-68697270D01*
X154650499Y-68697269D01*
X154623209Y-68595419D01*
X154623208Y-68595417D01*
X154623207Y-68595413D01*
X154570480Y-68504087D01*
X154495913Y-68429520D01*
X154404587Y-68376793D01*
X154404584Y-68376792D01*
X154404580Y-68376790D01*
X154302730Y-68349500D01*
X154302727Y-68349500D01*
X154197273Y-68349500D01*
X154197270Y-68349500D01*
X154095419Y-68376790D01*
X154095413Y-68376793D01*
X154004088Y-68429519D01*
X154004083Y-68429523D01*
X153929523Y-68504083D01*
X153929515Y-68504093D01*
X153928259Y-68506270D01*
X153927253Y-68507041D01*
X153927066Y-68507286D01*
X153927000Y-68507235D01*
X153890915Y-68534923D01*
X153844248Y-68528777D01*
X153821741Y-68506270D01*
X153820484Y-68504093D01*
X153820482Y-68504090D01*
X153820480Y-68504087D01*
X153745913Y-68429520D01*
X153654587Y-68376793D01*
X153654584Y-68376792D01*
X153654580Y-68376790D01*
X153552730Y-68349500D01*
X153552727Y-68349500D01*
X153447273Y-68349500D01*
X153447270Y-68349500D01*
X153345419Y-68376790D01*
X153345413Y-68376793D01*
X153254088Y-68429519D01*
X153254083Y-68429523D01*
X153179523Y-68504083D01*
X153179515Y-68504093D01*
X153178259Y-68506270D01*
X153177253Y-68507041D01*
X153177066Y-68507286D01*
X153177000Y-68507235D01*
X153140915Y-68534923D01*
X153094248Y-68528777D01*
X153071741Y-68506270D01*
X153070484Y-68504093D01*
X153070482Y-68504090D01*
X153070480Y-68504087D01*
X152995913Y-68429520D01*
X152904587Y-68376793D01*
X152904584Y-68376792D01*
X152904580Y-68376790D01*
X152802730Y-68349500D01*
X152802727Y-68349500D01*
X152697273Y-68349500D01*
X152697270Y-68349500D01*
X152595419Y-68376790D01*
X152595413Y-68376793D01*
X152504088Y-68429519D01*
X152504083Y-68429523D01*
X152429523Y-68504083D01*
X152429515Y-68504093D01*
X152428259Y-68506270D01*
X152427253Y-68507041D01*
X152427066Y-68507286D01*
X152427000Y-68507235D01*
X152390915Y-68534923D01*
X152344248Y-68528777D01*
X152321741Y-68506270D01*
X152320484Y-68504093D01*
X152320482Y-68504090D01*
X152320480Y-68504087D01*
X152245913Y-68429520D01*
X152154587Y-68376793D01*
X152154584Y-68376792D01*
X152154580Y-68376790D01*
X152052730Y-68349500D01*
X152052727Y-68349500D01*
X151947273Y-68349500D01*
X151947270Y-68349500D01*
X151845419Y-68376790D01*
X151845413Y-68376793D01*
X151754088Y-68429519D01*
X151754083Y-68429523D01*
X151679523Y-68504083D01*
X151679515Y-68504093D01*
X151678259Y-68506270D01*
X151677253Y-68507041D01*
X151677066Y-68507286D01*
X151677000Y-68507235D01*
X151640915Y-68534923D01*
X151594248Y-68528777D01*
X151571741Y-68506270D01*
X151570484Y-68504093D01*
X151570482Y-68504090D01*
X151570480Y-68504087D01*
X151495913Y-68429520D01*
X151404587Y-68376793D01*
X151404584Y-68376792D01*
X151404580Y-68376790D01*
X151302730Y-68349500D01*
X151302727Y-68349500D01*
X151197273Y-68349500D01*
X151197270Y-68349500D01*
X151095419Y-68376790D01*
X151095413Y-68376793D01*
X151004088Y-68429519D01*
X151004083Y-68429523D01*
X150929523Y-68504083D01*
X150929519Y-68504088D01*
X150876793Y-68595413D01*
X150876790Y-68595419D01*
X150849500Y-68697269D01*
X147634098Y-68697269D01*
X147652951Y-68678416D01*
X147735084Y-68555495D01*
X147787263Y-68429523D01*
X147791654Y-68418923D01*
X147791654Y-68418921D01*
X147791658Y-68418913D01*
X147820499Y-68273921D01*
X147820500Y-68273921D01*
X147820500Y-67326079D01*
X147820499Y-67326078D01*
X147816137Y-67304151D01*
X147791658Y-67181087D01*
X147791655Y-67181080D01*
X147791654Y-67181076D01*
X147735086Y-67044511D01*
X147735084Y-67044505D01*
X147652951Y-66921584D01*
X147548416Y-66817049D01*
X147548415Y-66817048D01*
X147548416Y-66817048D01*
X147425496Y-66734917D01*
X147425497Y-66734917D01*
X147425495Y-66734916D01*
X147425488Y-66734913D01*
X147288923Y-66678345D01*
X147288906Y-66678340D01*
X147143921Y-66649500D01*
X147143918Y-66649500D01*
X146996082Y-66649500D01*
X146996079Y-66649500D01*
X146851093Y-66678340D01*
X146851076Y-66678345D01*
X146714511Y-66734913D01*
X146714503Y-66734917D01*
X146591584Y-66817048D01*
X146487048Y-66921584D01*
X146404917Y-67044503D01*
X146404913Y-67044511D01*
X146348345Y-67181076D01*
X146348340Y-67181093D01*
X146319500Y-67326078D01*
X139180499Y-67326078D01*
X139176137Y-67304151D01*
X139151658Y-67181087D01*
X139151655Y-67181080D01*
X139151654Y-67181076D01*
X139095086Y-67044511D01*
X139095084Y-67044505D01*
X139012951Y-66921584D01*
X138908416Y-66817049D01*
X138908415Y-66817048D01*
X138908416Y-66817048D01*
X138785496Y-66734917D01*
X138785497Y-66734917D01*
X138785495Y-66734916D01*
X138785488Y-66734913D01*
X138648923Y-66678345D01*
X138648906Y-66678340D01*
X138503921Y-66649500D01*
X138503918Y-66649500D01*
X138356082Y-66649500D01*
X138356079Y-66649500D01*
X138211093Y-66678340D01*
X138211076Y-66678345D01*
X138074511Y-66734913D01*
X138074503Y-66734917D01*
X137951584Y-66817048D01*
X137847048Y-66921584D01*
X137764917Y-67044503D01*
X137764913Y-67044511D01*
X137708345Y-67181076D01*
X137708340Y-67181093D01*
X137679500Y-67326078D01*
X128670705Y-67326078D01*
X128665967Y-67302261D01*
X128652172Y-67281615D01*
X128610601Y-67219399D01*
X128538844Y-67171453D01*
X128527738Y-67164032D01*
X128454677Y-67149500D01*
X128454674Y-67149500D01*
X126705326Y-67149500D01*
X126705323Y-67149500D01*
X126632261Y-67164032D01*
X126549399Y-67219399D01*
X126494032Y-67302261D01*
X126479500Y-67375322D01*
X125708392Y-67375322D01*
X125616790Y-67308769D01*
X125462446Y-67230127D01*
X125297702Y-67176598D01*
X125297704Y-67176598D01*
X125126614Y-67149500D01*
X125126611Y-67149500D01*
X124953389Y-67149500D01*
X124953385Y-67149500D01*
X124782296Y-67176598D01*
X124617553Y-67230127D01*
X124463209Y-67308769D01*
X124323073Y-67410584D01*
X124323073Y-67410585D01*
X124323072Y-67410586D01*
X124200586Y-67533072D01*
X124200585Y-67533073D01*
X124200584Y-67533073D01*
X124098769Y-67673209D01*
X124020127Y-67827553D01*
X123966598Y-67992296D01*
X123939500Y-68163385D01*
X123600499Y-68163385D01*
X123573402Y-67992299D01*
X123519873Y-67827555D01*
X123441232Y-67673212D01*
X123345474Y-67541413D01*
X123339415Y-67533073D01*
X123216926Y-67410584D01*
X123076790Y-67308769D01*
X122922446Y-67230127D01*
X122757702Y-67176598D01*
X122757704Y-67176598D01*
X122586614Y-67149500D01*
X122586611Y-67149500D01*
X122413389Y-67149500D01*
X122413385Y-67149500D01*
X122242296Y-67176598D01*
X122077553Y-67230127D01*
X121923209Y-67308769D01*
X121783073Y-67410584D01*
X121783073Y-67410585D01*
X121783072Y-67410586D01*
X121660586Y-67533072D01*
X121660585Y-67533073D01*
X121660584Y-67533073D01*
X121558769Y-67673209D01*
X121480127Y-67827553D01*
X121426598Y-67992296D01*
X121399500Y-68163385D01*
X114050599Y-68163385D01*
X113891640Y-68041412D01*
X113806435Y-67992219D01*
X113658859Y-67907016D01*
X113410526Y-67804153D01*
X113410520Y-67804151D01*
X113150898Y-67734585D01*
X113150891Y-67734584D01*
X113122519Y-67730848D01*
X112884402Y-67699500D01*
X112884397Y-67699500D01*
X112615603Y-67699500D01*
X112615597Y-67699500D01*
X112349101Y-67734585D01*
X112089479Y-67804151D01*
X112089473Y-67804153D01*
X111841143Y-67907015D01*
X111608359Y-68041412D01*
X111395111Y-68205042D01*
X111205042Y-68395111D01*
X111041412Y-68608359D01*
X110907015Y-68841143D01*
X110804153Y-69089473D01*
X110804151Y-69089479D01*
X110734585Y-69349101D01*
X110699500Y-69615597D01*
X108256368Y-69615597D01*
X108256573Y-69610907D01*
X108256573Y-69610906D01*
X108263717Y-69447273D01*
X108267505Y-69360518D01*
X108267969Y-69355202D01*
X108318510Y-68971308D01*
X108319435Y-68966065D01*
X108403238Y-68588051D01*
X108404616Y-68582906D01*
X108521046Y-68213637D01*
X108522880Y-68208600D01*
X108535072Y-68179166D01*
X108671049Y-67850886D01*
X108673299Y-67846062D01*
X108852086Y-67502616D01*
X108854748Y-67498005D01*
X109062787Y-67171449D01*
X109065863Y-67167058D01*
X109301561Y-66859889D01*
X109304973Y-66855822D01*
X109566576Y-66570333D01*
X109570333Y-66566576D01*
X109855822Y-66304973D01*
X109859889Y-66301561D01*
X110167061Y-66065860D01*
X110171453Y-66062785D01*
X110498005Y-65854748D01*
X110502616Y-65852086D01*
X110846062Y-65673299D01*
X110850886Y-65671049D01*
X111208604Y-65522878D01*
X111213637Y-65521046D01*
X111582906Y-65404616D01*
X111588051Y-65403238D01*
X111966065Y-65319435D01*
X111971308Y-65318510D01*
X112355202Y-65267969D01*
X112360518Y-65267505D01*
X112714446Y-65252052D01*
X112748650Y-65250559D01*
X112751332Y-65250500D01*
X112815892Y-65250500D01*
X172684108Y-65250500D01*
X172748668Y-65250500D01*
X172751351Y-65250559D01*
G37*
%TD.AperFunction*%
%TD*%
M02*
