%TF.GenerationSoftware,KiCad,Pcbnew,9.0.4*%
%TF.CreationDate,2025-10-01T21:18:27+02:00*%
%TF.ProjectId,gpsdo,67707364-6f2e-46b6-9963-61645f706362,rev?*%
%TF.SameCoordinates,Original*%
%TF.FileFunction,Paste,Top*%
%TF.FilePolarity,Positive*%
%FSLAX46Y46*%
G04 Gerber Fmt 4.6, Leading zero omitted, Abs format (unit mm)*
G04 Created by KiCad (PCBNEW 9.0.4) date 2025-10-01 21:18:27*
%MOMM*%
%LPD*%
G01*
G04 APERTURE LIST*
G04 Aperture macros list*
%AMRoundRect*
0 Rectangle with rounded corners*
0 $1 Rounding radius*
0 $2 $3 $4 $5 $6 $7 $8 $9 X,Y pos of 4 corners*
0 Add a 4 corners polygon primitive as box body*
4,1,4,$2,$3,$4,$5,$6,$7,$8,$9,$2,$3,0*
0 Add four circle primitives for the rounded corners*
1,1,$1+$1,$2,$3*
1,1,$1+$1,$4,$5*
1,1,$1+$1,$6,$7*
1,1,$1+$1,$8,$9*
0 Add four rect primitives between the rounded corners*
20,1,$1+$1,$2,$3,$4,$5,0*
20,1,$1+$1,$4,$5,$6,$7,0*
20,1,$1+$1,$6,$7,$8,$9,0*
20,1,$1+$1,$8,$9,$2,$3,0*%
G04 Aperture macros list end*
%ADD10R,0.533400X1.701800*%
%ADD11RoundRect,0.090000X-0.090000X0.139000X-0.090000X-0.139000X0.090000X-0.139000X0.090000X0.139000X0*%
%ADD12RoundRect,0.090000X0.139000X0.090000X-0.139000X0.090000X-0.139000X-0.090000X0.139000X-0.090000X0*%
%ADD13RoundRect,0.250000X0.325000X0.450000X-0.325000X0.450000X-0.325000X-0.450000X0.325000X-0.450000X0*%
%ADD14RoundRect,0.150000X-0.825000X-0.150000X0.825000X-0.150000X0.825000X0.150000X-0.825000X0.150000X0*%
%ADD15RoundRect,0.090000X-0.139000X-0.090000X0.139000X-0.090000X0.139000X0.090000X-0.139000X0.090000X0*%
%ADD16RoundRect,0.090000X0.090000X-0.139000X0.090000X0.139000X-0.090000X0.139000X-0.090000X-0.139000X0*%
%ADD17RoundRect,0.250000X-0.350000X0.450000X-0.350000X-0.450000X0.350000X-0.450000X0.350000X0.450000X0*%
%ADD18RoundRect,0.250000X0.000000X-0.445477X0.445477X0.000000X0.000000X0.445477X-0.445477X0.000000X0*%
%ADD19RoundRect,0.062500X-0.220971X-0.309359X0.309359X0.220971X0.220971X0.309359X-0.309359X-0.220971X0*%
%ADD20RoundRect,0.062500X0.220971X-0.309359X0.309359X-0.220971X-0.220971X0.309359X-0.309359X0.220971X0*%
%ADD21RoundRect,0.375000X-0.625000X-0.375000X0.625000X-0.375000X0.625000X0.375000X-0.625000X0.375000X0*%
%ADD22RoundRect,0.500000X-0.500000X-1.400000X0.500000X-1.400000X0.500000X1.400000X-0.500000X1.400000X0*%
%ADD23RoundRect,0.150000X-0.512500X-0.150000X0.512500X-0.150000X0.512500X0.150000X-0.512500X0.150000X0*%
%ADD24R,0.600000X1.240000*%
%ADD25R,0.300000X1.240000*%
%ADD26RoundRect,0.087500X0.725000X0.087500X-0.725000X0.087500X-0.725000X-0.087500X0.725000X-0.087500X0*%
%ADD27RoundRect,0.160000X-0.197500X-0.160000X0.197500X-0.160000X0.197500X0.160000X-0.197500X0.160000X0*%
%ADD28RoundRect,0.150000X0.825000X0.150000X-0.825000X0.150000X-0.825000X-0.150000X0.825000X-0.150000X0*%
G04 APERTURE END LIST*
D10*
%TO.C,U1*%
X151045000Y-84154200D03*
X149775000Y-84154200D03*
X148505000Y-84154200D03*
X147235000Y-84154200D03*
X145965000Y-84154200D03*
X144695000Y-84154200D03*
X143425000Y-84154200D03*
X142155000Y-84154200D03*
X142155000Y-89335800D03*
X143425000Y-89335800D03*
X144695000Y-89335800D03*
X145965000Y-89335800D03*
X147235000Y-89335800D03*
X148505000Y-89335800D03*
X149775000Y-89335800D03*
X151045000Y-89335800D03*
%TD*%
D11*
%TO.C,C24*%
X138750000Y-88115000D03*
X138750000Y-87250000D03*
%TD*%
D12*
%TO.C,C2*%
X151101250Y-91505000D03*
X150236250Y-91505000D03*
%TD*%
D13*
%TO.C,D3*%
X112425000Y-78150000D03*
X110375000Y-78150000D03*
%TD*%
D14*
%TO.C,U5*%
X118732500Y-116862500D03*
X118732500Y-118132500D03*
X118732500Y-119402500D03*
X118732500Y-120672500D03*
X123682500Y-120672500D03*
X123682500Y-119402500D03*
X123682500Y-118132500D03*
X123682500Y-116862500D03*
%TD*%
D15*
%TO.C,R1*%
X131000000Y-112500000D03*
X131865000Y-112500000D03*
%TD*%
%TO.C,C18*%
X137885000Y-89250000D03*
X138750000Y-89250000D03*
%TD*%
D12*
%TO.C,R18*%
X170932500Y-85750000D03*
X170067500Y-85750000D03*
%TD*%
D15*
%TO.C,R2*%
X143612500Y-92245000D03*
X144477500Y-92245000D03*
%TD*%
D12*
%TO.C,C4*%
X141440000Y-119650000D03*
X140575000Y-119650000D03*
%TD*%
D11*
%TO.C,C32*%
X135250000Y-108067500D03*
X135250000Y-108932500D03*
%TD*%
D15*
%TO.C,C5*%
X168567500Y-101250000D03*
X169432500Y-101250000D03*
%TD*%
D16*
%TO.C,R16*%
X136000000Y-70432500D03*
X136000000Y-69567500D03*
%TD*%
D11*
%TO.C,C21*%
X137750000Y-87250000D03*
X137750000Y-88115000D03*
%TD*%
D12*
%TO.C,R13*%
X116582500Y-80900000D03*
X115717500Y-80900000D03*
%TD*%
D15*
%TO.C,R3*%
X143612500Y-91495000D03*
X144477500Y-91495000D03*
%TD*%
%TO.C,C31*%
X163475000Y-73500000D03*
X164340000Y-73500000D03*
%TD*%
D17*
%TO.C,X1*%
X122750000Y-92015000D03*
X122750000Y-94215000D03*
X124450000Y-94215000D03*
X124450000Y-92015000D03*
%TD*%
D15*
%TO.C,C12*%
X118775000Y-123387500D03*
X119640000Y-123387500D03*
%TD*%
D18*
%TO.C,U6*%
X127717652Y-87115000D03*
X128707601Y-88104949D03*
X129697551Y-89094899D03*
X130687500Y-90084848D03*
X128707601Y-86125051D03*
X129697551Y-87115000D03*
X130687500Y-88104949D03*
X131677449Y-89094899D03*
X129697551Y-85135101D03*
X130687500Y-86125051D03*
X131677449Y-87115000D03*
X132667399Y-88104949D03*
X130687500Y-84145152D03*
X131677449Y-85135101D03*
X132667399Y-86125051D03*
X133657348Y-87115000D03*
D19*
X126312277Y-87601136D03*
X126665830Y-87954689D03*
X127019384Y-88308243D03*
X127372937Y-88661796D03*
X127726490Y-89015349D03*
X128080044Y-89368903D03*
X128433597Y-89722456D03*
X128787151Y-90076010D03*
X129140704Y-90429563D03*
X129494257Y-90783116D03*
X129847811Y-91136670D03*
X130201364Y-91490223D03*
D20*
X131173636Y-91490223D03*
X131527189Y-91136670D03*
X131880743Y-90783116D03*
X132234296Y-90429563D03*
X132587849Y-90076010D03*
X132941403Y-89722456D03*
X133294956Y-89368903D03*
X133648510Y-89015349D03*
X134002063Y-88661796D03*
X134355616Y-88308243D03*
X134709170Y-87954689D03*
X135062723Y-87601136D03*
D19*
X135062723Y-86628864D03*
X134709170Y-86275311D03*
X134355616Y-85921757D03*
X134002063Y-85568204D03*
X133648510Y-85214651D03*
X133294956Y-84861097D03*
X132941403Y-84507544D03*
X132587849Y-84153990D03*
X132234296Y-83800437D03*
X131880743Y-83446884D03*
X131527189Y-83093330D03*
X131173636Y-82739777D03*
D20*
X130201364Y-82739777D03*
X129847811Y-83093330D03*
X129494257Y-83446884D03*
X129140704Y-83800437D03*
X128787151Y-84153990D03*
X128433597Y-84507544D03*
X128080044Y-84861097D03*
X127726490Y-85214651D03*
X127372937Y-85568204D03*
X127019384Y-85921757D03*
X126665830Y-86275311D03*
X126312277Y-86628864D03*
%TD*%
D16*
%TO.C,C15*%
X121750000Y-113682500D03*
X121750000Y-112817500D03*
%TD*%
D15*
%TO.C,C20*%
X130885000Y-80365000D03*
X131750000Y-80365000D03*
%TD*%
%TO.C,C11*%
X126592500Y-115021250D03*
X127457500Y-115021250D03*
%TD*%
D12*
%TO.C,C3*%
X141440000Y-118650000D03*
X140575000Y-118650000D03*
%TD*%
D11*
%TO.C,R11*%
X120750000Y-97885000D03*
X120750000Y-98750000D03*
%TD*%
%TO.C,C27*%
X128000000Y-93567500D03*
X128000000Y-94432500D03*
%TD*%
D21*
%TO.C,U7*%
X153450000Y-70950000D03*
X153450000Y-73250000D03*
D22*
X159750000Y-73250000D03*
D21*
X153450000Y-75550000D03*
%TD*%
D13*
%TO.C,D1*%
X112425000Y-83650000D03*
X110375000Y-83650000D03*
%TD*%
D12*
%TO.C,R17*%
X138682500Y-111750000D03*
X137817500Y-111750000D03*
%TD*%
D11*
%TO.C,C7*%
X132182500Y-114067500D03*
X132182500Y-114932500D03*
%TD*%
%TO.C,C17*%
X126250000Y-93817500D03*
X126250000Y-94682500D03*
%TD*%
D12*
%TO.C,R12*%
X116582500Y-83650000D03*
X115717500Y-83650000D03*
%TD*%
D23*
%TO.C,U9*%
X166112500Y-84800000D03*
X166112500Y-85750000D03*
X166112500Y-86700000D03*
X168387500Y-86700000D03*
X168387500Y-84800000D03*
%TD*%
D16*
%TO.C,C8*%
X126932500Y-127817500D03*
X126932500Y-126952500D03*
%TD*%
D12*
%TO.C,R9*%
X123750000Y-84250000D03*
X122885000Y-84250000D03*
%TD*%
D24*
%TO.C,J3*%
X145950000Y-72600000D03*
X145150000Y-72600000D03*
D25*
X144000000Y-72600000D03*
X143000000Y-72600000D03*
X142500000Y-72600000D03*
X141500000Y-72600000D03*
D24*
X140350000Y-72600000D03*
X139550000Y-72600000D03*
X139550000Y-72600000D03*
X140350000Y-72600000D03*
D25*
X141000000Y-72600000D03*
X142000000Y-72600000D03*
X143500000Y-72600000D03*
X144500000Y-72600000D03*
D24*
X145150000Y-72600000D03*
X145950000Y-72600000D03*
%TD*%
D12*
%TO.C,R6*%
X121615000Y-110750000D03*
X120750000Y-110750000D03*
%TD*%
D10*
%TO.C,U2*%
X162945000Y-84159200D03*
X161675000Y-84159200D03*
X160405000Y-84159200D03*
X159135000Y-84159200D03*
X157865000Y-84159200D03*
X156595000Y-84159200D03*
X155325000Y-84159200D03*
X154055000Y-84159200D03*
X154055000Y-89340800D03*
X155325000Y-89340800D03*
X156595000Y-89340800D03*
X157865000Y-89340800D03*
X159135000Y-89340800D03*
X160405000Y-89340800D03*
X161675000Y-89340800D03*
X162945000Y-89340800D03*
%TD*%
D12*
%TO.C,C37*%
X168182500Y-83000000D03*
X167317500Y-83000000D03*
%TD*%
%TO.C,C1*%
X162932500Y-91500000D03*
X162067500Y-91500000D03*
%TD*%
D26*
%TO.C,U4*%
X128295000Y-113000000D03*
X128295000Y-112500000D03*
X128295000Y-112000000D03*
X128295000Y-111500000D03*
X128295000Y-111000000D03*
X124070000Y-111000000D03*
X124070000Y-111500000D03*
X124070000Y-112000000D03*
X124070000Y-112500000D03*
X124070000Y-113000000D03*
%TD*%
D15*
%TO.C,C29*%
X163475000Y-72000000D03*
X164340000Y-72000000D03*
%TD*%
D12*
%TO.C,L1*%
X131865000Y-113250000D03*
X131000000Y-113250000D03*
%TD*%
D16*
%TO.C,C6*%
X127932500Y-127817500D03*
X127932500Y-126952500D03*
%TD*%
D12*
%TO.C,R14*%
X116582500Y-78150000D03*
X115717500Y-78150000D03*
%TD*%
D15*
%TO.C,C28*%
X153317500Y-77750000D03*
X154182500Y-77750000D03*
%TD*%
D11*
%TO.C,C9*%
X130682500Y-114067500D03*
X130682500Y-114932500D03*
%TD*%
D27*
%TO.C,TH1*%
X139902500Y-111750000D03*
X141097500Y-111750000D03*
%TD*%
D15*
%TO.C,C33*%
X163475000Y-74250000D03*
X164340000Y-74250000D03*
%TD*%
%TO.C,C10*%
X126592500Y-116021250D03*
X127457500Y-116021250D03*
%TD*%
D12*
%TO.C,R10*%
X119682500Y-97802500D03*
X118817500Y-97802500D03*
%TD*%
%TO.C,C19*%
X123750000Y-85115000D03*
X122885000Y-85115000D03*
%TD*%
D15*
%TO.C,C23*%
X130885000Y-79365000D03*
X131750000Y-79365000D03*
%TD*%
D13*
%TO.C,D2*%
X112425000Y-80900000D03*
X110375000Y-80900000D03*
%TD*%
D16*
%TO.C,R4*%
X115957500Y-120225000D03*
X115957500Y-119360000D03*
%TD*%
D15*
%TO.C,C25*%
X130860000Y-78365000D03*
X131725000Y-78365000D03*
%TD*%
%TO.C,C34*%
X145567500Y-74500000D03*
X146432500Y-74500000D03*
%TD*%
D28*
%TO.C,U3*%
X123682500Y-129197500D03*
X123682500Y-127927500D03*
X123682500Y-126657500D03*
X123682500Y-125387500D03*
X118732500Y-125387500D03*
X118732500Y-126657500D03*
X118732500Y-127927500D03*
X118732500Y-129197500D03*
%TD*%
D12*
%TO.C,C13*%
X115957500Y-121292500D03*
X115092500Y-121292500D03*
%TD*%
%TO.C,C36*%
X168182500Y-82250000D03*
X167317500Y-82250000D03*
%TD*%
%TO.C,C22*%
X123750000Y-86115000D03*
X122885000Y-86115000D03*
%TD*%
D16*
%TO.C,R15*%
X149250000Y-70432500D03*
X149250000Y-69567500D03*
%TD*%
D12*
%TO.C,R7*%
X128297500Y-109250000D03*
X127432500Y-109250000D03*
%TD*%
D11*
%TO.C,C26*%
X129000000Y-93567500D03*
X129000000Y-94432500D03*
%TD*%
D12*
%TO.C,R5*%
X121615000Y-111750000D03*
X120750000Y-111750000D03*
%TD*%
D15*
%TO.C,C30*%
X163475000Y-72750000D03*
X164340000Y-72750000D03*
%TD*%
%TO.C,C16*%
X122817500Y-90250000D03*
X123682500Y-90250000D03*
%TD*%
D12*
%TO.C,C14*%
X115957500Y-122042500D03*
X115092500Y-122042500D03*
%TD*%
%TO.C,C35*%
X139932500Y-74500000D03*
X139067500Y-74500000D03*
%TD*%
D16*
%TO.C,R8*%
X127750000Y-118475000D03*
X127750000Y-117610000D03*
%TD*%
M02*
