%TF.GenerationSoftware,KiCad,Pcbnew,9.0.4*%
%TF.CreationDate,2025-10-01T21:18:27+02:00*%
%TF.ProjectId,gpsdo,67707364-6f2e-46b6-9963-61645f706362,rev?*%
%TF.SameCoordinates,Original*%
%TF.FileFunction,Copper,L1,Top*%
%TF.FilePolarity,Positive*%
%FSLAX46Y46*%
G04 Gerber Fmt 4.6, Leading zero omitted, Abs format (unit mm)*
G04 Created by KiCad (PCBNEW 9.0.4) date 2025-10-01 21:18:27*
%MOMM*%
%LPD*%
G01*
G04 APERTURE LIST*
G04 Aperture macros list*
%AMRoundRect*
0 Rectangle with rounded corners*
0 $1 Rounding radius*
0 $2 $3 $4 $5 $6 $7 $8 $9 X,Y pos of 4 corners*
0 Add a 4 corners polygon primitive as box body*
4,1,4,$2,$3,$4,$5,$6,$7,$8,$9,$2,$3,0*
0 Add four circle primitives for the rounded corners*
1,1,$1+$1,$2,$3*
1,1,$1+$1,$4,$5*
1,1,$1+$1,$6,$7*
1,1,$1+$1,$8,$9*
0 Add four rect primitives between the rounded corners*
20,1,$1+$1,$2,$3,$4,$5,0*
20,1,$1+$1,$4,$5,$6,$7,0*
20,1,$1+$1,$6,$7,$8,$9,0*
20,1,$1+$1,$8,$9,$2,$3,0*%
%AMRotRect*
0 Rectangle, with rotation*
0 The origin of the aperture is its center*
0 $1 length*
0 $2 width*
0 $3 Rotation angle, in degrees counterclockwise*
0 Add horizontal line*
21,1,$1,$2,0,0,$3*%
G04 Aperture macros list end*
%TA.AperFunction,EtchedComponent*%
%ADD10C,0.000000*%
%TD*%
%TA.AperFunction,SMDPad,CuDef*%
%ADD11R,0.533400X1.701800*%
%TD*%
%TA.AperFunction,SMDPad,CuDef*%
%ADD12RoundRect,0.100000X-0.100000X0.217500X-0.100000X-0.217500X0.100000X-0.217500X0.100000X0.217500X0*%
%TD*%
%TA.AperFunction,ComponentPad*%
%ADD13C,2.540000*%
%TD*%
%TA.AperFunction,ComponentPad*%
%ADD14C,3.600000*%
%TD*%
%TA.AperFunction,ConnectorPad*%
%ADD15C,5.600000*%
%TD*%
%TA.AperFunction,SMDPad,CuDef*%
%ADD16RoundRect,0.100000X0.217500X0.100000X-0.217500X0.100000X-0.217500X-0.100000X0.217500X-0.100000X0*%
%TD*%
%TA.AperFunction,ComponentPad*%
%ADD17R,1.700000X1.700000*%
%TD*%
%TA.AperFunction,ComponentPad*%
%ADD18C,1.700000*%
%TD*%
%TA.AperFunction,SMDPad,CuDef*%
%ADD19RoundRect,0.250000X0.325000X0.450000X-0.325000X0.450000X-0.325000X-0.450000X0.325000X-0.450000X0*%
%TD*%
%TA.AperFunction,SMDPad,CuDef*%
%ADD20RoundRect,0.150000X-0.825000X-0.150000X0.825000X-0.150000X0.825000X0.150000X-0.825000X0.150000X0*%
%TD*%
%TA.AperFunction,SMDPad,CuDef*%
%ADD21RoundRect,0.100000X-0.217500X-0.100000X0.217500X-0.100000X0.217500X0.100000X-0.217500X0.100000X0*%
%TD*%
%TA.AperFunction,SMDPad,CuDef*%
%ADD22RoundRect,0.100000X0.100000X-0.217500X0.100000X0.217500X-0.100000X0.217500X-0.100000X-0.217500X0*%
%TD*%
%TA.AperFunction,SMDPad,CuDef*%
%ADD23C,1.500000*%
%TD*%
%TA.AperFunction,SMDPad,CuDef*%
%ADD24RoundRect,0.250000X-0.350000X0.450000X-0.350000X-0.450000X0.350000X-0.450000X0.350000X0.450000X0*%
%TD*%
%TA.AperFunction,SMDPad,CuDef*%
%ADD25RoundRect,0.250000X1.350000X-0.385000X1.350000X0.385000X-1.350000X0.385000X-1.350000X-0.385000X0*%
%TD*%
%TA.AperFunction,SMDPad,CuDef*%
%ADD26RoundRect,0.250000X1.600000X-0.425000X1.600000X0.425000X-1.600000X0.425000X-1.600000X-0.425000X0*%
%TD*%
%TA.AperFunction,SMDPad,CuDef*%
%ADD27RoundRect,0.062500X-0.220971X-0.309359X0.309359X0.220971X0.220971X0.309359X-0.309359X-0.220971X0*%
%TD*%
%TA.AperFunction,SMDPad,CuDef*%
%ADD28RoundRect,0.062500X0.220971X-0.309359X0.309359X-0.220971X-0.220971X0.309359X-0.309359X0.220971X0*%
%TD*%
%TA.AperFunction,HeatsinkPad*%
%ADD29RotRect,5.600000X5.600000X45.000000*%
%TD*%
%TA.AperFunction,SMDPad,CuDef*%
%ADD30RoundRect,0.375000X-0.625000X-0.375000X0.625000X-0.375000X0.625000X0.375000X-0.625000X0.375000X0*%
%TD*%
%TA.AperFunction,SMDPad,CuDef*%
%ADD31RoundRect,0.500000X-0.500000X-1.400000X0.500000X-1.400000X0.500000X1.400000X-0.500000X1.400000X0*%
%TD*%
%TA.AperFunction,SMDPad,CuDef*%
%ADD32RoundRect,0.150000X-0.512500X-0.150000X0.512500X-0.150000X0.512500X0.150000X-0.512500X0.150000X0*%
%TD*%
%TA.AperFunction,SMDPad,CuDef*%
%ADD33R,0.600000X1.240000*%
%TD*%
%TA.AperFunction,SMDPad,CuDef*%
%ADD34R,0.300000X1.240000*%
%TD*%
%TA.AperFunction,HeatsinkPad*%
%ADD35O,1.000000X2.100000*%
%TD*%
%TA.AperFunction,HeatsinkPad*%
%ADD36O,1.000000X1.800000*%
%TD*%
%TA.AperFunction,SMDPad,CuDef*%
%ADD37RoundRect,0.087500X0.725000X0.087500X-0.725000X0.087500X-0.725000X-0.087500X0.725000X-0.087500X0*%
%TD*%
%TA.AperFunction,SMDPad,CuDef*%
%ADD38RoundRect,0.160000X-0.197500X-0.160000X0.197500X-0.160000X0.197500X0.160000X-0.197500X0.160000X0*%
%TD*%
%TA.AperFunction,SMDPad,CuDef*%
%ADD39RoundRect,0.150000X0.825000X0.150000X-0.825000X0.150000X-0.825000X-0.150000X0.825000X-0.150000X0*%
%TD*%
%TA.AperFunction,ComponentPad*%
%ADD40C,0.600000*%
%TD*%
%TA.AperFunction,SMDPad,CuDef*%
%ADD41C,1.000000*%
%TD*%
%TA.AperFunction,ViaPad*%
%ADD42C,0.600000*%
%TD*%
%TA.AperFunction,Conductor*%
%ADD43C,0.200000*%
%TD*%
%TA.AperFunction,Conductor*%
%ADD44C,0.600000*%
%TD*%
%TA.AperFunction,Conductor*%
%ADD45C,1.000000*%
%TD*%
G04 APERTURE END LIST*
D10*
%TA.AperFunction,EtchedComponent*%
%TO.C,NT1*%
G36*
X114050000Y-114750000D02*
G01*
X113450000Y-114750000D01*
X113450000Y-113550000D01*
X114050000Y-113550000D01*
X114050000Y-114750000D01*
G37*
%TD.AperFunction*%
%TA.AperFunction,EtchedComponent*%
%TO.C,NT2*%
G36*
X129200000Y-96700000D02*
G01*
X128000000Y-96700000D01*
X128000000Y-96100000D01*
X129200000Y-96100000D01*
X129200000Y-96700000D01*
G37*
%TD.AperFunction*%
%TA.AperFunction,EtchedComponent*%
%TO.C,NT3*%
G36*
X170925000Y-79700000D02*
G01*
X170325000Y-79700000D01*
X170325000Y-78500000D01*
X170925000Y-78500000D01*
X170925000Y-79700000D01*
G37*
%TD.AperFunction*%
%TD*%
D11*
%TO.P,U1,1,Q11*%
%TO.N,CNT_Q11*%
X151045000Y-84154200D03*
%TO.P,U1,2,Q5*%
%TO.N,unconnected-(U1-Q5-Pad2)*%
X149775000Y-84154200D03*
%TO.P,U1,3,Q4*%
%TO.N,unconnected-(U1-Q4-Pad3)*%
X148505000Y-84154200D03*
%TO.P,U1,4,Q6*%
%TO.N,unconnected-(U1-Q6-Pad4)*%
X147235000Y-84154200D03*
%TO.P,U1,5,Q3*%
%TO.N,unconnected-(U1-Q3-Pad5)*%
X145965000Y-84154200D03*
%TO.P,U1,6,Q2*%
%TO.N,unconnected-(U1-Q2-Pad6)*%
X144695000Y-84154200D03*
%TO.P,U1,7,Q1*%
%TO.N,unconnected-(U1-Q1-Pad7)*%
X143425000Y-84154200D03*
%TO.P,U1,8,GND*%
%TO.N,GND*%
X142155000Y-84154200D03*
%TO.P,U1,9,Q0*%
%TO.N,OCXO_10MHZ*%
X142155000Y-89335800D03*
%TO.P,U1,10,~CP*%
%TO.N,Net-(U1-~CP)*%
X143425000Y-89335800D03*
%TO.P,U1,11,MR*%
%TO.N,GND*%
X144695000Y-89335800D03*
%TO.P,U1,12,Q8*%
%TO.N,unconnected-(U1-Q8-Pad12)*%
X145965000Y-89335800D03*
%TO.P,U1,13,Q7*%
%TO.N,unconnected-(U1-Q7-Pad13)*%
X147235000Y-89335800D03*
%TO.P,U1,14,Q9*%
%TO.N,unconnected-(U1-Q9-Pad14)*%
X148505000Y-89335800D03*
%TO.P,U1,15,Q10*%
%TO.N,unconnected-(U1-Q10-Pad15)*%
X149775000Y-89335800D03*
%TO.P,U1,16,VCC*%
%TO.N,VDD_3V3*%
X151045000Y-89335800D03*
%TD*%
D12*
%TO.P,C24,2*%
%TO.N,GND*%
X138750000Y-88090000D03*
%TO.P,C24,1*%
%TO.N,VDD_3V3*%
X138750000Y-87275000D03*
%TD*%
D13*
%TO.P,OSC5A2B1,1,Out*%
%TO.N,OCXO_Out*%
X145450000Y-102225000D03*
%TO.P,OSC5A2B1,2,GND*%
%TO.N,GNDA*%
X145450000Y-111750000D03*
%TO.P,OSC5A2B1,3,Vref*%
%TO.N,Net-(OSC5A2B1-Vref)*%
X145450000Y-121275000D03*
%TO.P,OSC5A2B1,4,NC*%
%TO.N,unconnected-(OSC5A2B1-NC-Pad4)*%
X164500000Y-121275000D03*
%TO.P,OSC5A2B1,5,Vcc*%
%TO.N,VCC_5V*%
X164500000Y-102225000D03*
%TD*%
D14*
%TO.P,REF\u002A\u002A,1*%
%TO.N,N/C*%
X112750000Y-69750000D03*
D15*
X112750000Y-69750000D03*
%TD*%
D16*
%TO.P,C2,1*%
%TO.N,VDD_3V3*%
X151076250Y-91505000D03*
%TO.P,C2,2*%
%TO.N,GND*%
X150261250Y-91505000D03*
%TD*%
D17*
%TO.P,J4,1,Pin_1*%
%TO.N,OCXO_10MHZ*%
X127580000Y-68250000D03*
D18*
%TO.P,J4,2,Pin_2*%
%TO.N,OCXO_625KHZ*%
X125040000Y-68250000D03*
%TO.P,J4,3,Pin_3*%
%TO.N,GND*%
X122500000Y-68250000D03*
%TD*%
D19*
%TO.P,D3,1,K*%
%TO.N,Net-(D3-K)*%
X112425000Y-78150000D03*
%TO.P,D3,2,A*%
%TO.N,VDD_3V3*%
X110375000Y-78150000D03*
%TD*%
D20*
%TO.P,U5,1,NC*%
%TO.N,unconnected-(U5-NC-Pad1)*%
X118732500Y-116862500D03*
%TO.P,U5,2,-*%
%TO.N,V_OCXO_Buffer*%
X118732500Y-118132500D03*
%TO.P,U5,3,+*%
%TO.N,Net-(U5-+)*%
X118732500Y-119402500D03*
%TO.P,U5,4,V-*%
%TO.N,GNDA*%
X118732500Y-120672500D03*
%TO.P,U5,5,NC*%
%TO.N,unconnected-(U5-NC-Pad5)*%
X123682500Y-120672500D03*
%TO.P,U5,6*%
%TO.N,V_OCXO_Buffer*%
X123682500Y-119402500D03*
%TO.P,U5,7,V+*%
%TO.N,VCC_5V*%
X123682500Y-118132500D03*
%TO.P,U5,8,NC*%
%TO.N,unconnected-(U5-NC-Pad8)*%
X123682500Y-116862500D03*
%TD*%
D21*
%TO.P,R1,1*%
%TO.N,OCXO_Vref*%
X131025000Y-112500000D03*
%TO.P,R1,2*%
%TO.N,Net-(OSC5A2B1-Vref)*%
X131840000Y-112500000D03*
%TD*%
%TO.P,C18,1*%
%TO.N,Net-(U6-VCAP1)*%
X137910000Y-89250000D03*
%TO.P,C18,2*%
%TO.N,GND*%
X138725000Y-89250000D03*
%TD*%
D16*
%TO.P,R18,1*%
%TO.N,Net-(J5-In)*%
X170907500Y-85750000D03*
%TO.P,R18,2*%
%TO.N,Net-(R18-Pad2)*%
X170092500Y-85750000D03*
%TD*%
D21*
%TO.P,R2,1*%
%TO.N,Net-(U1-~CP)*%
X143637500Y-92245000D03*
%TO.P,R2,2*%
%TO.N,OCXO_Out*%
X144452500Y-92245000D03*
%TD*%
D16*
%TO.P,C4,1*%
%TO.N,Net-(OSC5A2B1-Vref)*%
X141415000Y-119650000D03*
%TO.P,C4,2*%
%TO.N,GNDA*%
X140600000Y-119650000D03*
%TD*%
D17*
%TO.P,J1,1,Pin_1*%
%TO.N,PPS_5V*%
X111250000Y-98475000D03*
D18*
%TO.P,J1,2,Pin_2*%
%TO.N,GND*%
X111250000Y-101015000D03*
%TD*%
D12*
%TO.P,C32,1*%
%TO.N,OCXO_Temperature*%
X135250000Y-108092500D03*
%TO.P,C32,2*%
%TO.N,GNDA*%
X135250000Y-108907500D03*
%TD*%
D21*
%TO.P,C5,1*%
%TO.N,VCC_5V*%
X168592500Y-101250000D03*
%TO.P,C5,2*%
%TO.N,GNDA*%
X169407500Y-101250000D03*
%TD*%
D22*
%TO.P,R16,1*%
%TO.N,VCC_5V*%
X136000000Y-70407500D03*
%TO.P,R16,2*%
%TO.N,Net-(J3-CC2)*%
X136000000Y-69592500D03*
%TD*%
D12*
%TO.P,C21,1*%
%TO.N,VDD_3V3*%
X137750000Y-87275000D03*
%TO.P,C21,2*%
%TO.N,GND*%
X137750000Y-88090000D03*
%TD*%
D16*
%TO.P,R13,1*%
%TO.N,LED2*%
X116557500Y-80900000D03*
%TO.P,R13,2*%
%TO.N,Net-(D2-K)*%
X115742500Y-80900000D03*
%TD*%
D21*
%TO.P,R3,1*%
%TO.N,Net-(U1-~CP)*%
X143637500Y-91495000D03*
%TO.P,R3,2*%
%TO.N,GND*%
X144452500Y-91495000D03*
%TD*%
D23*
%TO.P,TP3,1,1*%
%TO.N,DAC_Vref*%
X131500000Y-117750000D03*
%TD*%
D21*
%TO.P,C31,1*%
%TO.N,VDD_3V3*%
X163500000Y-73500000D03*
%TO.P,C31,2*%
%TO.N,GND*%
X164315000Y-73500000D03*
%TD*%
D24*
%TO.P,X1,1,1*%
%TO.N,OSC_IN*%
X122750000Y-92015000D03*
%TO.P,X1,2,2*%
%TO.N,GND*%
X122750000Y-94215000D03*
%TO.P,X1,3,3*%
%TO.N,OSC_OUT*%
X124450000Y-94215000D03*
%TO.P,X1,4,4*%
%TO.N,GND*%
X124450000Y-92015000D03*
%TD*%
D25*
%TO.P,J5,1,In*%
%TO.N,Net-(J5-In)*%
X174837500Y-85750000D03*
D26*
%TO.P,J5,2,Ext*%
%TO.N,GNDA*%
X174587500Y-82925000D03*
X174587500Y-88575000D03*
%TD*%
D21*
%TO.P,C12,1*%
%TO.N,Net-(U3-Trim{slash}NR)*%
X118800000Y-123387500D03*
%TO.P,C12,2*%
%TO.N,GNDA*%
X119615000Y-123387500D03*
%TD*%
D27*
%TO.P,U6,1,VBAT*%
%TO.N,VDD_3V3*%
X126312277Y-87601136D03*
%TO.P,U6,2,PC13*%
%TO.N,LED2*%
X126665830Y-87954689D03*
%TO.P,U6,3,PC14*%
%TO.N,LED1*%
X127019384Y-88308243D03*
%TO.P,U6,4,PC15*%
%TO.N,unconnected-(U6-PC15-Pad4)*%
X127372937Y-88661796D03*
%TO.P,U6,5,PH0*%
%TO.N,OSC_IN*%
X127726490Y-89015349D03*
%TO.P,U6,6,PH1*%
%TO.N,OSC_OUT*%
X128080044Y-89368903D03*
%TO.P,U6,7,NRST*%
%TO.N,NRST*%
X128433597Y-89722456D03*
%TO.P,U6,8,VSSA*%
%TO.N,GND*%
X128787151Y-90076010D03*
%TO.P,U6,9,VDDA*%
%TO.N,VDDA_3V3*%
X129140704Y-90429563D03*
%TO.P,U6,10,PA0*%
%TO.N,PPS_3V3*%
X129494257Y-90783116D03*
%TO.P,U6,11,PA1*%
%TO.N,OCXO_Vref*%
X129847811Y-91136670D03*
%TO.P,U6,12,PA2*%
%TO.N,unconnected-(U6-PA2-Pad12)*%
X130201364Y-91490223D03*
D28*
%TO.P,U6,13,PA3*%
%TO.N,OCXO_Temperature*%
X131173636Y-91490223D03*
%TO.P,U6,14,PA4*%
%TO.N,unconnected-(U6-PA4-Pad14)*%
X131527189Y-91136670D03*
%TO.P,U6,15,PA5*%
%TO.N,AD5541A_SCLK*%
X131880743Y-90783116D03*
%TO.P,U6,16,PA6*%
%TO.N,unconnected-(U6-PA6-Pad16)*%
X132234296Y-90429563D03*
%TO.P,U6,17,PA7*%
%TO.N,AD5541A_DIN*%
X132587849Y-90076010D03*
%TO.P,U6,18,PB0*%
%TO.N,unconnected-(U6-PB0-Pad18)*%
X132941403Y-89722456D03*
%TO.P,U6,19,PB1*%
%TO.N,unconnected-(U6-PB1-Pad19)*%
X133294956Y-89368903D03*
%TO.P,U6,20,PB2*%
%TO.N,unconnected-(U6-PB2-Pad20)*%
X133648510Y-89015349D03*
%TO.P,U6,21,PB10*%
%TO.N,unconnected-(U6-PB10-Pad21)*%
X134002063Y-88661796D03*
%TO.P,U6,22,VCAP1*%
%TO.N,Net-(U6-VCAP1)*%
X134355616Y-88308243D03*
%TO.P,U6,23,VSS*%
%TO.N,GND*%
X134709170Y-87954689D03*
%TO.P,U6,24,VDD*%
%TO.N,VDD_3V3*%
X135062723Y-87601136D03*
D27*
%TO.P,U6,25,PB12*%
%TO.N,unconnected-(U6-PB12-Pad25)*%
X135062723Y-86628864D03*
%TO.P,U6,26,PB13*%
%TO.N,unconnected-(U6-PB13-Pad26)*%
X134709170Y-86275311D03*
%TO.P,U6,27,PB14*%
%TO.N,unconnected-(U6-PB14-Pad27)*%
X134355616Y-85921757D03*
%TO.P,U6,28,PB15*%
%TO.N,unconnected-(U6-PB15-Pad28)*%
X134002063Y-85568204D03*
%TO.P,U6,29,PA8*%
%TO.N,OCXO_625KHZ*%
X133648510Y-85214651D03*
%TO.P,U6,30,PA9*%
%TO.N,unconnected-(U6-PA9-Pad30)*%
X133294956Y-84861097D03*
%TO.P,U6,31,PA10*%
%TO.N,unconnected-(U6-PA10-Pad31)*%
X132941403Y-84507544D03*
%TO.P,U6,32,PA11*%
%TO.N,USB_N*%
X132587849Y-84153990D03*
%TO.P,U6,33,PA12*%
%TO.N,USB_P*%
X132234296Y-83800437D03*
%TO.P,U6,34,PA13*%
%TO.N,SWDIO*%
X131880743Y-83446884D03*
%TO.P,U6,35,VSS*%
%TO.N,GND*%
X131527189Y-83093330D03*
%TO.P,U6,36,VDD*%
%TO.N,VDD_3V3*%
X131173636Y-82739777D03*
D28*
%TO.P,U6,37,PA14*%
%TO.N,SWCLK*%
X130201364Y-82739777D03*
%TO.P,U6,38,PA15*%
%TO.N,AD5541A_CS*%
X129847811Y-83093330D03*
%TO.P,U6,39,PB3*%
%TO.N,SWO*%
X129494257Y-83446884D03*
%TO.P,U6,40,PB4*%
%TO.N,unconnected-(U6-PB4-Pad40)*%
X129140704Y-83800437D03*
%TO.P,U6,41,PB5*%
%TO.N,unconnected-(U6-PB5-Pad41)*%
X128787151Y-84153990D03*
%TO.P,U6,42,PB6*%
%TO.N,unconnected-(U6-PB6-Pad42)*%
X128433597Y-84507544D03*
%TO.P,U6,43,PB7*%
%TO.N,unconnected-(U6-PB7-Pad43)*%
X128080044Y-84861097D03*
%TO.P,U6,44,BOOT0*%
%TO.N,Net-(U6-BOOT0)*%
X127726490Y-85214651D03*
%TO.P,U6,45,PB8*%
%TO.N,unconnected-(U6-PB8-Pad45)*%
X127372937Y-85568204D03*
%TO.P,U6,46,PB9*%
%TO.N,unconnected-(U6-PB9-Pad46)*%
X127019384Y-85921757D03*
%TO.P,U6,47,VSS*%
%TO.N,GND*%
X126665830Y-86275311D03*
%TO.P,U6,48,VDD*%
%TO.N,VDD_3V3*%
X126312277Y-86628864D03*
D29*
%TO.P,U6,49,VSS*%
%TO.N,GND*%
X130687500Y-87115000D03*
%TD*%
D22*
%TO.P,C15,1*%
%TO.N,VDD_3V3*%
X121750000Y-113657500D03*
%TO.P,C15,2*%
%TO.N,GND*%
X121750000Y-112842500D03*
%TD*%
D21*
%TO.P,C20,1*%
%TO.N,VDD_3V3*%
X130910000Y-80365000D03*
%TO.P,C20,2*%
%TO.N,GND*%
X131725000Y-80365000D03*
%TD*%
%TO.P,C11,1*%
%TO.N,DAC_Vref*%
X126617500Y-115021250D03*
%TO.P,C11,2*%
%TO.N,GNDA*%
X127432500Y-115021250D03*
%TD*%
D16*
%TO.P,C3,1*%
%TO.N,Net-(OSC5A2B1-Vref)*%
X141415000Y-118650000D03*
%TO.P,C3,2*%
%TO.N,GNDA*%
X140600000Y-118650000D03*
%TD*%
D12*
%TO.P,R11,1*%
%TO.N,PPS_3V3*%
X120750000Y-97910000D03*
%TO.P,R11,2*%
%TO.N,GND*%
X120750000Y-98725000D03*
%TD*%
%TO.P,C27,1*%
%TO.N,VDDA_3V3*%
X128000000Y-93592500D03*
%TO.P,C27,2*%
%TO.N,GND*%
X128000000Y-94407500D03*
%TD*%
D30*
%TO.P,U7,1,GND*%
%TO.N,GND*%
X153450000Y-70950000D03*
%TO.P,U7,2,VO*%
%TO.N,VDD_3V3*%
X153450000Y-73250000D03*
D31*
X159750000Y-73250000D03*
D30*
%TO.P,U7,3,VI*%
%TO.N,VCC_5V*%
X153450000Y-75550000D03*
%TD*%
D19*
%TO.P,D1,1,K*%
%TO.N,Net-(D1-K)*%
X112425000Y-83650000D03*
%TO.P,D1,2,A*%
%TO.N,VDD_3V3*%
X110375000Y-83650000D03*
%TD*%
D16*
%TO.P,R17,1*%
%TO.N,OCXO_Temperature*%
X138657500Y-111750000D03*
%TO.P,R17,2*%
%TO.N,VDD_3V3*%
X137842500Y-111750000D03*
%TD*%
D12*
%TO.P,C7,1*%
%TO.N,VCC_5V*%
X132182500Y-114092500D03*
%TO.P,C7,2*%
%TO.N,GNDA*%
X132182500Y-114907500D03*
%TD*%
%TO.P,C17,1*%
%TO.N,OSC_OUT*%
X126250000Y-93842500D03*
%TO.P,C17,2*%
%TO.N,GND*%
X126250000Y-94657500D03*
%TD*%
D16*
%TO.P,R12,1*%
%TO.N,LED1*%
X116557500Y-83650000D03*
%TO.P,R12,2*%
%TO.N,Net-(D1-K)*%
X115742500Y-83650000D03*
%TD*%
D32*
%TO.P,U9,1*%
%TO.N,OCXO_Out*%
X166112500Y-84800000D03*
%TO.P,U9,2*%
X166112500Y-85750000D03*
%TO.P,U9,3,GND*%
%TO.N,GNDA*%
X166112500Y-86700000D03*
%TO.P,U9,4*%
%TO.N,Net-(R18-Pad2)*%
X168387500Y-86700000D03*
%TO.P,U9,5,VCC*%
%TO.N,VCC_5V*%
X168387500Y-84800000D03*
%TD*%
D14*
%TO.P,REF\u002A\u002A,1*%
%TO.N,N/C*%
X172750000Y-129750000D03*
D15*
X172750000Y-129750000D03*
%TD*%
D22*
%TO.P,C8,1*%
%TO.N,VCC_5V*%
X126932500Y-127792500D03*
%TO.P,C8,2*%
%TO.N,GNDA*%
X126932500Y-126977500D03*
%TD*%
D16*
%TO.P,R9,1*%
%TO.N,Net-(U6-BOOT0)*%
X123725000Y-84250000D03*
%TO.P,R9,2*%
%TO.N,GND*%
X122910000Y-84250000D03*
%TD*%
D33*
%TO.P,J3,A1,GND*%
%TO.N,GND*%
X145950000Y-72600000D03*
%TO.P,J3,A4,VBUS*%
%TO.N,VCC_5V*%
X145150000Y-72600000D03*
D34*
%TO.P,J3,A5,CC1*%
%TO.N,Net-(J3-CC1)*%
X144000000Y-72600000D03*
%TO.P,J3,A6,D+*%
%TO.N,USB_P*%
X143000000Y-72600000D03*
%TO.P,J3,A7,D-*%
%TO.N,USB_N*%
X142500000Y-72600000D03*
%TO.P,J3,A8*%
%TO.N,N/C*%
X141500000Y-72600000D03*
D33*
%TO.P,J3,A9,VBUS*%
%TO.N,VCC_5V*%
X140350000Y-72600000D03*
%TO.P,J3,A12,GND*%
%TO.N,GND*%
X139550000Y-72600000D03*
%TO.P,J3,B1,GND*%
X139550000Y-72600000D03*
%TO.P,J3,B4,VBUS*%
%TO.N,VCC_5V*%
X140350000Y-72600000D03*
D34*
%TO.P,J3,B5,CC2*%
%TO.N,Net-(J3-CC2)*%
X141000000Y-72600000D03*
%TO.P,J3,B6,D+*%
%TO.N,USB_P*%
X142000000Y-72600000D03*
%TO.P,J3,B7,D-*%
%TO.N,USB_N*%
X143500000Y-72600000D03*
%TO.P,J3,B8*%
%TO.N,N/C*%
X144500000Y-72600000D03*
D33*
%TO.P,J3,B9,VBUS*%
%TO.N,VCC_5V*%
X145150000Y-72600000D03*
%TO.P,J3,B12,GND*%
%TO.N,GND*%
X145950000Y-72600000D03*
D35*
%TO.P,J3,S1,SHIELD*%
X147070000Y-72000000D03*
D36*
X147070000Y-67800000D03*
D35*
X138430000Y-72000000D03*
D36*
X138430000Y-67800000D03*
%TD*%
D14*
%TO.P,REF\u002A\u002A,1*%
%TO.N,N/C*%
X172750000Y-69250000D03*
D15*
X172750000Y-69250000D03*
%TD*%
D16*
%TO.P,R6,1*%
%TO.N,Net-(U4-SCLK)*%
X121590000Y-110750000D03*
%TO.P,R6,2*%
%TO.N,AD5541A_SCLK*%
X120775000Y-110750000D03*
%TD*%
D11*
%TO.P,U2,1,Q11*%
%TO.N,unconnected-(U2-Q11-Pad1)*%
X162945000Y-84159200D03*
%TO.P,U2,2,Q5*%
%TO.N,unconnected-(U2-Q5-Pad2)*%
X161675000Y-84159200D03*
%TO.P,U2,3,Q4*%
%TO.N,unconnected-(U2-Q4-Pad3)*%
X160405000Y-84159200D03*
%TO.P,U2,4,Q6*%
%TO.N,unconnected-(U2-Q6-Pad4)*%
X159135000Y-84159200D03*
%TO.P,U2,5,Q3*%
%TO.N,OCXO_625KHZ*%
X157865000Y-84159200D03*
%TO.P,U2,6,Q2*%
%TO.N,unconnected-(U2-Q2-Pad6)*%
X156595000Y-84159200D03*
%TO.P,U2,7,Q1*%
%TO.N,unconnected-(U2-Q1-Pad7)*%
X155325000Y-84159200D03*
%TO.P,U2,8,GND*%
%TO.N,GND*%
X154055000Y-84159200D03*
%TO.P,U2,9,Q0*%
%TO.N,unconnected-(U2-Q0-Pad9)*%
X154055000Y-89340800D03*
%TO.P,U2,10,~CP*%
%TO.N,CNT_Q11*%
X155325000Y-89340800D03*
%TO.P,U2,11,MR*%
%TO.N,GND*%
X156595000Y-89340800D03*
%TO.P,U2,12,Q8*%
%TO.N,unconnected-(U2-Q8-Pad12)*%
X157865000Y-89340800D03*
%TO.P,U2,13,Q7*%
%TO.N,unconnected-(U2-Q7-Pad13)*%
X159135000Y-89340800D03*
%TO.P,U2,14,Q9*%
%TO.N,unconnected-(U2-Q9-Pad14)*%
X160405000Y-89340800D03*
%TO.P,U2,15,Q10*%
%TO.N,unconnected-(U2-Q10-Pad15)*%
X161675000Y-89340800D03*
%TO.P,U2,16,VCC*%
%TO.N,VDD_3V3*%
X162945000Y-89340800D03*
%TD*%
D16*
%TO.P,C37,1*%
%TO.N,VCC_5V*%
X168157500Y-83000000D03*
%TO.P,C37,2*%
%TO.N,GNDA*%
X167342500Y-83000000D03*
%TD*%
%TO.P,C1,1*%
%TO.N,VDD_3V3*%
X162907500Y-91500000D03*
%TO.P,C1,2*%
%TO.N,GND*%
X162092500Y-91500000D03*
%TD*%
D37*
%TO.P,U4,1,VDD*%
%TO.N,Net-(U4-VDD)*%
X128295000Y-113000000D03*
%TO.P,U4,2,VOUT*%
%TO.N,OCXO_Vref*%
X128295000Y-112500000D03*
%TO.P,U4,3,AGND*%
%TO.N,GNDA*%
X128295000Y-112000000D03*
%TO.P,U4,4,REF*%
%TO.N,DAC_Vref*%
X128295000Y-111500000D03*
%TO.P,U4,5,CS*%
%TO.N,AD5541A_CS*%
X128295000Y-111000000D03*
%TO.P,U4,6,SCLK*%
%TO.N,Net-(U4-SCLK)*%
X124070000Y-111000000D03*
%TO.P,U4,7,DIN*%
%TO.N,Net-(U4-DIN)*%
X124070000Y-111500000D03*
%TO.P,U4,8,LDAC*%
%TO.N,GND*%
X124070000Y-112000000D03*
%TO.P,U4,9,DGND*%
X124070000Y-112500000D03*
%TO.P,U4,10,VLOGIC*%
%TO.N,VDD_3V3*%
X124070000Y-113000000D03*
%TD*%
D21*
%TO.P,C29,1*%
%TO.N,VDD_3V3*%
X163500000Y-72000000D03*
%TO.P,C29,2*%
%TO.N,GND*%
X164315000Y-72000000D03*
%TD*%
D16*
%TO.P,L1,1,1*%
%TO.N,VCC_5V*%
X131840000Y-113250000D03*
%TO.P,L1,2,2*%
%TO.N,Net-(U4-VDD)*%
X131025000Y-113250000D03*
%TD*%
D22*
%TO.P,C6,1*%
%TO.N,VCC_5V*%
X127932500Y-127792500D03*
%TO.P,C6,2*%
%TO.N,GNDA*%
X127932500Y-126977500D03*
%TD*%
D16*
%TO.P,R14,1*%
%TO.N,GND*%
X116557500Y-78150000D03*
%TO.P,R14,2*%
%TO.N,Net-(D3-K)*%
X115742500Y-78150000D03*
%TD*%
D23*
%TO.P,TP1,1,1*%
%TO.N,Net-(OSC5A2B1-Vref)*%
X133250000Y-110750000D03*
%TD*%
D21*
%TO.P,C28,1*%
%TO.N,VCC_5V*%
X153342500Y-77750000D03*
%TO.P,C28,2*%
%TO.N,GND*%
X154157500Y-77750000D03*
%TD*%
D12*
%TO.P,C9,1*%
%TO.N,Net-(U4-VDD)*%
X130682500Y-114092500D03*
%TO.P,C9,2*%
%TO.N,GNDA*%
X130682500Y-114907500D03*
%TD*%
D38*
%TO.P,TH1,1*%
%TO.N,OCXO_Temperature*%
X139902500Y-111750000D03*
%TO.P,TH1,2*%
%TO.N,GNDA*%
X141097500Y-111750000D03*
%TD*%
D21*
%TO.P,C33,1*%
%TO.N,VDD_3V3*%
X163500000Y-74250000D03*
%TO.P,C33,2*%
%TO.N,GND*%
X164315000Y-74250000D03*
%TD*%
D14*
%TO.P,REF\u002A\u002A,1*%
%TO.N,N/C*%
X112750000Y-129750000D03*
D15*
X112750000Y-129750000D03*
%TD*%
D21*
%TO.P,C10,1*%
%TO.N,DAC_Vref*%
X126617500Y-116021250D03*
%TO.P,C10,2*%
%TO.N,GNDA*%
X127432500Y-116021250D03*
%TD*%
D16*
%TO.P,R10,1*%
%TO.N,PPS_3V3*%
X119657500Y-97802500D03*
%TO.P,R10,2*%
%TO.N,PPS_5V*%
X118842500Y-97802500D03*
%TD*%
%TO.P,C19,1*%
%TO.N,VDD_3V3*%
X123725000Y-85115000D03*
%TO.P,C19,2*%
%TO.N,GND*%
X122910000Y-85115000D03*
%TD*%
D21*
%TO.P,C23,1*%
%TO.N,VDD_3V3*%
X130910000Y-79365000D03*
%TO.P,C23,2*%
%TO.N,GND*%
X131725000Y-79365000D03*
%TD*%
D19*
%TO.P,D2,1,K*%
%TO.N,Net-(D2-K)*%
X112425000Y-80900000D03*
%TO.P,D2,2,A*%
%TO.N,VDD_3V3*%
X110375000Y-80900000D03*
%TD*%
D22*
%TO.P,R4,1*%
%TO.N,Net-(U3-Vout)*%
X115957500Y-120200000D03*
%TO.P,R4,2*%
%TO.N,Net-(U5-+)*%
X115957500Y-119385000D03*
%TD*%
D21*
%TO.P,C25,1*%
%TO.N,VDD_3V3*%
X130885000Y-78365000D03*
%TO.P,C25,2*%
%TO.N,GND*%
X131700000Y-78365000D03*
%TD*%
%TO.P,C34,1*%
%TO.N,VCC_5V*%
X145592500Y-74500000D03*
%TO.P,C34,2*%
%TO.N,GND*%
X146407500Y-74500000D03*
%TD*%
D39*
%TO.P,U3,1,DNC*%
%TO.N,unconnected-(U3-DNC-Pad1)*%
X123682500Y-129197500D03*
%TO.P,U3,2,Vin*%
%TO.N,VCC_5V*%
X123682500Y-127927500D03*
%TO.P,U3,3,Temp*%
%TO.N,unconnected-(U3-Temp-Pad3)*%
X123682500Y-126657500D03*
%TO.P,U3,4,GND*%
%TO.N,GNDA*%
X123682500Y-125387500D03*
%TO.P,U3,5,Trim/NR*%
%TO.N,Net-(U3-Trim{slash}NR)*%
X118732500Y-125387500D03*
%TO.P,U3,6,Vout*%
%TO.N,Net-(U3-Vout)*%
X118732500Y-126657500D03*
%TO.P,U3,7,NC*%
%TO.N,unconnected-(U3-NC-Pad7)*%
X118732500Y-127927500D03*
%TO.P,U3,8,DNC*%
%TO.N,unconnected-(U3-DNC-Pad8)*%
X118732500Y-129197500D03*
%TD*%
D40*
%TO.P,NT1,1,1*%
%TO.N,GNDA*%
X113750000Y-114750000D03*
%TO.P,NT1,2,2*%
%TO.N,GND*%
X113750000Y-113550000D03*
%TD*%
D16*
%TO.P,C13,1*%
%TO.N,Net-(U3-Vout)*%
X115932500Y-121292500D03*
%TO.P,C13,2*%
%TO.N,GNDA*%
X115117500Y-121292500D03*
%TD*%
%TO.P,C36,1*%
%TO.N,VCC_5V*%
X168157500Y-82250000D03*
%TO.P,C36,2*%
%TO.N,GNDA*%
X167342500Y-82250000D03*
%TD*%
D40*
%TO.P,NT2,1,1*%
%TO.N,VDDA_3V3*%
X129200000Y-96400000D03*
%TO.P,NT2,2,2*%
%TO.N,VDD_3V3*%
X128000000Y-96400000D03*
%TD*%
D16*
%TO.P,C22,1*%
%TO.N,VDD_3V3*%
X123725000Y-86115000D03*
%TO.P,C22,2*%
%TO.N,GND*%
X122910000Y-86115000D03*
%TD*%
D17*
%TO.P,J2,1,Pin_1*%
%TO.N,VDD_3V3*%
X111250000Y-89277500D03*
D18*
%TO.P,J2,2,Pin_2*%
%TO.N,NRST*%
X113790000Y-89277500D03*
%TO.P,J2,3,Pin_3*%
%TO.N,SWO*%
X111250000Y-91817500D03*
%TO.P,J2,4,Pin_4*%
%TO.N,SWCLK*%
X113790000Y-91817500D03*
%TO.P,J2,5,Pin_5*%
%TO.N,SWDIO*%
X111250000Y-94357500D03*
%TO.P,J2,6,Pin_6*%
%TO.N,GND*%
X113790000Y-94357500D03*
%TD*%
D22*
%TO.P,R15,1*%
%TO.N,VCC_5V*%
X149250000Y-70407500D03*
%TO.P,R15,2*%
%TO.N,Net-(J3-CC1)*%
X149250000Y-69592500D03*
%TD*%
D40*
%TO.P,NT3,1,1*%
%TO.N,GNDA*%
X170625000Y-79700000D03*
%TO.P,NT3,2,2*%
%TO.N,GND*%
X170625000Y-78500000D03*
%TD*%
D16*
%TO.P,R7,1*%
%TO.N,AD5541A_CS*%
X128272500Y-109250000D03*
%TO.P,R7,2*%
%TO.N,VDD_3V3*%
X127457500Y-109250000D03*
%TD*%
D12*
%TO.P,C26,1*%
%TO.N,VDDA_3V3*%
X129000000Y-93592500D03*
%TO.P,C26,2*%
%TO.N,GND*%
X129000000Y-94407500D03*
%TD*%
D16*
%TO.P,R5,1*%
%TO.N,Net-(U4-DIN)*%
X121590000Y-111750000D03*
%TO.P,R5,2*%
%TO.N,AD5541A_DIN*%
X120775000Y-111750000D03*
%TD*%
D41*
%TO.P,TP2,1,1*%
%TO.N,Net-(J5-In)*%
X170750000Y-87250000D03*
%TD*%
D21*
%TO.P,C30,1*%
%TO.N,VDD_3V3*%
X163500000Y-72750000D03*
%TO.P,C30,2*%
%TO.N,GND*%
X164315000Y-72750000D03*
%TD*%
%TO.P,C16,1*%
%TO.N,OSC_IN*%
X122842500Y-90250000D03*
%TO.P,C16,2*%
%TO.N,GND*%
X123657500Y-90250000D03*
%TD*%
D16*
%TO.P,C14,1*%
%TO.N,Net-(U3-Vout)*%
X115932500Y-122042500D03*
%TO.P,C14,2*%
%TO.N,GNDA*%
X115117500Y-122042500D03*
%TD*%
%TO.P,C35,1*%
%TO.N,VCC_5V*%
X139907500Y-74500000D03*
%TO.P,C35,2*%
%TO.N,GND*%
X139092500Y-74500000D03*
%TD*%
D22*
%TO.P,R8,1*%
%TO.N,V_OCXO_Buffer*%
X127750000Y-118450000D03*
%TO.P,R8,2*%
%TO.N,DAC_Vref*%
X127750000Y-117635000D03*
%TD*%
D42*
%TO.N,GNDA*%
X169407500Y-102092500D03*
X140625000Y-120750000D03*
X140750000Y-117750000D03*
X128000000Y-125750000D03*
%TO.N,GND*%
X149168750Y-91500000D03*
%TO.N,VCC_5V*%
X153000000Y-79250000D03*
X168250000Y-98750000D03*
X126250000Y-118000000D03*
X134000000Y-114000000D03*
%TO.N,GND*%
X126250000Y-95750000D03*
X121000000Y-94250000D03*
X165500000Y-74250000D03*
X152000000Y-68750000D03*
X120750000Y-99750000D03*
X119000000Y-112750000D03*
X151250000Y-71000000D03*
X138000000Y-74250000D03*
X152750000Y-68750000D03*
X165500000Y-72750000D03*
X151250000Y-68750000D03*
X124500000Y-90500000D03*
X156545000Y-90995000D03*
X153500000Y-68750000D03*
X136250000Y-88650000D03*
X117800000Y-78200000D03*
X140000000Y-89250000D03*
X165500000Y-73500000D03*
X165500000Y-72000000D03*
X154250000Y-68750000D03*
X128000000Y-95500000D03*
X132250000Y-81500000D03*
X140000000Y-88000000D03*
X155250000Y-77750000D03*
X151250000Y-71750000D03*
X140750000Y-84250000D03*
X152795000Y-84245000D03*
X130687500Y-87115000D03*
X151250000Y-70250000D03*
X151250000Y-69500000D03*
X127850000Y-92000000D03*
X125750000Y-84850000D03*
X132750000Y-78250000D03*
X147500000Y-74250000D03*
X122750000Y-87250000D03*
X145545000Y-91495000D03*
%TO.N,AD5541A_CS*%
X119250000Y-84750000D03*
X123500000Y-99750000D03*
%TO.N,AD5541A_DIN*%
X132900000Y-93625000D03*
X119000000Y-111750000D03*
%TO.N,AD5541A_SCLK*%
X119000000Y-110713343D03*
X133000000Y-92000000D03*
%TO.N,SWCLK*%
X125750000Y-81000000D03*
%TO.N,SWO*%
X125750000Y-82500000D03*
%TO.N,SWDIO*%
X133250000Y-81500000D03*
%TO.N,OCXO_625KHZ*%
X125000000Y-70750000D03*
X136681580Y-82181580D03*
%TO.N,USB_P*%
X142000000Y-77750000D03*
X142000000Y-74250000D03*
%TO.N,USB_N*%
X143536657Y-74250000D03*
X143500000Y-77750000D03*
%TO.N,GNDA*%
X166500000Y-82250000D03*
X130750000Y-116000000D03*
X166000000Y-88000000D03*
X132250000Y-116000000D03*
X130250000Y-111250000D03*
X171500000Y-83000000D03*
X121000000Y-123500000D03*
X118750000Y-122000000D03*
X126750000Y-125750000D03*
X171500000Y-88500000D03*
X128500000Y-115978750D03*
X135250000Y-110000000D03*
X128500000Y-114978750D03*
X114250000Y-121250000D03*
%TO.N,VDD_3V3*%
X127500000Y-107750000D03*
X163500000Y-76250000D03*
X159000000Y-77750000D03*
X163500000Y-68750000D03*
X152418750Y-91500000D03*
X163500000Y-69500000D03*
X162750000Y-68750000D03*
X162750000Y-77000000D03*
X162000000Y-69500000D03*
X163500000Y-77000000D03*
X110400000Y-76400000D03*
X162750000Y-69500000D03*
X159750000Y-68750000D03*
X162000000Y-77000000D03*
X160500000Y-68750000D03*
X162750000Y-76250000D03*
X162000000Y-68750000D03*
X163500000Y-70250000D03*
X162750000Y-70250000D03*
X161250000Y-68750000D03*
X138750000Y-86250000D03*
X119000000Y-113550003D03*
X162750000Y-77750000D03*
X160500000Y-77750000D03*
X162000000Y-77750000D03*
X131000000Y-77250000D03*
X123750000Y-87250000D03*
X159750000Y-77750000D03*
X136250000Y-111750000D03*
X159000000Y-68750000D03*
X163500000Y-77750000D03*
X161250000Y-77750000D03*
%TO.N,OCXO_10MHZ*%
X138000000Y-83250000D03*
X127750000Y-70750000D03*
%TO.N,GND*%
X160750000Y-91500000D03*
%TO.N,VDD_3V3*%
X164000000Y-91500000D03*
%TD*%
D43*
%TO.N,GND*%
X138250000Y-74500000D02*
X139092500Y-74500000D01*
X138000000Y-74250000D02*
X138250000Y-74500000D01*
X147250000Y-74500000D02*
X146407500Y-74500000D01*
X147500000Y-74250000D02*
X147250000Y-74500000D01*
%TO.N,VCC_5V*%
X149250000Y-70407500D02*
X145756492Y-70407500D01*
%TO.N,Net-(J3-CC1)*%
X145657500Y-69592500D02*
X149250000Y-69592500D01*
%TO.N,VCC_5V*%
X139743508Y-70407500D02*
X136000000Y-70407500D01*
%TO.N,Net-(J3-CC2)*%
X136000000Y-69592500D02*
X139495608Y-69592500D01*
%TO.N,Net-(OSC5A2B1-Vref)*%
X139500000Y-113000000D02*
X141415000Y-114915000D01*
X141415000Y-114915000D02*
X141415000Y-118650000D01*
X139493702Y-113006298D02*
X139500000Y-113000000D01*
X133006298Y-113006298D02*
X139493702Y-113006298D01*
X132500000Y-112500000D02*
X133006298Y-113006298D01*
X131840000Y-112500000D02*
X132500000Y-112500000D01*
X144000000Y-121500000D02*
X145450000Y-121500000D01*
X142150000Y-119650000D02*
X144000000Y-121500000D01*
X141415000Y-119650000D02*
X142150000Y-119650000D01*
X141415000Y-118650000D02*
X141415000Y-119650000D01*
%TO.N,GNDA*%
X140550000Y-117950000D02*
X140550000Y-118600000D01*
X140750000Y-117750000D02*
X140550000Y-117950000D01*
X140600000Y-119650000D02*
X140600000Y-120725000D01*
X140600000Y-120725000D02*
X140625000Y-120750000D01*
X169407500Y-102092500D02*
X169407500Y-101250000D01*
D44*
%TO.N,VCC_5V*%
X168250000Y-98750000D02*
X168250000Y-101750000D01*
X168250000Y-101750000D02*
X167775000Y-102225000D01*
X167775000Y-102225000D02*
X164500000Y-102225000D01*
D43*
%TO.N,OCXO_Out*%
X153550000Y-102450000D02*
X145450000Y-102450000D01*
X154000000Y-102000000D02*
X153550000Y-102450000D01*
X154000000Y-93000000D02*
X154000000Y-102000000D01*
%TO.N,AD5541A_CS*%
X128272500Y-104522500D02*
X128272500Y-109250000D01*
X123500000Y-99750000D02*
X128272500Y-104522500D01*
%TO.N,GND*%
X120750000Y-99750000D02*
X120750000Y-98725000D01*
%TO.N,OCXO_Vref*%
X129527280Y-92027280D02*
X129527280Y-91457201D01*
X131025000Y-93525000D02*
X129527280Y-92027280D01*
X131025000Y-112500000D02*
X131025000Y-93525000D01*
X129527280Y-91457201D02*
X129847811Y-91136670D01*
%TO.N,Net-(OSC5A2B1-Vref)*%
X131840000Y-111910000D02*
X133000000Y-110750000D01*
X131840000Y-112500000D02*
X131840000Y-111910000D01*
%TO.N,Net-(U4-VDD)*%
X130250000Y-113250000D02*
X131025000Y-113250000D01*
X130000000Y-113000000D02*
X130250000Y-113250000D01*
X128295000Y-113000000D02*
X130000000Y-113000000D01*
%TO.N,OCXO_Vref*%
X128295000Y-112500000D02*
X131025000Y-112500000D01*
%TO.N,GNDA*%
X130250000Y-111500000D02*
X129750000Y-112000000D01*
X130250000Y-111250000D02*
X130250000Y-111500000D01*
X129750000Y-112000000D02*
X128295000Y-112000000D01*
%TO.N,VCC_5V*%
X131840000Y-113250000D02*
X131840000Y-113750000D01*
%TO.N,Net-(U4-VDD)*%
X131025000Y-113250000D02*
X131025000Y-113750000D01*
%TO.N,VDD_3V3*%
X127500000Y-107750000D02*
X127500000Y-109207500D01*
%TO.N,V_OCXO_Buffer*%
X120132500Y-118132500D02*
X121402500Y-119402500D01*
X118732500Y-118132500D02*
X120132500Y-118132500D01*
X121402500Y-119402500D02*
X123682500Y-119402500D01*
%TO.N,DAC_Vref*%
X126617500Y-115021250D02*
X126617500Y-112132500D01*
X126617500Y-116021250D02*
X126617500Y-115021250D01*
X126885000Y-117635000D02*
X127750000Y-117635000D01*
X126617500Y-117367500D02*
X126885000Y-117635000D01*
X126617500Y-116021250D02*
X126617500Y-117367500D01*
%TO.N,OCXO_Temperature*%
X132000000Y-99800000D02*
X132000000Y-92316587D01*
X135250000Y-103050000D02*
X132000000Y-99800000D01*
X135250000Y-108092500D02*
X135250000Y-103050000D01*
X132000000Y-92316587D02*
X131173636Y-91490223D01*
%TO.N,GNDA*%
X127932500Y-125817500D02*
X128000000Y-125750000D01*
X127932500Y-126977500D02*
X127932500Y-125817500D01*
X126932500Y-126067500D02*
X126932500Y-126977500D01*
X126750000Y-125885000D02*
X126932500Y-126067500D01*
X126750000Y-125750000D02*
X126750000Y-125885000D01*
X126387500Y-125387500D02*
X123682500Y-125387500D01*
X126750000Y-125750000D02*
X126387500Y-125387500D01*
%TO.N,OCXO_Out*%
X154750000Y-92250000D02*
X154000000Y-93000000D01*
X164500000Y-92250000D02*
X154750000Y-92250000D01*
X165000000Y-86000000D02*
X165000000Y-91750000D01*
X165000000Y-91750000D02*
X164500000Y-92250000D01*
X166112500Y-85750000D02*
X165250000Y-85750000D01*
X165250000Y-85750000D02*
X165000000Y-86000000D01*
%TO.N,VDD_3V3*%
X162907500Y-91500000D02*
X164000000Y-91500000D01*
X151076250Y-91505000D02*
X151076250Y-89367050D01*
X162907500Y-91500000D02*
X162907500Y-89378300D01*
%TO.N,GND*%
X149173750Y-91505000D02*
X149168750Y-91500000D01*
X150261250Y-91505000D02*
X149173750Y-91505000D01*
%TO.N,VDD_3V3*%
X152418750Y-91500000D02*
X151081250Y-91500000D01*
D44*
%TO.N,VCC_5V*%
X154500000Y-80750000D02*
X167612500Y-80750000D01*
X153000000Y-79250000D02*
X154500000Y-80750000D01*
D43*
%TO.N,GNDA*%
X141347500Y-111750000D02*
X145175000Y-111750000D01*
%TO.N,USB_P*%
X140670621Y-80275000D02*
G75*
G02*
X140430600Y-80035000I-21J240000D01*
G01*
X140070621Y-79666750D02*
G75*
G03*
X139830650Y-79906750I-21J-239950D01*
G01*
X139830621Y-80035000D02*
G75*
G02*
X139590621Y-80275021I-240021J0D01*
G01*
X140430621Y-79906750D02*
G75*
G03*
X140190621Y-79666679I-240021J50D01*
G01*
X135795089Y-80275000D02*
X132665368Y-83404721D01*
X141656802Y-80275000D02*
X140670621Y-80275000D01*
X132630012Y-83404721D02*
X132234296Y-83800437D01*
X132665368Y-83404721D02*
X132630012Y-83404721D01*
X135795089Y-80275000D02*
X139590621Y-80275000D01*
X142000000Y-79931802D02*
X141656802Y-80275000D01*
X142000000Y-77750000D02*
X142000000Y-79931802D01*
X140190621Y-79666750D02*
X140070621Y-79666750D01*
X140430621Y-80035000D02*
X140430621Y-79906750D01*
X139830621Y-79906750D02*
X139830621Y-80035000D01*
D44*
%TO.N,VCC_5V*%
X168387500Y-81525000D02*
X168387500Y-84800000D01*
X167612500Y-80750000D02*
X168387500Y-81525000D01*
D43*
%TO.N,VDD_3V3*%
X136250000Y-111750000D02*
X137842500Y-111750000D01*
%TO.N,NRST*%
X127250000Y-96000000D02*
X127250000Y-90906053D01*
X126899000Y-96351000D02*
X127250000Y-96000000D01*
X120851000Y-96351000D02*
X126899000Y-96351000D01*
X127250000Y-90906053D02*
X128433597Y-89722456D01*
X113790000Y-89290000D02*
X120851000Y-96351000D01*
%TO.N,OSC_IN*%
X122842500Y-89978751D02*
X122842500Y-90250000D01*
X126995920Y-89745919D02*
X123075332Y-89745919D01*
X123075332Y-89745919D02*
X122842500Y-89978751D01*
X127726490Y-89015349D02*
X126995920Y-89745919D01*
%TO.N,CNT_Q11*%
X151045000Y-86045000D02*
X151045000Y-84154200D01*
X153750000Y-86750000D02*
X151750000Y-86750000D01*
X151750000Y-86750000D02*
X151045000Y-86045000D01*
X155325000Y-88325000D02*
X153750000Y-86750000D01*
X155325000Y-89590800D02*
X155325000Y-88325000D01*
D44*
%TO.N,VCC_5V*%
X153000000Y-79250000D02*
X153000000Y-75500000D01*
D43*
X126117500Y-118132500D02*
X126250000Y-118000000D01*
X140536000Y-71199992D02*
X139743508Y-70407500D01*
X134000000Y-125750000D02*
X131957500Y-127792500D01*
X127932500Y-127792500D02*
X126932500Y-127792500D01*
X134000000Y-114000000D02*
X134000000Y-125750000D01*
X131957500Y-127792500D02*
X127932500Y-127792500D01*
D45*
X153000000Y-76000000D02*
X153450000Y-75550000D01*
D43*
X123682500Y-118132500D02*
X126117500Y-118132500D01*
X140536000Y-72414000D02*
X140536000Y-71199992D01*
X126797500Y-127927500D02*
X126932500Y-127792500D01*
X123907500Y-127927500D02*
X126797500Y-127927500D01*
X134000000Y-114000000D02*
X132275000Y-114000000D01*
X131840000Y-113750000D02*
X132182500Y-114092500D01*
X144964000Y-71199992D02*
X144964000Y-72414000D01*
X145756492Y-70407500D02*
X144964000Y-71199992D01*
%TO.N,GND*%
X131527189Y-83093330D02*
X132250000Y-82370519D01*
X122910000Y-85115000D02*
X122910000Y-86115000D01*
X139092500Y-73907500D02*
X139092500Y-74500000D01*
X131700000Y-78365000D02*
X132635000Y-78365000D01*
X131725000Y-79365000D02*
X131725000Y-78390000D01*
X139550000Y-72600000D02*
X139550000Y-73450000D01*
X129000000Y-94407500D02*
X128000000Y-94407500D01*
X156595000Y-90945000D02*
X156545000Y-90995000D01*
X116557500Y-78150000D02*
X117750000Y-78150000D01*
X122092500Y-112500000D02*
X124070000Y-112500000D01*
X154157500Y-77750000D02*
X155250000Y-77750000D01*
X145950000Y-73450000D02*
X146407500Y-73907500D01*
X138725000Y-89250000D02*
X140000000Y-89250000D01*
X152880800Y-84159200D02*
X154055000Y-84159200D01*
X124070000Y-112500000D02*
X124070000Y-112000000D01*
X122750000Y-94215000D02*
X121035000Y-94215000D01*
X123657500Y-90250000D02*
X124250000Y-90250000D01*
X132635000Y-78365000D02*
X132750000Y-78250000D01*
X124450000Y-92015000D02*
X124450000Y-90550000D01*
X132250000Y-82370519D02*
X132250000Y-81500000D01*
X137750000Y-88090000D02*
X139910000Y-88090000D01*
X164315000Y-74250000D02*
X165500000Y-74250000D01*
X117750000Y-78150000D02*
X117800000Y-78200000D01*
X145950000Y-72600000D02*
X145950000Y-73450000D01*
X121035000Y-94215000D02*
X121000000Y-94250000D01*
X144440000Y-91495000D02*
X145545000Y-91495000D01*
X164315000Y-72750000D02*
X165500000Y-72750000D01*
X122910000Y-86115000D02*
X122910000Y-87090000D01*
X127850000Y-91013161D02*
X128787151Y-90076010D01*
X140875800Y-84124200D02*
X142125000Y-84124200D01*
X144695000Y-89335800D02*
X144695000Y-91252500D01*
X152795000Y-84245000D02*
X152880800Y-84159200D01*
X146407500Y-73907500D02*
X146407500Y-74500000D01*
X144695000Y-91252500D02*
X144452500Y-91495000D01*
X140750000Y-84250000D02*
X140875800Y-84124200D01*
X139550000Y-73450000D02*
X139092500Y-73907500D01*
X127850000Y-92000000D02*
X127850000Y-91013161D01*
X124250000Y-90250000D02*
X124500000Y-90500000D01*
X131725000Y-80365000D02*
X131725000Y-79365000D01*
X164315000Y-72000000D02*
X165500000Y-72000000D01*
X122910000Y-87090000D02*
X122750000Y-87250000D01*
X119000000Y-112750000D02*
X121657500Y-112750000D01*
X125750000Y-84850000D02*
X125750000Y-85350000D01*
X135404481Y-88650000D02*
X136250000Y-88650000D01*
X139910000Y-88090000D02*
X140000000Y-88000000D01*
X126250000Y-95500000D02*
X126250000Y-94657500D01*
X122910000Y-85115000D02*
X122910000Y-84250000D01*
X125750000Y-85350000D02*
X126665830Y-86265830D01*
X124450000Y-90550000D02*
X124500000Y-90500000D01*
X121750000Y-112842500D02*
X122092500Y-112500000D01*
X134709170Y-87954689D02*
X135404481Y-88650000D01*
X164315000Y-73500000D02*
X165500000Y-73500000D01*
X128000000Y-95500000D02*
X128000000Y-94407500D01*
X156595000Y-89340800D02*
X156595000Y-90945000D01*
%TO.N,OCXO_Out*%
X153250000Y-92250000D02*
X151550000Y-92250000D01*
X154000000Y-93000000D02*
X153250000Y-92250000D01*
X151550000Y-92250000D02*
X151545000Y-92245000D01*
X151545000Y-92245000D02*
X144452500Y-92245000D01*
X166112500Y-84800000D02*
X166112500Y-85750000D01*
%TO.N,DAC_Vref*%
X126617500Y-112132500D02*
X127250000Y-111500000D01*
X127250000Y-111500000D02*
X128295000Y-111500000D01*
X127750000Y-117635000D02*
X130885000Y-117635000D01*
%TO.N,AD5541A_CS*%
X128272500Y-109250000D02*
X128272500Y-110977500D01*
X120250000Y-81750000D02*
X119250000Y-82750000D01*
X119250000Y-82750000D02*
X119250000Y-84750000D01*
X129847811Y-83093330D02*
X128504481Y-81750000D01*
X128504481Y-81750000D02*
X120250000Y-81750000D01*
%TO.N,AD5541A_DIN*%
X120500000Y-111750000D02*
X119000000Y-111750000D01*
X133750000Y-91238161D02*
X132587849Y-90076010D01*
X133750000Y-92775000D02*
X133750000Y-91238161D01*
X132900000Y-93625000D02*
X133750000Y-92775000D01*
%TO.N,AD5541A_SCLK*%
X133000000Y-91902373D02*
X131880743Y-90783116D01*
X133000000Y-91902373D02*
X133000000Y-92000000D01*
X119136657Y-110750000D02*
X120775000Y-110750000D01*
X119100000Y-110713343D02*
X119136657Y-110750000D01*
X119000000Y-110713343D02*
X119100000Y-110713343D01*
%TO.N,V_OCXO_Buffer*%
X127750000Y-119000000D02*
X127750000Y-118450000D01*
X127347500Y-119402500D02*
X127750000Y-119000000D01*
X123682500Y-119402500D02*
X127347500Y-119402500D01*
%TO.N,Net-(U4-VDD)*%
X131025000Y-113750000D02*
X130682500Y-114092500D01*
%TO.N,Net-(U3-Trim{slash}NR)*%
X118800000Y-123387500D02*
X118800000Y-125320000D01*
%TO.N,Net-(U3-Vout)*%
X115932500Y-126017500D02*
X116572500Y-126657500D01*
X116572500Y-126657500D02*
X118732500Y-126657500D01*
X115932500Y-121292500D02*
X115932500Y-120225000D01*
X115932500Y-121292500D02*
X115932500Y-122042500D01*
X115932500Y-122042500D02*
X115932500Y-126017500D01*
%TO.N,VDDA_3V3*%
X129650000Y-95950000D02*
X129650000Y-93900000D01*
X129342500Y-93592500D02*
X129000000Y-93592500D01*
X128599000Y-92401000D02*
X128000000Y-93000000D01*
X129650000Y-93900000D02*
X129342500Y-93592500D01*
X129200000Y-96400000D02*
X129650000Y-95950000D01*
X128599000Y-90971267D02*
X128599000Y-92401000D01*
X129140704Y-90429563D02*
X128599000Y-90971267D01*
X129000000Y-93592500D02*
X128000000Y-93592500D01*
X128000000Y-93000000D02*
X128000000Y-93592500D01*
%TO.N,OSC_IN*%
X122750000Y-92015000D02*
X122750000Y-90342500D01*
%TO.N,OSC_OUT*%
X124822500Y-93842500D02*
X126250000Y-93842500D01*
X126250000Y-91198946D02*
X128080044Y-89368903D01*
X126250000Y-93842500D02*
X126250000Y-91198946D01*
%TO.N,Net-(U6-VCAP1)*%
X135297373Y-89250000D02*
X134355616Y-88308243D01*
X137910000Y-89250000D02*
X135297373Y-89250000D01*
%TO.N,Net-(D1-K)*%
X115742500Y-83650000D02*
X112425000Y-83650000D01*
%TO.N,Net-(D2-K)*%
X115742500Y-80900000D02*
X112425000Y-80900000D01*
%TO.N,Net-(D3-K)*%
X115742500Y-78150000D02*
X112425000Y-78150000D01*
%TO.N,PPS_5V*%
X118842500Y-97802500D02*
X111922500Y-97802500D01*
%TO.N,SWCLK*%
X125750000Y-81000000D02*
X128461587Y-81000000D01*
X128461587Y-81000000D02*
X130201364Y-82739777D01*
%TO.N,SWO*%
X125750000Y-82500000D02*
X128547373Y-82500000D01*
X128547373Y-82500000D02*
X129494257Y-83446884D01*
%TO.N,SWDIO*%
X133250000Y-82077627D02*
X133250000Y-81500000D01*
X131880743Y-83446884D02*
X133250000Y-82077627D01*
%TO.N,Net-(J3-CC2)*%
X139495608Y-69592500D02*
X141000000Y-71096892D01*
X141000000Y-71096892D02*
X141000000Y-72600000D01*
%TO.N,Net-(J3-CC1)*%
X145657500Y-69592500D02*
X144000000Y-71250000D01*
X144000000Y-71250000D02*
X144000000Y-72600000D01*
%TO.N,Net-(U5-+)*%
X115957500Y-119385000D02*
X118715000Y-119385000D01*
%TO.N,Net-(U4-DIN)*%
X121590000Y-111750000D02*
X122432500Y-111750000D01*
X122432500Y-111750000D02*
X122682500Y-111500000D01*
X122682500Y-111500000D02*
X124070000Y-111500000D01*
%TO.N,Net-(U4-SCLK)*%
X122432500Y-110750000D02*
X122682500Y-111000000D01*
X121590000Y-110750000D02*
X122432500Y-110750000D01*
X122682500Y-111000000D02*
X124070000Y-111000000D01*
%TO.N,Net-(U6-BOOT0)*%
X126761839Y-84250000D02*
X127726490Y-85214651D01*
X123725000Y-84250000D02*
X126761839Y-84250000D01*
%TO.N,PPS_3V3*%
X130250000Y-97000000D02*
X130250000Y-93500000D01*
X120642500Y-97802500D02*
X120750000Y-97910000D01*
X129000000Y-92250000D02*
X129000000Y-91277373D01*
X129000000Y-91277373D02*
X129494257Y-90783116D01*
X129340000Y-97910000D02*
X130250000Y-97000000D01*
X120750000Y-97910000D02*
X129340000Y-97910000D01*
X130250000Y-93500000D02*
X129000000Y-92250000D01*
X119657500Y-97802500D02*
X120642500Y-97802500D01*
%TO.N,LED1*%
X117399000Y-83650000D02*
X117599000Y-83850000D01*
X117599000Y-85166100D02*
X121109120Y-88676220D01*
X126651407Y-88676220D02*
X127019384Y-88308243D01*
X117599000Y-83850000D02*
X117599000Y-85166100D01*
X121109120Y-88676220D02*
X126651407Y-88676220D01*
X116557500Y-83650000D02*
X117399000Y-83650000D01*
%TO.N,LED2*%
X121275220Y-88275220D02*
X118000000Y-85000000D01*
X126345299Y-88275220D02*
X121275220Y-88275220D01*
X117650000Y-80900000D02*
X116557500Y-80900000D01*
X126665830Y-87954689D02*
X126345299Y-88275220D01*
X118000000Y-81250000D02*
X117650000Y-80900000D01*
X118000000Y-85000000D02*
X118000000Y-81250000D01*
%TO.N,OCXO_625KHZ*%
X133648510Y-85214651D02*
X136681580Y-82181580D01*
X136681580Y-82181580D02*
X157431580Y-82181580D01*
X125000000Y-70750000D02*
X125040000Y-70710000D01*
X157431580Y-82181580D02*
X157865000Y-82615000D01*
X157865000Y-82615000D02*
X157865000Y-84159200D01*
X125040000Y-70710000D02*
X125040000Y-68250000D01*
%TO.N,USB_P*%
X143000000Y-73750000D02*
X143000000Y-72600000D01*
X142500000Y-74250000D02*
X143000000Y-73750000D01*
X142000000Y-74250000D02*
X142000000Y-72600000D01*
X142000000Y-74250000D02*
X142500000Y-74250000D01*
%TO.N,USB_N*%
X142750000Y-71000000D02*
X143250000Y-71000000D01*
X142500000Y-71250000D02*
X142500000Y-72600000D01*
X143250000Y-71000000D02*
X143500000Y-71250000D01*
X143500000Y-72600000D02*
X143500000Y-74231672D01*
X142750000Y-71000000D02*
X142500000Y-71250000D01*
X135981483Y-80725000D02*
X132983565Y-83722918D01*
X141843198Y-80725000D02*
X135981483Y-80725000D01*
X132983565Y-83758274D02*
X132587849Y-84153990D01*
X132983565Y-83722918D02*
X132983565Y-83758274D01*
X143500000Y-71250000D02*
X143500000Y-72600000D01*
X143500000Y-77750000D02*
X143500000Y-79068198D01*
X143500000Y-74231672D02*
X143536657Y-74268329D01*
X143500000Y-79068198D02*
X141843198Y-80725000D01*
%TO.N,GNDA*%
X120887500Y-123387500D02*
X121000000Y-123500000D01*
X167342500Y-83000000D02*
X167342500Y-82250000D01*
X127432500Y-116021250D02*
X128457500Y-116021250D01*
X118732500Y-120672500D02*
X118732500Y-121982500D01*
X130682500Y-114907500D02*
X130682500Y-115932500D01*
X127932500Y-126977500D02*
X126932500Y-126977500D01*
X132182500Y-115932500D02*
X132250000Y-116000000D01*
X135250000Y-108907500D02*
X135250000Y-110000000D01*
D44*
X174587500Y-88575000D02*
X171575000Y-88575000D01*
D43*
X115117500Y-122042500D02*
X115117500Y-121292500D01*
X166112500Y-86700000D02*
X166112500Y-87887500D01*
X128457500Y-116021250D02*
X128500000Y-115978750D01*
X166112500Y-87887500D02*
X166000000Y-88000000D01*
X118732500Y-121982500D02*
X118750000Y-122000000D01*
X167342500Y-82250000D02*
X166500000Y-82250000D01*
X119615000Y-123387500D02*
X120887500Y-123387500D01*
X128457500Y-115021250D02*
X128500000Y-114978750D01*
X132182500Y-114907500D02*
X132182500Y-115932500D01*
D44*
X171575000Y-82925000D02*
X171500000Y-83000000D01*
D43*
X130682500Y-115932500D02*
X130750000Y-116000000D01*
X114292500Y-121292500D02*
X114250000Y-121250000D01*
X127432500Y-115021250D02*
X128457500Y-115021250D01*
X115117500Y-121292500D02*
X114292500Y-121292500D01*
D44*
X171575000Y-88575000D02*
X171500000Y-88500000D01*
D43*
%TO.N,VDD_3V3*%
X126000000Y-87288859D02*
X126000000Y-86941141D01*
X130885000Y-77365000D02*
X131000000Y-77250000D01*
X121750000Y-113657500D02*
X119107497Y-113657500D01*
X131173636Y-82739777D02*
X130910000Y-82476141D01*
X137750000Y-87275000D02*
X135388860Y-87275000D01*
X110375000Y-83650000D02*
X110375000Y-80900000D01*
X124798413Y-85115000D02*
X126312277Y-86628864D01*
X130885000Y-78365000D02*
X130885000Y-77365000D01*
X122750000Y-113000000D02*
X124070000Y-113000000D01*
X121750000Y-113657500D02*
X122092500Y-113657500D01*
X130910000Y-82476141D02*
X130910000Y-80365000D01*
X123725000Y-85115000D02*
X124798413Y-85115000D01*
X130910000Y-80365000D02*
X130910000Y-79365000D01*
X119107497Y-113657500D02*
X119000000Y-113550003D01*
X122092500Y-113657500D02*
X122750000Y-113000000D01*
X126000000Y-86941141D02*
X126312277Y-86628864D01*
X130910000Y-79365000D02*
X130910000Y-78390000D01*
D45*
X153450000Y-73250000D02*
X159750000Y-73250000D01*
D43*
X110375000Y-78150000D02*
X110375000Y-76425000D01*
X123725000Y-86115000D02*
X123725000Y-87225000D01*
X137750000Y-87275000D02*
X138750000Y-87275000D01*
X138750000Y-87275000D02*
X138750000Y-86250000D01*
X135062723Y-87601136D02*
X135388860Y-87275000D01*
X110375000Y-78150000D02*
X110375000Y-80900000D01*
X123725000Y-86115000D02*
X123725000Y-85115000D01*
X126312277Y-87601136D02*
X126000000Y-87288859D01*
X110375000Y-76425000D02*
X110400000Y-76400000D01*
X123725000Y-87225000D02*
X123750000Y-87250000D01*
%TO.N,Net-(J5-In)*%
X170907500Y-85750000D02*
X174837500Y-85750000D01*
X170750000Y-85907500D02*
X170907500Y-85750000D01*
X170750000Y-87250000D02*
X170750000Y-85907500D01*
%TO.N,Net-(R18-Pad2)*%
X168750000Y-85750000D02*
X170092500Y-85750000D01*
X168387500Y-86112500D02*
X168750000Y-85750000D01*
X168387500Y-86700000D02*
X168387500Y-86112500D01*
%TO.N,Net-(U1-~CP)*%
X143637500Y-91495000D02*
X143425000Y-91282500D01*
X143637500Y-92245000D02*
X143637500Y-91507500D01*
X143425000Y-91282500D02*
X143425000Y-89335800D01*
%TO.N,OCXO_10MHZ*%
X138000000Y-83250000D02*
X142155000Y-87405000D01*
X127750000Y-70750000D02*
X127750000Y-68420000D01*
X142155000Y-87405000D02*
X142155000Y-89335800D01*
%TO.N,OCXO_Temperature*%
X136250000Y-108500000D02*
X136250000Y-110250000D01*
X138657500Y-111407500D02*
X138657500Y-111750000D01*
X137000000Y-111000000D02*
X138250000Y-111000000D01*
X138657500Y-111750000D02*
X139902500Y-111750000D01*
X135250000Y-108092500D02*
X135842500Y-108092500D01*
X136250000Y-110250000D02*
X137000000Y-111000000D01*
X135842500Y-108092500D02*
X136250000Y-108500000D01*
X138250000Y-111000000D02*
X138657500Y-111407500D01*
D44*
%TO.N,GNDA*%
X174587500Y-82925000D02*
X171575000Y-82925000D01*
D43*
%TO.N,GND*%
X160750000Y-91500000D02*
X162092500Y-91500000D01*
%TD*%
%TA.AperFunction,Conductor*%
%TO.N,VCC_5V*%
G36*
X140581487Y-72268013D02*
G01*
X140599500Y-72311500D01*
X140599500Y-73244677D01*
X140614032Y-73317738D01*
X140641621Y-73359028D01*
X140669399Y-73400601D01*
X140722666Y-73436192D01*
X140752261Y-73455967D01*
X140757857Y-73458285D01*
X140757127Y-73460046D01*
X140789633Y-73481763D01*
X140800000Y-73515934D01*
X140800000Y-75000000D01*
X144750000Y-75000000D01*
X144750000Y-73487328D01*
X144768013Y-73443841D01*
X144777334Y-73436192D01*
X144830596Y-73400605D01*
X144830597Y-73400603D01*
X144830601Y-73400601D01*
X144885966Y-73317740D01*
X144885966Y-73317739D01*
X144885967Y-73317738D01*
X144900499Y-73244677D01*
X144900500Y-73244677D01*
X144900500Y-72311500D01*
X144918513Y-72268013D01*
X144962000Y-72250000D01*
X145338000Y-72250000D01*
X145381487Y-72268013D01*
X145399500Y-72311500D01*
X145399500Y-73244677D01*
X145414032Y-73317738D01*
X145469399Y-73400601D01*
X145472665Y-73402783D01*
X145498818Y-73441919D01*
X145500000Y-73453920D01*
X145500000Y-75000000D01*
X154438500Y-75000000D01*
X154481987Y-75018013D01*
X154500000Y-75061500D01*
X154500000Y-76688500D01*
X154481987Y-76731987D01*
X154438500Y-76750000D01*
X140061500Y-76750000D01*
X140018013Y-76731987D01*
X140000000Y-76688500D01*
X140000000Y-73453920D01*
X140018013Y-73410433D01*
X140027335Y-73402783D01*
X140030601Y-73400601D01*
X140085966Y-73317740D01*
X140085966Y-73317739D01*
X140085967Y-73317738D01*
X140100499Y-73244677D01*
X140100500Y-73244677D01*
X140100500Y-72311500D01*
X140118513Y-72268013D01*
X140162000Y-72250000D01*
X140538000Y-72250000D01*
X140581487Y-72268013D01*
G37*
%TD.AperFunction*%
%TD*%
%TA.AperFunction,Conductor*%
%TO.N,GND*%
G36*
X154481987Y-68518013D02*
G01*
X154500000Y-68561500D01*
X154500000Y-69709928D01*
X154481987Y-69753415D01*
X154438500Y-69771428D01*
X154411176Y-69765025D01*
X154378522Y-69748831D01*
X154193821Y-69702896D01*
X154193822Y-69702896D01*
X154151106Y-69700000D01*
X153700000Y-69700000D01*
X153700000Y-70888500D01*
X153681987Y-70931987D01*
X153638500Y-70950000D01*
X153450000Y-70950000D01*
X153450000Y-71138500D01*
X153431987Y-71181987D01*
X153388500Y-71200000D01*
X151950000Y-71200000D01*
X151950000Y-71401105D01*
X151952896Y-71443821D01*
X151998831Y-71628524D01*
X152083390Y-71799021D01*
X152083393Y-71799026D01*
X152164534Y-71899970D01*
X152177739Y-71945149D01*
X152155130Y-71986434D01*
X152116600Y-72000000D01*
X151311500Y-72000000D01*
X151268013Y-71981987D01*
X151250000Y-71938500D01*
X151250000Y-70498894D01*
X151950000Y-70498894D01*
X151950000Y-70700000D01*
X153200000Y-70700000D01*
X153200000Y-69700000D01*
X152748894Y-69700000D01*
X152706178Y-69702896D01*
X152521475Y-69748831D01*
X152350978Y-69833390D01*
X152350973Y-69833393D01*
X152202633Y-69952632D01*
X152202632Y-69952633D01*
X152083393Y-70100973D01*
X152083390Y-70100978D01*
X151998831Y-70271475D01*
X151952896Y-70456178D01*
X151950000Y-70498894D01*
X151250000Y-70498894D01*
X151250000Y-68561500D01*
X151268013Y-68518013D01*
X151311500Y-68500000D01*
X154438500Y-68500000D01*
X154481987Y-68518013D01*
G37*
%TD.AperFunction*%
%TD*%
%TA.AperFunction,Conductor*%
%TO.N,VDD_3V3*%
G36*
X163731987Y-68518013D02*
G01*
X163750000Y-68561500D01*
X163750000Y-71238500D01*
X163731987Y-71281987D01*
X163708131Y-71291868D01*
X163700000Y-71300000D01*
X163700000Y-74949999D01*
X163708131Y-74958130D01*
X163731987Y-74968012D01*
X163750000Y-75011499D01*
X163750000Y-77938500D01*
X163731987Y-77981987D01*
X163688500Y-78000000D01*
X158811500Y-78000000D01*
X158768013Y-77981987D01*
X158750000Y-77938500D01*
X158750000Y-75618540D01*
X158768013Y-75575053D01*
X158811500Y-75557040D01*
X158839975Y-75564029D01*
X158877139Y-75583442D01*
X159072670Y-75639391D01*
X159191993Y-75650000D01*
X159500000Y-75650000D01*
X160000000Y-75650000D01*
X160308007Y-75650000D01*
X160427329Y-75639391D01*
X160622863Y-75583442D01*
X160803127Y-75489280D01*
X160803127Y-75489279D01*
X160960752Y-75360752D01*
X161089279Y-75203127D01*
X161089280Y-75203127D01*
X161183442Y-75022863D01*
X161239391Y-74827329D01*
X161250000Y-74708006D01*
X161250000Y-74450000D01*
X162690489Y-74450000D01*
X162697943Y-74506629D01*
X162758401Y-74652588D01*
X162758403Y-74652592D01*
X162854575Y-74777924D01*
X162979907Y-74874096D01*
X162979911Y-74874098D01*
X163125869Y-74934555D01*
X163125873Y-74934556D01*
X163243175Y-74949999D01*
X163300000Y-74949999D01*
X163300000Y-74450000D01*
X162690489Y-74450000D01*
X161250000Y-74450000D01*
X161250000Y-74049999D01*
X162690488Y-74049999D01*
X162690488Y-74050000D01*
X163300000Y-74050000D01*
X163300000Y-73700000D01*
X162690489Y-73700000D01*
X162697943Y-73756625D01*
X162697945Y-73756632D01*
X162737224Y-73851465D01*
X162737224Y-73898533D01*
X162697945Y-73993366D01*
X162697943Y-73993373D01*
X162690488Y-74049999D01*
X161250000Y-74049999D01*
X161250000Y-73500000D01*
X160000000Y-73500000D01*
X160000000Y-75650000D01*
X159500000Y-75650000D01*
X159500000Y-73299999D01*
X162690488Y-73299999D01*
X162690488Y-73300000D01*
X163300000Y-73300000D01*
X163300000Y-72950000D01*
X162690489Y-72950000D01*
X162697943Y-73006625D01*
X162697945Y-73006632D01*
X162737224Y-73101465D01*
X162737224Y-73148533D01*
X162697945Y-73243366D01*
X162697943Y-73243373D01*
X162690488Y-73299999D01*
X159500000Y-73299999D01*
X159500000Y-73000000D01*
X160000000Y-73000000D01*
X161250000Y-73000000D01*
X161250000Y-72549999D01*
X162690488Y-72549999D01*
X162690488Y-72550000D01*
X163300000Y-72550000D01*
X163300000Y-72200000D01*
X162690489Y-72200000D01*
X162697943Y-72256625D01*
X162697945Y-72256632D01*
X162737224Y-72351465D01*
X162737224Y-72398533D01*
X162697945Y-72493366D01*
X162697943Y-72493373D01*
X162690488Y-72549999D01*
X161250000Y-72549999D01*
X161250000Y-71799999D01*
X162690488Y-71799999D01*
X162690488Y-71800000D01*
X163300000Y-71800000D01*
X163300000Y-71300000D01*
X163243181Y-71300000D01*
X163243171Y-71300001D01*
X163125871Y-71315443D01*
X162979911Y-71375901D01*
X162979907Y-71375903D01*
X162854575Y-71472075D01*
X162758403Y-71597407D01*
X162758401Y-71597411D01*
X162697944Y-71743369D01*
X162697943Y-71743373D01*
X162690488Y-71799999D01*
X161250000Y-71799999D01*
X161250000Y-71791993D01*
X161239391Y-71672670D01*
X161183441Y-71477136D01*
X161183442Y-71477136D01*
X161089279Y-71296872D01*
X160960752Y-71139247D01*
X160803127Y-71010720D01*
X160803127Y-71010719D01*
X160622863Y-70916557D01*
X160427329Y-70860608D01*
X160308007Y-70850000D01*
X160000000Y-70850000D01*
X160000000Y-73000000D01*
X159500000Y-73000000D01*
X159500000Y-70850000D01*
X159191993Y-70850000D01*
X159072670Y-70860608D01*
X158877138Y-70916557D01*
X158839973Y-70935970D01*
X158793088Y-70940137D01*
X158756988Y-70909931D01*
X158750000Y-70881458D01*
X158750000Y-68561500D01*
X158768013Y-68518013D01*
X158811500Y-68500000D01*
X163688500Y-68500000D01*
X163731987Y-68518013D01*
G37*
%TD.AperFunction*%
%TD*%
M02*
