%TF.GenerationSoftware,KiCad,Pcbnew,9.0.4*%
%TF.CreationDate,2025-10-02T19:52:11+02:00*%
%TF.ProjectId,gpsdo,67707364-6f2e-46b6-9963-61645f706362,rev?*%
%TF.SameCoordinates,Original*%
%TF.FileFunction,Legend,Top*%
%TF.FilePolarity,Positive*%
%FSLAX46Y46*%
G04 Gerber Fmt 4.6, Leading zero omitted, Abs format (unit mm)*
G04 Created by KiCad (PCBNEW 9.0.4) date 2025-10-02 19:52:11*
%MOMM*%
%LPD*%
G01*
G04 APERTURE LIST*
G04 Aperture macros list*
%AMRoundRect*
0 Rectangle with rounded corners*
0 $1 Rounding radius*
0 $2 $3 $4 $5 $6 $7 $8 $9 X,Y pos of 4 corners*
0 Add a 4 corners polygon primitive as box body*
4,1,4,$2,$3,$4,$5,$6,$7,$8,$9,$2,$3,0*
0 Add four circle primitives for the rounded corners*
1,1,$1+$1,$2,$3*
1,1,$1+$1,$4,$5*
1,1,$1+$1,$6,$7*
1,1,$1+$1,$8,$9*
0 Add four rect primitives between the rounded corners*
20,1,$1+$1,$2,$3,$4,$5,0*
20,1,$1+$1,$4,$5,$6,$7,0*
20,1,$1+$1,$6,$7,$8,$9,0*
20,1,$1+$1,$8,$9,$2,$3,0*%
%AMRotRect*
0 Rectangle, with rotation*
0 The origin of the aperture is its center*
0 $1 length*
0 $2 width*
0 $3 Rotation angle, in degrees counterclockwise*
0 Add horizontal line*
21,1,$1,$2,0,0,$3*%
G04 Aperture macros list end*
%ADD10C,0.187500*%
%ADD11C,0.300000*%
%ADD12C,0.100000*%
%ADD13C,0.120000*%
%ADD14C,0.000000*%
%ADD15R,1.700000X1.700000*%
%ADD16C,1.700000*%
%ADD17RoundRect,0.100000X-0.225000X-0.100000X0.225000X-0.100000X0.225000X0.100000X-0.225000X0.100000X0*%
%ADD18RoundRect,0.100000X0.217500X0.100000X-0.217500X0.100000X-0.217500X-0.100000X0.217500X-0.100000X0*%
%ADD19RoundRect,0.100000X-0.217500X-0.100000X0.217500X-0.100000X0.217500X0.100000X-0.217500X0.100000X0*%
%ADD20RoundRect,0.100000X0.225000X0.100000X-0.225000X0.100000X-0.225000X-0.100000X0.225000X-0.100000X0*%
%ADD21RoundRect,0.100000X0.100000X-0.217500X0.100000X0.217500X-0.100000X0.217500X-0.100000X-0.217500X0*%
%ADD22RoundRect,0.150000X0.725000X0.150000X-0.725000X0.150000X-0.725000X-0.150000X0.725000X-0.150000X0*%
%ADD23RoundRect,0.250000X0.325000X0.450000X-0.325000X0.450000X-0.325000X-0.450000X0.325000X-0.450000X0*%
%ADD24RoundRect,0.150000X-0.825000X-0.150000X0.825000X-0.150000X0.825000X0.150000X-0.825000X0.150000X0*%
%ADD25C,5.600000*%
%ADD26C,3.600000*%
%ADD27RoundRect,0.100000X-0.100000X0.217500X-0.100000X-0.217500X0.100000X-0.217500X0.100000X0.217500X0*%
%ADD28C,1.500000*%
%ADD29RoundRect,0.250000X-0.350000X0.450000X-0.350000X-0.450000X0.350000X-0.450000X0.350000X0.450000X0*%
%ADD30RoundRect,0.250000X1.600000X-0.425000X1.600000X0.425000X-1.600000X0.425000X-1.600000X-0.425000X0*%
%ADD31RoundRect,0.250000X1.350000X-0.385000X1.350000X0.385000X-1.350000X0.385000X-1.350000X-0.385000X0*%
%ADD32RotRect,5.600000X5.600000X45.000000*%
%ADD33RoundRect,0.062500X0.220971X-0.309359X0.309359X-0.220971X-0.220971X0.309359X-0.309359X0.220971X0*%
%ADD34RoundRect,0.062500X-0.220971X-0.309359X0.309359X0.220971X0.220971X0.309359X-0.309359X-0.220971X0*%
%ADD35RoundRect,0.375000X-0.625000X-0.375000X0.625000X-0.375000X0.625000X0.375000X-0.625000X0.375000X0*%
%ADD36RoundRect,0.500000X-0.500000X-1.400000X0.500000X-1.400000X0.500000X1.400000X-0.500000X1.400000X0*%
%ADD37RoundRect,0.150000X-0.512500X-0.150000X0.512500X-0.150000X0.512500X0.150000X-0.512500X0.150000X0*%
%ADD38O,1.000000X1.800000*%
%ADD39O,1.000000X2.100000*%
%ADD40R,0.600000X1.240000*%
%ADD41R,0.300000X1.240000*%
%ADD42C,0.650000*%
%ADD43RoundRect,0.087500X0.725000X0.087500X-0.725000X0.087500X-0.725000X-0.087500X0.725000X-0.087500X0*%
%ADD44RoundRect,0.075000X-0.212500X-0.075000X0.212500X-0.075000X0.212500X0.075000X-0.212500X0.075000X0*%
%ADD45RoundRect,0.150000X0.825000X0.150000X-0.825000X0.150000X-0.825000X-0.150000X0.825000X-0.150000X0*%
%ADD46C,1.000000*%
%ADD47C,2.540000*%
G04 APERTURE END LIST*
D10*
G36*
X127646910Y-76602055D02*
G01*
X127725014Y-76622030D01*
X127797163Y-76654937D01*
X127862195Y-76700089D01*
X127917333Y-76755967D01*
X127963309Y-76823647D01*
X127996462Y-76898551D01*
X128017092Y-76983846D01*
X128024309Y-77081568D01*
X128016299Y-77180259D01*
X127993284Y-77266900D01*
X127955982Y-77343610D01*
X127904695Y-77411755D01*
X127842011Y-77468435D01*
X127766663Y-77514427D01*
X127684126Y-77547023D01*
X127592497Y-77567164D01*
X127490150Y-77574145D01*
X127369819Y-77566534D01*
X127244513Y-77543138D01*
X127113177Y-77502769D01*
X126974767Y-77443811D01*
X126845652Y-77372966D01*
X126718025Y-77285735D01*
X126591497Y-77180886D01*
X126465795Y-77056930D01*
X126610875Y-76915055D01*
X126707900Y-77013080D01*
X126803297Y-77096091D01*
X126897281Y-77165374D01*
X126996878Y-77225930D01*
X127097071Y-77274376D01*
X127198249Y-77311370D01*
X127152005Y-77248906D01*
X127119171Y-77180883D01*
X127099161Y-77106160D01*
X127096976Y-77079828D01*
X127275185Y-77079828D01*
X127284277Y-77157282D01*
X127310402Y-77222803D01*
X127353679Y-77279130D01*
X127410279Y-77321901D01*
X127477805Y-77348054D01*
X127559392Y-77357257D01*
X127639570Y-77348106D01*
X127706444Y-77322003D01*
X127762999Y-77279130D01*
X127806222Y-77222810D01*
X127832318Y-77157289D01*
X127841401Y-77079828D01*
X127832058Y-77001176D01*
X127805261Y-76935063D01*
X127760893Y-76878602D01*
X127703125Y-76835394D01*
X127636813Y-76809392D01*
X127559392Y-76800383D01*
X127479194Y-76809521D01*
X127411958Y-76835639D01*
X127354778Y-76878602D01*
X127310953Y-76934996D01*
X127284439Y-77001110D01*
X127275185Y-77079828D01*
X127096976Y-77079828D01*
X127092278Y-77023224D01*
X127099150Y-76947014D01*
X127119442Y-76876118D01*
X127153369Y-76809268D01*
X127198664Y-76749157D01*
X127253746Y-76697485D01*
X127319607Y-76653746D01*
X127391768Y-76621722D01*
X127471868Y-76602032D01*
X127561499Y-76595219D01*
X127646910Y-76602055D01*
G37*
G36*
X126669127Y-76274193D02*
G01*
X126587886Y-76168887D01*
X126524688Y-76049153D01*
X126495173Y-75963465D01*
X126477111Y-75871200D01*
X126470924Y-75771266D01*
X126477661Y-75685829D01*
X126497146Y-75609510D01*
X126528901Y-75540731D01*
X126572319Y-75478600D01*
X126624116Y-75426968D01*
X126684972Y-75384935D01*
X126752241Y-75354168D01*
X126825266Y-75335470D01*
X126905341Y-75329064D01*
X126993235Y-75334198D01*
X127067788Y-75348616D01*
X127131021Y-75371196D01*
X127219099Y-75419142D01*
X127295519Y-75477442D01*
X127436752Y-75606860D01*
X127812092Y-75962508D01*
X127812092Y-75288032D01*
X127995000Y-75288032D01*
X127995000Y-76249371D01*
X127812092Y-76249371D01*
X127436660Y-75878153D01*
X127281688Y-75720983D01*
X127201320Y-75647602D01*
X127117191Y-75588084D01*
X127056947Y-75558118D01*
X126993675Y-75540255D01*
X126926315Y-75534228D01*
X126854693Y-75542531D01*
X126792153Y-75566674D01*
X126736538Y-75607043D01*
X126694107Y-75660148D01*
X126667866Y-75726053D01*
X126658503Y-75808544D01*
X126667974Y-75896595D01*
X126697520Y-75988886D01*
X126743342Y-76077239D01*
X126804041Y-76160803D01*
X126669127Y-76274193D01*
G37*
G36*
X126687812Y-74093776D02*
G01*
X126687812Y-74725296D01*
X127155201Y-74725296D01*
X127112353Y-74668358D01*
X127078448Y-74598717D01*
X127057329Y-74521933D01*
X127050054Y-74436326D01*
X127056786Y-74362722D01*
X127076694Y-74294074D01*
X127110047Y-74229147D01*
X127154684Y-74171112D01*
X127209987Y-74120993D01*
X127277200Y-74078388D01*
X127350667Y-74047635D01*
X127433521Y-74028535D01*
X127527519Y-74021877D01*
X127625631Y-74028901D01*
X127712700Y-74049114D01*
X127790477Y-74081777D01*
X127861041Y-74127309D01*
X127919520Y-74182710D01*
X127967064Y-74248748D01*
X128001543Y-74322536D01*
X128022792Y-74405295D01*
X128030170Y-74498883D01*
X128025196Y-74589207D01*
X128010809Y-74671167D01*
X127987581Y-74745812D01*
X127954662Y-74816777D01*
X127907881Y-74892518D01*
X127845157Y-74973783D01*
X127714273Y-74836121D01*
X127774260Y-74762263D01*
X127814565Y-74689576D01*
X127838623Y-74609909D01*
X127847263Y-74511706D01*
X127837817Y-74437034D01*
X127810040Y-74370811D01*
X127762816Y-74310755D01*
X127701674Y-74265540D01*
X127625034Y-74237219D01*
X127528435Y-74227041D01*
X127443636Y-74235286D01*
X127373606Y-74258520D01*
X127315302Y-74295826D01*
X127269719Y-74346534D01*
X127242459Y-74406684D01*
X127232962Y-74479282D01*
X127237657Y-74541641D01*
X127252013Y-74605403D01*
X127274213Y-74667350D01*
X127302571Y-74725296D01*
X127302571Y-74912875D01*
X126504904Y-74912875D01*
X126504904Y-74093776D01*
X126687812Y-74093776D01*
G37*
G36*
X127995000Y-72872226D02*
G01*
X127472198Y-73307100D01*
X127614988Y-73441556D01*
X127995000Y-73441556D01*
X127995000Y-73646720D01*
X126418168Y-73646720D01*
X126418168Y-73441556D01*
X127339940Y-73441556D01*
X126840219Y-72968854D01*
X126840219Y-72729344D01*
X126861194Y-72729344D01*
X127335727Y-73178964D01*
X127974025Y-72638485D01*
X127995000Y-72638485D01*
X127995000Y-72872226D01*
G37*
G36*
X126500233Y-72374703D02*
G01*
X126500233Y-72169539D01*
X127126258Y-72169539D01*
X127126258Y-71612665D01*
X126500233Y-71612665D01*
X126500233Y-71407501D01*
X127995000Y-71407501D01*
X127995000Y-71612665D01*
X127309166Y-71612665D01*
X127309166Y-72169539D01*
X127995000Y-72169539D01*
X127995000Y-72374703D01*
X126500233Y-72374703D01*
G37*
G36*
X127812092Y-71067515D02*
G01*
X127023127Y-70422989D01*
X127023127Y-71055792D01*
X126840219Y-71055792D01*
X126840219Y-70158932D01*
X127023127Y-70158932D01*
X127812092Y-70804374D01*
X127812092Y-70123761D01*
X127995000Y-70123761D01*
X127995000Y-71067515D01*
X127812092Y-71067515D01*
G37*
G36*
X125312092Y-77856943D02*
G01*
X125495000Y-77856943D01*
X125495000Y-78806559D01*
X125312092Y-78806559D01*
X125312092Y-78419678D01*
X124337746Y-78419678D01*
X124397950Y-78514339D01*
X124445691Y-78619025D01*
X124480903Y-78735027D01*
X124289386Y-78821214D01*
X124250769Y-78697210D01*
X124186346Y-78569888D01*
X124131086Y-78490700D01*
X124070093Y-78424888D01*
X124003164Y-78371135D01*
X124003164Y-78208653D01*
X125312092Y-78208653D01*
X125312092Y-77856943D01*
G37*
G36*
X125536032Y-77050942D02*
G01*
X125530247Y-77096051D01*
X125513192Y-77136229D01*
X125484100Y-77172849D01*
X125446956Y-77201362D01*
X125406103Y-77218155D01*
X125360177Y-77223866D01*
X125312893Y-77218076D01*
X125271756Y-77201212D01*
X125235247Y-77172849D01*
X125206762Y-77136300D01*
X125190013Y-77096117D01*
X125184323Y-77050942D01*
X125190089Y-77004467D01*
X125206905Y-76963996D01*
X125235247Y-76928026D01*
X125271684Y-76900265D01*
X125312825Y-76883710D01*
X125360177Y-76878018D01*
X125406169Y-76883632D01*
X125447027Y-76900117D01*
X125484100Y-76928026D01*
X125513046Y-76964068D01*
X125530170Y-77004535D01*
X125536032Y-77050942D01*
G37*
G36*
X124169127Y-76222867D02*
G01*
X124087886Y-76117561D01*
X124024688Y-75997827D01*
X123995173Y-75912139D01*
X123977111Y-75819875D01*
X123970924Y-75719940D01*
X123977661Y-75634503D01*
X123997146Y-75558184D01*
X124028901Y-75489405D01*
X124072319Y-75427274D01*
X124124116Y-75375642D01*
X124184972Y-75333609D01*
X124252241Y-75302842D01*
X124325266Y-75284144D01*
X124405341Y-75277739D01*
X124493235Y-75282872D01*
X124567788Y-75297290D01*
X124631021Y-75319870D01*
X124719099Y-75367816D01*
X124795519Y-75426116D01*
X124936752Y-75555534D01*
X125312092Y-75911182D01*
X125312092Y-75236706D01*
X125495000Y-75236706D01*
X125495000Y-76198046D01*
X125312092Y-76198046D01*
X124936660Y-75826827D01*
X124781688Y-75669657D01*
X124701320Y-75596276D01*
X124617191Y-75536758D01*
X124556947Y-75506792D01*
X124493675Y-75488929D01*
X124426315Y-75482903D01*
X124354693Y-75491205D01*
X124292153Y-75515348D01*
X124236538Y-75555717D01*
X124194107Y-75608823D01*
X124167866Y-75674728D01*
X124158503Y-75757218D01*
X124167974Y-75845269D01*
X124197520Y-75937561D01*
X124243342Y-76025913D01*
X124304041Y-76109477D01*
X124169127Y-76222867D01*
G37*
G36*
X124187812Y-74042450D02*
G01*
X124187812Y-74673970D01*
X124655201Y-74673970D01*
X124612353Y-74617032D01*
X124578448Y-74547391D01*
X124557329Y-74470607D01*
X124550054Y-74385000D01*
X124556786Y-74311396D01*
X124576694Y-74242748D01*
X124610047Y-74177821D01*
X124654684Y-74119786D01*
X124709987Y-74069667D01*
X124777200Y-74027062D01*
X124850667Y-73996309D01*
X124933521Y-73977209D01*
X125027519Y-73970551D01*
X125125631Y-73977575D01*
X125212700Y-73997788D01*
X125290477Y-74030451D01*
X125361041Y-74075983D01*
X125419520Y-74131384D01*
X125467064Y-74197422D01*
X125501543Y-74271211D01*
X125522792Y-74353969D01*
X125530170Y-74447557D01*
X125525196Y-74537881D01*
X125510809Y-74619841D01*
X125487581Y-74694487D01*
X125454662Y-74765451D01*
X125407881Y-74841192D01*
X125345157Y-74922457D01*
X125214273Y-74784795D01*
X125274260Y-74710937D01*
X125314565Y-74638250D01*
X125338623Y-74558583D01*
X125347263Y-74460380D01*
X125337817Y-74385708D01*
X125310040Y-74319485D01*
X125262816Y-74259429D01*
X125201674Y-74214214D01*
X125125034Y-74185893D01*
X125028435Y-74175715D01*
X124943636Y-74183960D01*
X124873606Y-74207195D01*
X124815302Y-74244500D01*
X124769719Y-74295208D01*
X124742459Y-74355358D01*
X124732962Y-74427957D01*
X124737657Y-74490315D01*
X124752013Y-74554077D01*
X124774213Y-74616024D01*
X124802571Y-74673970D01*
X124802571Y-74861549D01*
X124004904Y-74861549D01*
X124004904Y-74042450D01*
X124187812Y-74042450D01*
G37*
G36*
X124000233Y-73724354D02*
G01*
X124000233Y-73491987D01*
X124175042Y-73398249D01*
X124356156Y-73308622D01*
X124541217Y-73224259D01*
X124732870Y-73144033D01*
X124541222Y-73063878D01*
X124356156Y-72979535D01*
X124175048Y-72889889D01*
X124000233Y-72796079D01*
X124000233Y-72563712D01*
X125495000Y-72563712D01*
X125495000Y-72768876D01*
X124339212Y-72768876D01*
X124637158Y-72918811D01*
X124947651Y-73058121D01*
X124947651Y-73229945D01*
X124637158Y-73369439D01*
X124339212Y-73519190D01*
X125495000Y-73519190D01*
X125495000Y-73724354D01*
X124000233Y-73724354D01*
G37*
G36*
X124000233Y-72323377D02*
G01*
X124000233Y-72118213D01*
X124626258Y-72118213D01*
X124626258Y-71561339D01*
X124000233Y-71561339D01*
X124000233Y-71356175D01*
X125495000Y-71356175D01*
X125495000Y-71561339D01*
X124809166Y-71561339D01*
X124809166Y-72118213D01*
X125495000Y-72118213D01*
X125495000Y-72323377D01*
X124000233Y-72323377D01*
G37*
G36*
X125312092Y-71016189D02*
G01*
X124523127Y-70371663D01*
X124523127Y-71004466D01*
X124340219Y-71004466D01*
X124340219Y-70107606D01*
X124523127Y-70107606D01*
X125312092Y-70753048D01*
X125312092Y-70072435D01*
X125495000Y-70072435D01*
X125495000Y-71016189D01*
X125312092Y-71016189D01*
G37*
G36*
X121669127Y-77575519D02*
G01*
X121587886Y-77470213D01*
X121524688Y-77350479D01*
X121495173Y-77264791D01*
X121477111Y-77172526D01*
X121470924Y-77072592D01*
X121477661Y-76987155D01*
X121497146Y-76910836D01*
X121528901Y-76842057D01*
X121572319Y-76779926D01*
X121624116Y-76728294D01*
X121684972Y-76686261D01*
X121752241Y-76655494D01*
X121825266Y-76636796D01*
X121905341Y-76630390D01*
X121993235Y-76635524D01*
X122067788Y-76649941D01*
X122131021Y-76672522D01*
X122219099Y-76720468D01*
X122295519Y-76778768D01*
X122436752Y-76908186D01*
X122812092Y-77263834D01*
X122812092Y-76589357D01*
X122995000Y-76589357D01*
X122995000Y-77550697D01*
X122812092Y-77550697D01*
X122436660Y-77179479D01*
X122281688Y-77022308D01*
X122201320Y-76948928D01*
X122117191Y-76889410D01*
X122056947Y-76859444D01*
X121993675Y-76841581D01*
X121926315Y-76835554D01*
X121854693Y-76843857D01*
X121792153Y-76868000D01*
X121736538Y-76908369D01*
X121694107Y-76961474D01*
X121667866Y-77027379D01*
X121658503Y-77109870D01*
X121667974Y-77197921D01*
X121697520Y-77290212D01*
X121743342Y-77378565D01*
X121804041Y-77462129D01*
X121669127Y-77575519D01*
G37*
G36*
X123036032Y-75800942D02*
G01*
X123030247Y-75846051D01*
X123013192Y-75886229D01*
X122984100Y-75922849D01*
X122946956Y-75951362D01*
X122906103Y-75968155D01*
X122860177Y-75973866D01*
X122812893Y-75968076D01*
X122771756Y-75951212D01*
X122735247Y-75922849D01*
X122706762Y-75886300D01*
X122690013Y-75846117D01*
X122684323Y-75800942D01*
X122690089Y-75754467D01*
X122706905Y-75713996D01*
X122735247Y-75678026D01*
X122771684Y-75650265D01*
X122812825Y-75633710D01*
X122860177Y-75628018D01*
X122906169Y-75633632D01*
X122947027Y-75650117D01*
X122984100Y-75678026D01*
X123013046Y-75714068D01*
X123030170Y-75754535D01*
X123036032Y-75800942D01*
G37*
G36*
X121687812Y-74093776D02*
G01*
X121687812Y-74725296D01*
X122155201Y-74725296D01*
X122112353Y-74668358D01*
X122078448Y-74598717D01*
X122057329Y-74521933D01*
X122050054Y-74436326D01*
X122056786Y-74362722D01*
X122076694Y-74294074D01*
X122110047Y-74229147D01*
X122154684Y-74171112D01*
X122209987Y-74120993D01*
X122277200Y-74078388D01*
X122350667Y-74047635D01*
X122433521Y-74028535D01*
X122527519Y-74021877D01*
X122625631Y-74028901D01*
X122712700Y-74049114D01*
X122790477Y-74081777D01*
X122861041Y-74127309D01*
X122919520Y-74182710D01*
X122967064Y-74248748D01*
X123001543Y-74322536D01*
X123022792Y-74405295D01*
X123030170Y-74498883D01*
X123025196Y-74589207D01*
X123010809Y-74671167D01*
X122987581Y-74745812D01*
X122954662Y-74816777D01*
X122907881Y-74892518D01*
X122845157Y-74973783D01*
X122714273Y-74836121D01*
X122774260Y-74762263D01*
X122814565Y-74689576D01*
X122838623Y-74609909D01*
X122847263Y-74511706D01*
X122837817Y-74437034D01*
X122810040Y-74370811D01*
X122762816Y-74310755D01*
X122701674Y-74265540D01*
X122625034Y-74237219D01*
X122528435Y-74227041D01*
X122443636Y-74235286D01*
X122373606Y-74258520D01*
X122315302Y-74295826D01*
X122269719Y-74346534D01*
X122242459Y-74406684D01*
X122232962Y-74479282D01*
X122237657Y-74541641D01*
X122252013Y-74605403D01*
X122274213Y-74667350D01*
X122302571Y-74725296D01*
X122302571Y-74912875D01*
X121504904Y-74912875D01*
X121504904Y-74093776D01*
X121687812Y-74093776D01*
G37*
G36*
X121500233Y-73775680D02*
G01*
X121500233Y-73543313D01*
X121675042Y-73449574D01*
X121856156Y-73359948D01*
X122041217Y-73275585D01*
X122232870Y-73195359D01*
X122041222Y-73115204D01*
X121856156Y-73030861D01*
X121675048Y-72941215D01*
X121500233Y-72847404D01*
X121500233Y-72615038D01*
X122995000Y-72615038D01*
X122995000Y-72820202D01*
X121839212Y-72820202D01*
X122137158Y-72970136D01*
X122447651Y-73109446D01*
X122447651Y-73281271D01*
X122137158Y-73420765D01*
X121839212Y-73570516D01*
X122995000Y-73570516D01*
X122995000Y-73775680D01*
X121500233Y-73775680D01*
G37*
G36*
X121500233Y-72374703D02*
G01*
X121500233Y-72169539D01*
X122126258Y-72169539D01*
X122126258Y-71612665D01*
X121500233Y-71612665D01*
X121500233Y-71407501D01*
X122995000Y-71407501D01*
X122995000Y-71612665D01*
X122309166Y-71612665D01*
X122309166Y-72169539D01*
X122995000Y-72169539D01*
X122995000Y-72374703D01*
X121500233Y-72374703D01*
G37*
G36*
X122812092Y-71067515D02*
G01*
X122023127Y-70422989D01*
X122023127Y-71055792D01*
X121840219Y-71055792D01*
X121840219Y-70158932D01*
X122023127Y-70158932D01*
X122812092Y-70804374D01*
X122812092Y-70123761D01*
X122995000Y-70123761D01*
X122995000Y-71067515D01*
X122812092Y-71067515D01*
G37*
G36*
X118937812Y-74196427D02*
G01*
X118937812Y-74827948D01*
X119405201Y-74827948D01*
X119362353Y-74771010D01*
X119328448Y-74701369D01*
X119307329Y-74624584D01*
X119300054Y-74538978D01*
X119306786Y-74465374D01*
X119326694Y-74396725D01*
X119360047Y-74331799D01*
X119404684Y-74273763D01*
X119459987Y-74223644D01*
X119527200Y-74181040D01*
X119600667Y-74150287D01*
X119683521Y-74131187D01*
X119777519Y-74124528D01*
X119875631Y-74131553D01*
X119962700Y-74151765D01*
X120040477Y-74184429D01*
X120111041Y-74229960D01*
X120169520Y-74285362D01*
X120217064Y-74351400D01*
X120251543Y-74425188D01*
X120272792Y-74507947D01*
X120280170Y-74601535D01*
X120275196Y-74691859D01*
X120260809Y-74773818D01*
X120237581Y-74848464D01*
X120204662Y-74919428D01*
X120157881Y-74995169D01*
X120095157Y-75076434D01*
X119964273Y-74938773D01*
X120024260Y-74864914D01*
X120064565Y-74792227D01*
X120088623Y-74712561D01*
X120097263Y-74614357D01*
X120087817Y-74539686D01*
X120060040Y-74473462D01*
X120012816Y-74413407D01*
X119951674Y-74368192D01*
X119875034Y-74339871D01*
X119778435Y-74329692D01*
X119693636Y-74337937D01*
X119623606Y-74361172D01*
X119565302Y-74398477D01*
X119519719Y-74449186D01*
X119492459Y-74509336D01*
X119482962Y-74581934D01*
X119487657Y-74644293D01*
X119502013Y-74708055D01*
X119524213Y-74770002D01*
X119552571Y-74827948D01*
X119552571Y-75015526D01*
X118754904Y-75015526D01*
X118754904Y-74196427D01*
X118937812Y-74196427D01*
G37*
G36*
X118750233Y-73878332D02*
G01*
X118750233Y-73645965D01*
X118925042Y-73552226D01*
X119106156Y-73462600D01*
X119291217Y-73378236D01*
X119482870Y-73298011D01*
X119291222Y-73217856D01*
X119106156Y-73133513D01*
X118925048Y-73043866D01*
X118750233Y-72950056D01*
X118750233Y-72717690D01*
X120245000Y-72717690D01*
X120245000Y-72922854D01*
X119089212Y-72922854D01*
X119387158Y-73072788D01*
X119697651Y-73212098D01*
X119697651Y-73383923D01*
X119387158Y-73523416D01*
X119089212Y-73673168D01*
X120245000Y-73673168D01*
X120245000Y-73878332D01*
X118750233Y-73878332D01*
G37*
G36*
X118750233Y-72477355D02*
G01*
X118750233Y-72272191D01*
X119376258Y-72272191D01*
X119376258Y-71715317D01*
X118750233Y-71715317D01*
X118750233Y-71510153D01*
X120245000Y-71510153D01*
X120245000Y-71715317D01*
X119559166Y-71715317D01*
X119559166Y-72272191D01*
X120245000Y-72272191D01*
X120245000Y-72477355D01*
X118750233Y-72477355D01*
G37*
G36*
X120062092Y-71170167D02*
G01*
X119273127Y-70525641D01*
X119273127Y-71158443D01*
X119090219Y-71158443D01*
X119090219Y-70261584D01*
X119273127Y-70261584D01*
X120062092Y-70907026D01*
X120062092Y-70226413D01*
X120245000Y-70226413D01*
X120245000Y-71170167D01*
X120062092Y-71170167D01*
G37*
D11*
G36*
X113828023Y-100556713D02*
G01*
X113919104Y-100580529D01*
X113997486Y-100618622D01*
X114065211Y-100671057D01*
X114118741Y-100736024D01*
X114158769Y-100817417D01*
X114184616Y-100918875D01*
X114193988Y-101045115D01*
X114193988Y-101410013D01*
X114745000Y-101410013D01*
X114745000Y-101621039D01*
X113249043Y-101621039D01*
X113249043Y-101044748D01*
X113249110Y-101043832D01*
X113437812Y-101043832D01*
X113437812Y-101410013D01*
X114005218Y-101410013D01*
X114005218Y-101043832D01*
X113995008Y-100948421D01*
X113967304Y-100877350D01*
X113923977Y-100824655D01*
X113866266Y-100785686D01*
X113799610Y-100761947D01*
X113721561Y-100753672D01*
X113637871Y-100762225D01*
X113570142Y-100786181D01*
X113514931Y-100824563D01*
X113473998Y-100876914D01*
X113447591Y-100947984D01*
X113437812Y-101043832D01*
X113249110Y-101043832D01*
X113258556Y-100914989D01*
X113284612Y-100812250D01*
X113324648Y-100731235D01*
X113377820Y-100667851D01*
X113445343Y-100616911D01*
X113523668Y-100579788D01*
X113614850Y-100556527D01*
X113721561Y-100548325D01*
X113828023Y-100556713D01*
G37*
G36*
X113828023Y-99255387D02*
G01*
X113919104Y-99279203D01*
X113997486Y-99317296D01*
X114065211Y-99369731D01*
X114118741Y-99434698D01*
X114158769Y-99516091D01*
X114184616Y-99617549D01*
X114193988Y-99743789D01*
X114193988Y-100108688D01*
X114745000Y-100108688D01*
X114745000Y-100319713D01*
X113249043Y-100319713D01*
X113249043Y-99743422D01*
X113249110Y-99742506D01*
X113437812Y-99742506D01*
X113437812Y-100108688D01*
X114005218Y-100108688D01*
X114005218Y-99742506D01*
X113995008Y-99647095D01*
X113967304Y-99576024D01*
X113923977Y-99523329D01*
X113866266Y-99484360D01*
X113799610Y-99460621D01*
X113721561Y-99452346D01*
X113637871Y-99460899D01*
X113570142Y-99484855D01*
X113514931Y-99523237D01*
X113473998Y-99575588D01*
X113447591Y-99646658D01*
X113437812Y-99742506D01*
X113249110Y-99742506D01*
X113258556Y-99613663D01*
X113284612Y-99510924D01*
X113324648Y-99429909D01*
X113377820Y-99366525D01*
X113445343Y-99315585D01*
X113523668Y-99278462D01*
X113614850Y-99255201D01*
X113721561Y-99246999D01*
X113828023Y-99255387D01*
G37*
G36*
X114549544Y-99041377D02*
G01*
X114401716Y-98905089D01*
X114477486Y-98807003D01*
X114533974Y-98696994D01*
X114569282Y-98579456D01*
X114580868Y-98461697D01*
X114573456Y-98364366D01*
X114553130Y-98287245D01*
X114521792Y-98226308D01*
X114476929Y-98177244D01*
X114424384Y-98148844D01*
X114361416Y-98139113D01*
X114320793Y-98144221D01*
X114284782Y-98159231D01*
X114252148Y-98184726D01*
X114210111Y-98235575D01*
X114169899Y-98304618D01*
X114099832Y-98469116D01*
X114026376Y-98649825D01*
X113982750Y-98737210D01*
X113933686Y-98815239D01*
X113875518Y-98883421D01*
X113808023Y-98936688D01*
X113757403Y-98961975D01*
X113699066Y-98977700D01*
X113631344Y-98983217D01*
X113564975Y-98977722D01*
X113505460Y-98961782D01*
X113451550Y-98935681D01*
X113379849Y-98880939D01*
X113320575Y-98811209D01*
X113274463Y-98730987D01*
X113241441Y-98643780D01*
X113221476Y-98553637D01*
X113215062Y-98469024D01*
X113221375Y-98374756D01*
X113240170Y-98283837D01*
X113271574Y-98195442D01*
X113314823Y-98112375D01*
X113368976Y-98037614D01*
X113434606Y-97970403D01*
X113566222Y-98111270D01*
X113491441Y-98201252D01*
X113447612Y-98281537D01*
X113423014Y-98367589D01*
X113414364Y-98468383D01*
X113420740Y-98536760D01*
X113440376Y-98607052D01*
X113472472Y-98671961D01*
X113515115Y-98724563D01*
X113549859Y-98751261D01*
X113587617Y-98766900D01*
X113629603Y-98772191D01*
X113671820Y-98767083D01*
X113709298Y-98752097D01*
X113743268Y-98726762D01*
X113787063Y-98675724D01*
X113828539Y-98606136D01*
X113901812Y-98440906D01*
X113977375Y-98261662D01*
X114020597Y-98175174D01*
X114068966Y-98096707D01*
X114126145Y-98027787D01*
X114192522Y-97974524D01*
X114242383Y-97949178D01*
X114299008Y-97933538D01*
X114363889Y-97928087D01*
X114455183Y-97937102D01*
X114534487Y-97963063D01*
X114604270Y-98005636D01*
X114666140Y-98066207D01*
X114713248Y-98137387D01*
X114748836Y-98224883D01*
X114771857Y-98332053D01*
X114780170Y-98462979D01*
X114772815Y-98573779D01*
X114750973Y-98679969D01*
X114714591Y-98782540D01*
X114666006Y-98880427D01*
X114610960Y-98966334D01*
X114549544Y-99041377D01*
G37*
D10*
G36*
X131079775Y-107253164D02*
G01*
X131291900Y-107253164D01*
X131381690Y-107638559D01*
X131466198Y-107969773D01*
X131558055Y-108281395D01*
X131651029Y-108541209D01*
X131743934Y-108281399D01*
X131835768Y-107969773D01*
X131920276Y-107638559D01*
X132010066Y-107253164D01*
X132222191Y-107253164D01*
X132110539Y-107718079D01*
X132002739Y-108104228D01*
X131922172Y-108351133D01*
X131841185Y-108563559D01*
X131760205Y-108745000D01*
X131541761Y-108745000D01*
X131461853Y-108563676D01*
X131381258Y-108351249D01*
X131300327Y-108104228D01*
X131191763Y-107718072D01*
X131079775Y-107253164D01*
G37*
G36*
X133052370Y-107228170D02*
G01*
X133139813Y-107248580D01*
X133214030Y-107280825D01*
X133281296Y-107325926D01*
X133339028Y-107381314D01*
X133387962Y-107447887D01*
X133444210Y-107561390D01*
X133484316Y-107695915D01*
X133506872Y-107839982D01*
X133514724Y-108000547D01*
X133506872Y-108161205D01*
X133484316Y-108305362D01*
X133444214Y-108439808D01*
X133387962Y-108553299D01*
X133339037Y-108619821D01*
X133281306Y-108675212D01*
X133214030Y-108720362D01*
X133139819Y-108752555D01*
X133052375Y-108772935D01*
X132949057Y-108780170D01*
X132847111Y-108772967D01*
X132760292Y-108752617D01*
X132686099Y-108720362D01*
X132618811Y-108675259D01*
X132560731Y-108619868D01*
X132511161Y-108553299D01*
X132471282Y-108479731D01*
X132438696Y-108397431D01*
X132413708Y-108305362D01*
X132391219Y-108161208D01*
X132383391Y-108000547D01*
X132588555Y-108000547D01*
X132592576Y-108116687D01*
X132604309Y-108225220D01*
X132626771Y-108328178D01*
X132660179Y-108415180D01*
X132708266Y-108489897D01*
X132769814Y-108545331D01*
X132818362Y-108570699D01*
X132877302Y-108586817D01*
X132949057Y-108592592D01*
X133020816Y-108586838D01*
X133080125Y-108570736D01*
X133129309Y-108545331D01*
X133172484Y-108510249D01*
X133208921Y-108467194D01*
X133238943Y-108415180D01*
X133271567Y-108328240D01*
X133293715Y-108225220D01*
X133305516Y-108116684D01*
X133309560Y-108000547D01*
X133305507Y-107884609D01*
X133293715Y-107776974D01*
X133271601Y-107674837D01*
X133238943Y-107588021D01*
X133191560Y-107513231D01*
X133129309Y-107456863D01*
X133080049Y-107430837D01*
X133020743Y-107414378D01*
X132949057Y-107408503D01*
X132877377Y-107414398D01*
X132818439Y-107430874D01*
X132769814Y-107456863D01*
X132708219Y-107513103D01*
X132660179Y-107588021D01*
X132626736Y-107674898D01*
X132604309Y-107776974D01*
X132592585Y-107884607D01*
X132588555Y-108000547D01*
X132383391Y-108000547D01*
X132391219Y-107839979D01*
X132413708Y-107695915D01*
X132438699Y-107603786D01*
X132471286Y-107521456D01*
X132511161Y-107447887D01*
X132560740Y-107381267D01*
X132618821Y-107325879D01*
X132686099Y-107280825D01*
X132760298Y-107248518D01*
X132847117Y-107228138D01*
X132949057Y-107220924D01*
X133052370Y-107228170D01*
G37*
G36*
X133709813Y-108552292D02*
G01*
X133842162Y-108408769D01*
X133938764Y-108483185D01*
X134048975Y-108539652D01*
X134167066Y-108575099D01*
X134285371Y-108586730D01*
X134383282Y-108579251D01*
X134461055Y-108558716D01*
X134522684Y-108527013D01*
X134572289Y-108481590D01*
X134601031Y-108428300D01*
X134610886Y-108364347D01*
X134605698Y-108322958D01*
X134590469Y-108286347D01*
X134564632Y-108253247D01*
X134513245Y-108210736D01*
X134443915Y-108170357D01*
X134279143Y-108100015D01*
X134098525Y-108026651D01*
X134011341Y-107983147D01*
X133933661Y-107934327D01*
X133865817Y-107876428D01*
X133812944Y-107809488D01*
X133787858Y-107759309D01*
X133772257Y-107701457D01*
X133766782Y-107634275D01*
X133772235Y-107568445D01*
X133788052Y-107509416D01*
X133813952Y-107455947D01*
X133868299Y-107384755D01*
X133937600Y-107325887D01*
X134017358Y-107280029D01*
X134104112Y-107247211D01*
X134193877Y-107227313D01*
X134278044Y-107220924D01*
X134371891Y-107227205D01*
X134462414Y-107245909D01*
X134550436Y-107277161D01*
X134633201Y-107320179D01*
X134706961Y-107373425D01*
X134772544Y-107437354D01*
X134635799Y-107565123D01*
X134547234Y-107491694D01*
X134466630Y-107447887D01*
X134380020Y-107423082D01*
X134278685Y-107414364D01*
X134209765Y-107420807D01*
X134138917Y-107440651D01*
X134073470Y-107473023D01*
X134020215Y-107516214D01*
X133993176Y-107551423D01*
X133977317Y-107589783D01*
X133971946Y-107632534D01*
X133977134Y-107675517D01*
X133992338Y-107713596D01*
X134018017Y-107748031D01*
X134069587Y-107792319D01*
X134139467Y-107834035D01*
X134304972Y-107907399D01*
X134484124Y-107982962D01*
X134570411Y-108026062D01*
X134648530Y-108074187D01*
X134717167Y-108131107D01*
X134769979Y-108196919D01*
X134795125Y-108246339D01*
X134810641Y-108302478D01*
X134816050Y-108366820D01*
X134807096Y-108457441D01*
X134781310Y-108536166D01*
X134739020Y-108605444D01*
X134678846Y-108666872D01*
X134608143Y-108713658D01*
X134521146Y-108749019D01*
X134414489Y-108771903D01*
X134284089Y-108780170D01*
X134173712Y-108772837D01*
X134067887Y-108751058D01*
X133965627Y-108714774D01*
X133868032Y-108666437D01*
X133783175Y-108612231D01*
X133709813Y-108552292D01*
G37*
G36*
X135621227Y-108780170D02*
G01*
X135489841Y-108769265D01*
X135376005Y-108738087D01*
X135276570Y-108687755D01*
X135189537Y-108618238D01*
X135116434Y-108530500D01*
X135056659Y-108421958D01*
X135015535Y-108303959D01*
X134989427Y-108166691D01*
X134980181Y-108006867D01*
X134987574Y-107854513D01*
X135008438Y-107723143D01*
X135041156Y-107610001D01*
X135084637Y-107512646D01*
X135138359Y-107429019D01*
X135206674Y-107354052D01*
X135283480Y-107296661D01*
X135369893Y-107255358D01*
X135467727Y-107229822D01*
X135579370Y-107220924D01*
X135707029Y-107230935D01*
X135811717Y-107258835D01*
X135897740Y-107302623D01*
X135972181Y-107364331D01*
X136039246Y-107448085D01*
X136098874Y-107558071D01*
X135928790Y-107642335D01*
X135885010Y-107568515D01*
X135838073Y-107511029D01*
X135788014Y-107467487D01*
X135730743Y-107435538D01*
X135662996Y-107415569D01*
X135582301Y-107408503D01*
X135492900Y-107418634D01*
X135416135Y-107447861D01*
X135349131Y-107496319D01*
X135290308Y-107566589D01*
X135247263Y-107646570D01*
X135214397Y-107744248D01*
X135193050Y-107863030D01*
X135185345Y-108006867D01*
X135193709Y-108146669D01*
X135216977Y-108262617D01*
X135253063Y-108358580D01*
X135300841Y-108437803D01*
X135364330Y-108505715D01*
X135437255Y-108553343D01*
X135521484Y-108582439D01*
X135620036Y-108592592D01*
X135729790Y-108583816D01*
X135823735Y-108558886D01*
X135911593Y-108515628D01*
X136004352Y-108447237D01*
X136124062Y-108600927D01*
X136045870Y-108660479D01*
X135969560Y-108705854D01*
X135894626Y-108738497D01*
X135816062Y-108760897D01*
X135725520Y-108775138D01*
X135621227Y-108780170D01*
G37*
G36*
X129079775Y-119003164D02*
G01*
X129291900Y-119003164D01*
X129381690Y-119388559D01*
X129466198Y-119719773D01*
X129558055Y-120031395D01*
X129651029Y-120291209D01*
X129743934Y-120031399D01*
X129835768Y-119719773D01*
X129920276Y-119388559D01*
X130010066Y-119003164D01*
X130222191Y-119003164D01*
X130110539Y-119468079D01*
X130002739Y-119854228D01*
X129922172Y-120101133D01*
X129841185Y-120313559D01*
X129760205Y-120495000D01*
X129541761Y-120495000D01*
X129461853Y-120313676D01*
X129381258Y-120101249D01*
X129300327Y-119854228D01*
X129191763Y-119468072D01*
X129079775Y-119003164D01*
G37*
G36*
X130987896Y-119014214D02*
G01*
X131106502Y-119041724D01*
X131181486Y-119071217D01*
X131250884Y-119110583D01*
X131315330Y-119160243D01*
X131371388Y-119218967D01*
X131420044Y-119290078D01*
X131461235Y-119375299D01*
X131489704Y-119465728D01*
X131508112Y-119574156D01*
X131514724Y-119703744D01*
X131505208Y-119867553D01*
X131478347Y-120008110D01*
X131436047Y-120128818D01*
X131391200Y-120214102D01*
X131338432Y-120287025D01*
X131277650Y-120348886D01*
X131208352Y-120400569D01*
X131132354Y-120440896D01*
X131048121Y-120470346D01*
X130954371Y-120488643D01*
X130849590Y-120495000D01*
X130436147Y-120495000D01*
X130436147Y-120312092D01*
X130641311Y-120312092D01*
X130849315Y-120312092D01*
X130939104Y-120305526D01*
X131013477Y-120287186D01*
X131075178Y-120258420D01*
X131130715Y-120218443D01*
X131177409Y-120170930D01*
X131215954Y-120115263D01*
X131259619Y-120021997D01*
X131288494Y-119918434D01*
X131304318Y-119810767D01*
X131309560Y-119703653D01*
X131300778Y-119577674D01*
X131276383Y-119474372D01*
X131238422Y-119389725D01*
X131187652Y-119320527D01*
X131122553Y-119263122D01*
X131047948Y-119222073D01*
X130961965Y-119196697D01*
X130861954Y-119187812D01*
X130641311Y-119187812D01*
X130641311Y-120312092D01*
X130436147Y-120312092D01*
X130436147Y-119004904D01*
X130862137Y-119004904D01*
X130987896Y-119014214D01*
G37*
G36*
X132443711Y-119183333D02*
G01*
X132524702Y-119395381D01*
X132605390Y-119643019D01*
X132713222Y-120029963D01*
X132824842Y-120495000D01*
X132612718Y-120495000D01*
X132570769Y-120313008D01*
X132530835Y-120137428D01*
X131976434Y-120137428D01*
X131936501Y-120313008D01*
X131894552Y-120495000D01*
X131682427Y-120495000D01*
X131794383Y-120029969D01*
X131815557Y-119954521D01*
X132022688Y-119954521D01*
X132484673Y-119954521D01*
X132373390Y-119552436D01*
X132313998Y-119369288D01*
X132253681Y-119207321D01*
X132193363Y-119369288D01*
X132133971Y-119552436D01*
X132022688Y-119954521D01*
X131815557Y-119954521D01*
X131902978Y-119643019D01*
X131984032Y-119395265D01*
X132064630Y-119183216D01*
X132144412Y-119003164D01*
X132362857Y-119003164D01*
X132443711Y-119183333D01*
G37*
G36*
X133621227Y-120530170D02*
G01*
X133489841Y-120519265D01*
X133376005Y-120488087D01*
X133276570Y-120437755D01*
X133189537Y-120368238D01*
X133116434Y-120280500D01*
X133056659Y-120171958D01*
X133015535Y-120053959D01*
X132989427Y-119916691D01*
X132980181Y-119756867D01*
X132987574Y-119604513D01*
X133008438Y-119473143D01*
X133041156Y-119360001D01*
X133084637Y-119262646D01*
X133138359Y-119179019D01*
X133206674Y-119104052D01*
X133283480Y-119046661D01*
X133369893Y-119005358D01*
X133467727Y-118979822D01*
X133579370Y-118970924D01*
X133707029Y-118980935D01*
X133811717Y-119008835D01*
X133897740Y-119052623D01*
X133972181Y-119114331D01*
X134039246Y-119198085D01*
X134098874Y-119308071D01*
X133928790Y-119392335D01*
X133885010Y-119318515D01*
X133838073Y-119261029D01*
X133788014Y-119217487D01*
X133730743Y-119185538D01*
X133662996Y-119165569D01*
X133582301Y-119158503D01*
X133492900Y-119168634D01*
X133416135Y-119197861D01*
X133349131Y-119246319D01*
X133290308Y-119316589D01*
X133247263Y-119396570D01*
X133214397Y-119494248D01*
X133193050Y-119613030D01*
X133185345Y-119756867D01*
X133193709Y-119896669D01*
X133216977Y-120012617D01*
X133253063Y-120108580D01*
X133300841Y-120187803D01*
X133364330Y-120255715D01*
X133437255Y-120303343D01*
X133521484Y-120332439D01*
X133620036Y-120342592D01*
X133729790Y-120333816D01*
X133823735Y-120308886D01*
X133911593Y-120265628D01*
X134004352Y-120197237D01*
X134124062Y-120350927D01*
X134045870Y-120410479D01*
X133969560Y-120455854D01*
X133894626Y-120488497D01*
X133816062Y-120510897D01*
X133725520Y-120525138D01*
X133621227Y-120530170D01*
G37*
D11*
G36*
X176556230Y-95601081D02*
G01*
X176745000Y-95601081D01*
X176745000Y-96556559D01*
X176556230Y-96556559D01*
X176556230Y-96169678D01*
X175590586Y-96169678D01*
X175648776Y-96261558D01*
X175695809Y-96365706D01*
X175731361Y-96483744D01*
X175534349Y-96572404D01*
X175495143Y-96445826D01*
X175430942Y-96318514D01*
X175375852Y-96239656D01*
X175314715Y-96173820D01*
X175247302Y-96119761D01*
X175247302Y-95952791D01*
X176556230Y-95952791D01*
X176556230Y-95601081D01*
G37*
G36*
X176160841Y-94262307D02*
G01*
X176307194Y-94280979D01*
X176401232Y-94302427D01*
X176483774Y-94331050D01*
X176556139Y-94366342D01*
X176621740Y-94411550D01*
X176676380Y-94465829D01*
X176721003Y-94529924D01*
X176752718Y-94601219D01*
X176772940Y-94686721D01*
X176780170Y-94789401D01*
X176772962Y-94892015D01*
X176752758Y-94977891D01*
X176721003Y-95049886D01*
X176676439Y-95114803D01*
X176621791Y-95170157D01*
X176556139Y-95216673D01*
X176483673Y-95253218D01*
X176401126Y-95282870D01*
X176307194Y-95305150D01*
X176160804Y-95324640D01*
X175997616Y-95331437D01*
X175832756Y-95324605D01*
X175687031Y-95305150D01*
X175593777Y-95282901D01*
X175511548Y-95253258D01*
X175439094Y-95216673D01*
X175373441Y-95170157D01*
X175318794Y-95114803D01*
X175274230Y-95049886D01*
X175242474Y-94977891D01*
X175222270Y-94892015D01*
X175215075Y-94789584D01*
X175408503Y-94789584D01*
X175413912Y-94860713D01*
X175428864Y-94918087D01*
X175452100Y-94964340D01*
X175484802Y-95004504D01*
X175525690Y-95037644D01*
X175575931Y-95064083D01*
X175660257Y-95091356D01*
X175762960Y-95108962D01*
X175872070Y-95117428D01*
X175995510Y-95120411D01*
X176195728Y-95113084D01*
X176285579Y-95101851D01*
X176357661Y-95084782D01*
X175483699Y-94579291D01*
X175452335Y-94616910D01*
X175428195Y-94664929D01*
X175413779Y-94719822D01*
X175408503Y-94789584D01*
X175215075Y-94789584D01*
X175215062Y-94789401D01*
X175222303Y-94686727D01*
X175242555Y-94601225D01*
X175274322Y-94529924D01*
X175297320Y-94496859D01*
X175642060Y-94496859D01*
X176513640Y-95000061D01*
X176543222Y-94962475D01*
X176567038Y-94913415D01*
X176581517Y-94857783D01*
X176586730Y-94789584D01*
X176581129Y-94717205D01*
X176565783Y-94660036D01*
X176542125Y-94615012D01*
X176508856Y-94576262D01*
X176467632Y-94544509D01*
X176417287Y-94519482D01*
X176333018Y-94494009D01*
X176229250Y-94477717D01*
X176119104Y-94469989D01*
X175995510Y-94467275D01*
X175800512Y-94473595D01*
X175711636Y-94482993D01*
X175642060Y-94496859D01*
X175297320Y-94496859D01*
X175318896Y-94465838D01*
X175373533Y-94411559D01*
X175439186Y-94366342D01*
X175551265Y-94315844D01*
X175687031Y-94280979D01*
X175832718Y-94262341D01*
X175997616Y-94255792D01*
X176160841Y-94262307D01*
G37*
G36*
X175244371Y-94077006D02*
G01*
X175244371Y-93839968D01*
X175420558Y-93745514D01*
X175601943Y-93655778D01*
X175786221Y-93571652D01*
X175972062Y-93493754D01*
X175786221Y-93415947D01*
X175601943Y-93331912D01*
X175420559Y-93242085D01*
X175244371Y-93147540D01*
X175244371Y-92910502D01*
X176745000Y-92910502D01*
X176745000Y-93121528D01*
X175598005Y-93121528D01*
X175885417Y-93265875D01*
X176197651Y-93405918D01*
X176197651Y-93581590D01*
X175885417Y-93721816D01*
X175598005Y-93865980D01*
X176745000Y-93865980D01*
X176745000Y-94077006D01*
X175244371Y-94077006D01*
G37*
G36*
X175244371Y-92676029D02*
G01*
X175244371Y-92465003D01*
X175870396Y-92465003D01*
X175870396Y-91913991D01*
X175244371Y-91913991D01*
X175244371Y-91702965D01*
X176745000Y-91702965D01*
X176745000Y-91913991D01*
X176059166Y-91913991D01*
X176059166Y-92465003D01*
X176745000Y-92465003D01*
X176745000Y-92676029D01*
X175244371Y-92676029D01*
G37*
G36*
X176558154Y-91368841D02*
G01*
X175773127Y-90727520D01*
X175773127Y-91357117D01*
X175584357Y-91357117D01*
X175584357Y-90454396D01*
X175771203Y-90454396D01*
X176556230Y-91096541D01*
X176556230Y-90419225D01*
X176745000Y-90419225D01*
X176745000Y-91368841D01*
X176558154Y-91368841D01*
G37*
G36*
X110918572Y-114118885D02*
G01*
X110918572Y-114341176D01*
X110507054Y-114448796D01*
X110336639Y-114500624D01*
X110194728Y-114549546D01*
X110061877Y-114602009D01*
X109947707Y-114653960D01*
X110061880Y-114705890D01*
X110194728Y-114758282D01*
X110336639Y-114807204D01*
X110507054Y-114859032D01*
X110918572Y-114966652D01*
X110918572Y-115188943D01*
X110521159Y-115084071D01*
X110355568Y-115033329D01*
X110216802Y-114985336D01*
X110086360Y-114934390D01*
X109972437Y-114884403D01*
X109755000Y-114771105D01*
X109755000Y-114536723D01*
X109972437Y-114424433D01*
X110086406Y-114373681D01*
X110216802Y-114322492D01*
X110355567Y-114274545D01*
X110521159Y-114223756D01*
X110918572Y-114118885D01*
G37*
G36*
X109943769Y-116450244D02*
G01*
X109755000Y-116450244D01*
X109755000Y-115494766D01*
X109943769Y-115494766D01*
X109943769Y-115881646D01*
X110909413Y-115881646D01*
X110851223Y-115789766D01*
X110804190Y-115685619D01*
X110768638Y-115567581D01*
X110965650Y-115478920D01*
X111004856Y-115605499D01*
X111069057Y-115732811D01*
X111124147Y-115811669D01*
X111185284Y-115877505D01*
X111252697Y-115931564D01*
X111252697Y-116098534D01*
X109943769Y-116098534D01*
X109943769Y-116450244D01*
G37*
D10*
G36*
X116617553Y-93796117D02*
G01*
X116758110Y-93822978D01*
X116878818Y-93865278D01*
X116964102Y-93910125D01*
X117037025Y-93962893D01*
X117098886Y-94023675D01*
X117150569Y-94092973D01*
X117190896Y-94168971D01*
X117220346Y-94253204D01*
X117238643Y-94346954D01*
X117245000Y-94451735D01*
X117245000Y-94865177D01*
X115754904Y-94865177D01*
X115754904Y-94439371D01*
X115937812Y-94439371D01*
X115937812Y-94660013D01*
X117062092Y-94660013D01*
X117062092Y-94452010D01*
X117055526Y-94362221D01*
X117037186Y-94287848D01*
X117008420Y-94226147D01*
X116968443Y-94170610D01*
X116920930Y-94123916D01*
X116865263Y-94085371D01*
X116771997Y-94041705D01*
X116668434Y-94012831D01*
X116560767Y-93997007D01*
X116453653Y-93991765D01*
X116327674Y-94000547D01*
X116224372Y-94024941D01*
X116139725Y-94062902D01*
X116070527Y-94113673D01*
X116013122Y-94178772D01*
X115972073Y-94253377D01*
X115946697Y-94339360D01*
X115937812Y-94439371D01*
X115754904Y-94439371D01*
X115754904Y-94439187D01*
X115764214Y-94313429D01*
X115791724Y-94194822D01*
X115821217Y-94119839D01*
X115860583Y-94050441D01*
X115910243Y-93985995D01*
X115968967Y-93929937D01*
X116040078Y-93881281D01*
X116125299Y-93840090D01*
X116215728Y-93811621D01*
X116324156Y-93793213D01*
X116453744Y-93786601D01*
X116617553Y-93796117D01*
G37*
G36*
X117062092Y-92552686D02*
G01*
X117245000Y-92552686D01*
X117245000Y-93505233D01*
X115754904Y-93505233D01*
X115754904Y-92567341D01*
X115937812Y-92567341D01*
X115937812Y-93297963D01*
X116376258Y-93297963D01*
X116376258Y-92620097D01*
X116559166Y-92620097D01*
X116559166Y-93300069D01*
X117062092Y-93300069D01*
X117062092Y-92552686D01*
G37*
G36*
X116909517Y-91219077D02*
G01*
X116977723Y-91235246D01*
X117033699Y-91260428D01*
X117083912Y-91295748D01*
X117126108Y-91338483D01*
X117160919Y-91389296D01*
X117199965Y-91474980D01*
X117226132Y-91572753D01*
X117240200Y-91675830D01*
X117245000Y-91785428D01*
X117245000Y-92250802D01*
X115754904Y-92250802D01*
X115754904Y-91783871D01*
X115937812Y-91783871D01*
X115937812Y-92045638D01*
X116377449Y-92045638D01*
X116377449Y-91785519D01*
X116560356Y-91785519D01*
X116560356Y-92045638D01*
X117062092Y-92045638D01*
X117062092Y-91785519D01*
X117058287Y-91690701D01*
X117047346Y-91605085D01*
X117032617Y-91551488D01*
X117009665Y-91506893D01*
X116978561Y-91469805D01*
X116939300Y-91442808D01*
X116885411Y-91425057D01*
X116812232Y-91418422D01*
X116743528Y-91424925D01*
X116691584Y-91442554D01*
X116652497Y-91469805D01*
X116607865Y-91528103D01*
X116579407Y-91605085D01*
X116565257Y-91690845D01*
X116560356Y-91785519D01*
X116377449Y-91785519D01*
X116377449Y-91783871D01*
X116370679Y-91689019D01*
X116352696Y-91618736D01*
X116325975Y-91567441D01*
X116286190Y-91528440D01*
X116230846Y-91503753D01*
X116154516Y-91494626D01*
X116081025Y-91503670D01*
X116027303Y-91528269D01*
X115988278Y-91567441D01*
X115962110Y-91618655D01*
X115944462Y-91688934D01*
X115937812Y-91783871D01*
X115754904Y-91783871D01*
X115754904Y-91783779D01*
X115761416Y-91667465D01*
X115779567Y-91570300D01*
X115807730Y-91489321D01*
X115844938Y-91421994D01*
X115895122Y-91365088D01*
X115957107Y-91324270D01*
X116033329Y-91298637D01*
X116127588Y-91289462D01*
X116204798Y-91297339D01*
X116272185Y-91320097D01*
X116331837Y-91357606D01*
X116383453Y-91406886D01*
X116426977Y-91465541D01*
X116462629Y-91534743D01*
X116491563Y-91448964D01*
X116530956Y-91372993D01*
X116583052Y-91307571D01*
X116648742Y-91256856D01*
X116698846Y-91233297D01*
X116757481Y-91218492D01*
X116826428Y-91213258D01*
X116909517Y-91219077D01*
G37*
G36*
X115750233Y-90117096D02*
G01*
X115750233Y-89906071D01*
X116660557Y-89906071D01*
X116776377Y-89912050D01*
X116873181Y-89928693D01*
X116953831Y-89954431D01*
X117029930Y-89991405D01*
X117092383Y-90033893D01*
X117142967Y-90081742D01*
X117203796Y-90165194D01*
X117243900Y-90255216D01*
X117266837Y-90350129D01*
X117274309Y-90442428D01*
X117266840Y-90534659D01*
X117243900Y-90629640D01*
X117203791Y-90719740D01*
X117142967Y-90803205D01*
X117092400Y-90850952D01*
X117029947Y-90893410D01*
X116953831Y-90930425D01*
X116873181Y-90956163D01*
X116776377Y-90972806D01*
X116660557Y-90978785D01*
X115750233Y-90978785D01*
X115750233Y-90767759D01*
X116661106Y-90767759D01*
X116757255Y-90762061D01*
X116834305Y-90746463D01*
X116895671Y-90722697D01*
X116951452Y-90688241D01*
X116994704Y-90648424D01*
X117027104Y-90602987D01*
X117058622Y-90525617D01*
X117069145Y-90442428D01*
X117058622Y-90359239D01*
X117027104Y-90281869D01*
X116994701Y-90236438D01*
X116951449Y-90196653D01*
X116895671Y-90162251D01*
X116834299Y-90138435D01*
X116757249Y-90122805D01*
X116661106Y-90117096D01*
X115750233Y-90117096D01*
G37*
G36*
X116534528Y-89125623D02*
G01*
X116534528Y-88587159D01*
X117113475Y-88587159D01*
X117169050Y-88662676D01*
X117211315Y-88736152D01*
X117241611Y-88808077D01*
X117269936Y-88925067D01*
X117280170Y-89068928D01*
X117269261Y-89200874D01*
X117238077Y-89315164D01*
X117187755Y-89414959D01*
X117118207Y-89502416D01*
X117030461Y-89575848D01*
X116921958Y-89635877D01*
X116803944Y-89677154D01*
X116666676Y-89703353D01*
X116506867Y-89712630D01*
X116354787Y-89705039D01*
X116223556Y-89683601D01*
X116110410Y-89649938D01*
X116012911Y-89605115D01*
X115929019Y-89549598D01*
X115855559Y-89479852D01*
X115798367Y-89398865D01*
X115756495Y-89305044D01*
X115730199Y-89196010D01*
X115720924Y-89068745D01*
X115729993Y-88935988D01*
X115755729Y-88821541D01*
X115796757Y-88717214D01*
X115845305Y-88635336D01*
X115994965Y-88729492D01*
X115951582Y-88809322D01*
X115925630Y-88898111D01*
X115912511Y-88988853D01*
X115908503Y-89064715D01*
X115915717Y-89157447D01*
X115936018Y-89235215D01*
X115968176Y-89300682D01*
X116012071Y-89355878D01*
X116068695Y-89402045D01*
X116149801Y-89445489D01*
X116247701Y-89478484D01*
X116365515Y-89499805D01*
X116506867Y-89507466D01*
X116645353Y-89499042D01*
X116760782Y-89475548D01*
X116856863Y-89438990D01*
X116936704Y-89390413D01*
X117005149Y-89326123D01*
X117053115Y-89252507D01*
X117082388Y-89167711D01*
X117092592Y-89068745D01*
X117084753Y-88966414D01*
X117062083Y-88874880D01*
X117025181Y-88792323D01*
X116717435Y-88792323D01*
X116717435Y-89125623D01*
X116534528Y-89125623D01*
G37*
D12*
X153932419Y-115178571D02*
X153932419Y-114988095D01*
X153932419Y-114988095D02*
X153980038Y-114892857D01*
X153980038Y-114892857D02*
X154075276Y-114797619D01*
X154075276Y-114797619D02*
X154265752Y-114750000D01*
X154265752Y-114750000D02*
X154599085Y-114750000D01*
X154599085Y-114750000D02*
X154789561Y-114797619D01*
X154789561Y-114797619D02*
X154884800Y-114892857D01*
X154884800Y-114892857D02*
X154932419Y-114988095D01*
X154932419Y-114988095D02*
X154932419Y-115178571D01*
X154932419Y-115178571D02*
X154884800Y-115273809D01*
X154884800Y-115273809D02*
X154789561Y-115369047D01*
X154789561Y-115369047D02*
X154599085Y-115416666D01*
X154599085Y-115416666D02*
X154265752Y-115416666D01*
X154265752Y-115416666D02*
X154075276Y-115369047D01*
X154075276Y-115369047D02*
X153980038Y-115273809D01*
X153980038Y-115273809D02*
X153932419Y-115178571D01*
X154884800Y-114369047D02*
X154932419Y-114226190D01*
X154932419Y-114226190D02*
X154932419Y-113988095D01*
X154932419Y-113988095D02*
X154884800Y-113892857D01*
X154884800Y-113892857D02*
X154837180Y-113845238D01*
X154837180Y-113845238D02*
X154741942Y-113797619D01*
X154741942Y-113797619D02*
X154646704Y-113797619D01*
X154646704Y-113797619D02*
X154551466Y-113845238D01*
X154551466Y-113845238D02*
X154503847Y-113892857D01*
X154503847Y-113892857D02*
X154456228Y-113988095D01*
X154456228Y-113988095D02*
X154408609Y-114178571D01*
X154408609Y-114178571D02*
X154360990Y-114273809D01*
X154360990Y-114273809D02*
X154313371Y-114321428D01*
X154313371Y-114321428D02*
X154218133Y-114369047D01*
X154218133Y-114369047D02*
X154122895Y-114369047D01*
X154122895Y-114369047D02*
X154027657Y-114321428D01*
X154027657Y-114321428D02*
X153980038Y-114273809D01*
X153980038Y-114273809D02*
X153932419Y-114178571D01*
X153932419Y-114178571D02*
X153932419Y-113940476D01*
X153932419Y-113940476D02*
X153980038Y-113797619D01*
X154837180Y-112797619D02*
X154884800Y-112845238D01*
X154884800Y-112845238D02*
X154932419Y-112988095D01*
X154932419Y-112988095D02*
X154932419Y-113083333D01*
X154932419Y-113083333D02*
X154884800Y-113226190D01*
X154884800Y-113226190D02*
X154789561Y-113321428D01*
X154789561Y-113321428D02*
X154694323Y-113369047D01*
X154694323Y-113369047D02*
X154503847Y-113416666D01*
X154503847Y-113416666D02*
X154360990Y-113416666D01*
X154360990Y-113416666D02*
X154170514Y-113369047D01*
X154170514Y-113369047D02*
X154075276Y-113321428D01*
X154075276Y-113321428D02*
X153980038Y-113226190D01*
X153980038Y-113226190D02*
X153932419Y-113083333D01*
X153932419Y-113083333D02*
X153932419Y-112988095D01*
X153932419Y-112988095D02*
X153980038Y-112845238D01*
X153980038Y-112845238D02*
X154027657Y-112797619D01*
X153932419Y-111892857D02*
X153932419Y-112369047D01*
X153932419Y-112369047D02*
X154408609Y-112416666D01*
X154408609Y-112416666D02*
X154360990Y-112369047D01*
X154360990Y-112369047D02*
X154313371Y-112273809D01*
X154313371Y-112273809D02*
X154313371Y-112035714D01*
X154313371Y-112035714D02*
X154360990Y-111940476D01*
X154360990Y-111940476D02*
X154408609Y-111892857D01*
X154408609Y-111892857D02*
X154503847Y-111845238D01*
X154503847Y-111845238D02*
X154741942Y-111845238D01*
X154741942Y-111845238D02*
X154837180Y-111892857D01*
X154837180Y-111892857D02*
X154884800Y-111940476D01*
X154884800Y-111940476D02*
X154932419Y-112035714D01*
X154932419Y-112035714D02*
X154932419Y-112273809D01*
X154932419Y-112273809D02*
X154884800Y-112369047D01*
X154884800Y-112369047D02*
X154837180Y-112416666D01*
X154646704Y-111464285D02*
X154646704Y-110988095D01*
X154932419Y-111559523D02*
X153932419Y-111226190D01*
X153932419Y-111226190D02*
X154932419Y-110892857D01*
X154027657Y-110607142D02*
X153980038Y-110559523D01*
X153980038Y-110559523D02*
X153932419Y-110464285D01*
X153932419Y-110464285D02*
X153932419Y-110226190D01*
X153932419Y-110226190D02*
X153980038Y-110130952D01*
X153980038Y-110130952D02*
X154027657Y-110083333D01*
X154027657Y-110083333D02*
X154122895Y-110035714D01*
X154122895Y-110035714D02*
X154218133Y-110035714D01*
X154218133Y-110035714D02*
X154360990Y-110083333D01*
X154360990Y-110083333D02*
X154932419Y-110654761D01*
X154932419Y-110654761D02*
X154932419Y-110035714D01*
X154408609Y-109273809D02*
X154456228Y-109130952D01*
X154456228Y-109130952D02*
X154503847Y-109083333D01*
X154503847Y-109083333D02*
X154599085Y-109035714D01*
X154599085Y-109035714D02*
X154741942Y-109035714D01*
X154741942Y-109035714D02*
X154837180Y-109083333D01*
X154837180Y-109083333D02*
X154884800Y-109130952D01*
X154884800Y-109130952D02*
X154932419Y-109226190D01*
X154932419Y-109226190D02*
X154932419Y-109607142D01*
X154932419Y-109607142D02*
X153932419Y-109607142D01*
X153932419Y-109607142D02*
X153932419Y-109273809D01*
X153932419Y-109273809D02*
X153980038Y-109178571D01*
X153980038Y-109178571D02*
X154027657Y-109130952D01*
X154027657Y-109130952D02*
X154122895Y-109083333D01*
X154122895Y-109083333D02*
X154218133Y-109083333D01*
X154218133Y-109083333D02*
X154313371Y-109130952D01*
X154313371Y-109130952D02*
X154360990Y-109178571D01*
X154360990Y-109178571D02*
X154408609Y-109273809D01*
X154408609Y-109273809D02*
X154408609Y-109607142D01*
X154932419Y-108083333D02*
X154932419Y-108654761D01*
X154932419Y-108369047D02*
X153932419Y-108369047D01*
X153932419Y-108369047D02*
X154075276Y-108464285D01*
X154075276Y-108464285D02*
X154170514Y-108559523D01*
X154170514Y-108559523D02*
X154218133Y-108654761D01*
D13*
%TO.C,J7*%
X118370000Y-69630000D02*
X118370000Y-68250000D01*
X119750000Y-69630000D02*
X118370000Y-69630000D01*
X121020000Y-69630000D02*
X131290000Y-69630000D01*
X121020000Y-69630000D02*
X121020000Y-66870000D01*
X131290000Y-69630000D02*
X131290000Y-66870000D01*
X121020000Y-66870000D02*
X131290000Y-66870000D01*
%TO.C,U1*%
X145712500Y-83140000D02*
X145472500Y-82810000D01*
X145952500Y-82810000D01*
X145712500Y-83140000D01*
G36*
X145712500Y-83140000D02*
G01*
X145472500Y-82810000D01*
X145952500Y-82810000D01*
X145712500Y-83140000D01*
G37*
X146092500Y-85410000D02*
X147492500Y-85410000D01*
X146082500Y-83090000D02*
X147492500Y-83090000D01*
%TO.C,U2*%
X118160000Y-102810000D02*
X116750000Y-102810000D01*
X118150000Y-100490000D02*
X116750000Y-100490000D01*
X118770000Y-103090000D02*
X118290000Y-103090000D01*
X118530000Y-102760000D01*
X118770000Y-103090000D01*
G36*
X118770000Y-103090000D02*
G01*
X118290000Y-103090000D01*
X118530000Y-102760000D01*
X118770000Y-103090000D01*
G37*
%TO.C,U8*%
X158940000Y-92085000D02*
X158460000Y-92085000D01*
X158700000Y-91755000D01*
X158940000Y-92085000D01*
G36*
X158940000Y-92085000D02*
G01*
X158460000Y-92085000D01*
X158700000Y-91755000D01*
X158940000Y-92085000D01*
G37*
X156000000Y-81690000D02*
X154050000Y-81690000D01*
X156000000Y-81690000D02*
X157950000Y-81690000D01*
X156000000Y-91810000D02*
X154050000Y-91810000D01*
X156000000Y-91810000D02*
X157950000Y-91810000D01*
%TO.C,D3*%
X113260000Y-79110000D02*
X113260000Y-77190000D01*
X113260000Y-77190000D02*
X110400000Y-77190000D01*
X110400000Y-79110000D02*
X113260000Y-79110000D01*
%TO.C,U5*%
X118507500Y-116302500D02*
X118267500Y-115972500D01*
X118747500Y-115972500D01*
X118507500Y-116302500D01*
G36*
X118507500Y-116302500D02*
G01*
X118267500Y-115972500D01*
X118747500Y-115972500D01*
X118507500Y-116302500D01*
G37*
X121207500Y-121327500D02*
X123157500Y-121327500D01*
X121207500Y-121327500D02*
X119257500Y-121327500D01*
X121207500Y-116207500D02*
X123157500Y-116207500D01*
X121207500Y-116207500D02*
X119257500Y-116207500D01*
D14*
%TO.C,G\u002A\u002A\u002A*%
G36*
X167554757Y-132094411D02*
G01*
X167554757Y-132162009D01*
X167622355Y-132162009D01*
X167689953Y-132162009D01*
X167689953Y-132094411D01*
X167689953Y-132026813D01*
X167757551Y-132026813D01*
X167825149Y-132026813D01*
X167825149Y-132094411D01*
X167825149Y-132162009D01*
X167757551Y-132162009D01*
X167689953Y-132162009D01*
X167689953Y-132229607D01*
X167689953Y-132297205D01*
X167554757Y-132297205D01*
X167419560Y-132297205D01*
X167419560Y-132364803D01*
X167419560Y-132432401D01*
X167554757Y-132432401D01*
X167689953Y-132432401D01*
X167689953Y-132500000D01*
X167689953Y-132567598D01*
X167554757Y-132567598D01*
X167419560Y-132567598D01*
X167419560Y-132635196D01*
X167419560Y-132702794D01*
X167351962Y-132702794D01*
X167284364Y-132702794D01*
X167284364Y-132770392D01*
X167284364Y-132837990D01*
X167351962Y-132837990D01*
X167419560Y-132837990D01*
X167419560Y-132770392D01*
X167419560Y-132702794D01*
X167554757Y-132702794D01*
X167689953Y-132702794D01*
X167689953Y-132635196D01*
X167689953Y-132567598D01*
X167757551Y-132567598D01*
X167825149Y-132567598D01*
X167825149Y-132635196D01*
X167825149Y-132702794D01*
X167757551Y-132702794D01*
X167689953Y-132702794D01*
X167689953Y-132905588D01*
X167689953Y-133108383D01*
X167622355Y-133108383D01*
X167554757Y-133108383D01*
X167554757Y-132973187D01*
X167554757Y-132837990D01*
X167487159Y-132837990D01*
X167419560Y-132837990D01*
X167419560Y-132973187D01*
X167419560Y-133108383D01*
X167284364Y-133108383D01*
X167149168Y-133108383D01*
X167149168Y-133175981D01*
X167149168Y-133243579D01*
X167284364Y-133243579D01*
X167419560Y-133243579D01*
X167419560Y-133311177D01*
X167419560Y-133378775D01*
X167487159Y-133378775D01*
X167554757Y-133378775D01*
X167554757Y-133311177D01*
X167554757Y-133243579D01*
X167622355Y-133243579D01*
X167689953Y-133243579D01*
X167689953Y-133175981D01*
X167689953Y-133108383D01*
X167757551Y-133108383D01*
X167825149Y-133108383D01*
X167825149Y-133175981D01*
X167825149Y-133243579D01*
X167892747Y-133243579D01*
X167960346Y-133243579D01*
X167960346Y-133378775D01*
X167960346Y-133513972D01*
X167825149Y-133513972D01*
X167689953Y-133513972D01*
X167689953Y-133581570D01*
X167689953Y-133649168D01*
X167554757Y-133649168D01*
X167419560Y-133649168D01*
X167419560Y-133784364D01*
X167419560Y-133919560D01*
X167149168Y-133919560D01*
X166878775Y-133919560D01*
X166878775Y-133987159D01*
X166878775Y-134054757D01*
X167149168Y-134054757D01*
X167419560Y-134054757D01*
X167419560Y-133987159D01*
X167419560Y-133919560D01*
X167487159Y-133919560D01*
X167554757Y-133919560D01*
X167554757Y-133851962D01*
X167554757Y-133784364D01*
X167622355Y-133784364D01*
X167689953Y-133784364D01*
X167689953Y-133716766D01*
X167689953Y-133649168D01*
X167825149Y-133649168D01*
X167960346Y-133649168D01*
X167960346Y-133716766D01*
X167960346Y-133784364D01*
X167825149Y-133784364D01*
X167689953Y-133784364D01*
X167689953Y-133851962D01*
X167689953Y-133919560D01*
X167825149Y-133919560D01*
X167960346Y-133919560D01*
X167960346Y-133987159D01*
X167960346Y-134054757D01*
X167892747Y-134054757D01*
X167825149Y-134054757D01*
X167825149Y-134189953D01*
X167825149Y-134325149D01*
X167757551Y-134325149D01*
X167689953Y-134325149D01*
X167689953Y-134392747D01*
X167689953Y-134460346D01*
X167622355Y-134460346D01*
X167554757Y-134460346D01*
X167554757Y-134392747D01*
X167554757Y-134325149D01*
X167622355Y-134325149D01*
X167689953Y-134325149D01*
X167689953Y-134257551D01*
X167689953Y-134189953D01*
X167622355Y-134189953D01*
X167554757Y-134189953D01*
X167554757Y-134257551D01*
X167554757Y-134325149D01*
X167487159Y-134325149D01*
X167419560Y-134325149D01*
X167419560Y-134392747D01*
X167419560Y-134460346D01*
X167216766Y-134460346D01*
X167013972Y-134460346D01*
X167013972Y-134392747D01*
X167013972Y-134325149D01*
X167081570Y-134325149D01*
X167149168Y-134325149D01*
X167284364Y-134325149D01*
X167351962Y-134325149D01*
X167419560Y-134325149D01*
X167419560Y-134257551D01*
X167419560Y-134189953D01*
X167351962Y-134189953D01*
X167284364Y-134189953D01*
X167284364Y-134257551D01*
X167284364Y-134325149D01*
X167149168Y-134325149D01*
X167149168Y-134257551D01*
X167149168Y-134189953D01*
X167081570Y-134189953D01*
X167013972Y-134189953D01*
X167013972Y-134257551D01*
X167013972Y-134325149D01*
X166878775Y-134325149D01*
X166743579Y-134325149D01*
X166743579Y-134392747D01*
X166743579Y-134460346D01*
X166675981Y-134460346D01*
X166608383Y-134460346D01*
X166608383Y-134392747D01*
X166608383Y-134325149D01*
X166675981Y-134325149D01*
X166743579Y-134325149D01*
X166743579Y-134257551D01*
X166743579Y-134189953D01*
X166675981Y-134189953D01*
X166608383Y-134189953D01*
X166608383Y-134122355D01*
X166608383Y-134054757D01*
X166540785Y-134054757D01*
X166473187Y-134054757D01*
X166473187Y-133987159D01*
X166473187Y-133919560D01*
X166608383Y-133919560D01*
X166743579Y-133919560D01*
X166743579Y-133851962D01*
X166743579Y-133784364D01*
X166878775Y-133784364D01*
X167081570Y-133784364D01*
X167284364Y-133784364D01*
X167284364Y-133581570D01*
X167284364Y-133378775D01*
X167081570Y-133378775D01*
X166878775Y-133378775D01*
X166878775Y-133581570D01*
X166878775Y-133784364D01*
X166743579Y-133784364D01*
X166608383Y-133784364D01*
X166473187Y-133784364D01*
X166473187Y-133851962D01*
X166473187Y-133919560D01*
X166405588Y-133919560D01*
X166337990Y-133919560D01*
X166337990Y-133987159D01*
X166337990Y-134054757D01*
X166270392Y-134054757D01*
X166202794Y-134054757D01*
X166202794Y-134122355D01*
X166202794Y-134189953D01*
X166000000Y-134189953D01*
X165797205Y-134189953D01*
X165797205Y-134122355D01*
X165797205Y-134054757D01*
X165729607Y-134054757D01*
X165662009Y-134054757D01*
X165662009Y-134122355D01*
X165662009Y-134189953D01*
X165594411Y-134189953D01*
X165526813Y-134189953D01*
X165526813Y-134122355D01*
X165526813Y-134054757D01*
X165391616Y-134054757D01*
X165256420Y-134054757D01*
X165256420Y-134122355D01*
X165256420Y-134189953D01*
X165188822Y-134189953D01*
X165121224Y-134189953D01*
X165121224Y-133919560D01*
X165121224Y-133649168D01*
X165188822Y-133649168D01*
X165256420Y-133649168D01*
X165256420Y-133581570D01*
X165256420Y-133513972D01*
X165324018Y-133513972D01*
X165391616Y-133513972D01*
X165391616Y-133446373D01*
X165391616Y-133378775D01*
X165324018Y-133378775D01*
X165256420Y-133378775D01*
X165256420Y-133446373D01*
X165256420Y-133513972D01*
X165188822Y-133513972D01*
X165121224Y-133513972D01*
X165121224Y-133446373D01*
X165121224Y-133378775D01*
X164986028Y-133378775D01*
X164850831Y-133378775D01*
X164850831Y-133311177D01*
X164850831Y-133243579D01*
X164918429Y-133243579D01*
X164986028Y-133243579D01*
X164986028Y-133175981D01*
X164986028Y-133108383D01*
X165053626Y-133108383D01*
X165121224Y-133108383D01*
X165121224Y-133243579D01*
X165121224Y-133378775D01*
X165188822Y-133378775D01*
X165256420Y-133378775D01*
X165256420Y-133311177D01*
X165256420Y-133243579D01*
X165391616Y-133243579D01*
X165526813Y-133243579D01*
X165526813Y-133513972D01*
X165526813Y-133784364D01*
X165459214Y-133784364D01*
X165391616Y-133784364D01*
X165391616Y-133716766D01*
X165391616Y-133649168D01*
X165324018Y-133649168D01*
X165256420Y-133649168D01*
X165256420Y-133784364D01*
X165256420Y-133919560D01*
X165391616Y-133919560D01*
X165526813Y-133919560D01*
X165526813Y-133987159D01*
X165526813Y-134054757D01*
X165594411Y-134054757D01*
X165662009Y-134054757D01*
X165662009Y-133919560D01*
X165662009Y-133784364D01*
X165729607Y-133784364D01*
X165797205Y-133784364D01*
X165797205Y-133919560D01*
X165797205Y-134054757D01*
X165864803Y-134054757D01*
X165932401Y-134054757D01*
X165932401Y-133987159D01*
X165932401Y-133919560D01*
X166000000Y-133919560D01*
X166067598Y-133919560D01*
X166067598Y-133987159D01*
X166067598Y-134054757D01*
X166135196Y-134054757D01*
X166202794Y-134054757D01*
X166202794Y-133987159D01*
X166202794Y-133919560D01*
X166270392Y-133919560D01*
X166337990Y-133919560D01*
X166337990Y-133851962D01*
X166337990Y-133784364D01*
X166405588Y-133784364D01*
X166473187Y-133784364D01*
X166473187Y-133716766D01*
X166473187Y-133649168D01*
X166405588Y-133649168D01*
X166337990Y-133649168D01*
X166337990Y-133581570D01*
X166337990Y-133513972D01*
X166540785Y-133513972D01*
X166743579Y-133513972D01*
X166743579Y-133446373D01*
X166743579Y-133378775D01*
X166675981Y-133378775D01*
X166608383Y-133378775D01*
X166608383Y-133311177D01*
X166608383Y-133243579D01*
X166675981Y-133243579D01*
X166743579Y-133243579D01*
X166743579Y-133108383D01*
X166878775Y-133108383D01*
X166946373Y-133108383D01*
X167013972Y-133108383D01*
X167013972Y-133040785D01*
X167013972Y-132973187D01*
X166946373Y-132973187D01*
X166878775Y-132973187D01*
X166878775Y-133040785D01*
X166878775Y-133108383D01*
X166743579Y-133108383D01*
X166743579Y-133040785D01*
X166743579Y-132973187D01*
X166811177Y-132973187D01*
X166878775Y-132973187D01*
X166878775Y-132837990D01*
X167013972Y-132837990D01*
X167081570Y-132837990D01*
X167149168Y-132837990D01*
X167149168Y-132770392D01*
X167149168Y-132702794D01*
X167081570Y-132702794D01*
X167013972Y-132702794D01*
X167013972Y-132770392D01*
X167013972Y-132837990D01*
X166878775Y-132837990D01*
X166878775Y-132770392D01*
X166878775Y-132702794D01*
X166811177Y-132702794D01*
X166743579Y-132702794D01*
X166743579Y-132837990D01*
X166743579Y-132973187D01*
X166675981Y-132973187D01*
X166608383Y-132973187D01*
X166608383Y-133040785D01*
X166608383Y-133108383D01*
X166540785Y-133108383D01*
X166473187Y-133108383D01*
X166473187Y-132973187D01*
X166473187Y-132837990D01*
X166540785Y-132837990D01*
X166608383Y-132837990D01*
X166608383Y-132702794D01*
X166608383Y-132567598D01*
X166473187Y-132567598D01*
X166337990Y-132567598D01*
X166337990Y-132635196D01*
X166337990Y-132702794D01*
X166270392Y-132702794D01*
X166202794Y-132702794D01*
X166202794Y-132635196D01*
X166202794Y-132567598D01*
X166135196Y-132567598D01*
X166067598Y-132567598D01*
X166067598Y-132500000D01*
X166067598Y-132432401D01*
X166135196Y-132432401D01*
X166202794Y-132432401D01*
X166202794Y-132364803D01*
X166202794Y-132297205D01*
X166270392Y-132297205D01*
X166337990Y-132297205D01*
X166337990Y-132229607D01*
X166337990Y-132162009D01*
X166405588Y-132162009D01*
X166473187Y-132162009D01*
X166473187Y-132229607D01*
X166473187Y-132297205D01*
X166405588Y-132297205D01*
X166337990Y-132297205D01*
X166337990Y-132364803D01*
X166337990Y-132432401D01*
X166473187Y-132432401D01*
X166608383Y-132432401D01*
X166608383Y-132500000D01*
X166608383Y-132567598D01*
X166675981Y-132567598D01*
X166743579Y-132567598D01*
X167013972Y-132567598D01*
X167149168Y-132567598D01*
X167284364Y-132567598D01*
X167284364Y-132500000D01*
X167284364Y-132432401D01*
X167149168Y-132432401D01*
X167013972Y-132432401D01*
X167013972Y-132500000D01*
X167013972Y-132567598D01*
X166743579Y-132567598D01*
X166743579Y-132500000D01*
X166743579Y-132432401D01*
X166743579Y-132297205D01*
X167081570Y-132297205D01*
X167419560Y-132297205D01*
X167419560Y-132162009D01*
X167419560Y-132026813D01*
X167487159Y-132026813D01*
X167554757Y-132026813D01*
X167554757Y-132094411D01*
G37*
G36*
X165526813Y-130674850D02*
G01*
X165526813Y-130810046D01*
X165594411Y-130810046D01*
X165662009Y-130810046D01*
X165662009Y-130742448D01*
X165662009Y-130674850D01*
X165729607Y-130674850D01*
X165797205Y-130674850D01*
X165797205Y-130742448D01*
X165797205Y-130810046D01*
X165729607Y-130810046D01*
X165662009Y-130810046D01*
X165662009Y-130877644D01*
X165662009Y-130945242D01*
X165594411Y-130945242D01*
X165526813Y-130945242D01*
X165526813Y-131012841D01*
X165526813Y-131080439D01*
X165459214Y-131080439D01*
X165391616Y-131080439D01*
X165391616Y-131012841D01*
X165391616Y-130945242D01*
X165459214Y-130945242D01*
X165526813Y-130945242D01*
X165526813Y-130877644D01*
X165526813Y-130810046D01*
X165459214Y-130810046D01*
X165391616Y-130810046D01*
X165391616Y-130877644D01*
X165391616Y-130945242D01*
X165324018Y-130945242D01*
X165256420Y-130945242D01*
X165256420Y-131215635D01*
X165256420Y-131486028D01*
X165324018Y-131486028D01*
X165391616Y-131486028D01*
X165391616Y-131350831D01*
X165391616Y-131215635D01*
X165459214Y-131215635D01*
X165526813Y-131215635D01*
X165526813Y-131350831D01*
X165526813Y-131486028D01*
X165459214Y-131486028D01*
X165391616Y-131486028D01*
X165391616Y-131553626D01*
X165391616Y-131621224D01*
X165459214Y-131621224D01*
X165526813Y-131621224D01*
X165526813Y-131756420D01*
X165526813Y-131891616D01*
X165459214Y-131891616D01*
X165391616Y-131891616D01*
X165391616Y-131959214D01*
X165391616Y-132026813D01*
X165526813Y-132026813D01*
X165662009Y-132026813D01*
X165662009Y-131959214D01*
X165662009Y-131891616D01*
X165729607Y-131891616D01*
X165797205Y-131891616D01*
X165797205Y-131824018D01*
X165797205Y-131756420D01*
X165864803Y-131756420D01*
X165932401Y-131756420D01*
X165932401Y-131824018D01*
X165932401Y-131891616D01*
X166067598Y-131891616D01*
X166202794Y-131891616D01*
X166202794Y-131824018D01*
X166202794Y-131756420D01*
X166135196Y-131756420D01*
X166067598Y-131756420D01*
X166067598Y-131688822D01*
X166067598Y-131621224D01*
X166000000Y-131621224D01*
X165932401Y-131621224D01*
X165932401Y-131486028D01*
X165932401Y-131350831D01*
X165864803Y-131350831D01*
X165797205Y-131350831D01*
X165797205Y-131486028D01*
X165797205Y-131621224D01*
X165729607Y-131621224D01*
X165662009Y-131621224D01*
X165662009Y-131486028D01*
X165662009Y-131350831D01*
X165729607Y-131350831D01*
X165797205Y-131350831D01*
X165797205Y-131215635D01*
X165932401Y-131215635D01*
X166067598Y-131215635D01*
X166202794Y-131215635D01*
X166202794Y-131148037D01*
X166202794Y-131080439D01*
X166067598Y-131080439D01*
X165932401Y-131080439D01*
X165932401Y-131148037D01*
X165932401Y-131215635D01*
X165797205Y-131215635D01*
X165797205Y-131148037D01*
X165797205Y-130945242D01*
X166135196Y-130945242D01*
X166473187Y-130945242D01*
X166473187Y-130877644D01*
X166473187Y-130810046D01*
X166202794Y-130810046D01*
X165932401Y-130810046D01*
X165932401Y-130742448D01*
X165932401Y-130674850D01*
X166067598Y-130674850D01*
X166202794Y-130674850D01*
X166202794Y-130607252D01*
X166202794Y-130539654D01*
X166270392Y-130539654D01*
X166337990Y-130539654D01*
X166337990Y-130607252D01*
X166337990Y-130674850D01*
X166473187Y-130674850D01*
X166608383Y-130674850D01*
X166608383Y-130607252D01*
X166608383Y-130539654D01*
X166743579Y-130539654D01*
X166878775Y-130539654D01*
X166878775Y-130607252D01*
X166878775Y-130674850D01*
X166743579Y-130674850D01*
X166608383Y-130674850D01*
X166608383Y-130810046D01*
X166608383Y-130945242D01*
X166540785Y-130945242D01*
X166473187Y-130945242D01*
X166473187Y-131012841D01*
X166473187Y-131080439D01*
X166405588Y-131080439D01*
X166337990Y-131080439D01*
X166337990Y-131148037D01*
X166337990Y-131215635D01*
X166270392Y-131215635D01*
X166202794Y-131215635D01*
X166202794Y-131283233D01*
X166202794Y-131350831D01*
X166135196Y-131350831D01*
X166067598Y-131350831D01*
X166067598Y-131418429D01*
X166067598Y-131486028D01*
X166135196Y-131486028D01*
X166202794Y-131486028D01*
X166202794Y-131418429D01*
X166202794Y-131350831D01*
X166270392Y-131350831D01*
X166337990Y-131350831D01*
X166337990Y-131418429D01*
X166337990Y-131486028D01*
X166270392Y-131486028D01*
X166202794Y-131486028D01*
X166202794Y-131553626D01*
X166202794Y-131621224D01*
X166337990Y-131621224D01*
X166473187Y-131621224D01*
X166473187Y-131688822D01*
X166473187Y-131756420D01*
X166540785Y-131756420D01*
X166608383Y-131756420D01*
X166608383Y-131621224D01*
X166608383Y-131486028D01*
X166540785Y-131486028D01*
X166473187Y-131486028D01*
X166473187Y-131418429D01*
X166473187Y-131350831D01*
X166540785Y-131350831D01*
X166608383Y-131350831D01*
X166608383Y-131418429D01*
X166608383Y-131486028D01*
X166675981Y-131486028D01*
X166743579Y-131486028D01*
X166743579Y-131418429D01*
X166743579Y-131350831D01*
X166811177Y-131350831D01*
X166878775Y-131350831D01*
X166878775Y-131486028D01*
X166878775Y-131621224D01*
X166811177Y-131621224D01*
X166743579Y-131621224D01*
X166743579Y-131688822D01*
X166743579Y-131756420D01*
X166811177Y-131756420D01*
X166878775Y-131756420D01*
X166878775Y-131891616D01*
X166878775Y-132026813D01*
X166811177Y-132026813D01*
X166743579Y-132026813D01*
X166743579Y-131959214D01*
X166743579Y-131891616D01*
X166675981Y-131891616D01*
X166608383Y-131891616D01*
X166608383Y-131959214D01*
X166608383Y-132026813D01*
X166540785Y-132026813D01*
X166473187Y-132026813D01*
X166473187Y-131891616D01*
X166473187Y-131756420D01*
X166405588Y-131756420D01*
X166337990Y-131756420D01*
X166337990Y-131959214D01*
X166337990Y-132162009D01*
X166270392Y-132162009D01*
X166202794Y-132162009D01*
X166202794Y-132094411D01*
X166202794Y-132026813D01*
X166067598Y-132026813D01*
X165932401Y-132026813D01*
X165932401Y-132094411D01*
X165932401Y-132162009D01*
X165797205Y-132162009D01*
X165662009Y-132162009D01*
X165662009Y-132229607D01*
X165662009Y-132297205D01*
X165594411Y-132297205D01*
X165526813Y-132297205D01*
X165526813Y-132229607D01*
X165526813Y-132162009D01*
X165391616Y-132162009D01*
X165256420Y-132162009D01*
X165256420Y-132229607D01*
X165256420Y-132297205D01*
X165391616Y-132297205D01*
X165526813Y-132297205D01*
X165526813Y-132432401D01*
X165526813Y-132567598D01*
X165459214Y-132567598D01*
X165391616Y-132567598D01*
X165391616Y-132635196D01*
X165391616Y-132702794D01*
X165324018Y-132702794D01*
X165256420Y-132702794D01*
X165256420Y-132837990D01*
X165256420Y-132973187D01*
X165188822Y-132973187D01*
X165121224Y-132973187D01*
X165121224Y-132770392D01*
X165121224Y-132567598D01*
X165188822Y-132567598D01*
X165256420Y-132567598D01*
X165256420Y-132500000D01*
X165256420Y-132432401D01*
X165188822Y-132432401D01*
X165121224Y-132432401D01*
X165121224Y-132500000D01*
X165121224Y-132567598D01*
X164986028Y-132567598D01*
X164850831Y-132567598D01*
X164850831Y-132635196D01*
X164850831Y-132702794D01*
X164918429Y-132702794D01*
X164986028Y-132702794D01*
X164986028Y-132770392D01*
X164986028Y-132837990D01*
X164918429Y-132837990D01*
X164850831Y-132837990D01*
X164850831Y-132905588D01*
X164850831Y-132973187D01*
X164783233Y-132973187D01*
X164715635Y-132973187D01*
X164715635Y-132837990D01*
X164715635Y-132702794D01*
X164580439Y-132702794D01*
X164445242Y-132702794D01*
X164445242Y-132770392D01*
X164445242Y-132837990D01*
X164377644Y-132837990D01*
X164310046Y-132837990D01*
X164310046Y-132905588D01*
X164310046Y-132973187D01*
X164242448Y-132973187D01*
X164174850Y-132973187D01*
X164174850Y-133175981D01*
X164174850Y-133378775D01*
X164107252Y-133378775D01*
X164039654Y-133378775D01*
X164039654Y-132837990D01*
X164039654Y-132297205D01*
X164107252Y-132297205D01*
X164174850Y-132297205D01*
X164174850Y-132229607D01*
X164174850Y-132162009D01*
X164242448Y-132162009D01*
X164310046Y-132162009D01*
X164310046Y-132229607D01*
X164310046Y-132297205D01*
X164242448Y-132297205D01*
X164174850Y-132297205D01*
X164174850Y-132500000D01*
X164174850Y-132702794D01*
X164242448Y-132702794D01*
X164310046Y-132702794D01*
X164310046Y-132567598D01*
X164310046Y-132432401D01*
X164377644Y-132432401D01*
X164445242Y-132432401D01*
X164445242Y-132229607D01*
X164445242Y-132026813D01*
X164512841Y-132026813D01*
X164580439Y-132026813D01*
X164580439Y-132229607D01*
X164580439Y-132432401D01*
X164512841Y-132432401D01*
X164445242Y-132432401D01*
X164445242Y-132500000D01*
X164445242Y-132567598D01*
X164648037Y-132567598D01*
X164850831Y-132567598D01*
X164850831Y-132500000D01*
X164850831Y-132432401D01*
X164918429Y-132432401D01*
X164986028Y-132432401D01*
X164986028Y-132364803D01*
X164986028Y-132297205D01*
X164918429Y-132297205D01*
X164850831Y-132297205D01*
X164850831Y-132229607D01*
X164850831Y-132162009D01*
X165053626Y-132162009D01*
X165256420Y-132162009D01*
X165256420Y-132094411D01*
X165256420Y-132026813D01*
X165188822Y-132026813D01*
X165121224Y-132026813D01*
X165121224Y-131959214D01*
X165121224Y-131891616D01*
X165053626Y-131891616D01*
X164986028Y-131891616D01*
X164986028Y-131959214D01*
X164986028Y-132026813D01*
X164850831Y-132026813D01*
X164715635Y-132026813D01*
X164715635Y-131891616D01*
X164850831Y-131891616D01*
X164918429Y-131891616D01*
X164986028Y-131891616D01*
X164986028Y-131824018D01*
X164986028Y-131756420D01*
X164918429Y-131756420D01*
X164850831Y-131756420D01*
X164850831Y-131824018D01*
X164850831Y-131891616D01*
X164715635Y-131891616D01*
X164715635Y-131824018D01*
X164715635Y-131756420D01*
X164580439Y-131756420D01*
X164445242Y-131756420D01*
X164445242Y-131824018D01*
X164445242Y-131891616D01*
X164377644Y-131891616D01*
X164310046Y-131891616D01*
X164310046Y-131756420D01*
X164310046Y-131621224D01*
X164648037Y-131621224D01*
X164986028Y-131621224D01*
X164986028Y-131688822D01*
X164986028Y-131756420D01*
X165121224Y-131756420D01*
X165256420Y-131756420D01*
X165256420Y-131688822D01*
X165256420Y-131621224D01*
X165188822Y-131621224D01*
X165121224Y-131621224D01*
X165121224Y-131215635D01*
X165121224Y-130877644D01*
X165121224Y-130810046D01*
X165256420Y-130810046D01*
X165391616Y-130810046D01*
X165391616Y-130742448D01*
X165391616Y-130674850D01*
X165324018Y-130674850D01*
X165256420Y-130674850D01*
X165256420Y-130607252D01*
X165256420Y-130539654D01*
X165391616Y-130539654D01*
X165526813Y-130539654D01*
X165526813Y-130674850D01*
G37*
G36*
X166067598Y-132905588D02*
G01*
X166067598Y-132973187D01*
X166135196Y-132973187D01*
X166202794Y-132973187D01*
X166202794Y-133040785D01*
X166202794Y-133108383D01*
X166270392Y-133108383D01*
X166337990Y-133108383D01*
X166337990Y-133175981D01*
X166337990Y-133243579D01*
X166405588Y-133243579D01*
X166473187Y-133243579D01*
X166473187Y-133311177D01*
X166473187Y-133378775D01*
X166405588Y-133378775D01*
X166337990Y-133378775D01*
X166337990Y-133446373D01*
X166337990Y-133513972D01*
X166270392Y-133513972D01*
X166202794Y-133513972D01*
X166202794Y-133581570D01*
X166202794Y-133649168D01*
X166270392Y-133649168D01*
X166337990Y-133649168D01*
X166337990Y-133716766D01*
X166337990Y-133784364D01*
X166270392Y-133784364D01*
X166202794Y-133784364D01*
X166202794Y-133851962D01*
X166202794Y-133919560D01*
X166135196Y-133919560D01*
X166067598Y-133919560D01*
X166067598Y-133851962D01*
X166067598Y-133784364D01*
X166000000Y-133784364D01*
X165932401Y-133784364D01*
X165932401Y-133716766D01*
X165932401Y-133649168D01*
X166000000Y-133649168D01*
X166067598Y-133649168D01*
X166067598Y-133581570D01*
X166067598Y-133513972D01*
X166135196Y-133513972D01*
X166202794Y-133513972D01*
X166202794Y-133446373D01*
X166202794Y-133378775D01*
X166067598Y-133378775D01*
X165932401Y-133378775D01*
X165932401Y-133311177D01*
X165932401Y-133243579D01*
X166000000Y-133243579D01*
X166067598Y-133243579D01*
X166067598Y-133175981D01*
X166067598Y-133108383D01*
X166000000Y-133108383D01*
X165932401Y-133108383D01*
X165932401Y-133175981D01*
X165932401Y-133243579D01*
X165864803Y-133243579D01*
X165797205Y-133243579D01*
X165797205Y-133311177D01*
X165797205Y-133378775D01*
X165729607Y-133378775D01*
X165662009Y-133378775D01*
X165662009Y-133311177D01*
X165662009Y-133243579D01*
X165729607Y-133243579D01*
X165797205Y-133243579D01*
X165797205Y-133175981D01*
X165797205Y-133108383D01*
X165797205Y-132973187D01*
X165662009Y-132973187D01*
X165526813Y-132973187D01*
X165526813Y-133040785D01*
X165526813Y-133108383D01*
X165391616Y-133108383D01*
X165256420Y-133108383D01*
X165256420Y-133040785D01*
X165256420Y-132973187D01*
X165391616Y-132973187D01*
X165526813Y-132973187D01*
X165526813Y-132905588D01*
X165526813Y-132837990D01*
X165797205Y-132837990D01*
X166067598Y-132837990D01*
X166067598Y-132905588D01*
G37*
G36*
X167960346Y-131012841D02*
G01*
X167960346Y-131486028D01*
X167487159Y-131486028D01*
X167013972Y-131486028D01*
X167013972Y-131350831D01*
X167149168Y-131350831D01*
X167487159Y-131350831D01*
X167825149Y-131350831D01*
X167825149Y-131012841D01*
X167825149Y-130674850D01*
X167487159Y-130674850D01*
X167149168Y-130674850D01*
X167149168Y-131012841D01*
X167149168Y-131350831D01*
X167013972Y-131350831D01*
X167013972Y-131012841D01*
X167013972Y-130539654D01*
X167487159Y-130539654D01*
X167960346Y-130539654D01*
X167960346Y-131012841D01*
G37*
G36*
X164986028Y-133987159D02*
G01*
X164986028Y-134460346D01*
X164512841Y-134460346D01*
X164039654Y-134460346D01*
X164039654Y-134325149D01*
X164174850Y-134325149D01*
X164512841Y-134325149D01*
X164850831Y-134325149D01*
X164850831Y-133987159D01*
X164850831Y-133649168D01*
X164512841Y-133649168D01*
X164174850Y-133649168D01*
X164174850Y-133987159D01*
X164174850Y-134325149D01*
X164039654Y-134325149D01*
X164039654Y-133987159D01*
X164039654Y-133513972D01*
X164512841Y-133513972D01*
X164986028Y-133513972D01*
X164986028Y-133987159D01*
G37*
G36*
X164986028Y-131012841D02*
G01*
X164986028Y-131486028D01*
X164512841Y-131486028D01*
X164039654Y-131486028D01*
X164039654Y-131350831D01*
X164174850Y-131350831D01*
X164512841Y-131350831D01*
X164850831Y-131350831D01*
X164850831Y-131012841D01*
X164850831Y-130674850D01*
X164512841Y-130674850D01*
X164174850Y-130674850D01*
X164174850Y-131012841D01*
X164174850Y-131350831D01*
X164039654Y-131350831D01*
X164039654Y-131012841D01*
X164039654Y-130539654D01*
X164512841Y-130539654D01*
X164986028Y-130539654D01*
X164986028Y-131012841D01*
G37*
G36*
X167689953Y-131688822D02*
G01*
X167689953Y-131756420D01*
X167554757Y-131756420D01*
X167419560Y-131756420D01*
X167419560Y-131891616D01*
X167419560Y-132026813D01*
X167351962Y-132026813D01*
X167284364Y-132026813D01*
X167284364Y-131959214D01*
X167284364Y-131891616D01*
X167149168Y-131891616D01*
X167013972Y-131891616D01*
X167013972Y-131756420D01*
X167013972Y-131621224D01*
X167351962Y-131621224D01*
X167689953Y-131621224D01*
X167689953Y-131688822D01*
G37*
G36*
X165797205Y-132635196D02*
G01*
X165797205Y-132702794D01*
X165662009Y-132702794D01*
X165526813Y-132702794D01*
X165526813Y-132770392D01*
X165526813Y-132837990D01*
X165459214Y-132837990D01*
X165391616Y-132837990D01*
X165391616Y-132770392D01*
X165391616Y-132702794D01*
X165459214Y-132702794D01*
X165526813Y-132702794D01*
X165526813Y-132635196D01*
X165526813Y-132567598D01*
X165662009Y-132567598D01*
X165797205Y-132567598D01*
X165797205Y-132635196D01*
G37*
G36*
X164715635Y-133175981D02*
G01*
X164715635Y-133243579D01*
X164648037Y-133243579D01*
X164580439Y-133243579D01*
X164580439Y-133311177D01*
X164580439Y-133378775D01*
X164445242Y-133378775D01*
X164310046Y-133378775D01*
X164310046Y-133311177D01*
X164310046Y-133243579D01*
X164377644Y-133243579D01*
X164445242Y-133243579D01*
X164445242Y-133175981D01*
X164445242Y-133108383D01*
X164580439Y-133108383D01*
X164715635Y-133108383D01*
X164715635Y-133175981D01*
G37*
G36*
X165391616Y-134325149D02*
G01*
X165391616Y-134460346D01*
X165256420Y-134460346D01*
X165121224Y-134460346D01*
X165121224Y-134392747D01*
X165121224Y-134325149D01*
X165188822Y-134325149D01*
X165256420Y-134325149D01*
X165256420Y-134257551D01*
X165256420Y-134189953D01*
X165324018Y-134189953D01*
X165391616Y-134189953D01*
X165391616Y-134325149D01*
G37*
G36*
X167960346Y-132905588D02*
G01*
X167960346Y-132973187D01*
X167892747Y-132973187D01*
X167825149Y-132973187D01*
X167825149Y-132905588D01*
X167825149Y-132837990D01*
X167892747Y-132837990D01*
X167960346Y-132837990D01*
X167960346Y-132905588D01*
G37*
G36*
X167960346Y-132364803D02*
G01*
X167960346Y-132432401D01*
X167892747Y-132432401D01*
X167825149Y-132432401D01*
X167825149Y-132364803D01*
X167825149Y-132297205D01*
X167892747Y-132297205D01*
X167960346Y-132297205D01*
X167960346Y-132364803D01*
G37*
G36*
X167960346Y-131824018D02*
G01*
X167960346Y-131891616D01*
X167892747Y-131891616D01*
X167825149Y-131891616D01*
X167825149Y-131824018D01*
X167825149Y-131756420D01*
X167892747Y-131756420D01*
X167960346Y-131756420D01*
X167960346Y-131824018D01*
G37*
G36*
X167689953Y-131012841D02*
G01*
X167689953Y-131215635D01*
X167487159Y-131215635D01*
X167284364Y-131215635D01*
X167284364Y-131012841D01*
X167284364Y-130810046D01*
X167487159Y-130810046D01*
X167689953Y-130810046D01*
X167689953Y-131012841D01*
G37*
G36*
X167149168Y-133581570D02*
G01*
X167149168Y-133649168D01*
X167081570Y-133649168D01*
X167013972Y-133649168D01*
X167013972Y-133581570D01*
X167013972Y-133513972D01*
X167081570Y-133513972D01*
X167149168Y-133513972D01*
X167149168Y-133581570D01*
G37*
G36*
X166878775Y-131148037D02*
G01*
X166878775Y-131215635D01*
X166675981Y-131215635D01*
X166473187Y-131215635D01*
X166473187Y-131148037D01*
X166473187Y-131080439D01*
X166675981Y-131080439D01*
X166878775Y-131080439D01*
X166878775Y-131148037D01*
G37*
G36*
X166878775Y-130877644D02*
G01*
X166878775Y-130945242D01*
X166811177Y-130945242D01*
X166743579Y-130945242D01*
X166743579Y-130877644D01*
X166743579Y-130810046D01*
X166811177Y-130810046D01*
X166878775Y-130810046D01*
X166878775Y-130877644D01*
G37*
G36*
X166473187Y-134392747D02*
G01*
X166473187Y-134460346D01*
X166405588Y-134460346D01*
X166337990Y-134460346D01*
X166337990Y-134392747D01*
X166337990Y-134325149D01*
X166405588Y-134325149D01*
X166473187Y-134325149D01*
X166473187Y-134392747D01*
G37*
G36*
X166337990Y-134257551D02*
G01*
X166337990Y-134325149D01*
X166270392Y-134325149D01*
X166202794Y-134325149D01*
X166202794Y-134257551D01*
X166202794Y-134189953D01*
X166270392Y-134189953D01*
X166337990Y-134189953D01*
X166337990Y-134257551D01*
G37*
G36*
X166202794Y-132229607D02*
G01*
X166202794Y-132297205D01*
X166067598Y-132297205D01*
X165932401Y-132297205D01*
X165932401Y-132229607D01*
X165932401Y-132162009D01*
X166067598Y-132162009D01*
X166202794Y-132162009D01*
X166202794Y-132229607D01*
G37*
G36*
X166067598Y-132635196D02*
G01*
X166067598Y-132702794D01*
X166000000Y-132702794D01*
X165932401Y-132702794D01*
X165932401Y-132635196D01*
X165932401Y-132567598D01*
X166000000Y-132567598D01*
X166067598Y-132567598D01*
X166067598Y-132635196D01*
G37*
G36*
X165797205Y-134392747D02*
G01*
X165797205Y-134460346D01*
X165662009Y-134460346D01*
X165526813Y-134460346D01*
X165526813Y-134392747D01*
X165526813Y-134325149D01*
X165662009Y-134325149D01*
X165797205Y-134325149D01*
X165797205Y-134392747D01*
G37*
G36*
X164986028Y-133040785D02*
G01*
X164986028Y-133108383D01*
X164918429Y-133108383D01*
X164850831Y-133108383D01*
X164850831Y-133040785D01*
X164850831Y-132973187D01*
X164918429Y-132973187D01*
X164986028Y-132973187D01*
X164986028Y-133040785D01*
G37*
G36*
X164715635Y-133987159D02*
G01*
X164715635Y-134189953D01*
X164512841Y-134189953D01*
X164310046Y-134189953D01*
X164310046Y-133987159D01*
X164310046Y-133784364D01*
X164512841Y-133784364D01*
X164715635Y-133784364D01*
X164715635Y-133987159D01*
G37*
G36*
X164715635Y-131012841D02*
G01*
X164715635Y-131215635D01*
X164512841Y-131215635D01*
X164310046Y-131215635D01*
X164310046Y-131012841D01*
X164310046Y-130810046D01*
X164512841Y-130810046D01*
X164715635Y-130810046D01*
X164715635Y-131012841D01*
G37*
G36*
X164580439Y-132905588D02*
G01*
X164580439Y-132973187D01*
X164512841Y-132973187D01*
X164445242Y-132973187D01*
X164445242Y-132905588D01*
X164445242Y-132837990D01*
X164512841Y-132837990D01*
X164580439Y-132837990D01*
X164580439Y-132905588D01*
G37*
G36*
X164174850Y-131688822D02*
G01*
X164174850Y-131756420D01*
X164107252Y-131756420D01*
X164039654Y-131756420D01*
X164039654Y-131688822D01*
X164039654Y-131621224D01*
X164107252Y-131621224D01*
X164174850Y-131621224D01*
X164174850Y-131688822D01*
G37*
D13*
%TO.C,J1*%
X112630000Y-99745000D02*
X112630000Y-102395000D01*
X109870000Y-102395000D02*
X112630000Y-102395000D01*
X109870000Y-99745000D02*
X112630000Y-99745000D01*
X109870000Y-99745000D02*
X109870000Y-102395000D01*
X109870000Y-98475000D02*
X109870000Y-97095000D01*
X109870000Y-97095000D02*
X111250000Y-97095000D01*
%TO.C,TP3*%
X132450000Y-117750000D02*
G75*
G02*
X130550000Y-117750000I-950000J0D01*
G01*
X130550000Y-117750000D02*
G75*
G02*
X132450000Y-117750000I950000J0D01*
G01*
%TO.C,X1*%
X125310000Y-91055000D02*
X121890000Y-91055000D01*
X121890000Y-91055000D02*
X121890000Y-95175000D01*
%TO.C,J5*%
X176377500Y-87700000D02*
X176377500Y-86590000D01*
X176377500Y-84910000D02*
X176377500Y-83800000D01*
X173127500Y-87700000D02*
X173127500Y-86590000D01*
X173127500Y-84910000D02*
X173127500Y-83800000D01*
X172577500Y-85750000D02*
X172077500Y-85500000D01*
X172077500Y-86000000D02*
X172577500Y-85750000D01*
X172077500Y-85500000D02*
X172077500Y-86000000D01*
%TO.C,U6*%
X125582189Y-87115000D02*
X125179138Y-87051360D01*
X125518549Y-86711949D01*
X125582189Y-87115000D01*
G36*
X125582189Y-87115000D02*
G01*
X125179138Y-87051360D01*
X125518549Y-86711949D01*
X125582189Y-87115000D01*
G37*
X135792811Y-87115000D02*
X135456935Y-86779124D01*
X135456935Y-87450876D02*
X135792811Y-87115000D01*
X131023376Y-91884435D02*
X130687500Y-92220311D01*
X130687500Y-92220311D02*
X130351624Y-91884435D01*
X130687500Y-82009689D02*
X131023376Y-82345565D01*
X130351624Y-82345565D02*
X130687500Y-82009689D01*
X125918065Y-87450876D02*
X125751895Y-87284706D01*
X125918065Y-86779124D02*
X125794321Y-86902868D01*
%TO.C,U7*%
X153470000Y-69940000D02*
X153230000Y-69610000D01*
X153710000Y-69610000D01*
X153470000Y-69940000D01*
G36*
X153470000Y-69940000D02*
G01*
X153230000Y-69610000D01*
X153710000Y-69610000D01*
X153470000Y-69940000D01*
G37*
X158510000Y-76660000D02*
X158510000Y-75400000D01*
X158510000Y-69840000D02*
X158510000Y-71100000D01*
X154750000Y-76660000D02*
X158510000Y-76660000D01*
X154750000Y-69840000D02*
X158510000Y-69840000D01*
D14*
%TO.C,G\u002A\u002A\u002A*%
G36*
X149051615Y-130410600D02*
G01*
X149140816Y-130419913D01*
X149195449Y-130451150D01*
X149229059Y-130517171D01*
X149255192Y-130630836D01*
X149278163Y-130755794D01*
X149325159Y-131009900D01*
X149517530Y-131088425D01*
X149629046Y-131131303D01*
X149715625Y-131159825D01*
X149749524Y-131166950D01*
X149795849Y-131147208D01*
X149883138Y-131094862D01*
X149994479Y-131020229D01*
X150022401Y-131000503D01*
X150255654Y-130834057D01*
X150450309Y-131026294D01*
X150543743Y-131123217D01*
X150612673Y-131203584D01*
X150644239Y-131252206D01*
X150644964Y-131256174D01*
X150626078Y-131302257D01*
X150576063Y-131390242D01*
X150504887Y-131502846D01*
X150488442Y-131527618D01*
X150331919Y-131761418D01*
X150430986Y-131982679D01*
X150530054Y-132203941D01*
X150812686Y-132254426D01*
X151095319Y-132304910D01*
X151105714Y-132596356D01*
X151110723Y-132739135D01*
X151104873Y-132830437D01*
X151075381Y-132884277D01*
X151009464Y-132914672D01*
X150894339Y-132935635D01*
X150781695Y-132951615D01*
X150657297Y-132976068D01*
X150572914Y-133016685D01*
X150510571Y-133089431D01*
X150452292Y-133210269D01*
X150431059Y-133262983D01*
X150350495Y-133467526D01*
X150497729Y-133684339D01*
X150569882Y-133795184D01*
X150622376Y-133884592D01*
X150644780Y-133934679D01*
X150644964Y-133936735D01*
X150621457Y-133978106D01*
X150559347Y-134054776D01*
X150471250Y-134151359D01*
X150455815Y-134167395D01*
X150266666Y-134362472D01*
X150027185Y-134203002D01*
X149906915Y-134124345D01*
X149828413Y-134080763D01*
X149773784Y-134066932D01*
X149725127Y-134077528D01*
X149679371Y-134099552D01*
X149571038Y-134155574D01*
X149371315Y-133685648D01*
X149171592Y-133215722D01*
X149328302Y-133065024D01*
X149468743Y-132889559D01*
X149540649Y-132703447D01*
X149543462Y-132513620D01*
X149476626Y-132327009D01*
X149396734Y-132212102D01*
X149259662Y-132085784D01*
X149100899Y-132016436D01*
X148904706Y-131995602D01*
X148707481Y-132026342D01*
X148544366Y-132110606D01*
X148419345Y-132236463D01*
X148336403Y-132391979D01*
X148299525Y-132565222D01*
X148312694Y-132744259D01*
X148379896Y-132917158D01*
X148505116Y-133071987D01*
X148536319Y-133098801D01*
X148664371Y-133202552D01*
X148482184Y-133649867D01*
X148413553Y-133817273D01*
X148353862Y-133960810D01*
X148308721Y-134067145D01*
X148283735Y-134122941D01*
X148281500Y-134127111D01*
X148240965Y-134132392D01*
X148165560Y-134106358D01*
X148151917Y-134099595D01*
X148091633Y-134071536D01*
X148042264Y-134065785D01*
X147984209Y-134087861D01*
X147897867Y-134143280D01*
X147831466Y-134189798D01*
X147724052Y-134262765D01*
X147638836Y-134315539D01*
X147593269Y-134337356D01*
X147592090Y-134337446D01*
X147550733Y-134313315D01*
X147479708Y-134251269D01*
X147393848Y-134166835D01*
X147307987Y-134075534D01*
X147236958Y-133992893D01*
X147195595Y-133934433D01*
X147191041Y-133917727D01*
X147216688Y-133874255D01*
X147271298Y-133789582D01*
X147343106Y-133681949D01*
X147343894Y-133680785D01*
X147483532Y-133474478D01*
X147401557Y-133266459D01*
X147339294Y-133123826D01*
X147279128Y-133035050D01*
X147204346Y-132984428D01*
X147098236Y-132956259D01*
X147065826Y-132951031D01*
X146942768Y-132931488D01*
X146831700Y-132912257D01*
X146815544Y-132909226D01*
X146715060Y-132889968D01*
X146725473Y-132597829D01*
X146735886Y-132305690D01*
X147006099Y-132256479D01*
X147138797Y-132229821D01*
X147242642Y-132204322D01*
X147298169Y-132184859D01*
X147301407Y-132182499D01*
X147328346Y-132138454D01*
X147372985Y-132049039D01*
X147416490Y-131954083D01*
X147506478Y-131750436D01*
X147346748Y-131521742D01*
X147270585Y-131408232D01*
X147214043Y-131315462D01*
X147187446Y-131260584D01*
X147186629Y-131255790D01*
X147210480Y-131214171D01*
X147273884Y-131138225D01*
X147364014Y-131043107D01*
X147380896Y-131026294D01*
X147575551Y-130834057D01*
X147808804Y-131000503D01*
X147922990Y-131078836D01*
X148016693Y-131137352D01*
X148073183Y-131165756D01*
X148079312Y-131166950D01*
X148131039Y-131154838D01*
X148226479Y-131123491D01*
X148316002Y-131090630D01*
X148435640Y-131038428D01*
X148501822Y-130989338D01*
X148531286Y-130930196D01*
X148533602Y-130919495D01*
X148550666Y-130831022D01*
X148575045Y-130705314D01*
X148592125Y-130617517D01*
X148632484Y-130410354D01*
X148914302Y-130410354D01*
X149051615Y-130410600D01*
G37*
G36*
X153815668Y-131275121D02*
G01*
X153924075Y-131338520D01*
X153994105Y-131430347D01*
X154032336Y-131564327D01*
X154045349Y-131754182D01*
X154045350Y-131754250D01*
X154042605Y-131943055D01*
X154026189Y-132075224D01*
X153991592Y-132165589D01*
X153934304Y-132228987D01*
X153892449Y-132257171D01*
X153745923Y-132313085D01*
X153612529Y-132303875D01*
X153543127Y-132266961D01*
X153478834Y-132225490D01*
X153446170Y-132212918D01*
X153435546Y-132246105D01*
X153426886Y-132337187D01*
X153421115Y-132472012D01*
X153419149Y-132627024D01*
X153419149Y-133042275D01*
X153525445Y-132987307D01*
X153669106Y-132937766D01*
X153804626Y-132951147D01*
X153887629Y-132986440D01*
X153961565Y-133044203D01*
X154013752Y-133135500D01*
X154046926Y-133270334D01*
X154063821Y-133458703D01*
X154067458Y-133643900D01*
X154067659Y-133977162D01*
X153959574Y-133977162D01*
X153851489Y-133977162D01*
X153851489Y-133599695D01*
X153850530Y-133430119D01*
X153845678Y-133317698D01*
X153833974Y-133247537D01*
X153812457Y-133204741D01*
X153778165Y-133174415D01*
X153765233Y-133165711D01*
X153658480Y-133129604D01*
X153549425Y-133143873D01*
X153466377Y-133203362D01*
X153454227Y-133222342D01*
X153438904Y-133285809D01*
X153426975Y-133401516D01*
X153420134Y-133549669D01*
X153419149Y-133632524D01*
X153418534Y-133791742D01*
X153414347Y-133892353D01*
X153403071Y-133947810D01*
X153381193Y-133971562D01*
X153345195Y-133977061D01*
X153329078Y-133977162D01*
X153239007Y-133977162D01*
X153239007Y-132626099D01*
X153239007Y-131782590D01*
X153419149Y-131782590D01*
X153441072Y-131944745D01*
X153493820Y-132044786D01*
X153582193Y-132122911D01*
X153676391Y-132131331D01*
X153771416Y-132083630D01*
X153816306Y-132041712D01*
X153840661Y-131982064D01*
X153850319Y-131883859D01*
X153851489Y-131797977D01*
X153840490Y-131632309D01*
X153803470Y-131526326D01*
X153734396Y-131470482D01*
X153634788Y-131455177D01*
X153526668Y-131486418D01*
X153454640Y-131577561D01*
X153421254Y-131724736D01*
X153419149Y-131782590D01*
X153239007Y-131782590D01*
X153239007Y-131275035D01*
X153326075Y-131275035D01*
X153397879Y-131289307D01*
X153426221Y-131314266D01*
X153465848Y-131328205D01*
X153558570Y-131296514D01*
X153570754Y-131290811D01*
X153667898Y-131252425D01*
X153743405Y-131250895D01*
X153815668Y-131275121D01*
G37*
G36*
X157154558Y-132940085D02*
G01*
X157193946Y-132975434D01*
X157224799Y-133056550D01*
X157237604Y-133103474D01*
X157293764Y-133309780D01*
X157343022Y-133475080D01*
X157382570Y-133590719D01*
X157409599Y-133648044D01*
X157415870Y-133652741D01*
X157433979Y-133620442D01*
X157466875Y-133533280D01*
X157509425Y-133405642D01*
X157544397Y-133292623D01*
X157596172Y-133127330D01*
X157636247Y-133020392D01*
X157670400Y-132960262D01*
X157704408Y-132935391D01*
X157724539Y-132932555D01*
X157762993Y-132944166D01*
X157798118Y-132987159D01*
X157836354Y-133073567D01*
X157884142Y-133215427D01*
X157895673Y-133252353D01*
X157939181Y-133396955D01*
X157972961Y-133517073D01*
X157992150Y-133595016D01*
X157994751Y-133612587D01*
X158016189Y-133650997D01*
X158025531Y-133652907D01*
X158048537Y-133620494D01*
X158084103Y-133533357D01*
X158127210Y-133406653D01*
X158172833Y-133255537D01*
X158215953Y-133095163D01*
X158231469Y-133031418D01*
X158264701Y-132957286D01*
X158332478Y-132933084D01*
X158357218Y-132932340D01*
X158459674Y-132932340D01*
X158405463Y-133103474D01*
X158367694Y-133222638D01*
X158318043Y-133379210D01*
X158266424Y-133541918D01*
X158259786Y-133562836D01*
X158215093Y-133704067D01*
X158177296Y-133824214D01*
X158152944Y-133902441D01*
X158149391Y-133914113D01*
X158100944Y-133965336D01*
X158046139Y-133977162D01*
X158006064Y-133970465D01*
X157972771Y-133942284D01*
X157939676Y-133880484D01*
X157900196Y-133772934D01*
X157850638Y-133616879D01*
X157803542Y-133468574D01*
X157763327Y-133349911D01*
X157734999Y-133275192D01*
X157724539Y-133256595D01*
X157708482Y-133288726D01*
X157676764Y-133375584D01*
X157634392Y-133502868D01*
X157598439Y-133616879D01*
X157546757Y-133779279D01*
X157507731Y-133884373D01*
X157474776Y-133944294D01*
X157441309Y-133971176D01*
X157402938Y-133977162D01*
X157327009Y-133952437D01*
X157299687Y-133914113D01*
X157280341Y-133851572D01*
X157245693Y-133741201D01*
X157202291Y-133603834D01*
X157189291Y-133562836D01*
X157138172Y-133401712D01*
X157087669Y-133242464D01*
X157047698Y-133116365D01*
X157043615Y-133103474D01*
X156989404Y-132932340D01*
X157091083Y-132932340D01*
X157154558Y-132940085D01*
G37*
G36*
X159008632Y-132943760D02*
G01*
X159150314Y-132980825D01*
X159254532Y-133047439D01*
X159255887Y-133048878D01*
X159287054Y-133090070D01*
X159307764Y-133143656D01*
X159320079Y-133224066D01*
X159326064Y-133345728D01*
X159327783Y-133523074D01*
X159327801Y-133551615D01*
X159327801Y-133977162D01*
X159240733Y-133977162D01*
X159167463Y-133960668D01*
X159137151Y-133932127D01*
X159113093Y-133905159D01*
X159072900Y-133932127D01*
X159010292Y-133958845D01*
X158906319Y-133974988D01*
X158850506Y-133977162D01*
X158729329Y-133968691D01*
X158647591Y-133935687D01*
X158587499Y-133881830D01*
X158513611Y-133757190D01*
X158511449Y-133692794D01*
X158689122Y-133692794D01*
X158698666Y-133727166D01*
X158773644Y-133787363D01*
X158884857Y-133812753D01*
X159004472Y-133801507D01*
X159102422Y-133753684D01*
X159138276Y-133690350D01*
X159147659Y-133630481D01*
X159142403Y-133582758D01*
X159115329Y-133557105D01*
X159049477Y-133546725D01*
X158933917Y-133544822D01*
X158810822Y-133548380D01*
X158741283Y-133562756D01*
X158706993Y-133593502D01*
X158697407Y-133616556D01*
X158689122Y-133692794D01*
X158511449Y-133692794D01*
X158509189Y-133625457D01*
X158574456Y-133498544D01*
X158580212Y-133491779D01*
X158639128Y-133438152D01*
X158714962Y-133404937D01*
X158830010Y-133384207D01*
X158904468Y-133376475D01*
X159034191Y-133362304D01*
X159107558Y-133345316D01*
X159140177Y-133319101D01*
X159147659Y-133277247D01*
X159147659Y-133276605D01*
X159128655Y-133193378D01*
X159104425Y-133155716D01*
X159033915Y-133124320D01*
X158927275Y-133113560D01*
X158817704Y-133124438D01*
X158757474Y-133145231D01*
X158674382Y-133152518D01*
X158626375Y-133126865D01*
X158579284Y-133082735D01*
X158590445Y-133043337D01*
X158611368Y-133020850D01*
X158713903Y-132962675D01*
X158854743Y-132937344D01*
X159008632Y-132943760D01*
G37*
G36*
X154816288Y-132957687D02*
G01*
X154936639Y-133007251D01*
X155011454Y-133081616D01*
X155018045Y-133096081D01*
X155027016Y-133154162D01*
X155034274Y-133267196D01*
X155039002Y-133418085D01*
X155040425Y-133565783D01*
X155040425Y-133977162D01*
X154950354Y-133977162D01*
X154882689Y-133962386D01*
X154860283Y-133933928D01*
X154849649Y-133908863D01*
X154817049Y-133933928D01*
X154757980Y-133958887D01*
X154655386Y-133974506D01*
X154589145Y-133977162D01*
X154463529Y-133969293D01*
X154380736Y-133939625D01*
X154323849Y-133891340D01*
X154255765Y-133770418D01*
X154250195Y-133695904D01*
X154420835Y-133695904D01*
X154471560Y-133771977D01*
X154536028Y-133809383D01*
X154621596Y-133820118D01*
X154722904Y-133806159D01*
X154805685Y-133774241D01*
X154830919Y-133751443D01*
X154854232Y-133680690D01*
X154859732Y-133625886D01*
X154853491Y-133579219D01*
X154822309Y-133554976D01*
X154748725Y-133545948D01*
X154663395Y-133544822D01*
X154539787Y-133550543D01*
X154468409Y-133571393D01*
X154430607Y-133611902D01*
X154420835Y-133695904D01*
X154250195Y-133695904D01*
X154245281Y-133630154D01*
X154293890Y-133497862D01*
X154384563Y-133423257D01*
X154539293Y-133379072D01*
X154743191Y-133365077D01*
X154825032Y-133356275D01*
X154856687Y-133320739D01*
X154860283Y-133281815D01*
X154842486Y-133197119D01*
X154817049Y-133155716D01*
X154748809Y-133125219D01*
X154646527Y-133113682D01*
X154544514Y-133121685D01*
X154477083Y-133149810D01*
X154476944Y-133149948D01*
X154424956Y-133161002D01*
X154354455Y-133118567D01*
X154269432Y-133049720D01*
X154382927Y-132991030D01*
X154519341Y-132946253D01*
X154670492Y-132936247D01*
X154816288Y-132957687D01*
G37*
G36*
X157293622Y-131271594D02*
G01*
X157424101Y-131312532D01*
X157493694Y-131350547D01*
X157512564Y-131394723D01*
X157493159Y-131449937D01*
X157463319Y-131495768D01*
X157426003Y-131507457D01*
X157357213Y-131487441D01*
X157309307Y-131468625D01*
X157167912Y-131432537D01*
X157054013Y-131443308D01*
X156981050Y-131498639D01*
X156968019Y-131526995D01*
X156956850Y-131593983D01*
X156982428Y-131637925D01*
X157056148Y-131666615D01*
X157189406Y-131687849D01*
X157206065Y-131689818D01*
X157377636Y-131722372D01*
X157487411Y-131777614D01*
X157544110Y-131863423D01*
X157556454Y-131987679D01*
X157555379Y-132005408D01*
X157536105Y-132115209D01*
X157485082Y-132189426D01*
X157421977Y-132237617D01*
X157282611Y-132297047D01*
X157117836Y-132319082D01*
X156965446Y-132299221D01*
X156949929Y-132293862D01*
X156883727Y-132259691D01*
X156798060Y-132205024D01*
X156794683Y-132202668D01*
X156729299Y-132152328D01*
X156717680Y-132117674D01*
X156753357Y-132074845D01*
X156758654Y-132069785D01*
X156807534Y-132031186D01*
X156853360Y-132031207D01*
X156926834Y-132070528D01*
X156931915Y-132073617D01*
X157051874Y-132123210D01*
X157173366Y-132136109D01*
X157279565Y-132116029D01*
X157353647Y-132066683D01*
X157378786Y-131991788D01*
X157376725Y-131975406D01*
X157352179Y-131932328D01*
X157288236Y-131899970D01*
X157170141Y-131871550D01*
X157137858Y-131865587D01*
X156958025Y-131819834D01*
X156841819Y-131755476D01*
X156782003Y-131666972D01*
X156769787Y-131583708D01*
X156801246Y-131442668D01*
X156887368Y-131335408D01*
X157015772Y-131269305D01*
X157174075Y-131251738D01*
X157293622Y-131271594D01*
G37*
G36*
X161957839Y-131257013D02*
G01*
X162054005Y-131298366D01*
X162154740Y-131370532D01*
X162174159Y-131388780D01*
X162243206Y-131471161D01*
X162274833Y-131557109D01*
X162282127Y-131674118D01*
X162282127Y-131851489D01*
X161957872Y-131851489D01*
X161783817Y-131855983D01*
X161676458Y-131872267D01*
X161630835Y-131904545D01*
X161641986Y-131957017D01*
X161704953Y-132033887D01*
X161722050Y-132051282D01*
X161805152Y-132116741D01*
X161891725Y-132136138D01*
X162006484Y-132112819D01*
X162054747Y-132096321D01*
X162143650Y-132071800D01*
X162199721Y-132083372D01*
X162231395Y-132109570D01*
X162261351Y-132149487D01*
X162247936Y-132184150D01*
X162181967Y-132231677D01*
X162163738Y-132243036D01*
X162008673Y-132304176D01*
X161841336Y-132314434D01*
X161689661Y-132272926D01*
X161664428Y-132258811D01*
X161558472Y-132153820D01*
X161487453Y-132003657D01*
X161455188Y-131828139D01*
X161463556Y-131681139D01*
X161646014Y-131681139D01*
X161679276Y-131698522D01*
X161760937Y-131706060D01*
X161863946Y-131707375D01*
X161992217Y-131705074D01*
X162064183Y-131695116D01*
X162095532Y-131672925D01*
X162101986Y-131637892D01*
X162069221Y-131543350D01*
X161983674Y-131465226D01*
X161919866Y-131436535D01*
X161845835Y-131438127D01*
X161760158Y-131470344D01*
X161692006Y-131518656D01*
X161669645Y-131561146D01*
X161657794Y-131620675D01*
X161647776Y-131650386D01*
X161646014Y-131681139D01*
X161463556Y-131681139D01*
X161465494Y-131647085D01*
X161516581Y-131491205D01*
X161608848Y-131372258D01*
X161737709Y-131288123D01*
X161879262Y-131251484D01*
X161957839Y-131257013D01*
G37*
G36*
X160843984Y-132956413D02*
G01*
X160972512Y-133012450D01*
X160994547Y-133029878D01*
X161082698Y-133145353D01*
X161144476Y-133296643D01*
X161165248Y-133435580D01*
X161165248Y-133544822D01*
X160822978Y-133544822D01*
X160675900Y-133546415D01*
X160560481Y-133550698D01*
X160492370Y-133556924D01*
X160480709Y-133561141D01*
X160494044Y-133602427D01*
X160521703Y-133667433D01*
X160600101Y-133761202D01*
X160714984Y-133806405D01*
X160844206Y-133796367D01*
X160889339Y-133778261D01*
X160968419Y-133744613D01*
X161016587Y-133748535D01*
X161055149Y-133780603D01*
X161088364Y-133825720D01*
X161072837Y-133865556D01*
X161026150Y-133907430D01*
X160924802Y-133954605D01*
X160786420Y-133976494D01*
X160641803Y-133972116D01*
X160521752Y-133940492D01*
X160493422Y-133924367D01*
X160393611Y-133815975D01*
X160331759Y-133669234D01*
X160306863Y-133501474D01*
X160316996Y-133344297D01*
X160480709Y-133344297D01*
X160513578Y-133354679D01*
X160599577Y-133362020D01*
X160714893Y-133364680D01*
X160843704Y-133361700D01*
X160915517Y-133350203D01*
X160945243Y-133326357D01*
X160949078Y-133304467D01*
X160917473Y-133213782D01*
X160838439Y-133146052D01*
X160735646Y-133112529D01*
X160632766Y-133124466D01*
X160603195Y-133140054D01*
X160558726Y-133189273D01*
X160511337Y-133265169D01*
X160482522Y-133331900D01*
X160480709Y-133344297D01*
X160316996Y-133344297D01*
X160317916Y-133330028D01*
X160363912Y-133172226D01*
X160443846Y-133045401D01*
X160548796Y-132970012D01*
X160691983Y-132940822D01*
X160843984Y-132956413D01*
G37*
G36*
X154805600Y-131281850D02*
G01*
X154931701Y-131369079D01*
X155022398Y-131506266D01*
X155064494Y-131665765D01*
X155086490Y-131851489D01*
X154757217Y-131851489D01*
X154602285Y-131852225D01*
X154505653Y-131856885D01*
X154453561Y-131869148D01*
X154432252Y-131892691D01*
X154427968Y-131931192D01*
X154427943Y-131939517D01*
X154459089Y-132034849D01*
X154539170Y-132102285D01*
X154648154Y-132134795D01*
X154766007Y-132125349D01*
X154847718Y-132086816D01*
X154909885Y-132054023D01*
X154957279Y-132073746D01*
X154985744Y-132102982D01*
X155021679Y-132150005D01*
X155014821Y-132184619D01*
X154956608Y-132227732D01*
X154927244Y-132245817D01*
X154759301Y-132309372D01*
X154584525Y-132306884D01*
X154439249Y-132249594D01*
X154332905Y-132165539D01*
X154268890Y-132060104D01*
X154238941Y-131915100D01*
X154233858Y-131797446D01*
X154246679Y-131663227D01*
X154431367Y-131663227D01*
X154448617Y-131692752D01*
X154502375Y-131704881D01*
X154608709Y-131707357D01*
X154639594Y-131707375D01*
X154756956Y-131703224D01*
X154841787Y-131692447D01*
X154871941Y-131680354D01*
X154873746Y-131615897D01*
X154833981Y-131535941D01*
X154768700Y-131468254D01*
X154739320Y-131450961D01*
X154629244Y-131433788D01*
X154525977Y-131470198D01*
X154453391Y-131547846D01*
X154434557Y-131608563D01*
X154431367Y-131663227D01*
X154246679Y-131663227D01*
X154254190Y-131584593D01*
X154319346Y-131425890D01*
X154431193Y-131317633D01*
X154491653Y-131286687D01*
X154655211Y-131251933D01*
X154805600Y-131281850D01*
G37*
G36*
X156841844Y-133238581D02*
G01*
X156841844Y-133977162D01*
X156751773Y-133977162D01*
X156678611Y-133957824D01*
X156661702Y-133921077D01*
X156655189Y-133885132D01*
X156622898Y-133893592D01*
X156581629Y-133921077D01*
X156456415Y-133971105D01*
X156314805Y-133972594D01*
X156186763Y-133927545D01*
X156140539Y-133891615D01*
X156074863Y-133784109D01*
X156033042Y-133631322D01*
X156016477Y-133456442D01*
X156019551Y-133403495D01*
X156228669Y-133403495D01*
X156228976Y-133544265D01*
X156254485Y-133668095D01*
X156290570Y-133732882D01*
X156381456Y-133786348D01*
X156487794Y-133786126D01*
X156581550Y-133735987D01*
X156617368Y-133688935D01*
X156647585Y-133585771D01*
X156654703Y-133455115D01*
X156641013Y-133322668D01*
X156608803Y-133214134D01*
X156570340Y-133161125D01*
X156460399Y-133115707D01*
X156354523Y-133142146D01*
X156301418Y-133184538D01*
X156253003Y-133274137D01*
X156228669Y-133403495D01*
X156019551Y-133403495D01*
X156026567Y-133282658D01*
X156064714Y-133133156D01*
X156091516Y-133079805D01*
X156191016Y-132982786D01*
X156324461Y-132939983D01*
X156474687Y-132954820D01*
X156555406Y-132987307D01*
X156661702Y-133042275D01*
X156661702Y-132771137D01*
X156662815Y-132633409D01*
X156669511Y-132552582D01*
X156686822Y-132513506D01*
X156719783Y-132501026D01*
X156751773Y-132499999D01*
X156841844Y-132499999D01*
X156841844Y-133238581D01*
G37*
G36*
X158194855Y-131251570D02*
G01*
X158287372Y-131288180D01*
X158304005Y-131296225D01*
X158443537Y-131395113D01*
X158528608Y-131532322D01*
X158562336Y-131714410D01*
X158560176Y-131835419D01*
X158536959Y-132010000D01*
X158490880Y-132132219D01*
X158413000Y-132220415D01*
X158352438Y-132261618D01*
X158193867Y-132318298D01*
X158035904Y-132304155D01*
X157885921Y-132220103D01*
X157864043Y-132201042D01*
X157798670Y-132137864D01*
X157759935Y-132082527D01*
X157740707Y-132013444D01*
X157733852Y-131909026D01*
X157732830Y-131823004D01*
X157904128Y-131823004D01*
X157922737Y-131923702D01*
X157982678Y-132056385D01*
X158070035Y-132126451D01*
X158177715Y-132130679D01*
X158274962Y-132083630D01*
X158318196Y-132044038D01*
X158342498Y-131988377D01*
X158353036Y-131896954D01*
X158355035Y-131778657D01*
X158351872Y-131641777D01*
X158339499Y-131559032D01*
X158313593Y-131512661D01*
X158285347Y-131492473D01*
X158157018Y-131454540D01*
X158046586Y-131478313D01*
X157962197Y-131554107D01*
X157911996Y-131672233D01*
X157904128Y-131823004D01*
X157732830Y-131823004D01*
X157732595Y-131803181D01*
X157742656Y-131606635D01*
X157780658Y-131465741D01*
X157853906Y-131367112D01*
X157969703Y-131297364D01*
X158019042Y-131278211D01*
X158118698Y-131249087D01*
X158194855Y-131251570D01*
G37*
G36*
X152777880Y-131287324D02*
G01*
X152901055Y-131375555D01*
X152966010Y-131472413D01*
X153008230Y-131619759D01*
X153020706Y-131799083D01*
X153003129Y-131976591D01*
X152971632Y-132084437D01*
X152884302Y-132207207D01*
X152753683Y-132287254D01*
X152599174Y-132317389D01*
X152440174Y-132290421D01*
X152428368Y-132285798D01*
X152331433Y-132232272D01*
X152267305Y-132156818D01*
X152230147Y-132045566D01*
X152214121Y-131884647D01*
X152212372Y-131782401D01*
X152374326Y-131782401D01*
X152378649Y-131906666D01*
X152397154Y-131983836D01*
X152438145Y-132038633D01*
X152469256Y-132065044D01*
X152568864Y-132126725D01*
X152650463Y-132128073D01*
X152737091Y-132067975D01*
X152754261Y-132051282D01*
X152811735Y-131976026D01*
X152837820Y-131883134D01*
X152842695Y-131781069D01*
X152820388Y-131618650D01*
X152755050Y-131510219D01*
X152649056Y-131458994D01*
X152602340Y-131455177D01*
X152488409Y-131477528D01*
X152415776Y-131548850D01*
X152379979Y-131675545D01*
X152374326Y-131782401D01*
X152212372Y-131782401D01*
X152212198Y-131772234D01*
X152213260Y-131617568D01*
X152219560Y-131517224D01*
X152235767Y-131453470D01*
X152266553Y-131408573D01*
X152316586Y-131364801D01*
X152320283Y-131361838D01*
X152472023Y-131277816D01*
X152629712Y-131253861D01*
X152777880Y-131287324D01*
G37*
G36*
X155889078Y-131282823D02*
G01*
X155998280Y-131364933D01*
X156035112Y-131405975D01*
X156059762Y-131451349D01*
X156074664Y-131515631D01*
X156082251Y-131613394D01*
X156084955Y-131759214D01*
X156085248Y-131885879D01*
X156085248Y-132319857D01*
X155995177Y-132319857D01*
X155905106Y-132319857D01*
X155905106Y-131947143D01*
X155900222Y-131746521D01*
X155882492Y-131607273D01*
X155847300Y-131519190D01*
X155790029Y-131472059D01*
X155706063Y-131455671D01*
X155682676Y-131455177D01*
X155598234Y-131468021D01*
X155538656Y-131513110D01*
X155499553Y-131600277D01*
X155476541Y-131739356D01*
X155465234Y-131940178D01*
X155465156Y-131942852D01*
X155459474Y-132106501D01*
X155451636Y-132211679D01*
X155438291Y-132271961D01*
X155416087Y-132300923D01*
X155381673Y-132312140D01*
X155373688Y-132313356D01*
X155342187Y-132315933D01*
X155320131Y-132306110D01*
X155305836Y-132273227D01*
X155297619Y-132206625D01*
X155293797Y-132095646D01*
X155292688Y-131929629D01*
X155292624Y-131799952D01*
X155292624Y-131275035D01*
X155379692Y-131275035D01*
X155451259Y-131288669D01*
X155479265Y-131312548D01*
X155517391Y-131324851D01*
X155602075Y-131294969D01*
X155610057Y-131291052D01*
X155754179Y-131251519D01*
X155889078Y-131282823D01*
G37*
G36*
X161170628Y-131285638D02*
G01*
X161273333Y-131346156D01*
X161332162Y-131397946D01*
X161337563Y-131435198D01*
X161304558Y-131474989D01*
X161241518Y-131514189D01*
X161171820Y-131494722D01*
X161034148Y-131451902D01*
X160907158Y-131466617D01*
X160807155Y-131532741D01*
X160750443Y-131644150D01*
X160748462Y-131653770D01*
X160736379Y-131840337D01*
X160776959Y-131983381D01*
X160868929Y-132079034D01*
X160892814Y-132091869D01*
X160980595Y-132127067D01*
X161047832Y-132125717D01*
X161130483Y-132090443D01*
X161223907Y-132054760D01*
X161284050Y-132063172D01*
X161296745Y-132072139D01*
X161339528Y-132124776D01*
X161325093Y-132175111D01*
X161248622Y-132235535D01*
X161228298Y-132248196D01*
X161062298Y-132310870D01*
X160888800Y-132302151D01*
X160780500Y-132261733D01*
X160661267Y-132163830D01*
X160584728Y-132011669D01*
X160553513Y-131810881D01*
X160552900Y-131773987D01*
X160580230Y-131571651D01*
X160660406Y-131414373D01*
X160791173Y-131306111D01*
X160829592Y-131287964D01*
X161002779Y-131251727D01*
X161170628Y-131285638D01*
G37*
G36*
X158967517Y-131635318D02*
G01*
X158969318Y-131805344D01*
X158976491Y-131919293D01*
X158991691Y-131993092D01*
X159017571Y-132042669D01*
X159039574Y-132067659D01*
X159138461Y-132130953D01*
X159239087Y-132122615D01*
X159321008Y-132066255D01*
X159357485Y-132025385D01*
X159380662Y-131974202D01*
X159393483Y-131896565D01*
X159398890Y-131776334D01*
X159399858Y-131633915D01*
X159400412Y-131470796D01*
X159404278Y-131366552D01*
X159414766Y-131308002D01*
X159435183Y-131281964D01*
X159468838Y-131275258D01*
X159489929Y-131275035D01*
X159580000Y-131275035D01*
X159580000Y-131797446D01*
X159580000Y-132319857D01*
X159489929Y-132319857D01*
X159417487Y-132301066D01*
X159399858Y-132265815D01*
X159384822Y-132218953D01*
X159335262Y-132227519D01*
X159275880Y-132266961D01*
X159156712Y-132315315D01*
X159023676Y-132299672D01*
X158898225Y-132226584D01*
X158787376Y-132133310D01*
X158787376Y-131704172D01*
X158787376Y-131275035D01*
X158877447Y-131275035D01*
X158967517Y-131275035D01*
X158967517Y-131635318D01*
G37*
G36*
X159742513Y-132951131D02*
G01*
X159760142Y-132986382D01*
X159775177Y-133033244D01*
X159824737Y-133024678D01*
X159884120Y-132985236D01*
X159983337Y-132944235D01*
X160106284Y-132934805D01*
X160213319Y-132959087D01*
X160227078Y-132966720D01*
X160257798Y-132998879D01*
X160239272Y-133042727D01*
X160211251Y-133075619D01*
X160132064Y-133130851D01*
X160042554Y-133129219D01*
X159953982Y-133127903D01*
X159873567Y-133176991D01*
X159851217Y-133198273D01*
X159808599Y-133246187D01*
X159781832Y-133298027D01*
X159767266Y-133371220D01*
X159761255Y-133483189D01*
X159760142Y-133633255D01*
X159759524Y-133792270D01*
X159755319Y-133892694D01*
X159744001Y-133947991D01*
X159722042Y-133971627D01*
X159685918Y-133977066D01*
X159670071Y-133977162D01*
X159580000Y-133977162D01*
X159580000Y-133454751D01*
X159580000Y-132932340D01*
X159670071Y-132932340D01*
X159742513Y-132951131D01*
G37*
G36*
X155485167Y-132947521D02*
G01*
X155508794Y-132988425D01*
X155515307Y-133024370D01*
X155547598Y-133015910D01*
X155588867Y-132988425D01*
X155692747Y-132945785D01*
X155815944Y-132934197D01*
X155921190Y-132956278D01*
X155935448Y-132964091D01*
X155965312Y-132997942D01*
X155948766Y-133050885D01*
X155935448Y-133073545D01*
X155885205Y-133127703D01*
X155812218Y-133137089D01*
X155771374Y-133131041D01*
X155667158Y-133129563D01*
X155586673Y-133178789D01*
X155582225Y-133183164D01*
X155548011Y-133225953D01*
X155526288Y-133282277D01*
X155514343Y-133368161D01*
X155509463Y-133499631D01*
X155508794Y-133616879D01*
X155508794Y-133977162D01*
X155400709Y-133977162D01*
X155292624Y-133977162D01*
X155292624Y-133454751D01*
X155292624Y-132932340D01*
X155400709Y-132932340D01*
X155485167Y-132947521D01*
G37*
G36*
X160390524Y-131250019D02*
G01*
X160464337Y-131289795D01*
X160511394Y-131332103D01*
X160503708Y-131371228D01*
X160472095Y-131408761D01*
X160390148Y-131459451D01*
X160289258Y-131462797D01*
X160193482Y-131460701D01*
X160126420Y-131486909D01*
X160083261Y-131551035D01*
X160059195Y-131662690D01*
X160049410Y-131831489D01*
X160048368Y-131944133D01*
X160048368Y-132319857D01*
X159958298Y-132319857D01*
X159868227Y-132319857D01*
X159868227Y-131797446D01*
X159868227Y-131275035D01*
X159955295Y-131275035D01*
X160026955Y-131288921D01*
X160055094Y-131313225D01*
X160093406Y-131326936D01*
X160175189Y-131295433D01*
X160296064Y-131247129D01*
X160390524Y-131250019D01*
G37*
D13*
%TO.C,D1*%
X113260000Y-84610000D02*
X113260000Y-82690000D01*
X113260000Y-82690000D02*
X110400000Y-82690000D01*
X110400000Y-84610000D02*
X113260000Y-84610000D01*
%TO.C,U9*%
X165950000Y-84240000D02*
X165710000Y-83910000D01*
X166190000Y-83910000D01*
X165950000Y-84240000D01*
G36*
X165950000Y-84240000D02*
G01*
X165710000Y-83910000D01*
X166190000Y-83910000D01*
X165950000Y-84240000D01*
G37*
X167250000Y-87310000D02*
X168050000Y-87310000D01*
X167250000Y-87310000D02*
X166450000Y-87310000D01*
X167250000Y-84190000D02*
X168050000Y-84190000D01*
X167250000Y-84190000D02*
X166450000Y-84190000D01*
%TO.C,J3*%
X147330000Y-70725000D02*
X147330000Y-68805000D01*
X147330000Y-65090000D02*
X147330000Y-66795000D01*
X138170000Y-68805000D02*
X138170000Y-70725000D01*
X138170000Y-66795000D02*
X138170000Y-65090000D01*
X138170000Y-65090000D02*
X147330000Y-65090000D01*
D14*
%TO.C,G\u002A\u002A\u002A*%
G36*
X110322886Y-105965084D02*
G01*
X110462779Y-106088546D01*
X110598140Y-106287012D01*
X110725545Y-106554508D01*
X110841576Y-106885056D01*
X110935006Y-107238270D01*
X111032470Y-107662328D01*
X111149865Y-107662629D01*
X111233701Y-107662844D01*
X111604393Y-107705808D01*
X111963457Y-107826844D01*
X112299020Y-108017039D01*
X112599209Y-108267482D01*
X112852151Y-108569258D01*
X113045975Y-108913454D01*
X113107158Y-109069285D01*
X113207169Y-109481321D01*
X113221208Y-109889175D01*
X113149026Y-110296626D01*
X113000435Y-110686623D01*
X112799267Y-111012610D01*
X112533497Y-111298289D01*
X112218464Y-111533044D01*
X111869505Y-111706259D01*
X111501958Y-111807317D01*
X111355901Y-111824954D01*
X111030269Y-111849582D01*
X110938233Y-112245938D01*
X110823271Y-112674748D01*
X110697254Y-113018134D01*
X110559809Y-113276997D01*
X110457885Y-113407044D01*
X110312908Y-113530888D01*
X110180460Y-113573555D01*
X110044180Y-113535917D01*
X109907293Y-113436360D01*
X109787860Y-113309095D01*
X109684737Y-113146012D01*
X109592024Y-112933929D01*
X109503820Y-112659662D01*
X109426781Y-112362795D01*
X109374975Y-112163111D01*
X109324178Y-111994700D01*
X109280325Y-111875650D01*
X109250076Y-111824465D01*
X109174121Y-111739059D01*
X109094528Y-111584111D01*
X109018523Y-111376385D01*
X108954935Y-111139769D01*
X108928686Y-110976134D01*
X108906053Y-110743879D01*
X108887510Y-110461314D01*
X108873532Y-110146748D01*
X108864592Y-109818491D01*
X108863518Y-109717067D01*
X108993170Y-109717067D01*
X108998563Y-110046492D01*
X109010133Y-110364331D01*
X109027577Y-110651625D01*
X109050588Y-110889415D01*
X109077930Y-111054794D01*
X109130577Y-111262258D01*
X109180596Y-111426347D01*
X109223420Y-111534102D01*
X109254487Y-111572565D01*
X109259495Y-111570243D01*
X109263151Y-111521036D01*
X109254629Y-111410456D01*
X109236901Y-111270632D01*
X109209086Y-111020705D01*
X109187356Y-110704894D01*
X109172094Y-110344112D01*
X109163681Y-109959273D01*
X109162501Y-109571291D01*
X109164933Y-109431413D01*
X109301801Y-109431413D01*
X109303991Y-109856951D01*
X109315125Y-110293354D01*
X109334588Y-110715843D01*
X109361761Y-111099639D01*
X109393751Y-111402739D01*
X109460140Y-111832959D01*
X109541743Y-112230691D01*
X109635462Y-112586451D01*
X109738198Y-112890758D01*
X109846854Y-113134128D01*
X109958332Y-113307078D01*
X110041151Y-113384366D01*
X110152940Y-113429194D01*
X110257433Y-113405971D01*
X110361637Y-113309638D01*
X110472559Y-113135139D01*
X110523317Y-113036342D01*
X110606177Y-112845337D01*
X110687147Y-112620860D01*
X110758753Y-112388175D01*
X110813523Y-112172549D01*
X110843982Y-111999246D01*
X110847775Y-111939446D01*
X110832280Y-111866465D01*
X110768782Y-111839821D01*
X110716656Y-111837671D01*
X110608776Y-111816025D01*
X110525973Y-111736945D01*
X110500578Y-111697967D01*
X110418289Y-111513431D01*
X110347259Y-111256932D01*
X110289027Y-110942951D01*
X110245131Y-110585967D01*
X110228627Y-110358903D01*
X110358114Y-110358903D01*
X110388030Y-110630736D01*
X110414132Y-110826136D01*
X110450569Y-111049224D01*
X110479537Y-111202106D01*
X110531675Y-111407640D01*
X110591360Y-111565159D01*
X110652635Y-111662724D01*
X110709542Y-111688394D01*
X110719865Y-111683856D01*
X110786153Y-111600145D01*
X110849918Y-111436388D01*
X110909353Y-111199520D01*
X110962651Y-110896480D01*
X110999890Y-110608989D01*
X111028006Y-110358903D01*
X110693060Y-110358903D01*
X110358114Y-110358903D01*
X110228627Y-110358903D01*
X110217110Y-110200459D01*
X110206500Y-109800906D01*
X110214840Y-109401788D01*
X110223190Y-109271575D01*
X110325857Y-109271575D01*
X110325857Y-109752863D01*
X110325857Y-110234152D01*
X110693060Y-110227363D01*
X111068909Y-110220415D01*
X111811962Y-110206677D01*
X111938772Y-110064639D01*
X112043034Y-109891761D01*
X112067854Y-109710191D01*
X112016566Y-109537967D01*
X111892507Y-109393126D01*
X111804144Y-109336566D01*
X111728414Y-109309548D01*
X111614055Y-109290605D01*
X111448119Y-109278686D01*
X111217658Y-109272743D01*
X111002161Y-109271575D01*
X110325857Y-109271575D01*
X110223190Y-109271575D01*
X110230586Y-109156248D01*
X110232083Y-109141095D01*
X110369350Y-109141095D01*
X110698678Y-109141095D01*
X111002161Y-109141095D01*
X111028006Y-109141095D01*
X110999070Y-108891010D01*
X110957816Y-108594214D01*
X110907689Y-108329168D01*
X110851943Y-108107385D01*
X110793831Y-107940383D01*
X110736606Y-107839676D01*
X110694963Y-107814554D01*
X110642941Y-107855020D01*
X110585537Y-107965427D01*
X110527216Y-108129289D01*
X110472446Y-108330121D01*
X110425695Y-108551437D01*
X110391431Y-108776751D01*
X110374122Y-108989579D01*
X110373777Y-108999743D01*
X110369350Y-109141095D01*
X110232083Y-109141095D01*
X110273655Y-108720304D01*
X110324698Y-108366425D01*
X110385256Y-108089930D01*
X110456873Y-107886134D01*
X110514761Y-107792808D01*
X110895706Y-107792808D01*
X110954115Y-107934160D01*
X110987438Y-108040121D01*
X111027109Y-108203835D01*
X111066551Y-108397036D01*
X111082375Y-108485489D01*
X111113225Y-108679263D01*
X111137108Y-108853462D01*
X111150528Y-108981417D01*
X111152227Y-109018280D01*
X111155713Y-109084126D01*
X111179272Y-109120863D01*
X111242552Y-109136985D01*
X111365203Y-109140986D01*
X111436329Y-109141095D01*
X111616179Y-109151774D01*
X111785410Y-109179467D01*
X111880247Y-109207870D01*
X111989197Y-109247409D01*
X112061890Y-109245957D01*
X112140425Y-109200294D01*
X112159241Y-109186533D01*
X112257206Y-109133959D01*
X112306548Y-109144605D01*
X112300020Y-109205170D01*
X112230373Y-109302356D01*
X112225303Y-109307729D01*
X112154156Y-109397066D01*
X112143756Y-109465510D01*
X112161011Y-109506235D01*
X112184222Y-109601214D01*
X112188742Y-109754518D01*
X112182104Y-109860204D01*
X112171640Y-110016573D01*
X112179635Y-110113220D01*
X112210553Y-110176277D01*
X112241645Y-110208568D01*
X112300593Y-110282948D01*
X112328237Y-110356755D01*
X112315049Y-110399905D01*
X112303034Y-110402397D01*
X112255589Y-110379049D01*
X112170915Y-110322023D01*
X112159794Y-110313875D01*
X112075150Y-110259282D01*
X112004509Y-110249621D01*
X111905694Y-110281610D01*
X111880247Y-110292128D01*
X111748021Y-110328393D01*
X111572284Y-110352591D01*
X111436329Y-110358903D01*
X111284013Y-110360363D01*
X111199032Y-110370495D01*
X111161739Y-110397930D01*
X111152481Y-110451298D01*
X111152227Y-110483686D01*
X111142533Y-110613901D01*
X111116862Y-110800376D01*
X111080330Y-111014981D01*
X111038051Y-111229585D01*
X110995142Y-111416058D01*
X110961363Y-111533269D01*
X110901442Y-111707191D01*
X111152733Y-111707191D01*
X111533155Y-111664831D01*
X111900117Y-111542239D01*
X112242061Y-111346149D01*
X112547430Y-111083295D01*
X112804669Y-110760411D01*
X112820938Y-110735162D01*
X112947431Y-110469097D01*
X113030561Y-110152525D01*
X113067696Y-109811801D01*
X113056205Y-109473280D01*
X112993456Y-109163314D01*
X112981535Y-109126894D01*
X112816481Y-108772767D01*
X112585170Y-108459848D01*
X112299601Y-108196877D01*
X111971777Y-107992596D01*
X111613699Y-107855747D01*
X111237369Y-107795070D01*
X111149865Y-107792808D01*
X110895706Y-107792808D01*
X110514761Y-107792808D01*
X110541092Y-107750357D01*
X110639453Y-107677914D01*
X110694963Y-107667523D01*
X110722714Y-107662328D01*
X110859891Y-107662328D01*
X110834697Y-107449608D01*
X110809476Y-107313557D01*
X110762918Y-107126548D01*
X110703055Y-106919501D01*
X110670605Y-106818006D01*
X110564020Y-106540683D01*
X110449111Y-106320357D01*
X110331353Y-106164360D01*
X110216223Y-106080025D01*
X110114244Y-106072971D01*
X109996635Y-106152407D01*
X109880461Y-106310708D01*
X109768143Y-106539757D01*
X109662104Y-106831437D01*
X109564766Y-107177633D01*
X109478550Y-107570228D01*
X109405878Y-108001105D01*
X109349172Y-108462149D01*
X109326727Y-108712048D01*
X109309174Y-109041519D01*
X109301801Y-109431413D01*
X109164933Y-109431413D01*
X109168937Y-109201080D01*
X109183370Y-108869555D01*
X109190947Y-108759161D01*
X109210367Y-108523789D01*
X109229783Y-108316402D01*
X109247447Y-108153800D01*
X109261608Y-108052786D01*
X109266818Y-108030651D01*
X109267444Y-107975468D01*
X109250066Y-107966780D01*
X109209819Y-108008364D01*
X109162680Y-108126593D01*
X109111609Y-108311690D01*
X109059566Y-108553873D01*
X109039471Y-108662671D01*
X109017105Y-108848857D01*
X109002136Y-109099291D01*
X108994260Y-109395014D01*
X108993170Y-109717067D01*
X108863518Y-109717067D01*
X108861164Y-109494854D01*
X108863722Y-109194144D01*
X108872740Y-108934673D01*
X108888691Y-108734749D01*
X108892017Y-108708798D01*
X108937594Y-108453505D01*
X109000273Y-108206369D01*
X109073394Y-107987680D01*
X109150297Y-107817726D01*
X109214676Y-107725719D01*
X109250066Y-107674197D01*
X109277639Y-107634055D01*
X109336128Y-107484116D01*
X109394834Y-107263190D01*
X109409614Y-107197565D01*
X109504039Y-106841273D01*
X109618665Y-106531815D01*
X109748639Y-106277205D01*
X109889106Y-106085457D01*
X110035212Y-105964584D01*
X110114244Y-105941962D01*
X110181878Y-105922602D01*
X110322886Y-105965084D01*
G37*
G36*
X110134094Y-106458026D02*
G01*
X110147760Y-106507605D01*
X110133098Y-106606842D01*
X110089229Y-106769325D01*
X110067241Y-106842250D01*
X109930402Y-107364462D01*
X109827340Y-107931109D01*
X109756810Y-108552319D01*
X109717567Y-109238222D01*
X109708034Y-109765279D01*
X109720059Y-110485673D01*
X109763460Y-111138692D01*
X109839913Y-111738721D01*
X109951094Y-112300145D01*
X110045545Y-112660808D01*
X110090679Y-112826756D01*
X110121455Y-112958331D01*
X110133381Y-113035402D01*
X110131621Y-113046746D01*
X110077339Y-113055173D01*
X110016907Y-112984276D01*
X109952404Y-112841326D01*
X109885911Y-112633595D01*
X109819508Y-112368355D01*
X109755274Y-112052877D01*
X109695289Y-111694433D01*
X109648925Y-111359246D01*
X109626417Y-111136263D01*
X109606022Y-110852100D01*
X109588449Y-110527576D01*
X109574407Y-110183510D01*
X109564607Y-109840719D01*
X109559758Y-109520023D01*
X109560570Y-109242240D01*
X109567751Y-109028189D01*
X109568879Y-109010616D01*
X109597044Y-108679910D01*
X109636357Y-108336826D01*
X109684606Y-107992187D01*
X109739582Y-107656818D01*
X109799074Y-107341539D01*
X109860871Y-107057176D01*
X109922763Y-106814550D01*
X109982540Y-106624485D01*
X110037990Y-106497803D01*
X110086904Y-106445329D01*
X110092980Y-106444520D01*
X110134094Y-106458026D01*
G37*
G36*
X111581053Y-109462620D02*
G01*
X111640174Y-109480280D01*
X111751907Y-109566055D01*
X111829663Y-109675232D01*
X111848117Y-109749999D01*
X111811129Y-109859188D01*
X111719785Y-109964108D01*
X111603518Y-110037123D01*
X111523895Y-110054451D01*
X111390385Y-110015245D01*
X111288227Y-109913949D01*
X111240316Y-109775049D01*
X111239213Y-109749999D01*
X111240711Y-109743514D01*
X111380314Y-109743514D01*
X111406855Y-109838485D01*
X111466948Y-109897180D01*
X111538267Y-109917948D01*
X111612825Y-109873412D01*
X111631741Y-109855227D01*
X111692665Y-109752000D01*
X111674633Y-109658963D01*
X111581530Y-109595988D01*
X111581053Y-109595836D01*
X111477284Y-109596122D01*
X111407080Y-109654037D01*
X111380314Y-109743514D01*
X111240711Y-109743514D01*
X111268705Y-109622292D01*
X111326199Y-109532534D01*
X111430643Y-109466674D01*
X111523895Y-109445547D01*
X111581053Y-109462620D01*
G37*
G36*
X112408775Y-108552902D02*
G01*
X112502871Y-108663609D01*
X112604968Y-108809869D01*
X112700329Y-108970209D01*
X112774218Y-109123155D01*
X112785673Y-109152447D01*
X112835157Y-109341353D01*
X112861420Y-109563844D01*
X112866161Y-109802195D01*
X112851078Y-110038682D01*
X112817871Y-110255582D01*
X112768236Y-110435169D01*
X112703872Y-110559719D01*
X112646339Y-110606591D01*
X112577917Y-110615879D01*
X112558376Y-110568176D01*
X112587142Y-110457254D01*
X112624091Y-110365309D01*
X112724859Y-110026334D01*
X112746521Y-109676217D01*
X112691405Y-109331201D01*
X112561842Y-109007528D01*
X112393860Y-108760059D01*
X112321828Y-108654683D01*
X112286551Y-108563247D01*
X112292311Y-108505544D01*
X112337415Y-108499223D01*
X112408775Y-108552902D01*
G37*
G36*
X111088058Y-109419588D02*
G01*
X111089196Y-109494465D01*
X111060496Y-109594517D01*
X111027010Y-109726537D01*
X111041079Y-109846209D01*
X111060496Y-109905482D01*
X111092659Y-110028682D01*
X111082061Y-110088189D01*
X111033850Y-110077323D01*
X110974510Y-110017013D01*
X110907050Y-109872583D01*
X110895130Y-109700250D01*
X110938750Y-109539059D01*
X110974510Y-109482986D01*
X111048113Y-109413536D01*
X111088058Y-109419588D01*
G37*
G36*
X112504767Y-110737421D02*
G01*
X112509665Y-110742095D01*
X112530045Y-110794987D01*
X112487463Y-110868607D01*
X112458822Y-110900651D01*
X112368034Y-110973609D01*
X112305991Y-110975717D01*
X112283049Y-110906742D01*
X112312780Y-110838012D01*
X112371063Y-110771158D01*
X112448263Y-110720145D01*
X112504767Y-110737421D01*
G37*
G36*
X111548726Y-109689442D02*
G01*
X111576271Y-109741729D01*
X111564973Y-109794202D01*
X111514885Y-109817348D01*
X111466191Y-109784622D01*
X111456679Y-109749999D01*
X111487992Y-109693287D01*
X111497167Y-109686617D01*
X111548726Y-109689442D01*
G37*
D13*
%TO.C,U4*%
X128635000Y-113765000D02*
X128155000Y-113765000D01*
X128395000Y-113435000D01*
X128635000Y-113765000D01*
G36*
X128635000Y-113765000D02*
G01*
X128155000Y-113765000D01*
X128395000Y-113435000D01*
X128635000Y-113765000D01*
G37*
X126182500Y-113610000D02*
X127682500Y-113610000D01*
X126182500Y-113610000D02*
X124682500Y-113610000D01*
X126182500Y-110390000D02*
X127682500Y-110390000D01*
X126182500Y-110390000D02*
X124682500Y-110390000D01*
%TO.C,TP1*%
X134450000Y-110000000D02*
G75*
G02*
X132550000Y-110000000I-950000J0D01*
G01*
X132550000Y-110000000D02*
G75*
G02*
X134450000Y-110000000I950000J0D01*
G01*
%TO.C,D2*%
X113260000Y-81860000D02*
X113260000Y-79940000D01*
X113260000Y-79940000D02*
X110400000Y-79940000D01*
X110400000Y-81860000D02*
X113260000Y-81860000D01*
%TO.C,U3*%
X124147500Y-130087500D02*
X123667500Y-130087500D01*
X123907500Y-129757500D01*
X124147500Y-130087500D01*
G36*
X124147500Y-130087500D02*
G01*
X123667500Y-130087500D01*
X123907500Y-129757500D01*
X124147500Y-130087500D01*
G37*
X121207500Y-129852500D02*
X123157500Y-129852500D01*
X121207500Y-129852500D02*
X119257500Y-129852500D01*
X121207500Y-124732500D02*
X123157500Y-124732500D01*
X121207500Y-124732500D02*
X119257500Y-124732500D01*
%TO.C,J2*%
X115170000Y-87897500D02*
X115170000Y-95737500D01*
X112520000Y-90547500D02*
X112520000Y-87897500D01*
X112520000Y-87897500D02*
X115170000Y-87897500D01*
X109870000Y-95737500D02*
X115170000Y-95737500D01*
X109870000Y-90547500D02*
X112520000Y-90547500D01*
X109870000Y-90547500D02*
X109870000Y-95737500D01*
X109870000Y-89277500D02*
X109870000Y-87897500D01*
X109870000Y-87897500D02*
X111250000Y-87897500D01*
%TO.C,TP2*%
X171450000Y-87250000D02*
G75*
G02*
X170050000Y-87250000I-700000J0D01*
G01*
X170050000Y-87250000D02*
G75*
G02*
X171450000Y-87250000I700000J0D01*
G01*
D11*
%TO.C,OSC5A2B1*%
X143975000Y-100000000D02*
G75*
G02*
X143267894Y-100000000I-353553J0D01*
G01*
X143267894Y-100000000D02*
G75*
G02*
X143975000Y-100000000I353553J0D01*
G01*
D12*
X142275000Y-124450000D02*
X167675000Y-124450000D01*
X167675000Y-99050000D01*
X142275000Y-99050000D01*
X142275000Y-124450000D01*
%TD*%
%LPC*%
D15*
%TO.C,J7*%
X119750000Y-68250000D03*
D16*
X122290000Y-68250000D03*
X124830000Y-68250000D03*
X127370000Y-68250000D03*
X129910000Y-68250000D03*
%TD*%
D17*
%TO.C,U1*%
X147742500Y-83600000D03*
X147742500Y-84250000D03*
X147742500Y-84900000D03*
X145842500Y-84900000D03*
X145842500Y-84250000D03*
X145842500Y-83600000D03*
%TD*%
D18*
%TO.C,C39*%
X145657500Y-82250000D03*
X144842500Y-82250000D03*
%TD*%
D19*
%TO.C,C38*%
X147842500Y-82250000D03*
X148657500Y-82250000D03*
%TD*%
D20*
%TO.C,U2*%
X118400000Y-102300000D03*
X118400000Y-101650000D03*
X118400000Y-101000000D03*
X116500000Y-101000000D03*
X116500000Y-101650000D03*
X116500000Y-102300000D03*
%TD*%
D21*
%TO.C,C40*%
X119750000Y-102407500D03*
X119750000Y-101592500D03*
%TD*%
%TO.C,C2*%
X115250000Y-102407500D03*
X115250000Y-101592500D03*
%TD*%
D22*
%TO.C,U8*%
X153425000Y-91195000D03*
X153425000Y-89925000D03*
X153425000Y-88655000D03*
X153425000Y-87385000D03*
X153425000Y-86115000D03*
X153425000Y-84845000D03*
X153425000Y-83575000D03*
X153425000Y-82305000D03*
X158575000Y-82305000D03*
X158575000Y-83575000D03*
X158575000Y-84845000D03*
X158575000Y-86115000D03*
X158575000Y-87385000D03*
X158575000Y-88655000D03*
X158575000Y-89925000D03*
X158575000Y-91195000D03*
%TD*%
D23*
%TO.C,D3*%
X110375000Y-78150000D03*
X112425000Y-78150000D03*
%TD*%
D24*
%TO.C,U5*%
X123682500Y-116862500D03*
X123682500Y-118132500D03*
X123682500Y-119402500D03*
X123682500Y-120672500D03*
X118732500Y-120672500D03*
X118732500Y-119402500D03*
X118732500Y-118132500D03*
X118732500Y-116862500D03*
%TD*%
D25*
%TO.C,REF\u002A\u002A*%
X112750000Y-69750000D03*
D26*
X112750000Y-69750000D03*
%TD*%
D19*
%TO.C,R1*%
X131840000Y-112250000D03*
X131025000Y-112250000D03*
%TD*%
%TO.C,C18*%
X138725000Y-89250000D03*
X137910000Y-89250000D03*
%TD*%
D18*
%TO.C,R18*%
X170092500Y-85750000D03*
X170907500Y-85750000D03*
%TD*%
%TO.C,C4*%
X140600000Y-119650000D03*
X141415000Y-119650000D03*
%TD*%
D16*
%TO.C,J1*%
X111250000Y-101015000D03*
D15*
X111250000Y-98475000D03*
%TD*%
D18*
%TO.C,C32*%
X134592500Y-104750000D03*
X135407500Y-104750000D03*
%TD*%
D19*
%TO.C,C5*%
X169407500Y-101250000D03*
X168592500Y-101250000D03*
%TD*%
D21*
%TO.C,R16*%
X136000000Y-69592500D03*
X136000000Y-70407500D03*
%TD*%
D27*
%TO.C,C21*%
X137750000Y-88090000D03*
X137750000Y-87275000D03*
%TD*%
D18*
%TO.C,R13*%
X115742500Y-80900000D03*
X116557500Y-80900000D03*
%TD*%
D28*
%TO.C,TP3*%
X131500000Y-117750000D03*
%TD*%
D19*
%TO.C,C31*%
X164315000Y-73500000D03*
X163500000Y-73500000D03*
%TD*%
D29*
%TO.C,X1*%
X124450000Y-92015000D03*
X124450000Y-94215000D03*
X122750000Y-94215000D03*
X122750000Y-92015000D03*
%TD*%
D30*
%TO.C,J5*%
X174587500Y-88575000D03*
X174587500Y-82925000D03*
D31*
X174837500Y-85750000D03*
%TD*%
D19*
%TO.C,C12*%
X119615000Y-123387500D03*
X118800000Y-123387500D03*
%TD*%
D32*
%TO.C,U6*%
X130687500Y-87115000D03*
D33*
X126312277Y-86628864D03*
X126665830Y-86275311D03*
X127019384Y-85921757D03*
X127372937Y-85568204D03*
X127726490Y-85214651D03*
X128080044Y-84861097D03*
X128433597Y-84507544D03*
X128787151Y-84153990D03*
X129140704Y-83800437D03*
X129494257Y-83446884D03*
X129847811Y-83093330D03*
X130201364Y-82739777D03*
D34*
X131173636Y-82739777D03*
X131527189Y-83093330D03*
X131880743Y-83446884D03*
X132234296Y-83800437D03*
X132587849Y-84153990D03*
X132941403Y-84507544D03*
X133294956Y-84861097D03*
X133648510Y-85214651D03*
X134002063Y-85568204D03*
X134355616Y-85921757D03*
X134709170Y-86275311D03*
X135062723Y-86628864D03*
D33*
X135062723Y-87601136D03*
X134709170Y-87954689D03*
X134355616Y-88308243D03*
X134002063Y-88661796D03*
X133648510Y-89015349D03*
X133294956Y-89368903D03*
X132941403Y-89722456D03*
X132587849Y-90076010D03*
X132234296Y-90429563D03*
X131880743Y-90783116D03*
X131527189Y-91136670D03*
X131173636Y-91490223D03*
D34*
X130201364Y-91490223D03*
X129847811Y-91136670D03*
X129494257Y-90783116D03*
X129140704Y-90429563D03*
X128787151Y-90076010D03*
X128433597Y-89722456D03*
X128080044Y-89368903D03*
X127726490Y-89015349D03*
X127372937Y-88661796D03*
X127019384Y-88308243D03*
X126665830Y-87954689D03*
X126312277Y-87601136D03*
%TD*%
D21*
%TO.C,C15*%
X121750000Y-112842500D03*
X121750000Y-113657500D03*
%TD*%
D19*
%TO.C,C20*%
X131725000Y-80365000D03*
X130910000Y-80365000D03*
%TD*%
D21*
%TO.C,R8*%
X127750000Y-117635000D03*
X127750000Y-118450000D03*
%TD*%
D19*
%TO.C,C11*%
X127432500Y-115021250D03*
X126617500Y-115021250D03*
%TD*%
D18*
%TO.C,C3*%
X140600000Y-118650000D03*
X141415000Y-118650000D03*
%TD*%
D27*
%TO.C,C27*%
X128000000Y-94407500D03*
X128000000Y-93592500D03*
%TD*%
D35*
%TO.C,U7*%
X153450000Y-75550000D03*
D36*
X159750000Y-73250000D03*
D35*
X153450000Y-73250000D03*
X153450000Y-70950000D03*
%TD*%
D23*
%TO.C,D1*%
X110375000Y-83650000D03*
X112425000Y-83650000D03*
%TD*%
D18*
%TO.C,R17*%
X137842500Y-111750000D03*
X138657500Y-111750000D03*
%TD*%
D27*
%TO.C,C7*%
X132182500Y-114907500D03*
X132182500Y-114092500D03*
%TD*%
%TO.C,C17*%
X126250000Y-94657500D03*
X126250000Y-93842500D03*
%TD*%
D18*
%TO.C,R12*%
X115742500Y-83650000D03*
X116557500Y-83650000D03*
%TD*%
D37*
%TO.C,U9*%
X168387500Y-84800000D03*
X168387500Y-86700000D03*
X166112500Y-86700000D03*
X166112500Y-85750000D03*
X166112500Y-84800000D03*
%TD*%
D25*
%TO.C,REF\u002A\u002A*%
X172750000Y-129750000D03*
D26*
X172750000Y-129750000D03*
%TD*%
D21*
%TO.C,C8*%
X126932500Y-126977500D03*
X126932500Y-127792500D03*
%TD*%
D18*
%TO.C,R9*%
X122910000Y-84250000D03*
X123725000Y-84250000D03*
%TD*%
D38*
%TO.C,J3*%
X138430000Y-67800000D03*
D39*
X138430000Y-72000000D03*
D38*
X147070000Y-67800000D03*
D39*
X147070000Y-72000000D03*
D40*
X145950000Y-72600000D03*
X145150000Y-72600000D03*
D41*
X144500000Y-72600000D03*
X143500000Y-72600000D03*
X142000000Y-72600000D03*
X141000000Y-72600000D03*
D40*
X140350000Y-72600000D03*
X139550000Y-72600000D03*
X139550000Y-72600000D03*
X140350000Y-72600000D03*
D41*
X141500000Y-72600000D03*
X142500000Y-72600000D03*
X143000000Y-72600000D03*
X144000000Y-72600000D03*
D40*
X145150000Y-72600000D03*
X145950000Y-72600000D03*
D42*
X139860000Y-71480000D03*
X145640000Y-71480000D03*
%TD*%
D25*
%TO.C,REF\u002A\u002A*%
X172750000Y-69250000D03*
D26*
X172750000Y-69250000D03*
%TD*%
D18*
%TO.C,R6*%
X120775000Y-110750000D03*
X121590000Y-110750000D03*
%TD*%
%TO.C,C37*%
X167342500Y-83000000D03*
X168157500Y-83000000D03*
%TD*%
D21*
%TO.C,C1*%
X151000000Y-90342500D03*
X151000000Y-91157500D03*
%TD*%
D43*
%TO.C,U4*%
X124070000Y-113000000D03*
X124070000Y-112500000D03*
X124070000Y-112000000D03*
X124070000Y-111500000D03*
X124070000Y-111000000D03*
X128295000Y-111000000D03*
X128295000Y-111500000D03*
X128295000Y-112000000D03*
X128295000Y-112500000D03*
X128295000Y-113000000D03*
%TD*%
D19*
%TO.C,C29*%
X164315000Y-72000000D03*
X163500000Y-72000000D03*
%TD*%
D18*
%TO.C,L1*%
X131025000Y-113250000D03*
X131840000Y-113250000D03*
%TD*%
D21*
%TO.C,C6*%
X127932500Y-126977500D03*
X127932500Y-127792500D03*
%TD*%
D18*
%TO.C,R14*%
X115742500Y-78150000D03*
X116557500Y-78150000D03*
%TD*%
D28*
%TO.C,TP1*%
X133500000Y-110000000D03*
%TD*%
D19*
%TO.C,C28*%
X154157500Y-77750000D03*
X153342500Y-77750000D03*
%TD*%
D27*
%TO.C,C9*%
X130682500Y-114907500D03*
X130682500Y-114092500D03*
%TD*%
D44*
%TO.C,TH1*%
X140837500Y-111750000D03*
X140162500Y-111750000D03*
%TD*%
D19*
%TO.C,C33*%
X164315000Y-74250000D03*
X163500000Y-74250000D03*
%TD*%
D25*
%TO.C,REF\u002A\u002A*%
X112750000Y-129750000D03*
D26*
X112750000Y-129750000D03*
%TD*%
D19*
%TO.C,C10*%
X127432500Y-116021250D03*
X126617500Y-116021250D03*
%TD*%
D18*
%TO.C,C19*%
X122910000Y-85115000D03*
X123725000Y-85115000D03*
%TD*%
D19*
%TO.C,C23*%
X131725000Y-79365000D03*
X130910000Y-79365000D03*
%TD*%
D23*
%TO.C,D2*%
X110375000Y-80900000D03*
X112425000Y-80900000D03*
%TD*%
D21*
%TO.C,R4*%
X115957500Y-119385000D03*
X115957500Y-120200000D03*
%TD*%
D19*
%TO.C,C25*%
X131700000Y-78365000D03*
X130885000Y-78365000D03*
%TD*%
%TO.C,C34*%
X146407500Y-74500000D03*
X145592500Y-74500000D03*
%TD*%
D45*
%TO.C,U3*%
X118732500Y-129197500D03*
X118732500Y-127927500D03*
X118732500Y-126657500D03*
X118732500Y-125387500D03*
X123682500Y-125387500D03*
X123682500Y-126657500D03*
X123682500Y-127927500D03*
X123682500Y-129197500D03*
%TD*%
D18*
%TO.C,C13*%
X115117500Y-121292500D03*
X115932500Y-121292500D03*
%TD*%
%TO.C,C36*%
X167342500Y-82250000D03*
X168157500Y-82250000D03*
%TD*%
%TO.C,C22*%
X122910000Y-86115000D03*
X123725000Y-86115000D03*
%TD*%
D16*
%TO.C,J2*%
X113790000Y-94357500D03*
X111250000Y-94357500D03*
X113790000Y-91817500D03*
X111250000Y-91817500D03*
X113790000Y-89277500D03*
D15*
X111250000Y-89277500D03*
%TD*%
D21*
%TO.C,R15*%
X149250000Y-69592500D03*
X149250000Y-70407500D03*
%TD*%
D27*
%TO.C,C24*%
X138750000Y-88090000D03*
X138750000Y-87275000D03*
%TD*%
D19*
%TO.C,R7*%
X129157500Y-109500000D03*
X128342500Y-109500000D03*
%TD*%
D27*
%TO.C,C26*%
X129000000Y-94407500D03*
X129000000Y-93592500D03*
%TD*%
D18*
%TO.C,R5*%
X120775000Y-111750000D03*
X121590000Y-111750000D03*
%TD*%
D46*
%TO.C,TP2*%
X170750000Y-87250000D03*
%TD*%
D47*
%TO.C,OSC5A2B1*%
X164500000Y-102225000D03*
X164500000Y-121275000D03*
X145450000Y-121275000D03*
X145450000Y-111750000D03*
X145450000Y-102225000D03*
%TD*%
D19*
%TO.C,C30*%
X164315000Y-72750000D03*
X163500000Y-72750000D03*
%TD*%
%TO.C,C16*%
X123657500Y-90250000D03*
X122842500Y-90250000D03*
%TD*%
D18*
%TO.C,C14*%
X115117500Y-122042500D03*
X115932500Y-122042500D03*
%TD*%
%TO.C,C35*%
X139092500Y-74500000D03*
X139907500Y-74500000D03*
%TD*%
%LPD*%
M02*
