%TF.GenerationSoftware,KiCad,Pcbnew,9.0.4*%
%TF.CreationDate,2025-10-04T20:06:30+02:00*%
%TF.ProjectId,gpsdo,67707364-6f2e-46b6-9963-61645f706362,rev?*%
%TF.SameCoordinates,Original*%
%TF.FileFunction,Copper,L4,Bot*%
%TF.FilePolarity,Positive*%
%FSLAX46Y46*%
G04 Gerber Fmt 4.6, Leading zero omitted, Abs format (unit mm)*
G04 Created by KiCad (PCBNEW 9.0.4) date 2025-10-04 20:06:30*
%MOMM*%
%LPD*%
G01*
G04 APERTURE LIST*
G04 Aperture macros list*
%AMRoundRect*
0 Rectangle with rounded corners*
0 $1 Rounding radius*
0 $2 $3 $4 $5 $6 $7 $8 $9 X,Y pos of 4 corners*
0 Add a 4 corners polygon primitive as box body*
4,1,4,$2,$3,$4,$5,$6,$7,$8,$9,$2,$3,0*
0 Add four circle primitives for the rounded corners*
1,1,$1+$1,$2,$3*
1,1,$1+$1,$4,$5*
1,1,$1+$1,$6,$7*
1,1,$1+$1,$8,$9*
0 Add four rect primitives between the rounded corners*
20,1,$1+$1,$2,$3,$4,$5,0*
20,1,$1+$1,$4,$5,$6,$7,0*
20,1,$1+$1,$6,$7,$8,$9,0*
20,1,$1+$1,$8,$9,$2,$3,0*%
G04 Aperture macros list end*
%TA.AperFunction,EtchedComponent*%
%ADD10C,0.000000*%
%TD*%
%TA.AperFunction,ComponentPad*%
%ADD11C,3.600000*%
%TD*%
%TA.AperFunction,ConnectorPad*%
%ADD12C,5.600000*%
%TD*%
%TA.AperFunction,ComponentPad*%
%ADD13R,1.700000X1.700000*%
%TD*%
%TA.AperFunction,ComponentPad*%
%ADD14C,1.700000*%
%TD*%
%TA.AperFunction,SMDPad,CuDef*%
%ADD15RoundRect,0.250000X1.600000X-0.425000X1.600000X0.425000X-1.600000X0.425000X-1.600000X-0.425000X0*%
%TD*%
%TA.AperFunction,HeatsinkPad*%
%ADD16O,1.000000X2.100000*%
%TD*%
%TA.AperFunction,HeatsinkPad*%
%ADD17O,1.000000X1.800000*%
%TD*%
%TA.AperFunction,ComponentPad*%
%ADD18C,0.600000*%
%TD*%
%TA.AperFunction,ComponentPad*%
%ADD19C,2.540000*%
%TD*%
%TA.AperFunction,ViaPad*%
%ADD20C,0.600000*%
%TD*%
%TA.AperFunction,Conductor*%
%ADD21C,0.600000*%
%TD*%
%TA.AperFunction,Conductor*%
%ADD22C,0.200000*%
%TD*%
G04 APERTURE END LIST*
D10*
%TA.AperFunction,EtchedComponent*%
%TO.C,NT1*%
G36*
X129800000Y-104750000D02*
G01*
X129200000Y-104750000D01*
X129200000Y-103550000D01*
X129800000Y-103550000D01*
X129800000Y-104750000D01*
G37*
%TD.AperFunction*%
%TA.AperFunction,EtchedComponent*%
%TO.C,NT2*%
G36*
X129550000Y-96450000D02*
G01*
X128950000Y-96450000D01*
X128950000Y-95250000D01*
X129550000Y-95250000D01*
X129550000Y-96450000D01*
G37*
%TD.AperFunction*%
%TA.AperFunction,EtchedComponent*%
%TO.C,NT3*%
G36*
X171190000Y-79850000D02*
G01*
X170590000Y-79850000D01*
X170590000Y-78650000D01*
X171190000Y-78650000D01*
X171190000Y-79850000D01*
G37*
%TD.AperFunction*%
%TD*%
D11*
%TO.P,REF\u002A\u002A,1*%
%TO.N,N/C*%
X112750000Y-69750000D03*
D12*
X112750000Y-69750000D03*
%TD*%
D13*
%TO.P,J1,1,Pin_1*%
%TO.N,PPS_5V*%
X111250000Y-98475000D03*
D14*
%TO.P,J1,2,Pin_2*%
%TO.N,GND*%
X111250000Y-101015000D03*
%TD*%
D13*
%TO.P,J7,1,Pin_1*%
%TO.N,OCXO_5MHZ*%
X119750000Y-68250000D03*
D14*
%TO.P,J7,2,Pin_2*%
%TO.N,OCXO_2.5MHZ*%
X122290000Y-68250000D03*
%TO.P,J7,3,Pin_3*%
%TO.N,OCXO_1.25MHZ*%
X124830000Y-68250000D03*
%TO.P,J7,4,Pin_4*%
%TO.N,OCXO_625KHZ*%
X127370000Y-68250000D03*
%TO.P,J7,5,Pin_5*%
%TO.N,GND*%
X129910000Y-68250000D03*
%TD*%
D15*
%TO.P,J5,2,Ext*%
%TO.N,GNDA*%
X174587500Y-82925000D03*
X174587500Y-88575000D03*
%TD*%
D11*
%TO.P,REF\u002A\u002A,1*%
%TO.N,N/C*%
X172750000Y-129750000D03*
D12*
X172750000Y-129750000D03*
%TD*%
D16*
%TO.P,J3,S1,SHIELD*%
%TO.N,GND*%
X147070000Y-72000000D03*
D17*
X147070000Y-67800000D03*
D16*
X138430000Y-72000000D03*
D17*
X138430000Y-67800000D03*
%TD*%
D11*
%TO.P,REF\u002A\u002A,1*%
%TO.N,N/C*%
X172750000Y-69250000D03*
D12*
X172750000Y-69250000D03*
%TD*%
D11*
%TO.P,REF\u002A\u002A,1*%
%TO.N,N/C*%
X112750000Y-129750000D03*
D12*
X112750000Y-129750000D03*
%TD*%
D18*
%TO.P,NT1,1,1*%
%TO.N,GNDA*%
X129500000Y-104750000D03*
%TO.P,NT1,2,2*%
%TO.N,GND*%
X129500000Y-103550000D03*
%TD*%
%TO.P,NT2,1,1*%
%TO.N,VDDA_3V3*%
X129250000Y-95250000D03*
%TO.P,NT2,2,2*%
%TO.N,VDD_3V3*%
X129250000Y-96450000D03*
%TD*%
D13*
%TO.P,J2,1,Pin_1*%
%TO.N,VDD_3V3*%
X111250000Y-89277500D03*
D14*
%TO.P,J2,2,Pin_2*%
%TO.N,NRST*%
X113790000Y-89277500D03*
%TO.P,J2,3,Pin_3*%
%TO.N,SWO*%
X111250000Y-91817500D03*
%TO.P,J2,4,Pin_4*%
%TO.N,SWCLK*%
X113790000Y-91817500D03*
%TO.P,J2,5,Pin_5*%
%TO.N,SWDIO*%
X111250000Y-94357500D03*
%TO.P,J2,6,Pin_6*%
%TO.N,GND*%
X113790000Y-94357500D03*
%TD*%
D18*
%TO.P,NT3,1,1*%
%TO.N,GNDA*%
X170890000Y-79850000D03*
%TO.P,NT3,2,2*%
%TO.N,GND*%
X170890000Y-78650000D03*
%TD*%
D19*
%TO.P,OSC5A2B1,1,Out*%
%TO.N,OCXO_Out*%
X145450000Y-102225000D03*
%TO.P,OSC5A2B1,2,GND*%
%TO.N,GNDA*%
X145450000Y-111750000D03*
%TO.P,OSC5A2B1,3,Vref*%
%TO.N,Net-(OSC5A2B1-Vref)*%
X145450000Y-121275000D03*
%TO.P,OSC5A2B1,4,NC*%
%TO.N,unconnected-(OSC5A2B1-NC-Pad4)*%
X164500000Y-121275000D03*
%TO.P,OSC5A2B1,5,Vcc*%
%TO.N,VCC_5V*%
X164500000Y-102225000D03*
%TD*%
D20*
%TO.N,GND*%
X133200000Y-80400000D03*
%TO.N,VDD_3V3*%
X124200000Y-87675220D03*
X122400000Y-102800000D03*
%TO.N,GND*%
X120800000Y-100000000D03*
X116000000Y-100000000D03*
%TO.N,VCC_5V*%
X116000000Y-104200000D03*
%TO.N,GND*%
X166000000Y-70750000D03*
X166000000Y-72250000D03*
X166000000Y-74000000D03*
X166000000Y-75500000D03*
%TO.N,VDD_3V3*%
X145750000Y-80500000D03*
%TO.N,GND*%
X140500000Y-90750000D03*
%TO.N,VDD_3V3*%
X140500000Y-87000000D03*
%TO.N,GND*%
X140500000Y-88500000D03*
X127750000Y-97500000D03*
X120250000Y-96000000D03*
X124750000Y-90000000D03*
%TO.N,VDD_3V3*%
X129250000Y-77250000D03*
%TO.N,GND*%
X122500000Y-87675220D03*
%TO.N,VDD_3V3*%
X124000000Y-109000000D03*
X120500000Y-115000000D03*
%TO.N,GND*%
X119000000Y-113500000D03*
%TO.N,AD5541A_DIN*%
X119000000Y-112000000D03*
%TO.N,AD5541A_SCLK*%
X119000000Y-110500000D03*
%TO.N,GNDA*%
X113000000Y-123250000D03*
X113000000Y-121250000D03*
X128500000Y-125500000D03*
X129250000Y-116500000D03*
%TO.N,VCC_5V*%
X134000000Y-115000000D03*
%TO.N,GNDA*%
X132500000Y-117750000D03*
X132250000Y-105250000D03*
%TO.N,VDD_3V3*%
X136000000Y-110000000D03*
%TO.N,GNDA*%
X141000000Y-124750000D03*
X141000000Y-116500000D03*
X169000000Y-105250000D03*
X165000000Y-81250000D03*
%TO.N,GND*%
X142750000Y-81750000D03*
X150750000Y-81750000D03*
X150500000Y-79500000D03*
X148750000Y-79500000D03*
%TO.N,VCC_5V*%
X156000000Y-92750000D03*
X154250000Y-79250000D03*
X169000000Y-99500000D03*
X151000000Y-92750000D03*
X126250000Y-118000000D03*
%TO.N,GND*%
X152000000Y-68750000D03*
X151250000Y-71000000D03*
X152750000Y-68750000D03*
X151250000Y-68750000D03*
X149750000Y-90250000D03*
X153500000Y-68750000D03*
X118500000Y-78200000D03*
X154250000Y-68750000D03*
X160500000Y-82250000D03*
X160500000Y-84750000D03*
X155250000Y-77750000D03*
X151250000Y-71750000D03*
X130687500Y-87115000D03*
X151250000Y-70250000D03*
X151250000Y-69500000D03*
X127850000Y-92000000D03*
X125750000Y-84850000D03*
%TO.N,OCXO_5MHZ*%
X150905000Y-88655000D03*
%TO.N,OCXO_2.5MHZ*%
X150865000Y-87385000D03*
%TO.N,OCXO_1.25MHZ*%
X150865000Y-86115000D03*
%TO.N,AD5541A_CS*%
X119500000Y-84500000D03*
X123000000Y-99750000D03*
%TO.N,AD5541A_DIN*%
X132900000Y-93625000D03*
%TO.N,AD5541A_SCLK*%
X133000000Y-92000000D03*
%TO.N,SWCLK*%
X125750000Y-81000000D03*
%TO.N,SWO*%
X125750000Y-82500000D03*
%TO.N,SWDIO*%
X133250000Y-81500000D03*
%TO.N,OCXO_625KHZ*%
X150865000Y-84900000D03*
%TO.N,USB_P*%
X142000000Y-77750000D03*
X142000000Y-74250000D03*
%TO.N,USB_N*%
X143536657Y-74250000D03*
X143500000Y-77750000D03*
%TO.N,GNDA*%
X165250000Y-88000000D03*
X174600000Y-81200000D03*
X121500000Y-123250000D03*
X121500000Y-121750000D03*
X126375000Y-125512500D03*
X174600000Y-90200000D03*
%TO.N,VDD_3V3*%
X159000000Y-77750000D03*
X163500000Y-68750000D03*
X163500000Y-69500000D03*
X162750000Y-68750000D03*
X162750000Y-77000000D03*
X162000000Y-69500000D03*
X163500000Y-77000000D03*
X110400000Y-76400000D03*
X162750000Y-69500000D03*
X159750000Y-68750000D03*
X162000000Y-77000000D03*
X160500000Y-68750000D03*
X162000000Y-68750000D03*
X161250000Y-68750000D03*
X162750000Y-77750000D03*
X160500000Y-77750000D03*
X162000000Y-77750000D03*
X159750000Y-77750000D03*
X159000000Y-68750000D03*
X163500000Y-77750000D03*
X161250000Y-77750000D03*
%TD*%
D21*
%TO.N,VCC_5V*%
X157750000Y-98000000D02*
X156000000Y-96250000D01*
X156000000Y-96250000D02*
X156000000Y-92750000D01*
X169000000Y-99500000D02*
X167500000Y-98000000D01*
X167500000Y-98000000D02*
X157750000Y-98000000D01*
X116000000Y-115000000D02*
X116000000Y-104200000D01*
X119000000Y-118000000D02*
X116000000Y-115000000D01*
X126250000Y-118000000D02*
X119000000Y-118000000D01*
D22*
%TO.N,AD5541A_CS*%
X119500000Y-97100000D02*
X119500000Y-84500000D01*
X122150000Y-99750000D02*
X119500000Y-97100000D01*
X123000000Y-99750000D02*
X122150000Y-99750000D01*
%TO.N,OCXO_625KHZ*%
X132150000Y-72750000D02*
X144300000Y-84900000D01*
X127750000Y-72750000D02*
X132150000Y-72750000D01*
X127370000Y-72370000D02*
X127750000Y-72750000D01*
X127370000Y-68250000D02*
X127370000Y-72370000D01*
X144300000Y-84900000D02*
X150865000Y-84900000D01*
%TO.N,OCXO_5MHZ*%
X143405000Y-88655000D02*
X150905000Y-88655000D01*
X122950000Y-75750000D02*
X130500000Y-75750000D01*
X119750000Y-72550000D02*
X122950000Y-75750000D01*
X130500000Y-75750000D02*
X143405000Y-88655000D01*
X119750000Y-68250000D02*
X119750000Y-72550000D01*
%TO.N,OCXO_2.5MHZ*%
X143635000Y-87385000D02*
X150885000Y-87385000D01*
X131000000Y-74750000D02*
X143635000Y-87385000D01*
X124550000Y-74750000D02*
X131000000Y-74750000D01*
X122290000Y-72490000D02*
X124550000Y-74750000D01*
X122290000Y-68250000D02*
X122290000Y-72490000D01*
%TO.N,OCXO_1.25MHZ*%
X143865000Y-86115000D02*
X150865000Y-86115000D01*
X124830000Y-72430000D02*
X126150000Y-73750000D01*
X126150000Y-73750000D02*
X131500000Y-73750000D01*
X131500000Y-73750000D02*
X143865000Y-86115000D01*
X124830000Y-68250000D02*
X124830000Y-72430000D01*
D21*
%TO.N,GNDA*%
X174600000Y-90200000D02*
X174600000Y-88587500D01*
X174600000Y-81200000D02*
X174600000Y-82912500D01*
D22*
%TO.N,AD5541A_SCLK*%
X129968422Y-100203112D02*
X129677359Y-99912049D01*
X130732124Y-99778874D02*
X130816976Y-99694021D01*
X129883570Y-100627377D02*
X129968422Y-100542524D01*
X130816976Y-99354609D02*
X130525887Y-99063520D01*
X133500000Y-95750000D02*
X133500000Y-92500000D01*
X119000000Y-110500000D02*
X119000000Y-110250000D01*
X129253096Y-100336315D02*
X129544158Y-100627377D01*
X119000000Y-110250000D02*
X128913685Y-100336315D01*
X130101625Y-99487786D02*
X130392713Y-99778874D01*
X130610742Y-98639257D02*
X133500000Y-95750000D01*
X133500000Y-92500000D02*
X133000000Y-92000000D01*
X130525887Y-98724109D02*
X130610742Y-98639257D01*
X129677359Y-99572637D02*
X129762214Y-99487786D01*
X130525887Y-99063520D02*
G75*
G02*
X130525872Y-98724095I169713J169720D01*
G01*
X129544158Y-100627377D02*
G75*
G03*
X129883570Y-100627377I169706J169704D01*
G01*
X129762214Y-99487786D02*
G75*
G02*
X130101625Y-99487785I169706J-169707D01*
G01*
X130816976Y-99694021D02*
G75*
G03*
X130816991Y-99354594I-169676J169721D01*
G01*
X129677359Y-99912049D02*
G75*
G02*
X129677316Y-99572594I169741J169749D01*
G01*
X129968422Y-100542524D02*
G75*
G03*
X129968440Y-100203094I-169722J169724D01*
G01*
X130392713Y-99778874D02*
G75*
G03*
X130732124Y-99778875I169706J169707D01*
G01*
X128913685Y-100336315D02*
G75*
G02*
X129253096Y-100336314I169706J-169707D01*
G01*
%TO.N,AD5541A_DIN*%
X118250000Y-111250000D02*
X118250000Y-110250000D01*
X132900000Y-95600000D02*
X132900000Y-93625000D01*
X119000000Y-112000000D02*
X118250000Y-111250000D01*
X118250000Y-110250000D02*
X132900000Y-95600000D01*
D21*
%TO.N,VCC_5V*%
X131000000Y-118000000D02*
X126250000Y-118000000D01*
X134000000Y-115000000D02*
X131000000Y-118000000D01*
X151000000Y-92750000D02*
X139250000Y-92750000D01*
X139250000Y-92750000D02*
X134000000Y-98000000D01*
X134000000Y-98000000D02*
X134000000Y-115000000D01*
X151000000Y-92750000D02*
X156000000Y-92750000D01*
X154250000Y-79250000D02*
X156000000Y-81000000D01*
X156000000Y-81000000D02*
X156000000Y-92750000D01*
D22*
%TO.N,SWCLK*%
X117250000Y-81000000D02*
X115500000Y-82750000D01*
X115500000Y-90107500D02*
X113790000Y-91817500D01*
X115500000Y-82750000D02*
X115500000Y-90107500D01*
X125750000Y-81000000D02*
X117250000Y-81000000D01*
%TO.N,SWO*%
X116500000Y-83750000D02*
X116500000Y-90735260D01*
X116500000Y-90735260D02*
X114266760Y-92968500D01*
X114266760Y-92968500D02*
X112401000Y-92968500D01*
X125750000Y-82500000D02*
X117750000Y-82500000D01*
X117750000Y-82500000D02*
X116500000Y-83750000D01*
X112401000Y-92968500D02*
X111250000Y-91817500D01*
%TO.N,SWDIO*%
X118750000Y-83500000D02*
X117500000Y-84750000D01*
X133250000Y-82000000D02*
X131750000Y-83500000D01*
X131750000Y-83500000D02*
X118750000Y-83500000D01*
X133250000Y-81500000D02*
X133250000Y-82000000D01*
X114266760Y-95508500D02*
X117500000Y-92275260D01*
X112401000Y-95508500D02*
X111250000Y-94357500D01*
X114266760Y-95508500D02*
X112401000Y-95508500D01*
X117500000Y-92275260D02*
X117500000Y-84750000D01*
%TO.N,USB_P*%
X142000000Y-74250000D02*
X142000000Y-77750000D01*
%TO.N,USB_N*%
X143536657Y-77713343D02*
X143500000Y-77750000D01*
X143536657Y-74250000D02*
X143536657Y-77713343D01*
%TD*%
M02*
