M48
; DRILL file {KiCad 9.0.4} date 2025-10-04T20:06:30+0200
; FORMAT={-:-/ absolute / inch / decimal}
; #@! TF.CreationDate,2025-10-04T20:06:30+02:00
; #@! TF.GenerationSoftware,Kicad,Pcbnew,9.0.4
; #@! TF.FileFunction,Plated,1,4,PTH
FMAT,2
INCH
; #@! TA.AperFunction,Plated,PTH,ViaDrill
T1C0.0118
; #@! TA.AperFunction,Plated,PTH,ComponentDrill
T2C0.0118
; #@! TA.AperFunction,Plated,PTH,ComponentDrill
T3C0.0236
; #@! TA.AperFunction,Plated,PTH,ComponentDrill
T4C0.0315
; #@! TA.AperFunction,Plated,PTH,ComponentDrill
T5C0.0394
; #@! TA.AperFunction,Plated,PTH,ComponentDrill
T6C0.1260
%
G90
G05
T1
X4.3465Y-3.0079
X4.4488Y-4.7736
X4.4488Y-4.8524
X4.5669Y-3.937
X4.5669Y-4.1024
X4.6654Y-3.0787
X4.685Y-4.3504
X4.685Y-4.4094
X4.685Y-4.4685
X4.7047Y-3.3268
X4.7343Y-3.7795
X4.7441Y-4.5276
X4.7559Y-3.937
X4.7835Y-4.7933
X4.7835Y-4.8524
X4.8189Y-4.0472
X4.8228Y-3.4518
X4.8425Y-3.9272
X4.8819Y-4.2913
X4.8898Y-3.4518
X4.9114Y-3.5433
X4.9508Y-3.189
X4.9508Y-3.248
X4.9508Y-3.3406
X4.9705Y-4.6457
X4.9754Y-4.9414
X5.0295Y-3.8386
X5.0335Y-3.622
X5.0591Y-4.9409
X5.0886Y-3.0413
X5.0886Y-4.5866
X5.1452Y-3.4297
X5.2067Y-4.1437
X5.2165Y-4.6358
X5.2323Y-3.686
X5.2362Y-3.622
X5.2441Y-3.1654
X5.2461Y-3.2087
X5.2756Y-4.5276
X5.3543Y-4.3307
X5.5315Y-3.4252
X5.5315Y-3.4843
X5.5315Y-3.5728
X5.5512Y-4.5866
X5.5512Y-4.9114
X5.5906Y-2.9232
X5.5906Y-3.061
X5.6201Y-3.2185
X5.6496Y-3.061
X5.651Y-2.9232
X5.7382Y-3.1693
X5.8563Y-3.1299
X5.8957Y-3.5531
X5.9252Y-3.1299
X5.935Y-3.2185
X5.9396Y-3.3425
X5.9396Y-3.3904
X5.9396Y-3.4404
X5.9411Y-3.4904
X5.9449Y-3.6516
X5.9547Y-2.7067
X5.9547Y-2.7362
X5.9547Y-2.7657
X5.9547Y-2.7953
X5.9547Y-2.8248
X5.9843Y-2.7067
X6.0138Y-2.7067
X6.0433Y-2.7067
X6.0728Y-2.7067
X6.0728Y-3.1201
X6.1122Y-3.061
X6.1417Y-3.6516
X6.2598Y-2.7067
X6.2598Y-3.061
X6.2894Y-2.7067
X6.2894Y-3.061
X6.3189Y-2.7067
X6.3189Y-3.061
X6.3189Y-3.2382
X6.3189Y-3.3366
X6.3484Y-2.7067
X6.3484Y-3.061
X6.378Y-2.7067
X6.378Y-2.7362
X6.378Y-3.0315
X6.378Y-3.061
X6.4075Y-2.7067
X6.4075Y-2.7362
X6.4075Y-3.0315
X6.4075Y-3.061
X6.437Y-2.7067
X6.437Y-2.7362
X6.437Y-3.0315
X6.437Y-3.061
X6.4961Y-3.1988
X6.5059Y-3.4646
X6.5354Y-2.7854
X6.5354Y-2.8445
X6.5354Y-2.9134
X6.5354Y-2.9724
X6.6535Y-3.9173
X6.6535Y-4.1437
X6.874Y-3.1969
X6.874Y-3.5512
T2
X5.0886Y-3.75
X5.0886Y-3.7972
X5.0984Y-4.0768
X5.0984Y-4.124
X6.728Y-3.0965
X6.728Y-3.1437
T4
X5.7264Y-4.0246
X5.7264Y-4.3996
X5.7264Y-4.7746
X6.4764Y-4.0246
X6.4764Y-4.7746
T5
X4.3799Y-3.5149
X4.3799Y-3.6149
X4.3799Y-3.7149
X4.3799Y-3.877
X4.3799Y-3.977
X4.4799Y-3.5149
X4.4799Y-3.6149
X4.4799Y-3.7149
X4.7146Y-2.687
X4.8146Y-2.687
X4.9146Y-2.687
X5.0146Y-2.687
X5.1146Y-2.687
T6
X4.439Y-2.7461
X4.439Y-5.1083
X6.8012Y-2.7264
X6.8012Y-5.1083
T3
G00X5.45Y-2.685
M15
G01X5.45Y-2.6535
M16
G05
G00X5.45Y-2.8563
M15
G01X5.45Y-2.813
M16
G05
G00X5.7902Y-2.685
M15
G01X5.7902Y-2.6535
M16
G05
G00X5.7902Y-2.8563
M15
G01X5.7902Y-2.813
M16
G05
M30
