%TF.GenerationSoftware,KiCad,Pcbnew,9.0.4*%
%TF.CreationDate,2025-10-02T19:52:11+02:00*%
%TF.ProjectId,gpsdo,67707364-6f2e-46b6-9963-61645f706362,rev?*%
%TF.SameCoordinates,Original*%
%TF.FileFunction,Legend,Bot*%
%TF.FilePolarity,Positive*%
%FSLAX46Y46*%
G04 Gerber Fmt 4.6, Leading zero omitted, Abs format (unit mm)*
G04 Created by KiCad (PCBNEW 9.0.4) date 2025-10-02 19:52:11*
%MOMM*%
%LPD*%
G01*
G04 APERTURE LIST*
G04 Aperture macros list*
%AMRoundRect*
0 Rectangle with rounded corners*
0 $1 Rounding radius*
0 $2 $3 $4 $5 $6 $7 $8 $9 X,Y pos of 4 corners*
0 Add a 4 corners polygon primitive as box body*
4,1,4,$2,$3,$4,$5,$6,$7,$8,$9,$2,$3,0*
0 Add four circle primitives for the rounded corners*
1,1,$1+$1,$2,$3*
1,1,$1+$1,$4,$5*
1,1,$1+$1,$6,$7*
1,1,$1+$1,$8,$9*
0 Add four rect primitives between the rounded corners*
20,1,$1+$1,$2,$3,$4,$5,0*
20,1,$1+$1,$4,$5,$6,$7,0*
20,1,$1+$1,$6,$7,$8,$9,0*
20,1,$1+$1,$8,$9,$2,$3,0*%
G04 Aperture macros list end*
%ADD10C,0.100000*%
%ADD11C,0.200000*%
%ADD12R,1.700000X1.700000*%
%ADD13C,1.700000*%
%ADD14C,5.600000*%
%ADD15C,3.600000*%
%ADD16RoundRect,0.250000X1.600000X-0.425000X1.600000X0.425000X-1.600000X0.425000X-1.600000X-0.425000X0*%
%ADD17O,1.000000X1.800000*%
%ADD18O,1.000000X2.100000*%
%ADD19C,0.650000*%
%ADD20C,2.540000*%
G04 APERTURE END LIST*
D10*
X115250000Y-87500000D02*
X130000000Y-87500000D01*
X130000000Y-95500000D01*
X115250000Y-95500000D01*
X115250000Y-87500000D01*
D11*
G36*
X129632763Y-88210233D02*
G01*
X129379239Y-88210233D01*
X128771074Y-89347062D01*
X128771074Y-88210233D01*
X128565910Y-88210233D01*
X128565910Y-89705000D01*
X128811099Y-89705000D01*
X129427599Y-88563958D01*
X129427599Y-89705000D01*
X129632763Y-89705000D01*
X129632763Y-88210233D01*
G37*
G36*
X128313852Y-89705000D02*
G01*
X128108688Y-89705000D01*
X128108688Y-89112955D01*
X127848844Y-89112955D01*
X127454269Y-89705000D01*
X127232344Y-89705000D01*
X127232344Y-89684025D01*
X127629117Y-89098392D01*
X127545160Y-89075265D01*
X127475885Y-89042671D01*
X127418995Y-89001157D01*
X127372845Y-88950472D01*
X127326796Y-88870310D01*
X127298142Y-88775977D01*
X127288032Y-88664067D01*
X127288039Y-88663975D01*
X127487517Y-88663975D01*
X127495893Y-88738509D01*
X127519871Y-88801359D01*
X127559324Y-88855126D01*
X127612076Y-88894760D01*
X127683964Y-88920489D01*
X127781158Y-88930047D01*
X128108688Y-88930047D01*
X128108688Y-88397812D01*
X127781158Y-88397812D01*
X127683974Y-88406633D01*
X127611752Y-88430333D01*
X127558579Y-88466516D01*
X127520556Y-88515362D01*
X127496366Y-88579587D01*
X127487517Y-88663975D01*
X127288039Y-88663975D01*
X127296350Y-88557501D01*
X127319693Y-88468717D01*
X127356573Y-88394502D01*
X127406825Y-88332416D01*
X127469122Y-88284352D01*
X127549401Y-88247737D01*
X127651913Y-88223714D01*
X127781982Y-88214904D01*
X128313852Y-88214904D01*
X128313852Y-89705000D01*
G37*
G36*
X127040186Y-89512292D02*
G01*
X126907837Y-89368769D01*
X126811235Y-89443185D01*
X126701024Y-89499652D01*
X126582933Y-89535099D01*
X126464628Y-89546730D01*
X126366717Y-89539251D01*
X126288944Y-89518716D01*
X126227315Y-89487013D01*
X126177710Y-89441590D01*
X126148968Y-89388300D01*
X126139113Y-89324347D01*
X126144301Y-89282958D01*
X126159530Y-89246347D01*
X126185367Y-89213247D01*
X126236754Y-89170736D01*
X126306084Y-89130357D01*
X126470856Y-89060015D01*
X126651474Y-88986651D01*
X126738658Y-88943147D01*
X126816338Y-88894327D01*
X126884182Y-88836428D01*
X126937055Y-88769488D01*
X126962141Y-88719309D01*
X126977742Y-88661457D01*
X126983217Y-88594275D01*
X126977764Y-88528445D01*
X126961947Y-88469416D01*
X126936047Y-88415947D01*
X126881700Y-88344755D01*
X126812399Y-88285887D01*
X126732641Y-88240029D01*
X126645887Y-88207211D01*
X126556122Y-88187313D01*
X126471955Y-88180924D01*
X126378108Y-88187205D01*
X126287585Y-88205909D01*
X126199563Y-88237161D01*
X126116798Y-88280179D01*
X126043038Y-88333425D01*
X125977455Y-88397354D01*
X126114200Y-88525123D01*
X126202765Y-88451694D01*
X126283369Y-88407887D01*
X126369979Y-88383082D01*
X126471314Y-88374364D01*
X126540234Y-88380807D01*
X126611082Y-88400651D01*
X126676529Y-88433023D01*
X126729784Y-88476214D01*
X126756823Y-88511423D01*
X126772682Y-88549783D01*
X126778053Y-88592534D01*
X126772865Y-88635517D01*
X126757661Y-88673596D01*
X126731982Y-88708031D01*
X126680412Y-88752319D01*
X126610532Y-88794035D01*
X126445027Y-88867399D01*
X126265875Y-88942962D01*
X126179588Y-88986062D01*
X126101469Y-89034187D01*
X126032832Y-89091107D01*
X125980020Y-89156919D01*
X125954874Y-89206339D01*
X125939358Y-89262478D01*
X125933949Y-89326820D01*
X125942903Y-89417441D01*
X125968689Y-89496166D01*
X126010979Y-89565444D01*
X126071153Y-89626872D01*
X126141856Y-89673658D01*
X126228853Y-89709019D01*
X126335510Y-89731903D01*
X126465910Y-89740170D01*
X126576287Y-89732837D01*
X126682112Y-89711058D01*
X126784372Y-89674774D01*
X126881967Y-89626437D01*
X126966824Y-89572231D01*
X127040186Y-89512292D01*
G37*
G36*
X125295010Y-89705000D02*
G01*
X125295010Y-88397812D01*
X125740509Y-88397812D01*
X125740509Y-88214904D01*
X124650209Y-88214904D01*
X124650209Y-88397812D01*
X125089846Y-88397812D01*
X125089846Y-89705000D01*
X125295010Y-89705000D01*
G37*
G36*
X120822435Y-89296412D02*
G01*
X120829024Y-89381857D01*
X120848063Y-89458123D01*
X120879038Y-89526763D01*
X120921851Y-89588477D01*
X120974871Y-89640469D01*
X121039139Y-89683476D01*
X121110204Y-89714233D01*
X121191519Y-89733437D01*
X121285061Y-89740170D01*
X121393714Y-89735257D01*
X121484208Y-89721630D01*
X121559193Y-89700695D01*
X121668133Y-89652853D01*
X121780935Y-89584282D01*
X121675972Y-89428761D01*
X121601784Y-89477421D01*
X121519168Y-89519344D01*
X121429402Y-89547433D01*
X121324629Y-89557263D01*
X121228674Y-89547474D01*
X121156294Y-89520851D01*
X121101879Y-89479319D01*
X121060203Y-89423821D01*
X121035825Y-89364012D01*
X121027599Y-89298060D01*
X121037381Y-89227568D01*
X121066112Y-89166242D01*
X121115343Y-89111581D01*
X121177851Y-89071552D01*
X121257023Y-89046014D01*
X121357418Y-89036751D01*
X121470167Y-89036751D01*
X121470167Y-88853844D01*
X121352656Y-88853844D01*
X121254628Y-88844435D01*
X121182244Y-88819162D01*
X121129265Y-88780388D01*
X121089514Y-88727493D01*
X121065358Y-88665341D01*
X121056908Y-88591252D01*
X121065969Y-88520793D01*
X121091236Y-88466414D01*
X121132471Y-88424190D01*
X121185258Y-88393626D01*
X121244865Y-88374971D01*
X121312997Y-88368503D01*
X121390293Y-88377584D01*
X121473464Y-88406330D01*
X121552025Y-88451188D01*
X121623490Y-88511385D01*
X121759961Y-88381142D01*
X121678573Y-88310162D01*
X121591731Y-88255927D01*
X121498565Y-88217236D01*
X121397834Y-88193667D01*
X121287992Y-88185595D01*
X121205279Y-88191222D01*
X121130900Y-88207489D01*
X121063594Y-88233864D01*
X121001911Y-88270901D01*
X120950512Y-88316186D01*
X120908347Y-88370243D01*
X120877385Y-88431226D01*
X120858354Y-88499898D01*
X120851744Y-88577971D01*
X120857525Y-88650799D01*
X120874623Y-88719391D01*
X120903127Y-88784692D01*
X120942315Y-88843877D01*
X120991903Y-88895095D01*
X121052970Y-88938932D01*
X120992050Y-88973629D01*
X120937563Y-89019843D01*
X120888930Y-89078791D01*
X120852110Y-89145224D01*
X120829984Y-89217233D01*
X120822435Y-89296412D01*
G37*
G36*
X120560942Y-88213164D02*
G01*
X120348818Y-88213164D01*
X120259028Y-88598559D01*
X120174520Y-88929773D01*
X120082663Y-89241395D01*
X119989689Y-89501209D01*
X119896784Y-89241399D01*
X119804950Y-88929773D01*
X119720441Y-88598559D01*
X119630652Y-88213164D01*
X119418527Y-88213164D01*
X119530179Y-88678079D01*
X119637979Y-89064228D01*
X119718546Y-89311133D01*
X119799532Y-89523559D01*
X119880512Y-89705000D01*
X120098957Y-89705000D01*
X120178864Y-89523676D01*
X120259460Y-89311249D01*
X120340391Y-89064228D01*
X120448955Y-88678072D01*
X120560942Y-88213164D01*
G37*
G36*
X118219783Y-89296412D02*
G01*
X118226372Y-89381857D01*
X118245411Y-89458123D01*
X118276386Y-89526763D01*
X118319199Y-89588477D01*
X118372220Y-89640469D01*
X118436488Y-89683476D01*
X118507553Y-89714233D01*
X118588868Y-89733437D01*
X118682410Y-89740170D01*
X118791062Y-89735257D01*
X118881556Y-89721630D01*
X118956542Y-89700695D01*
X119065481Y-89652853D01*
X119178284Y-89584282D01*
X119073320Y-89428761D01*
X118999132Y-89477421D01*
X118916516Y-89519344D01*
X118826750Y-89547433D01*
X118721977Y-89557263D01*
X118626022Y-89547474D01*
X118553642Y-89520851D01*
X118499228Y-89479319D01*
X118457552Y-89423821D01*
X118433173Y-89364012D01*
X118424947Y-89298060D01*
X118434729Y-89227568D01*
X118463460Y-89166242D01*
X118512691Y-89111581D01*
X118575199Y-89071552D01*
X118654371Y-89046014D01*
X118754767Y-89036751D01*
X118867515Y-89036751D01*
X118867515Y-88853844D01*
X118750004Y-88853844D01*
X118651976Y-88844435D01*
X118579592Y-88819162D01*
X118526613Y-88780388D01*
X118486862Y-88727493D01*
X118462706Y-88665341D01*
X118454256Y-88591252D01*
X118463318Y-88520793D01*
X118488584Y-88466414D01*
X118529819Y-88424190D01*
X118582607Y-88393626D01*
X118642213Y-88374971D01*
X118710345Y-88368503D01*
X118787642Y-88377584D01*
X118870812Y-88406330D01*
X118949374Y-88451188D01*
X119020839Y-88511385D01*
X119157309Y-88381142D01*
X119075921Y-88310162D01*
X118989080Y-88255927D01*
X118895913Y-88217236D01*
X118795182Y-88193667D01*
X118685341Y-88185595D01*
X118602627Y-88191222D01*
X118528249Y-88207489D01*
X118460942Y-88233864D01*
X118399259Y-88270901D01*
X118347861Y-88316186D01*
X118305696Y-88370243D01*
X118274734Y-88431226D01*
X118255702Y-88499898D01*
X118249092Y-88577971D01*
X118254873Y-88650799D01*
X118271971Y-88719391D01*
X118300475Y-88784692D01*
X118339663Y-88843877D01*
X118389252Y-88895095D01*
X118450318Y-88938932D01*
X118389399Y-88973629D01*
X118334912Y-89019843D01*
X118286278Y-89078791D01*
X118249458Y-89145224D01*
X118227332Y-89217233D01*
X118219783Y-89296412D01*
G37*
G36*
X129642838Y-92032292D02*
G01*
X129510489Y-91888769D01*
X129413887Y-91963185D01*
X129303676Y-92019652D01*
X129185585Y-92055099D01*
X129067280Y-92066730D01*
X128969369Y-92059251D01*
X128891596Y-92038716D01*
X128829967Y-92007013D01*
X128780361Y-91961590D01*
X128751620Y-91908300D01*
X128741765Y-91844347D01*
X128746953Y-91802958D01*
X128762182Y-91766347D01*
X128788019Y-91733247D01*
X128839406Y-91690736D01*
X128908736Y-91650357D01*
X129073508Y-91580015D01*
X129254125Y-91506651D01*
X129341310Y-91463147D01*
X129418989Y-91414327D01*
X129486833Y-91356428D01*
X129539706Y-91289488D01*
X129564793Y-91239309D01*
X129580394Y-91181457D01*
X129585868Y-91114275D01*
X129580416Y-91048445D01*
X129564599Y-90989416D01*
X129538699Y-90935947D01*
X129484352Y-90864755D01*
X129415051Y-90805887D01*
X129335292Y-90760029D01*
X129248538Y-90727211D01*
X129158774Y-90707313D01*
X129074607Y-90700924D01*
X128980760Y-90707205D01*
X128890236Y-90725909D01*
X128802215Y-90757161D01*
X128719449Y-90800179D01*
X128645690Y-90853425D01*
X128580107Y-90917354D01*
X128716852Y-91045123D01*
X128805417Y-90971694D01*
X128886021Y-90927887D01*
X128972631Y-90903082D01*
X129073966Y-90894364D01*
X129142885Y-90900807D01*
X129213734Y-90920651D01*
X129279181Y-90953023D01*
X129332436Y-90996214D01*
X129359475Y-91031423D01*
X129375333Y-91069783D01*
X129380704Y-91112534D01*
X129375517Y-91155517D01*
X129360313Y-91193596D01*
X129334634Y-91228031D01*
X129283064Y-91272319D01*
X129213184Y-91314035D01*
X129047679Y-91387399D01*
X128868527Y-91462962D01*
X128782240Y-91506062D01*
X128704121Y-91554187D01*
X128635483Y-91611107D01*
X128582671Y-91676919D01*
X128557526Y-91726339D01*
X128542010Y-91782478D01*
X128536601Y-91846820D01*
X128545555Y-91937441D01*
X128571341Y-92016166D01*
X128613631Y-92085444D01*
X128673804Y-92146872D01*
X128744507Y-92193658D01*
X128831505Y-92229019D01*
X128938161Y-92251903D01*
X129068562Y-92260170D01*
X129178938Y-92252837D01*
X129284764Y-92231058D01*
X129387024Y-92194774D01*
X129484619Y-92146437D01*
X129569476Y-92092231D01*
X129642838Y-92032292D01*
G37*
G36*
X128387124Y-90730233D02*
G01*
X128177198Y-90730233D01*
X128176977Y-91116664D01*
X128160437Y-91444002D01*
X128128772Y-91751953D01*
X128089087Y-92001884D01*
X127885480Y-91229221D01*
X127704954Y-91229221D01*
X127501347Y-91999777D01*
X127464316Y-91749991D01*
X127434760Y-91442903D01*
X127417374Y-91116306D01*
X127411130Y-90730233D01*
X127205966Y-90730233D01*
X127211053Y-91060949D01*
X127225406Y-91349459D01*
X127247732Y-91599707D01*
X127280772Y-91849984D01*
X127317991Y-92056551D01*
X127358282Y-92225000D01*
X127633605Y-92225000D01*
X127795263Y-91570307D01*
X127956830Y-92225000D01*
X128231786Y-92225000D01*
X128272006Y-92056548D01*
X128309622Y-91849971D01*
X128343619Y-91599707D01*
X128366873Y-91349471D01*
X128381825Y-91060969D01*
X128387124Y-90730233D01*
G37*
G36*
X126430098Y-92260170D02*
G01*
X126561484Y-92249265D01*
X126675320Y-92218087D01*
X126774755Y-92167755D01*
X126861787Y-92098238D01*
X126934891Y-92010500D01*
X126994665Y-91901958D01*
X127035790Y-91783959D01*
X127061898Y-91646691D01*
X127071144Y-91486867D01*
X127063751Y-91334513D01*
X127042887Y-91203143D01*
X127010169Y-91090001D01*
X126966687Y-90992646D01*
X126912966Y-90909019D01*
X126844651Y-90834052D01*
X126767844Y-90776661D01*
X126681432Y-90735358D01*
X126583598Y-90709822D01*
X126471955Y-90700924D01*
X126344296Y-90710935D01*
X126239608Y-90738835D01*
X126153585Y-90782623D01*
X126079144Y-90844331D01*
X126012079Y-90928085D01*
X125952451Y-91038071D01*
X126122535Y-91122335D01*
X126166314Y-91048515D01*
X126213252Y-90991029D01*
X126263311Y-90947487D01*
X126320582Y-90915538D01*
X126388329Y-90895569D01*
X126469024Y-90888503D01*
X126558425Y-90898634D01*
X126635190Y-90927861D01*
X126702193Y-90976319D01*
X126761017Y-91046589D01*
X126804062Y-91126570D01*
X126836928Y-91224248D01*
X126858275Y-91343030D01*
X126865980Y-91486867D01*
X126857616Y-91626669D01*
X126834348Y-91742617D01*
X126798262Y-91838580D01*
X126750484Y-91917803D01*
X126686995Y-91985715D01*
X126614070Y-92033343D01*
X126529841Y-92062439D01*
X126431289Y-92072592D01*
X126321535Y-92063816D01*
X126227590Y-92038886D01*
X126139732Y-91995628D01*
X126046973Y-91927237D01*
X125927263Y-92080927D01*
X126005454Y-92140479D01*
X126081765Y-92185854D01*
X126156699Y-92218497D01*
X126235263Y-92240897D01*
X126325805Y-92255138D01*
X126430098Y-92260170D01*
G37*
G36*
X124714689Y-92042092D02*
G01*
X124714689Y-92225000D01*
X125634996Y-92225000D01*
X125634996Y-90733164D01*
X125429832Y-90733164D01*
X125429832Y-92042092D01*
X124714689Y-92042092D01*
G37*
G36*
X123567236Y-92225000D02*
G01*
X124079963Y-91568108D01*
X124187124Y-91702839D01*
X124187124Y-92225000D01*
X124392288Y-92225000D01*
X124392288Y-90730233D01*
X124187124Y-90730233D01*
X124187124Y-91385018D01*
X123626129Y-90730233D01*
X123392847Y-90730233D01*
X123392847Y-90751299D01*
X123953842Y-91408099D01*
X123322505Y-92203934D01*
X123322505Y-92225000D01*
X123567236Y-92225000D01*
G37*
G36*
X121834883Y-92032292D02*
G01*
X121702534Y-91888769D01*
X121605932Y-91963185D01*
X121495721Y-92019652D01*
X121377630Y-92055099D01*
X121259324Y-92066730D01*
X121161414Y-92059251D01*
X121083641Y-92038716D01*
X121022012Y-92007013D01*
X120972406Y-91961590D01*
X120943665Y-91908300D01*
X120933810Y-91844347D01*
X120938997Y-91802958D01*
X120954227Y-91766347D01*
X120980063Y-91733247D01*
X121031451Y-91690736D01*
X121100780Y-91650357D01*
X121265553Y-91580015D01*
X121446170Y-91506651D01*
X121533354Y-91463147D01*
X121611034Y-91414327D01*
X121678878Y-91356428D01*
X121731751Y-91289488D01*
X121756837Y-91239309D01*
X121772439Y-91181457D01*
X121777913Y-91114275D01*
X121772461Y-91048445D01*
X121756644Y-90989416D01*
X121730744Y-90935947D01*
X121676397Y-90864755D01*
X121607096Y-90805887D01*
X121527337Y-90760029D01*
X121440583Y-90727211D01*
X121350819Y-90707313D01*
X121266652Y-90700924D01*
X121172805Y-90707205D01*
X121082281Y-90725909D01*
X120994260Y-90757161D01*
X120911494Y-90800179D01*
X120837735Y-90853425D01*
X120772151Y-90917354D01*
X120908897Y-91045123D01*
X120997462Y-90971694D01*
X121078066Y-90927887D01*
X121164676Y-90903082D01*
X121266010Y-90894364D01*
X121334930Y-90900807D01*
X121405778Y-90920651D01*
X121471226Y-90953023D01*
X121524480Y-90996214D01*
X121551520Y-91031423D01*
X121567378Y-91069783D01*
X121572749Y-91112534D01*
X121567562Y-91155517D01*
X121552357Y-91193596D01*
X121526679Y-91228031D01*
X121475109Y-91272319D01*
X121405229Y-91314035D01*
X121239724Y-91387399D01*
X121060572Y-91462962D01*
X120974285Y-91506062D01*
X120896166Y-91554187D01*
X120827528Y-91611107D01*
X120774716Y-91676919D01*
X120749571Y-91726339D01*
X120734054Y-91782478D01*
X120728646Y-91846820D01*
X120737599Y-91937441D01*
X120763385Y-92016166D01*
X120805676Y-92085444D01*
X120865849Y-92146872D01*
X120936552Y-92193658D01*
X121023550Y-92229019D01*
X121130206Y-92251903D01*
X121260607Y-92260170D01*
X121370983Y-92252837D01*
X121476808Y-92231058D01*
X121579069Y-92194774D01*
X121676664Y-92146437D01*
X121761520Y-92092231D01*
X121834883Y-92032292D01*
G37*
G36*
X120579169Y-90730233D02*
G01*
X120369242Y-90730233D01*
X120369022Y-91116664D01*
X120352481Y-91444002D01*
X120320817Y-91751953D01*
X120281132Y-92001884D01*
X120077525Y-91229221D01*
X119896999Y-91229221D01*
X119693392Y-91999777D01*
X119656361Y-91749991D01*
X119626805Y-91442903D01*
X119609418Y-91116306D01*
X119603175Y-90730233D01*
X119398011Y-90730233D01*
X119403097Y-91060949D01*
X119417451Y-91349459D01*
X119439776Y-91599707D01*
X119472816Y-91849984D01*
X119510036Y-92056551D01*
X119550327Y-92225000D01*
X119825649Y-92225000D01*
X119987308Y-91570307D01*
X120148874Y-92225000D01*
X120423831Y-92225000D01*
X120464051Y-92056548D01*
X120501667Y-91849971D01*
X120535663Y-91599707D01*
X120558918Y-91349471D01*
X120573870Y-91060969D01*
X120579169Y-90730233D01*
G37*
G36*
X118793601Y-90708138D02*
G01*
X118880420Y-90728518D01*
X118954618Y-90760825D01*
X119021897Y-90805879D01*
X119079978Y-90861267D01*
X119129557Y-90927887D01*
X119169432Y-91001456D01*
X119202019Y-91083786D01*
X119227010Y-91175915D01*
X119249498Y-91319979D01*
X119257327Y-91480547D01*
X119249499Y-91641208D01*
X119227010Y-91785362D01*
X119202022Y-91877431D01*
X119169436Y-91959731D01*
X119129557Y-92033299D01*
X119079987Y-92099868D01*
X119021906Y-92155259D01*
X118954618Y-92200362D01*
X118880426Y-92232617D01*
X118793606Y-92252967D01*
X118691660Y-92260170D01*
X118588342Y-92252935D01*
X118500899Y-92232555D01*
X118426687Y-92200362D01*
X118359412Y-92155212D01*
X118301681Y-92099821D01*
X118252756Y-92033299D01*
X118196504Y-91919808D01*
X118156402Y-91785362D01*
X118133846Y-91641205D01*
X118125994Y-91480547D01*
X118331158Y-91480547D01*
X118335202Y-91596684D01*
X118347003Y-91705220D01*
X118369151Y-91808240D01*
X118401775Y-91895180D01*
X118431796Y-91947194D01*
X118468233Y-91990249D01*
X118511409Y-92025331D01*
X118560592Y-92050736D01*
X118619902Y-92066838D01*
X118691660Y-92072592D01*
X118763415Y-92066817D01*
X118822356Y-92050699D01*
X118870904Y-92025331D01*
X118932452Y-91969897D01*
X118980539Y-91895180D01*
X119013947Y-91808178D01*
X119036409Y-91705220D01*
X119048142Y-91596687D01*
X119052163Y-91480547D01*
X119048133Y-91364607D01*
X119036409Y-91256974D01*
X119013982Y-91154898D01*
X118980539Y-91068021D01*
X118932499Y-90993103D01*
X118870904Y-90936863D01*
X118822279Y-90910874D01*
X118763341Y-90894398D01*
X118691660Y-90888503D01*
X118619975Y-90894378D01*
X118560668Y-90910837D01*
X118511409Y-90936863D01*
X118449158Y-90993231D01*
X118401775Y-91068021D01*
X118369117Y-91154837D01*
X118347003Y-91256974D01*
X118335211Y-91364609D01*
X118331158Y-91480547D01*
X118125994Y-91480547D01*
X118133846Y-91319982D01*
X118156402Y-91175915D01*
X118196508Y-91041390D01*
X118252756Y-90927887D01*
X118301690Y-90861314D01*
X118359422Y-90805926D01*
X118426687Y-90760825D01*
X118500905Y-90728580D01*
X118588348Y-90708170D01*
X118691660Y-90700924D01*
X118793601Y-90708138D01*
G37*
G36*
X129080927Y-94034528D02*
G01*
X128542463Y-94034528D01*
X128542463Y-94613475D01*
X128617980Y-94669050D01*
X128691456Y-94711315D01*
X128763381Y-94741611D01*
X128880371Y-94769936D01*
X129024232Y-94780170D01*
X129156178Y-94769261D01*
X129270468Y-94738077D01*
X129370263Y-94687755D01*
X129457719Y-94618207D01*
X129531152Y-94530461D01*
X129591181Y-94421958D01*
X129632457Y-94303944D01*
X129658657Y-94166676D01*
X129667934Y-94006867D01*
X129660342Y-93854787D01*
X129638904Y-93723556D01*
X129605241Y-93610410D01*
X129560419Y-93512911D01*
X129504902Y-93429019D01*
X129435155Y-93355559D01*
X129354169Y-93298367D01*
X129260348Y-93256495D01*
X129151313Y-93230199D01*
X129024049Y-93220924D01*
X128891291Y-93229993D01*
X128776844Y-93255729D01*
X128672517Y-93296757D01*
X128590640Y-93345305D01*
X128684795Y-93494965D01*
X128764626Y-93451582D01*
X128853415Y-93425630D01*
X128944157Y-93412511D01*
X129020019Y-93408503D01*
X129112751Y-93415717D01*
X129190518Y-93436018D01*
X129255985Y-93468176D01*
X129311182Y-93512071D01*
X129357349Y-93568695D01*
X129400792Y-93649801D01*
X129433788Y-93747701D01*
X129455108Y-93865515D01*
X129462770Y-94006867D01*
X129454346Y-94145353D01*
X129430851Y-94260782D01*
X129394293Y-94356863D01*
X129345717Y-94436704D01*
X129281427Y-94505149D01*
X129207810Y-94553115D01*
X129123015Y-94582388D01*
X129024049Y-94592592D01*
X128921718Y-94584753D01*
X128830183Y-94562083D01*
X128747627Y-94525181D01*
X128747627Y-94217435D01*
X129080927Y-94217435D01*
X129080927Y-94034528D01*
G37*
G36*
X128331437Y-93250233D02*
G01*
X128077913Y-93250233D01*
X127469748Y-94387062D01*
X127469748Y-93250233D01*
X127264584Y-93250233D01*
X127264584Y-94745000D01*
X127509774Y-94745000D01*
X128126273Y-93603958D01*
X128126273Y-94745000D01*
X128331437Y-94745000D01*
X128331437Y-93250233D01*
G37*
G36*
X127012526Y-94745000D02*
G01*
X126599084Y-94745000D01*
X126494302Y-94738643D01*
X126400552Y-94720346D01*
X126316319Y-94690896D01*
X126240321Y-94650569D01*
X126171023Y-94598886D01*
X126110241Y-94537025D01*
X126057474Y-94464102D01*
X126012626Y-94378818D01*
X125970327Y-94258110D01*
X125943465Y-94117553D01*
X125933949Y-93953744D01*
X125933954Y-93953653D01*
X126139113Y-93953653D01*
X126144355Y-94060767D01*
X126160179Y-94168434D01*
X126189054Y-94271997D01*
X126232719Y-94365263D01*
X126271264Y-94420930D01*
X126317958Y-94468443D01*
X126373495Y-94508420D01*
X126435196Y-94537186D01*
X126509569Y-94555526D01*
X126599358Y-94562092D01*
X126807362Y-94562092D01*
X126807362Y-93437812D01*
X126586719Y-93437812D01*
X126486708Y-93446697D01*
X126400725Y-93472073D01*
X126326121Y-93513122D01*
X126261021Y-93570527D01*
X126210251Y-93639725D01*
X126172290Y-93724372D01*
X126147896Y-93827674D01*
X126139113Y-93953653D01*
X125933954Y-93953653D01*
X125940561Y-93824156D01*
X125958969Y-93715728D01*
X125987438Y-93625299D01*
X126028629Y-93540078D01*
X126077285Y-93468967D01*
X126133343Y-93410243D01*
X126197789Y-93360583D01*
X126267188Y-93321217D01*
X126342171Y-93291724D01*
X126460777Y-93264214D01*
X126586536Y-93254904D01*
X127012526Y-93254904D01*
X127012526Y-94745000D01*
G37*
G36*
X121834883Y-94552292D02*
G01*
X121702534Y-94408769D01*
X121605932Y-94483185D01*
X121495721Y-94539652D01*
X121377630Y-94575099D01*
X121259324Y-94586730D01*
X121161414Y-94579251D01*
X121083641Y-94558716D01*
X121022012Y-94527013D01*
X120972406Y-94481590D01*
X120943665Y-94428300D01*
X120933810Y-94364347D01*
X120938997Y-94322958D01*
X120954227Y-94286347D01*
X120980063Y-94253247D01*
X121031451Y-94210736D01*
X121100780Y-94170357D01*
X121265553Y-94100015D01*
X121446170Y-94026651D01*
X121533354Y-93983147D01*
X121611034Y-93934327D01*
X121678878Y-93876428D01*
X121731751Y-93809488D01*
X121756837Y-93759309D01*
X121772439Y-93701457D01*
X121777913Y-93634275D01*
X121772461Y-93568445D01*
X121756644Y-93509416D01*
X121730744Y-93455947D01*
X121676397Y-93384755D01*
X121607096Y-93325887D01*
X121527337Y-93280029D01*
X121440583Y-93247211D01*
X121350819Y-93227313D01*
X121266652Y-93220924D01*
X121172805Y-93227205D01*
X121082281Y-93245909D01*
X120994260Y-93277161D01*
X120911494Y-93320179D01*
X120837735Y-93373425D01*
X120772151Y-93437354D01*
X120908897Y-93565123D01*
X120997462Y-93491694D01*
X121078066Y-93447887D01*
X121164676Y-93423082D01*
X121266010Y-93414364D01*
X121334930Y-93420807D01*
X121405778Y-93440651D01*
X121471226Y-93473023D01*
X121524480Y-93516214D01*
X121551520Y-93551423D01*
X121567378Y-93589783D01*
X121572749Y-93632534D01*
X121567562Y-93675517D01*
X121552357Y-93713596D01*
X121526679Y-93748031D01*
X121475109Y-93792319D01*
X121405229Y-93834035D01*
X121239724Y-93907399D01*
X121060572Y-93982962D01*
X120974285Y-94026062D01*
X120896166Y-94074187D01*
X120827528Y-94131107D01*
X120774716Y-94196919D01*
X120749571Y-94246339D01*
X120734054Y-94302478D01*
X120728646Y-94366820D01*
X120737599Y-94457441D01*
X120763385Y-94536166D01*
X120805676Y-94605444D01*
X120865849Y-94666872D01*
X120936552Y-94713658D01*
X121023550Y-94749019D01*
X121130206Y-94771903D01*
X121260607Y-94780170D01*
X121370983Y-94772837D01*
X121476808Y-94751058D01*
X121579069Y-94714774D01*
X121676664Y-94666437D01*
X121761520Y-94612231D01*
X121834883Y-94552292D01*
G37*
G36*
X120579169Y-93250233D02*
G01*
X120369242Y-93250233D01*
X120369022Y-93636664D01*
X120352481Y-93964002D01*
X120320817Y-94271953D01*
X120281132Y-94521884D01*
X120077525Y-93749221D01*
X119896999Y-93749221D01*
X119693392Y-94519777D01*
X119656361Y-94269991D01*
X119626805Y-93962903D01*
X119609418Y-93636306D01*
X119603175Y-93250233D01*
X119398011Y-93250233D01*
X119403097Y-93580949D01*
X119417451Y-93869459D01*
X119439776Y-94119707D01*
X119472816Y-94369984D01*
X119510036Y-94576551D01*
X119550327Y-94745000D01*
X119825649Y-94745000D01*
X119987308Y-94090307D01*
X120148874Y-94745000D01*
X120423831Y-94745000D01*
X120464051Y-94576548D01*
X120501667Y-94369971D01*
X120535663Y-94119707D01*
X120558918Y-93869471D01*
X120573870Y-93580969D01*
X120579169Y-93250233D01*
G37*
G36*
X119204570Y-94745000D02*
G01*
X118791128Y-94745000D01*
X118686347Y-94738643D01*
X118592597Y-94720346D01*
X118508364Y-94690896D01*
X118432366Y-94650569D01*
X118363068Y-94598886D01*
X118302286Y-94537025D01*
X118249518Y-94464102D01*
X118204671Y-94378818D01*
X118162371Y-94258110D01*
X118135510Y-94117553D01*
X118125994Y-93953744D01*
X118125999Y-93953653D01*
X118331158Y-93953653D01*
X118336400Y-94060767D01*
X118352224Y-94168434D01*
X118381098Y-94271997D01*
X118424764Y-94365263D01*
X118463309Y-94420930D01*
X118510003Y-94468443D01*
X118565539Y-94508420D01*
X118627241Y-94537186D01*
X118701614Y-94555526D01*
X118791403Y-94562092D01*
X118999406Y-94562092D01*
X118999406Y-93437812D01*
X118778763Y-93437812D01*
X118678753Y-93446697D01*
X118592770Y-93472073D01*
X118518165Y-93513122D01*
X118453066Y-93570527D01*
X118402295Y-93639725D01*
X118364334Y-93724372D01*
X118339940Y-93827674D01*
X118331158Y-93953653D01*
X118125999Y-93953653D01*
X118132605Y-93824156D01*
X118151013Y-93715728D01*
X118179483Y-93625299D01*
X118220674Y-93540078D01*
X118269330Y-93468967D01*
X118325388Y-93410243D01*
X118389833Y-93360583D01*
X118459232Y-93321217D01*
X118534215Y-93291724D01*
X118652822Y-93264214D01*
X118778580Y-93254904D01*
X119204570Y-93254904D01*
X119204570Y-94745000D01*
G37*
G36*
X116924319Y-94745000D02*
G01*
X117850488Y-94745000D01*
X117850488Y-94562092D01*
X117492916Y-94562092D01*
X117492916Y-93437812D01*
X117838764Y-93437812D01*
X117838764Y-93254904D01*
X116936043Y-93254904D01*
X116936043Y-93437812D01*
X117287752Y-93437812D01*
X117287752Y-94562092D01*
X116924319Y-94562092D01*
X116924319Y-94745000D01*
G37*
G36*
X116190949Y-93228138D02*
G01*
X116277768Y-93248518D01*
X116351967Y-93280825D01*
X116419245Y-93325879D01*
X116477326Y-93381267D01*
X116526905Y-93447887D01*
X116566780Y-93521456D01*
X116599367Y-93603786D01*
X116624358Y-93695915D01*
X116646847Y-93839979D01*
X116654675Y-94000547D01*
X116646847Y-94161208D01*
X116624358Y-94305362D01*
X116599370Y-94397431D01*
X116566784Y-94479731D01*
X116526905Y-94553299D01*
X116477335Y-94619868D01*
X116419255Y-94675259D01*
X116351967Y-94720362D01*
X116277774Y-94752617D01*
X116190955Y-94772967D01*
X116089009Y-94780170D01*
X115985691Y-94772935D01*
X115898247Y-94752555D01*
X115824036Y-94720362D01*
X115756760Y-94675212D01*
X115699029Y-94619821D01*
X115650104Y-94553299D01*
X115593852Y-94439808D01*
X115553750Y-94305362D01*
X115531194Y-94161205D01*
X115523342Y-94000547D01*
X115728506Y-94000547D01*
X115732550Y-94116684D01*
X115744351Y-94225220D01*
X115766499Y-94328240D01*
X115799123Y-94415180D01*
X115829145Y-94467194D01*
X115865581Y-94510249D01*
X115908757Y-94545331D01*
X115957941Y-94570736D01*
X116017250Y-94586838D01*
X116089009Y-94592592D01*
X116160764Y-94586817D01*
X116219704Y-94570699D01*
X116268252Y-94545331D01*
X116329800Y-94489897D01*
X116377887Y-94415180D01*
X116411295Y-94328178D01*
X116433757Y-94225220D01*
X116445490Y-94116687D01*
X116449511Y-94000547D01*
X116445481Y-93884607D01*
X116433757Y-93776974D01*
X116411330Y-93674898D01*
X116377887Y-93588021D01*
X116329847Y-93513103D01*
X116268252Y-93456863D01*
X116219627Y-93430874D01*
X116160689Y-93414398D01*
X116089009Y-93408503D01*
X116017323Y-93414378D01*
X115958017Y-93430837D01*
X115908757Y-93456863D01*
X115846506Y-93513231D01*
X115799123Y-93588021D01*
X115766465Y-93674837D01*
X115744351Y-93776974D01*
X115732559Y-93884609D01*
X115728506Y-94000547D01*
X115523342Y-94000547D01*
X115531194Y-93839982D01*
X115553750Y-93695915D01*
X115593856Y-93561390D01*
X115650104Y-93447887D01*
X115699038Y-93381314D01*
X115756770Y-93325926D01*
X115824036Y-93280825D01*
X115898253Y-93248580D01*
X115985696Y-93228170D01*
X116089009Y-93220924D01*
X116190949Y-93228138D01*
G37*
D10*
X133696115Y-133872419D02*
X133696115Y-132872419D01*
X133696115Y-132872419D02*
X133362782Y-133586704D01*
X133362782Y-133586704D02*
X133029449Y-132872419D01*
X133029449Y-132872419D02*
X133029449Y-133872419D01*
X132124687Y-133872419D02*
X132124687Y-133348609D01*
X132124687Y-133348609D02*
X132172306Y-133253371D01*
X132172306Y-133253371D02*
X132267544Y-133205752D01*
X132267544Y-133205752D02*
X132458020Y-133205752D01*
X132458020Y-133205752D02*
X132553258Y-133253371D01*
X132124687Y-133824800D02*
X132219925Y-133872419D01*
X132219925Y-133872419D02*
X132458020Y-133872419D01*
X132458020Y-133872419D02*
X132553258Y-133824800D01*
X132553258Y-133824800D02*
X132600877Y-133729561D01*
X132600877Y-133729561D02*
X132600877Y-133634323D01*
X132600877Y-133634323D02*
X132553258Y-133539085D01*
X132553258Y-133539085D02*
X132458020Y-133491466D01*
X132458020Y-133491466D02*
X132219925Y-133491466D01*
X132219925Y-133491466D02*
X132124687Y-133443847D01*
X131219925Y-133872419D02*
X131219925Y-132872419D01*
X131219925Y-133824800D02*
X131315163Y-133872419D01*
X131315163Y-133872419D02*
X131505639Y-133872419D01*
X131505639Y-133872419D02*
X131600877Y-133824800D01*
X131600877Y-133824800D02*
X131648496Y-133777180D01*
X131648496Y-133777180D02*
X131696115Y-133681942D01*
X131696115Y-133681942D02*
X131696115Y-133396228D01*
X131696115Y-133396228D02*
X131648496Y-133300990D01*
X131648496Y-133300990D02*
X131600877Y-133253371D01*
X131600877Y-133253371D02*
X131505639Y-133205752D01*
X131505639Y-133205752D02*
X131315163Y-133205752D01*
X131315163Y-133205752D02*
X131219925Y-133253371D01*
X130362782Y-133824800D02*
X130458020Y-133872419D01*
X130458020Y-133872419D02*
X130648496Y-133872419D01*
X130648496Y-133872419D02*
X130743734Y-133824800D01*
X130743734Y-133824800D02*
X130791353Y-133729561D01*
X130791353Y-133729561D02*
X130791353Y-133348609D01*
X130791353Y-133348609D02*
X130743734Y-133253371D01*
X130743734Y-133253371D02*
X130648496Y-133205752D01*
X130648496Y-133205752D02*
X130458020Y-133205752D01*
X130458020Y-133205752D02*
X130362782Y-133253371D01*
X130362782Y-133253371D02*
X130315163Y-133348609D01*
X130315163Y-133348609D02*
X130315163Y-133443847D01*
X130315163Y-133443847D02*
X130791353Y-133539085D01*
X129219924Y-133205752D02*
X129029448Y-133872419D01*
X129029448Y-133872419D02*
X128838972Y-133396228D01*
X128838972Y-133396228D02*
X128648496Y-133872419D01*
X128648496Y-133872419D02*
X128458020Y-133205752D01*
X128077067Y-133872419D02*
X128077067Y-133205752D01*
X128077067Y-132872419D02*
X128124686Y-132920038D01*
X128124686Y-132920038D02*
X128077067Y-132967657D01*
X128077067Y-132967657D02*
X128029448Y-132920038D01*
X128029448Y-132920038D02*
X128077067Y-132872419D01*
X128077067Y-132872419D02*
X128077067Y-132967657D01*
X127743734Y-133205752D02*
X127362782Y-133205752D01*
X127600877Y-132872419D02*
X127600877Y-133729561D01*
X127600877Y-133729561D02*
X127553258Y-133824800D01*
X127553258Y-133824800D02*
X127458020Y-133872419D01*
X127458020Y-133872419D02*
X127362782Y-133872419D01*
X127029448Y-133872419D02*
X127029448Y-132872419D01*
X126600877Y-133872419D02*
X126600877Y-133348609D01*
X126600877Y-133348609D02*
X126648496Y-133253371D01*
X126648496Y-133253371D02*
X126743734Y-133205752D01*
X126743734Y-133205752D02*
X126886591Y-133205752D01*
X126886591Y-133205752D02*
X126981829Y-133253371D01*
X126981829Y-133253371D02*
X127029448Y-133300990D01*
X125219924Y-133872419D02*
X125315162Y-133824800D01*
X125315162Y-133824800D02*
X125362781Y-133729561D01*
X125362781Y-133729561D02*
X125362781Y-132872419D01*
X124696114Y-133872419D02*
X124791352Y-133824800D01*
X124791352Y-133824800D02*
X124838971Y-133777180D01*
X124838971Y-133777180D02*
X124886590Y-133681942D01*
X124886590Y-133681942D02*
X124886590Y-133396228D01*
X124886590Y-133396228D02*
X124838971Y-133300990D01*
X124838971Y-133300990D02*
X124791352Y-133253371D01*
X124791352Y-133253371D02*
X124696114Y-133205752D01*
X124696114Y-133205752D02*
X124553257Y-133205752D01*
X124553257Y-133205752D02*
X124458019Y-133253371D01*
X124458019Y-133253371D02*
X124410400Y-133300990D01*
X124410400Y-133300990D02*
X124362781Y-133396228D01*
X124362781Y-133396228D02*
X124362781Y-133681942D01*
X124362781Y-133681942D02*
X124410400Y-133777180D01*
X124410400Y-133777180D02*
X124458019Y-133824800D01*
X124458019Y-133824800D02*
X124553257Y-133872419D01*
X124553257Y-133872419D02*
X124696114Y-133872419D01*
X124029447Y-133205752D02*
X123791352Y-133872419D01*
X123791352Y-133872419D02*
X123553257Y-133205752D01*
X122791352Y-133824800D02*
X122886590Y-133872419D01*
X122886590Y-133872419D02*
X123077066Y-133872419D01*
X123077066Y-133872419D02*
X123172304Y-133824800D01*
X123172304Y-133824800D02*
X123219923Y-133729561D01*
X123219923Y-133729561D02*
X123219923Y-133348609D01*
X123219923Y-133348609D02*
X123172304Y-133253371D01*
X123172304Y-133253371D02*
X123077066Y-133205752D01*
X123077066Y-133205752D02*
X122886590Y-133205752D01*
X122886590Y-133205752D02*
X122791352Y-133253371D01*
X122791352Y-133253371D02*
X122743733Y-133348609D01*
X122743733Y-133348609D02*
X122743733Y-133443847D01*
X122743733Y-133443847D02*
X123219923Y-133539085D01*
X121553256Y-133872419D02*
X121553256Y-133205752D01*
X121553256Y-132872419D02*
X121600875Y-132920038D01*
X121600875Y-132920038D02*
X121553256Y-132967657D01*
X121553256Y-132967657D02*
X121505637Y-132920038D01*
X121505637Y-132920038D02*
X121553256Y-132872419D01*
X121553256Y-132872419D02*
X121553256Y-132967657D01*
X121077066Y-133205752D02*
X121077066Y-133872419D01*
X121077066Y-133300990D02*
X121029447Y-133253371D01*
X121029447Y-133253371D02*
X120934209Y-133205752D01*
X120934209Y-133205752D02*
X120791352Y-133205752D01*
X120791352Y-133205752D02*
X120696114Y-133253371D01*
X120696114Y-133253371D02*
X120648495Y-133348609D01*
X120648495Y-133348609D02*
X120648495Y-133872419D01*
X119410399Y-133872419D02*
X119410399Y-132872419D01*
X119410399Y-132872419D02*
X119077066Y-133586704D01*
X119077066Y-133586704D02*
X118743733Y-132872419D01*
X118743733Y-132872419D02*
X118743733Y-133872419D01*
X118267542Y-132872419D02*
X118267542Y-133681942D01*
X118267542Y-133681942D02*
X118219923Y-133777180D01*
X118219923Y-133777180D02*
X118172304Y-133824800D01*
X118172304Y-133824800D02*
X118077066Y-133872419D01*
X118077066Y-133872419D02*
X117886590Y-133872419D01*
X117886590Y-133872419D02*
X117791352Y-133824800D01*
X117791352Y-133824800D02*
X117743733Y-133777180D01*
X117743733Y-133777180D02*
X117696114Y-133681942D01*
X117696114Y-133681942D02*
X117696114Y-132872419D01*
X116648495Y-133777180D02*
X116696114Y-133824800D01*
X116696114Y-133824800D02*
X116838971Y-133872419D01*
X116838971Y-133872419D02*
X116934209Y-133872419D01*
X116934209Y-133872419D02*
X117077066Y-133824800D01*
X117077066Y-133824800D02*
X117172304Y-133729561D01*
X117172304Y-133729561D02*
X117219923Y-133634323D01*
X117219923Y-133634323D02*
X117267542Y-133443847D01*
X117267542Y-133443847D02*
X117267542Y-133300990D01*
X117267542Y-133300990D02*
X117219923Y-133110514D01*
X117219923Y-133110514D02*
X117172304Y-133015276D01*
X117172304Y-133015276D02*
X117077066Y-132920038D01*
X117077066Y-132920038D02*
X116934209Y-132872419D01*
X116934209Y-132872419D02*
X116838971Y-132872419D01*
X116838971Y-132872419D02*
X116696114Y-132920038D01*
X116696114Y-132920038D02*
X116648495Y-132967657D01*
%LPC*%
D12*
%TO.C,J7*%
X119750000Y-68250000D03*
D13*
X122290000Y-68250000D03*
X124830000Y-68250000D03*
X127370000Y-68250000D03*
X129910000Y-68250000D03*
%TD*%
D14*
%TO.C,REF\u002A\u002A*%
X112750000Y-69750000D03*
D15*
X112750000Y-69750000D03*
%TD*%
D13*
%TO.C,J1*%
X111250000Y-101015000D03*
D12*
X111250000Y-98475000D03*
%TD*%
D16*
%TO.C,J5*%
X174587500Y-88575000D03*
X174587500Y-82925000D03*
%TD*%
D14*
%TO.C,REF\u002A\u002A*%
X172750000Y-129750000D03*
D15*
X172750000Y-129750000D03*
%TD*%
D17*
%TO.C,J3*%
X138430000Y-67800000D03*
D18*
X138430000Y-72000000D03*
D17*
X147070000Y-67800000D03*
D18*
X147070000Y-72000000D03*
D19*
X139860000Y-71480000D03*
X145640000Y-71480000D03*
%TD*%
D14*
%TO.C,REF\u002A\u002A*%
X172750000Y-69250000D03*
D15*
X172750000Y-69250000D03*
%TD*%
D14*
%TO.C,REF\u002A\u002A*%
X112750000Y-129750000D03*
D15*
X112750000Y-129750000D03*
%TD*%
D13*
%TO.C,J2*%
X113790000Y-94357500D03*
X111250000Y-94357500D03*
X113790000Y-91817500D03*
X111250000Y-91817500D03*
X113790000Y-89277500D03*
D12*
X111250000Y-89277500D03*
%TD*%
D20*
%TO.C,OSC5A2B1*%
X164500000Y-102225000D03*
X164500000Y-121275000D03*
X145450000Y-121275000D03*
X145450000Y-111750000D03*
X145450000Y-102225000D03*
%TD*%
%LPD*%
M02*
