M48
; DRILL file {KiCad 9.0.4} date 2025-10-02T19:52:11+0200
; FORMAT={-:-/ absolute / inch / decimal}
; #@! TF.CreationDate,2025-10-02T19:52:11+02:00
; #@! TF.GenerationSoftware,Kicad,Pcbnew,9.0.4
; #@! TF.FileFunction,Plated,1,4,PTH
FMAT,2
INCH
; #@! TA.AperFunction,Plated,PTH,ViaDrill
T1C0.0118
; #@! TA.AperFunction,Plated,PTH,ComponentDrill
T2C0.0118
; #@! TA.AperFunction,Plated,PTH,ComponentDrill
T3C0.0236
; #@! TA.AperFunction,Plated,PTH,ComponentDrill
T4C0.0315
; #@! TA.AperFunction,Plated,PTH,ComponentDrill
T5C0.0394
; #@! TA.AperFunction,Plated,PTH,ComponentDrill
T6C0.1260
%
G90
G05
T1
X4.3465Y-3.0079
X4.498Y-4.7736
X4.5374Y-3.9665
X4.5374Y-4.065
X4.6378Y-3.0787
X4.6752Y-4.8031
X4.685Y-4.3588
X4.685Y-4.3996
X4.685Y-4.439
X4.685Y-4.4705
X4.7146Y-3.9665
X4.7146Y-4.065
X4.7638Y-3.3268
X4.7638Y-3.9272
X4.7638Y-4.8622
X4.8327Y-3.435
X4.8327Y-3.7697
X4.872Y-3.435
X4.9016Y-3.563
X4.9508Y-3.189
X4.9508Y-3.248
X4.9508Y-3.3406
X4.9705Y-3.7697
X4.9705Y-4.6457
X4.9902Y-4.9508
X5.0335Y-3.622
X5.0394Y-3.7598
X5.0394Y-4.9508
X5.0591Y-4.5267
X5.0591Y-4.5661
X5.0787Y-4.2717
X5.128Y-4.3799
X5.1452Y-3.4297
X5.1476Y-4.5669
X5.1575Y-3.0413
X5.2067Y-3.2087
X5.2067Y-4.5669
X5.2264Y-3.0807
X5.2323Y-3.686
X5.2362Y-3.622
X5.2461Y-3.2087
X5.2756Y-4.4882
X5.3071Y-4.1535
X5.3642Y-3.4902
X5.3642Y-4.3996
X5.4331Y-2.9232
X5.4626Y-3.3957
X5.5118Y-3.4646
X5.5118Y-3.5138
X5.5364Y-4.7539
X5.5413Y-4.6358
X5.5906Y-2.9232
X5.5906Y-3.061
X5.6496Y-3.061
X5.651Y-2.9232
X5.6693Y-3.2382
X5.7283Y-3.2087
X5.8071Y-2.9232
X5.8858Y-3.2382
X5.8957Y-3.5531
X5.9396Y-3.3425
X5.9396Y-3.3904
X5.9396Y-3.4404
X5.9411Y-3.4904
X5.9449Y-3.6516
X5.9547Y-2.7067
X5.9547Y-2.7362
X5.9547Y-2.7657
X5.9547Y-2.7953
X5.9547Y-2.8248
X5.9843Y-2.7067
X6.0138Y-2.7067
X6.0433Y-2.7067
X6.0728Y-2.7067
X6.0728Y-3.1201
X6.1122Y-3.061
X6.1417Y-3.6516
X6.2598Y-2.7067
X6.2598Y-3.061
X6.2894Y-2.7067
X6.2894Y-3.061
X6.3189Y-2.7067
X6.3189Y-3.061
X6.3189Y-3.2382
X6.3189Y-3.3366
X6.3484Y-2.7067
X6.3484Y-3.061
X6.378Y-2.7067
X6.378Y-2.7362
X6.378Y-3.0315
X6.378Y-3.061
X6.4075Y-2.7067
X6.4075Y-2.7362
X6.4075Y-2.7657
X6.4075Y-3.002
X6.4075Y-3.0315
X6.4075Y-3.061
X6.437Y-2.7067
X6.437Y-2.7362
X6.437Y-2.7657
X6.437Y-3.002
X6.437Y-3.0315
X6.437Y-3.061
X6.5157Y-2.8346
X6.5157Y-2.8642
X6.5157Y-2.8937
X6.5157Y-2.9232
X6.5354Y-3.4646
X6.5551Y-3.2382
X6.624Y-3.8878
X6.6696Y-4.0194
X6.752Y-3.2677
X6.752Y-3.4843
T2
X5.0394Y-3.7953
X5.0866Y-3.7953
X5.0984Y-4.0768
X5.0984Y-4.124
X6.4291Y-3.2382
X6.4764Y-3.2382
T4
X5.7264Y-4.0246
X5.7264Y-4.3996
X5.7264Y-4.7746
X6.4764Y-4.0246
X6.4764Y-4.7746
T5
X4.3799Y-3.5149
X4.3799Y-3.6149
X4.3799Y-3.7149
X4.3799Y-3.877
X4.3799Y-3.977
X4.4799Y-3.5149
X4.4799Y-3.6149
X4.4799Y-3.7149
X4.7146Y-2.687
X4.8146Y-2.687
X4.9146Y-2.687
X5.0146Y-2.687
X5.1146Y-2.687
T6
X4.439Y-2.7461
X4.439Y-5.1083
X6.8012Y-2.7264
X6.8012Y-5.1083
T3
G00X5.45Y-2.685
M15
G01X5.45Y-2.6535
M16
G05
G00X5.45Y-2.8563
M15
G01X5.45Y-2.813
M16
G05
G00X5.7902Y-2.685
M15
G01X5.7902Y-2.6535
M16
G05
G00X5.7902Y-2.8563
M15
G01X5.7902Y-2.813
M16
G05
M30
