%TF.GenerationSoftware,KiCad,Pcbnew,9.0.4*%
%TF.CreationDate,2025-10-02T19:52:11+02:00*%
%TF.ProjectId,gpsdo,67707364-6f2e-46b6-9963-61645f706362,rev?*%
%TF.SameCoordinates,Original*%
%TF.FileFunction,Copper,L4,Bot*%
%TF.FilePolarity,Positive*%
%FSLAX46Y46*%
G04 Gerber Fmt 4.6, Leading zero omitted, Abs format (unit mm)*
G04 Created by KiCad (PCBNEW 9.0.4) date 2025-10-02 19:52:11*
%MOMM*%
%LPD*%
G01*
G04 APERTURE LIST*
G04 Aperture macros list*
%AMRoundRect*
0 Rectangle with rounded corners*
0 $1 Rounding radius*
0 $2 $3 $4 $5 $6 $7 $8 $9 X,Y pos of 4 corners*
0 Add a 4 corners polygon primitive as box body*
4,1,4,$2,$3,$4,$5,$6,$7,$8,$9,$2,$3,0*
0 Add four circle primitives for the rounded corners*
1,1,$1+$1,$2,$3*
1,1,$1+$1,$4,$5*
1,1,$1+$1,$6,$7*
1,1,$1+$1,$8,$9*
0 Add four rect primitives between the rounded corners*
20,1,$1+$1,$2,$3,$4,$5,0*
20,1,$1+$1,$4,$5,$6,$7,0*
20,1,$1+$1,$6,$7,$8,$9,0*
20,1,$1+$1,$8,$9,$2,$3,0*%
G04 Aperture macros list end*
%TA.AperFunction,EtchedComponent*%
%ADD10C,0.000000*%
%TD*%
%TA.AperFunction,ComponentPad*%
%ADD11R,1.700000X1.700000*%
%TD*%
%TA.AperFunction,ComponentPad*%
%ADD12C,1.700000*%
%TD*%
%TA.AperFunction,ConnectorPad*%
%ADD13C,5.600000*%
%TD*%
%TA.AperFunction,ComponentPad*%
%ADD14C,3.600000*%
%TD*%
%TA.AperFunction,SMDPad,CuDef*%
%ADD15RoundRect,0.250000X1.600000X-0.425000X1.600000X0.425000X-1.600000X0.425000X-1.600000X-0.425000X0*%
%TD*%
%TA.AperFunction,HeatsinkPad*%
%ADD16O,1.000000X1.800000*%
%TD*%
%TA.AperFunction,HeatsinkPad*%
%ADD17O,1.000000X2.100000*%
%TD*%
%TA.AperFunction,ComponentPad*%
%ADD18C,0.600000*%
%TD*%
%TA.AperFunction,ComponentPad*%
%ADD19C,2.540000*%
%TD*%
%TA.AperFunction,ViaPad*%
%ADD20C,0.600000*%
%TD*%
%TA.AperFunction,Conductor*%
%ADD21C,0.200000*%
%TD*%
%TA.AperFunction,Conductor*%
%ADD22C,0.600000*%
%TD*%
G04 APERTURE END LIST*
D10*
%TA.AperFunction,EtchedComponent*%
%TO.C,NT1*%
G36*
X129800000Y-104750000D02*
G01*
X129200000Y-104750000D01*
X129200000Y-103550000D01*
X129800000Y-103550000D01*
X129800000Y-104750000D01*
G37*
%TD.AperFunction*%
%TA.AperFunction,EtchedComponent*%
%TO.C,NT2*%
G36*
X129200000Y-96700000D02*
G01*
X128000000Y-96700000D01*
X128000000Y-96100000D01*
X129200000Y-96100000D01*
X129200000Y-96700000D01*
G37*
%TD.AperFunction*%
%TA.AperFunction,EtchedComponent*%
%TO.C,NT3*%
G36*
X164500000Y-82550000D02*
G01*
X163300000Y-82550000D01*
X163300000Y-81950000D01*
X164500000Y-81950000D01*
X164500000Y-82550000D01*
G37*
%TD.AperFunction*%
%TD*%
D11*
%TO.P,J7,1,Pin_1*%
%TO.N,OCXO_5MHZ*%
X119750000Y-68250000D03*
D12*
%TO.P,J7,2,Pin_2*%
%TO.N,OCXO_2.5MHZ*%
X122290000Y-68250000D03*
%TO.P,J7,3,Pin_3*%
%TO.N,OCXO_1.25MHZ*%
X124830000Y-68250000D03*
%TO.P,J7,4,Pin_4*%
%TO.N,OCXO_625KHZ*%
X127370000Y-68250000D03*
%TO.P,J7,5,Pin_5*%
%TO.N,GND*%
X129910000Y-68250000D03*
%TD*%
D13*
%TO.P,REF\u002A\u002A,1*%
%TO.N,N/C*%
X112750000Y-69750000D03*
D14*
X112750000Y-69750000D03*
%TD*%
D12*
%TO.P,J1,2,Pin_2*%
%TO.N,GND*%
X111250000Y-101015000D03*
D11*
%TO.P,J1,1,Pin_1*%
%TO.N,PPS_5V*%
X111250000Y-98475000D03*
%TD*%
D15*
%TO.P,J5,2,Ext*%
%TO.N,GNDA*%
X174587500Y-88575000D03*
X174587500Y-82925000D03*
%TD*%
D13*
%TO.P,REF\u002A\u002A,1*%
%TO.N,N/C*%
X172750000Y-129750000D03*
D14*
X172750000Y-129750000D03*
%TD*%
D16*
%TO.P,J3,S1,SHIELD*%
%TO.N,GND*%
X138430000Y-67800000D03*
D17*
X138430000Y-72000000D03*
D16*
X147070000Y-67800000D03*
D17*
X147070000Y-72000000D03*
%TD*%
D13*
%TO.P,REF\u002A\u002A,1*%
%TO.N,N/C*%
X172750000Y-69250000D03*
D14*
X172750000Y-69250000D03*
%TD*%
D13*
%TO.P,REF\u002A\u002A,1*%
%TO.N,N/C*%
X112750000Y-129750000D03*
D14*
X112750000Y-129750000D03*
%TD*%
D18*
%TO.P,NT1,2,2*%
%TO.N,GND*%
X129500000Y-103550000D03*
%TO.P,NT1,1,1*%
%TO.N,GNDA*%
X129500000Y-104750000D03*
%TD*%
%TO.P,NT2,2,2*%
%TO.N,VDD_3V3*%
X128000000Y-96400000D03*
%TO.P,NT2,1,1*%
%TO.N,VDDA_3V3*%
X129200000Y-96400000D03*
%TD*%
D12*
%TO.P,J2,6,Pin_6*%
%TO.N,GND*%
X113790000Y-94357500D03*
%TO.P,J2,5,Pin_5*%
%TO.N,SWDIO*%
X111250000Y-94357500D03*
%TO.P,J2,4,Pin_4*%
%TO.N,SWCLK*%
X113790000Y-91817500D03*
%TO.P,J2,3,Pin_3*%
%TO.N,SWO*%
X111250000Y-91817500D03*
%TO.P,J2,2,Pin_2*%
%TO.N,NRST*%
X113790000Y-89277500D03*
D11*
%TO.P,J2,1,Pin_1*%
%TO.N,VDD_3V3*%
X111250000Y-89277500D03*
%TD*%
D18*
%TO.P,NT3,2,2*%
%TO.N,GND*%
X163300000Y-82250000D03*
%TO.P,NT3,1,1*%
%TO.N,GNDA*%
X164500000Y-82250000D03*
%TD*%
D19*
%TO.P,OSC5A2B1,5,Vcc*%
%TO.N,VCC_5V*%
X164500000Y-102225000D03*
%TO.P,OSC5A2B1,4,NC*%
%TO.N,unconnected-(OSC5A2B1-NC-Pad4)*%
X164500000Y-121275000D03*
%TO.P,OSC5A2B1,3,Vref*%
%TO.N,Net-(OSC5A2B1-Vref)*%
X145450000Y-121275000D03*
%TO.P,OSC5A2B1,2,GND*%
%TO.N,GNDA*%
X145450000Y-111750000D03*
%TO.P,OSC5A2B1,1,Out*%
%TO.N,OCXO_Out*%
X145450000Y-102225000D03*
%TD*%
D20*
%TO.N,VDD_3V3*%
X129000000Y-108500000D03*
%TO.N,GNDA*%
X134800000Y-105500000D03*
%TO.N,GND*%
X119750000Y-100750000D03*
%TO.N,VDD_3V3*%
X119750000Y-103250000D03*
%TO.N,GND*%
X115250000Y-100750000D03*
%TO.N,VCC_5V*%
X115250000Y-103250000D03*
X151000000Y-92750000D03*
%TO.N,GND*%
X149750000Y-90250000D03*
X149500000Y-82250000D03*
X144000000Y-82250000D03*
%TO.N,VDD_3V3*%
X145500000Y-81500000D03*
%TO.N,OCXO_5MHZ*%
X150905000Y-88655000D03*
%TO.N,OCXO_2.5MHZ*%
X150865000Y-87385000D03*
%TO.N,OCXO_1.25MHZ*%
X150865000Y-86115000D03*
%TO.N,OCXO_625KHZ*%
X150865000Y-84900000D03*
%TO.N,VCC_5V*%
X156000000Y-92750000D03*
%TO.N,GND*%
X160500000Y-84750000D03*
X160500000Y-82250000D03*
%TO.N,VCC_5V*%
X168250000Y-98750000D03*
X126250000Y-118000000D03*
X134000000Y-114000000D03*
%TO.N,GND*%
X126250000Y-95750000D03*
X122750000Y-95750000D03*
X165500000Y-74250000D03*
X152000000Y-68750000D03*
X119000000Y-112750000D03*
X151250000Y-71000000D03*
X138000000Y-74250000D03*
X152750000Y-68750000D03*
X165500000Y-72750000D03*
X151250000Y-68750000D03*
X124500000Y-90500000D03*
X153500000Y-68750000D03*
X136250000Y-88650000D03*
X117800000Y-78200000D03*
X140000000Y-89250000D03*
X165500000Y-73500000D03*
X165500000Y-72000000D03*
X154250000Y-68750000D03*
X128000000Y-95500000D03*
X132250000Y-81500000D03*
X140000000Y-88000000D03*
X155250000Y-77750000D03*
X151250000Y-71750000D03*
X130687500Y-87115000D03*
X151250000Y-70250000D03*
X151250000Y-69500000D03*
X127850000Y-92000000D03*
X125750000Y-84850000D03*
X132750000Y-78250000D03*
X147500000Y-74250000D03*
X122750000Y-87250000D03*
%TO.N,AD5541A_CS*%
X121000000Y-84500000D03*
X121000000Y-99750000D03*
%TO.N,AD5541A_DIN*%
X132900000Y-93625000D03*
X119000000Y-111750000D03*
%TO.N,AD5541A_SCLK*%
X119000000Y-110713343D03*
X133000000Y-92000000D03*
%TO.N,SWCLK*%
X125750000Y-81000000D03*
%TO.N,SWO*%
X125750000Y-82500000D03*
%TO.N,SWDIO*%
X133250000Y-81500000D03*
%TO.N,USB_P*%
X142000000Y-77750000D03*
X142000000Y-74250000D03*
%TO.N,USB_N*%
X143536657Y-74250000D03*
X143500000Y-77750000D03*
%TO.N,GNDA*%
X166500000Y-82250000D03*
X130750000Y-116000000D03*
X166000000Y-88000000D03*
X132250000Y-116000000D03*
X130250000Y-111250000D03*
X171500000Y-83000000D03*
X121000000Y-123500000D03*
X118750000Y-122000000D03*
X140625000Y-120750000D03*
X126750000Y-125750000D03*
X171500000Y-88500000D03*
X128500000Y-115978750D03*
X128000000Y-125750000D03*
X140750000Y-117750000D03*
X169407500Y-102092500D03*
X128500000Y-114978750D03*
X114250000Y-121250000D03*
%TO.N,VDD_3V3*%
X163500000Y-76250000D03*
X159000000Y-77750000D03*
X163500000Y-68750000D03*
X163500000Y-69500000D03*
X162750000Y-68750000D03*
X162750000Y-77000000D03*
X162000000Y-69500000D03*
X163500000Y-77000000D03*
X110400000Y-76400000D03*
X162750000Y-69500000D03*
X159750000Y-68750000D03*
X162000000Y-77000000D03*
X160500000Y-68750000D03*
X162750000Y-76250000D03*
X162000000Y-68750000D03*
X163500000Y-70250000D03*
X162750000Y-70250000D03*
X161250000Y-68750000D03*
X138750000Y-86250000D03*
X119000000Y-113550003D03*
X162750000Y-77750000D03*
X160500000Y-77750000D03*
X162000000Y-77750000D03*
X131000000Y-77250000D03*
X123750000Y-87250000D03*
X159750000Y-77750000D03*
X136250000Y-111750000D03*
X159000000Y-68750000D03*
X163500000Y-77750000D03*
X161250000Y-77750000D03*
%TO.N,VCC_5V*%
X154250000Y-79250000D03*
%TD*%
D21*
%TO.N,AD5541A_CS*%
X121000000Y-84500000D02*
X121000000Y-99750000D01*
%TO.N,OCXO_5MHZ*%
X135750000Y-82000000D02*
X142405000Y-88655000D01*
X135750000Y-79250000D02*
X135750000Y-82000000D01*
X142405000Y-88655000D02*
X150905000Y-88655000D01*
X125500000Y-76500000D02*
X133000000Y-76500000D01*
X133000000Y-76500000D02*
X135750000Y-79250000D01*
X119750000Y-70750000D02*
X125500000Y-76500000D01*
X119750000Y-68250000D02*
X119750000Y-70750000D01*
D22*
%TO.N,VCC_5V*%
X115250000Y-116250000D02*
X115250000Y-103250000D01*
X117000000Y-118000000D02*
X115250000Y-116250000D01*
X126250000Y-118000000D02*
X117000000Y-118000000D01*
X154250000Y-79250000D02*
X156000000Y-81000000D01*
X156000000Y-81000000D02*
X156000000Y-92750000D01*
X157750000Y-98000000D02*
X156000000Y-96250000D01*
X167500000Y-98000000D02*
X157750000Y-98000000D01*
X168250000Y-98750000D02*
X167500000Y-98000000D01*
X156000000Y-96250000D02*
X156000000Y-92750000D01*
X151000000Y-92750000D02*
X139250000Y-92750000D01*
D21*
%TO.N,OCXO_625KHZ*%
X150865000Y-84900000D02*
X143150000Y-84900000D01*
X139000000Y-80750000D02*
X143150000Y-84900000D01*
X130250000Y-73500000D02*
X134250000Y-73500000D01*
X134250000Y-73500000D02*
X139000000Y-78250000D01*
X139000000Y-78250000D02*
X139000000Y-80750000D01*
X127370000Y-70620000D02*
X130250000Y-73500000D01*
X127370000Y-68250000D02*
X127370000Y-70620000D01*
%TO.N,OCXO_1.25MHZ*%
X137750000Y-81099943D02*
X142765057Y-86115000D01*
X133500000Y-74500000D02*
X137750000Y-78750000D01*
X142765057Y-86115000D02*
X150865000Y-86115000D01*
X124830000Y-70580000D02*
X128750000Y-74500000D01*
X128750000Y-74500000D02*
X133500000Y-74500000D01*
X124830000Y-68250000D02*
X124830000Y-70580000D01*
X137750000Y-78750000D02*
X137750000Y-81099943D01*
%TO.N,OCXO_2.5MHZ*%
X136750000Y-81500000D02*
X142635000Y-87385000D01*
X133250000Y-75500000D02*
X136750000Y-79000000D01*
X142635000Y-87385000D02*
X150885000Y-87385000D01*
X127000000Y-75500000D02*
X133250000Y-75500000D01*
X122290000Y-70790000D02*
X127000000Y-75500000D01*
X122290000Y-68250000D02*
X122290000Y-70790000D01*
X136750000Y-79000000D02*
X136750000Y-81500000D01*
D22*
%TO.N,VCC_5V*%
X134000000Y-98000000D02*
X134000000Y-114000000D01*
X139250000Y-92750000D02*
X134000000Y-98000000D01*
X151000000Y-92750000D02*
X156000000Y-92750000D01*
X132250000Y-118000000D02*
X134000000Y-116250000D01*
X134000000Y-116250000D02*
X134000000Y-114000000D01*
X126250000Y-118000000D02*
X132250000Y-118000000D01*
D21*
%TO.N,AD5541A_DIN*%
X118250000Y-108000000D02*
X121750000Y-104500000D01*
X124250000Y-104500000D02*
X132900000Y-95850000D01*
X121750000Y-104500000D02*
X124250000Y-104500000D01*
X118250000Y-111000000D02*
X118250000Y-108000000D01*
X132900000Y-95850000D02*
X132900000Y-93625000D01*
X119000000Y-111750000D02*
X118250000Y-111000000D01*
%TO.N,AD5541A_SCLK*%
X119000000Y-110613343D02*
X119100000Y-110713343D01*
X133000000Y-92000000D02*
X133500000Y-92500000D01*
X128054167Y-101570830D02*
X127771325Y-101853674D01*
X119000000Y-108250000D02*
X119000000Y-110613343D01*
X124625000Y-105000000D02*
X122250000Y-105000000D01*
X129503506Y-101521102D02*
X129418653Y-101605956D01*
X128549144Y-101075859D02*
X128549144Y-101075856D01*
X128337011Y-101005145D02*
X128054167Y-101287988D01*
X124625000Y-105000000D02*
X127771325Y-101853674D01*
X129143114Y-100821298D02*
X129503506Y-101181690D01*
X128549144Y-101075859D02*
X129079241Y-101605956D01*
X133500000Y-96125000D02*
X129143114Y-100481886D01*
X119100000Y-110713343D02*
X119000000Y-110713343D01*
X133500000Y-92500000D02*
X133500000Y-96125000D01*
X122250000Y-105000000D02*
X119000000Y-108250000D01*
X128549144Y-101075856D02*
X128478433Y-101005145D01*
X129143114Y-100481886D02*
G75*
G03*
X129143106Y-100821306I169686J-169714D01*
G01*
X129418653Y-101605956D02*
G75*
G02*
X129079241Y-101605956I-169706J169708D01*
G01*
X129503506Y-101181690D02*
G75*
G02*
X129503510Y-101521106I-169706J-169710D01*
G01*
X128478433Y-101005145D02*
G75*
G03*
X128337011Y-101005145I-70711J-70713D01*
G01*
X128054167Y-101287988D02*
G75*
G03*
X128054165Y-101429410I70733J-70712D01*
G01*
X128054167Y-101429409D02*
G75*
G02*
X128054148Y-101570810I-70667J-70691D01*
G01*
%TO.N,SWCLK*%
X117250000Y-81000000D02*
X115500000Y-82750000D01*
X115500000Y-90107500D02*
X113790000Y-91817500D01*
X115500000Y-82750000D02*
X115500000Y-90107500D01*
X125750000Y-81000000D02*
X117250000Y-81000000D01*
%TO.N,SWO*%
X116500000Y-83750000D02*
X116500000Y-90735260D01*
X116500000Y-90735260D02*
X114266760Y-92968500D01*
X114266760Y-92968500D02*
X112401000Y-92968500D01*
X125750000Y-82500000D02*
X117750000Y-82500000D01*
X117750000Y-82500000D02*
X116500000Y-83750000D01*
X112401000Y-92968500D02*
X111250000Y-91817500D01*
%TO.N,USB_P*%
X142000000Y-74250000D02*
X142000000Y-77750000D01*
%TO.N,USB_N*%
X143536657Y-77713343D02*
X143500000Y-77750000D01*
X143536657Y-74250000D02*
X143536657Y-77713343D01*
D22*
%TO.N,GNDA*%
X174587500Y-88575000D02*
X171575000Y-88575000D01*
X171575000Y-82925000D02*
X171500000Y-83000000D01*
X171575000Y-88575000D02*
X171500000Y-88500000D01*
X174587500Y-82925000D02*
X171575000Y-82925000D01*
D21*
%TO.N,SWDIO*%
X112401000Y-95508500D02*
X111250000Y-94357500D01*
X114266760Y-95508500D02*
X117500000Y-92275260D01*
X114266760Y-95508500D02*
X112401000Y-95508500D01*
X131750000Y-83500000D02*
X118750000Y-83500000D01*
X117500000Y-92275260D02*
X117500000Y-84750000D01*
X133250000Y-82000000D02*
X131750000Y-83500000D01*
X118750000Y-83500000D02*
X117500000Y-84750000D01*
X133250000Y-81500000D02*
X133250000Y-82000000D01*
%TD*%
M02*
