%TF.GenerationSoftware,KiCad,Pcbnew,9.0.4*%
%TF.CreationDate,2025-10-04T20:06:30+02:00*%
%TF.ProjectId,gpsdo,67707364-6f2e-46b6-9963-61645f706362,rev?*%
%TF.SameCoordinates,Original*%
%TF.FileFunction,Copper,L1,Top*%
%TF.FilePolarity,Positive*%
%FSLAX46Y46*%
G04 Gerber Fmt 4.6, Leading zero omitted, Abs format (unit mm)*
G04 Created by KiCad (PCBNEW 9.0.4) date 2025-10-04 20:06:30*
%MOMM*%
%LPD*%
G01*
G04 APERTURE LIST*
G04 Aperture macros list*
%AMRoundRect*
0 Rectangle with rounded corners*
0 $1 Rounding radius*
0 $2 $3 $4 $5 $6 $7 $8 $9 X,Y pos of 4 corners*
0 Add a 4 corners polygon primitive as box body*
4,1,4,$2,$3,$4,$5,$6,$7,$8,$9,$2,$3,0*
0 Add four circle primitives for the rounded corners*
1,1,$1+$1,$2,$3*
1,1,$1+$1,$4,$5*
1,1,$1+$1,$6,$7*
1,1,$1+$1,$8,$9*
0 Add four rect primitives between the rounded corners*
20,1,$1+$1,$2,$3,$4,$5,0*
20,1,$1+$1,$4,$5,$6,$7,0*
20,1,$1+$1,$6,$7,$8,$9,0*
20,1,$1+$1,$8,$9,$2,$3,0*%
%AMRotRect*
0 Rectangle, with rotation*
0 The origin of the aperture is its center*
0 $1 length*
0 $2 width*
0 $3 Rotation angle, in degrees counterclockwise*
0 Add horizontal line*
21,1,$1,$2,0,0,$3*%
G04 Aperture macros list end*
%TA.AperFunction,EtchedComponent*%
%ADD10C,0.000000*%
%TD*%
%TA.AperFunction,SMDPad,CuDef*%
%ADD11RoundRect,0.218750X0.218750X0.256250X-0.218750X0.256250X-0.218750X-0.256250X0.218750X-0.256250X0*%
%TD*%
%TA.AperFunction,SMDPad,CuDef*%
%ADD12RoundRect,0.200000X-0.200000X-0.275000X0.200000X-0.275000X0.200000X0.275000X-0.200000X0.275000X0*%
%TD*%
%TA.AperFunction,SMDPad,CuDef*%
%ADD13RoundRect,0.200000X0.200000X0.275000X-0.200000X0.275000X-0.200000X-0.275000X0.200000X-0.275000X0*%
%TD*%
%TA.AperFunction,SMDPad,CuDef*%
%ADD14RoundRect,0.200000X0.275000X-0.200000X0.275000X0.200000X-0.275000X0.200000X-0.275000X-0.200000X0*%
%TD*%
%TA.AperFunction,SMDPad,CuDef*%
%ADD15RoundRect,0.225000X0.225000X0.250000X-0.225000X0.250000X-0.225000X-0.250000X0.225000X-0.250000X0*%
%TD*%
%TA.AperFunction,SMDPad,CuDef*%
%ADD16RoundRect,0.225000X-0.225000X-0.250000X0.225000X-0.250000X0.225000X0.250000X-0.225000X0.250000X0*%
%TD*%
%TA.AperFunction,SMDPad,CuDef*%
%ADD17RoundRect,0.225000X-0.250000X0.225000X-0.250000X-0.225000X0.250000X-0.225000X0.250000X0.225000X0*%
%TD*%
%TA.AperFunction,SMDPad,CuDef*%
%ADD18RoundRect,0.225000X0.250000X-0.225000X0.250000X0.225000X-0.250000X0.225000X-0.250000X-0.225000X0*%
%TD*%
%TA.AperFunction,SMDPad,CuDef*%
%ADD19RoundRect,0.250000X0.325000X0.450000X-0.325000X0.450000X-0.325000X-0.450000X0.325000X-0.450000X0*%
%TD*%
%TA.AperFunction,SMDPad,CuDef*%
%ADD20RoundRect,0.150000X-0.825000X-0.150000X0.825000X-0.150000X0.825000X0.150000X-0.825000X0.150000X0*%
%TD*%
%TA.AperFunction,ComponentPad*%
%ADD21C,3.600000*%
%TD*%
%TA.AperFunction,ConnectorPad*%
%ADD22C,5.600000*%
%TD*%
%TA.AperFunction,ComponentPad*%
%ADD23R,1.700000X1.700000*%
%TD*%
%TA.AperFunction,ComponentPad*%
%ADD24C,1.700000*%
%TD*%
%TA.AperFunction,SMDPad,CuDef*%
%ADD25C,1.500000*%
%TD*%
%TA.AperFunction,SMDPad,CuDef*%
%ADD26RoundRect,0.250000X-0.350000X0.450000X-0.350000X-0.450000X0.350000X-0.450000X0.350000X0.450000X0*%
%TD*%
%TA.AperFunction,SMDPad,CuDef*%
%ADD27RoundRect,0.250000X1.350000X-0.385000X1.350000X0.385000X-1.350000X0.385000X-1.350000X-0.385000X0*%
%TD*%
%TA.AperFunction,SMDPad,CuDef*%
%ADD28RoundRect,0.250000X1.600000X-0.425000X1.600000X0.425000X-1.600000X0.425000X-1.600000X-0.425000X0*%
%TD*%
%TA.AperFunction,SMDPad,CuDef*%
%ADD29RoundRect,0.062500X-0.220971X-0.309359X0.309359X0.220971X0.220971X0.309359X-0.309359X-0.220971X0*%
%TD*%
%TA.AperFunction,SMDPad,CuDef*%
%ADD30RoundRect,0.062500X0.220971X-0.309359X0.309359X-0.220971X-0.220971X0.309359X-0.309359X0.220971X0*%
%TD*%
%TA.AperFunction,HeatsinkPad*%
%ADD31RotRect,5.600000X5.600000X45.000000*%
%TD*%
%TA.AperFunction,SMDPad,CuDef*%
%ADD32RoundRect,0.375000X-0.625000X-0.375000X0.625000X-0.375000X0.625000X0.375000X-0.625000X0.375000X0*%
%TD*%
%TA.AperFunction,SMDPad,CuDef*%
%ADD33RoundRect,0.500000X-0.500000X-1.400000X0.500000X-1.400000X0.500000X1.400000X-0.500000X1.400000X0*%
%TD*%
%TA.AperFunction,SMDPad,CuDef*%
%ADD34RoundRect,0.150000X-0.512500X-0.150000X0.512500X-0.150000X0.512500X0.150000X-0.512500X0.150000X0*%
%TD*%
%TA.AperFunction,SMDPad,CuDef*%
%ADD35RoundRect,0.100000X0.225000X0.100000X-0.225000X0.100000X-0.225000X-0.100000X0.225000X-0.100000X0*%
%TD*%
%TA.AperFunction,SMDPad,CuDef*%
%ADD36R,0.600000X1.240000*%
%TD*%
%TA.AperFunction,SMDPad,CuDef*%
%ADD37R,0.300000X1.240000*%
%TD*%
%TA.AperFunction,HeatsinkPad*%
%ADD38O,1.000000X2.100000*%
%TD*%
%TA.AperFunction,HeatsinkPad*%
%ADD39O,1.000000X1.800000*%
%TD*%
%TA.AperFunction,SMDPad,CuDef*%
%ADD40RoundRect,0.087500X0.725000X0.087500X-0.725000X0.087500X-0.725000X-0.087500X0.725000X-0.087500X0*%
%TD*%
%TA.AperFunction,SMDPad,CuDef*%
%ADD41RoundRect,0.100000X-0.225000X-0.100000X0.225000X-0.100000X0.225000X0.100000X-0.225000X0.100000X0*%
%TD*%
%TA.AperFunction,SMDPad,CuDef*%
%ADD42RoundRect,0.150000X0.825000X0.150000X-0.825000X0.150000X-0.825000X-0.150000X0.825000X-0.150000X0*%
%TD*%
%TA.AperFunction,ComponentPad*%
%ADD43C,0.600000*%
%TD*%
%TA.AperFunction,SMDPad,CuDef*%
%ADD44RoundRect,0.150000X0.725000X0.150000X-0.725000X0.150000X-0.725000X-0.150000X0.725000X-0.150000X0*%
%TD*%
%TA.AperFunction,SMDPad,CuDef*%
%ADD45C,1.000000*%
%TD*%
%TA.AperFunction,ComponentPad*%
%ADD46C,2.540000*%
%TD*%
%TA.AperFunction,ViaPad*%
%ADD47C,0.600000*%
%TD*%
%TA.AperFunction,Conductor*%
%ADD48C,0.600000*%
%TD*%
%TA.AperFunction,Conductor*%
%ADD49C,0.200000*%
%TD*%
%TA.AperFunction,Conductor*%
%ADD50C,1.000000*%
%TD*%
G04 APERTURE END LIST*
D10*
%TA.AperFunction,EtchedComponent*%
%TO.C,NT1*%
G36*
X129800000Y-104750000D02*
G01*
X129200000Y-104750000D01*
X129200000Y-103550000D01*
X129800000Y-103550000D01*
X129800000Y-104750000D01*
G37*
%TD.AperFunction*%
%TA.AperFunction,EtchedComponent*%
%TO.C,NT2*%
G36*
X129550000Y-96450000D02*
G01*
X128950000Y-96450000D01*
X128950000Y-95250000D01*
X129550000Y-95250000D01*
X129550000Y-96450000D01*
G37*
%TD.AperFunction*%
%TA.AperFunction,EtchedComponent*%
%TO.C,NT3*%
G36*
X171190000Y-79850000D02*
G01*
X170590000Y-79850000D01*
X170590000Y-78650000D01*
X171190000Y-78650000D01*
X171190000Y-79850000D01*
G37*
%TD.AperFunction*%
%TD*%
D11*
%TO.P,L1,1,1*%
%TO.N,VCC_5V*%
X132287500Y-113250000D03*
%TO.P,L1,2,2*%
%TO.N,Net-(U4-VDD)*%
X130712500Y-113250000D03*
%TD*%
D12*
%TO.P,TH1,1*%
%TO.N,OCXO_Temperature*%
X139175000Y-111500000D03*
%TO.P,TH1,2*%
%TO.N,GNDA*%
X140825000Y-111500000D03*
%TD*%
D13*
%TO.P,R18,2*%
%TO.N,Net-(R18-Pad2)*%
X169425000Y-85750000D03*
%TO.P,R18,1*%
%TO.N,Net-(J5-In)*%
X171075000Y-85750000D03*
%TD*%
%TO.P,R17,2*%
%TO.N,VDD_3V3*%
X135925000Y-111500000D03*
%TO.P,R17,1*%
%TO.N,OCXO_Temperature*%
X137575000Y-111500000D03*
%TD*%
D14*
%TO.P,R16,1*%
%TO.N,VCC_5V*%
X136000000Y-70825000D03*
%TO.P,R16,2*%
%TO.N,Net-(J3-CC2)*%
X136000000Y-69175000D03*
%TD*%
%TO.P,R15,1*%
%TO.N,VCC_5V*%
X149250000Y-70825000D03*
%TO.P,R15,2*%
%TO.N,Net-(J3-CC1)*%
X149250000Y-69175000D03*
%TD*%
D13*
%TO.P,R14,1*%
%TO.N,GND*%
X116975000Y-78150000D03*
%TO.P,R14,2*%
%TO.N,Net-(D3-K)*%
X115325000Y-78150000D03*
%TD*%
%TO.P,R13,1*%
%TO.N,LED2*%
X116975000Y-80900000D03*
%TO.P,R13,2*%
%TO.N,Net-(D2-K)*%
X115325000Y-80900000D03*
%TD*%
%TO.P,R12,1*%
%TO.N,LED1*%
X116975000Y-83650000D03*
%TO.P,R12,2*%
%TO.N,Net-(D1-K)*%
X115325000Y-83650000D03*
%TD*%
%TO.P,R9,1*%
%TO.N,Net-(U6-BOOT0)*%
X124142500Y-83500000D03*
%TO.P,R9,2*%
%TO.N,GND*%
X122492500Y-83500000D03*
%TD*%
D14*
%TO.P,R8,1*%
%TO.N,V_OCXO_Buffer*%
X127750000Y-120000000D03*
%TO.P,R8,2*%
%TO.N,DAC_Vref*%
X127750000Y-118350000D03*
%TD*%
D13*
%TO.P,R7,1*%
%TO.N,AD5541A_CS*%
X127075000Y-109000000D03*
%TO.P,R7,2*%
%TO.N,VDD_3V3*%
X125425000Y-109000000D03*
%TD*%
%TO.P,R6,1*%
%TO.N,Net-(U4-SCLK)*%
X122075000Y-110500000D03*
%TO.P,R6,2*%
%TO.N,AD5541A_SCLK*%
X120425000Y-110500000D03*
%TD*%
%TO.P,R5,1*%
%TO.N,Net-(U4-DIN)*%
X122075000Y-112000000D03*
%TO.P,R5,2*%
%TO.N,AD5541A_DIN*%
X120425000Y-112000000D03*
%TD*%
D12*
%TO.P,R4,1*%
%TO.N,Net-(U3-Vout)*%
X114675000Y-119500000D03*
%TO.P,R4,2*%
%TO.N,Net-(U5-+)*%
X116325000Y-119500000D03*
%TD*%
%TO.P,R1,1*%
%TO.N,OCXO_Vref*%
X130675000Y-111500000D03*
%TO.P,R1,2*%
%TO.N,Net-(OSC5A2B1-Vref)*%
X132325000Y-111500000D03*
%TD*%
D15*
%TO.P,C36,1*%
%TO.N,VCC_5V*%
X167775000Y-81250000D03*
%TO.P,C36,2*%
%TO.N,GNDA*%
X166225000Y-81250000D03*
%TD*%
D16*
%TO.P,C30,1*%
%TO.N,VDD_3V3*%
X163132500Y-72250000D03*
%TO.P,C30,2*%
%TO.N,GND*%
X164682500Y-72250000D03*
%TD*%
%TO.P,C29,1*%
%TO.N,VDD_3V3*%
X163132500Y-70750000D03*
%TO.P,C29,2*%
%TO.N,GND*%
X164682500Y-70750000D03*
%TD*%
%TO.P,C28,1*%
%TO.N,VCC_5V*%
X152975000Y-77750000D03*
%TO.P,C28,2*%
%TO.N,GND*%
X154525000Y-77750000D03*
%TD*%
D17*
%TO.P,C26,1*%
%TO.N,VDDA_3V3*%
X127750000Y-94475000D03*
%TO.P,C26,2*%
%TO.N,GND*%
X127750000Y-96025000D03*
%TD*%
D16*
%TO.P,C25,1*%
%TO.N,VDD_3V3*%
X130475000Y-77250000D03*
%TO.P,C25,2*%
%TO.N,GND*%
X132025000Y-77250000D03*
%TD*%
%TO.P,C18,1*%
%TO.N,Net-(U6-VCAP1)*%
X137725000Y-90750000D03*
%TO.P,C18,2*%
%TO.N,GND*%
X139275000Y-90750000D03*
%TD*%
D15*
%TO.P,C17,1*%
%TO.N,OSC_OUT*%
X123125000Y-95900000D03*
%TO.P,C17,2*%
%TO.N,GND*%
X121575000Y-95900000D03*
%TD*%
%TO.P,C13,1*%
%TO.N,Net-(U3-Vout)*%
X116275000Y-121292500D03*
%TO.P,C13,2*%
%TO.N,GNDA*%
X114725000Y-121292500D03*
%TD*%
D16*
%TO.P,C12,1*%
%TO.N,Net-(U3-Trim{slash}NR)*%
X118432500Y-123250000D03*
%TO.P,C12,2*%
%TO.N,GNDA*%
X119982500Y-123250000D03*
%TD*%
%TO.P,C10,1*%
%TO.N,DAC_Vref*%
X126225000Y-116500000D03*
%TO.P,C10,2*%
%TO.N,GNDA*%
X127775000Y-116500000D03*
%TD*%
D18*
%TO.P,C6,1*%
%TO.N,VCC_5V*%
X128500000Y-128160000D03*
%TO.P,C6,2*%
%TO.N,GNDA*%
X128500000Y-126610000D03*
%TD*%
%TO.P,C3,1*%
%TO.N,Net-(OSC5A2B1-Vref)*%
X141007500Y-119775000D03*
%TO.P,C3,2*%
%TO.N,GNDA*%
X141007500Y-118225000D03*
%TD*%
%TO.P,C40,1*%
%TO.N,VDD_3V3*%
X120800000Y-102775000D03*
%TO.P,C40,2*%
%TO.N,GND*%
X120800000Y-101225000D03*
%TD*%
D15*
%TO.P,C39,1*%
%TO.N,VDD_3V3*%
X145775000Y-81750000D03*
%TO.P,C39,2*%
%TO.N,GND*%
X144225000Y-81750000D03*
%TD*%
D16*
%TO.P,C38,1*%
%TO.N,VCC_5V*%
X147725000Y-81750000D03*
%TO.P,C38,2*%
%TO.N,GND*%
X149275000Y-81750000D03*
%TD*%
D15*
%TO.P,C37,1*%
%TO.N,VCC_5V*%
X167775000Y-82750000D03*
%TO.P,C37,2*%
%TO.N,GNDA*%
X166225000Y-82750000D03*
%TD*%
D17*
%TO.P,C35,1*%
%TO.N,VCC_5V*%
X150500000Y-76725000D03*
%TO.P,C35,2*%
%TO.N,GND*%
X150500000Y-78275000D03*
%TD*%
%TO.P,C34,1*%
%TO.N,VCC_5V*%
X148750000Y-76725000D03*
%TO.P,C34,2*%
%TO.N,GND*%
X148750000Y-78275000D03*
%TD*%
D16*
%TO.P,C33,1*%
%TO.N,VDD_3V3*%
X163132500Y-75500000D03*
%TO.P,C33,2*%
%TO.N,GND*%
X164682500Y-75500000D03*
%TD*%
D15*
%TO.P,C32,1*%
%TO.N,OCXO_Temperature*%
X135525000Y-105250000D03*
%TO.P,C32,2*%
%TO.N,GNDA*%
X133975000Y-105250000D03*
%TD*%
D16*
%TO.P,C31,1*%
%TO.N,VDD_3V3*%
X163132500Y-74000000D03*
%TO.P,C31,2*%
%TO.N,GND*%
X164682500Y-74000000D03*
%TD*%
D17*
%TO.P,C27,1*%
%TO.N,VDDA_3V3*%
X126250000Y-94475000D03*
%TO.P,C27,2*%
%TO.N,GND*%
X126250000Y-96025000D03*
%TD*%
%TO.P,C24,1*%
%TO.N,VDD_3V3*%
X139250000Y-86907500D03*
%TO.P,C24,2*%
%TO.N,GND*%
X139250000Y-88457500D03*
%TD*%
D16*
%TO.P,C23,1*%
%TO.N,VDD_3V3*%
X130475000Y-78750000D03*
%TO.P,C23,2*%
%TO.N,GND*%
X132025000Y-78750000D03*
%TD*%
D15*
%TO.P,C22,1*%
%TO.N,VDD_3V3*%
X124092500Y-86500000D03*
%TO.P,C22,2*%
%TO.N,GND*%
X122542500Y-86500000D03*
%TD*%
D17*
%TO.P,C21,1*%
%TO.N,VDD_3V3*%
X137750000Y-86907500D03*
%TO.P,C21,2*%
%TO.N,GND*%
X137750000Y-88457500D03*
%TD*%
D16*
%TO.P,C20,1*%
%TO.N,VDD_3V3*%
X130475000Y-80250000D03*
%TO.P,C20,2*%
%TO.N,GND*%
X132025000Y-80250000D03*
%TD*%
D15*
%TO.P,C19,1*%
%TO.N,VDD_3V3*%
X124092500Y-85000000D03*
%TO.P,C19,2*%
%TO.N,GND*%
X122542500Y-85000000D03*
%TD*%
D18*
%TO.P,C15,1*%
%TO.N,VDD_3V3*%
X122000000Y-115025000D03*
%TO.P,C15,2*%
%TO.N,GND*%
X122000000Y-113475000D03*
%TD*%
D15*
%TO.P,C14,1*%
%TO.N,Net-(U3-Vout)*%
X116275000Y-123250000D03*
%TO.P,C14,2*%
%TO.N,GNDA*%
X114725000Y-123250000D03*
%TD*%
D16*
%TO.P,C11,1*%
%TO.N,DAC_Vref*%
X126250000Y-114750000D03*
%TO.P,C11,2*%
%TO.N,GNDA*%
X127800000Y-114750000D03*
%TD*%
D17*
%TO.P,C9,1*%
%TO.N,Net-(U4-VDD)*%
X130500000Y-114975000D03*
%TO.P,C9,2*%
%TO.N,GNDA*%
X130500000Y-116525000D03*
%TD*%
D18*
%TO.P,C8,1*%
%TO.N,VCC_5V*%
X126932500Y-128160000D03*
%TO.P,C8,2*%
%TO.N,GNDA*%
X126932500Y-126610000D03*
%TD*%
D17*
%TO.P,C7,1*%
%TO.N,VCC_5V*%
X132500000Y-114975000D03*
%TO.P,C7,2*%
%TO.N,GNDA*%
X132500000Y-116525000D03*
%TD*%
%TO.P,C5,1*%
%TO.N,VCC_5V*%
X169000000Y-102225000D03*
%TO.P,C5,2*%
%TO.N,GNDA*%
X169000000Y-103775000D03*
%TD*%
%TO.P,C4,1*%
%TO.N,Net-(OSC5A2B1-Vref)*%
X141000000Y-121475000D03*
%TO.P,C4,2*%
%TO.N,GNDA*%
X141000000Y-123025000D03*
%TD*%
D18*
%TO.P,C2,1*%
%TO.N,VCC_5V*%
X116000000Y-102775000D03*
%TO.P,C2,2*%
%TO.N,GND*%
X116000000Y-101225000D03*
%TD*%
%TO.P,C1,1*%
%TO.N,VCC_5V*%
X151000000Y-91525000D03*
%TO.P,C1,2*%
%TO.N,GND*%
X151000000Y-89975000D03*
%TD*%
D19*
%TO.P,D3,1,K*%
%TO.N,Net-(D3-K)*%
X112425000Y-78150000D03*
%TO.P,D3,2,A*%
%TO.N,VDD_3V3*%
X110375000Y-78150000D03*
%TD*%
D20*
%TO.P,U5,1,NC*%
%TO.N,unconnected-(U5-NC-Pad1)*%
X118732500Y-116862500D03*
%TO.P,U5,2,-*%
%TO.N,V_OCXO_Buffer*%
X118732500Y-118132500D03*
%TO.P,U5,3,+*%
%TO.N,Net-(U5-+)*%
X118732500Y-119402500D03*
%TO.P,U5,4,V-*%
%TO.N,GNDA*%
X118732500Y-120672500D03*
%TO.P,U5,5,NC*%
%TO.N,unconnected-(U5-NC-Pad5)*%
X123682500Y-120672500D03*
%TO.P,U5,6*%
%TO.N,V_OCXO_Buffer*%
X123682500Y-119402500D03*
%TO.P,U5,7,V+*%
%TO.N,VCC_5V*%
X123682500Y-118132500D03*
%TO.P,U5,8,NC*%
%TO.N,unconnected-(U5-NC-Pad8)*%
X123682500Y-116862500D03*
%TD*%
D21*
%TO.P,REF\u002A\u002A,1*%
%TO.N,N/C*%
X112750000Y-69750000D03*
D22*
X112750000Y-69750000D03*
%TD*%
D23*
%TO.P,J1,1,Pin_1*%
%TO.N,PPS_5V*%
X111250000Y-98475000D03*
D24*
%TO.P,J1,2,Pin_2*%
%TO.N,GND*%
X111250000Y-101015000D03*
%TD*%
D23*
%TO.P,J7,1,Pin_1*%
%TO.N,OCXO_5MHZ*%
X119750000Y-68250000D03*
D24*
%TO.P,J7,2,Pin_2*%
%TO.N,OCXO_2.5MHZ*%
X122290000Y-68250000D03*
%TO.P,J7,3,Pin_3*%
%TO.N,OCXO_1.25MHZ*%
X124830000Y-68250000D03*
%TO.P,J7,4,Pin_4*%
%TO.N,OCXO_625KHZ*%
X127370000Y-68250000D03*
%TO.P,J7,5,Pin_5*%
%TO.N,GND*%
X129910000Y-68250000D03*
%TD*%
D25*
%TO.P,TP3,1,1*%
%TO.N,DAC_Vref*%
X131250000Y-120000000D03*
%TD*%
D26*
%TO.P,X1,1,1*%
%TO.N,OSC_IN*%
X121500000Y-91800000D03*
%TO.P,X1,2,2*%
%TO.N,GND*%
X121500000Y-94000000D03*
%TO.P,X1,3,3*%
%TO.N,OSC_OUT*%
X123200000Y-94000000D03*
%TO.P,X1,4,4*%
%TO.N,GND*%
X123200000Y-91800000D03*
%TD*%
D27*
%TO.P,J5,1,In*%
%TO.N,Net-(J5-In)*%
X174837500Y-85750000D03*
D28*
%TO.P,J5,2,Ext*%
%TO.N,GNDA*%
X174587500Y-82925000D03*
X174587500Y-88575000D03*
%TD*%
D29*
%TO.P,U6,1,VBAT*%
%TO.N,VDD_3V3*%
X126312277Y-87601136D03*
%TO.P,U6,2,PC13*%
%TO.N,LED2*%
X126665830Y-87954689D03*
%TO.P,U6,3,PC14*%
%TO.N,LED1*%
X127019384Y-88308243D03*
%TO.P,U6,4,PC15*%
%TO.N,unconnected-(U6-PC15-Pad4)*%
X127372937Y-88661796D03*
%TO.P,U6,5,PH0*%
%TO.N,OSC_IN*%
X127726490Y-89015349D03*
%TO.P,U6,6,PH1*%
%TO.N,OSC_OUT*%
X128080044Y-89368903D03*
%TO.P,U6,7,NRST*%
%TO.N,NRST*%
X128433597Y-89722456D03*
%TO.P,U6,8,VSSA*%
%TO.N,GND*%
X128787151Y-90076010D03*
%TO.P,U6,9,VDDA*%
%TO.N,VDDA_3V3*%
X129140704Y-90429563D03*
%TO.P,U6,10,PA0*%
%TO.N,PPS_3V3*%
X129494257Y-90783116D03*
%TO.P,U6,11,PA1*%
%TO.N,OCXO_Vref*%
X129847811Y-91136670D03*
%TO.P,U6,12,PA2*%
%TO.N,unconnected-(U6-PA2-Pad12)*%
X130201364Y-91490223D03*
D30*
%TO.P,U6,13,PA3*%
%TO.N,OCXO_Temperature*%
X131173636Y-91490223D03*
%TO.P,U6,14,PA4*%
%TO.N,unconnected-(U6-PA4-Pad14)*%
X131527189Y-91136670D03*
%TO.P,U6,15,PA5*%
%TO.N,AD5541A_SCLK*%
X131880743Y-90783116D03*
%TO.P,U6,16,PA6*%
%TO.N,unconnected-(U6-PA6-Pad16)*%
X132234296Y-90429563D03*
%TO.P,U6,17,PA7*%
%TO.N,AD5541A_DIN*%
X132587849Y-90076010D03*
%TO.P,U6,18,PB0*%
%TO.N,unconnected-(U6-PB0-Pad18)*%
X132941403Y-89722456D03*
%TO.P,U6,19,PB1*%
%TO.N,unconnected-(U6-PB1-Pad19)*%
X133294956Y-89368903D03*
%TO.P,U6,20,PB2*%
%TO.N,unconnected-(U6-PB2-Pad20)*%
X133648510Y-89015349D03*
%TO.P,U6,21,PB10*%
%TO.N,unconnected-(U6-PB10-Pad21)*%
X134002063Y-88661796D03*
%TO.P,U6,22,VCAP1*%
%TO.N,Net-(U6-VCAP1)*%
X134355616Y-88308243D03*
%TO.P,U6,23,VSS*%
%TO.N,GND*%
X134709170Y-87954689D03*
%TO.P,U6,24,VDD*%
%TO.N,VDD_3V3*%
X135062723Y-87601136D03*
D29*
%TO.P,U6,25,PB12*%
%TO.N,unconnected-(U6-PB12-Pad25)*%
X135062723Y-86628864D03*
%TO.P,U6,26,PB13*%
%TO.N,unconnected-(U6-PB13-Pad26)*%
X134709170Y-86275311D03*
%TO.P,U6,27,PB14*%
%TO.N,unconnected-(U6-PB14-Pad27)*%
X134355616Y-85921757D03*
%TO.P,U6,28,PB15*%
%TO.N,unconnected-(U6-PB15-Pad28)*%
X134002063Y-85568204D03*
%TO.P,U6,29,PA8*%
%TO.N,OCXO_625KHZ_3V3*%
X133648510Y-85214651D03*
%TO.P,U6,30,PA9*%
%TO.N,unconnected-(U6-PA9-Pad30)*%
X133294956Y-84861097D03*
%TO.P,U6,31,PA10*%
%TO.N,unconnected-(U6-PA10-Pad31)*%
X132941403Y-84507544D03*
%TO.P,U6,32,PA11*%
%TO.N,USB_N*%
X132587849Y-84153990D03*
%TO.P,U6,33,PA12*%
%TO.N,USB_P*%
X132234296Y-83800437D03*
%TO.P,U6,34,PA13*%
%TO.N,SWDIO*%
X131880743Y-83446884D03*
%TO.P,U6,35,VSS*%
%TO.N,GND*%
X131527189Y-83093330D03*
%TO.P,U6,36,VDD*%
%TO.N,VDD_3V3*%
X131173636Y-82739777D03*
D30*
%TO.P,U6,37,PA14*%
%TO.N,SWCLK*%
X130201364Y-82739777D03*
%TO.P,U6,38,PA15*%
%TO.N,AD5541A_CS*%
X129847811Y-83093330D03*
%TO.P,U6,39,PB3*%
%TO.N,SWO*%
X129494257Y-83446884D03*
%TO.P,U6,40,PB4*%
%TO.N,unconnected-(U6-PB4-Pad40)*%
X129140704Y-83800437D03*
%TO.P,U6,41,PB5*%
%TO.N,unconnected-(U6-PB5-Pad41)*%
X128787151Y-84153990D03*
%TO.P,U6,42,PB6*%
%TO.N,unconnected-(U6-PB6-Pad42)*%
X128433597Y-84507544D03*
%TO.P,U6,43,PB7*%
%TO.N,unconnected-(U6-PB7-Pad43)*%
X128080044Y-84861097D03*
%TO.P,U6,44,BOOT0*%
%TO.N,Net-(U6-BOOT0)*%
X127726490Y-85214651D03*
%TO.P,U6,45,PB8*%
%TO.N,unconnected-(U6-PB8-Pad45)*%
X127372937Y-85568204D03*
%TO.P,U6,46,PB9*%
%TO.N,unconnected-(U6-PB9-Pad46)*%
X127019384Y-85921757D03*
%TO.P,U6,47,VSS*%
%TO.N,GND*%
X126665830Y-86275311D03*
%TO.P,U6,48,VDD*%
%TO.N,VDD_3V3*%
X126312277Y-86628864D03*
D31*
%TO.P,U6,49,VSS*%
%TO.N,GND*%
X130687500Y-87115000D03*
%TD*%
D32*
%TO.P,U7,1,GND*%
%TO.N,GND*%
X153450000Y-70950000D03*
%TO.P,U7,2,VO*%
%TO.N,VDD_3V3*%
X153450000Y-73250000D03*
D33*
X159750000Y-73250000D03*
D32*
%TO.P,U7,3,VI*%
%TO.N,VCC_5V*%
X153450000Y-75550000D03*
%TD*%
D19*
%TO.P,D1,1,K*%
%TO.N,Net-(D1-K)*%
X112425000Y-83650000D03*
%TO.P,D1,2,A*%
%TO.N,VDD_3V3*%
X110375000Y-83650000D03*
%TD*%
D34*
%TO.P,U9,1*%
%TO.N,OCXO_Out*%
X165362500Y-84800000D03*
%TO.P,U9,2*%
X165362500Y-85750000D03*
%TO.P,U9,3,GND*%
%TO.N,GNDA*%
X165362500Y-86700000D03*
%TO.P,U9,4*%
%TO.N,Net-(R18-Pad2)*%
X167637500Y-86700000D03*
%TO.P,U9,5,VCC*%
%TO.N,VCC_5V*%
X167637500Y-84800000D03*
%TD*%
D21*
%TO.P,REF\u002A\u002A,1*%
%TO.N,N/C*%
X172750000Y-129750000D03*
D22*
X172750000Y-129750000D03*
%TD*%
D35*
%TO.P,U2,1,VCCA*%
%TO.N,VDD_3V3*%
X119350000Y-102300000D03*
%TO.P,U2,2,GND*%
%TO.N,GND*%
X119350000Y-101650000D03*
%TO.P,U2,3,A*%
%TO.N,PPS_3V3*%
X119350000Y-101000000D03*
%TO.P,U2,4,B*%
%TO.N,PPS_5V*%
X117450000Y-101000000D03*
%TO.P,U2,5,DIR*%
%TO.N,GND*%
X117450000Y-101650000D03*
%TO.P,U2,6,VCCB*%
%TO.N,VCC_5V*%
X117450000Y-102300000D03*
%TD*%
D36*
%TO.P,J3,A1,GND*%
%TO.N,GND*%
X145950000Y-72600000D03*
%TO.P,J3,A4,VBUS*%
%TO.N,VCC_5V*%
X145150000Y-72600000D03*
D37*
%TO.P,J3,A5,CC1*%
%TO.N,Net-(J3-CC1)*%
X144000000Y-72600000D03*
%TO.P,J3,A6,D+*%
%TO.N,USB_P*%
X143000000Y-72600000D03*
%TO.P,J3,A7,D-*%
%TO.N,USB_N*%
X142500000Y-72600000D03*
%TO.P,J3,A8*%
%TO.N,N/C*%
X141500000Y-72600000D03*
D36*
%TO.P,J3,A9,VBUS*%
%TO.N,VCC_5V*%
X140350000Y-72600000D03*
%TO.P,J3,A12,GND*%
%TO.N,GND*%
X139550000Y-72600000D03*
%TO.P,J3,B1,GND*%
X139550000Y-72600000D03*
%TO.P,J3,B4,VBUS*%
%TO.N,VCC_5V*%
X140350000Y-72600000D03*
D37*
%TO.P,J3,B5,CC2*%
%TO.N,Net-(J3-CC2)*%
X141000000Y-72600000D03*
%TO.P,J3,B6,D+*%
%TO.N,USB_P*%
X142000000Y-72600000D03*
%TO.P,J3,B7,D-*%
%TO.N,USB_N*%
X143500000Y-72600000D03*
%TO.P,J3,B8*%
%TO.N,N/C*%
X144500000Y-72600000D03*
D36*
%TO.P,J3,B9,VBUS*%
%TO.N,VCC_5V*%
X145150000Y-72600000D03*
%TO.P,J3,B12,GND*%
%TO.N,GND*%
X145950000Y-72600000D03*
D38*
%TO.P,J3,S1,SHIELD*%
X147070000Y-72000000D03*
D39*
X147070000Y-67800000D03*
D38*
X138430000Y-72000000D03*
D39*
X138430000Y-67800000D03*
%TD*%
D21*
%TO.P,REF\u002A\u002A,1*%
%TO.N,N/C*%
X172750000Y-69250000D03*
D22*
X172750000Y-69250000D03*
%TD*%
D40*
%TO.P,U4,1,VDD*%
%TO.N,Net-(U4-VDD)*%
X128295000Y-113000000D03*
%TO.P,U4,2,VOUT*%
%TO.N,OCXO_Vref*%
X128295000Y-112500000D03*
%TO.P,U4,3,AGND*%
%TO.N,GNDA*%
X128295000Y-112000000D03*
%TO.P,U4,4,REF*%
%TO.N,DAC_Vref*%
X128295000Y-111500000D03*
%TO.P,U4,5,CS*%
%TO.N,AD5541A_CS*%
X128295000Y-111000000D03*
%TO.P,U4,6,SCLK*%
%TO.N,Net-(U4-SCLK)*%
X124070000Y-111000000D03*
%TO.P,U4,7,DIN*%
%TO.N,Net-(U4-DIN)*%
X124070000Y-111500000D03*
%TO.P,U4,8,LDAC*%
%TO.N,GND*%
X124070000Y-112000000D03*
%TO.P,U4,9,DGND*%
X124070000Y-112500000D03*
%TO.P,U4,10,VLOGIC*%
%TO.N,VDD_3V3*%
X124070000Y-113000000D03*
%TD*%
D25*
%TO.P,TP1,1,1*%
%TO.N,Net-(OSC5A2B1-Vref)*%
X132250000Y-109000000D03*
%TD*%
D21*
%TO.P,REF\u002A\u002A,1*%
%TO.N,N/C*%
X112750000Y-129750000D03*
D22*
X112750000Y-129750000D03*
%TD*%
D41*
%TO.P,U1,1,VCCA*%
%TO.N,VDD_3V3*%
X145842500Y-83600000D03*
%TO.P,U1,2,GND*%
%TO.N,GND*%
X145842500Y-84250000D03*
%TO.P,U1,3,A*%
%TO.N,OCXO_625KHZ_3V3*%
X145842500Y-84900000D03*
%TO.P,U1,4,B*%
%TO.N,OCXO_625KHZ*%
X147742500Y-84900000D03*
%TO.P,U1,5,DIR*%
%TO.N,GND*%
X147742500Y-84250000D03*
%TO.P,U1,6,VCCB*%
%TO.N,VCC_5V*%
X147742500Y-83600000D03*
%TD*%
D19*
%TO.P,D2,1,K*%
%TO.N,Net-(D2-K)*%
X112425000Y-80900000D03*
%TO.P,D2,2,A*%
%TO.N,VDD_3V3*%
X110375000Y-80900000D03*
%TD*%
D42*
%TO.P,U3,1,DNC*%
%TO.N,unconnected-(U3-DNC-Pad1)*%
X123682500Y-129197500D03*
%TO.P,U3,2,Vin*%
%TO.N,VCC_5V*%
X123682500Y-127927500D03*
%TO.P,U3,3,Temp*%
%TO.N,unconnected-(U3-Temp-Pad3)*%
X123682500Y-126657500D03*
%TO.P,U3,4,GND*%
%TO.N,GNDA*%
X123682500Y-125387500D03*
%TO.P,U3,5,Trim/NR*%
%TO.N,Net-(U3-Trim{slash}NR)*%
X118732500Y-125387500D03*
%TO.P,U3,6,Vout*%
%TO.N,Net-(U3-Vout)*%
X118732500Y-126657500D03*
%TO.P,U3,7,NC*%
%TO.N,unconnected-(U3-NC-Pad7)*%
X118732500Y-127927500D03*
%TO.P,U3,8,DNC*%
%TO.N,unconnected-(U3-DNC-Pad8)*%
X118732500Y-129197500D03*
%TD*%
D43*
%TO.P,NT1,1,1*%
%TO.N,GNDA*%
X129500000Y-104750000D03*
%TO.P,NT1,2,2*%
%TO.N,GND*%
X129500000Y-103550000D03*
%TD*%
%TO.P,NT2,1,1*%
%TO.N,VDDA_3V3*%
X129250000Y-95250000D03*
%TO.P,NT2,2,2*%
%TO.N,VDD_3V3*%
X129250000Y-96450000D03*
%TD*%
D44*
%TO.P,U8,1,~{MR}*%
%TO.N,VCC_5V*%
X158575000Y-91195000D03*
%TO.P,U8,2,CP*%
%TO.N,OCXO_Out*%
X158575000Y-89925000D03*
%TO.P,U8,3,D0*%
%TO.N,GND*%
X158575000Y-88655000D03*
%TO.P,U8,4,D1*%
X158575000Y-87385000D03*
%TO.P,U8,5,D2*%
X158575000Y-86115000D03*
%TO.P,U8,6,D3*%
X158575000Y-84845000D03*
%TO.P,U8,7,CEP*%
%TO.N,VCC_5V*%
X158575000Y-83575000D03*
%TO.P,U8,8,GND*%
%TO.N,GND*%
X158575000Y-82305000D03*
%TO.P,U8,9,~{PE}*%
%TO.N,VCC_5V*%
X153425000Y-82305000D03*
%TO.P,U8,10,CET*%
X153425000Y-83575000D03*
%TO.P,U8,11,Q3*%
%TO.N,OCXO_625KHZ*%
X153425000Y-84845000D03*
%TO.P,U8,12,Q2*%
%TO.N,OCXO_1.25MHZ*%
X153425000Y-86115000D03*
%TO.P,U8,13,Q1*%
%TO.N,OCXO_2.5MHZ*%
X153425000Y-87385000D03*
%TO.P,U8,14,Q0*%
%TO.N,OCXO_5MHZ*%
X153425000Y-88655000D03*
%TO.P,U8,15,TC*%
%TO.N,unconnected-(U8-TC-Pad15)*%
X153425000Y-89925000D03*
%TO.P,U8,16,VCC*%
%TO.N,VCC_5V*%
X153425000Y-91195000D03*
%TD*%
D23*
%TO.P,J2,1,Pin_1*%
%TO.N,VDD_3V3*%
X111250000Y-89277500D03*
D24*
%TO.P,J2,2,Pin_2*%
%TO.N,NRST*%
X113790000Y-89277500D03*
%TO.P,J2,3,Pin_3*%
%TO.N,SWO*%
X111250000Y-91817500D03*
%TO.P,J2,4,Pin_4*%
%TO.N,SWCLK*%
X113790000Y-91817500D03*
%TO.P,J2,5,Pin_5*%
%TO.N,SWDIO*%
X111250000Y-94357500D03*
%TO.P,J2,6,Pin_6*%
%TO.N,GND*%
X113790000Y-94357500D03*
%TD*%
D43*
%TO.P,NT3,1,1*%
%TO.N,GNDA*%
X170890000Y-79850000D03*
%TO.P,NT3,2,2*%
%TO.N,GND*%
X170890000Y-78650000D03*
%TD*%
D45*
%TO.P,TP2,1,1*%
%TO.N,Net-(J5-In)*%
X170600000Y-87600000D03*
%TD*%
D46*
%TO.P,OSC5A2B1,1,Out*%
%TO.N,OCXO_Out*%
X145450000Y-102225000D03*
%TO.P,OSC5A2B1,2,GND*%
%TO.N,GNDA*%
X145450000Y-111750000D03*
%TO.P,OSC5A2B1,3,Vref*%
%TO.N,Net-(OSC5A2B1-Vref)*%
X145450000Y-121275000D03*
%TO.P,OSC5A2B1,4,NC*%
%TO.N,unconnected-(OSC5A2B1-NC-Pad4)*%
X164500000Y-121275000D03*
%TO.P,OSC5A2B1,5,Vcc*%
%TO.N,VCC_5V*%
X164500000Y-102225000D03*
%TD*%
D16*
%TO.P,C16,1*%
%TO.N,OSC_IN*%
X121575000Y-89900000D03*
%TO.P,C16,2*%
%TO.N,GND*%
X123125000Y-89900000D03*
%TD*%
D47*
%TO.N,GND*%
X133200000Y-80400000D03*
%TO.N,VDD_3V3*%
X124200000Y-87675220D03*
X122400000Y-102800000D03*
%TO.N,GND*%
X120800000Y-100000000D03*
X116000000Y-100000000D03*
%TO.N,VCC_5V*%
X116000000Y-104200000D03*
%TO.N,GND*%
X166000000Y-70750000D03*
X166000000Y-72250000D03*
X166000000Y-74000000D03*
X166000000Y-75500000D03*
%TO.N,VDD_3V3*%
X145750000Y-80500000D03*
%TO.N,GND*%
X140500000Y-90750000D03*
%TO.N,VDD_3V3*%
X140500000Y-87000000D03*
%TO.N,GND*%
X140500000Y-88500000D03*
X127750000Y-97500000D03*
X120250000Y-96000000D03*
X124750000Y-90000000D03*
%TO.N,VDD_3V3*%
X129250000Y-77250000D03*
%TO.N,GND*%
X122500000Y-87675220D03*
%TO.N,VDD_3V3*%
X124000000Y-109000000D03*
X120500000Y-115000000D03*
%TO.N,GND*%
X119000000Y-113500000D03*
%TO.N,AD5541A_DIN*%
X119000000Y-112000000D03*
%TO.N,AD5541A_SCLK*%
X119000000Y-110500000D03*
%TO.N,GNDA*%
X113000000Y-123250000D03*
X113000000Y-121250000D03*
X128500000Y-125500000D03*
X129250000Y-116500000D03*
%TO.N,VCC_5V*%
X134000000Y-115000000D03*
%TO.N,GNDA*%
X132500000Y-117750000D03*
X132250000Y-105250000D03*
%TO.N,VDD_3V3*%
X136000000Y-110000000D03*
%TO.N,GNDA*%
X141000000Y-124750000D03*
X141000000Y-116500000D03*
X169000000Y-105250000D03*
X165000000Y-81250000D03*
%TO.N,GND*%
X142750000Y-81750000D03*
X150750000Y-81750000D03*
X150500000Y-79500000D03*
X148750000Y-79500000D03*
%TO.N,VCC_5V*%
X156000000Y-92750000D03*
X154250000Y-79250000D03*
X169000000Y-99500000D03*
X151000000Y-92750000D03*
X126250000Y-118000000D03*
%TO.N,GND*%
X152000000Y-68750000D03*
X151250000Y-71000000D03*
X152750000Y-68750000D03*
X151250000Y-68750000D03*
X149750000Y-90250000D03*
X153500000Y-68750000D03*
X118500000Y-78200000D03*
X154250000Y-68750000D03*
X160500000Y-82250000D03*
X160500000Y-84750000D03*
X155250000Y-77750000D03*
X151250000Y-71750000D03*
X130687500Y-87115000D03*
X151250000Y-70250000D03*
X151250000Y-69500000D03*
X127850000Y-92000000D03*
X125750000Y-84850000D03*
%TO.N,OCXO_5MHZ*%
X150905000Y-88655000D03*
%TO.N,OCXO_2.5MHZ*%
X150865000Y-87385000D03*
%TO.N,OCXO_1.25MHZ*%
X150865000Y-86115000D03*
%TO.N,AD5541A_CS*%
X119500000Y-84500000D03*
X123000000Y-99750000D03*
%TO.N,AD5541A_DIN*%
X132900000Y-93625000D03*
%TO.N,AD5541A_SCLK*%
X133000000Y-92000000D03*
%TO.N,SWCLK*%
X125750000Y-81000000D03*
%TO.N,SWO*%
X125750000Y-82500000D03*
%TO.N,SWDIO*%
X133250000Y-81500000D03*
%TO.N,OCXO_625KHZ*%
X150865000Y-84900000D03*
%TO.N,USB_P*%
X142000000Y-77750000D03*
X142000000Y-74250000D03*
%TO.N,USB_N*%
X143536657Y-74250000D03*
X143500000Y-77750000D03*
%TO.N,GNDA*%
X165250000Y-88000000D03*
X174600000Y-81200000D03*
X121500000Y-123250000D03*
X121500000Y-121750000D03*
X126375000Y-125512500D03*
X174600000Y-90200000D03*
%TO.N,VDD_3V3*%
X159000000Y-77750000D03*
X163500000Y-68750000D03*
X163500000Y-69500000D03*
X162750000Y-68750000D03*
X162750000Y-77000000D03*
X162000000Y-69500000D03*
X163500000Y-77000000D03*
X110400000Y-76400000D03*
X162750000Y-69500000D03*
X159750000Y-68750000D03*
X162000000Y-77000000D03*
X160500000Y-68750000D03*
X162000000Y-68750000D03*
X161250000Y-68750000D03*
X162750000Y-77750000D03*
X160500000Y-77750000D03*
X162000000Y-77750000D03*
X159750000Y-77750000D03*
X159000000Y-68750000D03*
X163500000Y-77750000D03*
X161250000Y-77750000D03*
%TD*%
D48*
%TO.N,VCC_5V*%
X169000000Y-99500000D02*
X169000000Y-102225000D01*
D49*
%TO.N,Net-(OSC5A2B1-Vref)*%
X133250000Y-111500000D02*
X132325000Y-111500000D01*
X142000000Y-115500000D02*
X139250000Y-112750000D01*
X142000000Y-119475000D02*
X142000000Y-115500000D01*
X139250000Y-112750000D02*
X134500000Y-112750000D01*
X141700000Y-119775000D02*
X142000000Y-119475000D01*
X134500000Y-112750000D02*
X133250000Y-111500000D01*
X141007500Y-119775000D02*
X141700000Y-119775000D01*
%TO.N,VDDA_3V3*%
X128975000Y-94475000D02*
X127750000Y-94475000D01*
X129250000Y-94750000D02*
X128975000Y-94475000D01*
X129250000Y-95250000D02*
X129250000Y-94750000D01*
%TO.N,GND*%
X133050000Y-80250000D02*
X133200000Y-80400000D01*
X132025000Y-80250000D02*
X133050000Y-80250000D01*
%TO.N,NRST*%
X125000000Y-96750000D02*
X124675000Y-97075000D01*
X118000000Y-96600000D02*
X118000000Y-90400000D01*
X118000000Y-96600000D02*
X118475000Y-97075000D01*
X118475000Y-97075000D02*
X124675000Y-97075000D01*
X118000000Y-90400000D02*
X116877500Y-89277500D01*
X125000000Y-93156054D02*
X125000000Y-96750000D01*
X128433597Y-89722456D02*
X125000000Y-93156054D01*
X116877500Y-89277500D02*
X113790000Y-89277500D01*
%TO.N,AD5541A_CS*%
X126250000Y-99750000D02*
X127075000Y-100575000D01*
X127075000Y-100575000D02*
X127075000Y-109000000D01*
X123000000Y-99750000D02*
X126250000Y-99750000D01*
%TO.N,VDD_3V3*%
X124092500Y-87567720D02*
X124200000Y-87675220D01*
X124092500Y-86500000D02*
X124092500Y-87567720D01*
X122375000Y-102775000D02*
X122400000Y-102800000D01*
X120800000Y-102775000D02*
X122375000Y-102775000D01*
%TO.N,PPS_3V3*%
X119350000Y-99050000D02*
X119900000Y-98500000D01*
X119350000Y-101000000D02*
X119350000Y-99050000D01*
X119900000Y-98500000D02*
X128750000Y-98500000D01*
%TO.N,PPS_5V*%
X116875000Y-98475000D02*
X111250000Y-98475000D01*
X117450000Y-99050000D02*
X116875000Y-98475000D01*
X117450000Y-101000000D02*
X117450000Y-99050000D01*
%TO.N,VCC_5V*%
X116475000Y-102300000D02*
X116000000Y-102775000D01*
X117450000Y-102300000D02*
X116475000Y-102300000D01*
%TO.N,VDD_3V3*%
X120325000Y-102300000D02*
X120800000Y-102775000D01*
X119350000Y-102300000D02*
X120325000Y-102300000D01*
%TO.N,GND*%
X120800000Y-101225000D02*
X120800000Y-100000000D01*
D48*
%TO.N,VCC_5V*%
X167775000Y-81250000D02*
X167775000Y-84662500D01*
X167775000Y-84662500D02*
X167637500Y-84800000D01*
X167775000Y-81250000D02*
X167775000Y-82750000D01*
X167775000Y-80425000D02*
X167775000Y-81250000D01*
X167800000Y-80400000D02*
X167775000Y-80425000D01*
X166650000Y-79250000D02*
X167800000Y-80400000D01*
X154250000Y-79250000D02*
X166650000Y-79250000D01*
D49*
%TO.N,GND*%
X120375000Y-101650000D02*
X120800000Y-101225000D01*
X119350000Y-101650000D02*
X120375000Y-101650000D01*
X116425000Y-101650000D02*
X117450000Y-101650000D01*
X116000000Y-101225000D02*
X116425000Y-101650000D01*
X116000000Y-101225000D02*
X116000000Y-100000000D01*
D48*
%TO.N,VCC_5V*%
X116000000Y-104200000D02*
X116000000Y-102775000D01*
D49*
%TO.N,Net-(J5-In)*%
X171075000Y-86925000D02*
X170600000Y-87400000D01*
X171075000Y-85750000D02*
X171075000Y-86925000D01*
D48*
%TO.N,GNDA*%
X174600000Y-90200000D02*
X174600000Y-88587500D01*
X174600000Y-81200000D02*
X174600000Y-82912500D01*
D49*
%TO.N,GND*%
X164682500Y-70750000D02*
X166000000Y-70750000D01*
X164682500Y-72250000D02*
X166000000Y-72250000D01*
X164682500Y-74000000D02*
X166000000Y-74000000D01*
X164682500Y-75500000D02*
X166000000Y-75500000D01*
%TO.N,VCC_5V*%
X147725000Y-80525000D02*
X147725000Y-81750000D01*
X148000000Y-80250000D02*
X147725000Y-80525000D01*
X152250000Y-77750000D02*
X152000000Y-78000000D01*
X152000000Y-80000000D02*
X151750000Y-80250000D01*
X152975000Y-77750000D02*
X152250000Y-77750000D01*
X152000000Y-78000000D02*
X152000000Y-80000000D01*
X151750000Y-80250000D02*
X148000000Y-80250000D01*
%TO.N,VDD_3V3*%
X145775000Y-80525000D02*
X145750000Y-80500000D01*
X145775000Y-81750000D02*
X145775000Y-80525000D01*
%TO.N,GND*%
X139275000Y-90750000D02*
X140500000Y-90750000D01*
%TO.N,Net-(U6-VCAP1)*%
X136797373Y-90750000D02*
X134355616Y-88308243D01*
X137725000Y-90750000D02*
X136797373Y-90750000D01*
%TO.N,VDD_3V3*%
X140407500Y-86907500D02*
X140500000Y-87000000D01*
X139250000Y-86907500D02*
X140407500Y-86907500D01*
%TO.N,GND*%
X140457500Y-88457500D02*
X140500000Y-88500000D01*
X139250000Y-88457500D02*
X140457500Y-88457500D01*
X135211981Y-88457500D02*
X137750000Y-88457500D01*
X134709170Y-87954689D02*
X135211981Y-88457500D01*
X139250000Y-88457500D02*
X137750000Y-88457500D01*
%TO.N,VDD_3V3*%
X135756360Y-86907500D02*
X137750000Y-86907500D01*
X135062723Y-87601136D02*
X135756360Y-86907500D01*
X139250000Y-86907500D02*
X137750000Y-86907500D01*
%TO.N,OCXO_Vref*%
X129401000Y-91583481D02*
X129847811Y-91136670D01*
X130675000Y-93357900D02*
X129401000Y-92083900D01*
X130675000Y-111500000D02*
X130675000Y-93357900D01*
X129401000Y-92083900D02*
X129401000Y-91583481D01*
%TO.N,PPS_3V3*%
X129000000Y-91277373D02*
X129494257Y-90783116D01*
X130000000Y-97250000D02*
X130000000Y-93250000D01*
X130000000Y-93250000D02*
X129000000Y-92250000D01*
X129000000Y-92250000D02*
X129000000Y-91277373D01*
X128750000Y-98500000D02*
X130000000Y-97250000D01*
%TO.N,Net-(OSC5A2B1-Vref)*%
X132325000Y-111075000D02*
X132250000Y-111000000D01*
X132250000Y-111000000D02*
X132250000Y-109000000D01*
X132325000Y-111500000D02*
X132325000Y-111075000D01*
%TO.N,GND*%
X127750000Y-96025000D02*
X127750000Y-97500000D01*
X126250000Y-96025000D02*
X127750000Y-96025000D01*
X120350000Y-95900000D02*
X120250000Y-96000000D01*
X121575000Y-95900000D02*
X120350000Y-95900000D01*
X121500000Y-94000000D02*
X121500000Y-95825000D01*
X124650000Y-89900000D02*
X124750000Y-90000000D01*
X123125000Y-89900000D02*
X124650000Y-89900000D01*
X123125000Y-89900000D02*
X123125000Y-91725000D01*
X132025000Y-82595519D02*
X132025000Y-80250000D01*
X131527189Y-83093330D02*
X132025000Y-82595519D01*
X132025000Y-78750000D02*
X132025000Y-77250000D01*
X132025000Y-80250000D02*
X132025000Y-78750000D01*
%TO.N,VDD_3V3*%
X130475000Y-77250000D02*
X129250000Y-77250000D01*
X130475000Y-80250000D02*
X130475000Y-77250000D01*
X130475000Y-80250000D02*
X130475000Y-78750000D01*
X130475000Y-82041141D02*
X131173636Y-82739777D01*
X130475000Y-80250000D02*
X130475000Y-82041141D01*
%TO.N,Net-(D3-K)*%
X115325000Y-78150000D02*
X112425000Y-78150000D01*
%TO.N,GND*%
X118450000Y-78150000D02*
X118500000Y-78200000D01*
X116975000Y-78150000D02*
X118450000Y-78150000D01*
%TO.N,LED1*%
X117399000Y-83650000D02*
X117599000Y-83850000D01*
X116975000Y-83650000D02*
X117399000Y-83650000D01*
%TO.N,Net-(D1-K)*%
X115325000Y-83650000D02*
X112425000Y-83650000D01*
%TO.N,LED2*%
X116975000Y-80900000D02*
X117650000Y-80900000D01*
%TO.N,Net-(D2-K)*%
X115325000Y-80900000D02*
X112425000Y-80900000D01*
%TO.N,OSC_OUT*%
X128080044Y-89368903D02*
X123448947Y-94000000D01*
%TO.N,OSC_IN*%
X127726490Y-89015349D02*
X123841839Y-92900000D01*
%TO.N,VDDA_3V3*%
X127750000Y-93250000D02*
X128599000Y-92401000D01*
X127000000Y-93250000D02*
X127750000Y-93250000D01*
X128599000Y-90971267D02*
X129140704Y-90429563D01*
X126250000Y-94475000D02*
X126250000Y-94000000D01*
X126250000Y-94000000D02*
X127000000Y-93250000D01*
X128599000Y-92401000D02*
X128599000Y-90971267D01*
%TO.N,OSC_IN*%
X122600000Y-92900000D02*
X123841839Y-92900000D01*
X121500000Y-91800000D02*
X122600000Y-92900000D01*
X121575000Y-89900000D02*
X121575000Y-91725000D01*
%TO.N,OSC_OUT*%
X123125000Y-95900000D02*
X123125000Y-94075000D01*
%TO.N,VDDA_3V3*%
X126250000Y-94475000D02*
X127750000Y-94475000D01*
%TO.N,Net-(U6-BOOT0)*%
X126011839Y-83500000D02*
X124142500Y-83500000D01*
X127726490Y-85214651D02*
X126011839Y-83500000D01*
%TO.N,AD5541A_CS*%
X128504481Y-81750000D02*
X129847811Y-83093330D01*
X120750000Y-81750000D02*
X128504481Y-81750000D01*
X119500000Y-84500000D02*
X119500000Y-83000000D01*
X119500000Y-83000000D02*
X120750000Y-81750000D01*
%TO.N,GND*%
X122542500Y-87632720D02*
X122500000Y-87675220D01*
X122542500Y-86500000D02*
X122542500Y-87632720D01*
X122542500Y-85000000D02*
X122542500Y-83550000D01*
X122542500Y-86500000D02*
X122542500Y-85000000D01*
%TO.N,VDD_3V3*%
X124092500Y-85000000D02*
X124092500Y-86500000D01*
X124683413Y-85000000D02*
X126312277Y-86628864D01*
X124092500Y-85000000D02*
X124683413Y-85000000D01*
%TO.N,GNDA*%
X127181500Y-112249152D02*
X127181500Y-114131500D01*
X127430652Y-112000000D02*
X127181500Y-112249152D01*
X128295000Y-112000000D02*
X127430652Y-112000000D01*
X127181500Y-114131500D02*
X127800000Y-114750000D01*
%TO.N,OCXO_Vref*%
X129500000Y-112500000D02*
X130500000Y-111500000D01*
X128295000Y-112500000D02*
X129500000Y-112500000D01*
%TO.N,VDD_3V3*%
X125425000Y-109000000D02*
X124000000Y-109000000D01*
%TO.N,AD5541A_CS*%
X127400000Y-111000000D02*
X128295000Y-111000000D01*
X127075000Y-110675000D02*
X127400000Y-111000000D01*
X127075000Y-110675000D02*
X127075000Y-109000000D01*
%TO.N,VDD_3V3*%
X122776000Y-114249000D02*
X122776000Y-113266100D01*
X122000000Y-115025000D02*
X122776000Y-114249000D01*
X123042100Y-113000000D02*
X122776000Y-113266100D01*
X124070000Y-113000000D02*
X123042100Y-113000000D01*
X120525000Y-115025000D02*
X120500000Y-115000000D01*
X122000000Y-115025000D02*
X120525000Y-115025000D01*
%TO.N,GND*%
X119200000Y-113500000D02*
X119225000Y-113475000D01*
X119000000Y-113500000D02*
X119200000Y-113500000D01*
X119225000Y-113475000D02*
X122000000Y-113475000D01*
X122975000Y-112500000D02*
X124070000Y-112500000D01*
X122000000Y-113475000D02*
X122975000Y-112500000D01*
%TO.N,AD5541A_DIN*%
X120425000Y-112000000D02*
X119000000Y-112000000D01*
%TO.N,AD5541A_SCLK*%
X120425000Y-110500000D02*
X119000000Y-110500000D01*
%TO.N,Net-(U4-DIN)*%
X122575000Y-111500000D02*
X122075000Y-112000000D01*
X124070000Y-111500000D02*
X122575000Y-111500000D01*
%TO.N,Net-(U4-SCLK)*%
X124070000Y-111000000D02*
X122575000Y-111000000D01*
X122575000Y-111000000D02*
X122075000Y-110500000D01*
%TO.N,GNDA*%
X114725000Y-123250000D02*
X113000000Y-123250000D01*
X113042500Y-121292500D02*
X113000000Y-121250000D01*
X114725000Y-121292500D02*
X113042500Y-121292500D01*
%TO.N,Net-(U3-Vout)*%
X117157500Y-126657500D02*
X118732500Y-126657500D01*
X116275000Y-125775000D02*
X117157500Y-126657500D01*
X116275000Y-123250000D02*
X116275000Y-125775000D01*
X116300000Y-121292500D02*
X116300000Y-123225000D01*
X116300000Y-121125000D02*
X114675000Y-119500000D01*
%TO.N,Net-(U5-+)*%
X116325000Y-119500000D02*
X118635000Y-119500000D01*
%TO.N,GNDA*%
X121500000Y-121000000D02*
X121500000Y-121750000D01*
X121172500Y-120672500D02*
X121500000Y-121000000D01*
X118732500Y-120672500D02*
X121172500Y-120672500D01*
X119982500Y-123250000D02*
X121500000Y-123250000D01*
%TO.N,VCC_5V*%
X134000000Y-125750000D02*
X134000000Y-115000000D01*
X131590000Y-128160000D02*
X134000000Y-125750000D01*
X128500000Y-128160000D02*
X131590000Y-128160000D01*
X126932500Y-128160000D02*
X128500000Y-128160000D01*
%TO.N,GNDA*%
X126932500Y-126067500D02*
X126932500Y-126977500D01*
X126375000Y-125512500D02*
X126250000Y-125387500D01*
X126750000Y-125885000D02*
X126932500Y-126067500D01*
X126747500Y-125885000D02*
X126750000Y-125885000D01*
X126375000Y-125512500D02*
X126747500Y-125885000D01*
X126250000Y-125387500D02*
X123682500Y-125387500D01*
X128500000Y-126610000D02*
X128500000Y-125500000D01*
%TO.N,VCC_5V*%
X123907500Y-127927500D02*
X126797500Y-127927500D01*
%TO.N,DAC_Vref*%
X131250000Y-119000000D02*
X131250000Y-120000000D01*
X130600000Y-118350000D02*
X131250000Y-119000000D01*
X127750000Y-118350000D02*
X130600000Y-118350000D01*
%TO.N,V_OCXO_Buffer*%
X127152500Y-119402500D02*
X127750000Y-120000000D01*
X123682500Y-119402500D02*
X127152500Y-119402500D01*
%TO.N,DAC_Vref*%
X127750000Y-118025000D02*
X126225000Y-116500000D01*
X127750000Y-118350000D02*
X127750000Y-118025000D01*
X126250000Y-114750000D02*
X126250000Y-116475000D01*
X127250000Y-111500000D02*
X128295000Y-111500000D01*
X126250000Y-112500000D02*
X127250000Y-111500000D01*
X126250000Y-114750000D02*
X126250000Y-112500000D01*
%TO.N,GNDA*%
X129250000Y-116500000D02*
X130475000Y-116500000D01*
X127775000Y-116500000D02*
X129250000Y-116500000D01*
X127800000Y-114750000D02*
X127800000Y-116475000D01*
X132500000Y-117750000D02*
X132500000Y-116525000D01*
%TO.N,VCC_5V*%
X133975000Y-114975000D02*
X134000000Y-115000000D01*
X132500000Y-114975000D02*
X133975000Y-114975000D01*
%TO.N,GNDA*%
X130500000Y-116525000D02*
X132500000Y-116525000D01*
%TO.N,VCC_5V*%
X132287500Y-113250000D02*
X132287500Y-114762500D01*
%TO.N,Net-(U4-VDD)*%
X128295000Y-113000000D02*
X130462500Y-113000000D01*
X130500000Y-114975000D02*
X130500000Y-113462500D01*
%TO.N,GNDA*%
X133975000Y-105250000D02*
X132250000Y-105250000D01*
%TO.N,VDD_3V3*%
X135925000Y-110075000D02*
X136000000Y-110000000D01*
X135925000Y-111500000D02*
X135925000Y-110075000D01*
%TO.N,OCXO_Temperature*%
X135525000Y-108525000D02*
X135525000Y-105250000D01*
X137575000Y-110575000D02*
X135525000Y-108525000D01*
X137575000Y-111500000D02*
X137575000Y-110575000D01*
%TO.N,GNDA*%
X140825000Y-111500000D02*
X145200000Y-111500000D01*
%TO.N,OCXO_Temperature*%
X139175000Y-111500000D02*
X137575000Y-111500000D01*
X135525000Y-103325000D02*
X135525000Y-105250000D01*
X132000000Y-99800000D02*
X135525000Y-103325000D01*
X132000000Y-92316587D02*
X132000000Y-99800000D01*
X131173636Y-91490223D02*
X132000000Y-92316587D01*
%TO.N,GNDA*%
X141000000Y-123025000D02*
X141000000Y-124750000D01*
X141007500Y-116507500D02*
X141000000Y-116500000D01*
X141007500Y-118225000D02*
X141007500Y-116507500D01*
%TO.N,Net-(OSC5A2B1-Vref)*%
X141000000Y-121475000D02*
X145250000Y-121475000D01*
X141000000Y-121475000D02*
X141000000Y-119782500D01*
%TO.N,GNDA*%
X169000000Y-103775000D02*
X169000000Y-105250000D01*
D48*
%TO.N,VCC_5V*%
X169000000Y-102225000D02*
X164500000Y-102225000D01*
D49*
%TO.N,OCXO_Out*%
X163250000Y-86250000D02*
X163750000Y-85750000D01*
X163750000Y-85750000D02*
X165362500Y-85750000D01*
X163250000Y-89375000D02*
X163250000Y-86250000D01*
X158575000Y-89925000D02*
X162700000Y-89925000D01*
X162700000Y-89925000D02*
X163250000Y-89375000D01*
%TO.N,Net-(R18-Pad2)*%
X168000000Y-85750000D02*
X169425000Y-85750000D01*
%TO.N,GNDA*%
X166225000Y-81250000D02*
X165000000Y-81250000D01*
X166225000Y-82750000D02*
X166225000Y-81250000D01*
%TO.N,GND*%
X144475000Y-81750000D02*
X142750000Y-81750000D01*
X145500000Y-84250000D02*
X144225000Y-82975000D01*
X144225000Y-82975000D02*
X144225000Y-81750000D01*
%TO.N,VDD_3V3*%
X145842500Y-83600000D02*
X145842500Y-81932500D01*
%TO.N,VCC_5V*%
X147742500Y-83600000D02*
X147742500Y-81767500D01*
%TO.N,GND*%
X149275000Y-81750000D02*
X150750000Y-81750000D01*
X149275000Y-83042499D02*
X149275000Y-81750000D01*
X148067499Y-84250000D02*
X149275000Y-83042499D01*
X147742500Y-84250000D02*
X148067499Y-84250000D01*
X150500000Y-78275000D02*
X150500000Y-79500000D01*
X148750000Y-79500000D02*
X148750000Y-78275000D01*
X139030000Y-72600000D02*
X138430000Y-72000000D01*
X139550000Y-72600000D02*
X139030000Y-72600000D01*
X145950000Y-72600000D02*
X146470000Y-72600000D01*
X146470000Y-72600000D02*
X147070000Y-72000000D01*
%TO.N,VCC_5V*%
X139743508Y-70407500D02*
X136000000Y-70407500D01*
X126117500Y-118132500D02*
X126250000Y-118000000D01*
X151000000Y-91157500D02*
X153387500Y-91157500D01*
X140536000Y-71199992D02*
X139743508Y-70407500D01*
X153425000Y-83575000D02*
X153425000Y-82305000D01*
X151000000Y-91157500D02*
X151000000Y-92750000D01*
D50*
X153000000Y-76000000D02*
X153450000Y-75550000D01*
D49*
X149250000Y-70407500D02*
X145756492Y-70407500D01*
X158000000Y-92750000D02*
X158575000Y-92175000D01*
D48*
X154250000Y-79250000D02*
X153000000Y-78000000D01*
D49*
X158575000Y-92175000D02*
X158575000Y-91195000D01*
D48*
X153000000Y-78000000D02*
X153000000Y-75500000D01*
D49*
X123682500Y-118132500D02*
X126117500Y-118132500D01*
X153425000Y-82305000D02*
X153425000Y-80075000D01*
X153425000Y-80075000D02*
X154250000Y-79250000D01*
X140536000Y-72414000D02*
X140536000Y-71199992D01*
X156000000Y-92750000D02*
X158000000Y-92750000D01*
X158575000Y-83575000D02*
X153425000Y-83575000D01*
X144964000Y-71199992D02*
X144964000Y-72414000D01*
X145756492Y-70407500D02*
X144964000Y-71199992D01*
%TO.N,GND*%
X151000000Y-90342500D02*
X149842500Y-90342500D01*
X154157500Y-77750000D02*
X155250000Y-77750000D01*
X124070000Y-112500000D02*
X124070000Y-112000000D01*
X160405000Y-84845000D02*
X160500000Y-84750000D01*
X160445000Y-82305000D02*
X160500000Y-82250000D01*
X158575000Y-87385000D02*
X158575000Y-86115000D01*
X158575000Y-82305000D02*
X160445000Y-82305000D01*
X158575000Y-88655000D02*
X158575000Y-87385000D01*
X127850000Y-91013161D02*
X128787151Y-90076010D01*
X145842500Y-84250000D02*
X145500000Y-84250000D01*
X158575000Y-84845000D02*
X160405000Y-84845000D01*
X127850000Y-92000000D02*
X127850000Y-91013161D01*
X158575000Y-87385000D02*
X158575000Y-84845000D01*
X149842500Y-90342500D02*
X149750000Y-90250000D01*
X125750000Y-84850000D02*
X125750000Y-85350000D01*
X125750000Y-85350000D02*
X126665830Y-86265830D01*
%TO.N,OCXO_Out*%
X158575000Y-89925000D02*
X156825000Y-89925000D01*
X155250000Y-91500000D02*
X155250000Y-100750000D01*
X153550000Y-102450000D02*
X145450000Y-102450000D01*
X165362500Y-84800000D02*
X165362500Y-85750000D01*
X155250000Y-100750000D02*
X153550000Y-102450000D01*
X156825000Y-89925000D02*
X155250000Y-91500000D01*
%TO.N,OCXO_5MHZ*%
X150905000Y-88655000D02*
X153425000Y-88655000D01*
%TO.N,OCXO_2.5MHZ*%
X150885000Y-87385000D02*
X153425000Y-87385000D01*
%TO.N,OCXO_1.25MHZ*%
X150865000Y-86115000D02*
X153425000Y-86115000D01*
%TO.N,OCXO_625KHZ_3V3*%
X133969041Y-84894120D02*
X145836620Y-84894120D01*
X133648510Y-85214651D02*
X133969041Y-84894120D01*
%TO.N,AD5541A_DIN*%
X133750000Y-91238161D02*
X132587849Y-90076010D01*
X133750000Y-92775000D02*
X133750000Y-91238161D01*
X132900000Y-93625000D02*
X133750000Y-92775000D01*
%TO.N,AD5541A_SCLK*%
X133000000Y-91902373D02*
X131880743Y-90783116D01*
X133000000Y-91902373D02*
X133000000Y-92000000D01*
%TO.N,V_OCXO_Buffer*%
X120132500Y-118132500D02*
X121402500Y-119402500D01*
X121402500Y-119402500D02*
X123682500Y-119402500D01*
X118732500Y-118132500D02*
X120132500Y-118132500D01*
%TO.N,Net-(U3-Trim{slash}NR)*%
X118800000Y-123387500D02*
X118800000Y-125320000D01*
%TO.N,SWCLK*%
X125750000Y-81000000D02*
X128461587Y-81000000D01*
X128461587Y-81000000D02*
X130201364Y-82739777D01*
%TO.N,SWO*%
X125750000Y-82500000D02*
X128547373Y-82500000D01*
X128547373Y-82500000D02*
X129494257Y-83446884D01*
%TO.N,SWDIO*%
X133250000Y-82077627D02*
X133250000Y-81500000D01*
X131880743Y-83446884D02*
X133250000Y-82077627D01*
%TO.N,Net-(J3-CC2)*%
X136000000Y-69592500D02*
X139495608Y-69592500D01*
X139495608Y-69592500D02*
X141000000Y-71096892D01*
X141000000Y-71096892D02*
X141000000Y-72600000D01*
%TO.N,Net-(J3-CC1)*%
X145657500Y-69592500D02*
X149250000Y-69592500D01*
X145657500Y-69592500D02*
X144000000Y-71250000D01*
X144000000Y-71250000D02*
X144000000Y-72600000D01*
%TO.N,LED1*%
X117599000Y-85166100D02*
X121109120Y-88676220D01*
X126651407Y-88676220D02*
X127019384Y-88308243D01*
X117599000Y-83850000D02*
X117599000Y-85166100D01*
X121109120Y-88676220D02*
X126651407Y-88676220D01*
%TO.N,LED2*%
X121275220Y-88275220D02*
X118000000Y-85000000D01*
X126345299Y-88275220D02*
X121275220Y-88275220D01*
X126665830Y-87954689D02*
X126345299Y-88275220D01*
X118000000Y-81250000D02*
X117650000Y-80900000D01*
X118000000Y-85000000D02*
X118000000Y-81250000D01*
%TO.N,OCXO_625KHZ*%
X150750000Y-84900000D02*
X153370000Y-84900000D01*
X150865000Y-84900000D02*
X147742500Y-84900000D01*
%TO.N,USB_P*%
X143000000Y-73750000D02*
X143000000Y-72600000D01*
X142500000Y-74250000D02*
X143000000Y-73750000D01*
X142000000Y-77750000D02*
X138320089Y-77750000D01*
X138320089Y-77750000D02*
X137403046Y-78667043D01*
X137063634Y-78667043D02*
X136787547Y-78390956D01*
X132665368Y-83404721D02*
X132630012Y-83404721D01*
X132630012Y-83404721D02*
X132234296Y-83800437D01*
X142000000Y-74250000D02*
X142000000Y-72600000D01*
X136639369Y-79430717D02*
X136554517Y-79515571D01*
X132665368Y-83404721D02*
X136554517Y-79515571D01*
X136363283Y-78815220D02*
X136639369Y-79091306D01*
X142000000Y-74250000D02*
X142500000Y-74250000D01*
X136448136Y-78390956D02*
X136363283Y-78475808D01*
X136639369Y-79091306D02*
G75*
G02*
X136639358Y-79430705I-169669J-169694D01*
G01*
X136363283Y-78475808D02*
G75*
G03*
X136363297Y-78815206I169717J-169692D01*
G01*
X136787547Y-78390956D02*
G75*
G03*
X136448135Y-78390955I-169706J-169703D01*
G01*
X137403046Y-78667043D02*
G75*
G02*
X137063634Y-78667043I-169706J169704D01*
G01*
%TO.N,USB_N*%
X142750000Y-71000000D02*
X143250000Y-71000000D01*
X142500000Y-71250000D02*
X142500000Y-72600000D01*
X143250000Y-71000000D02*
X143500000Y-71250000D01*
X143500000Y-72600000D02*
X143500000Y-74231672D01*
X142750000Y-71000000D02*
X142500000Y-71250000D01*
X142750000Y-78500000D02*
X138206483Y-78500000D01*
X132983565Y-83722918D02*
X132983565Y-83758274D01*
X143500000Y-77750000D02*
X142750000Y-78500000D01*
X138206483Y-78500000D02*
X132983565Y-83722918D01*
X143500000Y-71250000D02*
X143500000Y-72600000D01*
X132983565Y-83758274D02*
X132587849Y-84153990D01*
X143500000Y-74231672D02*
X143536657Y-74268329D01*
%TO.N,GNDA*%
X165362500Y-86700000D02*
X165362500Y-87887500D01*
X165362500Y-87887500D02*
X165250000Y-88000000D01*
%TO.N,VDD_3V3*%
X126000000Y-87288859D02*
X126000000Y-86941141D01*
X110375000Y-83650000D02*
X110375000Y-80900000D01*
X126000000Y-86941141D02*
X126312277Y-86628864D01*
D50*
X153450000Y-73250000D02*
X159750000Y-73250000D01*
D49*
X110375000Y-78150000D02*
X110375000Y-76425000D01*
X110375000Y-78150000D02*
X110375000Y-80900000D01*
X126312277Y-87601136D02*
X126000000Y-87288859D01*
X110375000Y-76425000D02*
X110400000Y-76400000D01*
%TO.N,Net-(J5-In)*%
X170907500Y-85750000D02*
X174837500Y-85750000D01*
%TO.N,Net-(R18-Pad2)*%
X167637500Y-86112500D02*
X168000000Y-85750000D01*
X167637500Y-86700000D02*
X167637500Y-86112500D01*
%TD*%
%TA.AperFunction,Conductor*%
%TO.N,VDD_3V3*%
G36*
X163731987Y-68518013D02*
G01*
X163750000Y-68561500D01*
X163750000Y-69781125D01*
X163731987Y-69824612D01*
X163688500Y-69842625D01*
X163669156Y-69839503D01*
X163505117Y-69785146D01*
X163505108Y-69785145D01*
X163405814Y-69775000D01*
X163382500Y-69775000D01*
X163382500Y-76474999D01*
X163405809Y-76474999D01*
X163405815Y-76474998D01*
X163505112Y-76464854D01*
X163669155Y-76410496D01*
X163716101Y-76413915D01*
X163746878Y-76449529D01*
X163750000Y-76468874D01*
X163750000Y-77938500D01*
X163731987Y-77981987D01*
X163688500Y-78000000D01*
X158811500Y-78000000D01*
X158768013Y-77981987D01*
X158750000Y-77938500D01*
X158750000Y-75798315D01*
X162182501Y-75798315D01*
X162192645Y-75897612D01*
X162192646Y-75897614D01*
X162245948Y-76058474D01*
X162245952Y-76058481D01*
X162334927Y-76202732D01*
X162454767Y-76322572D01*
X162599018Y-76411547D01*
X162599025Y-76411551D01*
X162759882Y-76464853D01*
X162759891Y-76464854D01*
X162859187Y-76474999D01*
X162882500Y-76474999D01*
X162882500Y-75750000D01*
X162182501Y-75750000D01*
X162182501Y-75798315D01*
X158750000Y-75798315D01*
X158750000Y-75618540D01*
X158768013Y-75575053D01*
X158811500Y-75557040D01*
X158839975Y-75564029D01*
X158877139Y-75583442D01*
X159072670Y-75639391D01*
X159191993Y-75650000D01*
X159500000Y-75650000D01*
X160000000Y-75650000D01*
X160308007Y-75650000D01*
X160427329Y-75639391D01*
X160622863Y-75583442D01*
X160803127Y-75489280D01*
X160803127Y-75489279D01*
X160960752Y-75360752D01*
X161089279Y-75203127D01*
X161090032Y-75201685D01*
X162182500Y-75201685D01*
X162182500Y-75250000D01*
X162882500Y-75250000D01*
X162882500Y-74250000D01*
X162182501Y-74250000D01*
X162182501Y-74298315D01*
X162192645Y-74397612D01*
X162192646Y-74397614D01*
X162245948Y-74558474D01*
X162245952Y-74558481D01*
X162334927Y-74702732D01*
X162338708Y-74706513D01*
X162356721Y-74750000D01*
X162338708Y-74793487D01*
X162334927Y-74797267D01*
X162245952Y-74941518D01*
X162245948Y-74941525D01*
X162192646Y-75102382D01*
X162192645Y-75102391D01*
X162182500Y-75201685D01*
X161090032Y-75201685D01*
X161105725Y-75171645D01*
X161183442Y-75022863D01*
X161239391Y-74827329D01*
X161250000Y-74708006D01*
X161250000Y-73701685D01*
X162182500Y-73701685D01*
X162182500Y-73750000D01*
X162882500Y-73750000D01*
X162882500Y-72500000D01*
X162182501Y-72500000D01*
X162182501Y-72548315D01*
X162192645Y-72647612D01*
X162192646Y-72647614D01*
X162245948Y-72808474D01*
X162245952Y-72808481D01*
X162334927Y-72952732D01*
X162454768Y-73072573D01*
X162454904Y-73072657D01*
X162454943Y-73072712D01*
X162457578Y-73074795D01*
X162456987Y-73075542D01*
X162482460Y-73110818D01*
X162474960Y-73157287D01*
X162457341Y-73174905D01*
X162457578Y-73175205D01*
X162455016Y-73177230D01*
X162454904Y-73177343D01*
X162454768Y-73177426D01*
X162334927Y-73297267D01*
X162245952Y-73441518D01*
X162245948Y-73441525D01*
X162192646Y-73602382D01*
X162192645Y-73602391D01*
X162182500Y-73701685D01*
X161250000Y-73701685D01*
X161250000Y-73500000D01*
X160000000Y-73500000D01*
X160000000Y-75650000D01*
X159500000Y-75650000D01*
X159500000Y-73000000D01*
X160000000Y-73000000D01*
X161250000Y-73000000D01*
X161250000Y-71951685D01*
X162182500Y-71951685D01*
X162182500Y-72000000D01*
X162882500Y-72000000D01*
X162882500Y-71000000D01*
X162182501Y-71000000D01*
X162182501Y-71048315D01*
X162192645Y-71147612D01*
X162192646Y-71147614D01*
X162245948Y-71308474D01*
X162245952Y-71308481D01*
X162334927Y-71452732D01*
X162338708Y-71456513D01*
X162356721Y-71500000D01*
X162338708Y-71543487D01*
X162334927Y-71547267D01*
X162245952Y-71691518D01*
X162245948Y-71691525D01*
X162192646Y-71852382D01*
X162192645Y-71852391D01*
X162182500Y-71951685D01*
X161250000Y-71951685D01*
X161250000Y-71791993D01*
X161239391Y-71672670D01*
X161183441Y-71477136D01*
X161183442Y-71477136D01*
X161089279Y-71296872D01*
X160960752Y-71139247D01*
X160803127Y-71010720D01*
X160803127Y-71010719D01*
X160622863Y-70916557D01*
X160427329Y-70860608D01*
X160308007Y-70850000D01*
X160000000Y-70850000D01*
X160000000Y-73000000D01*
X159500000Y-73000000D01*
X159500000Y-70850000D01*
X159191993Y-70850000D01*
X159072670Y-70860608D01*
X158877138Y-70916557D01*
X158839973Y-70935970D01*
X158793088Y-70940137D01*
X158756988Y-70909931D01*
X158750000Y-70881458D01*
X158750000Y-70451685D01*
X162182500Y-70451685D01*
X162182500Y-70500000D01*
X162882500Y-70500000D01*
X162882500Y-69775000D01*
X162859191Y-69775000D01*
X162859183Y-69775001D01*
X162759887Y-69785145D01*
X162759885Y-69785146D01*
X162599025Y-69838448D01*
X162599018Y-69838452D01*
X162454767Y-69927427D01*
X162334927Y-70047267D01*
X162245952Y-70191518D01*
X162245948Y-70191525D01*
X162192646Y-70352382D01*
X162192645Y-70352391D01*
X162182500Y-70451685D01*
X158750000Y-70451685D01*
X158750000Y-68561500D01*
X158768013Y-68518013D01*
X158811500Y-68500000D01*
X163688500Y-68500000D01*
X163731987Y-68518013D01*
G37*
%TD.AperFunction*%
%TD*%
%TA.AperFunction,Conductor*%
%TO.N,GND*%
G36*
X154481987Y-68518013D02*
G01*
X154500000Y-68561500D01*
X154500000Y-69709928D01*
X154481987Y-69753415D01*
X154438500Y-69771428D01*
X154411176Y-69765025D01*
X154378522Y-69748831D01*
X154193821Y-69702896D01*
X154193822Y-69702896D01*
X154151106Y-69700000D01*
X153700000Y-69700000D01*
X153700000Y-70888500D01*
X153681987Y-70931987D01*
X153638500Y-70950000D01*
X153450000Y-70950000D01*
X153450000Y-71138500D01*
X153431987Y-71181987D01*
X153388500Y-71200000D01*
X151950000Y-71200000D01*
X151950000Y-71401105D01*
X151952896Y-71443821D01*
X151998831Y-71628524D01*
X152083390Y-71799021D01*
X152083393Y-71799026D01*
X152164534Y-71899970D01*
X152177739Y-71945149D01*
X152155130Y-71986434D01*
X152116600Y-72000000D01*
X151311500Y-72000000D01*
X151268013Y-71981987D01*
X151250000Y-71938500D01*
X151250000Y-70498894D01*
X151950000Y-70498894D01*
X151950000Y-70700000D01*
X153200000Y-70700000D01*
X153200000Y-69700000D01*
X152748894Y-69700000D01*
X152706178Y-69702896D01*
X152521475Y-69748831D01*
X152350978Y-69833390D01*
X152350973Y-69833393D01*
X152202633Y-69952632D01*
X152202632Y-69952633D01*
X152083393Y-70100973D01*
X152083390Y-70100978D01*
X151998831Y-70271475D01*
X151952896Y-70456178D01*
X151950000Y-70498894D01*
X151250000Y-70498894D01*
X151250000Y-68561500D01*
X151268013Y-68518013D01*
X151311500Y-68500000D01*
X154438500Y-68500000D01*
X154481987Y-68518013D01*
G37*
%TD.AperFunction*%
%TD*%
%TA.AperFunction,Conductor*%
%TO.N,VCC_5V*%
G36*
X140581487Y-72268013D02*
G01*
X140599500Y-72311500D01*
X140599500Y-73244677D01*
X140614032Y-73317738D01*
X140641621Y-73359028D01*
X140669399Y-73400601D01*
X140722666Y-73436192D01*
X140752261Y-73455967D01*
X140757857Y-73458285D01*
X140757127Y-73460046D01*
X140789633Y-73481763D01*
X140800000Y-73515934D01*
X140800000Y-75000000D01*
X144750000Y-75000000D01*
X144750000Y-73487328D01*
X144768013Y-73443841D01*
X144777334Y-73436192D01*
X144830596Y-73400605D01*
X144830597Y-73400603D01*
X144830601Y-73400601D01*
X144885966Y-73317740D01*
X144885966Y-73317739D01*
X144885967Y-73317738D01*
X144900499Y-73244677D01*
X144900500Y-73244677D01*
X144900500Y-72311500D01*
X144918513Y-72268013D01*
X144962000Y-72250000D01*
X145338000Y-72250000D01*
X145381487Y-72268013D01*
X145399500Y-72311500D01*
X145399500Y-73244677D01*
X145414032Y-73317738D01*
X145469399Y-73400601D01*
X145472665Y-73402783D01*
X145498818Y-73441919D01*
X145500000Y-73453920D01*
X145500000Y-75000000D01*
X154438500Y-75000000D01*
X154481987Y-75018013D01*
X154500000Y-75061500D01*
X154500000Y-76688500D01*
X154481987Y-76731987D01*
X154438500Y-76750000D01*
X140061500Y-76750000D01*
X140018013Y-76731987D01*
X140000000Y-76688500D01*
X140000000Y-73453920D01*
X140018013Y-73410433D01*
X140027335Y-73402783D01*
X140030601Y-73400601D01*
X140085966Y-73317740D01*
X140085966Y-73317739D01*
X140085967Y-73317738D01*
X140100499Y-73244677D01*
X140100500Y-73244677D01*
X140100500Y-72311500D01*
X140118513Y-72268013D01*
X140162000Y-72250000D01*
X140538000Y-72250000D01*
X140581487Y-72268013D01*
G37*
%TD.AperFunction*%
%TD*%
M02*
