%TF.GenerationSoftware,KiCad,Pcbnew,9.0.4*%
%TF.CreationDate,2025-10-02T19:52:11+02:00*%
%TF.ProjectId,gpsdo,67707364-6f2e-46b6-9963-61645f706362,rev?*%
%TF.SameCoordinates,Original*%
%TF.FileFunction,Soldermask,Top*%
%TF.FilePolarity,Negative*%
%FSLAX46Y46*%
G04 Gerber Fmt 4.6, Leading zero omitted, Abs format (unit mm)*
G04 Created by KiCad (PCBNEW 9.0.4) date 2025-10-02 19:52:11*
%MOMM*%
%LPD*%
G01*
G04 APERTURE LIST*
G04 Aperture macros list*
%AMRoundRect*
0 Rectangle with rounded corners*
0 $1 Rounding radius*
0 $2 $3 $4 $5 $6 $7 $8 $9 X,Y pos of 4 corners*
0 Add a 4 corners polygon primitive as box body*
4,1,4,$2,$3,$4,$5,$6,$7,$8,$9,$2,$3,0*
0 Add four circle primitives for the rounded corners*
1,1,$1+$1,$2,$3*
1,1,$1+$1,$4,$5*
1,1,$1+$1,$6,$7*
1,1,$1+$1,$8,$9*
0 Add four rect primitives between the rounded corners*
20,1,$1+$1,$2,$3,$4,$5,0*
20,1,$1+$1,$4,$5,$6,$7,0*
20,1,$1+$1,$6,$7,$8,$9,0*
20,1,$1+$1,$8,$9,$2,$3,0*%
%AMRotRect*
0 Rectangle, with rotation*
0 The origin of the aperture is its center*
0 $1 length*
0 $2 width*
0 $3 Rotation angle, in degrees counterclockwise*
0 Add horizontal line*
21,1,$1,$2,0,0,$3*%
G04 Aperture macros list end*
%ADD10R,1.700000X1.700000*%
%ADD11C,1.700000*%
%ADD12RoundRect,0.100000X-0.225000X-0.100000X0.225000X-0.100000X0.225000X0.100000X-0.225000X0.100000X0*%
%ADD13RoundRect,0.100000X0.217500X0.100000X-0.217500X0.100000X-0.217500X-0.100000X0.217500X-0.100000X0*%
%ADD14RoundRect,0.100000X-0.217500X-0.100000X0.217500X-0.100000X0.217500X0.100000X-0.217500X0.100000X0*%
%ADD15RoundRect,0.100000X0.225000X0.100000X-0.225000X0.100000X-0.225000X-0.100000X0.225000X-0.100000X0*%
%ADD16RoundRect,0.100000X0.100000X-0.217500X0.100000X0.217500X-0.100000X0.217500X-0.100000X-0.217500X0*%
%ADD17RoundRect,0.150000X0.725000X0.150000X-0.725000X0.150000X-0.725000X-0.150000X0.725000X-0.150000X0*%
%ADD18RoundRect,0.250000X0.325000X0.450000X-0.325000X0.450000X-0.325000X-0.450000X0.325000X-0.450000X0*%
%ADD19RoundRect,0.150000X-0.825000X-0.150000X0.825000X-0.150000X0.825000X0.150000X-0.825000X0.150000X0*%
%ADD20C,5.600000*%
%ADD21C,3.600000*%
%ADD22RoundRect,0.100000X-0.100000X0.217500X-0.100000X-0.217500X0.100000X-0.217500X0.100000X0.217500X0*%
%ADD23C,1.500000*%
%ADD24RoundRect,0.250000X-0.350000X0.450000X-0.350000X-0.450000X0.350000X-0.450000X0.350000X0.450000X0*%
%ADD25RoundRect,0.250000X1.600000X-0.425000X1.600000X0.425000X-1.600000X0.425000X-1.600000X-0.425000X0*%
%ADD26RoundRect,0.250000X1.350000X-0.385000X1.350000X0.385000X-1.350000X0.385000X-1.350000X-0.385000X0*%
%ADD27RotRect,5.600000X5.600000X45.000000*%
%ADD28RoundRect,0.062500X0.220971X-0.309359X0.309359X-0.220971X-0.220971X0.309359X-0.309359X0.220971X0*%
%ADD29RoundRect,0.062500X-0.220971X-0.309359X0.309359X0.220971X0.220971X0.309359X-0.309359X-0.220971X0*%
%ADD30RoundRect,0.375000X-0.625000X-0.375000X0.625000X-0.375000X0.625000X0.375000X-0.625000X0.375000X0*%
%ADD31RoundRect,0.500000X-0.500000X-1.400000X0.500000X-1.400000X0.500000X1.400000X-0.500000X1.400000X0*%
%ADD32RoundRect,0.150000X-0.512500X-0.150000X0.512500X-0.150000X0.512500X0.150000X-0.512500X0.150000X0*%
%ADD33O,1.000000X1.800000*%
%ADD34O,1.000000X2.100000*%
%ADD35R,0.600000X1.240000*%
%ADD36R,0.300000X1.240000*%
%ADD37RoundRect,0.087500X0.725000X0.087500X-0.725000X0.087500X-0.725000X-0.087500X0.725000X-0.087500X0*%
%ADD38RoundRect,0.075000X-0.212500X-0.075000X0.212500X-0.075000X0.212500X0.075000X-0.212500X0.075000X0*%
%ADD39RoundRect,0.150000X0.825000X0.150000X-0.825000X0.150000X-0.825000X-0.150000X0.825000X-0.150000X0*%
%ADD40C,1.000000*%
%ADD41C,2.540000*%
G04 APERTURE END LIST*
D10*
%TO.C,J7*%
X119750000Y-68250000D03*
D11*
X122290000Y-68250000D03*
X124830000Y-68250000D03*
X127370000Y-68250000D03*
X129910000Y-68250000D03*
%TD*%
D12*
%TO.C,U1*%
X147742500Y-83600000D03*
X147742500Y-84250000D03*
X147742500Y-84900000D03*
X145842500Y-84900000D03*
X145842500Y-84250000D03*
X145842500Y-83600000D03*
%TD*%
D13*
%TO.C,C39*%
X145657500Y-82250000D03*
X144842500Y-82250000D03*
%TD*%
D14*
%TO.C,C38*%
X147842500Y-82250000D03*
X148657500Y-82250000D03*
%TD*%
D15*
%TO.C,U2*%
X118400000Y-102300000D03*
X118400000Y-101650000D03*
X118400000Y-101000000D03*
X116500000Y-101000000D03*
X116500000Y-101650000D03*
X116500000Y-102300000D03*
%TD*%
D16*
%TO.C,C40*%
X119750000Y-102407500D03*
X119750000Y-101592500D03*
%TD*%
%TO.C,C2*%
X115250000Y-102407500D03*
X115250000Y-101592500D03*
%TD*%
D17*
%TO.C,U8*%
X153425000Y-91195000D03*
X153425000Y-89925000D03*
X153425000Y-88655000D03*
X153425000Y-87385000D03*
X153425000Y-86115000D03*
X153425000Y-84845000D03*
X153425000Y-83575000D03*
X153425000Y-82305000D03*
X158575000Y-82305000D03*
X158575000Y-83575000D03*
X158575000Y-84845000D03*
X158575000Y-86115000D03*
X158575000Y-87385000D03*
X158575000Y-88655000D03*
X158575000Y-89925000D03*
X158575000Y-91195000D03*
%TD*%
D18*
%TO.C,D3*%
X110375000Y-78150000D03*
X112425000Y-78150000D03*
%TD*%
D19*
%TO.C,U5*%
X123682500Y-116862500D03*
X123682500Y-118132500D03*
X123682500Y-119402500D03*
X123682500Y-120672500D03*
X118732500Y-120672500D03*
X118732500Y-119402500D03*
X118732500Y-118132500D03*
X118732500Y-116862500D03*
%TD*%
D20*
%TO.C,REF\u002A\u002A*%
X112750000Y-69750000D03*
D21*
X112750000Y-69750000D03*
%TD*%
D14*
%TO.C,R1*%
X131840000Y-112250000D03*
X131025000Y-112250000D03*
%TD*%
%TO.C,C18*%
X138725000Y-89250000D03*
X137910000Y-89250000D03*
%TD*%
D13*
%TO.C,R18*%
X170092500Y-85750000D03*
X170907500Y-85750000D03*
%TD*%
%TO.C,C4*%
X140600000Y-119650000D03*
X141415000Y-119650000D03*
%TD*%
D11*
%TO.C,J1*%
X111250000Y-101015000D03*
D10*
X111250000Y-98475000D03*
%TD*%
D13*
%TO.C,C32*%
X134592500Y-104750000D03*
X135407500Y-104750000D03*
%TD*%
D14*
%TO.C,C5*%
X169407500Y-101250000D03*
X168592500Y-101250000D03*
%TD*%
D16*
%TO.C,R16*%
X136000000Y-69592500D03*
X136000000Y-70407500D03*
%TD*%
D22*
%TO.C,C21*%
X137750000Y-88090000D03*
X137750000Y-87275000D03*
%TD*%
D13*
%TO.C,R13*%
X115742500Y-80900000D03*
X116557500Y-80900000D03*
%TD*%
D23*
%TO.C,TP3*%
X131500000Y-117750000D03*
%TD*%
D14*
%TO.C,C31*%
X164315000Y-73500000D03*
X163500000Y-73500000D03*
%TD*%
D24*
%TO.C,X1*%
X124450000Y-92015000D03*
X124450000Y-94215000D03*
X122750000Y-94215000D03*
X122750000Y-92015000D03*
%TD*%
D25*
%TO.C,J5*%
X174587500Y-88575000D03*
X174587500Y-82925000D03*
D26*
X174837500Y-85750000D03*
%TD*%
D14*
%TO.C,C12*%
X119615000Y-123387500D03*
X118800000Y-123387500D03*
%TD*%
D27*
%TO.C,U6*%
X130687500Y-87115000D03*
D28*
X126312277Y-86628864D03*
X126665830Y-86275311D03*
X127019384Y-85921757D03*
X127372937Y-85568204D03*
X127726490Y-85214651D03*
X128080044Y-84861097D03*
X128433597Y-84507544D03*
X128787151Y-84153990D03*
X129140704Y-83800437D03*
X129494257Y-83446884D03*
X129847811Y-83093330D03*
X130201364Y-82739777D03*
D29*
X131173636Y-82739777D03*
X131527189Y-83093330D03*
X131880743Y-83446884D03*
X132234296Y-83800437D03*
X132587849Y-84153990D03*
X132941403Y-84507544D03*
X133294956Y-84861097D03*
X133648510Y-85214651D03*
X134002063Y-85568204D03*
X134355616Y-85921757D03*
X134709170Y-86275311D03*
X135062723Y-86628864D03*
D28*
X135062723Y-87601136D03*
X134709170Y-87954689D03*
X134355616Y-88308243D03*
X134002063Y-88661796D03*
X133648510Y-89015349D03*
X133294956Y-89368903D03*
X132941403Y-89722456D03*
X132587849Y-90076010D03*
X132234296Y-90429563D03*
X131880743Y-90783116D03*
X131527189Y-91136670D03*
X131173636Y-91490223D03*
D29*
X130201364Y-91490223D03*
X129847811Y-91136670D03*
X129494257Y-90783116D03*
X129140704Y-90429563D03*
X128787151Y-90076010D03*
X128433597Y-89722456D03*
X128080044Y-89368903D03*
X127726490Y-89015349D03*
X127372937Y-88661796D03*
X127019384Y-88308243D03*
X126665830Y-87954689D03*
X126312277Y-87601136D03*
%TD*%
D16*
%TO.C,C15*%
X121750000Y-112842500D03*
X121750000Y-113657500D03*
%TD*%
D14*
%TO.C,C20*%
X131725000Y-80365000D03*
X130910000Y-80365000D03*
%TD*%
D16*
%TO.C,R8*%
X127750000Y-117635000D03*
X127750000Y-118450000D03*
%TD*%
D14*
%TO.C,C11*%
X127432500Y-115021250D03*
X126617500Y-115021250D03*
%TD*%
D13*
%TO.C,C3*%
X140600000Y-118650000D03*
X141415000Y-118650000D03*
%TD*%
D22*
%TO.C,C27*%
X128000000Y-94407500D03*
X128000000Y-93592500D03*
%TD*%
D30*
%TO.C,U7*%
X153450000Y-75550000D03*
D31*
X159750000Y-73250000D03*
D30*
X153450000Y-73250000D03*
X153450000Y-70950000D03*
%TD*%
D18*
%TO.C,D1*%
X110375000Y-83650000D03*
X112425000Y-83650000D03*
%TD*%
D13*
%TO.C,R17*%
X137842500Y-111750000D03*
X138657500Y-111750000D03*
%TD*%
D22*
%TO.C,C7*%
X132182500Y-114907500D03*
X132182500Y-114092500D03*
%TD*%
%TO.C,C17*%
X126250000Y-94657500D03*
X126250000Y-93842500D03*
%TD*%
D13*
%TO.C,R12*%
X115742500Y-83650000D03*
X116557500Y-83650000D03*
%TD*%
D32*
%TO.C,U9*%
X168387500Y-84800000D03*
X168387500Y-86700000D03*
X166112500Y-86700000D03*
X166112500Y-85750000D03*
X166112500Y-84800000D03*
%TD*%
D20*
%TO.C,REF\u002A\u002A*%
X172750000Y-129750000D03*
D21*
X172750000Y-129750000D03*
%TD*%
D16*
%TO.C,C8*%
X126932500Y-126977500D03*
X126932500Y-127792500D03*
%TD*%
D13*
%TO.C,R9*%
X122910000Y-84250000D03*
X123725000Y-84250000D03*
%TD*%
D33*
%TO.C,J3*%
X138430000Y-67800000D03*
D34*
X138430000Y-72000000D03*
D33*
X147070000Y-67800000D03*
D34*
X147070000Y-72000000D03*
D35*
X145950000Y-72600000D03*
X145150000Y-72600000D03*
D36*
X144500000Y-72600000D03*
X143500000Y-72600000D03*
X142000000Y-72600000D03*
X141000000Y-72600000D03*
D35*
X140350000Y-72600000D03*
X139550000Y-72600000D03*
X139550000Y-72600000D03*
X140350000Y-72600000D03*
D36*
X141500000Y-72600000D03*
X142500000Y-72600000D03*
X143000000Y-72600000D03*
X144000000Y-72600000D03*
D35*
X145150000Y-72600000D03*
X145950000Y-72600000D03*
%TD*%
D20*
%TO.C,REF\u002A\u002A*%
X172750000Y-69250000D03*
D21*
X172750000Y-69250000D03*
%TD*%
D13*
%TO.C,R6*%
X120775000Y-110750000D03*
X121590000Y-110750000D03*
%TD*%
%TO.C,C37*%
X167342500Y-83000000D03*
X168157500Y-83000000D03*
%TD*%
D16*
%TO.C,C1*%
X151000000Y-90342500D03*
X151000000Y-91157500D03*
%TD*%
D37*
%TO.C,U4*%
X124070000Y-113000000D03*
X124070000Y-112500000D03*
X124070000Y-112000000D03*
X124070000Y-111500000D03*
X124070000Y-111000000D03*
X128295000Y-111000000D03*
X128295000Y-111500000D03*
X128295000Y-112000000D03*
X128295000Y-112500000D03*
X128295000Y-113000000D03*
%TD*%
D14*
%TO.C,C29*%
X164315000Y-72000000D03*
X163500000Y-72000000D03*
%TD*%
D13*
%TO.C,L1*%
X131025000Y-113250000D03*
X131840000Y-113250000D03*
%TD*%
D16*
%TO.C,C6*%
X127932500Y-126977500D03*
X127932500Y-127792500D03*
%TD*%
D13*
%TO.C,R14*%
X115742500Y-78150000D03*
X116557500Y-78150000D03*
%TD*%
D23*
%TO.C,TP1*%
X133500000Y-110000000D03*
%TD*%
D14*
%TO.C,C28*%
X154157500Y-77750000D03*
X153342500Y-77750000D03*
%TD*%
D22*
%TO.C,C9*%
X130682500Y-114907500D03*
X130682500Y-114092500D03*
%TD*%
D38*
%TO.C,TH1*%
X140837500Y-111750000D03*
X140162500Y-111750000D03*
%TD*%
D14*
%TO.C,C33*%
X164315000Y-74250000D03*
X163500000Y-74250000D03*
%TD*%
D20*
%TO.C,REF\u002A\u002A*%
X112750000Y-129750000D03*
D21*
X112750000Y-129750000D03*
%TD*%
D14*
%TO.C,C10*%
X127432500Y-116021250D03*
X126617500Y-116021250D03*
%TD*%
D13*
%TO.C,C19*%
X122910000Y-85115000D03*
X123725000Y-85115000D03*
%TD*%
D14*
%TO.C,C23*%
X131725000Y-79365000D03*
X130910000Y-79365000D03*
%TD*%
D18*
%TO.C,D2*%
X110375000Y-80900000D03*
X112425000Y-80900000D03*
%TD*%
D16*
%TO.C,R4*%
X115957500Y-119385000D03*
X115957500Y-120200000D03*
%TD*%
D14*
%TO.C,C25*%
X131700000Y-78365000D03*
X130885000Y-78365000D03*
%TD*%
%TO.C,C34*%
X146407500Y-74500000D03*
X145592500Y-74500000D03*
%TD*%
D39*
%TO.C,U3*%
X118732500Y-129197500D03*
X118732500Y-127927500D03*
X118732500Y-126657500D03*
X118732500Y-125387500D03*
X123682500Y-125387500D03*
X123682500Y-126657500D03*
X123682500Y-127927500D03*
X123682500Y-129197500D03*
%TD*%
D13*
%TO.C,C13*%
X115117500Y-121292500D03*
X115932500Y-121292500D03*
%TD*%
%TO.C,C36*%
X167342500Y-82250000D03*
X168157500Y-82250000D03*
%TD*%
%TO.C,C22*%
X122910000Y-86115000D03*
X123725000Y-86115000D03*
%TD*%
D11*
%TO.C,J2*%
X113790000Y-94357500D03*
X111250000Y-94357500D03*
X113790000Y-91817500D03*
X111250000Y-91817500D03*
X113790000Y-89277500D03*
D10*
X111250000Y-89277500D03*
%TD*%
D16*
%TO.C,R15*%
X149250000Y-69592500D03*
X149250000Y-70407500D03*
%TD*%
D22*
%TO.C,C24*%
X138750000Y-88090000D03*
X138750000Y-87275000D03*
%TD*%
D14*
%TO.C,R7*%
X129157500Y-109500000D03*
X128342500Y-109500000D03*
%TD*%
D22*
%TO.C,C26*%
X129000000Y-94407500D03*
X129000000Y-93592500D03*
%TD*%
D13*
%TO.C,R5*%
X120775000Y-111750000D03*
X121590000Y-111750000D03*
%TD*%
D40*
%TO.C,TP2*%
X170750000Y-87250000D03*
%TD*%
D41*
%TO.C,OSC5A2B1*%
X164500000Y-102225000D03*
X164500000Y-121275000D03*
X145450000Y-121275000D03*
X145450000Y-111750000D03*
X145450000Y-102225000D03*
%TD*%
D14*
%TO.C,C30*%
X164315000Y-72750000D03*
X163500000Y-72750000D03*
%TD*%
%TO.C,C16*%
X123657500Y-90250000D03*
X122842500Y-90250000D03*
%TD*%
D13*
%TO.C,C14*%
X115117500Y-122042500D03*
X115932500Y-122042500D03*
%TD*%
%TO.C,C35*%
X139092500Y-74500000D03*
X139907500Y-74500000D03*
%TD*%
M02*
