%TF.GenerationSoftware,KiCad,Pcbnew,9.0.4*%
%TF.CreationDate,2025-10-04T20:06:30+02:00*%
%TF.ProjectId,gpsdo,67707364-6f2e-46b6-9963-61645f706362,rev?*%
%TF.SameCoordinates,Original*%
%TF.FileFunction,Copper,L3,Inr*%
%TF.FilePolarity,Positive*%
%FSLAX46Y46*%
G04 Gerber Fmt 4.6, Leading zero omitted, Abs format (unit mm)*
G04 Created by KiCad (PCBNEW 9.0.4) date 2025-10-04 20:06:30*
%MOMM*%
%LPD*%
G01*
G04 APERTURE LIST*
%TA.AperFunction,ComponentPad*%
%ADD10C,3.600000*%
%TD*%
%TA.AperFunction,ComponentPad*%
%ADD11R,1.700000X1.700000*%
%TD*%
%TA.AperFunction,ComponentPad*%
%ADD12C,1.700000*%
%TD*%
%TA.AperFunction,HeatsinkPad*%
%ADD13O,1.000000X2.100000*%
%TD*%
%TA.AperFunction,HeatsinkPad*%
%ADD14O,1.000000X1.800000*%
%TD*%
%TA.AperFunction,ComponentPad*%
%ADD15C,0.600000*%
%TD*%
%TA.AperFunction,ComponentPad*%
%ADD16C,2.540000*%
%TD*%
%TA.AperFunction,ViaPad*%
%ADD17C,0.600000*%
%TD*%
G04 APERTURE END LIST*
D10*
%TO.N,N/C*%
%TO.C,REF\u002A\u002A*%
X112750000Y-69750000D03*
%TD*%
D11*
%TO.N,PPS_5V*%
%TO.C,J1*%
X111250000Y-98475000D03*
D12*
%TO.N,GND*%
X111250000Y-101015000D03*
%TD*%
D11*
%TO.N,OCXO_5MHZ*%
%TO.C,J7*%
X119750000Y-68250000D03*
D12*
%TO.N,OCXO_2.5MHZ*%
X122290000Y-68250000D03*
%TO.N,OCXO_1.25MHZ*%
X124830000Y-68250000D03*
%TO.N,OCXO_625KHZ*%
X127370000Y-68250000D03*
%TO.N,GND*%
X129910000Y-68250000D03*
%TD*%
D10*
%TO.N,N/C*%
%TO.C,REF\u002A\u002A*%
X172750000Y-129750000D03*
%TD*%
D13*
%TO.N,GND*%
%TO.C,J3*%
X147070000Y-72000000D03*
D14*
X147070000Y-67800000D03*
D13*
X138430000Y-72000000D03*
D14*
X138430000Y-67800000D03*
%TD*%
D10*
%TO.N,N/C*%
%TO.C,REF\u002A\u002A*%
X172750000Y-69250000D03*
%TD*%
%TO.N,N/C*%
%TO.C,REF\u002A\u002A*%
X112750000Y-129750000D03*
%TD*%
D15*
%TO.N,GNDA*%
%TO.C,NT1*%
X129500000Y-104750000D03*
%TO.N,GND*%
X129500000Y-103550000D03*
%TD*%
%TO.N,VDDA_3V3*%
%TO.C,NT2*%
X129250000Y-95250000D03*
%TO.N,VDD_3V3*%
X129250000Y-96450000D03*
%TD*%
D11*
%TO.N,VDD_3V3*%
%TO.C,J2*%
X111250000Y-89277500D03*
D12*
%TO.N,NRST*%
X113790000Y-89277500D03*
%TO.N,SWO*%
X111250000Y-91817500D03*
%TO.N,SWCLK*%
X113790000Y-91817500D03*
%TO.N,SWDIO*%
X111250000Y-94357500D03*
%TO.N,GND*%
X113790000Y-94357500D03*
%TD*%
D15*
%TO.N,GNDA*%
%TO.C,NT3*%
X170890000Y-79850000D03*
%TO.N,GND*%
X170890000Y-78650000D03*
%TD*%
D16*
%TO.N,OCXO_Out*%
%TO.C,OSC5A2B1*%
X145450000Y-102225000D03*
%TO.N,GNDA*%
X145450000Y-111750000D03*
%TO.N,Net-(OSC5A2B1-Vref)*%
X145450000Y-121275000D03*
%TO.N,unconnected-(OSC5A2B1-NC-Pad4)*%
X164500000Y-121275000D03*
%TO.N,VCC_5V*%
X164500000Y-102225000D03*
%TD*%
D17*
%TO.N,GND*%
X133200000Y-80400000D03*
%TO.N,VDD_3V3*%
X124200000Y-87675220D03*
X122400000Y-102800000D03*
%TO.N,GND*%
X120800000Y-100000000D03*
X116000000Y-100000000D03*
%TO.N,VCC_5V*%
X116000000Y-104200000D03*
%TO.N,GND*%
X166000000Y-70750000D03*
X166000000Y-72250000D03*
X166000000Y-74000000D03*
X166000000Y-75500000D03*
%TO.N,VDD_3V3*%
X145750000Y-80500000D03*
%TO.N,GND*%
X140500000Y-90750000D03*
%TO.N,VDD_3V3*%
X140500000Y-87000000D03*
%TO.N,GND*%
X140500000Y-88500000D03*
X127750000Y-97500000D03*
X120250000Y-96000000D03*
X124750000Y-90000000D03*
%TO.N,VDD_3V3*%
X129250000Y-77250000D03*
%TO.N,GND*%
X122500000Y-87675220D03*
%TO.N,VDD_3V3*%
X124000000Y-109000000D03*
X120500000Y-115000000D03*
%TO.N,GND*%
X119000000Y-113500000D03*
%TO.N,AD5541A_DIN*%
X119000000Y-112000000D03*
%TO.N,AD5541A_SCLK*%
X119000000Y-110500000D03*
%TO.N,GNDA*%
X113000000Y-123250000D03*
X113000000Y-121250000D03*
X128500000Y-125500000D03*
X129250000Y-116500000D03*
%TO.N,VCC_5V*%
X134000000Y-115000000D03*
%TO.N,GNDA*%
X132500000Y-117750000D03*
X132250000Y-105250000D03*
%TO.N,VDD_3V3*%
X136000000Y-110000000D03*
%TO.N,GNDA*%
X141000000Y-124750000D03*
X141000000Y-116500000D03*
X169000000Y-105250000D03*
X165000000Y-81250000D03*
%TO.N,GND*%
X142750000Y-81750000D03*
X150750000Y-81750000D03*
X150500000Y-79500000D03*
X148750000Y-79500000D03*
%TO.N,VCC_5V*%
X156000000Y-92750000D03*
X151000000Y-92750000D03*
%TO.N,GND*%
X149750000Y-90250000D03*
X160500000Y-82250000D03*
X160500000Y-84750000D03*
%TO.N,OCXO_5MHZ*%
X150905000Y-88655000D03*
%TO.N,OCXO_2.5MHZ*%
X150865000Y-87385000D03*
%TO.N,OCXO_1.25MHZ*%
X150865000Y-86115000D03*
%TO.N,OCXO_625KHZ*%
X150865000Y-84900000D03*
%TO.N,VDD_3V3*%
X159000000Y-77750000D03*
X163500000Y-68750000D03*
X163500000Y-69500000D03*
X162750000Y-68750000D03*
X162750000Y-77000000D03*
X162000000Y-69500000D03*
X163500000Y-77000000D03*
X110400000Y-76400000D03*
X162750000Y-69500000D03*
X159750000Y-68750000D03*
X162000000Y-77000000D03*
X160500000Y-68750000D03*
X162000000Y-68750000D03*
X161250000Y-68750000D03*
X162750000Y-77750000D03*
X160500000Y-77750000D03*
X162000000Y-77750000D03*
X159750000Y-77750000D03*
X159000000Y-68750000D03*
X163500000Y-77750000D03*
X161250000Y-77750000D03*
%TD*%
%TA.AperFunction,Conductor*%
%TO.N,VDD_3V3*%
G36*
X172751351Y-65250559D02*
G01*
X173139481Y-65267505D01*
X173144799Y-65267969D01*
X173528687Y-65318510D01*
X173533937Y-65319436D01*
X173911942Y-65403237D01*
X173917098Y-65404618D01*
X174229133Y-65503002D01*
X174286357Y-65521045D01*
X174291399Y-65522880D01*
X174649104Y-65671046D01*
X174653945Y-65673304D01*
X174997372Y-65852081D01*
X175002004Y-65854755D01*
X175165278Y-65958772D01*
X175328546Y-66062785D01*
X175332941Y-66065863D01*
X175458592Y-66162278D01*
X175640098Y-66301552D01*
X175644188Y-66304983D01*
X175929654Y-66566565D01*
X175933434Y-66570345D01*
X176195014Y-66855809D01*
X176198448Y-66859903D01*
X176245778Y-66921584D01*
X176434136Y-67167058D01*
X176437214Y-67171453D01*
X176645240Y-67497988D01*
X176647922Y-67502634D01*
X176826690Y-67846043D01*
X176828958Y-67850906D01*
X176977119Y-68208600D01*
X176978954Y-68213642D01*
X177095377Y-68582888D01*
X177096765Y-68588070D01*
X177180560Y-68966045D01*
X177181492Y-68971329D01*
X177232028Y-69355187D01*
X177232495Y-69360531D01*
X177249441Y-69748648D01*
X177249500Y-69751331D01*
X177249500Y-93703530D01*
X177231487Y-93747017D01*
X177188000Y-93765030D01*
X177187977Y-93765030D01*
X168367547Y-93761751D01*
X168362492Y-93761541D01*
X168217174Y-93749500D01*
X168217162Y-93749500D01*
X168065892Y-93749500D01*
X158315892Y-93749500D01*
X158250000Y-93749500D01*
X158124802Y-93749500D01*
X158124794Y-93749500D01*
X158070582Y-93757295D01*
X158061807Y-93757921D01*
X152172921Y-93755732D01*
X152164192Y-93755106D01*
X152125206Y-93749500D01*
X152125198Y-93749500D01*
X152065892Y-93749500D01*
X142065892Y-93749500D01*
X142000000Y-93749500D01*
X141782838Y-93749500D01*
X141782826Y-93749500D01*
X141756900Y-93751649D01*
X141751799Y-93751859D01*
X136750000Y-93750000D01*
X136750000Y-98774259D01*
X136749790Y-98779337D01*
X136749500Y-98782826D01*
X136749500Y-108875197D01*
X136749657Y-108877395D01*
X136749593Y-108877399D01*
X136750000Y-108883077D01*
X136750000Y-114866924D01*
X136749593Y-114872603D01*
X136749657Y-114872608D01*
X136749500Y-114874805D01*
X136749500Y-125217169D01*
X136749790Y-125220660D01*
X136750000Y-125225740D01*
X136750000Y-134188000D01*
X136731987Y-134231487D01*
X136688500Y-134249500D01*
X112751332Y-134249500D01*
X112748649Y-134249441D01*
X112360531Y-134232495D01*
X112355187Y-134232028D01*
X111971329Y-134181492D01*
X111966045Y-134180560D01*
X111588070Y-134096765D01*
X111582888Y-134095377D01*
X111213642Y-133978954D01*
X111208600Y-133977119D01*
X110850906Y-133828958D01*
X110846043Y-133826690D01*
X110502634Y-133647922D01*
X110497988Y-133645240D01*
X110171453Y-133437214D01*
X110167058Y-133434136D01*
X109985562Y-133294870D01*
X109859903Y-133198448D01*
X109855809Y-133195014D01*
X109570345Y-132933434D01*
X109566565Y-132929654D01*
X109304983Y-132644188D01*
X109301552Y-132640098D01*
X109162278Y-132458592D01*
X109065863Y-132332941D01*
X109062785Y-132328546D01*
X108854759Y-132002011D01*
X108852077Y-131997365D01*
X108673304Y-131653945D01*
X108671046Y-131649104D01*
X108522880Y-131291399D01*
X108521045Y-131286357D01*
X108463828Y-131104888D01*
X108404618Y-130917098D01*
X108403237Y-130911942D01*
X108319436Y-130533937D01*
X108318510Y-130528687D01*
X108267969Y-130144799D01*
X108267505Y-130139481D01*
X108250559Y-129751351D01*
X108250500Y-129748668D01*
X108250500Y-129615597D01*
X110699500Y-129615597D01*
X110699500Y-129884402D01*
X110734585Y-130150898D01*
X110804151Y-130410520D01*
X110804153Y-130410526D01*
X110907016Y-130658859D01*
X110992219Y-130806435D01*
X111041412Y-130891640D01*
X111060956Y-130917111D01*
X111205044Y-131104890D01*
X111395110Y-131294956D01*
X111608359Y-131458587D01*
X111841141Y-131592984D01*
X112089474Y-131695847D01*
X112271970Y-131744746D01*
X112349101Y-131765414D01*
X112349102Y-131765414D01*
X112349109Y-131765416D01*
X112615603Y-131800500D01*
X112615606Y-131800500D01*
X112884394Y-131800500D01*
X112884397Y-131800500D01*
X113150891Y-131765416D01*
X113410526Y-131695847D01*
X113658859Y-131592984D01*
X113891641Y-131458587D01*
X114104890Y-131294956D01*
X114294956Y-131104890D01*
X114458587Y-130891641D01*
X114592984Y-130658859D01*
X114695847Y-130410526D01*
X114765416Y-130150891D01*
X114800500Y-129884397D01*
X114800500Y-129615603D01*
X114765416Y-129349109D01*
X114763261Y-129341068D01*
X114695848Y-129089479D01*
X114695847Y-129089474D01*
X114592984Y-128841141D01*
X114458587Y-128608359D01*
X114435556Y-128578344D01*
X114294957Y-128395111D01*
X114104888Y-128205042D01*
X113891640Y-128041412D01*
X113806435Y-127992219D01*
X113658859Y-127907016D01*
X113410526Y-127804153D01*
X113410520Y-127804151D01*
X113150898Y-127734585D01*
X113150891Y-127734584D01*
X113122519Y-127730848D01*
X112884402Y-127699500D01*
X112884397Y-127699500D01*
X112615603Y-127699500D01*
X112615597Y-127699500D01*
X112349101Y-127734585D01*
X112089479Y-127804151D01*
X112089473Y-127804153D01*
X111841143Y-127907015D01*
X111608359Y-128041412D01*
X111395111Y-128205042D01*
X111205042Y-128395111D01*
X111041412Y-128608359D01*
X110907015Y-128841143D01*
X110804153Y-129089473D01*
X110804151Y-129089479D01*
X110734585Y-129349101D01*
X110699500Y-129615597D01*
X108250500Y-129615597D01*
X108250500Y-125459769D01*
X125974500Y-125459769D01*
X125974500Y-125565230D01*
X126001790Y-125667080D01*
X126001792Y-125667084D01*
X126001793Y-125667087D01*
X126054520Y-125758413D01*
X126129087Y-125832980D01*
X126220413Y-125885707D01*
X126220417Y-125885708D01*
X126220419Y-125885709D01*
X126322269Y-125912999D01*
X126322271Y-125913000D01*
X126322273Y-125913000D01*
X126427729Y-125913000D01*
X126427729Y-125912999D01*
X126529587Y-125885707D01*
X126620913Y-125832980D01*
X126695480Y-125758413D01*
X126748207Y-125667087D01*
X126775499Y-125565229D01*
X126775500Y-125565229D01*
X126775500Y-125459773D01*
X126770044Y-125439411D01*
X126770044Y-125439409D01*
X126766859Y-125427522D01*
X127949500Y-125427522D01*
X127949500Y-125572477D01*
X127987014Y-125712480D01*
X127987015Y-125712482D01*
X127987016Y-125712485D01*
X128059491Y-125838015D01*
X128161985Y-125940509D01*
X128287515Y-126012984D01*
X128287519Y-126012985D01*
X128427523Y-126050500D01*
X128427525Y-126050500D01*
X128572476Y-126050500D01*
X128634206Y-126033958D01*
X128712485Y-126012984D01*
X128838015Y-125940509D01*
X128940509Y-125838015D01*
X129012984Y-125712485D01*
X129029726Y-125650003D01*
X129050500Y-125572477D01*
X129050500Y-125427522D01*
X129012985Y-125287519D01*
X129012984Y-125287515D01*
X128940509Y-125161985D01*
X128838015Y-125059491D01*
X128712485Y-124987016D01*
X128712482Y-124987015D01*
X128712480Y-124987014D01*
X128572477Y-124949500D01*
X128572475Y-124949500D01*
X128427525Y-124949500D01*
X128427523Y-124949500D01*
X128287519Y-124987014D01*
X128287515Y-124987016D01*
X128161986Y-125059490D01*
X128161981Y-125059494D01*
X128059494Y-125161981D01*
X128059490Y-125161986D01*
X127987016Y-125287515D01*
X127987014Y-125287519D01*
X127949500Y-125427522D01*
X126766859Y-125427522D01*
X126748208Y-125357917D01*
X126748207Y-125357913D01*
X126695480Y-125266587D01*
X126620913Y-125192020D01*
X126529587Y-125139293D01*
X126529584Y-125139292D01*
X126529580Y-125139290D01*
X126427730Y-125112000D01*
X126427727Y-125112000D01*
X126322273Y-125112000D01*
X126322270Y-125112000D01*
X126220419Y-125139290D01*
X126220413Y-125139293D01*
X126129088Y-125192019D01*
X126129083Y-125192023D01*
X126054523Y-125266583D01*
X126054519Y-125266588D01*
X126001793Y-125357913D01*
X126001790Y-125357919D01*
X125974500Y-125459769D01*
X108250500Y-125459769D01*
X108250500Y-123177522D01*
X112449500Y-123177522D01*
X112449500Y-123322477D01*
X112487014Y-123462480D01*
X112487015Y-123462482D01*
X112487016Y-123462485D01*
X112559491Y-123588015D01*
X112661985Y-123690509D01*
X112787515Y-123762984D01*
X112787519Y-123762985D01*
X112927523Y-123800500D01*
X112927525Y-123800500D01*
X113072476Y-123800500D01*
X113134206Y-123783958D01*
X113212485Y-123762984D01*
X113338015Y-123690509D01*
X113440509Y-123588015D01*
X113512984Y-123462485D01*
X113528500Y-123404580D01*
X113550500Y-123322477D01*
X113550500Y-123197269D01*
X121099500Y-123197269D01*
X121099500Y-123302730D01*
X121126790Y-123404580D01*
X121126792Y-123404584D01*
X121126793Y-123404587D01*
X121179520Y-123495913D01*
X121254087Y-123570480D01*
X121345413Y-123623207D01*
X121345417Y-123623208D01*
X121345419Y-123623209D01*
X121447269Y-123650499D01*
X121447271Y-123650500D01*
X121447273Y-123650500D01*
X121552729Y-123650500D01*
X121552729Y-123650499D01*
X121654587Y-123623207D01*
X121745913Y-123570480D01*
X121820480Y-123495913D01*
X121873207Y-123404587D01*
X121900499Y-123302729D01*
X121900500Y-123302729D01*
X121900500Y-123197270D01*
X121900499Y-123197269D01*
X121873209Y-123095419D01*
X121873208Y-123095417D01*
X121873207Y-123095413D01*
X121820480Y-123004087D01*
X121745913Y-122929520D01*
X121654587Y-122876793D01*
X121654584Y-122876792D01*
X121654580Y-122876790D01*
X121552730Y-122849500D01*
X121552727Y-122849500D01*
X121447273Y-122849500D01*
X121447270Y-122849500D01*
X121345419Y-122876790D01*
X121345413Y-122876793D01*
X121254088Y-122929519D01*
X121254083Y-122929523D01*
X121179523Y-123004083D01*
X121179519Y-123004088D01*
X121126793Y-123095413D01*
X121126790Y-123095419D01*
X121099500Y-123197269D01*
X113550500Y-123197269D01*
X113550500Y-123177522D01*
X113512985Y-123037519D01*
X113512984Y-123037515D01*
X113440509Y-122911985D01*
X113338015Y-122809491D01*
X113212485Y-122737016D01*
X113212482Y-122737015D01*
X113212480Y-122737014D01*
X113072477Y-122699500D01*
X113072475Y-122699500D01*
X112927525Y-122699500D01*
X112927523Y-122699500D01*
X112787519Y-122737014D01*
X112787515Y-122737016D01*
X112661986Y-122809490D01*
X112661981Y-122809494D01*
X112559494Y-122911981D01*
X112559490Y-122911986D01*
X112487016Y-123037515D01*
X112487014Y-123037519D01*
X112449500Y-123177522D01*
X108250500Y-123177522D01*
X108250500Y-121177522D01*
X112449500Y-121177522D01*
X112449500Y-121322477D01*
X112487014Y-121462480D01*
X112487015Y-121462482D01*
X112487016Y-121462485D01*
X112559491Y-121588015D01*
X112661985Y-121690509D01*
X112787515Y-121762984D01*
X112787519Y-121762985D01*
X112927523Y-121800500D01*
X112927525Y-121800500D01*
X113072476Y-121800500D01*
X113134206Y-121783958D01*
X113212485Y-121762984D01*
X113326306Y-121697269D01*
X121099500Y-121697269D01*
X121099500Y-121802730D01*
X121126790Y-121904580D01*
X121126792Y-121904584D01*
X121126793Y-121904587D01*
X121179520Y-121995913D01*
X121254087Y-122070480D01*
X121345413Y-122123207D01*
X121345417Y-122123208D01*
X121345419Y-122123209D01*
X121447269Y-122150499D01*
X121447271Y-122150500D01*
X121447273Y-122150500D01*
X121552729Y-122150500D01*
X121552729Y-122150499D01*
X121654587Y-122123207D01*
X121745913Y-122070480D01*
X121820480Y-121995913D01*
X121873207Y-121904587D01*
X121900499Y-121802729D01*
X121900500Y-121802729D01*
X121900500Y-121697270D01*
X121900499Y-121697269D01*
X121873209Y-121595419D01*
X121873208Y-121595417D01*
X121873207Y-121595413D01*
X121820480Y-121504087D01*
X121745913Y-121429520D01*
X121654587Y-121376793D01*
X121654584Y-121376792D01*
X121654580Y-121376790D01*
X121552730Y-121349500D01*
X121552727Y-121349500D01*
X121447273Y-121349500D01*
X121447270Y-121349500D01*
X121345419Y-121376790D01*
X121345413Y-121376793D01*
X121254088Y-121429519D01*
X121254083Y-121429523D01*
X121179523Y-121504083D01*
X121179519Y-121504088D01*
X121126793Y-121595413D01*
X121126790Y-121595419D01*
X121099500Y-121697269D01*
X113326306Y-121697269D01*
X113338015Y-121690509D01*
X113440509Y-121588015D01*
X113512984Y-121462485D01*
X113531156Y-121394666D01*
X113550500Y-121322477D01*
X113550500Y-121177522D01*
X113512985Y-121037519D01*
X113512984Y-121037515D01*
X113440509Y-120911985D01*
X113338015Y-120809491D01*
X113212485Y-120737016D01*
X113212482Y-120737015D01*
X113212480Y-120737014D01*
X113072477Y-120699500D01*
X113072475Y-120699500D01*
X112927525Y-120699500D01*
X112927523Y-120699500D01*
X112787519Y-120737014D01*
X112787515Y-120737016D01*
X112661986Y-120809490D01*
X112661981Y-120809494D01*
X112559494Y-120911981D01*
X112559490Y-120911986D01*
X112487016Y-121037515D01*
X112487014Y-121037519D01*
X112449500Y-121177522D01*
X108250500Y-121177522D01*
X108250500Y-117947269D01*
X125849500Y-117947269D01*
X125849500Y-118052730D01*
X125876790Y-118154580D01*
X125876792Y-118154584D01*
X125876793Y-118154587D01*
X125929520Y-118245913D01*
X126004087Y-118320480D01*
X126095413Y-118373207D01*
X126095417Y-118373208D01*
X126095419Y-118373209D01*
X126197269Y-118400499D01*
X126197271Y-118400500D01*
X126197273Y-118400500D01*
X126302729Y-118400500D01*
X126302729Y-118400499D01*
X126404587Y-118373207D01*
X126495913Y-118320480D01*
X126570480Y-118245913D01*
X126623207Y-118154587D01*
X126650499Y-118052729D01*
X126650500Y-118052729D01*
X126650500Y-117947270D01*
X126650499Y-117947269D01*
X126623209Y-117845419D01*
X126623208Y-117845417D01*
X126623207Y-117845413D01*
X126570480Y-117754087D01*
X126495913Y-117679520D01*
X126492452Y-117677522D01*
X131949500Y-117677522D01*
X131949500Y-117822477D01*
X131987014Y-117962480D01*
X131987015Y-117962482D01*
X131987016Y-117962485D01*
X132059491Y-118088015D01*
X132161985Y-118190509D01*
X132287515Y-118262984D01*
X132287519Y-118262985D01*
X132427523Y-118300500D01*
X132427525Y-118300500D01*
X132572476Y-118300500D01*
X132634206Y-118283958D01*
X132712485Y-118262984D01*
X132838015Y-118190509D01*
X132940509Y-118088015D01*
X133012984Y-117962485D01*
X133044354Y-117845413D01*
X133050500Y-117822477D01*
X133050500Y-117677522D01*
X133012985Y-117537519D01*
X133012984Y-117537515D01*
X132940509Y-117411985D01*
X132838015Y-117309491D01*
X132712485Y-117237016D01*
X132712482Y-117237015D01*
X132712480Y-117237014D01*
X132572477Y-117199500D01*
X132572475Y-117199500D01*
X132427525Y-117199500D01*
X132427523Y-117199500D01*
X132287519Y-117237014D01*
X132287515Y-117237016D01*
X132161986Y-117309490D01*
X132161981Y-117309494D01*
X132059494Y-117411981D01*
X132059490Y-117411986D01*
X131987016Y-117537515D01*
X131987014Y-117537519D01*
X131949500Y-117677522D01*
X126492452Y-117677522D01*
X126404587Y-117626793D01*
X126404584Y-117626792D01*
X126404580Y-117626790D01*
X126302730Y-117599500D01*
X126302727Y-117599500D01*
X126197273Y-117599500D01*
X126197270Y-117599500D01*
X126095419Y-117626790D01*
X126095413Y-117626793D01*
X126004088Y-117679519D01*
X126004083Y-117679523D01*
X125929523Y-117754083D01*
X125929519Y-117754088D01*
X125876793Y-117845413D01*
X125876790Y-117845419D01*
X125849500Y-117947269D01*
X108250500Y-117947269D01*
X108250500Y-116427522D01*
X128699500Y-116427522D01*
X128699500Y-116572477D01*
X128737014Y-116712480D01*
X128737015Y-116712482D01*
X128737016Y-116712485D01*
X128809491Y-116838015D01*
X128911985Y-116940509D01*
X129037515Y-117012984D01*
X129037519Y-117012985D01*
X129177523Y-117050500D01*
X129177525Y-117050500D01*
X129322476Y-117050500D01*
X129384206Y-117033958D01*
X129462485Y-117012984D01*
X129588015Y-116940509D01*
X129690509Y-116838015D01*
X129762984Y-116712485D01*
X129777540Y-116658158D01*
X129800500Y-116572477D01*
X129800500Y-116427522D01*
X129762985Y-116287519D01*
X129762984Y-116287515D01*
X129690509Y-116161985D01*
X129588015Y-116059491D01*
X129462485Y-115987016D01*
X129462482Y-115987015D01*
X129462480Y-115987014D01*
X129322477Y-115949500D01*
X129322475Y-115949500D01*
X129177525Y-115949500D01*
X129177523Y-115949500D01*
X129037519Y-115987014D01*
X129037515Y-115987016D01*
X128911986Y-116059490D01*
X128911981Y-116059494D01*
X128809494Y-116161981D01*
X128809490Y-116161986D01*
X128737016Y-116287515D01*
X128737014Y-116287519D01*
X128699500Y-116427522D01*
X108250500Y-116427522D01*
X108250500Y-114927522D01*
X133449500Y-114927522D01*
X133449500Y-115072477D01*
X133487014Y-115212480D01*
X133487015Y-115212482D01*
X133487016Y-115212485D01*
X133559491Y-115338015D01*
X133661985Y-115440509D01*
X133787515Y-115512984D01*
X133787519Y-115512985D01*
X133927523Y-115550500D01*
X133927525Y-115550500D01*
X134072476Y-115550500D01*
X134134206Y-115533958D01*
X134212485Y-115512984D01*
X134338015Y-115440509D01*
X134440509Y-115338015D01*
X134512984Y-115212485D01*
X134527540Y-115158158D01*
X134550500Y-115072477D01*
X134550500Y-114927522D01*
X134512985Y-114787519D01*
X134512984Y-114787515D01*
X134440509Y-114661985D01*
X134338015Y-114559491D01*
X134212485Y-114487016D01*
X134212482Y-114487015D01*
X134212480Y-114487014D01*
X134072477Y-114449500D01*
X134072475Y-114449500D01*
X133927525Y-114449500D01*
X133927523Y-114449500D01*
X133787519Y-114487014D01*
X133787515Y-114487016D01*
X133661986Y-114559490D01*
X133661981Y-114559494D01*
X133559494Y-114661981D01*
X133559490Y-114661986D01*
X133487016Y-114787515D01*
X133487014Y-114787519D01*
X133449500Y-114927522D01*
X108250500Y-114927522D01*
X108250500Y-113427522D01*
X118449500Y-113427522D01*
X118449500Y-113572477D01*
X118487014Y-113712480D01*
X118487015Y-113712482D01*
X118487016Y-113712485D01*
X118559491Y-113838015D01*
X118661985Y-113940509D01*
X118787515Y-114012984D01*
X118787519Y-114012985D01*
X118927523Y-114050500D01*
X118927525Y-114050500D01*
X119072476Y-114050500D01*
X119134206Y-114033958D01*
X119212485Y-114012984D01*
X119338015Y-113940509D01*
X119440509Y-113838015D01*
X119512984Y-113712485D01*
X119544445Y-113595073D01*
X119550500Y-113572477D01*
X119550500Y-113427522D01*
X119512985Y-113287519D01*
X119512984Y-113287515D01*
X119440509Y-113161985D01*
X119338015Y-113059491D01*
X119212485Y-112987016D01*
X119212482Y-112987015D01*
X119212480Y-112987014D01*
X119072477Y-112949500D01*
X119072475Y-112949500D01*
X118927525Y-112949500D01*
X118927523Y-112949500D01*
X118787519Y-112987014D01*
X118787515Y-112987016D01*
X118661986Y-113059490D01*
X118661981Y-113059494D01*
X118559494Y-113161981D01*
X118559490Y-113161986D01*
X118487016Y-113287515D01*
X118487014Y-113287519D01*
X118449500Y-113427522D01*
X108250500Y-113427522D01*
X108250500Y-111927522D01*
X118449500Y-111927522D01*
X118449500Y-112072477D01*
X118487014Y-112212480D01*
X118487015Y-112212482D01*
X118487016Y-112212485D01*
X118559491Y-112338015D01*
X118661985Y-112440509D01*
X118787515Y-112512984D01*
X118787519Y-112512985D01*
X118927523Y-112550500D01*
X118927525Y-112550500D01*
X119072476Y-112550500D01*
X119134206Y-112533958D01*
X119212485Y-112512984D01*
X119338015Y-112440509D01*
X119440509Y-112338015D01*
X119512984Y-112212485D01*
X119527540Y-112158158D01*
X119550500Y-112072477D01*
X119550500Y-111927522D01*
X119512985Y-111787519D01*
X119512984Y-111787515D01*
X119440509Y-111661985D01*
X119338015Y-111559491D01*
X119212485Y-111487016D01*
X119212482Y-111487015D01*
X119212480Y-111487014D01*
X119072477Y-111449500D01*
X119072475Y-111449500D01*
X118927525Y-111449500D01*
X118927523Y-111449500D01*
X118787519Y-111487014D01*
X118787515Y-111487016D01*
X118661986Y-111559490D01*
X118661981Y-111559494D01*
X118559494Y-111661981D01*
X118559490Y-111661986D01*
X118487016Y-111787515D01*
X118487014Y-111787519D01*
X118449500Y-111927522D01*
X108250500Y-111927522D01*
X108250500Y-110427522D01*
X118449500Y-110427522D01*
X118449500Y-110572477D01*
X118487014Y-110712480D01*
X118487015Y-110712482D01*
X118487016Y-110712485D01*
X118559491Y-110838015D01*
X118661985Y-110940509D01*
X118787515Y-111012984D01*
X118787519Y-111012985D01*
X118927523Y-111050500D01*
X118927525Y-111050500D01*
X119072476Y-111050500D01*
X119134206Y-111033958D01*
X119212485Y-111012984D01*
X119338015Y-110940509D01*
X119440509Y-110838015D01*
X119512984Y-110712485D01*
X119531249Y-110644320D01*
X119550500Y-110572477D01*
X119550500Y-110427522D01*
X119516061Y-110298999D01*
X119512984Y-110287515D01*
X119440509Y-110161985D01*
X119338015Y-110059491D01*
X119212485Y-109987016D01*
X119212482Y-109987015D01*
X119212480Y-109987014D01*
X119072477Y-109949500D01*
X119072475Y-109949500D01*
X118927525Y-109949500D01*
X118927523Y-109949500D01*
X118787519Y-109987014D01*
X118787515Y-109987016D01*
X118661986Y-110059490D01*
X118661981Y-110059494D01*
X118559494Y-110161981D01*
X118559490Y-110161986D01*
X118487016Y-110287515D01*
X118487014Y-110287519D01*
X118449500Y-110427522D01*
X108250500Y-110427522D01*
X108250500Y-104127522D01*
X115449500Y-104127522D01*
X115449500Y-104272477D01*
X115487014Y-104412480D01*
X115487015Y-104412482D01*
X115487016Y-104412485D01*
X115559491Y-104538015D01*
X115661985Y-104640509D01*
X115787515Y-104712984D01*
X115787519Y-104712985D01*
X115927523Y-104750500D01*
X115927525Y-104750500D01*
X116072476Y-104750500D01*
X116134206Y-104733958D01*
X116212485Y-104712984D01*
X116338015Y-104640509D01*
X116440509Y-104538015D01*
X116512984Y-104412485D01*
X116540581Y-104309494D01*
X116550500Y-104272477D01*
X116550500Y-104127522D01*
X116512985Y-103987519D01*
X116512984Y-103987515D01*
X116440509Y-103861985D01*
X116338015Y-103759491D01*
X116212485Y-103687016D01*
X116212482Y-103687015D01*
X116212480Y-103687014D01*
X116072477Y-103649500D01*
X116072475Y-103649500D01*
X115927525Y-103649500D01*
X115927523Y-103649500D01*
X115787519Y-103687014D01*
X115787515Y-103687016D01*
X115661986Y-103759490D01*
X115661981Y-103759494D01*
X115559494Y-103861981D01*
X115559490Y-103861986D01*
X115487016Y-103987515D01*
X115487014Y-103987519D01*
X115449500Y-104127522D01*
X108250500Y-104127522D01*
X108250500Y-103477522D01*
X128949500Y-103477522D01*
X128949500Y-103622477D01*
X128987014Y-103762480D01*
X128987015Y-103762482D01*
X128987016Y-103762485D01*
X129059491Y-103888015D01*
X129161985Y-103990509D01*
X129287515Y-104062984D01*
X129287519Y-104062985D01*
X129390561Y-104090596D01*
X129427904Y-104119250D01*
X129434047Y-104165918D01*
X129405393Y-104203261D01*
X129390561Y-104209404D01*
X129287519Y-104237014D01*
X129287515Y-104237016D01*
X129161986Y-104309490D01*
X129161981Y-104309494D01*
X129059494Y-104411981D01*
X129059490Y-104411986D01*
X128987016Y-104537515D01*
X128987014Y-104537519D01*
X128949500Y-104677522D01*
X128949500Y-104822477D01*
X128987014Y-104962480D01*
X128987015Y-104962482D01*
X128987016Y-104962485D01*
X129059491Y-105088015D01*
X129161985Y-105190509D01*
X129287515Y-105262984D01*
X129287519Y-105262985D01*
X129427523Y-105300500D01*
X129427525Y-105300500D01*
X129572476Y-105300500D01*
X129634206Y-105283958D01*
X129712485Y-105262984D01*
X129838015Y-105190509D01*
X129851002Y-105177522D01*
X131699500Y-105177522D01*
X131699500Y-105322477D01*
X131737014Y-105462480D01*
X131737015Y-105462482D01*
X131737016Y-105462485D01*
X131809491Y-105588015D01*
X131911985Y-105690509D01*
X132037515Y-105762984D01*
X132037519Y-105762985D01*
X132177523Y-105800500D01*
X132177525Y-105800500D01*
X132322476Y-105800500D01*
X132384206Y-105783958D01*
X132462485Y-105762984D01*
X132588015Y-105690509D01*
X132690509Y-105588015D01*
X132762984Y-105462485D01*
X132777540Y-105408158D01*
X132800500Y-105322477D01*
X132800500Y-105177522D01*
X132762985Y-105037519D01*
X132762984Y-105037515D01*
X132690509Y-104911985D01*
X132588015Y-104809491D01*
X132462485Y-104737016D01*
X132462482Y-104737015D01*
X132462480Y-104737014D01*
X132322477Y-104699500D01*
X132322475Y-104699500D01*
X132177525Y-104699500D01*
X132177523Y-104699500D01*
X132037519Y-104737014D01*
X132037515Y-104737016D01*
X131911986Y-104809490D01*
X131911981Y-104809494D01*
X131809494Y-104911981D01*
X131809490Y-104911986D01*
X131737016Y-105037515D01*
X131737014Y-105037519D01*
X131699500Y-105177522D01*
X129851002Y-105177522D01*
X129940509Y-105088015D01*
X130012984Y-104962485D01*
X130027540Y-104908158D01*
X130050500Y-104822477D01*
X130050500Y-104677522D01*
X130012985Y-104537519D01*
X130012984Y-104537515D01*
X129940509Y-104411985D01*
X129838015Y-104309491D01*
X129712485Y-104237016D01*
X129712482Y-104237015D01*
X129712480Y-104237014D01*
X129609438Y-104209404D01*
X129572095Y-104180750D01*
X129565952Y-104134082D01*
X129594606Y-104096739D01*
X129609438Y-104090596D01*
X129659453Y-104077194D01*
X129712485Y-104062984D01*
X129838015Y-103990509D01*
X129940509Y-103888015D01*
X130012984Y-103762485D01*
X130043259Y-103649500D01*
X130050500Y-103622477D01*
X130050500Y-103477522D01*
X130012985Y-103337519D01*
X130012984Y-103337515D01*
X129940509Y-103211985D01*
X129838015Y-103109491D01*
X129712485Y-103037016D01*
X129712482Y-103037015D01*
X129712480Y-103037014D01*
X129572477Y-102999500D01*
X129572475Y-102999500D01*
X129427525Y-102999500D01*
X129427523Y-102999500D01*
X129287519Y-103037014D01*
X129287515Y-103037016D01*
X129161986Y-103109490D01*
X129161981Y-103109494D01*
X129059494Y-103211981D01*
X129059490Y-103211986D01*
X128987016Y-103337515D01*
X128987014Y-103337519D01*
X128949500Y-103477522D01*
X108250500Y-103477522D01*
X108250500Y-100928385D01*
X110149500Y-100928385D01*
X110149500Y-101101614D01*
X110176598Y-101272703D01*
X110230127Y-101437446D01*
X110308769Y-101591790D01*
X110410584Y-101731926D01*
X110533073Y-101854415D01*
X110673209Y-101956230D01*
X110673212Y-101956232D01*
X110827555Y-102034873D01*
X110992296Y-102088401D01*
X110992299Y-102088402D01*
X111163389Y-102115500D01*
X111163393Y-102115500D01*
X111336607Y-102115500D01*
X111336611Y-102115500D01*
X111507701Y-102088402D01*
X111672445Y-102034873D01*
X111826788Y-101956232D01*
X111966928Y-101854414D01*
X112089414Y-101731928D01*
X112191232Y-101591788D01*
X112269873Y-101437445D01*
X112323402Y-101272701D01*
X112350500Y-101101611D01*
X112350500Y-100928389D01*
X112323402Y-100757299D01*
X112269873Y-100592555D01*
X112191232Y-100438212D01*
X112118437Y-100338018D01*
X112089415Y-100298073D01*
X111966926Y-100175584D01*
X111826790Y-100073769D01*
X111672446Y-99995127D01*
X111631995Y-99981984D01*
X111507702Y-99941598D01*
X111507704Y-99941598D01*
X111418832Y-99927522D01*
X115449500Y-99927522D01*
X115449500Y-100072477D01*
X115487014Y-100212480D01*
X115487015Y-100212482D01*
X115487016Y-100212485D01*
X115559491Y-100338015D01*
X115661985Y-100440509D01*
X115787515Y-100512984D01*
X115787519Y-100512985D01*
X115927523Y-100550500D01*
X115927525Y-100550500D01*
X116072476Y-100550500D01*
X116134206Y-100533958D01*
X116212485Y-100512984D01*
X116338015Y-100440509D01*
X116440509Y-100338015D01*
X116512984Y-100212485D01*
X116536907Y-100123206D01*
X116550500Y-100072477D01*
X116550500Y-99927522D01*
X120249500Y-99927522D01*
X120249500Y-100072477D01*
X120287014Y-100212480D01*
X120287015Y-100212482D01*
X120287016Y-100212485D01*
X120359491Y-100338015D01*
X120461985Y-100440509D01*
X120587515Y-100512984D01*
X120587519Y-100512985D01*
X120727523Y-100550500D01*
X120727525Y-100550500D01*
X120872476Y-100550500D01*
X120934206Y-100533958D01*
X121012485Y-100512984D01*
X121138015Y-100440509D01*
X121240509Y-100338015D01*
X121312984Y-100212485D01*
X121336907Y-100123206D01*
X121350500Y-100072477D01*
X121350500Y-99927522D01*
X121312985Y-99787519D01*
X121312984Y-99787515D01*
X121260880Y-99697269D01*
X122599500Y-99697269D01*
X122599500Y-99802730D01*
X122626790Y-99904580D01*
X122626792Y-99904584D01*
X122626793Y-99904587D01*
X122679520Y-99995913D01*
X122754087Y-100070480D01*
X122845413Y-100123207D01*
X122845417Y-100123208D01*
X122845419Y-100123209D01*
X122947269Y-100150499D01*
X122947271Y-100150500D01*
X122947273Y-100150500D01*
X123052729Y-100150500D01*
X123052729Y-100150499D01*
X123154587Y-100123207D01*
X123245913Y-100070480D01*
X123320480Y-99995913D01*
X123373207Y-99904587D01*
X123400499Y-99802729D01*
X123400500Y-99802729D01*
X123400500Y-99697270D01*
X123400499Y-99697269D01*
X123373209Y-99595419D01*
X123373208Y-99595417D01*
X123373207Y-99595413D01*
X123320480Y-99504087D01*
X123245913Y-99429520D01*
X123154587Y-99376793D01*
X123154584Y-99376792D01*
X123154580Y-99376790D01*
X123052730Y-99349500D01*
X123052727Y-99349500D01*
X122947273Y-99349500D01*
X122947270Y-99349500D01*
X122845419Y-99376790D01*
X122845413Y-99376793D01*
X122754088Y-99429519D01*
X122754083Y-99429523D01*
X122679523Y-99504083D01*
X122679519Y-99504088D01*
X122626793Y-99595413D01*
X122626790Y-99595419D01*
X122599500Y-99697269D01*
X121260880Y-99697269D01*
X121240509Y-99661985D01*
X121138015Y-99559491D01*
X121012485Y-99487016D01*
X121012482Y-99487015D01*
X121012480Y-99487014D01*
X120872477Y-99449500D01*
X120872475Y-99449500D01*
X120727525Y-99449500D01*
X120727523Y-99449500D01*
X120587519Y-99487014D01*
X120587515Y-99487016D01*
X120461986Y-99559490D01*
X120461981Y-99559494D01*
X120359494Y-99661981D01*
X120359490Y-99661986D01*
X120287016Y-99787515D01*
X120287014Y-99787519D01*
X120249500Y-99927522D01*
X116550500Y-99927522D01*
X116512985Y-99787519D01*
X116512984Y-99787515D01*
X116440509Y-99661985D01*
X116338015Y-99559491D01*
X116212485Y-99487016D01*
X116212482Y-99487015D01*
X116212480Y-99487014D01*
X116072477Y-99449500D01*
X116072475Y-99449500D01*
X115927525Y-99449500D01*
X115927523Y-99449500D01*
X115787519Y-99487014D01*
X115787515Y-99487016D01*
X115661986Y-99559490D01*
X115661981Y-99559494D01*
X115559494Y-99661981D01*
X115559490Y-99661986D01*
X115487016Y-99787515D01*
X115487014Y-99787519D01*
X115449500Y-99927522D01*
X111418832Y-99927522D01*
X111336614Y-99914500D01*
X111336611Y-99914500D01*
X111163389Y-99914500D01*
X111163385Y-99914500D01*
X110992296Y-99941598D01*
X110827553Y-99995127D01*
X110673209Y-100073769D01*
X110533073Y-100175584D01*
X110533073Y-100175585D01*
X110533072Y-100175586D01*
X110410586Y-100298072D01*
X110410585Y-100298073D01*
X110410584Y-100298073D01*
X110308769Y-100438209D01*
X110230127Y-100592553D01*
X110176598Y-100757296D01*
X110149500Y-100928385D01*
X108250500Y-100928385D01*
X108250500Y-97600322D01*
X110149500Y-97600322D01*
X110149500Y-99349677D01*
X110164032Y-99422738D01*
X110168564Y-99429520D01*
X110219399Y-99505601D01*
X110281615Y-99547172D01*
X110302261Y-99560967D01*
X110360473Y-99572545D01*
X110375322Y-99575499D01*
X110375323Y-99575500D01*
X110375326Y-99575500D01*
X112124677Y-99575500D01*
X112124677Y-99575499D01*
X112153980Y-99569670D01*
X112197738Y-99560967D01*
X112197739Y-99560966D01*
X112197740Y-99560966D01*
X112280601Y-99505601D01*
X112335966Y-99422740D01*
X112335966Y-99422739D01*
X112335967Y-99422738D01*
X112350499Y-99349677D01*
X112350500Y-99349677D01*
X112350500Y-97600323D01*
X112350499Y-97600322D01*
X112335967Y-97527261D01*
X112289462Y-97457661D01*
X112280601Y-97444399D01*
X112255347Y-97427525D01*
X112255343Y-97427522D01*
X127199500Y-97427522D01*
X127199500Y-97572477D01*
X127237014Y-97712480D01*
X127237015Y-97712482D01*
X127237016Y-97712485D01*
X127309491Y-97838015D01*
X127411985Y-97940509D01*
X127537515Y-98012984D01*
X127537519Y-98012985D01*
X127677523Y-98050500D01*
X127677525Y-98050500D01*
X127822476Y-98050500D01*
X127884206Y-98033958D01*
X127962485Y-98012984D01*
X128088015Y-97940509D01*
X128190509Y-97838015D01*
X128262984Y-97712485D01*
X128277540Y-97658158D01*
X128300500Y-97572477D01*
X128300500Y-97427522D01*
X128262985Y-97287519D01*
X128262984Y-97287515D01*
X128251894Y-97268307D01*
X128198805Y-97176354D01*
X128198804Y-97176353D01*
X128192738Y-97165847D01*
X128192737Y-97165846D01*
X128887706Y-97165846D01*
X129016647Y-97219256D01*
X129016654Y-97219258D01*
X129171203Y-97249999D01*
X129171204Y-97250000D01*
X129328796Y-97250000D01*
X129328796Y-97249999D01*
X129483345Y-97219258D01*
X129483361Y-97219253D01*
X129612292Y-97165847D01*
X129612293Y-97165847D01*
X129250000Y-96803554D01*
X128887706Y-97165846D01*
X128192737Y-97165846D01*
X128190509Y-97161985D01*
X128088015Y-97059491D01*
X127962485Y-96987016D01*
X127962482Y-96987015D01*
X127962480Y-96987014D01*
X127822477Y-96949500D01*
X127822475Y-96949500D01*
X127677525Y-96949500D01*
X127677523Y-96949500D01*
X127537519Y-96987014D01*
X127537515Y-96987016D01*
X127411986Y-97059490D01*
X127411981Y-97059494D01*
X127309494Y-97161981D01*
X127309490Y-97161986D01*
X127237016Y-97287515D01*
X127237014Y-97287519D01*
X127199500Y-97427522D01*
X112255343Y-97427522D01*
X112197738Y-97389032D01*
X112124677Y-97374500D01*
X112124674Y-97374500D01*
X110375326Y-97374500D01*
X110375323Y-97374500D01*
X110302261Y-97389032D01*
X110219399Y-97444399D01*
X110164032Y-97527261D01*
X110149500Y-97600322D01*
X108250500Y-97600322D01*
X108250500Y-95927522D01*
X119699500Y-95927522D01*
X119699500Y-96072477D01*
X119737014Y-96212480D01*
X119737015Y-96212482D01*
X119737016Y-96212485D01*
X119809491Y-96338015D01*
X119911985Y-96440509D01*
X120037515Y-96512984D01*
X120037519Y-96512985D01*
X120177523Y-96550500D01*
X120177525Y-96550500D01*
X120322476Y-96550500D01*
X120403474Y-96528796D01*
X120462485Y-96512984D01*
X120588015Y-96440509D01*
X120657321Y-96371203D01*
X128450000Y-96371203D01*
X128450000Y-96528796D01*
X128480741Y-96683345D01*
X128480743Y-96683352D01*
X128534152Y-96812292D01*
X128896445Y-96449999D01*
X128866609Y-96420163D01*
X129100000Y-96420163D01*
X129100000Y-96479837D01*
X129122836Y-96534968D01*
X129165032Y-96577164D01*
X129220163Y-96600000D01*
X129279837Y-96600000D01*
X129334968Y-96577164D01*
X129377164Y-96534968D01*
X129400000Y-96479837D01*
X129400000Y-96449999D01*
X129603554Y-96449999D01*
X129603554Y-96450000D01*
X129965847Y-96812293D01*
X129965847Y-96812292D01*
X130019253Y-96683361D01*
X130019258Y-96683345D01*
X130049999Y-96528796D01*
X130050000Y-96528796D01*
X130050000Y-96371204D01*
X130049999Y-96371203D01*
X130019258Y-96216654D01*
X130019256Y-96216647D01*
X129965846Y-96087706D01*
X129603554Y-96449999D01*
X129400000Y-96449999D01*
X129400000Y-96420163D01*
X129377164Y-96365032D01*
X129334968Y-96322836D01*
X129279837Y-96300000D01*
X129220163Y-96300000D01*
X129165032Y-96322836D01*
X129122836Y-96365032D01*
X129100000Y-96420163D01*
X128866609Y-96420163D01*
X128534152Y-96087706D01*
X128480742Y-96216650D01*
X128480741Y-96216655D01*
X128450000Y-96371203D01*
X120657321Y-96371203D01*
X120690509Y-96338015D01*
X120762984Y-96212485D01*
X120791421Y-96106358D01*
X120800500Y-96072477D01*
X120800500Y-95927522D01*
X120762985Y-95787519D01*
X120762984Y-95787515D01*
X120690509Y-95661985D01*
X120588015Y-95559491D01*
X120462485Y-95487016D01*
X120462482Y-95487015D01*
X120462480Y-95487014D01*
X120322477Y-95449500D01*
X120322475Y-95449500D01*
X120177525Y-95449500D01*
X120177523Y-95449500D01*
X120037519Y-95487014D01*
X120037515Y-95487016D01*
X119911986Y-95559490D01*
X119911981Y-95559494D01*
X119809494Y-95661981D01*
X119809490Y-95661986D01*
X119737016Y-95787515D01*
X119737014Y-95787519D01*
X119699500Y-95927522D01*
X108250500Y-95927522D01*
X108250500Y-94270885D01*
X110149500Y-94270885D01*
X110149500Y-94444114D01*
X110176598Y-94615203D01*
X110230127Y-94779946D01*
X110308769Y-94934290D01*
X110410584Y-95074426D01*
X110533073Y-95196915D01*
X110653158Y-95284162D01*
X110673212Y-95298732D01*
X110827555Y-95377373D01*
X110992296Y-95430901D01*
X110992299Y-95430902D01*
X111163389Y-95458000D01*
X111163393Y-95458000D01*
X111336607Y-95458000D01*
X111336611Y-95458000D01*
X111507701Y-95430902D01*
X111672445Y-95377373D01*
X111826788Y-95298732D01*
X111966928Y-95196914D01*
X112089414Y-95074428D01*
X112191232Y-94934288D01*
X112269873Y-94779945D01*
X112323402Y-94615201D01*
X112350500Y-94444111D01*
X112350500Y-94270889D01*
X112350499Y-94270885D01*
X112689500Y-94270885D01*
X112689500Y-94444114D01*
X112716598Y-94615203D01*
X112770127Y-94779946D01*
X112848769Y-94934290D01*
X112950584Y-95074426D01*
X113073073Y-95196915D01*
X113193158Y-95284162D01*
X113213212Y-95298732D01*
X113367555Y-95377373D01*
X113532296Y-95430901D01*
X113532299Y-95430902D01*
X113703389Y-95458000D01*
X113703393Y-95458000D01*
X113876607Y-95458000D01*
X113876611Y-95458000D01*
X114047701Y-95430902D01*
X114212445Y-95377373D01*
X114366788Y-95298732D01*
X114506928Y-95196914D01*
X114526320Y-95177522D01*
X128699500Y-95177522D01*
X128699500Y-95322477D01*
X128737014Y-95462480D01*
X128737015Y-95462482D01*
X128737016Y-95462485D01*
X128809491Y-95588015D01*
X128809494Y-95588018D01*
X128875730Y-95654255D01*
X128893743Y-95697742D01*
X128892561Y-95709739D01*
X128887705Y-95734151D01*
X129249999Y-96096445D01*
X129612292Y-95734152D01*
X129607437Y-95709740D01*
X129616620Y-95663574D01*
X129624263Y-95654260D01*
X129690509Y-95588015D01*
X129762984Y-95462485D01*
X129786479Y-95374802D01*
X129800500Y-95322477D01*
X129800500Y-95177522D01*
X129762985Y-95037519D01*
X129762984Y-95037515D01*
X129690509Y-94911985D01*
X129588015Y-94809491D01*
X129462485Y-94737016D01*
X129462482Y-94737015D01*
X129462480Y-94737014D01*
X129322477Y-94699500D01*
X129322475Y-94699500D01*
X129177525Y-94699500D01*
X129177523Y-94699500D01*
X129037519Y-94737014D01*
X129037515Y-94737016D01*
X128911986Y-94809490D01*
X128911981Y-94809494D01*
X128809494Y-94911981D01*
X128809490Y-94911986D01*
X128737016Y-95037515D01*
X128737014Y-95037519D01*
X128699500Y-95177522D01*
X114526320Y-95177522D01*
X114629414Y-95074428D01*
X114731232Y-94934288D01*
X114809873Y-94779945D01*
X114863402Y-94615201D01*
X114890500Y-94444111D01*
X114890500Y-94270889D01*
X114863402Y-94099799D01*
X114809873Y-93935055D01*
X114731232Y-93780712D01*
X114730410Y-93779580D01*
X114629415Y-93640573D01*
X114561111Y-93572269D01*
X132499500Y-93572269D01*
X132499500Y-93677730D01*
X132526790Y-93779580D01*
X132526792Y-93779584D01*
X132526793Y-93779587D01*
X132579520Y-93870913D01*
X132654087Y-93945480D01*
X132745413Y-93998207D01*
X132745417Y-93998208D01*
X132745419Y-93998209D01*
X132847269Y-94025499D01*
X132847271Y-94025500D01*
X132847273Y-94025500D01*
X132952729Y-94025500D01*
X132952729Y-94025499D01*
X133054587Y-93998207D01*
X133145913Y-93945480D01*
X133220480Y-93870913D01*
X133273207Y-93779587D01*
X133277108Y-93765030D01*
X133300499Y-93677730D01*
X133300500Y-93677729D01*
X133300500Y-93572270D01*
X133300499Y-93572269D01*
X133273209Y-93470419D01*
X133273208Y-93470417D01*
X133273207Y-93470413D01*
X133220480Y-93379087D01*
X133145913Y-93304520D01*
X133054587Y-93251793D01*
X133054584Y-93251792D01*
X133054580Y-93251790D01*
X132952730Y-93224500D01*
X132952727Y-93224500D01*
X132847273Y-93224500D01*
X132847270Y-93224500D01*
X132745419Y-93251790D01*
X132745413Y-93251793D01*
X132654088Y-93304519D01*
X132654083Y-93304523D01*
X132579523Y-93379083D01*
X132579519Y-93379088D01*
X132526793Y-93470413D01*
X132526790Y-93470419D01*
X132499500Y-93572269D01*
X114561111Y-93572269D01*
X114506926Y-93518084D01*
X114366790Y-93416269D01*
X114212446Y-93337627D01*
X114047702Y-93284098D01*
X114047704Y-93284098D01*
X113876614Y-93257000D01*
X113876611Y-93257000D01*
X113703389Y-93257000D01*
X113703385Y-93257000D01*
X113532296Y-93284098D01*
X113367553Y-93337627D01*
X113213209Y-93416269D01*
X113073073Y-93518084D01*
X113073073Y-93518085D01*
X113073072Y-93518086D01*
X112950586Y-93640572D01*
X112950585Y-93640573D01*
X112950584Y-93640573D01*
X112848769Y-93780709D01*
X112770127Y-93935053D01*
X112716598Y-94099796D01*
X112689500Y-94270885D01*
X112350499Y-94270885D01*
X112323402Y-94099799D01*
X112269873Y-93935055D01*
X112191232Y-93780712D01*
X112190410Y-93779580D01*
X112089415Y-93640573D01*
X111966926Y-93518084D01*
X111826790Y-93416269D01*
X111672446Y-93337627D01*
X111507702Y-93284098D01*
X111507704Y-93284098D01*
X111336614Y-93257000D01*
X111336611Y-93257000D01*
X111163389Y-93257000D01*
X111163385Y-93257000D01*
X110992296Y-93284098D01*
X110827553Y-93337627D01*
X110673209Y-93416269D01*
X110533073Y-93518084D01*
X110533073Y-93518085D01*
X110533072Y-93518086D01*
X110410586Y-93640572D01*
X110410585Y-93640573D01*
X110410584Y-93640573D01*
X110308769Y-93780709D01*
X110230127Y-93935053D01*
X110176598Y-94099796D01*
X110149500Y-94270885D01*
X108250500Y-94270885D01*
X108250500Y-88379674D01*
X109900000Y-88379674D01*
X109900000Y-89027500D01*
X110816988Y-89027500D01*
X110784075Y-89084507D01*
X110750000Y-89211674D01*
X110750000Y-89343326D01*
X110784075Y-89470493D01*
X110816988Y-89527500D01*
X109900000Y-89527500D01*
X109900000Y-90175325D01*
X109906403Y-90234880D01*
X109956646Y-90369586D01*
X109956648Y-90369591D01*
X110042811Y-90484688D01*
X110157908Y-90570851D01*
X110157913Y-90570853D01*
X110292619Y-90621096D01*
X110352174Y-90627500D01*
X110962854Y-90627500D01*
X111006341Y-90645513D01*
X111024354Y-90689000D01*
X111006341Y-90732487D01*
X110981859Y-90747490D01*
X110827553Y-90797627D01*
X110673209Y-90876269D01*
X110533073Y-90978084D01*
X110533073Y-90978085D01*
X110533072Y-90978086D01*
X110410586Y-91100572D01*
X110410585Y-91100573D01*
X110410584Y-91100573D01*
X110308769Y-91240709D01*
X110230127Y-91395053D01*
X110176598Y-91559796D01*
X110149500Y-91730885D01*
X110149500Y-91904114D01*
X110176598Y-92075203D01*
X110230127Y-92239946D01*
X110308769Y-92394290D01*
X110410584Y-92534426D01*
X110533073Y-92656915D01*
X110673209Y-92758730D01*
X110673212Y-92758732D01*
X110827555Y-92837373D01*
X110992296Y-92890901D01*
X110992299Y-92890902D01*
X111163389Y-92918000D01*
X111163393Y-92918000D01*
X111336607Y-92918000D01*
X111336611Y-92918000D01*
X111507701Y-92890902D01*
X111672445Y-92837373D01*
X111826788Y-92758732D01*
X111966928Y-92656914D01*
X112089414Y-92534428D01*
X112191232Y-92394288D01*
X112269873Y-92239945D01*
X112323402Y-92075201D01*
X112350500Y-91904111D01*
X112350500Y-91730889D01*
X112350499Y-91730885D01*
X112689500Y-91730885D01*
X112689500Y-91904114D01*
X112716598Y-92075203D01*
X112770127Y-92239946D01*
X112848769Y-92394290D01*
X112950584Y-92534426D01*
X113073073Y-92656915D01*
X113213209Y-92758730D01*
X113213212Y-92758732D01*
X113367555Y-92837373D01*
X113532296Y-92890901D01*
X113532299Y-92890902D01*
X113703389Y-92918000D01*
X113703393Y-92918000D01*
X113876607Y-92918000D01*
X113876611Y-92918000D01*
X114047701Y-92890902D01*
X114212445Y-92837373D01*
X114366788Y-92758732D01*
X114478564Y-92677522D01*
X150449500Y-92677522D01*
X150449500Y-92822477D01*
X150487014Y-92962480D01*
X150487015Y-92962482D01*
X150487016Y-92962485D01*
X150559491Y-93088015D01*
X150661985Y-93190509D01*
X150787515Y-93262984D01*
X150787519Y-93262985D01*
X150927523Y-93300500D01*
X150927525Y-93300500D01*
X151072476Y-93300500D01*
X151134206Y-93283958D01*
X151212485Y-93262984D01*
X151338015Y-93190509D01*
X151440509Y-93088015D01*
X151512984Y-92962485D01*
X151546508Y-92837373D01*
X151550500Y-92822477D01*
X151550500Y-92677522D01*
X155449500Y-92677522D01*
X155449500Y-92822477D01*
X155487014Y-92962480D01*
X155487015Y-92962482D01*
X155487016Y-92962485D01*
X155559491Y-93088015D01*
X155661985Y-93190509D01*
X155787515Y-93262984D01*
X155787519Y-93262985D01*
X155927523Y-93300500D01*
X155927525Y-93300500D01*
X156072476Y-93300500D01*
X156134206Y-93283958D01*
X156212485Y-93262984D01*
X156338015Y-93190509D01*
X156440509Y-93088015D01*
X156512984Y-92962485D01*
X156546508Y-92837373D01*
X156550500Y-92822477D01*
X156550500Y-92677522D01*
X156512985Y-92537519D01*
X156512984Y-92537515D01*
X156440509Y-92411985D01*
X156338015Y-92309491D01*
X156212485Y-92237016D01*
X156212482Y-92237015D01*
X156212480Y-92237014D01*
X156072477Y-92199500D01*
X156072475Y-92199500D01*
X155927525Y-92199500D01*
X155927523Y-92199500D01*
X155787519Y-92237014D01*
X155787515Y-92237016D01*
X155661986Y-92309490D01*
X155661981Y-92309494D01*
X155559494Y-92411981D01*
X155559490Y-92411986D01*
X155487016Y-92537515D01*
X155487014Y-92537519D01*
X155449500Y-92677522D01*
X151550500Y-92677522D01*
X151512985Y-92537519D01*
X151512984Y-92537515D01*
X151440509Y-92411985D01*
X151338015Y-92309491D01*
X151212485Y-92237016D01*
X151212482Y-92237015D01*
X151212480Y-92237014D01*
X151072477Y-92199500D01*
X151072475Y-92199500D01*
X150927525Y-92199500D01*
X150927523Y-92199500D01*
X150787519Y-92237014D01*
X150787515Y-92237016D01*
X150661986Y-92309490D01*
X150661981Y-92309494D01*
X150559494Y-92411981D01*
X150559490Y-92411986D01*
X150487016Y-92537515D01*
X150487014Y-92537519D01*
X150449500Y-92677522D01*
X114478564Y-92677522D01*
X114506928Y-92656914D01*
X114629414Y-92534428D01*
X114731232Y-92394288D01*
X114809873Y-92239945D01*
X114863402Y-92075201D01*
X114883664Y-91947269D01*
X127449500Y-91947269D01*
X127449500Y-92052730D01*
X127476790Y-92154580D01*
X127476792Y-92154584D01*
X127476793Y-92154587D01*
X127529520Y-92245913D01*
X127604087Y-92320480D01*
X127695413Y-92373207D01*
X127695417Y-92373208D01*
X127695419Y-92373209D01*
X127797269Y-92400499D01*
X127797271Y-92400500D01*
X127797273Y-92400500D01*
X127902729Y-92400500D01*
X127902729Y-92400499D01*
X128004587Y-92373207D01*
X128095913Y-92320480D01*
X128170480Y-92245913D01*
X128223207Y-92154587D01*
X128250499Y-92052729D01*
X128250500Y-92052729D01*
X128250500Y-91947270D01*
X128250499Y-91947269D01*
X132599500Y-91947269D01*
X132599500Y-92052730D01*
X132626790Y-92154580D01*
X132626792Y-92154584D01*
X132626793Y-92154587D01*
X132679520Y-92245913D01*
X132754087Y-92320480D01*
X132845413Y-92373207D01*
X132845417Y-92373208D01*
X132845419Y-92373209D01*
X132947269Y-92400499D01*
X132947271Y-92400500D01*
X132947273Y-92400500D01*
X133052729Y-92400500D01*
X133052729Y-92400499D01*
X133154587Y-92373207D01*
X133245913Y-92320480D01*
X133320480Y-92245913D01*
X133373207Y-92154587D01*
X133400499Y-92052729D01*
X133400500Y-92052729D01*
X133400500Y-91947270D01*
X133400499Y-91947269D01*
X133373209Y-91845419D01*
X133373208Y-91845417D01*
X133373207Y-91845413D01*
X133320480Y-91754087D01*
X133245913Y-91679520D01*
X133154587Y-91626793D01*
X133154584Y-91626792D01*
X133154580Y-91626790D01*
X133052730Y-91599500D01*
X133052727Y-91599500D01*
X132947273Y-91599500D01*
X132947270Y-91599500D01*
X132845419Y-91626790D01*
X132845413Y-91626793D01*
X132754088Y-91679519D01*
X132754083Y-91679523D01*
X132679523Y-91754083D01*
X132679519Y-91754088D01*
X132626793Y-91845413D01*
X132626790Y-91845419D01*
X132599500Y-91947269D01*
X128250499Y-91947269D01*
X128223209Y-91845419D01*
X128223208Y-91845417D01*
X128223207Y-91845413D01*
X128170480Y-91754087D01*
X128095913Y-91679520D01*
X128004587Y-91626793D01*
X128004584Y-91626792D01*
X128004580Y-91626790D01*
X127902730Y-91599500D01*
X127902727Y-91599500D01*
X127797273Y-91599500D01*
X127797270Y-91599500D01*
X127695419Y-91626790D01*
X127695413Y-91626793D01*
X127604088Y-91679519D01*
X127604083Y-91679523D01*
X127529523Y-91754083D01*
X127529519Y-91754088D01*
X127476793Y-91845413D01*
X127476790Y-91845419D01*
X127449500Y-91947269D01*
X114883664Y-91947269D01*
X114890500Y-91904111D01*
X114890500Y-91730889D01*
X114863402Y-91559799D01*
X114809873Y-91395055D01*
X114731232Y-91240712D01*
X114694757Y-91190509D01*
X114629415Y-91100573D01*
X114506926Y-90978084D01*
X114366790Y-90876269D01*
X114212446Y-90797627D01*
X114047702Y-90744098D01*
X114047704Y-90744098D01*
X113985441Y-90734237D01*
X113876614Y-90717000D01*
X113876611Y-90717000D01*
X113703389Y-90717000D01*
X113703385Y-90717000D01*
X113532296Y-90744098D01*
X113367553Y-90797627D01*
X113213209Y-90876269D01*
X113073073Y-90978084D01*
X113073073Y-90978085D01*
X113073072Y-90978086D01*
X112950586Y-91100572D01*
X112950585Y-91100573D01*
X112950584Y-91100573D01*
X112848769Y-91240709D01*
X112770127Y-91395053D01*
X112716598Y-91559796D01*
X112689500Y-91730885D01*
X112350499Y-91730885D01*
X112323402Y-91559799D01*
X112269873Y-91395055D01*
X112191232Y-91240712D01*
X112154757Y-91190509D01*
X112089415Y-91100573D01*
X111966926Y-90978084D01*
X111826790Y-90876269D01*
X111672446Y-90797627D01*
X111518141Y-90747490D01*
X111482349Y-90716920D01*
X111479248Y-90677522D01*
X139949500Y-90677522D01*
X139949500Y-90822477D01*
X139987014Y-90962480D01*
X139987015Y-90962482D01*
X139987016Y-90962485D01*
X140059491Y-91088015D01*
X140161985Y-91190509D01*
X140287515Y-91262984D01*
X140287519Y-91262985D01*
X140427523Y-91300500D01*
X140427525Y-91300500D01*
X140572476Y-91300500D01*
X140634206Y-91283958D01*
X140712485Y-91262984D01*
X140838015Y-91190509D01*
X140940509Y-91088015D01*
X141012984Y-90962485D01*
X141036086Y-90876268D01*
X141050500Y-90822477D01*
X141050500Y-90677522D01*
X141012985Y-90537519D01*
X141012984Y-90537515D01*
X140940509Y-90411985D01*
X140838015Y-90309491D01*
X140712485Y-90237016D01*
X140712482Y-90237015D01*
X140712478Y-90237013D01*
X140697118Y-90232898D01*
X140697117Y-90232898D01*
X140572477Y-90199500D01*
X140572475Y-90199500D01*
X140427525Y-90199500D01*
X140427523Y-90199500D01*
X140287519Y-90237014D01*
X140287515Y-90237016D01*
X140161986Y-90309490D01*
X140161981Y-90309494D01*
X140059494Y-90411981D01*
X140059490Y-90411986D01*
X139987016Y-90537515D01*
X139987014Y-90537519D01*
X139949500Y-90677522D01*
X111479248Y-90677522D01*
X111478656Y-90669995D01*
X111509226Y-90634203D01*
X111537146Y-90627500D01*
X112147826Y-90627500D01*
X112207380Y-90621096D01*
X112342086Y-90570853D01*
X112342091Y-90570851D01*
X112457188Y-90484688D01*
X112543351Y-90369591D01*
X112543353Y-90369586D01*
X112593596Y-90234880D01*
X112600000Y-90175325D01*
X112600000Y-89564646D01*
X112618013Y-89521159D01*
X112661500Y-89503146D01*
X112704987Y-89521159D01*
X112719990Y-89545641D01*
X112770127Y-89699946D01*
X112848769Y-89854290D01*
X112950584Y-89994426D01*
X113073073Y-90116915D01*
X113204607Y-90212480D01*
X113213212Y-90218732D01*
X113367555Y-90297373D01*
X113532296Y-90350901D01*
X113532299Y-90350902D01*
X113703389Y-90378000D01*
X113703393Y-90378000D01*
X113876607Y-90378000D01*
X113876611Y-90378000D01*
X114047701Y-90350902D01*
X114212445Y-90297373D01*
X114366788Y-90218732D01*
X114506928Y-90116914D01*
X114629414Y-89994428D01*
X114678025Y-89927522D01*
X124199500Y-89927522D01*
X124199500Y-90072477D01*
X124237014Y-90212480D01*
X124237015Y-90212482D01*
X124237016Y-90212485D01*
X124309491Y-90338015D01*
X124411985Y-90440509D01*
X124537515Y-90512984D01*
X124537519Y-90512985D01*
X124677523Y-90550500D01*
X124677525Y-90550500D01*
X124822476Y-90550500D01*
X124884206Y-90533958D01*
X124962485Y-90512984D01*
X125088015Y-90440509D01*
X125190509Y-90338015D01*
X125262984Y-90212485D01*
X125272352Y-90177522D01*
X149199500Y-90177522D01*
X149199500Y-90322477D01*
X149237014Y-90462480D01*
X149237015Y-90462482D01*
X149237016Y-90462485D01*
X149309491Y-90588015D01*
X149411985Y-90690509D01*
X149537515Y-90762984D01*
X149537519Y-90762985D01*
X149677523Y-90800500D01*
X149677525Y-90800500D01*
X149822476Y-90800500D01*
X149884206Y-90783958D01*
X149962485Y-90762984D01*
X150088015Y-90690509D01*
X150190509Y-90588015D01*
X150262984Y-90462485D01*
X150287875Y-90369591D01*
X150300500Y-90322477D01*
X150300500Y-90177525D01*
X150295579Y-90159159D01*
X150295579Y-90159157D01*
X150292394Y-90147269D01*
X174199500Y-90147269D01*
X174199500Y-90252730D01*
X174226790Y-90354580D01*
X174226792Y-90354584D01*
X174226793Y-90354587D01*
X174279520Y-90445913D01*
X174354087Y-90520480D01*
X174445413Y-90573207D01*
X174445417Y-90573208D01*
X174445419Y-90573209D01*
X174547269Y-90600499D01*
X174547271Y-90600500D01*
X174547273Y-90600500D01*
X174652729Y-90600500D01*
X174652729Y-90600499D01*
X174754587Y-90573207D01*
X174845913Y-90520480D01*
X174920480Y-90445913D01*
X174973207Y-90354587D01*
X175000499Y-90252729D01*
X175000500Y-90252729D01*
X175000500Y-90147270D01*
X175000499Y-90147269D01*
X174973209Y-90045419D01*
X174973208Y-90045417D01*
X174973207Y-90045413D01*
X174920480Y-89954087D01*
X174845913Y-89879520D01*
X174754587Y-89826793D01*
X174754584Y-89826792D01*
X174754580Y-89826790D01*
X174652730Y-89799500D01*
X174652727Y-89799500D01*
X174547273Y-89799500D01*
X174547270Y-89799500D01*
X174445419Y-89826790D01*
X174445413Y-89826793D01*
X174354088Y-89879519D01*
X174354083Y-89879523D01*
X174279523Y-89954083D01*
X174279519Y-89954088D01*
X174226793Y-90045413D01*
X174226790Y-90045419D01*
X174199500Y-90147269D01*
X150292394Y-90147269D01*
X150262985Y-90037519D01*
X150262984Y-90037515D01*
X150190509Y-89911985D01*
X150088015Y-89809491D01*
X149962485Y-89737016D01*
X149962482Y-89737015D01*
X149962480Y-89737014D01*
X149822477Y-89699500D01*
X149822475Y-89699500D01*
X149677525Y-89699500D01*
X149677523Y-89699500D01*
X149537519Y-89737014D01*
X149537515Y-89737016D01*
X149411986Y-89809490D01*
X149411981Y-89809494D01*
X149309494Y-89911981D01*
X149309490Y-89911986D01*
X149237016Y-90037515D01*
X149237014Y-90037519D01*
X149199500Y-90177522D01*
X125272352Y-90177522D01*
X125288592Y-90116915D01*
X125300500Y-90072477D01*
X125300500Y-89927522D01*
X125262985Y-89787519D01*
X125262984Y-89787515D01*
X125190509Y-89661985D01*
X125088015Y-89559491D01*
X124962485Y-89487016D01*
X124962482Y-89487015D01*
X124962480Y-89487014D01*
X124822477Y-89449500D01*
X124822475Y-89449500D01*
X124677525Y-89449500D01*
X124677523Y-89449500D01*
X124537519Y-89487014D01*
X124537515Y-89487016D01*
X124411986Y-89559490D01*
X124411981Y-89559494D01*
X124309494Y-89661981D01*
X124309490Y-89661986D01*
X124237016Y-89787515D01*
X124237014Y-89787519D01*
X124199500Y-89927522D01*
X114678025Y-89927522D01*
X114689313Y-89911985D01*
X114707215Y-89887345D01*
X114717274Y-89873498D01*
X114731232Y-89854288D01*
X114809873Y-89699945D01*
X114863402Y-89535201D01*
X114890500Y-89364111D01*
X114890500Y-89190889D01*
X114863402Y-89019799D01*
X114809873Y-88855055D01*
X114731232Y-88700712D01*
X114629414Y-88560572D01*
X114506928Y-88438086D01*
X114506927Y-88438085D01*
X114506926Y-88438084D01*
X114492389Y-88427522D01*
X139949500Y-88427522D01*
X139949500Y-88572477D01*
X139987014Y-88712480D01*
X139987015Y-88712482D01*
X139987016Y-88712485D01*
X140059491Y-88838015D01*
X140161985Y-88940509D01*
X140287515Y-89012984D01*
X140287519Y-89012985D01*
X140427523Y-89050500D01*
X140427525Y-89050500D01*
X140572476Y-89050500D01*
X140687051Y-89019799D01*
X140712485Y-89012984D01*
X140838015Y-88940509D01*
X140940509Y-88838015D01*
X141012984Y-88712485D01*
X141047808Y-88582522D01*
X150354500Y-88582522D01*
X150354500Y-88727477D01*
X150392014Y-88867480D01*
X150392015Y-88867482D01*
X150392016Y-88867485D01*
X150464491Y-88993015D01*
X150566985Y-89095509D01*
X150692515Y-89167984D01*
X150692519Y-89167985D01*
X150832523Y-89205500D01*
X150832525Y-89205500D01*
X150977476Y-89205500D01*
X151039206Y-89188958D01*
X151117485Y-89167984D01*
X151243015Y-89095509D01*
X151345509Y-88993015D01*
X151417984Y-88867485D01*
X151442096Y-88777500D01*
X151455500Y-88727477D01*
X151455500Y-88582522D01*
X151417985Y-88442519D01*
X151417984Y-88442515D01*
X151345509Y-88316985D01*
X151243015Y-88214491D01*
X151117485Y-88142016D01*
X151117482Y-88142015D01*
X151117480Y-88142014D01*
X150977477Y-88104500D01*
X150977475Y-88104500D01*
X150832525Y-88104500D01*
X150832523Y-88104500D01*
X150692519Y-88142014D01*
X150692515Y-88142016D01*
X150566986Y-88214490D01*
X150566981Y-88214494D01*
X150464494Y-88316981D01*
X150464490Y-88316986D01*
X150392016Y-88442515D01*
X150392014Y-88442519D01*
X150354500Y-88582522D01*
X141047808Y-88582522D01*
X141050500Y-88572475D01*
X141050500Y-88427525D01*
X141050500Y-88427522D01*
X141012985Y-88287519D01*
X141012984Y-88287515D01*
X140940509Y-88161985D01*
X140838015Y-88059491D01*
X140712485Y-87987016D01*
X140712482Y-87987015D01*
X140712480Y-87987014D01*
X140572477Y-87949500D01*
X140572475Y-87949500D01*
X140427525Y-87949500D01*
X140427523Y-87949500D01*
X140287519Y-87987014D01*
X140287515Y-87987016D01*
X140161986Y-88059490D01*
X140161981Y-88059494D01*
X140059494Y-88161981D01*
X140059490Y-88161986D01*
X139987016Y-88287515D01*
X139987014Y-88287519D01*
X139949500Y-88427522D01*
X114492389Y-88427522D01*
X114366790Y-88336269D01*
X114212446Y-88257627D01*
X114047702Y-88204098D01*
X114047704Y-88204098D01*
X113876614Y-88177000D01*
X113876611Y-88177000D01*
X113703389Y-88177000D01*
X113703385Y-88177000D01*
X113532296Y-88204098D01*
X113367553Y-88257627D01*
X113213209Y-88336269D01*
X113073073Y-88438084D01*
X113073073Y-88438085D01*
X113073072Y-88438086D01*
X112950586Y-88560572D01*
X112950585Y-88560573D01*
X112950584Y-88560573D01*
X112848769Y-88700709D01*
X112770127Y-88855053D01*
X112719990Y-89009358D01*
X112689420Y-89045150D01*
X112642495Y-89048843D01*
X112606703Y-89018273D01*
X112600000Y-88990353D01*
X112600000Y-88379674D01*
X112593596Y-88320119D01*
X112543353Y-88185413D01*
X112543351Y-88185408D01*
X112457188Y-88070311D01*
X112342091Y-87984148D01*
X112342086Y-87984146D01*
X112207380Y-87933903D01*
X112147826Y-87927500D01*
X111500000Y-87927500D01*
X111500000Y-88844488D01*
X111442993Y-88811575D01*
X111315826Y-88777500D01*
X111184174Y-88777500D01*
X111057007Y-88811575D01*
X111000000Y-88844488D01*
X111000000Y-87927500D01*
X110352174Y-87927500D01*
X110292619Y-87933903D01*
X110157913Y-87984146D01*
X110157908Y-87984148D01*
X110042811Y-88070311D01*
X109956648Y-88185408D01*
X109956646Y-88185413D01*
X109906403Y-88320119D01*
X109900000Y-88379674D01*
X108250500Y-88379674D01*
X108250500Y-87602742D01*
X121949500Y-87602742D01*
X121949500Y-87747697D01*
X121987014Y-87887700D01*
X121987015Y-87887702D01*
X121987016Y-87887705D01*
X122059491Y-88013235D01*
X122161985Y-88115729D01*
X122287515Y-88188204D01*
X122287519Y-88188205D01*
X122427523Y-88225720D01*
X122427525Y-88225720D01*
X122572476Y-88225720D01*
X122653168Y-88204098D01*
X122712485Y-88188204D01*
X122838015Y-88115729D01*
X122940509Y-88013235D01*
X122978595Y-87947269D01*
X164849500Y-87947269D01*
X164849500Y-88052730D01*
X164876790Y-88154580D01*
X164876792Y-88154584D01*
X164876793Y-88154587D01*
X164929520Y-88245913D01*
X165004087Y-88320480D01*
X165095413Y-88373207D01*
X165095417Y-88373208D01*
X165095419Y-88373209D01*
X165197269Y-88400499D01*
X165197271Y-88400500D01*
X165197273Y-88400500D01*
X165302729Y-88400500D01*
X165302729Y-88400499D01*
X165404587Y-88373207D01*
X165495913Y-88320480D01*
X165570480Y-88245913D01*
X165623207Y-88154587D01*
X165650499Y-88052729D01*
X165650500Y-88052729D01*
X165650500Y-87947270D01*
X165650499Y-87947269D01*
X165623209Y-87845419D01*
X165623208Y-87845417D01*
X165623207Y-87845413D01*
X165570480Y-87754087D01*
X165495913Y-87679520D01*
X165404587Y-87626793D01*
X165404584Y-87626792D01*
X165404580Y-87626790D01*
X165302730Y-87599500D01*
X165302727Y-87599500D01*
X165197273Y-87599500D01*
X165197270Y-87599500D01*
X165095419Y-87626790D01*
X165095413Y-87626793D01*
X165004088Y-87679519D01*
X165004083Y-87679523D01*
X164929523Y-87754083D01*
X164929519Y-87754088D01*
X164876793Y-87845413D01*
X164876790Y-87845419D01*
X164849500Y-87947269D01*
X122978595Y-87947269D01*
X123012984Y-87887705D01*
X123027540Y-87833378D01*
X123050500Y-87747697D01*
X123050500Y-87602742D01*
X123012985Y-87462739D01*
X123012984Y-87462735D01*
X122940509Y-87337205D01*
X122838015Y-87234711D01*
X122712485Y-87162236D01*
X122712482Y-87162235D01*
X122712480Y-87162234D01*
X122572477Y-87124720D01*
X122572475Y-87124720D01*
X122427525Y-87124720D01*
X122427523Y-87124720D01*
X122287519Y-87162234D01*
X122287515Y-87162236D01*
X122161986Y-87234710D01*
X122161981Y-87234714D01*
X122059494Y-87337201D01*
X122059490Y-87337206D01*
X121987016Y-87462735D01*
X121987014Y-87462739D01*
X121949500Y-87602742D01*
X108250500Y-87602742D01*
X108250500Y-87062269D01*
X130287000Y-87062269D01*
X130287000Y-87167730D01*
X130314290Y-87269580D01*
X130314292Y-87269584D01*
X130314293Y-87269587D01*
X130367020Y-87360913D01*
X130441587Y-87435480D01*
X130532913Y-87488207D01*
X130532917Y-87488208D01*
X130532919Y-87488209D01*
X130634769Y-87515499D01*
X130634771Y-87515500D01*
X130634773Y-87515500D01*
X130740229Y-87515500D01*
X130740229Y-87515499D01*
X130842087Y-87488207D01*
X130933413Y-87435480D01*
X131007980Y-87360913D01*
X131035919Y-87312522D01*
X150314500Y-87312522D01*
X150314500Y-87457477D01*
X150352014Y-87597480D01*
X150352015Y-87597482D01*
X150352016Y-87597485D01*
X150424491Y-87723015D01*
X150526985Y-87825509D01*
X150652515Y-87897984D01*
X150652519Y-87897985D01*
X150792523Y-87935500D01*
X150792525Y-87935500D01*
X150937476Y-87935500D01*
X150999206Y-87918958D01*
X151077485Y-87897984D01*
X151091347Y-87889980D01*
X151091349Y-87889980D01*
X151203008Y-87825513D01*
X151203007Y-87825513D01*
X151203015Y-87825509D01*
X151305509Y-87723015D01*
X151377984Y-87597485D01*
X151399952Y-87515500D01*
X151415500Y-87457477D01*
X151415500Y-87312522D01*
X151377985Y-87172519D01*
X151377984Y-87172515D01*
X151305509Y-87046985D01*
X151203015Y-86944491D01*
X151077485Y-86872016D01*
X151077482Y-86872015D01*
X151077480Y-86872014D01*
X150937477Y-86834500D01*
X150937475Y-86834500D01*
X150792525Y-86834500D01*
X150792523Y-86834500D01*
X150652519Y-86872014D01*
X150652515Y-86872016D01*
X150526986Y-86944490D01*
X150526981Y-86944494D01*
X150424494Y-87046981D01*
X150424490Y-87046986D01*
X150352016Y-87172515D01*
X150352014Y-87172519D01*
X150314500Y-87312522D01*
X131035919Y-87312522D01*
X131060707Y-87269587D01*
X131087999Y-87167729D01*
X131088000Y-87167729D01*
X131088000Y-87062270D01*
X131087999Y-87062269D01*
X131060709Y-86960419D01*
X131060708Y-86960417D01*
X131060707Y-86960413D01*
X131007980Y-86869087D01*
X130933413Y-86794520D01*
X130842087Y-86741793D01*
X130842084Y-86741792D01*
X130842080Y-86741790D01*
X130740230Y-86714500D01*
X130740227Y-86714500D01*
X130634773Y-86714500D01*
X130634770Y-86714500D01*
X130532919Y-86741790D01*
X130532913Y-86741793D01*
X130441588Y-86794519D01*
X130441583Y-86794523D01*
X130367023Y-86869083D01*
X130367019Y-86869088D01*
X130314293Y-86960413D01*
X130314290Y-86960419D01*
X130287000Y-87062269D01*
X108250500Y-87062269D01*
X108250500Y-84447269D01*
X119099500Y-84447269D01*
X119099500Y-84552730D01*
X119126790Y-84654580D01*
X119126792Y-84654584D01*
X119126793Y-84654587D01*
X119179520Y-84745913D01*
X119254087Y-84820480D01*
X119345413Y-84873207D01*
X119345417Y-84873208D01*
X119345419Y-84873209D01*
X119447269Y-84900499D01*
X119447271Y-84900500D01*
X119447273Y-84900500D01*
X119552729Y-84900500D01*
X119552729Y-84900499D01*
X119654587Y-84873207D01*
X119745913Y-84820480D01*
X119769124Y-84797269D01*
X125349500Y-84797269D01*
X125349500Y-84902730D01*
X125376790Y-85004580D01*
X125376792Y-85004584D01*
X125376793Y-85004587D01*
X125429520Y-85095913D01*
X125504087Y-85170480D01*
X125595413Y-85223207D01*
X125595417Y-85223208D01*
X125595419Y-85223209D01*
X125697269Y-85250499D01*
X125697271Y-85250500D01*
X125697273Y-85250500D01*
X125802729Y-85250500D01*
X125802729Y-85250499D01*
X125904587Y-85223207D01*
X125995913Y-85170480D01*
X126070480Y-85095913D01*
X126123207Y-85004587D01*
X126150499Y-84902729D01*
X126150500Y-84902729D01*
X126150500Y-84827522D01*
X150314500Y-84827522D01*
X150314500Y-84972477D01*
X150352014Y-85112480D01*
X150352015Y-85112482D01*
X150352016Y-85112485D01*
X150424491Y-85238015D01*
X150526985Y-85340509D01*
X150652515Y-85412984D01*
X150652519Y-85412985D01*
X150783551Y-85448096D01*
X150820894Y-85476750D01*
X150827037Y-85523418D01*
X150798383Y-85560761D01*
X150783551Y-85566904D01*
X150652519Y-85602014D01*
X150652515Y-85602016D01*
X150526986Y-85674490D01*
X150526981Y-85674494D01*
X150424494Y-85776981D01*
X150424490Y-85776986D01*
X150352016Y-85902515D01*
X150352014Y-85902519D01*
X150314500Y-86042522D01*
X150314500Y-86187477D01*
X150352014Y-86327480D01*
X150352015Y-86327482D01*
X150352016Y-86327485D01*
X150424491Y-86453015D01*
X150526985Y-86555509D01*
X150652515Y-86627984D01*
X150652519Y-86627985D01*
X150792523Y-86665500D01*
X150792525Y-86665500D01*
X150937476Y-86665500D01*
X150999206Y-86648958D01*
X151077485Y-86627984D01*
X151203015Y-86555509D01*
X151305509Y-86453015D01*
X151377984Y-86327485D01*
X151392540Y-86273158D01*
X151415500Y-86187477D01*
X151415500Y-86042522D01*
X151377985Y-85902519D01*
X151377984Y-85902515D01*
X151305509Y-85776985D01*
X151203015Y-85674491D01*
X151077485Y-85602016D01*
X151077482Y-85602015D01*
X151077480Y-85602014D01*
X150946448Y-85566904D01*
X150909105Y-85538250D01*
X150902962Y-85491582D01*
X150931616Y-85454239D01*
X150946448Y-85448096D01*
X151011588Y-85430641D01*
X151077485Y-85412984D01*
X151203015Y-85340509D01*
X151305509Y-85238015D01*
X151377984Y-85112485D01*
X151406896Y-85004586D01*
X151415500Y-84972477D01*
X151415500Y-84827522D01*
X151378492Y-84689412D01*
X151378492Y-84689410D01*
X151378491Y-84689409D01*
X151377984Y-84687515D01*
X151372215Y-84677522D01*
X159949500Y-84677522D01*
X159949500Y-84822477D01*
X159987014Y-84962480D01*
X159987015Y-84962482D01*
X159987016Y-84962485D01*
X160059491Y-85088015D01*
X160161985Y-85190509D01*
X160287515Y-85262984D01*
X160287519Y-85262985D01*
X160427523Y-85300500D01*
X160427525Y-85300500D01*
X160572476Y-85300500D01*
X160634206Y-85283958D01*
X160712485Y-85262984D01*
X160838015Y-85190509D01*
X160940509Y-85088015D01*
X161012984Y-84962485D01*
X161027540Y-84908158D01*
X161050500Y-84822477D01*
X161050500Y-84677522D01*
X161012985Y-84537519D01*
X161012984Y-84537515D01*
X160940509Y-84411985D01*
X160838015Y-84309491D01*
X160712485Y-84237016D01*
X160712482Y-84237015D01*
X160712480Y-84237014D01*
X160572477Y-84199500D01*
X160572475Y-84199500D01*
X160427525Y-84199500D01*
X160427523Y-84199500D01*
X160287519Y-84237014D01*
X160287515Y-84237016D01*
X160161986Y-84309490D01*
X160161981Y-84309494D01*
X160059494Y-84411981D01*
X160059490Y-84411986D01*
X159987016Y-84537515D01*
X159987014Y-84537519D01*
X159949500Y-84677522D01*
X151372215Y-84677522D01*
X151305509Y-84561985D01*
X151203015Y-84459491D01*
X151077485Y-84387016D01*
X151077482Y-84387015D01*
X151077480Y-84387014D01*
X150937477Y-84349500D01*
X150937475Y-84349500D01*
X150792525Y-84349500D01*
X150792523Y-84349500D01*
X150652519Y-84387014D01*
X150652515Y-84387016D01*
X150526986Y-84459490D01*
X150526981Y-84459494D01*
X150424494Y-84561981D01*
X150424490Y-84561986D01*
X150352016Y-84687515D01*
X150352014Y-84687519D01*
X150314500Y-84827522D01*
X126150500Y-84827522D01*
X126150500Y-84797270D01*
X126150499Y-84797269D01*
X126123209Y-84695419D01*
X126123208Y-84695417D01*
X126123207Y-84695413D01*
X126070480Y-84604087D01*
X125995913Y-84529520D01*
X125904587Y-84476793D01*
X125904584Y-84476792D01*
X125904580Y-84476790D01*
X125802730Y-84449500D01*
X125802727Y-84449500D01*
X125697273Y-84449500D01*
X125697270Y-84449500D01*
X125595419Y-84476790D01*
X125595413Y-84476793D01*
X125504088Y-84529519D01*
X125504083Y-84529523D01*
X125429523Y-84604083D01*
X125429519Y-84604088D01*
X125376793Y-84695413D01*
X125376790Y-84695419D01*
X125349500Y-84797269D01*
X119769124Y-84797269D01*
X119820480Y-84745913D01*
X119873207Y-84654587D01*
X119900499Y-84552729D01*
X119900500Y-84552729D01*
X119900500Y-84447270D01*
X119900499Y-84447269D01*
X119873209Y-84345419D01*
X119873208Y-84345417D01*
X119873207Y-84345413D01*
X119820480Y-84254087D01*
X119745913Y-84179520D01*
X119654587Y-84126793D01*
X119654584Y-84126792D01*
X119654580Y-84126790D01*
X119552730Y-84099500D01*
X119552727Y-84099500D01*
X119447273Y-84099500D01*
X119447270Y-84099500D01*
X119345419Y-84126790D01*
X119345413Y-84126793D01*
X119254088Y-84179519D01*
X119254083Y-84179523D01*
X119179523Y-84254083D01*
X119179519Y-84254088D01*
X119126793Y-84345413D01*
X119126790Y-84345419D01*
X119099500Y-84447269D01*
X108250500Y-84447269D01*
X108250500Y-82447269D01*
X125349500Y-82447269D01*
X125349500Y-82552730D01*
X125376790Y-82654580D01*
X125376792Y-82654584D01*
X125376793Y-82654587D01*
X125429520Y-82745913D01*
X125504087Y-82820480D01*
X125595413Y-82873207D01*
X125595417Y-82873208D01*
X125595419Y-82873209D01*
X125697269Y-82900499D01*
X125697271Y-82900500D01*
X125697273Y-82900500D01*
X125802729Y-82900500D01*
X125802729Y-82900499D01*
X125904587Y-82873207D01*
X125995913Y-82820480D01*
X126070480Y-82745913D01*
X126123207Y-82654587D01*
X126150499Y-82552729D01*
X126150500Y-82552729D01*
X126150500Y-82447270D01*
X126150499Y-82447269D01*
X126123209Y-82345419D01*
X126123208Y-82345417D01*
X126123207Y-82345413D01*
X126070480Y-82254087D01*
X125995913Y-82179520D01*
X125904587Y-82126793D01*
X125904584Y-82126792D01*
X125904580Y-82126790D01*
X125802730Y-82099500D01*
X125802727Y-82099500D01*
X125697273Y-82099500D01*
X125697270Y-82099500D01*
X125595419Y-82126790D01*
X125595413Y-82126793D01*
X125504088Y-82179519D01*
X125504083Y-82179523D01*
X125429523Y-82254083D01*
X125429519Y-82254088D01*
X125376793Y-82345413D01*
X125376790Y-82345419D01*
X125349500Y-82447269D01*
X108250500Y-82447269D01*
X108250500Y-81447269D01*
X132849500Y-81447269D01*
X132849500Y-81552730D01*
X132876790Y-81654580D01*
X132876792Y-81654584D01*
X132876793Y-81654587D01*
X132929520Y-81745913D01*
X133004087Y-81820480D01*
X133095413Y-81873207D01*
X133095417Y-81873208D01*
X133095419Y-81873209D01*
X133197269Y-81900499D01*
X133197271Y-81900500D01*
X133197273Y-81900500D01*
X133302729Y-81900500D01*
X133302729Y-81900499D01*
X133404587Y-81873207D01*
X133495913Y-81820480D01*
X133570480Y-81745913D01*
X133609965Y-81677522D01*
X142199500Y-81677522D01*
X142199500Y-81822477D01*
X142237014Y-81962480D01*
X142237015Y-81962482D01*
X142237016Y-81962485D01*
X142309491Y-82088015D01*
X142411985Y-82190509D01*
X142537515Y-82262984D01*
X142537519Y-82262985D01*
X142677523Y-82300500D01*
X142677525Y-82300500D01*
X142822476Y-82300500D01*
X142884206Y-82283958D01*
X142962485Y-82262984D01*
X143088015Y-82190509D01*
X143190509Y-82088015D01*
X143262984Y-81962485D01*
X143286907Y-81873206D01*
X143300500Y-81822477D01*
X143300500Y-81677522D01*
X150199500Y-81677522D01*
X150199500Y-81822477D01*
X150237014Y-81962480D01*
X150237015Y-81962482D01*
X150237016Y-81962485D01*
X150309491Y-82088015D01*
X150411985Y-82190509D01*
X150537515Y-82262984D01*
X150537519Y-82262985D01*
X150677523Y-82300500D01*
X150677525Y-82300500D01*
X150822476Y-82300500D01*
X150884206Y-82283958D01*
X150962485Y-82262984D01*
X151088015Y-82190509D01*
X151101002Y-82177522D01*
X159949500Y-82177522D01*
X159949500Y-82322477D01*
X159987014Y-82462480D01*
X159987015Y-82462482D01*
X159987016Y-82462485D01*
X160059491Y-82588015D01*
X160161985Y-82690509D01*
X160287515Y-82762984D01*
X160287519Y-82762985D01*
X160427523Y-82800500D01*
X160427525Y-82800500D01*
X160572476Y-82800500D01*
X160634206Y-82783958D01*
X160712485Y-82762984D01*
X160838015Y-82690509D01*
X160940509Y-82588015D01*
X161012984Y-82462485D01*
X161044354Y-82345413D01*
X161050500Y-82322477D01*
X161050500Y-82177522D01*
X161012985Y-82037519D01*
X161012984Y-82037515D01*
X160940509Y-81911985D01*
X160838015Y-81809491D01*
X160712485Y-81737016D01*
X160712482Y-81737015D01*
X160712480Y-81737014D01*
X160572477Y-81699500D01*
X160572475Y-81699500D01*
X160427525Y-81699500D01*
X160427523Y-81699500D01*
X160287519Y-81737014D01*
X160287515Y-81737016D01*
X160161986Y-81809490D01*
X160161981Y-81809494D01*
X160059494Y-81911981D01*
X160059490Y-81911986D01*
X159987016Y-82037515D01*
X159987014Y-82037519D01*
X159949500Y-82177522D01*
X151101002Y-82177522D01*
X151190509Y-82088015D01*
X151262984Y-81962485D01*
X151286907Y-81873206D01*
X151300500Y-81822477D01*
X151300500Y-81677522D01*
X151262985Y-81537519D01*
X151262984Y-81537515D01*
X151190509Y-81411985D01*
X151088015Y-81309491D01*
X150962485Y-81237016D01*
X150962482Y-81237015D01*
X150962478Y-81237013D01*
X150947118Y-81232898D01*
X150947117Y-81232898D01*
X150822477Y-81199500D01*
X150822475Y-81199500D01*
X150677525Y-81199500D01*
X150677523Y-81199500D01*
X150537519Y-81237014D01*
X150537515Y-81237016D01*
X150411986Y-81309490D01*
X150411981Y-81309494D01*
X150309494Y-81411981D01*
X150309490Y-81411986D01*
X150237016Y-81537515D01*
X150237014Y-81537519D01*
X150199500Y-81677522D01*
X143300500Y-81677522D01*
X143262985Y-81537519D01*
X143262984Y-81537515D01*
X143190509Y-81411985D01*
X143088015Y-81309491D01*
X142962485Y-81237016D01*
X142962482Y-81237015D01*
X142962480Y-81237014D01*
X142822477Y-81199500D01*
X142822475Y-81199500D01*
X142677525Y-81199500D01*
X142677523Y-81199500D01*
X142537519Y-81237014D01*
X142537515Y-81237016D01*
X142411986Y-81309490D01*
X142411981Y-81309494D01*
X142309494Y-81411981D01*
X142309490Y-81411986D01*
X142237016Y-81537515D01*
X142237014Y-81537519D01*
X142199500Y-81677522D01*
X133609965Y-81677522D01*
X133623207Y-81654587D01*
X133645012Y-81573209D01*
X133650500Y-81552729D01*
X133650500Y-81447270D01*
X133650499Y-81447269D01*
X133623209Y-81345419D01*
X133623208Y-81345417D01*
X133623207Y-81345413D01*
X133570480Y-81254087D01*
X133495913Y-81179520D01*
X133492452Y-81177522D01*
X164449500Y-81177522D01*
X164449500Y-81322477D01*
X164487014Y-81462480D01*
X164487015Y-81462482D01*
X164487016Y-81462485D01*
X164559491Y-81588015D01*
X164661985Y-81690509D01*
X164787515Y-81762984D01*
X164787519Y-81762985D01*
X164927523Y-81800500D01*
X164927525Y-81800500D01*
X165072476Y-81800500D01*
X165134206Y-81783958D01*
X165212485Y-81762984D01*
X165338015Y-81690509D01*
X165440509Y-81588015D01*
X165512984Y-81462485D01*
X165541896Y-81354586D01*
X165550500Y-81322477D01*
X165550500Y-81177525D01*
X165545579Y-81159159D01*
X165545579Y-81159157D01*
X165542394Y-81147269D01*
X174199500Y-81147269D01*
X174199500Y-81252730D01*
X174226790Y-81354580D01*
X174226792Y-81354584D01*
X174226793Y-81354587D01*
X174279520Y-81445913D01*
X174354087Y-81520480D01*
X174445413Y-81573207D01*
X174445417Y-81573208D01*
X174445419Y-81573209D01*
X174547269Y-81600499D01*
X174547271Y-81600500D01*
X174547273Y-81600500D01*
X174652729Y-81600500D01*
X174652729Y-81600499D01*
X174754587Y-81573207D01*
X174845913Y-81520480D01*
X174920480Y-81445913D01*
X174973207Y-81354587D01*
X175000499Y-81252729D01*
X175000500Y-81252729D01*
X175000500Y-81147270D01*
X175000499Y-81147269D01*
X174973209Y-81045419D01*
X174973208Y-81045417D01*
X174973207Y-81045413D01*
X174920480Y-80954087D01*
X174845913Y-80879520D01*
X174754587Y-80826793D01*
X174754584Y-80826792D01*
X174754580Y-80826790D01*
X174652730Y-80799500D01*
X174652727Y-80799500D01*
X174547273Y-80799500D01*
X174547270Y-80799500D01*
X174445419Y-80826790D01*
X174445413Y-80826793D01*
X174354088Y-80879519D01*
X174354083Y-80879523D01*
X174279523Y-80954083D01*
X174279519Y-80954088D01*
X174226793Y-81045413D01*
X174226790Y-81045419D01*
X174199500Y-81147269D01*
X165542394Y-81147269D01*
X165512985Y-81037519D01*
X165512984Y-81037515D01*
X165440509Y-80911985D01*
X165338015Y-80809491D01*
X165212485Y-80737016D01*
X165212482Y-80737015D01*
X165212480Y-80737014D01*
X165072477Y-80699500D01*
X165072475Y-80699500D01*
X164927525Y-80699500D01*
X164927523Y-80699500D01*
X164787519Y-80737014D01*
X164787515Y-80737016D01*
X164661986Y-80809490D01*
X164661981Y-80809494D01*
X164559494Y-80911981D01*
X164559490Y-80911986D01*
X164487016Y-81037515D01*
X164487014Y-81037519D01*
X164449500Y-81177522D01*
X133492452Y-81177522D01*
X133404587Y-81126793D01*
X133404584Y-81126792D01*
X133404580Y-81126790D01*
X133302730Y-81099500D01*
X133302727Y-81099500D01*
X133197273Y-81099500D01*
X133197270Y-81099500D01*
X133095419Y-81126790D01*
X133095413Y-81126793D01*
X133004088Y-81179519D01*
X133004083Y-81179523D01*
X132929523Y-81254083D01*
X132929519Y-81254088D01*
X132876793Y-81345413D01*
X132876790Y-81345419D01*
X132849500Y-81447269D01*
X108250500Y-81447269D01*
X108250500Y-80947269D01*
X125349500Y-80947269D01*
X125349500Y-81052730D01*
X125376790Y-81154580D01*
X125376792Y-81154584D01*
X125376793Y-81154587D01*
X125429520Y-81245913D01*
X125504087Y-81320480D01*
X125595413Y-81373207D01*
X125595417Y-81373208D01*
X125595419Y-81373209D01*
X125697269Y-81400499D01*
X125697271Y-81400500D01*
X125697273Y-81400500D01*
X125802728Y-81400500D01*
X125864912Y-81383838D01*
X125864912Y-81383837D01*
X125904587Y-81373207D01*
X125995913Y-81320480D01*
X126070480Y-81245913D01*
X126123207Y-81154587D01*
X126150499Y-81052729D01*
X126150500Y-81052729D01*
X126150500Y-80947270D01*
X126150499Y-80947269D01*
X126123209Y-80845419D01*
X126123208Y-80845417D01*
X126123207Y-80845413D01*
X126070480Y-80754087D01*
X125995913Y-80679520D01*
X125904587Y-80626793D01*
X125904584Y-80626792D01*
X125904580Y-80626790D01*
X125802730Y-80599500D01*
X125802727Y-80599500D01*
X125697273Y-80599500D01*
X125697270Y-80599500D01*
X125595419Y-80626790D01*
X125595413Y-80626793D01*
X125504088Y-80679519D01*
X125504083Y-80679523D01*
X125429523Y-80754083D01*
X125429519Y-80754088D01*
X125376793Y-80845413D01*
X125376790Y-80845419D01*
X125349500Y-80947269D01*
X108250500Y-80947269D01*
X108250500Y-80327522D01*
X132649500Y-80327522D01*
X132649500Y-80472477D01*
X132687014Y-80612480D01*
X132687015Y-80612482D01*
X132687016Y-80612485D01*
X132759491Y-80738015D01*
X132861985Y-80840509D01*
X132987515Y-80912984D01*
X132987519Y-80912985D01*
X133127523Y-80950500D01*
X133127525Y-80950500D01*
X133272476Y-80950500D01*
X133334206Y-80933958D01*
X133412485Y-80912984D01*
X133538015Y-80840509D01*
X133640509Y-80738015D01*
X133712984Y-80612485D01*
X133727540Y-80558158D01*
X133750500Y-80472477D01*
X133750500Y-80327522D01*
X133712985Y-80187519D01*
X133712984Y-80187515D01*
X133640509Y-80061985D01*
X133538015Y-79959491D01*
X133412485Y-79887016D01*
X133412482Y-79887015D01*
X133412480Y-79887014D01*
X133272477Y-79849500D01*
X133272475Y-79849500D01*
X133127525Y-79849500D01*
X133127523Y-79849500D01*
X132987519Y-79887014D01*
X132987515Y-79887016D01*
X132861986Y-79959490D01*
X132861981Y-79959494D01*
X132759494Y-80061981D01*
X132759490Y-80061986D01*
X132687016Y-80187515D01*
X132687014Y-80187519D01*
X132649500Y-80327522D01*
X108250500Y-80327522D01*
X108250500Y-79427522D01*
X148199500Y-79427522D01*
X148199500Y-79572477D01*
X148237014Y-79712480D01*
X148237015Y-79712482D01*
X148237016Y-79712485D01*
X148309491Y-79838015D01*
X148411985Y-79940509D01*
X148537515Y-80012984D01*
X148537519Y-80012985D01*
X148677523Y-80050500D01*
X148677525Y-80050500D01*
X148822476Y-80050500D01*
X148884206Y-80033958D01*
X148962485Y-80012984D01*
X149088015Y-79940509D01*
X149190509Y-79838015D01*
X149262984Y-79712485D01*
X149283071Y-79637519D01*
X149300500Y-79572477D01*
X149300500Y-79427522D01*
X149949500Y-79427522D01*
X149949500Y-79572477D01*
X149987014Y-79712480D01*
X149987015Y-79712482D01*
X149987016Y-79712485D01*
X150059491Y-79838015D01*
X150161985Y-79940509D01*
X150287515Y-80012984D01*
X150287519Y-80012985D01*
X150427523Y-80050500D01*
X150427525Y-80050500D01*
X150572476Y-80050500D01*
X150634206Y-80033958D01*
X150712485Y-80012984D01*
X150838015Y-79940509D01*
X150940509Y-79838015D01*
X151012984Y-79712485D01*
X151033071Y-79637519D01*
X151050500Y-79572477D01*
X151050500Y-79427522D01*
X151012985Y-79287519D01*
X151012984Y-79287515D01*
X151009078Y-79280750D01*
X150976312Y-79223997D01*
X150976311Y-79223995D01*
X150960881Y-79197269D01*
X153849500Y-79197269D01*
X153849500Y-79302730D01*
X153876790Y-79404580D01*
X153876792Y-79404584D01*
X153876793Y-79404587D01*
X153929520Y-79495913D01*
X154004087Y-79570480D01*
X154095413Y-79623207D01*
X154095417Y-79623208D01*
X154095419Y-79623209D01*
X154197269Y-79650499D01*
X154197271Y-79650500D01*
X154197273Y-79650500D01*
X154302729Y-79650500D01*
X154302729Y-79650499D01*
X154404587Y-79623207D01*
X154495913Y-79570480D01*
X154570480Y-79495913D01*
X154623207Y-79404587D01*
X154650499Y-79302729D01*
X154650500Y-79302729D01*
X154650500Y-79197270D01*
X154650499Y-79197269D01*
X154623209Y-79095419D01*
X154623208Y-79095417D01*
X154623207Y-79095413D01*
X154570480Y-79004087D01*
X154495913Y-78929520D01*
X154404587Y-78876793D01*
X154404584Y-78876792D01*
X154404580Y-78876790D01*
X154302730Y-78849500D01*
X154302727Y-78849500D01*
X154197273Y-78849500D01*
X154197270Y-78849500D01*
X154095419Y-78876790D01*
X154095413Y-78876793D01*
X154004088Y-78929519D01*
X154004083Y-78929523D01*
X153929523Y-79004083D01*
X153929519Y-79004088D01*
X153876793Y-79095413D01*
X153876790Y-79095419D01*
X153849500Y-79197269D01*
X150960881Y-79197269D01*
X150940509Y-79161985D01*
X150838015Y-79059491D01*
X150712485Y-78987016D01*
X150712482Y-78987015D01*
X150712480Y-78987014D01*
X150572477Y-78949500D01*
X150572475Y-78949500D01*
X150427525Y-78949500D01*
X150427523Y-78949500D01*
X150287519Y-78987014D01*
X150287515Y-78987016D01*
X150161986Y-79059490D01*
X150161981Y-79059494D01*
X150059494Y-79161981D01*
X150059490Y-79161986D01*
X149987016Y-79287515D01*
X149987014Y-79287519D01*
X149949500Y-79427522D01*
X149300500Y-79427522D01*
X149262985Y-79287519D01*
X149262984Y-79287515D01*
X149190509Y-79161985D01*
X149088015Y-79059491D01*
X148962485Y-78987016D01*
X148962482Y-78987015D01*
X148962480Y-78987014D01*
X148822477Y-78949500D01*
X148822475Y-78949500D01*
X148677525Y-78949500D01*
X148677523Y-78949500D01*
X148537519Y-78987014D01*
X148537515Y-78987016D01*
X148411986Y-79059490D01*
X148411981Y-79059494D01*
X148309494Y-79161981D01*
X148309490Y-79161986D01*
X148237016Y-79287515D01*
X148237014Y-79287519D01*
X148199500Y-79427522D01*
X108250500Y-79427522D01*
X108250500Y-78147269D01*
X118099500Y-78147269D01*
X118099500Y-78252730D01*
X118126790Y-78354580D01*
X118126792Y-78354584D01*
X118126793Y-78354587D01*
X118179520Y-78445913D01*
X118254087Y-78520480D01*
X118345413Y-78573207D01*
X118345417Y-78573208D01*
X118345419Y-78573209D01*
X118447269Y-78600499D01*
X118447271Y-78600500D01*
X118447273Y-78600500D01*
X118552729Y-78600500D01*
X118552729Y-78600499D01*
X118638483Y-78577522D01*
X170339500Y-78577522D01*
X170339500Y-78722477D01*
X170377014Y-78862480D01*
X170377015Y-78862482D01*
X170377016Y-78862485D01*
X170449491Y-78988015D01*
X170551985Y-79090509D01*
X170677515Y-79162984D01*
X170677519Y-79162985D01*
X170780561Y-79190596D01*
X170817904Y-79219250D01*
X170824047Y-79265918D01*
X170795393Y-79303261D01*
X170780561Y-79309404D01*
X170677519Y-79337014D01*
X170677515Y-79337016D01*
X170551986Y-79409490D01*
X170551981Y-79409494D01*
X170449494Y-79511981D01*
X170449490Y-79511986D01*
X170377016Y-79637515D01*
X170377014Y-79637519D01*
X170339500Y-79777522D01*
X170339500Y-79922477D01*
X170377014Y-80062480D01*
X170377015Y-80062482D01*
X170377016Y-80062485D01*
X170449491Y-80188015D01*
X170551985Y-80290509D01*
X170677515Y-80362984D01*
X170677519Y-80362985D01*
X170817523Y-80400500D01*
X170817525Y-80400500D01*
X170962476Y-80400500D01*
X171024206Y-80383958D01*
X171102485Y-80362984D01*
X171228015Y-80290509D01*
X171330509Y-80188015D01*
X171402984Y-80062485D01*
X171430581Y-79959494D01*
X171440500Y-79922477D01*
X171440500Y-79777522D01*
X171402985Y-79637519D01*
X171402984Y-79637515D01*
X171330509Y-79511985D01*
X171228015Y-79409491D01*
X171102485Y-79337016D01*
X171102482Y-79337015D01*
X171102480Y-79337014D01*
X170999438Y-79309404D01*
X170962095Y-79280750D01*
X170955952Y-79234082D01*
X170984606Y-79196739D01*
X170999438Y-79190596D01*
X171049453Y-79177194D01*
X171102485Y-79162984D01*
X171228015Y-79090509D01*
X171330509Y-78988015D01*
X171402984Y-78862485D01*
X171417540Y-78808158D01*
X171440500Y-78722477D01*
X171440500Y-78577522D01*
X171402985Y-78437519D01*
X171402984Y-78437515D01*
X171330509Y-78311985D01*
X171228015Y-78209491D01*
X171102485Y-78137016D01*
X171102482Y-78137015D01*
X171102480Y-78137014D01*
X170962477Y-78099500D01*
X170962475Y-78099500D01*
X170817525Y-78099500D01*
X170817523Y-78099500D01*
X170677519Y-78137014D01*
X170677515Y-78137016D01*
X170551986Y-78209490D01*
X170551981Y-78209494D01*
X170449494Y-78311981D01*
X170449490Y-78311986D01*
X170377016Y-78437515D01*
X170377014Y-78437519D01*
X170339500Y-78577522D01*
X118638483Y-78577522D01*
X118654587Y-78573207D01*
X118745913Y-78520480D01*
X118820480Y-78445913D01*
X118873207Y-78354587D01*
X118900499Y-78252729D01*
X118900500Y-78252729D01*
X118900500Y-78147270D01*
X118900499Y-78147269D01*
X118873209Y-78045419D01*
X118873208Y-78045417D01*
X118873207Y-78045413D01*
X118820480Y-77954087D01*
X118745913Y-77879520D01*
X118654587Y-77826793D01*
X118654584Y-77826792D01*
X118654580Y-77826790D01*
X118552730Y-77799500D01*
X118552727Y-77799500D01*
X118447273Y-77799500D01*
X118447270Y-77799500D01*
X118345419Y-77826790D01*
X118345413Y-77826793D01*
X118254088Y-77879519D01*
X118254083Y-77879523D01*
X118179523Y-77954083D01*
X118179519Y-77954088D01*
X118126793Y-78045413D01*
X118126790Y-78045419D01*
X118099500Y-78147269D01*
X108250500Y-78147269D01*
X108250500Y-77697269D01*
X141599500Y-77697269D01*
X141599500Y-77802730D01*
X141626790Y-77904580D01*
X141626792Y-77904584D01*
X141626793Y-77904587D01*
X141679520Y-77995913D01*
X141754087Y-78070480D01*
X141845413Y-78123207D01*
X141845417Y-78123208D01*
X141845419Y-78123209D01*
X141947269Y-78150499D01*
X141947271Y-78150500D01*
X141947273Y-78150500D01*
X142052729Y-78150500D01*
X142052729Y-78150499D01*
X142154587Y-78123207D01*
X142245913Y-78070480D01*
X142320480Y-77995913D01*
X142373207Y-77904587D01*
X142400499Y-77802729D01*
X142400500Y-77802729D01*
X142400500Y-77697270D01*
X142400499Y-77697269D01*
X143099500Y-77697269D01*
X143099500Y-77802730D01*
X143126790Y-77904580D01*
X143126792Y-77904584D01*
X143126793Y-77904587D01*
X143179520Y-77995913D01*
X143254087Y-78070480D01*
X143345413Y-78123207D01*
X143345417Y-78123208D01*
X143345419Y-78123209D01*
X143447269Y-78150499D01*
X143447271Y-78150500D01*
X143447273Y-78150500D01*
X143552729Y-78150500D01*
X143552729Y-78150499D01*
X143654587Y-78123207D01*
X143745913Y-78070480D01*
X143820480Y-77995913D01*
X143873207Y-77904587D01*
X143900499Y-77802729D01*
X143900500Y-77802729D01*
X143900500Y-77697270D01*
X143900499Y-77697269D01*
X154849500Y-77697269D01*
X154849500Y-77802730D01*
X154876790Y-77904580D01*
X154876792Y-77904584D01*
X154876793Y-77904587D01*
X154929520Y-77995913D01*
X155004087Y-78070480D01*
X155095413Y-78123207D01*
X155095417Y-78123208D01*
X155095419Y-78123209D01*
X155197269Y-78150499D01*
X155197271Y-78150500D01*
X155197273Y-78150500D01*
X155302729Y-78150500D01*
X155302729Y-78150499D01*
X155404587Y-78123207D01*
X155495913Y-78070480D01*
X155570480Y-77995913D01*
X155623207Y-77904587D01*
X155650499Y-77802729D01*
X155650500Y-77802729D01*
X155650500Y-77697270D01*
X155650499Y-77697269D01*
X155623209Y-77595419D01*
X155623208Y-77595417D01*
X155623207Y-77595413D01*
X155570480Y-77504087D01*
X155495913Y-77429520D01*
X155404587Y-77376793D01*
X155404584Y-77376792D01*
X155404580Y-77376790D01*
X155302730Y-77349500D01*
X155302727Y-77349500D01*
X155197273Y-77349500D01*
X155197270Y-77349500D01*
X155095419Y-77376790D01*
X155095413Y-77376793D01*
X155004088Y-77429519D01*
X155004083Y-77429523D01*
X154929523Y-77504083D01*
X154929519Y-77504088D01*
X154876793Y-77595413D01*
X154876790Y-77595419D01*
X154849500Y-77697269D01*
X143900499Y-77697269D01*
X143873209Y-77595419D01*
X143873208Y-77595417D01*
X143873207Y-77595413D01*
X143820480Y-77504087D01*
X143745913Y-77429520D01*
X143654587Y-77376793D01*
X143654584Y-77376792D01*
X143654580Y-77376790D01*
X143552730Y-77349500D01*
X143552727Y-77349500D01*
X143447273Y-77349500D01*
X143447270Y-77349500D01*
X143345419Y-77376790D01*
X143345413Y-77376793D01*
X143254088Y-77429519D01*
X143254083Y-77429523D01*
X143179523Y-77504083D01*
X143179519Y-77504088D01*
X143126793Y-77595413D01*
X143126790Y-77595419D01*
X143099500Y-77697269D01*
X142400499Y-77697269D01*
X142373209Y-77595419D01*
X142373208Y-77595417D01*
X142373207Y-77595413D01*
X142320480Y-77504087D01*
X142245913Y-77429520D01*
X142154587Y-77376793D01*
X142154584Y-77376792D01*
X142154580Y-77376790D01*
X142052730Y-77349500D01*
X142052727Y-77349500D01*
X141947273Y-77349500D01*
X141947270Y-77349500D01*
X141845419Y-77376790D01*
X141845413Y-77376793D01*
X141754088Y-77429519D01*
X141754083Y-77429523D01*
X141679523Y-77504083D01*
X141679519Y-77504088D01*
X141626793Y-77595413D01*
X141626790Y-77595419D01*
X141599500Y-77697269D01*
X108250500Y-77697269D01*
X108250500Y-75427522D01*
X165449500Y-75427522D01*
X165449500Y-75572477D01*
X165487014Y-75712480D01*
X165487015Y-75712482D01*
X165487016Y-75712485D01*
X165559491Y-75838015D01*
X165661985Y-75940509D01*
X165787515Y-76012984D01*
X165787519Y-76012985D01*
X165927523Y-76050500D01*
X165927525Y-76050500D01*
X166072476Y-76050500D01*
X166134206Y-76033958D01*
X166212485Y-76012984D01*
X166338015Y-75940509D01*
X166440509Y-75838015D01*
X166512984Y-75712485D01*
X166527540Y-75658158D01*
X166550500Y-75572477D01*
X166550500Y-75427522D01*
X166512985Y-75287519D01*
X166512984Y-75287515D01*
X166440509Y-75161985D01*
X166338015Y-75059491D01*
X166212485Y-74987016D01*
X166212482Y-74987015D01*
X166212480Y-74987014D01*
X166072477Y-74949500D01*
X166072475Y-74949500D01*
X165927525Y-74949500D01*
X165927523Y-74949500D01*
X165787519Y-74987014D01*
X165787515Y-74987016D01*
X165661986Y-75059490D01*
X165661981Y-75059494D01*
X165559494Y-75161981D01*
X165559490Y-75161986D01*
X165487016Y-75287515D01*
X165487014Y-75287519D01*
X165449500Y-75427522D01*
X108250500Y-75427522D01*
X108250500Y-74197269D01*
X141599500Y-74197269D01*
X141599500Y-74302730D01*
X141626790Y-74404580D01*
X141626792Y-74404584D01*
X141626793Y-74404587D01*
X141679520Y-74495913D01*
X141754087Y-74570480D01*
X141845413Y-74623207D01*
X141845417Y-74623208D01*
X141845419Y-74623209D01*
X141947269Y-74650499D01*
X141947271Y-74650500D01*
X141947273Y-74650500D01*
X142052729Y-74650500D01*
X142052729Y-74650499D01*
X142154587Y-74623207D01*
X142245913Y-74570480D01*
X142320480Y-74495913D01*
X142373207Y-74404587D01*
X142400499Y-74302729D01*
X142400500Y-74302729D01*
X142400500Y-74197270D01*
X142400499Y-74197269D01*
X143136157Y-74197269D01*
X143136157Y-74302730D01*
X143163447Y-74404580D01*
X143163449Y-74404584D01*
X143163450Y-74404587D01*
X143216177Y-74495913D01*
X143290744Y-74570480D01*
X143382070Y-74623207D01*
X143382074Y-74623208D01*
X143382076Y-74623209D01*
X143483926Y-74650499D01*
X143483928Y-74650500D01*
X143483930Y-74650500D01*
X143589386Y-74650500D01*
X143589386Y-74650499D01*
X143691244Y-74623207D01*
X143782570Y-74570480D01*
X143857137Y-74495913D01*
X143909864Y-74404587D01*
X143937156Y-74302729D01*
X143937157Y-74302729D01*
X143937157Y-74197270D01*
X143937156Y-74197269D01*
X143909866Y-74095419D01*
X143909865Y-74095417D01*
X143909864Y-74095413D01*
X143857137Y-74004087D01*
X143782570Y-73929520D01*
X143779109Y-73927522D01*
X165449500Y-73927522D01*
X165449500Y-74072477D01*
X165487014Y-74212480D01*
X165487015Y-74212482D01*
X165487016Y-74212485D01*
X165559491Y-74338015D01*
X165661985Y-74440509D01*
X165787515Y-74512984D01*
X165787519Y-74512985D01*
X165927523Y-74550500D01*
X165927525Y-74550500D01*
X166072476Y-74550500D01*
X166134206Y-74533958D01*
X166212485Y-74512984D01*
X166338015Y-74440509D01*
X166440509Y-74338015D01*
X166512984Y-74212485D01*
X166544354Y-74095413D01*
X166550500Y-74072477D01*
X166550500Y-73927522D01*
X166512985Y-73787519D01*
X166512984Y-73787515D01*
X166440509Y-73661985D01*
X166338015Y-73559491D01*
X166212485Y-73487016D01*
X166212482Y-73487015D01*
X166212480Y-73487014D01*
X166072477Y-73449500D01*
X166072475Y-73449500D01*
X165927525Y-73449500D01*
X165927523Y-73449500D01*
X165787519Y-73487014D01*
X165787515Y-73487016D01*
X165661986Y-73559490D01*
X165661981Y-73559494D01*
X165559494Y-73661981D01*
X165559490Y-73661986D01*
X165487016Y-73787515D01*
X165487014Y-73787519D01*
X165449500Y-73927522D01*
X143779109Y-73927522D01*
X143691244Y-73876793D01*
X143691241Y-73876792D01*
X143691237Y-73876790D01*
X143589387Y-73849500D01*
X143589384Y-73849500D01*
X143483930Y-73849500D01*
X143483927Y-73849500D01*
X143382076Y-73876790D01*
X143382070Y-73876793D01*
X143290745Y-73929519D01*
X143290740Y-73929523D01*
X143216180Y-74004083D01*
X143216176Y-74004088D01*
X143163450Y-74095413D01*
X143163447Y-74095419D01*
X143136157Y-74197269D01*
X142400499Y-74197269D01*
X142373209Y-74095419D01*
X142373208Y-74095417D01*
X142373207Y-74095413D01*
X142320480Y-74004087D01*
X142245913Y-73929520D01*
X142154587Y-73876793D01*
X142154584Y-73876792D01*
X142154580Y-73876790D01*
X142052730Y-73849500D01*
X142052727Y-73849500D01*
X141947273Y-73849500D01*
X141947270Y-73849500D01*
X141845419Y-73876790D01*
X141845413Y-73876793D01*
X141754088Y-73929519D01*
X141754083Y-73929523D01*
X141679523Y-74004083D01*
X141679519Y-74004088D01*
X141626793Y-74095413D01*
X141626790Y-74095419D01*
X141599500Y-74197269D01*
X108250500Y-74197269D01*
X108250500Y-69751331D01*
X108250559Y-69748648D01*
X108256368Y-69615597D01*
X110699500Y-69615597D01*
X110699500Y-69884402D01*
X110734585Y-70150898D01*
X110804151Y-70410520D01*
X110804153Y-70410526D01*
X110907016Y-70658859D01*
X110979795Y-70784916D01*
X111041412Y-70891640D01*
X111205042Y-71104888D01*
X111395111Y-71294957D01*
X111570471Y-71429515D01*
X111608359Y-71458587D01*
X111841141Y-71592984D01*
X112089474Y-71695847D01*
X112243119Y-71737016D01*
X112349101Y-71765414D01*
X112349102Y-71765414D01*
X112349109Y-71765416D01*
X112615603Y-71800500D01*
X112615606Y-71800500D01*
X112884394Y-71800500D01*
X112884397Y-71800500D01*
X113150891Y-71765416D01*
X113410526Y-71695847D01*
X113658859Y-71592984D01*
X113891641Y-71458587D01*
X113999169Y-71376078D01*
X137679500Y-71376078D01*
X137679500Y-72623921D01*
X137708340Y-72768906D01*
X137708345Y-72768923D01*
X137764913Y-72905488D01*
X137764916Y-72905495D01*
X137764917Y-72905496D01*
X137847048Y-73028415D01*
X137951584Y-73132951D01*
X137951583Y-73132951D01*
X138013252Y-73174156D01*
X138074505Y-73215084D01*
X138138134Y-73241440D01*
X138211076Y-73271654D01*
X138211080Y-73271655D01*
X138211087Y-73271658D01*
X138356078Y-73300499D01*
X138356079Y-73300500D01*
X138356082Y-73300500D01*
X138503921Y-73300500D01*
X138503921Y-73300499D01*
X138648913Y-73271658D01*
X138785495Y-73215084D01*
X138908416Y-73132951D01*
X139012951Y-73028416D01*
X139095084Y-72905495D01*
X139151658Y-72768913D01*
X139180499Y-72623921D01*
X139180500Y-72623921D01*
X139180500Y-71410813D01*
X139334500Y-71410813D01*
X139334500Y-71549186D01*
X139370309Y-71682829D01*
X139370311Y-71682833D01*
X139370312Y-71682836D01*
X139439495Y-71802665D01*
X139537335Y-71900505D01*
X139657164Y-71969688D01*
X139657168Y-71969689D01*
X139657170Y-71969690D01*
X139790813Y-72005499D01*
X139790815Y-72005500D01*
X139790817Y-72005500D01*
X139929185Y-72005500D01*
X139929185Y-72005499D01*
X140062836Y-71969688D01*
X140182665Y-71900505D01*
X140280505Y-71802665D01*
X140349688Y-71682836D01*
X140385499Y-71549185D01*
X140385500Y-71549185D01*
X140385500Y-71410814D01*
X140385499Y-71410813D01*
X145114500Y-71410813D01*
X145114500Y-71549186D01*
X145150309Y-71682829D01*
X145150311Y-71682833D01*
X145150312Y-71682836D01*
X145219495Y-71802665D01*
X145317335Y-71900505D01*
X145437164Y-71969688D01*
X145437168Y-71969689D01*
X145437170Y-71969690D01*
X145570813Y-72005499D01*
X145570815Y-72005500D01*
X145570817Y-72005500D01*
X145709185Y-72005500D01*
X145709185Y-72005499D01*
X145842836Y-71969688D01*
X145962665Y-71900505D01*
X146060505Y-71802665D01*
X146129688Y-71682836D01*
X146165499Y-71549185D01*
X146165500Y-71549185D01*
X146165500Y-71410814D01*
X146159649Y-71388979D01*
X146159649Y-71388978D01*
X146156192Y-71376078D01*
X146319500Y-71376078D01*
X146319500Y-72623921D01*
X146348340Y-72768906D01*
X146348345Y-72768923D01*
X146404913Y-72905488D01*
X146404916Y-72905495D01*
X146404917Y-72905496D01*
X146487048Y-73028415D01*
X146591584Y-73132951D01*
X146591583Y-73132951D01*
X146653252Y-73174156D01*
X146714505Y-73215084D01*
X146778134Y-73241440D01*
X146851076Y-73271654D01*
X146851080Y-73271655D01*
X146851087Y-73271658D01*
X146996078Y-73300499D01*
X146996079Y-73300500D01*
X146996082Y-73300500D01*
X147143921Y-73300500D01*
X147143921Y-73300499D01*
X147288913Y-73271658D01*
X147425495Y-73215084D01*
X147548416Y-73132951D01*
X147652951Y-73028416D01*
X147735084Y-72905495D01*
X147791658Y-72768913D01*
X147820499Y-72623921D01*
X147820500Y-72623921D01*
X147820500Y-72177522D01*
X165449500Y-72177522D01*
X165449500Y-72322477D01*
X165487014Y-72462480D01*
X165487015Y-72462482D01*
X165487016Y-72462485D01*
X165559491Y-72588015D01*
X165661985Y-72690509D01*
X165787515Y-72762984D01*
X165787519Y-72762985D01*
X165927523Y-72800500D01*
X165927525Y-72800500D01*
X166072476Y-72800500D01*
X166134206Y-72783958D01*
X166212485Y-72762984D01*
X166338015Y-72690509D01*
X166440509Y-72588015D01*
X166512984Y-72462485D01*
X166527540Y-72408158D01*
X166550500Y-72322477D01*
X166550500Y-72177522D01*
X166512985Y-72037519D01*
X166512984Y-72037515D01*
X166440509Y-71911985D01*
X166338015Y-71809491D01*
X166212485Y-71737016D01*
X166212482Y-71737015D01*
X166212480Y-71737014D01*
X166072477Y-71699500D01*
X166072475Y-71699500D01*
X165927525Y-71699500D01*
X165927523Y-71699500D01*
X165787519Y-71737014D01*
X165787515Y-71737016D01*
X165661986Y-71809490D01*
X165661981Y-71809494D01*
X165559494Y-71911981D01*
X165559490Y-71911986D01*
X165487016Y-72037515D01*
X165487014Y-72037519D01*
X165449500Y-72177522D01*
X147820500Y-72177522D01*
X147820500Y-71376079D01*
X147820499Y-71376078D01*
X147810193Y-71324269D01*
X147791658Y-71231087D01*
X147791655Y-71231080D01*
X147791654Y-71231076D01*
X147759968Y-71154580D01*
X147735084Y-71094505D01*
X147652951Y-70971584D01*
X147548416Y-70867049D01*
X147548415Y-70867048D01*
X147548416Y-70867048D01*
X147425496Y-70784917D01*
X147425497Y-70784917D01*
X147425495Y-70784916D01*
X147425488Y-70784913D01*
X147288923Y-70728345D01*
X147288906Y-70728340D01*
X147143921Y-70699500D01*
X147143918Y-70699500D01*
X146996082Y-70699500D01*
X146996079Y-70699500D01*
X146851093Y-70728340D01*
X146851076Y-70728345D01*
X146714511Y-70784913D01*
X146714503Y-70784917D01*
X146591584Y-70867048D01*
X146487048Y-70971584D01*
X146404917Y-71094503D01*
X146404913Y-71094511D01*
X146348345Y-71231076D01*
X146348340Y-71231093D01*
X146319500Y-71376078D01*
X146156192Y-71376078D01*
X146129690Y-71277170D01*
X146129689Y-71277168D01*
X146129688Y-71277164D01*
X146060505Y-71157335D01*
X145962665Y-71059495D01*
X145842836Y-70990312D01*
X145842833Y-70990311D01*
X145842829Y-70990309D01*
X145709186Y-70954500D01*
X145709183Y-70954500D01*
X145570817Y-70954500D01*
X145570814Y-70954500D01*
X145437170Y-70990309D01*
X145437164Y-70990312D01*
X145317336Y-71059494D01*
X145317331Y-71059498D01*
X145219498Y-71157331D01*
X145219494Y-71157336D01*
X145150312Y-71277164D01*
X145150309Y-71277170D01*
X145114500Y-71410813D01*
X140385499Y-71410813D01*
X140349690Y-71277170D01*
X140349689Y-71277168D01*
X140349688Y-71277164D01*
X140280505Y-71157335D01*
X140182665Y-71059495D01*
X140062836Y-70990312D01*
X140062833Y-70990311D01*
X140062829Y-70990309D01*
X139929186Y-70954500D01*
X139929183Y-70954500D01*
X139790817Y-70954500D01*
X139790814Y-70954500D01*
X139657170Y-70990309D01*
X139657164Y-70990312D01*
X139537336Y-71059494D01*
X139537331Y-71059498D01*
X139439498Y-71157331D01*
X139439494Y-71157336D01*
X139370312Y-71277164D01*
X139370309Y-71277170D01*
X139334500Y-71410813D01*
X139180500Y-71410813D01*
X139180500Y-71376079D01*
X139180499Y-71376078D01*
X139170193Y-71324269D01*
X139151658Y-71231087D01*
X139151655Y-71231080D01*
X139151654Y-71231076D01*
X139119968Y-71154580D01*
X139095084Y-71094505D01*
X139012951Y-70971584D01*
X138908416Y-70867049D01*
X138908415Y-70867048D01*
X138908416Y-70867048D01*
X138785496Y-70784917D01*
X138785497Y-70784917D01*
X138785495Y-70784916D01*
X138785488Y-70784913D01*
X138648923Y-70728345D01*
X138648906Y-70728340D01*
X138503921Y-70699500D01*
X138503918Y-70699500D01*
X138356082Y-70699500D01*
X138356079Y-70699500D01*
X138211093Y-70728340D01*
X138211076Y-70728345D01*
X138074511Y-70784913D01*
X138074503Y-70784917D01*
X137951584Y-70867048D01*
X137847048Y-70971584D01*
X137764917Y-71094503D01*
X137764913Y-71094511D01*
X137708345Y-71231076D01*
X137708340Y-71231093D01*
X137679500Y-71376078D01*
X113999169Y-71376078D01*
X114104890Y-71294956D01*
X114294956Y-71104890D01*
X114458587Y-70891641D01*
X114592984Y-70658859D01*
X114695847Y-70410526D01*
X114765416Y-70150891D01*
X114800500Y-69884397D01*
X114800500Y-69615603D01*
X114765416Y-69349109D01*
X114695847Y-69089474D01*
X114592984Y-68841141D01*
X114458587Y-68608359D01*
X114441004Y-68585444D01*
X114294957Y-68395111D01*
X114104888Y-68205042D01*
X113891640Y-68041412D01*
X113806435Y-67992219D01*
X113658859Y-67907016D01*
X113410526Y-67804153D01*
X113410520Y-67804151D01*
X113150898Y-67734585D01*
X113150891Y-67734584D01*
X113122519Y-67730848D01*
X112884402Y-67699500D01*
X112884397Y-67699500D01*
X112615603Y-67699500D01*
X112615597Y-67699500D01*
X112349101Y-67734585D01*
X112089479Y-67804151D01*
X112089473Y-67804153D01*
X111841143Y-67907015D01*
X111608359Y-68041412D01*
X111395111Y-68205042D01*
X111205042Y-68395111D01*
X111041412Y-68608359D01*
X110907015Y-68841143D01*
X110804153Y-69089473D01*
X110804151Y-69089479D01*
X110734585Y-69349101D01*
X110699500Y-69615597D01*
X108256368Y-69615597D01*
X108256573Y-69610907D01*
X108256573Y-69610906D01*
X108263717Y-69447273D01*
X108267505Y-69360518D01*
X108267969Y-69355202D01*
X108318510Y-68971308D01*
X108319435Y-68966065D01*
X108403238Y-68588051D01*
X108404616Y-68582906D01*
X108521046Y-68213637D01*
X108522880Y-68208600D01*
X108535072Y-68179166D01*
X108671049Y-67850886D01*
X108673299Y-67846062D01*
X108852086Y-67502616D01*
X108854748Y-67498005D01*
X108932906Y-67375322D01*
X118649500Y-67375322D01*
X118649500Y-69124677D01*
X118664032Y-69197738D01*
X118691621Y-69239028D01*
X118719399Y-69280601D01*
X118781615Y-69322172D01*
X118802261Y-69335967D01*
X118860473Y-69347545D01*
X118875322Y-69350499D01*
X118875323Y-69350500D01*
X118875326Y-69350500D01*
X120624677Y-69350500D01*
X120624677Y-69350499D01*
X120653980Y-69344670D01*
X120697738Y-69335967D01*
X120697739Y-69335966D01*
X120697740Y-69335966D01*
X120780601Y-69280601D01*
X120835966Y-69197740D01*
X120835966Y-69197739D01*
X120835967Y-69197738D01*
X120850499Y-69124677D01*
X120850500Y-69124677D01*
X120850500Y-68163385D01*
X121189500Y-68163385D01*
X121189500Y-68336614D01*
X121216598Y-68507703D01*
X121270127Y-68672446D01*
X121348769Y-68826790D01*
X121450584Y-68966926D01*
X121573073Y-69089415D01*
X121657148Y-69150499D01*
X121713212Y-69191232D01*
X121867555Y-69269873D01*
X122032296Y-69323401D01*
X122032299Y-69323402D01*
X122203389Y-69350500D01*
X122203393Y-69350500D01*
X122376607Y-69350500D01*
X122376611Y-69350500D01*
X122547701Y-69323402D01*
X122712445Y-69269873D01*
X122866788Y-69191232D01*
X123006928Y-69089414D01*
X123129414Y-68966928D01*
X123231232Y-68826788D01*
X123309873Y-68672445D01*
X123363402Y-68507701D01*
X123390500Y-68336611D01*
X123390500Y-68163389D01*
X123390499Y-68163385D01*
X123729500Y-68163385D01*
X123729500Y-68336614D01*
X123756598Y-68507703D01*
X123810127Y-68672446D01*
X123888769Y-68826790D01*
X123990584Y-68966926D01*
X124113073Y-69089415D01*
X124197148Y-69150499D01*
X124253212Y-69191232D01*
X124407555Y-69269873D01*
X124572296Y-69323401D01*
X124572299Y-69323402D01*
X124743389Y-69350500D01*
X124743393Y-69350500D01*
X124916607Y-69350500D01*
X124916611Y-69350500D01*
X125087701Y-69323402D01*
X125252445Y-69269873D01*
X125406788Y-69191232D01*
X125546928Y-69089414D01*
X125669414Y-68966928D01*
X125771232Y-68826788D01*
X125849873Y-68672445D01*
X125903402Y-68507701D01*
X125930500Y-68336611D01*
X125930500Y-68163389D01*
X125930499Y-68163385D01*
X126269500Y-68163385D01*
X126269500Y-68336614D01*
X126296598Y-68507703D01*
X126350127Y-68672446D01*
X126428769Y-68826790D01*
X126530584Y-68966926D01*
X126653073Y-69089415D01*
X126737148Y-69150499D01*
X126793212Y-69191232D01*
X126947555Y-69269873D01*
X127112296Y-69323401D01*
X127112299Y-69323402D01*
X127283389Y-69350500D01*
X127283393Y-69350500D01*
X127456607Y-69350500D01*
X127456611Y-69350500D01*
X127627701Y-69323402D01*
X127792445Y-69269873D01*
X127946788Y-69191232D01*
X128086928Y-69089414D01*
X128209414Y-68966928D01*
X128311232Y-68826788D01*
X128389873Y-68672445D01*
X128443402Y-68507701D01*
X128470500Y-68336611D01*
X128470500Y-68163389D01*
X128470499Y-68163385D01*
X128809500Y-68163385D01*
X128809500Y-68336614D01*
X128836598Y-68507703D01*
X128890127Y-68672446D01*
X128968769Y-68826790D01*
X129070584Y-68966926D01*
X129193073Y-69089415D01*
X129277148Y-69150499D01*
X129333212Y-69191232D01*
X129487555Y-69269873D01*
X129652296Y-69323401D01*
X129652299Y-69323402D01*
X129823389Y-69350500D01*
X129823393Y-69350500D01*
X129996607Y-69350500D01*
X129996611Y-69350500D01*
X130167701Y-69323402D01*
X130332445Y-69269873D01*
X130486788Y-69191232D01*
X130626928Y-69089414D01*
X130749414Y-68966928D01*
X130851232Y-68826788D01*
X130929873Y-68672445D01*
X130983402Y-68507701D01*
X131010500Y-68336611D01*
X131010500Y-68163389D01*
X130983402Y-67992299D01*
X130929873Y-67827555D01*
X130851232Y-67673212D01*
X130755474Y-67541413D01*
X130749415Y-67533073D01*
X130626930Y-67410588D01*
X130626928Y-67410586D01*
X130528758Y-67339261D01*
X130510613Y-67326078D01*
X137679500Y-67326078D01*
X137679500Y-68273921D01*
X137708340Y-68418906D01*
X137708345Y-68418923D01*
X137753849Y-68528777D01*
X137764916Y-68555495D01*
X137784927Y-68585444D01*
X137847048Y-68678415D01*
X137951584Y-68782951D01*
X137951583Y-68782951D01*
X137981185Y-68802730D01*
X138074505Y-68865084D01*
X138138134Y-68891440D01*
X138211076Y-68921654D01*
X138211080Y-68921655D01*
X138211087Y-68921658D01*
X138356078Y-68950499D01*
X138356079Y-68950500D01*
X138356082Y-68950500D01*
X138503921Y-68950500D01*
X138503921Y-68950499D01*
X138648913Y-68921658D01*
X138785495Y-68865084D01*
X138908416Y-68782951D01*
X139012951Y-68678416D01*
X139095084Y-68555495D01*
X139147263Y-68429523D01*
X139151654Y-68418923D01*
X139151654Y-68418921D01*
X139151658Y-68418913D01*
X139180499Y-68273921D01*
X139180500Y-68273921D01*
X139180500Y-67326079D01*
X139180499Y-67326078D01*
X146319500Y-67326078D01*
X146319500Y-68273921D01*
X146348340Y-68418906D01*
X146348345Y-68418923D01*
X146393849Y-68528777D01*
X146404916Y-68555495D01*
X146424927Y-68585444D01*
X146487048Y-68678415D01*
X146591584Y-68782951D01*
X146591583Y-68782951D01*
X146621185Y-68802730D01*
X146714505Y-68865084D01*
X146778134Y-68891440D01*
X146851076Y-68921654D01*
X146851080Y-68921655D01*
X146851087Y-68921658D01*
X146996078Y-68950499D01*
X146996079Y-68950500D01*
X146996082Y-68950500D01*
X147143921Y-68950500D01*
X147143921Y-68950499D01*
X147288913Y-68921658D01*
X147425495Y-68865084D01*
X147548416Y-68782951D01*
X147634098Y-68697269D01*
X150849500Y-68697269D01*
X150849500Y-68802730D01*
X150876790Y-68904580D01*
X150876792Y-68904584D01*
X150876793Y-68904587D01*
X150929520Y-68995913D01*
X151004087Y-69070480D01*
X151004090Y-69070482D01*
X151004093Y-69070484D01*
X151006270Y-69071741D01*
X151007041Y-69072746D01*
X151007286Y-69072934D01*
X151007235Y-69072999D01*
X151034923Y-69109085D01*
X151028777Y-69155752D01*
X151006270Y-69178259D01*
X151004093Y-69179515D01*
X151004083Y-69179523D01*
X150929523Y-69254083D01*
X150929519Y-69254088D01*
X150876793Y-69345413D01*
X150876790Y-69345419D01*
X150849500Y-69447269D01*
X150849500Y-69552730D01*
X150876790Y-69654580D01*
X150876792Y-69654584D01*
X150876793Y-69654587D01*
X150929520Y-69745913D01*
X151004087Y-69820480D01*
X151004090Y-69820482D01*
X151004093Y-69820484D01*
X151006270Y-69821741D01*
X151007041Y-69822746D01*
X151007286Y-69822934D01*
X151007235Y-69822999D01*
X151034923Y-69859085D01*
X151028777Y-69905752D01*
X151006270Y-69928259D01*
X151004093Y-69929515D01*
X151004083Y-69929523D01*
X150929523Y-70004083D01*
X150929519Y-70004088D01*
X150876793Y-70095413D01*
X150876790Y-70095419D01*
X150849500Y-70197269D01*
X150849500Y-70302730D01*
X150876790Y-70404580D01*
X150876792Y-70404584D01*
X150876793Y-70404587D01*
X150929520Y-70495913D01*
X151004087Y-70570480D01*
X151004090Y-70570482D01*
X151004093Y-70570484D01*
X151006270Y-70571741D01*
X151007041Y-70572746D01*
X151007286Y-70572934D01*
X151007235Y-70572999D01*
X151034923Y-70609085D01*
X151028777Y-70655752D01*
X151006270Y-70678259D01*
X151004093Y-70679515D01*
X151004083Y-70679523D01*
X150929523Y-70754083D01*
X150929519Y-70754088D01*
X150876793Y-70845413D01*
X150876790Y-70845419D01*
X150849500Y-70947269D01*
X150849500Y-71052730D01*
X150876790Y-71154580D01*
X150876792Y-71154584D01*
X150876793Y-71154587D01*
X150929520Y-71245913D01*
X151004087Y-71320480D01*
X151004090Y-71320482D01*
X151004093Y-71320484D01*
X151006270Y-71321741D01*
X151007041Y-71322746D01*
X151007286Y-71322934D01*
X151007235Y-71322999D01*
X151034923Y-71359085D01*
X151028777Y-71405752D01*
X151006270Y-71428259D01*
X151004093Y-71429515D01*
X151004083Y-71429523D01*
X150929523Y-71504083D01*
X150929519Y-71504088D01*
X150876793Y-71595413D01*
X150876790Y-71595419D01*
X150849500Y-71697269D01*
X150849500Y-71802730D01*
X150876790Y-71904580D01*
X150876792Y-71904584D01*
X150876793Y-71904587D01*
X150929520Y-71995913D01*
X151004087Y-72070480D01*
X151095413Y-72123207D01*
X151095417Y-72123208D01*
X151095419Y-72123209D01*
X151197269Y-72150499D01*
X151197271Y-72150500D01*
X151197273Y-72150500D01*
X151302729Y-72150500D01*
X151302729Y-72150499D01*
X151404587Y-72123207D01*
X151495913Y-72070480D01*
X151570480Y-71995913D01*
X151623207Y-71904587D01*
X151650499Y-71802729D01*
X151650500Y-71802729D01*
X151650500Y-71697270D01*
X151650499Y-71697269D01*
X151623209Y-71595419D01*
X151623208Y-71595417D01*
X151623207Y-71595413D01*
X151570480Y-71504087D01*
X151495913Y-71429520D01*
X151493732Y-71428260D01*
X151492960Y-71427254D01*
X151492714Y-71427066D01*
X151492764Y-71427000D01*
X151465077Y-71390920D01*
X151471219Y-71344252D01*
X151493731Y-71321739D01*
X151495913Y-71320480D01*
X151570480Y-71245913D01*
X151623207Y-71154587D01*
X151650499Y-71052729D01*
X151650500Y-71052729D01*
X151650500Y-70947270D01*
X151650499Y-70947269D01*
X151623209Y-70845419D01*
X151623208Y-70845417D01*
X151623207Y-70845413D01*
X151570480Y-70754087D01*
X151495913Y-70679520D01*
X151492452Y-70677522D01*
X165449500Y-70677522D01*
X165449500Y-70822477D01*
X165487014Y-70962480D01*
X165487015Y-70962482D01*
X165487016Y-70962485D01*
X165559491Y-71088015D01*
X165661985Y-71190509D01*
X165787515Y-71262984D01*
X165787519Y-71262985D01*
X165927523Y-71300500D01*
X165927525Y-71300500D01*
X166072476Y-71300500D01*
X166134206Y-71283958D01*
X166212485Y-71262984D01*
X166338015Y-71190509D01*
X166440509Y-71088015D01*
X166512984Y-70962485D01*
X166531967Y-70891640D01*
X166550500Y-70822477D01*
X166550500Y-70677522D01*
X166512985Y-70537519D01*
X166512984Y-70537515D01*
X166440509Y-70411985D01*
X166338015Y-70309491D01*
X166212485Y-70237016D01*
X166212482Y-70237015D01*
X166212480Y-70237014D01*
X166072477Y-70199500D01*
X166072475Y-70199500D01*
X165927525Y-70199500D01*
X165927523Y-70199500D01*
X165787519Y-70237014D01*
X165787515Y-70237016D01*
X165661986Y-70309490D01*
X165661981Y-70309494D01*
X165559494Y-70411981D01*
X165559490Y-70411986D01*
X165487016Y-70537515D01*
X165487014Y-70537519D01*
X165449500Y-70677522D01*
X151492452Y-70677522D01*
X151487757Y-70674811D01*
X151482700Y-70670129D01*
X151475527Y-70654537D01*
X151465077Y-70640920D01*
X151466007Y-70633846D01*
X151463027Y-70627367D01*
X151468979Y-70611270D01*
X151471219Y-70594252D01*
X151477650Y-70587820D01*
X151479352Y-70583219D01*
X151484722Y-70580748D01*
X151493731Y-70571739D01*
X151495913Y-70570480D01*
X151570480Y-70495913D01*
X151623207Y-70404587D01*
X151650499Y-70302729D01*
X151650500Y-70302729D01*
X151650500Y-70197270D01*
X151650499Y-70197269D01*
X151623209Y-70095419D01*
X151623208Y-70095417D01*
X151623207Y-70095413D01*
X151570480Y-70004087D01*
X151495913Y-69929520D01*
X151493732Y-69928260D01*
X151492960Y-69927254D01*
X151492714Y-69927066D01*
X151492764Y-69927000D01*
X151465077Y-69890920D01*
X151471219Y-69844252D01*
X151493731Y-69821739D01*
X151495913Y-69820480D01*
X151570480Y-69745913D01*
X151623207Y-69654587D01*
X151624196Y-69650898D01*
X151650499Y-69552730D01*
X151650500Y-69552729D01*
X151650500Y-69447270D01*
X151650499Y-69447269D01*
X151623209Y-69345419D01*
X151623208Y-69345417D01*
X151623207Y-69345413D01*
X151570480Y-69254087D01*
X151495913Y-69179520D01*
X151493732Y-69178260D01*
X151492960Y-69177254D01*
X151492714Y-69177066D01*
X151492764Y-69177000D01*
X151465077Y-69140920D01*
X151471219Y-69094252D01*
X151493731Y-69071739D01*
X151495913Y-69070480D01*
X151570480Y-68995913D01*
X151571739Y-68993732D01*
X151572745Y-68992960D01*
X151572934Y-68992714D01*
X151572999Y-68992764D01*
X151609080Y-68965077D01*
X151655748Y-68971219D01*
X151678260Y-68993731D01*
X151679520Y-68995913D01*
X151754087Y-69070480D01*
X151845413Y-69123207D01*
X151845417Y-69123208D01*
X151845419Y-69123209D01*
X151947269Y-69150499D01*
X151947271Y-69150500D01*
X151947273Y-69150500D01*
X152052729Y-69150500D01*
X152052729Y-69150499D01*
X152141204Y-69126793D01*
X152154580Y-69123209D01*
X152154580Y-69123208D01*
X152154587Y-69123207D01*
X152245913Y-69070480D01*
X152320480Y-68995913D01*
X152321739Y-68993732D01*
X152322745Y-68992960D01*
X152322934Y-68992714D01*
X152322999Y-68992764D01*
X152359080Y-68965077D01*
X152405748Y-68971219D01*
X152428260Y-68993731D01*
X152429520Y-68995913D01*
X152504087Y-69070480D01*
X152595413Y-69123207D01*
X152595417Y-69123208D01*
X152595419Y-69123209D01*
X152697269Y-69150499D01*
X152697271Y-69150500D01*
X152697273Y-69150500D01*
X152802729Y-69150500D01*
X152802729Y-69150499D01*
X152891204Y-69126793D01*
X152904580Y-69123209D01*
X152904580Y-69123208D01*
X152904587Y-69123207D01*
X152995913Y-69070480D01*
X153070480Y-68995913D01*
X153071739Y-68993732D01*
X153072745Y-68992960D01*
X153072934Y-68992714D01*
X153072999Y-68992764D01*
X153109080Y-68965077D01*
X153155748Y-68971219D01*
X153178260Y-68993731D01*
X153179520Y-68995913D01*
X153254087Y-69070480D01*
X153345413Y-69123207D01*
X153345417Y-69123208D01*
X153345419Y-69123209D01*
X153447269Y-69150499D01*
X153447271Y-69150500D01*
X153447273Y-69150500D01*
X153552729Y-69150500D01*
X153552729Y-69150499D01*
X153641204Y-69126793D01*
X153654580Y-69123209D01*
X153654580Y-69123208D01*
X153654587Y-69123207D01*
X153745913Y-69070480D01*
X153820480Y-68995913D01*
X153821739Y-68993732D01*
X153822745Y-68992960D01*
X153822934Y-68992714D01*
X153822999Y-68992764D01*
X153859080Y-68965077D01*
X153905748Y-68971219D01*
X153928260Y-68993731D01*
X153929520Y-68995913D01*
X154004087Y-69070480D01*
X154095413Y-69123207D01*
X154095417Y-69123208D01*
X154095419Y-69123209D01*
X154197269Y-69150499D01*
X154197271Y-69150500D01*
X154197273Y-69150500D01*
X154302729Y-69150500D01*
X154302729Y-69150499D01*
X154391204Y-69126793D01*
X154404580Y-69123209D01*
X154404580Y-69123208D01*
X154404587Y-69123207D01*
X154417768Y-69115597D01*
X170699500Y-69115597D01*
X170699500Y-69384402D01*
X170734585Y-69650898D01*
X170804151Y-69910520D01*
X170804153Y-69910526D01*
X170907016Y-70158859D01*
X170952139Y-70237014D01*
X171041412Y-70391640D01*
X171205042Y-70604888D01*
X171395111Y-70794957D01*
X171521113Y-70891641D01*
X171608359Y-70958587D01*
X171841141Y-71092984D01*
X172089474Y-71195847D01*
X172221014Y-71231093D01*
X172349101Y-71265414D01*
X172349102Y-71265414D01*
X172349109Y-71265416D01*
X172615603Y-71300500D01*
X172615606Y-71300500D01*
X172884394Y-71300500D01*
X172884397Y-71300500D01*
X173150891Y-71265416D01*
X173410526Y-71195847D01*
X173658859Y-71092984D01*
X173891641Y-70958587D01*
X174104890Y-70794956D01*
X174294956Y-70604890D01*
X174458587Y-70391641D01*
X174592984Y-70158859D01*
X174695847Y-69910526D01*
X174765416Y-69650891D01*
X174800500Y-69384397D01*
X174800500Y-69115603D01*
X174765416Y-68849109D01*
X174695847Y-68589474D01*
X174592984Y-68341141D01*
X174458587Y-68108359D01*
X174407217Y-68041412D01*
X174294957Y-67895111D01*
X174104888Y-67705042D01*
X173891640Y-67541412D01*
X173806435Y-67492219D01*
X173658859Y-67407016D01*
X173410526Y-67304153D01*
X173410520Y-67304151D01*
X173150898Y-67234585D01*
X173150891Y-67234584D01*
X173117036Y-67230127D01*
X172884402Y-67199500D01*
X172884397Y-67199500D01*
X172615603Y-67199500D01*
X172615597Y-67199500D01*
X172349101Y-67234585D01*
X172089479Y-67304151D01*
X172089473Y-67304153D01*
X171917647Y-67375326D01*
X171841141Y-67407016D01*
X171834958Y-67410586D01*
X171608359Y-67541412D01*
X171395111Y-67705042D01*
X171205042Y-67895111D01*
X171041412Y-68108359D01*
X170925021Y-68309955D01*
X170909632Y-68336611D01*
X170907015Y-68341143D01*
X170804153Y-68589473D01*
X170804151Y-68589479D01*
X170734585Y-68849101D01*
X170699500Y-69115597D01*
X154417768Y-69115597D01*
X154495913Y-69070480D01*
X154570480Y-68995913D01*
X154623207Y-68904587D01*
X154650499Y-68802729D01*
X154650500Y-68802729D01*
X154650500Y-68697270D01*
X154650499Y-68697269D01*
X154623209Y-68595419D01*
X154623208Y-68595417D01*
X154623207Y-68595413D01*
X154570480Y-68504087D01*
X154495913Y-68429520D01*
X154404587Y-68376793D01*
X154404584Y-68376792D01*
X154404580Y-68376790D01*
X154302730Y-68349500D01*
X154302727Y-68349500D01*
X154197273Y-68349500D01*
X154197270Y-68349500D01*
X154095419Y-68376790D01*
X154095413Y-68376793D01*
X154004088Y-68429519D01*
X154004083Y-68429523D01*
X153929523Y-68504083D01*
X153929515Y-68504093D01*
X153928259Y-68506270D01*
X153927253Y-68507041D01*
X153927066Y-68507286D01*
X153927000Y-68507235D01*
X153890915Y-68534923D01*
X153844248Y-68528777D01*
X153821741Y-68506270D01*
X153820484Y-68504093D01*
X153820482Y-68504090D01*
X153820480Y-68504087D01*
X153745913Y-68429520D01*
X153654587Y-68376793D01*
X153654584Y-68376792D01*
X153654580Y-68376790D01*
X153552730Y-68349500D01*
X153552727Y-68349500D01*
X153447273Y-68349500D01*
X153447270Y-68349500D01*
X153345419Y-68376790D01*
X153345413Y-68376793D01*
X153254088Y-68429519D01*
X153254083Y-68429523D01*
X153179523Y-68504083D01*
X153179515Y-68504093D01*
X153178259Y-68506270D01*
X153177253Y-68507041D01*
X153177066Y-68507286D01*
X153177000Y-68507235D01*
X153140915Y-68534923D01*
X153094248Y-68528777D01*
X153071741Y-68506270D01*
X153070484Y-68504093D01*
X153070482Y-68504090D01*
X153070480Y-68504087D01*
X152995913Y-68429520D01*
X152904587Y-68376793D01*
X152904584Y-68376792D01*
X152904580Y-68376790D01*
X152802730Y-68349500D01*
X152802727Y-68349500D01*
X152697273Y-68349500D01*
X152697270Y-68349500D01*
X152595419Y-68376790D01*
X152595413Y-68376793D01*
X152504088Y-68429519D01*
X152504083Y-68429523D01*
X152429523Y-68504083D01*
X152429515Y-68504093D01*
X152428259Y-68506270D01*
X152427253Y-68507041D01*
X152427066Y-68507286D01*
X152427000Y-68507235D01*
X152390915Y-68534923D01*
X152344248Y-68528777D01*
X152321741Y-68506270D01*
X152320484Y-68504093D01*
X152320482Y-68504090D01*
X152320480Y-68504087D01*
X152245913Y-68429520D01*
X152154587Y-68376793D01*
X152154584Y-68376792D01*
X152154580Y-68376790D01*
X152052730Y-68349500D01*
X152052727Y-68349500D01*
X151947273Y-68349500D01*
X151947270Y-68349500D01*
X151845419Y-68376790D01*
X151845413Y-68376793D01*
X151754088Y-68429519D01*
X151754083Y-68429523D01*
X151679523Y-68504083D01*
X151679515Y-68504093D01*
X151678259Y-68506270D01*
X151677253Y-68507041D01*
X151677066Y-68507286D01*
X151677000Y-68507235D01*
X151640915Y-68534923D01*
X151594248Y-68528777D01*
X151571741Y-68506270D01*
X151570484Y-68504093D01*
X151570482Y-68504090D01*
X151570480Y-68504087D01*
X151495913Y-68429520D01*
X151404587Y-68376793D01*
X151404584Y-68376792D01*
X151404580Y-68376790D01*
X151302730Y-68349500D01*
X151302727Y-68349500D01*
X151197273Y-68349500D01*
X151197270Y-68349500D01*
X151095419Y-68376790D01*
X151095413Y-68376793D01*
X151004088Y-68429519D01*
X151004083Y-68429523D01*
X150929523Y-68504083D01*
X150929519Y-68504088D01*
X150876793Y-68595413D01*
X150876790Y-68595419D01*
X150849500Y-68697269D01*
X147634098Y-68697269D01*
X147652951Y-68678416D01*
X147735084Y-68555495D01*
X147787263Y-68429523D01*
X147791654Y-68418923D01*
X147791654Y-68418921D01*
X147791658Y-68418913D01*
X147820499Y-68273921D01*
X147820500Y-68273921D01*
X147820500Y-67326079D01*
X147820499Y-67326078D01*
X147816137Y-67304151D01*
X147791658Y-67181087D01*
X147791655Y-67181080D01*
X147791654Y-67181076D01*
X147735086Y-67044511D01*
X147735084Y-67044505D01*
X147652951Y-66921584D01*
X147548416Y-66817049D01*
X147548415Y-66817048D01*
X147548416Y-66817048D01*
X147425496Y-66734917D01*
X147425497Y-66734917D01*
X147425495Y-66734916D01*
X147425488Y-66734913D01*
X147288923Y-66678345D01*
X147288906Y-66678340D01*
X147143921Y-66649500D01*
X147143918Y-66649500D01*
X146996082Y-66649500D01*
X146996079Y-66649500D01*
X146851093Y-66678340D01*
X146851076Y-66678345D01*
X146714511Y-66734913D01*
X146714503Y-66734917D01*
X146591584Y-66817048D01*
X146487048Y-66921584D01*
X146404917Y-67044503D01*
X146404913Y-67044511D01*
X146348345Y-67181076D01*
X146348340Y-67181093D01*
X146319500Y-67326078D01*
X139180499Y-67326078D01*
X139176137Y-67304151D01*
X139151658Y-67181087D01*
X139151655Y-67181080D01*
X139151654Y-67181076D01*
X139095086Y-67044511D01*
X139095084Y-67044505D01*
X139012951Y-66921584D01*
X138908416Y-66817049D01*
X138908415Y-66817048D01*
X138908416Y-66817048D01*
X138785496Y-66734917D01*
X138785497Y-66734917D01*
X138785495Y-66734916D01*
X138785488Y-66734913D01*
X138648923Y-66678345D01*
X138648906Y-66678340D01*
X138503921Y-66649500D01*
X138503918Y-66649500D01*
X138356082Y-66649500D01*
X138356079Y-66649500D01*
X138211093Y-66678340D01*
X138211076Y-66678345D01*
X138074511Y-66734913D01*
X138074503Y-66734917D01*
X137951584Y-66817048D01*
X137847048Y-66921584D01*
X137764917Y-67044503D01*
X137764913Y-67044511D01*
X137708345Y-67181076D01*
X137708340Y-67181093D01*
X137679500Y-67326078D01*
X130510613Y-67326078D01*
X130486790Y-67308769D01*
X130332446Y-67230127D01*
X130167702Y-67176598D01*
X130167704Y-67176598D01*
X129996614Y-67149500D01*
X129996611Y-67149500D01*
X129823389Y-67149500D01*
X129823385Y-67149500D01*
X129652296Y-67176598D01*
X129487553Y-67230127D01*
X129333209Y-67308769D01*
X129193073Y-67410584D01*
X129193073Y-67410585D01*
X129193072Y-67410586D01*
X129070586Y-67533072D01*
X129070585Y-67533073D01*
X129070584Y-67533073D01*
X128968769Y-67673209D01*
X128890127Y-67827553D01*
X128836598Y-67992296D01*
X128809500Y-68163385D01*
X128470499Y-68163385D01*
X128443402Y-67992299D01*
X128389873Y-67827555D01*
X128311232Y-67673212D01*
X128215474Y-67541413D01*
X128209415Y-67533073D01*
X128086926Y-67410584D01*
X127946790Y-67308769D01*
X127792446Y-67230127D01*
X127627702Y-67176598D01*
X127627704Y-67176598D01*
X127456614Y-67149500D01*
X127456611Y-67149500D01*
X127283389Y-67149500D01*
X127283385Y-67149500D01*
X127112296Y-67176598D01*
X126947553Y-67230127D01*
X126793209Y-67308769D01*
X126653073Y-67410584D01*
X126653073Y-67410585D01*
X126653072Y-67410586D01*
X126530586Y-67533072D01*
X126530585Y-67533073D01*
X126530584Y-67533073D01*
X126428769Y-67673209D01*
X126350127Y-67827553D01*
X126296598Y-67992296D01*
X126269500Y-68163385D01*
X125930499Y-68163385D01*
X125903402Y-67992299D01*
X125849873Y-67827555D01*
X125771232Y-67673212D01*
X125675474Y-67541413D01*
X125669415Y-67533073D01*
X125546926Y-67410584D01*
X125406790Y-67308769D01*
X125252446Y-67230127D01*
X125087702Y-67176598D01*
X125087704Y-67176598D01*
X124916614Y-67149500D01*
X124916611Y-67149500D01*
X124743389Y-67149500D01*
X124743385Y-67149500D01*
X124572296Y-67176598D01*
X124407553Y-67230127D01*
X124253209Y-67308769D01*
X124113073Y-67410584D01*
X124113073Y-67410585D01*
X124113072Y-67410586D01*
X123990586Y-67533072D01*
X123990585Y-67533073D01*
X123990584Y-67533073D01*
X123888769Y-67673209D01*
X123810127Y-67827553D01*
X123756598Y-67992296D01*
X123729500Y-68163385D01*
X123390499Y-68163385D01*
X123363402Y-67992299D01*
X123309873Y-67827555D01*
X123231232Y-67673212D01*
X123135474Y-67541413D01*
X123129415Y-67533073D01*
X123006926Y-67410584D01*
X122866790Y-67308769D01*
X122712446Y-67230127D01*
X122547702Y-67176598D01*
X122547704Y-67176598D01*
X122376614Y-67149500D01*
X122376611Y-67149500D01*
X122203389Y-67149500D01*
X122203385Y-67149500D01*
X122032296Y-67176598D01*
X121867553Y-67230127D01*
X121713209Y-67308769D01*
X121573073Y-67410584D01*
X121573073Y-67410585D01*
X121573072Y-67410586D01*
X121450586Y-67533072D01*
X121450585Y-67533073D01*
X121450584Y-67533073D01*
X121348769Y-67673209D01*
X121270127Y-67827553D01*
X121216598Y-67992296D01*
X121189500Y-68163385D01*
X120850500Y-68163385D01*
X120850500Y-67375323D01*
X120850499Y-67375322D01*
X120835967Y-67302261D01*
X120822172Y-67281615D01*
X120780601Y-67219399D01*
X120708844Y-67171453D01*
X120697738Y-67164032D01*
X120624677Y-67149500D01*
X120624674Y-67149500D01*
X118875326Y-67149500D01*
X118875323Y-67149500D01*
X118802261Y-67164032D01*
X118719399Y-67219399D01*
X118664032Y-67302261D01*
X118649500Y-67375322D01*
X108932906Y-67375322D01*
X109062787Y-67171449D01*
X109065863Y-67167058D01*
X109301561Y-66859889D01*
X109304973Y-66855822D01*
X109566576Y-66570333D01*
X109570333Y-66566576D01*
X109855822Y-66304973D01*
X109859889Y-66301561D01*
X110167061Y-66065860D01*
X110171453Y-66062785D01*
X110498005Y-65854748D01*
X110502616Y-65852086D01*
X110846062Y-65673299D01*
X110850886Y-65671049D01*
X111208604Y-65522878D01*
X111213637Y-65521046D01*
X111582906Y-65404616D01*
X111588051Y-65403238D01*
X111966065Y-65319435D01*
X111971308Y-65318510D01*
X112355202Y-65267969D01*
X112360518Y-65267505D01*
X112714446Y-65252052D01*
X112748650Y-65250559D01*
X112751332Y-65250500D01*
X112815892Y-65250500D01*
X172684108Y-65250500D01*
X172748668Y-65250500D01*
X172751351Y-65250559D01*
G37*
%TD.AperFunction*%
%TD*%
M02*
