%TF.GenerationSoftware,KiCad,Pcbnew,9.0.4*%
%TF.CreationDate,2025-10-04T20:06:30+02:00*%
%TF.ProjectId,gpsdo,67707364-6f2e-46b6-9963-61645f706362,rev?*%
%TF.SameCoordinates,Original*%
%TF.FileFunction,Copper,L2,Inr*%
%TF.FilePolarity,Positive*%
%FSLAX46Y46*%
G04 Gerber Fmt 4.6, Leading zero omitted, Abs format (unit mm)*
G04 Created by KiCad (PCBNEW 9.0.4) date 2025-10-04 20:06:30*
%MOMM*%
%LPD*%
G01*
G04 APERTURE LIST*
%TA.AperFunction,ComponentPad*%
%ADD10C,3.600000*%
%TD*%
%TA.AperFunction,ComponentPad*%
%ADD11R,1.700000X1.700000*%
%TD*%
%TA.AperFunction,ComponentPad*%
%ADD12C,1.700000*%
%TD*%
%TA.AperFunction,HeatsinkPad*%
%ADD13O,1.000000X2.100000*%
%TD*%
%TA.AperFunction,HeatsinkPad*%
%ADD14O,1.000000X1.800000*%
%TD*%
%TA.AperFunction,ComponentPad*%
%ADD15C,0.600000*%
%TD*%
%TA.AperFunction,ComponentPad*%
%ADD16C,2.540000*%
%TD*%
%TA.AperFunction,ViaPad*%
%ADD17C,0.600000*%
%TD*%
G04 APERTURE END LIST*
D10*
%TO.N,N/C*%
%TO.C,REF\u002A\u002A*%
X112750000Y-69750000D03*
%TD*%
D11*
%TO.N,PPS_5V*%
%TO.C,J1*%
X111250000Y-98475000D03*
D12*
%TO.N,GND*%
X111250000Y-101015000D03*
%TD*%
D11*
%TO.N,OCXO_5MHZ*%
%TO.C,J7*%
X119750000Y-68250000D03*
D12*
%TO.N,OCXO_2.5MHZ*%
X122290000Y-68250000D03*
%TO.N,OCXO_1.25MHZ*%
X124830000Y-68250000D03*
%TO.N,OCXO_625KHZ*%
X127370000Y-68250000D03*
%TO.N,GND*%
X129910000Y-68250000D03*
%TD*%
D10*
%TO.N,N/C*%
%TO.C,REF\u002A\u002A*%
X172750000Y-129750000D03*
%TD*%
D13*
%TO.N,GND*%
%TO.C,J3*%
X147070000Y-72000000D03*
D14*
X147070000Y-67800000D03*
D13*
X138430000Y-72000000D03*
D14*
X138430000Y-67800000D03*
%TD*%
D10*
%TO.N,N/C*%
%TO.C,REF\u002A\u002A*%
X172750000Y-69250000D03*
%TD*%
%TO.N,N/C*%
%TO.C,REF\u002A\u002A*%
X112750000Y-129750000D03*
%TD*%
D15*
%TO.N,GNDA*%
%TO.C,NT1*%
X129500000Y-104750000D03*
%TO.N,GND*%
X129500000Y-103550000D03*
%TD*%
%TO.N,VDDA_3V3*%
%TO.C,NT2*%
X129250000Y-95250000D03*
%TO.N,VDD_3V3*%
X129250000Y-96450000D03*
%TD*%
D11*
%TO.N,VDD_3V3*%
%TO.C,J2*%
X111250000Y-89277500D03*
D12*
%TO.N,NRST*%
X113790000Y-89277500D03*
%TO.N,SWO*%
X111250000Y-91817500D03*
%TO.N,SWCLK*%
X113790000Y-91817500D03*
%TO.N,SWDIO*%
X111250000Y-94357500D03*
%TO.N,GND*%
X113790000Y-94357500D03*
%TD*%
D15*
%TO.N,GNDA*%
%TO.C,NT3*%
X170890000Y-79850000D03*
%TO.N,GND*%
X170890000Y-78650000D03*
%TD*%
D16*
%TO.N,OCXO_Out*%
%TO.C,OSC5A2B1*%
X145450000Y-102225000D03*
%TO.N,GNDA*%
X145450000Y-111750000D03*
%TO.N,Net-(OSC5A2B1-Vref)*%
X145450000Y-121275000D03*
%TO.N,unconnected-(OSC5A2B1-NC-Pad4)*%
X164500000Y-121275000D03*
%TO.N,VCC_5V*%
X164500000Y-102225000D03*
%TD*%
D17*
%TO.N,GND*%
X133200000Y-80400000D03*
%TO.N,VDD_3V3*%
X124200000Y-87675220D03*
X122400000Y-102800000D03*
%TO.N,GND*%
X120800000Y-100000000D03*
X116000000Y-100000000D03*
%TO.N,VCC_5V*%
X116000000Y-104200000D03*
%TO.N,GND*%
X166000000Y-70750000D03*
X166000000Y-72250000D03*
X166000000Y-74000000D03*
X166000000Y-75500000D03*
%TO.N,VDD_3V3*%
X145750000Y-80500000D03*
%TO.N,GND*%
X140500000Y-90750000D03*
%TO.N,VDD_3V3*%
X140500000Y-87000000D03*
%TO.N,GND*%
X140500000Y-88500000D03*
X127750000Y-97500000D03*
X120250000Y-96000000D03*
X124750000Y-90000000D03*
%TO.N,VDD_3V3*%
X129250000Y-77250000D03*
%TO.N,GND*%
X122500000Y-87675220D03*
%TO.N,VDD_3V3*%
X124000000Y-109000000D03*
X120500000Y-115000000D03*
%TO.N,GND*%
X119000000Y-113500000D03*
%TO.N,AD5541A_DIN*%
X119000000Y-112000000D03*
%TO.N,AD5541A_SCLK*%
X119000000Y-110500000D03*
%TO.N,GNDA*%
X113000000Y-123250000D03*
X113000000Y-121250000D03*
X128500000Y-125500000D03*
X129250000Y-116500000D03*
%TO.N,VCC_5V*%
X134000000Y-115000000D03*
%TO.N,GNDA*%
X132500000Y-117750000D03*
X132250000Y-105250000D03*
%TO.N,VDD_3V3*%
X136000000Y-110000000D03*
%TO.N,GNDA*%
X141000000Y-124750000D03*
X141000000Y-116500000D03*
X169000000Y-105250000D03*
X165000000Y-81250000D03*
%TO.N,GND*%
X142750000Y-81750000D03*
X150750000Y-81750000D03*
X150500000Y-79500000D03*
X148750000Y-79500000D03*
%TO.N,VCC_5V*%
X156000000Y-92750000D03*
X151000000Y-92750000D03*
%TO.N,GND*%
X152000000Y-68750000D03*
X151250000Y-71000000D03*
X152750000Y-68750000D03*
X151250000Y-68750000D03*
X149750000Y-90250000D03*
X153500000Y-68750000D03*
X118500000Y-78200000D03*
X154250000Y-68750000D03*
X160500000Y-82250000D03*
X160500000Y-84750000D03*
X155250000Y-77750000D03*
X151250000Y-71750000D03*
X130687500Y-87115000D03*
X151250000Y-70250000D03*
X151250000Y-69500000D03*
X127850000Y-92000000D03*
X125750000Y-84850000D03*
%TO.N,OCXO_5MHZ*%
X150905000Y-88655000D03*
%TO.N,OCXO_2.5MHZ*%
X150865000Y-87385000D03*
%TO.N,OCXO_1.25MHZ*%
X150865000Y-86115000D03*
%TO.N,OCXO_625KHZ*%
X150865000Y-84900000D03*
%TO.N,GNDA*%
X165250000Y-88000000D03*
X174600000Y-81200000D03*
X121500000Y-123250000D03*
X121500000Y-121750000D03*
X126375000Y-125512500D03*
X174600000Y-90200000D03*
%TD*%
%TA.AperFunction,Conductor*%
%TO.N,GND*%
G36*
X172751351Y-65250559D02*
G01*
X173139481Y-65267505D01*
X173144799Y-65267969D01*
X173528687Y-65318510D01*
X173533937Y-65319436D01*
X173911942Y-65403237D01*
X173917098Y-65404618D01*
X174229133Y-65503002D01*
X174286357Y-65521045D01*
X174291399Y-65522880D01*
X174649104Y-65671046D01*
X174653945Y-65673304D01*
X174997372Y-65852081D01*
X175002004Y-65854755D01*
X175165278Y-65958772D01*
X175328546Y-66062785D01*
X175332941Y-66065863D01*
X175458592Y-66162278D01*
X175640098Y-66301552D01*
X175644188Y-66304983D01*
X175929654Y-66566565D01*
X175933434Y-66570345D01*
X176195014Y-66855809D01*
X176198448Y-66859903D01*
X176294870Y-66985562D01*
X176434136Y-67167058D01*
X176437214Y-67171453D01*
X176645240Y-67497988D01*
X176647922Y-67502634D01*
X176826690Y-67846043D01*
X176828958Y-67850906D01*
X176977119Y-68208600D01*
X176978954Y-68213642D01*
X177095377Y-68582888D01*
X177096765Y-68588070D01*
X177180560Y-68966045D01*
X177181492Y-68971329D01*
X177232028Y-69355187D01*
X177232495Y-69360531D01*
X177249441Y-69748648D01*
X177249500Y-69751331D01*
X177249500Y-78933000D01*
X177231487Y-78976487D01*
X177188000Y-78994500D01*
X171705259Y-78994500D01*
X171661772Y-78976487D01*
X171643759Y-78933000D01*
X171648441Y-78909465D01*
X171659253Y-78883361D01*
X171659258Y-78883345D01*
X171689999Y-78728796D01*
X171690000Y-78728796D01*
X171690000Y-78571204D01*
X171689999Y-78571203D01*
X171659258Y-78416654D01*
X171659256Y-78416647D01*
X171605846Y-78287706D01*
X171110263Y-78783289D01*
X171066776Y-78801302D01*
X171023289Y-78783289D01*
X170996066Y-78756066D01*
X171017164Y-78734968D01*
X171040000Y-78679837D01*
X171040000Y-78620163D01*
X171017164Y-78565032D01*
X170974968Y-78522836D01*
X170919837Y-78500000D01*
X170860163Y-78500000D01*
X170805032Y-78522836D01*
X170762836Y-78565032D01*
X170740000Y-78620163D01*
X170740000Y-78679837D01*
X170762836Y-78734968D01*
X170783934Y-78756066D01*
X170756710Y-78783290D01*
X170713223Y-78801303D01*
X170669736Y-78783290D01*
X170174152Y-78287706D01*
X170120742Y-78416650D01*
X170120741Y-78416655D01*
X170090000Y-78571203D01*
X170090000Y-78728796D01*
X170120741Y-78883345D01*
X170120746Y-78883361D01*
X170131559Y-78909465D01*
X170131560Y-78956535D01*
X170098276Y-78989818D01*
X170074741Y-78994500D01*
X164061499Y-78994500D01*
X164053990Y-78995993D01*
X164039790Y-78998818D01*
X164027794Y-79000000D01*
X163750000Y-79000000D01*
X163750000Y-79277792D01*
X163748818Y-79289791D01*
X163744500Y-79311498D01*
X163744500Y-93688000D01*
X163726487Y-93731487D01*
X163683000Y-93749500D01*
X158315892Y-93749500D01*
X158250000Y-93749500D01*
X158124802Y-93749500D01*
X158124801Y-93749500D01*
X158122605Y-93749657D01*
X158122600Y-93749593D01*
X158116923Y-93750000D01*
X157018199Y-93750000D01*
X157009448Y-93749374D01*
X157000517Y-93748090D01*
X156975553Y-93744500D01*
X156975548Y-93744500D01*
X153274452Y-93744500D01*
X153268844Y-93744700D01*
X153256218Y-93745151D01*
X153238579Y-93746413D01*
X153234353Y-93747491D01*
X153232008Y-93748090D01*
X153216801Y-93750000D01*
X152133077Y-93750000D01*
X152127399Y-93749593D01*
X152127395Y-93749657D01*
X152125198Y-93749500D01*
X152065892Y-93749500D01*
X142065892Y-93749500D01*
X142000000Y-93749500D01*
X141782838Y-93749500D01*
X141782828Y-93749500D01*
X141779338Y-93749790D01*
X141774259Y-93750000D01*
X139779271Y-93750000D01*
X139770520Y-93749374D01*
X139761589Y-93748090D01*
X139736625Y-93744500D01*
X139736620Y-93744500D01*
X137124000Y-93744500D01*
X137117945Y-93745151D01*
X137076114Y-93749648D01*
X137069540Y-93750000D01*
X136750000Y-93750000D01*
X136750000Y-94081348D01*
X136749374Y-94090101D01*
X136744500Y-94123994D01*
X136744500Y-96736621D01*
X136749622Y-96782630D01*
X136750000Y-96789435D01*
X136750000Y-98774259D01*
X136749790Y-98779337D01*
X136749500Y-98782826D01*
X136749500Y-103938500D01*
X136731487Y-103981987D01*
X136688000Y-104000000D01*
X136668151Y-104000000D01*
X136659400Y-103999374D01*
X136653640Y-103998546D01*
X136625505Y-103994500D01*
X136625500Y-103994500D01*
X130344386Y-103994500D01*
X130312559Y-103996490D01*
X130312521Y-103996494D01*
X130292092Y-103999060D01*
X130288435Y-103999520D01*
X130280772Y-104000000D01*
X130271559Y-104000000D01*
X130228072Y-103981987D01*
X130210059Y-103938500D01*
X130214741Y-103914965D01*
X130269253Y-103783361D01*
X130269258Y-103783345D01*
X130299999Y-103628796D01*
X130300000Y-103628796D01*
X130300000Y-103471204D01*
X130299999Y-103471203D01*
X130269258Y-103316654D01*
X130269256Y-103316647D01*
X130215846Y-103187706D01*
X129720263Y-103683289D01*
X129676776Y-103701302D01*
X129633289Y-103683289D01*
X129606066Y-103656066D01*
X129627164Y-103634968D01*
X129650000Y-103579837D01*
X129650000Y-103520163D01*
X129627164Y-103465032D01*
X129584968Y-103422836D01*
X129529837Y-103400000D01*
X129470163Y-103400000D01*
X129415032Y-103422836D01*
X129372836Y-103465032D01*
X129350000Y-103520163D01*
X129350000Y-103579837D01*
X129372836Y-103634968D01*
X129393934Y-103656066D01*
X129366710Y-103683290D01*
X129323223Y-103701303D01*
X129279736Y-103683290D01*
X128784152Y-103187706D01*
X128730742Y-103316650D01*
X128730741Y-103316655D01*
X128700000Y-103471203D01*
X128700000Y-103628796D01*
X128730741Y-103783345D01*
X128730746Y-103783361D01*
X128785259Y-103914965D01*
X128785259Y-103927197D01*
X128789941Y-103938500D01*
X128785259Y-103949801D01*
X128785260Y-103962035D01*
X128776609Y-103970685D01*
X128771928Y-103981987D01*
X128760625Y-103986668D01*
X128751976Y-103995318D01*
X128728441Y-104000000D01*
X128698265Y-104000000D01*
X128689514Y-103999374D01*
X128683754Y-103998546D01*
X128655619Y-103994500D01*
X128655614Y-103994500D01*
X120124000Y-103994500D01*
X120092474Y-103997889D01*
X120076114Y-103999648D01*
X120069540Y-104000000D01*
X119750000Y-104000000D01*
X119750000Y-104331348D01*
X119749374Y-104340101D01*
X119744500Y-104373994D01*
X119744500Y-113933000D01*
X119726487Y-113976487D01*
X119683000Y-113994500D01*
X108374500Y-113994500D01*
X108342974Y-113997889D01*
X108326614Y-113999648D01*
X108320040Y-114000000D01*
X108312000Y-114000000D01*
X108268513Y-113981987D01*
X108250500Y-113938500D01*
X108250500Y-111927522D01*
X118449500Y-111927522D01*
X118449500Y-112072477D01*
X118487014Y-112212480D01*
X118487015Y-112212482D01*
X118487016Y-112212485D01*
X118559491Y-112338015D01*
X118661985Y-112440509D01*
X118787515Y-112512984D01*
X118787519Y-112512985D01*
X118927523Y-112550500D01*
X118927525Y-112550500D01*
X119072476Y-112550500D01*
X119134206Y-112533958D01*
X119212485Y-112512984D01*
X119338015Y-112440509D01*
X119440509Y-112338015D01*
X119512984Y-112212485D01*
X119527540Y-112158158D01*
X119550500Y-112072477D01*
X119550500Y-111927522D01*
X119512985Y-111787519D01*
X119512984Y-111787515D01*
X119440509Y-111661985D01*
X119338015Y-111559491D01*
X119212485Y-111487016D01*
X119212482Y-111487015D01*
X119212480Y-111487014D01*
X119072477Y-111449500D01*
X119072475Y-111449500D01*
X118927525Y-111449500D01*
X118927523Y-111449500D01*
X118787519Y-111487014D01*
X118787515Y-111487016D01*
X118661986Y-111559490D01*
X118661981Y-111559494D01*
X118559494Y-111661981D01*
X118559490Y-111661986D01*
X118487016Y-111787515D01*
X118487014Y-111787519D01*
X118449500Y-111927522D01*
X108250500Y-111927522D01*
X108250500Y-110427522D01*
X118449500Y-110427522D01*
X118449500Y-110572477D01*
X118487014Y-110712480D01*
X118487015Y-110712482D01*
X118487016Y-110712485D01*
X118559491Y-110838015D01*
X118661985Y-110940509D01*
X118787515Y-111012984D01*
X118787519Y-111012985D01*
X118927523Y-111050500D01*
X118927525Y-111050500D01*
X119072476Y-111050500D01*
X119134206Y-111033958D01*
X119212485Y-111012984D01*
X119338015Y-110940509D01*
X119440509Y-110838015D01*
X119512984Y-110712485D01*
X119527540Y-110658158D01*
X119550500Y-110572477D01*
X119550500Y-110427522D01*
X119512985Y-110287519D01*
X119512984Y-110287515D01*
X119440509Y-110161985D01*
X119338015Y-110059491D01*
X119212485Y-109987016D01*
X119212482Y-109987015D01*
X119212480Y-109987014D01*
X119072477Y-109949500D01*
X119072475Y-109949500D01*
X118927525Y-109949500D01*
X118927523Y-109949500D01*
X118787519Y-109987014D01*
X118787515Y-109987016D01*
X118661986Y-110059490D01*
X118661981Y-110059494D01*
X118559494Y-110161981D01*
X118559490Y-110161986D01*
X118487016Y-110287515D01*
X118487014Y-110287519D01*
X118449500Y-110427522D01*
X108250500Y-110427522D01*
X108250500Y-104127522D01*
X115449500Y-104127522D01*
X115449500Y-104272477D01*
X115487014Y-104412480D01*
X115487015Y-104412482D01*
X115487016Y-104412485D01*
X115559491Y-104538015D01*
X115661985Y-104640509D01*
X115787515Y-104712984D01*
X115787519Y-104712985D01*
X115927523Y-104750500D01*
X115927525Y-104750500D01*
X116072476Y-104750500D01*
X116134206Y-104733958D01*
X116212485Y-104712984D01*
X116338015Y-104640509D01*
X116440509Y-104538015D01*
X116512984Y-104412485D01*
X116528311Y-104355283D01*
X116550500Y-104272477D01*
X116550500Y-104127522D01*
X116512985Y-103987519D01*
X116512984Y-103987515D01*
X116440509Y-103861985D01*
X116338015Y-103759491D01*
X116212485Y-103687016D01*
X116212482Y-103687015D01*
X116212480Y-103687014D01*
X116072477Y-103649500D01*
X116072475Y-103649500D01*
X115927525Y-103649500D01*
X115927523Y-103649500D01*
X115787519Y-103687014D01*
X115787515Y-103687016D01*
X115661986Y-103759490D01*
X115661981Y-103759494D01*
X115559494Y-103861981D01*
X115559490Y-103861986D01*
X115487016Y-103987515D01*
X115487014Y-103987519D01*
X115449500Y-104127522D01*
X108250500Y-104127522D01*
X108250500Y-102727522D01*
X121849500Y-102727522D01*
X121849500Y-102872477D01*
X121887014Y-103012480D01*
X121887015Y-103012482D01*
X121887016Y-103012485D01*
X121959491Y-103138015D01*
X122061985Y-103240509D01*
X122187515Y-103312984D01*
X122201215Y-103316655D01*
X122327523Y-103350500D01*
X122327525Y-103350500D01*
X122472476Y-103350500D01*
X122534206Y-103333958D01*
X122612485Y-103312984D01*
X122738015Y-103240509D01*
X122840509Y-103138015D01*
X122912984Y-103012485D01*
X122927540Y-102958158D01*
X122950500Y-102872477D01*
X122950500Y-102834152D01*
X129137706Y-102834152D01*
X129499999Y-103196445D01*
X129862293Y-102834152D01*
X129733352Y-102780743D01*
X129733345Y-102780741D01*
X129578796Y-102750000D01*
X129421204Y-102750000D01*
X129266655Y-102780741D01*
X129266650Y-102780742D01*
X129137706Y-102834152D01*
X122950500Y-102834152D01*
X122950500Y-102727522D01*
X122912985Y-102587519D01*
X122912984Y-102587515D01*
X122840509Y-102461985D01*
X122738015Y-102359491D01*
X122612485Y-102287016D01*
X122612482Y-102287015D01*
X122612480Y-102287014D01*
X122472477Y-102249500D01*
X122472475Y-102249500D01*
X122327525Y-102249500D01*
X122327523Y-102249500D01*
X122187519Y-102287014D01*
X122187515Y-102287016D01*
X122061986Y-102359490D01*
X122061981Y-102359494D01*
X121959494Y-102461981D01*
X121959490Y-102461986D01*
X121887016Y-102587515D01*
X121887014Y-102587519D01*
X121849500Y-102727522D01*
X108250500Y-102727522D01*
X108250500Y-100908749D01*
X109900000Y-100908749D01*
X109900000Y-101121250D01*
X109933242Y-101331126D01*
X109998906Y-101533221D01*
X109998907Y-101533222D01*
X110095379Y-101722557D01*
X110134727Y-101776716D01*
X110767036Y-101144406D01*
X110784075Y-101207993D01*
X110849901Y-101322007D01*
X110942993Y-101415099D01*
X111057007Y-101480925D01*
X111120591Y-101497962D01*
X110488282Y-102130270D01*
X110542445Y-102169622D01*
X110731777Y-102266092D01*
X110731778Y-102266093D01*
X110933873Y-102331757D01*
X111143749Y-102364999D01*
X111143757Y-102365000D01*
X111356243Y-102365000D01*
X111356250Y-102364999D01*
X111566126Y-102331757D01*
X111768221Y-102266093D01*
X111768222Y-102266092D01*
X111957556Y-102169621D01*
X112011717Y-102130271D01*
X111379408Y-101497962D01*
X111442993Y-101480925D01*
X111557007Y-101415099D01*
X111650099Y-101322007D01*
X111715925Y-101207993D01*
X111732962Y-101144408D01*
X112365271Y-101776717D01*
X112404621Y-101722556D01*
X112501092Y-101533222D01*
X112501093Y-101533221D01*
X112566757Y-101331126D01*
X112599999Y-101121250D01*
X112600000Y-101121242D01*
X112600000Y-100908757D01*
X112599999Y-100908749D01*
X112566757Y-100698873D01*
X112501093Y-100496778D01*
X112501092Y-100496777D01*
X112404622Y-100307445D01*
X112365270Y-100253282D01*
X111732962Y-100885590D01*
X111715925Y-100822007D01*
X111650099Y-100707993D01*
X111557007Y-100614901D01*
X111442993Y-100549075D01*
X111379407Y-100532036D01*
X112011717Y-99899727D01*
X111957557Y-99860379D01*
X111768222Y-99763907D01*
X111768217Y-99763905D01*
X111730752Y-99751732D01*
X111730751Y-99751732D01*
X111566126Y-99698242D01*
X111562975Y-99697743D01*
X111562201Y-99697269D01*
X122599500Y-99697269D01*
X122599500Y-99802730D01*
X122626790Y-99904580D01*
X122626792Y-99904584D01*
X122626793Y-99904587D01*
X122679520Y-99995913D01*
X122754087Y-100070480D01*
X122845413Y-100123207D01*
X122845417Y-100123208D01*
X122845419Y-100123209D01*
X122947269Y-100150499D01*
X122947271Y-100150500D01*
X122947273Y-100150500D01*
X123052729Y-100150500D01*
X123052729Y-100150499D01*
X123154587Y-100123207D01*
X123245913Y-100070480D01*
X123320480Y-99995913D01*
X123373207Y-99904587D01*
X123400499Y-99802729D01*
X123400500Y-99802729D01*
X123400500Y-99697270D01*
X123400499Y-99697269D01*
X123373209Y-99595419D01*
X123373208Y-99595417D01*
X123373207Y-99595413D01*
X123320480Y-99504087D01*
X123245913Y-99429520D01*
X123154587Y-99376793D01*
X123154584Y-99376792D01*
X123154580Y-99376790D01*
X123052730Y-99349500D01*
X123052727Y-99349500D01*
X122947273Y-99349500D01*
X122947270Y-99349500D01*
X122845419Y-99376790D01*
X122845413Y-99376793D01*
X122754088Y-99429519D01*
X122754083Y-99429523D01*
X122679523Y-99504083D01*
X122679519Y-99504088D01*
X122626793Y-99595413D01*
X122626790Y-99595419D01*
X122599500Y-99697269D01*
X111562201Y-99697269D01*
X111522841Y-99673149D01*
X111511853Y-99627379D01*
X111536447Y-99587245D01*
X111572596Y-99575500D01*
X112124677Y-99575500D01*
X112124677Y-99575499D01*
X112153980Y-99569670D01*
X112197738Y-99560967D01*
X112197739Y-99560966D01*
X112197740Y-99560966D01*
X112280601Y-99505601D01*
X112335966Y-99422740D01*
X112335966Y-99422739D01*
X112335967Y-99422738D01*
X112350499Y-99349677D01*
X112350500Y-99349677D01*
X112350500Y-97600323D01*
X112350499Y-97600322D01*
X112335967Y-97527261D01*
X112318127Y-97500561D01*
X112280601Y-97444399D01*
X112222918Y-97405857D01*
X112197738Y-97389032D01*
X112124677Y-97374500D01*
X112124674Y-97374500D01*
X110375326Y-97374500D01*
X110375323Y-97374500D01*
X110302261Y-97389032D01*
X110219399Y-97444399D01*
X110164032Y-97527261D01*
X110149500Y-97600322D01*
X110149500Y-99349677D01*
X110164032Y-99422738D01*
X110168564Y-99429520D01*
X110219399Y-99505601D01*
X110281615Y-99547172D01*
X110302261Y-99560967D01*
X110360473Y-99572545D01*
X110375322Y-99575499D01*
X110375323Y-99575500D01*
X110927404Y-99575500D01*
X110970891Y-99593513D01*
X110988904Y-99637000D01*
X110970891Y-99680487D01*
X110937025Y-99697743D01*
X110933873Y-99698242D01*
X110731778Y-99763906D01*
X110731777Y-99763907D01*
X110542446Y-99860377D01*
X110488281Y-99899727D01*
X111120591Y-100532037D01*
X111057007Y-100549075D01*
X110942993Y-100614901D01*
X110849901Y-100707993D01*
X110784075Y-100822007D01*
X110767037Y-100885591D01*
X110134727Y-100253281D01*
X110095377Y-100307446D01*
X109998907Y-100496777D01*
X109998906Y-100496778D01*
X109933242Y-100698873D01*
X109900000Y-100908749D01*
X108250500Y-100908749D01*
X108250500Y-94270885D01*
X110149500Y-94270885D01*
X110149500Y-94444114D01*
X110176598Y-94615203D01*
X110230127Y-94779946D01*
X110308769Y-94934290D01*
X110410584Y-95074426D01*
X110533073Y-95196915D01*
X110673209Y-95298730D01*
X110673212Y-95298732D01*
X110827555Y-95377373D01*
X110992296Y-95430901D01*
X110992299Y-95430902D01*
X111163389Y-95458000D01*
X111163393Y-95458000D01*
X111336607Y-95458000D01*
X111336611Y-95458000D01*
X111507701Y-95430902D01*
X111672445Y-95377373D01*
X111826788Y-95298732D01*
X111966928Y-95196914D01*
X112089414Y-95074428D01*
X112191232Y-94934288D01*
X112269873Y-94779945D01*
X112323402Y-94615201D01*
X112332952Y-94554902D01*
X112357546Y-94514770D01*
X112403316Y-94503781D01*
X112443449Y-94528375D01*
X112454438Y-94554903D01*
X112473242Y-94673626D01*
X112538906Y-94875721D01*
X112538907Y-94875722D01*
X112635379Y-95065057D01*
X112674727Y-95119216D01*
X113307036Y-94486906D01*
X113324075Y-94550493D01*
X113389901Y-94664507D01*
X113482993Y-94757599D01*
X113597007Y-94823425D01*
X113660591Y-94840462D01*
X113028282Y-95472770D01*
X113082445Y-95512122D01*
X113271777Y-95608592D01*
X113271778Y-95608593D01*
X113473873Y-95674257D01*
X113683749Y-95707499D01*
X113683757Y-95707500D01*
X113896243Y-95707500D01*
X113896250Y-95707499D01*
X114106126Y-95674257D01*
X114308221Y-95608593D01*
X114308222Y-95608592D01*
X114497556Y-95512121D01*
X114551717Y-95472771D01*
X114256468Y-95177522D01*
X128699500Y-95177522D01*
X128699500Y-95322477D01*
X128737014Y-95462480D01*
X128737015Y-95462482D01*
X128737016Y-95462485D01*
X128809491Y-95588015D01*
X128911985Y-95690509D01*
X129037515Y-95762984D01*
X129037519Y-95762985D01*
X129140561Y-95790596D01*
X129177904Y-95819250D01*
X129184047Y-95865918D01*
X129155393Y-95903261D01*
X129140561Y-95909404D01*
X129037519Y-95937014D01*
X129037515Y-95937016D01*
X128911986Y-96009490D01*
X128911981Y-96009494D01*
X128809494Y-96111981D01*
X128809490Y-96111986D01*
X128737016Y-96237515D01*
X128737014Y-96237519D01*
X128699500Y-96377522D01*
X128699500Y-96522477D01*
X128737014Y-96662480D01*
X128737015Y-96662482D01*
X128737016Y-96662485D01*
X128809491Y-96788015D01*
X128911985Y-96890509D01*
X129037515Y-96962984D01*
X129037519Y-96962985D01*
X129177523Y-97000500D01*
X129177525Y-97000500D01*
X129322476Y-97000500D01*
X129384206Y-96983958D01*
X129462485Y-96962984D01*
X129588015Y-96890509D01*
X129690509Y-96788015D01*
X129762984Y-96662485D01*
X129782700Y-96588905D01*
X129800500Y-96522477D01*
X129800500Y-96377522D01*
X129762985Y-96237519D01*
X129762984Y-96237515D01*
X129690509Y-96111985D01*
X129588015Y-96009491D01*
X129462485Y-95937016D01*
X129462482Y-95937015D01*
X129462480Y-95937014D01*
X129359438Y-95909404D01*
X129322095Y-95880750D01*
X129315952Y-95834082D01*
X129344606Y-95796739D01*
X129359438Y-95790596D01*
X129409453Y-95777194D01*
X129462485Y-95762984D01*
X129588015Y-95690509D01*
X129690509Y-95588015D01*
X129762984Y-95462485D01*
X129785790Y-95377372D01*
X129800500Y-95322477D01*
X129800500Y-95177522D01*
X129762985Y-95037519D01*
X129762984Y-95037515D01*
X129690509Y-94911985D01*
X129588015Y-94809491D01*
X129462485Y-94737016D01*
X129462482Y-94737015D01*
X129462480Y-94737014D01*
X129322477Y-94699500D01*
X129322475Y-94699500D01*
X129177525Y-94699500D01*
X129177523Y-94699500D01*
X129037519Y-94737014D01*
X129037515Y-94737016D01*
X128911986Y-94809490D01*
X128911981Y-94809494D01*
X128809494Y-94911981D01*
X128809490Y-94911986D01*
X128737016Y-95037515D01*
X128737014Y-95037519D01*
X128699500Y-95177522D01*
X114256468Y-95177522D01*
X113919408Y-94840462D01*
X113982993Y-94823425D01*
X114097007Y-94757599D01*
X114190099Y-94664507D01*
X114255925Y-94550493D01*
X114272962Y-94486908D01*
X114905270Y-95119216D01*
X114944623Y-95065052D01*
X115041092Y-94875722D01*
X115041093Y-94875721D01*
X115106757Y-94673626D01*
X115139999Y-94463750D01*
X115140000Y-94463742D01*
X115140000Y-94251257D01*
X115139999Y-94251249D01*
X115106757Y-94041373D01*
X115041093Y-93839278D01*
X115041092Y-93839277D01*
X114944622Y-93649945D01*
X114911525Y-93604391D01*
X114911524Y-93604389D01*
X114905270Y-93595781D01*
X114272962Y-94228090D01*
X114255925Y-94164507D01*
X114190099Y-94050493D01*
X114097007Y-93957401D01*
X113982993Y-93891575D01*
X113919407Y-93874536D01*
X114221674Y-93572269D01*
X132499500Y-93572269D01*
X132499500Y-93677730D01*
X132526790Y-93779580D01*
X132526792Y-93779584D01*
X132526793Y-93779587D01*
X132579520Y-93870913D01*
X132654087Y-93945480D01*
X132745413Y-93998207D01*
X132745417Y-93998208D01*
X132745419Y-93998209D01*
X132847269Y-94025499D01*
X132847271Y-94025500D01*
X132847273Y-94025500D01*
X132952729Y-94025500D01*
X132952729Y-94025499D01*
X133054587Y-93998207D01*
X133145913Y-93945480D01*
X133220480Y-93870913D01*
X133273207Y-93779587D01*
X133276103Y-93768781D01*
X133300499Y-93677730D01*
X133300500Y-93677729D01*
X133300500Y-93572270D01*
X133300499Y-93572269D01*
X133273209Y-93470419D01*
X133273208Y-93470417D01*
X133273207Y-93470413D01*
X133220480Y-93379087D01*
X133145913Y-93304520D01*
X133054587Y-93251793D01*
X133054584Y-93251792D01*
X133054580Y-93251790D01*
X132952730Y-93224500D01*
X132952727Y-93224500D01*
X132847273Y-93224500D01*
X132847270Y-93224500D01*
X132745419Y-93251790D01*
X132745413Y-93251793D01*
X132654088Y-93304519D01*
X132654083Y-93304523D01*
X132579523Y-93379083D01*
X132579519Y-93379088D01*
X132526793Y-93470413D01*
X132526790Y-93470419D01*
X132499500Y-93572269D01*
X114221674Y-93572269D01*
X114551717Y-93242227D01*
X114497557Y-93202879D01*
X114308222Y-93106407D01*
X114308221Y-93106406D01*
X114106126Y-93040742D01*
X113987403Y-93021938D01*
X113947269Y-92997344D01*
X113936281Y-92951574D01*
X113960875Y-92911440D01*
X113987401Y-92900452D01*
X114047701Y-92890902D01*
X114212445Y-92837373D01*
X114366788Y-92758732D01*
X114478564Y-92677522D01*
X150449500Y-92677522D01*
X150449500Y-92822477D01*
X150487014Y-92962480D01*
X150487015Y-92962482D01*
X150487016Y-92962485D01*
X150559491Y-93088015D01*
X150661985Y-93190509D01*
X150787515Y-93262984D01*
X150787519Y-93262985D01*
X150927523Y-93300500D01*
X150927525Y-93300500D01*
X151072476Y-93300500D01*
X151134206Y-93283958D01*
X151212485Y-93262984D01*
X151338015Y-93190509D01*
X151440509Y-93088015D01*
X151512984Y-92962485D01*
X151546508Y-92837373D01*
X151550500Y-92822477D01*
X151550500Y-92677522D01*
X155449500Y-92677522D01*
X155449500Y-92822477D01*
X155487014Y-92962480D01*
X155487015Y-92962482D01*
X155487016Y-92962485D01*
X155559491Y-93088015D01*
X155661985Y-93190509D01*
X155787515Y-93262984D01*
X155787519Y-93262985D01*
X155927523Y-93300500D01*
X155927525Y-93300500D01*
X156072476Y-93300500D01*
X156134206Y-93283958D01*
X156212485Y-93262984D01*
X156338015Y-93190509D01*
X156440509Y-93088015D01*
X156512984Y-92962485D01*
X156546508Y-92837373D01*
X156550500Y-92822477D01*
X156550500Y-92677522D01*
X156512985Y-92537519D01*
X156512984Y-92537515D01*
X156440509Y-92411985D01*
X156338015Y-92309491D01*
X156212485Y-92237016D01*
X156212482Y-92237015D01*
X156212480Y-92237014D01*
X156072477Y-92199500D01*
X156072475Y-92199500D01*
X155927525Y-92199500D01*
X155927523Y-92199500D01*
X155787519Y-92237014D01*
X155787515Y-92237016D01*
X155661986Y-92309490D01*
X155661981Y-92309494D01*
X155559494Y-92411981D01*
X155559490Y-92411986D01*
X155487016Y-92537515D01*
X155487014Y-92537519D01*
X155449500Y-92677522D01*
X151550500Y-92677522D01*
X151512985Y-92537519D01*
X151512984Y-92537515D01*
X151440509Y-92411985D01*
X151338015Y-92309491D01*
X151212485Y-92237016D01*
X151212482Y-92237015D01*
X151212480Y-92237014D01*
X151072477Y-92199500D01*
X151072475Y-92199500D01*
X150927525Y-92199500D01*
X150927523Y-92199500D01*
X150787519Y-92237014D01*
X150787515Y-92237016D01*
X150661986Y-92309490D01*
X150661981Y-92309494D01*
X150559494Y-92411981D01*
X150559490Y-92411986D01*
X150487016Y-92537515D01*
X150487014Y-92537519D01*
X150449500Y-92677522D01*
X114478564Y-92677522D01*
X114506928Y-92656914D01*
X114629414Y-92534428D01*
X114731232Y-92394288D01*
X114809873Y-92239945D01*
X114863402Y-92075201D01*
X114883664Y-91947269D01*
X132599500Y-91947269D01*
X132599500Y-92052730D01*
X132626790Y-92154580D01*
X132626792Y-92154584D01*
X132626793Y-92154587D01*
X132679520Y-92245913D01*
X132754087Y-92320480D01*
X132845413Y-92373207D01*
X132845417Y-92373208D01*
X132845419Y-92373209D01*
X132947269Y-92400499D01*
X132947271Y-92400500D01*
X132947273Y-92400500D01*
X133052729Y-92400500D01*
X133052729Y-92400499D01*
X133154587Y-92373207D01*
X133245913Y-92320480D01*
X133320480Y-92245913D01*
X133373207Y-92154587D01*
X133400499Y-92052729D01*
X133400500Y-92052729D01*
X133400500Y-91947270D01*
X133400499Y-91947269D01*
X133373209Y-91845419D01*
X133373208Y-91845417D01*
X133373207Y-91845413D01*
X133320480Y-91754087D01*
X133245913Y-91679520D01*
X133154587Y-91626793D01*
X133154584Y-91626792D01*
X133154580Y-91626790D01*
X133052730Y-91599500D01*
X133052727Y-91599500D01*
X132947273Y-91599500D01*
X132947270Y-91599500D01*
X132845419Y-91626790D01*
X132845413Y-91626793D01*
X132754088Y-91679519D01*
X132754083Y-91679523D01*
X132679523Y-91754083D01*
X132679519Y-91754088D01*
X132626793Y-91845413D01*
X132626790Y-91845419D01*
X132599500Y-91947269D01*
X114883664Y-91947269D01*
X114890500Y-91904111D01*
X114890500Y-91730889D01*
X114863402Y-91559799D01*
X114809873Y-91395055D01*
X114731232Y-91240712D01*
X114629414Y-91100572D01*
X114506928Y-90978086D01*
X114506927Y-90978085D01*
X114506926Y-90978084D01*
X114366790Y-90876269D01*
X114212446Y-90797627D01*
X114047702Y-90744098D01*
X114047704Y-90744098D01*
X113876614Y-90717000D01*
X113876611Y-90717000D01*
X113703389Y-90717000D01*
X113703385Y-90717000D01*
X113532296Y-90744098D01*
X113367553Y-90797627D01*
X113213209Y-90876269D01*
X113073073Y-90978084D01*
X113073073Y-90978085D01*
X113073072Y-90978086D01*
X112950586Y-91100572D01*
X112950585Y-91100573D01*
X112950584Y-91100573D01*
X112848769Y-91240709D01*
X112770127Y-91395053D01*
X112716598Y-91559796D01*
X112689500Y-91730885D01*
X112689500Y-91904114D01*
X112716598Y-92075203D01*
X112770127Y-92239946D01*
X112848769Y-92394290D01*
X112950584Y-92534426D01*
X113073073Y-92656915D01*
X113213209Y-92758730D01*
X113213212Y-92758732D01*
X113367555Y-92837373D01*
X113532296Y-92890901D01*
X113532299Y-92890902D01*
X113592596Y-92900452D01*
X113632730Y-92925046D01*
X113643718Y-92970816D01*
X113619124Y-93010950D01*
X113592596Y-93021938D01*
X113473873Y-93040742D01*
X113271778Y-93106406D01*
X113271777Y-93106407D01*
X113082446Y-93202877D01*
X113028281Y-93242227D01*
X113660591Y-93874537D01*
X113597007Y-93891575D01*
X113482993Y-93957401D01*
X113389901Y-94050493D01*
X113324075Y-94164507D01*
X113307037Y-94228091D01*
X112674727Y-93595781D01*
X112635377Y-93649946D01*
X112538907Y-93839277D01*
X112538906Y-93839278D01*
X112473242Y-94041373D01*
X112454438Y-94160096D01*
X112429844Y-94200230D01*
X112384074Y-94211218D01*
X112343940Y-94186624D01*
X112332952Y-94160096D01*
X112327234Y-94123994D01*
X112323402Y-94099799D01*
X112269873Y-93935055D01*
X112191232Y-93780712D01*
X112186744Y-93774535D01*
X112089415Y-93640573D01*
X111966926Y-93518084D01*
X111826790Y-93416269D01*
X111672446Y-93337627D01*
X111507702Y-93284098D01*
X111507704Y-93284098D01*
X111336614Y-93257000D01*
X111336611Y-93257000D01*
X111163389Y-93257000D01*
X111163385Y-93257000D01*
X110992296Y-93284098D01*
X110827553Y-93337627D01*
X110673209Y-93416269D01*
X110533073Y-93518084D01*
X110533073Y-93518085D01*
X110533072Y-93518086D01*
X110410586Y-93640572D01*
X110410585Y-93640573D01*
X110410584Y-93640573D01*
X110308769Y-93780709D01*
X110230127Y-93935053D01*
X110176598Y-94099796D01*
X110149500Y-94270885D01*
X108250500Y-94270885D01*
X108250500Y-91730885D01*
X110149500Y-91730885D01*
X110149500Y-91904114D01*
X110176598Y-92075203D01*
X110230127Y-92239946D01*
X110308769Y-92394290D01*
X110410584Y-92534426D01*
X110533073Y-92656915D01*
X110673209Y-92758730D01*
X110673212Y-92758732D01*
X110827555Y-92837373D01*
X110992296Y-92890901D01*
X110992299Y-92890902D01*
X111163389Y-92918000D01*
X111163393Y-92918000D01*
X111336607Y-92918000D01*
X111336611Y-92918000D01*
X111507701Y-92890902D01*
X111672445Y-92837373D01*
X111826788Y-92758732D01*
X111966928Y-92656914D01*
X112089414Y-92534428D01*
X112191232Y-92394288D01*
X112269873Y-92239945D01*
X112323402Y-92075201D01*
X112350500Y-91904111D01*
X112350500Y-91730889D01*
X112323402Y-91559799D01*
X112269873Y-91395055D01*
X112191232Y-91240712D01*
X112089414Y-91100572D01*
X111966928Y-90978086D01*
X111966927Y-90978085D01*
X111966926Y-90978084D01*
X111826790Y-90876269D01*
X111672446Y-90797627D01*
X111507702Y-90744098D01*
X111507704Y-90744098D01*
X111336614Y-90717000D01*
X111336611Y-90717000D01*
X111163389Y-90717000D01*
X111163385Y-90717000D01*
X110992296Y-90744098D01*
X110827553Y-90797627D01*
X110673209Y-90876269D01*
X110533073Y-90978084D01*
X110533073Y-90978085D01*
X110533072Y-90978086D01*
X110410586Y-91100572D01*
X110410585Y-91100573D01*
X110410584Y-91100573D01*
X110308769Y-91240709D01*
X110230127Y-91395053D01*
X110176598Y-91559796D01*
X110149500Y-91730885D01*
X108250500Y-91730885D01*
X108250500Y-88402822D01*
X110149500Y-88402822D01*
X110149500Y-90152177D01*
X110164032Y-90225238D01*
X110191621Y-90266528D01*
X110219399Y-90308101D01*
X110281615Y-90349672D01*
X110302261Y-90363467D01*
X110360473Y-90375045D01*
X110375322Y-90377999D01*
X110375323Y-90378000D01*
X110375326Y-90378000D01*
X112124677Y-90378000D01*
X112124677Y-90377999D01*
X112153980Y-90372170D01*
X112197738Y-90363467D01*
X112197739Y-90363466D01*
X112197740Y-90363466D01*
X112280601Y-90308101D01*
X112335966Y-90225240D01*
X112335966Y-90225239D01*
X112335967Y-90225238D01*
X112350499Y-90152177D01*
X112350500Y-90152177D01*
X112350500Y-89190885D01*
X112689500Y-89190885D01*
X112689500Y-89364114D01*
X112716598Y-89535203D01*
X112770127Y-89699946D01*
X112848769Y-89854290D01*
X112950584Y-89994426D01*
X112950585Y-89994427D01*
X112950586Y-89994428D01*
X113073072Y-90116914D01*
X113213212Y-90218732D01*
X113367555Y-90297373D01*
X113532296Y-90350901D01*
X113532299Y-90350902D01*
X113703389Y-90378000D01*
X113703393Y-90378000D01*
X113876607Y-90378000D01*
X113876611Y-90378000D01*
X114047701Y-90350902D01*
X114212445Y-90297373D01*
X114366788Y-90218732D01*
X114506928Y-90116914D01*
X114629414Y-89994428D01*
X114731232Y-89854288D01*
X114809873Y-89699945D01*
X114863402Y-89535201D01*
X114890500Y-89364111D01*
X114890500Y-89190889D01*
X114863402Y-89019799D01*
X114809873Y-88855055D01*
X114731232Y-88700712D01*
X114645362Y-88582522D01*
X150354500Y-88582522D01*
X150354500Y-88727477D01*
X150392014Y-88867480D01*
X150392015Y-88867482D01*
X150392016Y-88867485D01*
X150464491Y-88993015D01*
X150566985Y-89095509D01*
X150692515Y-89167984D01*
X150692519Y-89167985D01*
X150832523Y-89205500D01*
X150832525Y-89205500D01*
X150977476Y-89205500D01*
X151039206Y-89188958D01*
X151117485Y-89167984D01*
X151243015Y-89095509D01*
X151345509Y-88993015D01*
X151417984Y-88867485D01*
X151432540Y-88813158D01*
X151455500Y-88727477D01*
X151455500Y-88582522D01*
X151417985Y-88442519D01*
X151417984Y-88442515D01*
X151345509Y-88316985D01*
X151243015Y-88214491D01*
X151117485Y-88142016D01*
X151117482Y-88142015D01*
X151117480Y-88142014D01*
X150977477Y-88104500D01*
X150977475Y-88104500D01*
X150832525Y-88104500D01*
X150832523Y-88104500D01*
X150692519Y-88142014D01*
X150692515Y-88142016D01*
X150566986Y-88214490D01*
X150566981Y-88214494D01*
X150464494Y-88316981D01*
X150464490Y-88316986D01*
X150392016Y-88442515D01*
X150392014Y-88442519D01*
X150354500Y-88582522D01*
X114645362Y-88582522D01*
X114629414Y-88560572D01*
X114506928Y-88438086D01*
X114506927Y-88438085D01*
X114506926Y-88438084D01*
X114366790Y-88336269D01*
X114212446Y-88257627D01*
X114047702Y-88204098D01*
X114047704Y-88204098D01*
X113876614Y-88177000D01*
X113876611Y-88177000D01*
X113703389Y-88177000D01*
X113703385Y-88177000D01*
X113532296Y-88204098D01*
X113367553Y-88257627D01*
X113213209Y-88336269D01*
X113073073Y-88438084D01*
X113073073Y-88438085D01*
X113073072Y-88438086D01*
X112950586Y-88560572D01*
X112950585Y-88560573D01*
X112950584Y-88560573D01*
X112848769Y-88700709D01*
X112770127Y-88855053D01*
X112716598Y-89019796D01*
X112689500Y-89190885D01*
X112350500Y-89190885D01*
X112350500Y-88402823D01*
X112350499Y-88402822D01*
X112335967Y-88329761D01*
X112322172Y-88309115D01*
X112280601Y-88246899D01*
X112216544Y-88204098D01*
X112197738Y-88191532D01*
X112124677Y-88177000D01*
X112124674Y-88177000D01*
X110375326Y-88177000D01*
X110375323Y-88177000D01*
X110302261Y-88191532D01*
X110219399Y-88246899D01*
X110164032Y-88329761D01*
X110149500Y-88402822D01*
X108250500Y-88402822D01*
X108250500Y-87602742D01*
X123649500Y-87602742D01*
X123649500Y-87747697D01*
X123687014Y-87887700D01*
X123687015Y-87887702D01*
X123687016Y-87887705D01*
X123759491Y-88013235D01*
X123861985Y-88115729D01*
X123987515Y-88188204D01*
X123987519Y-88188205D01*
X124127523Y-88225720D01*
X124127525Y-88225720D01*
X124272476Y-88225720D01*
X124353168Y-88204098D01*
X124412485Y-88188204D01*
X124538015Y-88115729D01*
X124640509Y-88013235D01*
X124712984Y-87887705D01*
X124729651Y-87825505D01*
X124750500Y-87747697D01*
X124750500Y-87602742D01*
X124712985Y-87462739D01*
X124712984Y-87462735D01*
X124640509Y-87337205D01*
X124538015Y-87234711D01*
X124412485Y-87162236D01*
X124412482Y-87162235D01*
X124412480Y-87162234D01*
X124272477Y-87124720D01*
X124272475Y-87124720D01*
X124127525Y-87124720D01*
X124127523Y-87124720D01*
X123987519Y-87162234D01*
X123987515Y-87162236D01*
X123861986Y-87234710D01*
X123861981Y-87234714D01*
X123759494Y-87337201D01*
X123759490Y-87337206D01*
X123687016Y-87462735D01*
X123687014Y-87462739D01*
X123649500Y-87602742D01*
X108250500Y-87602742D01*
X108250500Y-86927522D01*
X139949500Y-86927522D01*
X139949500Y-87072477D01*
X139987014Y-87212480D01*
X139987015Y-87212482D01*
X139987016Y-87212485D01*
X140059491Y-87338015D01*
X140161985Y-87440509D01*
X140287515Y-87512984D01*
X140287519Y-87512985D01*
X140427523Y-87550500D01*
X140427525Y-87550500D01*
X140572476Y-87550500D01*
X140634206Y-87533958D01*
X140712485Y-87512984D01*
X140838015Y-87440509D01*
X140940509Y-87338015D01*
X140955227Y-87312522D01*
X150314500Y-87312522D01*
X150314500Y-87457477D01*
X150352014Y-87597480D01*
X150352015Y-87597482D01*
X150352016Y-87597485D01*
X150424491Y-87723015D01*
X150526985Y-87825509D01*
X150652515Y-87897984D01*
X150652519Y-87897985D01*
X150792523Y-87935500D01*
X150792525Y-87935500D01*
X150937476Y-87935500D01*
X150999206Y-87918958D01*
X151077485Y-87897984D01*
X151203015Y-87825509D01*
X151305509Y-87723015D01*
X151377984Y-87597485D01*
X151400627Y-87512983D01*
X151415500Y-87457477D01*
X151415500Y-87312522D01*
X151377985Y-87172519D01*
X151377984Y-87172515D01*
X151305509Y-87046985D01*
X151203015Y-86944491D01*
X151077485Y-86872016D01*
X151077482Y-86872015D01*
X151077480Y-86872014D01*
X150937477Y-86834500D01*
X150937475Y-86834500D01*
X150792525Y-86834500D01*
X150792523Y-86834500D01*
X150652519Y-86872014D01*
X150652515Y-86872016D01*
X150526986Y-86944490D01*
X150526981Y-86944494D01*
X150424494Y-87046981D01*
X150424490Y-87046986D01*
X150352016Y-87172515D01*
X150352014Y-87172519D01*
X150314500Y-87312522D01*
X140955227Y-87312522D01*
X141012984Y-87212485D01*
X141036501Y-87124720D01*
X141050500Y-87072477D01*
X141050500Y-86927522D01*
X141012985Y-86787519D01*
X141012984Y-86787515D01*
X140940509Y-86661985D01*
X140838015Y-86559491D01*
X140712485Y-86487016D01*
X140712482Y-86487015D01*
X140712480Y-86487014D01*
X140572477Y-86449500D01*
X140572475Y-86449500D01*
X140427525Y-86449500D01*
X140427523Y-86449500D01*
X140287519Y-86487014D01*
X140287515Y-86487016D01*
X140161986Y-86559490D01*
X140161981Y-86559494D01*
X140059494Y-86661981D01*
X140059490Y-86661986D01*
X139987016Y-86787515D01*
X139987014Y-86787519D01*
X139949500Y-86927522D01*
X108250500Y-86927522D01*
X108250500Y-84447269D01*
X119099500Y-84447269D01*
X119099500Y-84552730D01*
X119126790Y-84654580D01*
X119126792Y-84654584D01*
X119126793Y-84654587D01*
X119179520Y-84745913D01*
X119254087Y-84820480D01*
X119345413Y-84873207D01*
X119345417Y-84873208D01*
X119345419Y-84873209D01*
X119447269Y-84900499D01*
X119447271Y-84900500D01*
X119447273Y-84900500D01*
X119552729Y-84900500D01*
X119552729Y-84900499D01*
X119654587Y-84873207D01*
X119733716Y-84827522D01*
X150314500Y-84827522D01*
X150314500Y-84972477D01*
X150352014Y-85112480D01*
X150352015Y-85112482D01*
X150352016Y-85112485D01*
X150424491Y-85238015D01*
X150526985Y-85340509D01*
X150652515Y-85412984D01*
X150652519Y-85412985D01*
X150783551Y-85448096D01*
X150820894Y-85476750D01*
X150827037Y-85523418D01*
X150798383Y-85560761D01*
X150783551Y-85566904D01*
X150652519Y-85602014D01*
X150652515Y-85602016D01*
X150526986Y-85674490D01*
X150526981Y-85674494D01*
X150424494Y-85776981D01*
X150424490Y-85776986D01*
X150352016Y-85902515D01*
X150352014Y-85902519D01*
X150314500Y-86042522D01*
X150314500Y-86187477D01*
X150352014Y-86327480D01*
X150352015Y-86327482D01*
X150352016Y-86327485D01*
X150424491Y-86453015D01*
X150526985Y-86555509D01*
X150652515Y-86627984D01*
X150652519Y-86627985D01*
X150792523Y-86665500D01*
X150792525Y-86665500D01*
X150937476Y-86665500D01*
X150999206Y-86648958D01*
X151077485Y-86627984D01*
X151203015Y-86555509D01*
X151305509Y-86453015D01*
X151377984Y-86327485D01*
X151392540Y-86273158D01*
X151415500Y-86187477D01*
X151415500Y-86042522D01*
X151377985Y-85902519D01*
X151377984Y-85902515D01*
X151305509Y-85776985D01*
X151203015Y-85674491D01*
X151077485Y-85602016D01*
X151077482Y-85602015D01*
X151077480Y-85602014D01*
X150946448Y-85566904D01*
X150909105Y-85538250D01*
X150902962Y-85491582D01*
X150931616Y-85454239D01*
X150946448Y-85448096D01*
X151011588Y-85430641D01*
X151077485Y-85412984D01*
X151203015Y-85340509D01*
X151305509Y-85238015D01*
X151377984Y-85112485D01*
X151392540Y-85058158D01*
X151415500Y-84972477D01*
X151415500Y-84827522D01*
X151377985Y-84687519D01*
X151377984Y-84687515D01*
X151305509Y-84561985D01*
X151203015Y-84459491D01*
X151077485Y-84387016D01*
X151077482Y-84387015D01*
X151077480Y-84387014D01*
X150937477Y-84349500D01*
X150937475Y-84349500D01*
X150792525Y-84349500D01*
X150792523Y-84349500D01*
X150652519Y-84387014D01*
X150652515Y-84387016D01*
X150526986Y-84459490D01*
X150526981Y-84459494D01*
X150424494Y-84561981D01*
X150424490Y-84561986D01*
X150352016Y-84687515D01*
X150352014Y-84687519D01*
X150314500Y-84827522D01*
X119733716Y-84827522D01*
X119745913Y-84820480D01*
X119820480Y-84745913D01*
X119873207Y-84654587D01*
X119900499Y-84552729D01*
X119900500Y-84552729D01*
X119900500Y-84447270D01*
X119900499Y-84447269D01*
X119873209Y-84345419D01*
X119873208Y-84345417D01*
X119873207Y-84345413D01*
X119820480Y-84254087D01*
X119745913Y-84179520D01*
X119654587Y-84126793D01*
X119654584Y-84126792D01*
X119654580Y-84126790D01*
X119552730Y-84099500D01*
X119552727Y-84099500D01*
X119447273Y-84099500D01*
X119447270Y-84099500D01*
X119345419Y-84126790D01*
X119345413Y-84126793D01*
X119254088Y-84179519D01*
X119254083Y-84179523D01*
X119179523Y-84254083D01*
X119179519Y-84254088D01*
X119126793Y-84345413D01*
X119126790Y-84345419D01*
X119099500Y-84447269D01*
X108250500Y-84447269D01*
X108250500Y-82447269D01*
X125349500Y-82447269D01*
X125349500Y-82552730D01*
X125376790Y-82654580D01*
X125376792Y-82654584D01*
X125376793Y-82654587D01*
X125429520Y-82745913D01*
X125504087Y-82820480D01*
X125595413Y-82873207D01*
X125595417Y-82873208D01*
X125595419Y-82873209D01*
X125697269Y-82900499D01*
X125697271Y-82900500D01*
X125697273Y-82900500D01*
X125802729Y-82900500D01*
X125802729Y-82900499D01*
X125904587Y-82873207D01*
X125995913Y-82820480D01*
X126070480Y-82745913D01*
X126123207Y-82654587D01*
X126150499Y-82552729D01*
X126150500Y-82552729D01*
X126150500Y-82447270D01*
X126150499Y-82447269D01*
X126123209Y-82345419D01*
X126123208Y-82345417D01*
X126123207Y-82345413D01*
X126070480Y-82254087D01*
X125995913Y-82179520D01*
X125904587Y-82126793D01*
X125904584Y-82126792D01*
X125904580Y-82126790D01*
X125802730Y-82099500D01*
X125802727Y-82099500D01*
X125697273Y-82099500D01*
X125697270Y-82099500D01*
X125595419Y-82126790D01*
X125595413Y-82126793D01*
X125504088Y-82179519D01*
X125504083Y-82179523D01*
X125429523Y-82254083D01*
X125429519Y-82254088D01*
X125376793Y-82345413D01*
X125376790Y-82345419D01*
X125349500Y-82447269D01*
X108250500Y-82447269D01*
X108250500Y-81447269D01*
X132849500Y-81447269D01*
X132849500Y-81552730D01*
X132876790Y-81654580D01*
X132876792Y-81654584D01*
X132876793Y-81654587D01*
X132929520Y-81745913D01*
X133004087Y-81820480D01*
X133095413Y-81873207D01*
X133095417Y-81873208D01*
X133095419Y-81873209D01*
X133197269Y-81900499D01*
X133197271Y-81900500D01*
X133197273Y-81900500D01*
X133302729Y-81900500D01*
X133302729Y-81900499D01*
X133404587Y-81873207D01*
X133495913Y-81820480D01*
X133570480Y-81745913D01*
X133623207Y-81654587D01*
X133650499Y-81552729D01*
X133650500Y-81552729D01*
X133650500Y-81447270D01*
X133650499Y-81447269D01*
X133623209Y-81345419D01*
X133623208Y-81345417D01*
X133623207Y-81345413D01*
X133570480Y-81254087D01*
X133495913Y-81179520D01*
X133404587Y-81126793D01*
X133404584Y-81126792D01*
X133404580Y-81126790D01*
X133302730Y-81099500D01*
X133302727Y-81099500D01*
X133197273Y-81099500D01*
X133197270Y-81099500D01*
X133095419Y-81126790D01*
X133095413Y-81126793D01*
X133004088Y-81179519D01*
X133004083Y-81179523D01*
X132929523Y-81254083D01*
X132929519Y-81254088D01*
X132876793Y-81345413D01*
X132876790Y-81345419D01*
X132849500Y-81447269D01*
X108250500Y-81447269D01*
X108250500Y-80947269D01*
X125349500Y-80947269D01*
X125349500Y-81052730D01*
X125376790Y-81154580D01*
X125376792Y-81154584D01*
X125376793Y-81154587D01*
X125429520Y-81245913D01*
X125504087Y-81320480D01*
X125595413Y-81373207D01*
X125595417Y-81373208D01*
X125595419Y-81373209D01*
X125697269Y-81400499D01*
X125697271Y-81400500D01*
X125697273Y-81400500D01*
X125802728Y-81400500D01*
X125864912Y-81383838D01*
X125864912Y-81383837D01*
X125904587Y-81373207D01*
X125995913Y-81320480D01*
X126070480Y-81245913D01*
X126123207Y-81154587D01*
X126150499Y-81052729D01*
X126150500Y-81052729D01*
X126150500Y-80947270D01*
X126150499Y-80947269D01*
X126123209Y-80845419D01*
X126123208Y-80845417D01*
X126123207Y-80845413D01*
X126070480Y-80754087D01*
X125995913Y-80679520D01*
X125904587Y-80626793D01*
X125904584Y-80626792D01*
X125904580Y-80626790D01*
X125802730Y-80599500D01*
X125802727Y-80599500D01*
X125697273Y-80599500D01*
X125697270Y-80599500D01*
X125595419Y-80626790D01*
X125595413Y-80626793D01*
X125504088Y-80679519D01*
X125504083Y-80679523D01*
X125429523Y-80754083D01*
X125429519Y-80754088D01*
X125376793Y-80845413D01*
X125376790Y-80845419D01*
X125349500Y-80947269D01*
X108250500Y-80947269D01*
X108250500Y-80427522D01*
X145199500Y-80427522D01*
X145199500Y-80572477D01*
X145237014Y-80712480D01*
X145237015Y-80712482D01*
X145237016Y-80712485D01*
X145309491Y-80838015D01*
X145411985Y-80940509D01*
X145537515Y-81012984D01*
X145537519Y-81012985D01*
X145677523Y-81050500D01*
X145677525Y-81050500D01*
X145822476Y-81050500D01*
X145884206Y-81033958D01*
X145962485Y-81012984D01*
X146088015Y-80940509D01*
X146190509Y-80838015D01*
X146262984Y-80712485D01*
X146277540Y-80658158D01*
X146300500Y-80572477D01*
X146300500Y-80427522D01*
X146262985Y-80287519D01*
X146262984Y-80287515D01*
X146190509Y-80161985D01*
X146088015Y-80059491D01*
X145962485Y-79987016D01*
X145962482Y-79987015D01*
X145962480Y-79987014D01*
X145822477Y-79949500D01*
X145822475Y-79949500D01*
X145677525Y-79949500D01*
X145677523Y-79949500D01*
X145537519Y-79987014D01*
X145537515Y-79987016D01*
X145411986Y-80059490D01*
X145411981Y-80059494D01*
X145309494Y-80161981D01*
X145309490Y-80161986D01*
X145237016Y-80287515D01*
X145237014Y-80287519D01*
X145199500Y-80427522D01*
X108250500Y-80427522D01*
X108250500Y-79197269D01*
X153849500Y-79197269D01*
X153849500Y-79302730D01*
X153876790Y-79404580D01*
X153876792Y-79404584D01*
X153876793Y-79404587D01*
X153929520Y-79495913D01*
X154004087Y-79570480D01*
X154095413Y-79623207D01*
X154095417Y-79623208D01*
X154095419Y-79623209D01*
X154197269Y-79650499D01*
X154197271Y-79650500D01*
X154197273Y-79650500D01*
X154302729Y-79650500D01*
X154302729Y-79650499D01*
X154404587Y-79623207D01*
X154495913Y-79570480D01*
X154570480Y-79495913D01*
X154623207Y-79404587D01*
X154650499Y-79302729D01*
X154650500Y-79302729D01*
X154650500Y-79197270D01*
X154650499Y-79197269D01*
X154623209Y-79095419D01*
X154623208Y-79095417D01*
X154623207Y-79095413D01*
X154570480Y-79004087D01*
X154495913Y-78929520D01*
X154404587Y-78876793D01*
X154404584Y-78876792D01*
X154404580Y-78876790D01*
X154302730Y-78849500D01*
X154302727Y-78849500D01*
X154197273Y-78849500D01*
X154197270Y-78849500D01*
X154095419Y-78876790D01*
X154095413Y-78876793D01*
X154004088Y-78929519D01*
X154004083Y-78929523D01*
X153929523Y-79004083D01*
X153929519Y-79004088D01*
X153876793Y-79095413D01*
X153876790Y-79095419D01*
X153849500Y-79197269D01*
X108250500Y-79197269D01*
X108250500Y-77177522D01*
X128699500Y-77177522D01*
X128699500Y-77322477D01*
X128737014Y-77462480D01*
X128737015Y-77462482D01*
X128737016Y-77462485D01*
X128809491Y-77588015D01*
X128911985Y-77690509D01*
X129037515Y-77762984D01*
X129037519Y-77762985D01*
X129177523Y-77800500D01*
X129177525Y-77800500D01*
X129322476Y-77800500D01*
X129384206Y-77783958D01*
X129462485Y-77762984D01*
X129576306Y-77697269D01*
X141599500Y-77697269D01*
X141599500Y-77802730D01*
X141626790Y-77904580D01*
X141626792Y-77904584D01*
X141626793Y-77904587D01*
X141679520Y-77995913D01*
X141754087Y-78070480D01*
X141845413Y-78123207D01*
X141845417Y-78123208D01*
X141845419Y-78123209D01*
X141947269Y-78150499D01*
X141947271Y-78150500D01*
X141947273Y-78150500D01*
X142052729Y-78150500D01*
X142052729Y-78150499D01*
X142154587Y-78123207D01*
X142245913Y-78070480D01*
X142320480Y-77995913D01*
X142373207Y-77904587D01*
X142400499Y-77802729D01*
X142400500Y-77802729D01*
X142400500Y-77697270D01*
X142400499Y-77697269D01*
X143099500Y-77697269D01*
X143099500Y-77802730D01*
X143126790Y-77904580D01*
X143126792Y-77904584D01*
X143126793Y-77904587D01*
X143179520Y-77995913D01*
X143254087Y-78070480D01*
X143345413Y-78123207D01*
X143345417Y-78123208D01*
X143345419Y-78123209D01*
X143447269Y-78150499D01*
X143447271Y-78150500D01*
X143447273Y-78150500D01*
X143552729Y-78150500D01*
X143552729Y-78150499D01*
X143654587Y-78123207D01*
X143745913Y-78070480D01*
X143820480Y-77995913D01*
X143873207Y-77904587D01*
X143900499Y-77802729D01*
X143900500Y-77802729D01*
X143900500Y-77697270D01*
X143900499Y-77697269D01*
X158599500Y-77697269D01*
X158599500Y-77802730D01*
X158626790Y-77904580D01*
X158626792Y-77904584D01*
X158626793Y-77904587D01*
X158679520Y-77995913D01*
X158754087Y-78070480D01*
X158845413Y-78123207D01*
X158845417Y-78123208D01*
X158845419Y-78123209D01*
X158947269Y-78150499D01*
X158947271Y-78150500D01*
X158947273Y-78150500D01*
X159052729Y-78150500D01*
X159052729Y-78150499D01*
X159154587Y-78123207D01*
X159245913Y-78070480D01*
X159320480Y-77995913D01*
X159321739Y-77993732D01*
X159322745Y-77992960D01*
X159322934Y-77992714D01*
X159322999Y-77992764D01*
X159359080Y-77965077D01*
X159405748Y-77971219D01*
X159428260Y-77993731D01*
X159429520Y-77995913D01*
X159504087Y-78070480D01*
X159595413Y-78123207D01*
X159595417Y-78123208D01*
X159595419Y-78123209D01*
X159697269Y-78150499D01*
X159697271Y-78150500D01*
X159697273Y-78150500D01*
X159802729Y-78150500D01*
X159802729Y-78150499D01*
X159904587Y-78123207D01*
X159995913Y-78070480D01*
X160070480Y-77995913D01*
X160071739Y-77993732D01*
X160072745Y-77992960D01*
X160072934Y-77992714D01*
X160072999Y-77992764D01*
X160109080Y-77965077D01*
X160155748Y-77971219D01*
X160178260Y-77993731D01*
X160179520Y-77995913D01*
X160254087Y-78070480D01*
X160345413Y-78123207D01*
X160345417Y-78123208D01*
X160345419Y-78123209D01*
X160447269Y-78150499D01*
X160447271Y-78150500D01*
X160447273Y-78150500D01*
X160552729Y-78150500D01*
X160552729Y-78150499D01*
X160654587Y-78123207D01*
X160745913Y-78070480D01*
X160820480Y-77995913D01*
X160821739Y-77993732D01*
X160822745Y-77992960D01*
X160822934Y-77992714D01*
X160822999Y-77992764D01*
X160859080Y-77965077D01*
X160905748Y-77971219D01*
X160928260Y-77993731D01*
X160929520Y-77995913D01*
X161004087Y-78070480D01*
X161095413Y-78123207D01*
X161095417Y-78123208D01*
X161095419Y-78123209D01*
X161197269Y-78150499D01*
X161197271Y-78150500D01*
X161197273Y-78150500D01*
X161302729Y-78150500D01*
X161302729Y-78150499D01*
X161404587Y-78123207D01*
X161495913Y-78070480D01*
X161570480Y-77995913D01*
X161571739Y-77993732D01*
X161572745Y-77992960D01*
X161572934Y-77992714D01*
X161572999Y-77992764D01*
X161609080Y-77965077D01*
X161655748Y-77971219D01*
X161678260Y-77993731D01*
X161679520Y-77995913D01*
X161754087Y-78070480D01*
X161845413Y-78123207D01*
X161845417Y-78123208D01*
X161845419Y-78123209D01*
X161947269Y-78150499D01*
X161947271Y-78150500D01*
X161947273Y-78150500D01*
X162052729Y-78150500D01*
X162052729Y-78150499D01*
X162154587Y-78123207D01*
X162245913Y-78070480D01*
X162320480Y-77995913D01*
X162321739Y-77993732D01*
X162322745Y-77992960D01*
X162322934Y-77992714D01*
X162322999Y-77992764D01*
X162359080Y-77965077D01*
X162405748Y-77971219D01*
X162428260Y-77993731D01*
X162429520Y-77995913D01*
X162504087Y-78070480D01*
X162595413Y-78123207D01*
X162595417Y-78123208D01*
X162595419Y-78123209D01*
X162697269Y-78150499D01*
X162697271Y-78150500D01*
X162697273Y-78150500D01*
X162802729Y-78150500D01*
X162802729Y-78150499D01*
X162904587Y-78123207D01*
X162995913Y-78070480D01*
X163070480Y-77995913D01*
X163071739Y-77993732D01*
X163072745Y-77992960D01*
X163072934Y-77992714D01*
X163072999Y-77992764D01*
X163109080Y-77965077D01*
X163155748Y-77971219D01*
X163178260Y-77993731D01*
X163179520Y-77995913D01*
X163254087Y-78070480D01*
X163345413Y-78123207D01*
X163345417Y-78123208D01*
X163345419Y-78123209D01*
X163447269Y-78150499D01*
X163447271Y-78150500D01*
X163447273Y-78150500D01*
X163552729Y-78150500D01*
X163552729Y-78150499D01*
X163654587Y-78123207D01*
X163745913Y-78070480D01*
X163820480Y-77995913D01*
X163856138Y-77934152D01*
X170527706Y-77934152D01*
X170889999Y-78296445D01*
X171252293Y-77934152D01*
X171123352Y-77880743D01*
X171123345Y-77880741D01*
X170968796Y-77850000D01*
X170811204Y-77850000D01*
X170656655Y-77880741D01*
X170656650Y-77880742D01*
X170527706Y-77934152D01*
X163856138Y-77934152D01*
X163873207Y-77904587D01*
X163900499Y-77802729D01*
X163900500Y-77802729D01*
X163900500Y-77697270D01*
X163900499Y-77697269D01*
X163873209Y-77595419D01*
X163873208Y-77595417D01*
X163873207Y-77595413D01*
X163820480Y-77504087D01*
X163745913Y-77429520D01*
X163743732Y-77428260D01*
X163742960Y-77427254D01*
X163742714Y-77427066D01*
X163742764Y-77427000D01*
X163715077Y-77390920D01*
X163721219Y-77344252D01*
X163743731Y-77321739D01*
X163745913Y-77320480D01*
X163820480Y-77245913D01*
X163873207Y-77154587D01*
X163900499Y-77052729D01*
X163900500Y-77052729D01*
X163900500Y-76947270D01*
X163900499Y-76947269D01*
X163873209Y-76845419D01*
X163873208Y-76845417D01*
X163873207Y-76845413D01*
X163820480Y-76754087D01*
X163745913Y-76679520D01*
X163654587Y-76626793D01*
X163654584Y-76626792D01*
X163654580Y-76626790D01*
X163552730Y-76599500D01*
X163552727Y-76599500D01*
X163447273Y-76599500D01*
X163447270Y-76599500D01*
X163345419Y-76626790D01*
X163345413Y-76626793D01*
X163254088Y-76679519D01*
X163254083Y-76679523D01*
X163179523Y-76754083D01*
X163179515Y-76754093D01*
X163178259Y-76756270D01*
X163177253Y-76757041D01*
X163177066Y-76757286D01*
X163177000Y-76757235D01*
X163140915Y-76784923D01*
X163094248Y-76778777D01*
X163071741Y-76756270D01*
X163070484Y-76754093D01*
X163070482Y-76754090D01*
X163070480Y-76754087D01*
X162995913Y-76679520D01*
X162904587Y-76626793D01*
X162904584Y-76626792D01*
X162904580Y-76626790D01*
X162802730Y-76599500D01*
X162802727Y-76599500D01*
X162697273Y-76599500D01*
X162697270Y-76599500D01*
X162595419Y-76626790D01*
X162595413Y-76626793D01*
X162504088Y-76679519D01*
X162504083Y-76679523D01*
X162429523Y-76754083D01*
X162429515Y-76754093D01*
X162428259Y-76756270D01*
X162427253Y-76757041D01*
X162427066Y-76757286D01*
X162427000Y-76757235D01*
X162390915Y-76784923D01*
X162344248Y-76778777D01*
X162321741Y-76756270D01*
X162320484Y-76754093D01*
X162320482Y-76754090D01*
X162320480Y-76754087D01*
X162245913Y-76679520D01*
X162154587Y-76626793D01*
X162154584Y-76626792D01*
X162154580Y-76626790D01*
X162052730Y-76599500D01*
X162052727Y-76599500D01*
X161947273Y-76599500D01*
X161947270Y-76599500D01*
X161845419Y-76626790D01*
X161845413Y-76626793D01*
X161754088Y-76679519D01*
X161754083Y-76679523D01*
X161679523Y-76754083D01*
X161679519Y-76754088D01*
X161626793Y-76845413D01*
X161626790Y-76845419D01*
X161599500Y-76947269D01*
X161599500Y-77052730D01*
X161626790Y-77154580D01*
X161626792Y-77154584D01*
X161626793Y-77154587D01*
X161679520Y-77245913D01*
X161754087Y-77320480D01*
X161754090Y-77320482D01*
X161754093Y-77320484D01*
X161756270Y-77321741D01*
X161757041Y-77322746D01*
X161757286Y-77322934D01*
X161757235Y-77322999D01*
X161784923Y-77359085D01*
X161778777Y-77405752D01*
X161756270Y-77428259D01*
X161754093Y-77429515D01*
X161754083Y-77429523D01*
X161679523Y-77504083D01*
X161679515Y-77504093D01*
X161678259Y-77506270D01*
X161677253Y-77507041D01*
X161677066Y-77507286D01*
X161677000Y-77507235D01*
X161640915Y-77534923D01*
X161594248Y-77528777D01*
X161571741Y-77506270D01*
X161570484Y-77504093D01*
X161570482Y-77504090D01*
X161570480Y-77504087D01*
X161495913Y-77429520D01*
X161404587Y-77376793D01*
X161404584Y-77376792D01*
X161404580Y-77376790D01*
X161302730Y-77349500D01*
X161302727Y-77349500D01*
X161197273Y-77349500D01*
X161197270Y-77349500D01*
X161095419Y-77376790D01*
X161095413Y-77376793D01*
X161004088Y-77429519D01*
X161004083Y-77429523D01*
X160929523Y-77504083D01*
X160929515Y-77504093D01*
X160928259Y-77506270D01*
X160927253Y-77507041D01*
X160927066Y-77507286D01*
X160927000Y-77507235D01*
X160890915Y-77534923D01*
X160844248Y-77528777D01*
X160821741Y-77506270D01*
X160820484Y-77504093D01*
X160820482Y-77504090D01*
X160820480Y-77504087D01*
X160745913Y-77429520D01*
X160654587Y-77376793D01*
X160654584Y-77376792D01*
X160654580Y-77376790D01*
X160552730Y-77349500D01*
X160552727Y-77349500D01*
X160447273Y-77349500D01*
X160447270Y-77349500D01*
X160345419Y-77376790D01*
X160345413Y-77376793D01*
X160254088Y-77429519D01*
X160254083Y-77429523D01*
X160179523Y-77504083D01*
X160179515Y-77504093D01*
X160178259Y-77506270D01*
X160177253Y-77507041D01*
X160177066Y-77507286D01*
X160177000Y-77507235D01*
X160140915Y-77534923D01*
X160094248Y-77528777D01*
X160071741Y-77506270D01*
X160070484Y-77504093D01*
X160070482Y-77504090D01*
X160070480Y-77504087D01*
X159995913Y-77429520D01*
X159904587Y-77376793D01*
X159904584Y-77376792D01*
X159904580Y-77376790D01*
X159802730Y-77349500D01*
X159802727Y-77349500D01*
X159697273Y-77349500D01*
X159697270Y-77349500D01*
X159595419Y-77376790D01*
X159595413Y-77376793D01*
X159504088Y-77429519D01*
X159504083Y-77429523D01*
X159429523Y-77504083D01*
X159429515Y-77504093D01*
X159428259Y-77506270D01*
X159427253Y-77507041D01*
X159427066Y-77507286D01*
X159427000Y-77507235D01*
X159390915Y-77534923D01*
X159344248Y-77528777D01*
X159321741Y-77506270D01*
X159320484Y-77504093D01*
X159320482Y-77504090D01*
X159320480Y-77504087D01*
X159245913Y-77429520D01*
X159154587Y-77376793D01*
X159154584Y-77376792D01*
X159154580Y-77376790D01*
X159052730Y-77349500D01*
X159052727Y-77349500D01*
X158947273Y-77349500D01*
X158947270Y-77349500D01*
X158845419Y-77376790D01*
X158845413Y-77376793D01*
X158754088Y-77429519D01*
X158754083Y-77429523D01*
X158679523Y-77504083D01*
X158679519Y-77504088D01*
X158626793Y-77595413D01*
X158626790Y-77595419D01*
X158599500Y-77697269D01*
X143900499Y-77697269D01*
X143873209Y-77595419D01*
X143873208Y-77595417D01*
X143873207Y-77595413D01*
X143820480Y-77504087D01*
X143745913Y-77429520D01*
X143654587Y-77376793D01*
X143654584Y-77376792D01*
X143654580Y-77376790D01*
X143552730Y-77349500D01*
X143552727Y-77349500D01*
X143447273Y-77349500D01*
X143447270Y-77349500D01*
X143345419Y-77376790D01*
X143345413Y-77376793D01*
X143254088Y-77429519D01*
X143254083Y-77429523D01*
X143179523Y-77504083D01*
X143179519Y-77504088D01*
X143126793Y-77595413D01*
X143126790Y-77595419D01*
X143099500Y-77697269D01*
X142400499Y-77697269D01*
X142373209Y-77595419D01*
X142373208Y-77595417D01*
X142373207Y-77595413D01*
X142320480Y-77504087D01*
X142245913Y-77429520D01*
X142154587Y-77376793D01*
X142154584Y-77376792D01*
X142154580Y-77376790D01*
X142052730Y-77349500D01*
X142052727Y-77349500D01*
X141947273Y-77349500D01*
X141947270Y-77349500D01*
X141845419Y-77376790D01*
X141845413Y-77376793D01*
X141754088Y-77429519D01*
X141754083Y-77429523D01*
X141679523Y-77504083D01*
X141679519Y-77504088D01*
X141626793Y-77595413D01*
X141626790Y-77595419D01*
X141599500Y-77697269D01*
X129576306Y-77697269D01*
X129588015Y-77690509D01*
X129690509Y-77588015D01*
X129762984Y-77462485D01*
X129782160Y-77390920D01*
X129800500Y-77322477D01*
X129800500Y-77177522D01*
X129762985Y-77037519D01*
X129762984Y-77037515D01*
X129690509Y-76911985D01*
X129588015Y-76809491D01*
X129462485Y-76737016D01*
X129462482Y-76737015D01*
X129462480Y-76737014D01*
X129322477Y-76699500D01*
X129322475Y-76699500D01*
X129177525Y-76699500D01*
X129177523Y-76699500D01*
X129037519Y-76737014D01*
X129037515Y-76737016D01*
X128911986Y-76809490D01*
X128911981Y-76809494D01*
X128809494Y-76911981D01*
X128809490Y-76911986D01*
X128737016Y-77037515D01*
X128737014Y-77037519D01*
X128699500Y-77177522D01*
X108250500Y-77177522D01*
X108250500Y-76347269D01*
X109999500Y-76347269D01*
X109999500Y-76452730D01*
X110026790Y-76554580D01*
X110026792Y-76554584D01*
X110026793Y-76554587D01*
X110079520Y-76645913D01*
X110154087Y-76720480D01*
X110245413Y-76773207D01*
X110245417Y-76773208D01*
X110245419Y-76773209D01*
X110347269Y-76800499D01*
X110347271Y-76800500D01*
X110347273Y-76800500D01*
X110452729Y-76800500D01*
X110452729Y-76800499D01*
X110554587Y-76773207D01*
X110645913Y-76720480D01*
X110720480Y-76645913D01*
X110773207Y-76554587D01*
X110800499Y-76452729D01*
X110800500Y-76452729D01*
X110800500Y-76347270D01*
X110800499Y-76347269D01*
X110773209Y-76245419D01*
X110773208Y-76245417D01*
X110773207Y-76245413D01*
X110720480Y-76154087D01*
X110645913Y-76079520D01*
X110554587Y-76026793D01*
X110554584Y-76026792D01*
X110554580Y-76026790D01*
X110452730Y-75999500D01*
X110452727Y-75999500D01*
X110347273Y-75999500D01*
X110347270Y-75999500D01*
X110245419Y-76026790D01*
X110245413Y-76026793D01*
X110154088Y-76079519D01*
X110154083Y-76079523D01*
X110079523Y-76154083D01*
X110079519Y-76154088D01*
X110026793Y-76245413D01*
X110026790Y-76245419D01*
X109999500Y-76347269D01*
X108250500Y-76347269D01*
X108250500Y-74197269D01*
X141599500Y-74197269D01*
X141599500Y-74302730D01*
X141626790Y-74404580D01*
X141626792Y-74404584D01*
X141626793Y-74404587D01*
X141679520Y-74495913D01*
X141754087Y-74570480D01*
X141845413Y-74623207D01*
X141845417Y-74623208D01*
X141845419Y-74623209D01*
X141947269Y-74650499D01*
X141947271Y-74650500D01*
X141947273Y-74650500D01*
X142052729Y-74650500D01*
X142052729Y-74650499D01*
X142154587Y-74623207D01*
X142245913Y-74570480D01*
X142320480Y-74495913D01*
X142373207Y-74404587D01*
X142400499Y-74302729D01*
X142400500Y-74302729D01*
X142400500Y-74197270D01*
X142400499Y-74197269D01*
X143136157Y-74197269D01*
X143136157Y-74302730D01*
X143163447Y-74404580D01*
X143163449Y-74404584D01*
X143163450Y-74404587D01*
X143216177Y-74495913D01*
X143290744Y-74570480D01*
X143382070Y-74623207D01*
X143382074Y-74623208D01*
X143382076Y-74623209D01*
X143483926Y-74650499D01*
X143483928Y-74650500D01*
X143483930Y-74650500D01*
X143589386Y-74650500D01*
X143589386Y-74650499D01*
X143691244Y-74623207D01*
X143782570Y-74570480D01*
X143857137Y-74495913D01*
X143909864Y-74404587D01*
X143937156Y-74302729D01*
X143937157Y-74302729D01*
X143937157Y-74197270D01*
X143937156Y-74197269D01*
X143909866Y-74095419D01*
X143909865Y-74095417D01*
X143909864Y-74095413D01*
X143857137Y-74004087D01*
X143782570Y-73929520D01*
X143691244Y-73876793D01*
X143691241Y-73876792D01*
X143691237Y-73876790D01*
X143589387Y-73849500D01*
X143589384Y-73849500D01*
X143483930Y-73849500D01*
X143483927Y-73849500D01*
X143382076Y-73876790D01*
X143382070Y-73876793D01*
X143290745Y-73929519D01*
X143290740Y-73929523D01*
X143216180Y-74004083D01*
X143216176Y-74004088D01*
X143163450Y-74095413D01*
X143163447Y-74095419D01*
X143136157Y-74197269D01*
X142400499Y-74197269D01*
X142373209Y-74095419D01*
X142373208Y-74095417D01*
X142373207Y-74095413D01*
X142320480Y-74004087D01*
X142245913Y-73929520D01*
X142154587Y-73876793D01*
X142154584Y-73876792D01*
X142154580Y-73876790D01*
X142052730Y-73849500D01*
X142052727Y-73849500D01*
X141947273Y-73849500D01*
X141947270Y-73849500D01*
X141845419Y-73876790D01*
X141845413Y-73876793D01*
X141754088Y-73929519D01*
X141754083Y-73929523D01*
X141679523Y-74004083D01*
X141679519Y-74004088D01*
X141626793Y-74095413D01*
X141626790Y-74095419D01*
X141599500Y-74197269D01*
X108250500Y-74197269D01*
X108250500Y-69751331D01*
X108250559Y-69748648D01*
X108256368Y-69615597D01*
X110699500Y-69615597D01*
X110699500Y-69884402D01*
X110734585Y-70150898D01*
X110804151Y-70410520D01*
X110804153Y-70410526D01*
X110907016Y-70658859D01*
X110915324Y-70673248D01*
X111041412Y-70891640D01*
X111205042Y-71104888D01*
X111395111Y-71294957D01*
X111402334Y-71300499D01*
X111608359Y-71458587D01*
X111841141Y-71592984D01*
X112089474Y-71695847D01*
X112271970Y-71744746D01*
X112349101Y-71765414D01*
X112349102Y-71765414D01*
X112349109Y-71765416D01*
X112615603Y-71800500D01*
X112615606Y-71800500D01*
X112884394Y-71800500D01*
X112884397Y-71800500D01*
X113150891Y-71765416D01*
X113410526Y-71695847D01*
X113658859Y-71592984D01*
X113891641Y-71458587D01*
X114031194Y-71351505D01*
X137430000Y-71351505D01*
X137430000Y-71750000D01*
X138130000Y-71750000D01*
X138130000Y-72250000D01*
X137430000Y-72250000D01*
X137430000Y-72648494D01*
X137468427Y-72841683D01*
X137468429Y-72841690D01*
X137543812Y-73023680D01*
X137543813Y-73023681D01*
X137653247Y-73187460D01*
X137653248Y-73187462D01*
X137792537Y-73326751D01*
X137792539Y-73326752D01*
X137956318Y-73436186D01*
X137956319Y-73436187D01*
X138138312Y-73511571D01*
X138138317Y-73511572D01*
X138179999Y-73519863D01*
X138180000Y-73519862D01*
X138180000Y-72716988D01*
X138189940Y-72734205D01*
X138245795Y-72790060D01*
X138314204Y-72829556D01*
X138390504Y-72850000D01*
X138469496Y-72850000D01*
X138545796Y-72829556D01*
X138614205Y-72790060D01*
X138670060Y-72734205D01*
X138680000Y-72716988D01*
X138680000Y-73519863D01*
X138721682Y-73511572D01*
X138721687Y-73511571D01*
X138903680Y-73436187D01*
X138903681Y-73436186D01*
X139067460Y-73326752D01*
X139067462Y-73326751D01*
X139206751Y-73187462D01*
X139206752Y-73187460D01*
X139316186Y-73023681D01*
X139316187Y-73023680D01*
X139391570Y-72841690D01*
X139391572Y-72841683D01*
X139429999Y-72648494D01*
X139430000Y-72648494D01*
X139430000Y-72250000D01*
X138730000Y-72250000D01*
X138730000Y-71750000D01*
X139373582Y-71750000D01*
X139417069Y-71768013D01*
X139426840Y-71780746D01*
X139439495Y-71802665D01*
X139537335Y-71900505D01*
X139657164Y-71969688D01*
X139657168Y-71969689D01*
X139657170Y-71969690D01*
X139790813Y-72005499D01*
X139790815Y-72005500D01*
X139790817Y-72005500D01*
X139929185Y-72005500D01*
X139929185Y-72005499D01*
X140062836Y-71969688D01*
X140182665Y-71900505D01*
X140280505Y-71802665D01*
X140349688Y-71682836D01*
X140385499Y-71549185D01*
X140385500Y-71549185D01*
X140385500Y-71410814D01*
X140385499Y-71410813D01*
X145114500Y-71410813D01*
X145114500Y-71549186D01*
X145150309Y-71682829D01*
X145150311Y-71682833D01*
X145150312Y-71682836D01*
X145219495Y-71802665D01*
X145317335Y-71900505D01*
X145437164Y-71969688D01*
X145437168Y-71969689D01*
X145437170Y-71969690D01*
X145570813Y-72005499D01*
X145570815Y-72005500D01*
X145570817Y-72005500D01*
X145709185Y-72005500D01*
X145709185Y-72005499D01*
X145842836Y-71969688D01*
X145962665Y-71900505D01*
X146060505Y-71802665D01*
X146073158Y-71780749D01*
X146110500Y-71752096D01*
X146126418Y-71750000D01*
X146770000Y-71750000D01*
X146770000Y-72250000D01*
X146070000Y-72250000D01*
X146070000Y-72648494D01*
X146108427Y-72841683D01*
X146108429Y-72841690D01*
X146183812Y-73023680D01*
X146183813Y-73023681D01*
X146293247Y-73187460D01*
X146293248Y-73187462D01*
X146432537Y-73326751D01*
X146432539Y-73326752D01*
X146596318Y-73436186D01*
X146596319Y-73436187D01*
X146778312Y-73511571D01*
X146778317Y-73511572D01*
X146819999Y-73519863D01*
X146820000Y-73519862D01*
X146820000Y-72716988D01*
X146829940Y-72734205D01*
X146885795Y-72790060D01*
X146954204Y-72829556D01*
X147030504Y-72850000D01*
X147109496Y-72850000D01*
X147185796Y-72829556D01*
X147254205Y-72790060D01*
X147310060Y-72734205D01*
X147320000Y-72716988D01*
X147320000Y-73519863D01*
X147361682Y-73511572D01*
X147361687Y-73511571D01*
X147543680Y-73436187D01*
X147543681Y-73436186D01*
X147707460Y-73326752D01*
X147707462Y-73326751D01*
X147846751Y-73187462D01*
X147846752Y-73187460D01*
X147956186Y-73023681D01*
X147956187Y-73023680D01*
X148031570Y-72841690D01*
X148031572Y-72841683D01*
X148069999Y-72648494D01*
X148070000Y-72648494D01*
X148070000Y-72250000D01*
X147370000Y-72250000D01*
X147370000Y-71750000D01*
X148070000Y-71750000D01*
X148070000Y-71351506D01*
X148069999Y-71351505D01*
X148031572Y-71158316D01*
X148031570Y-71158309D01*
X147956187Y-70976319D01*
X147956186Y-70976318D01*
X147846752Y-70812539D01*
X147846751Y-70812537D01*
X147707462Y-70673248D01*
X147707460Y-70673247D01*
X147543681Y-70563813D01*
X147543680Y-70563812D01*
X147361688Y-70488428D01*
X147361683Y-70488427D01*
X147320000Y-70480135D01*
X147320000Y-71283011D01*
X147310060Y-71265795D01*
X147254205Y-71209940D01*
X147185796Y-71170444D01*
X147109496Y-71150000D01*
X147030504Y-71150000D01*
X146954204Y-71170444D01*
X146885795Y-71209940D01*
X146829940Y-71265795D01*
X146820000Y-71283011D01*
X146820000Y-70480136D01*
X146819999Y-70480135D01*
X146778316Y-70488427D01*
X146778311Y-70488428D01*
X146596319Y-70563812D01*
X146596318Y-70563813D01*
X146432539Y-70673247D01*
X146432537Y-70673248D01*
X146293248Y-70812537D01*
X146293247Y-70812539D01*
X146183813Y-70976318D01*
X146183808Y-70976328D01*
X146129900Y-71106473D01*
X146096617Y-71139757D01*
X146049547Y-71139756D01*
X146029595Y-71126425D01*
X145962668Y-71059498D01*
X145962665Y-71059495D01*
X145842836Y-70990312D01*
X145842833Y-70990311D01*
X145842829Y-70990309D01*
X145709186Y-70954500D01*
X145709183Y-70954500D01*
X145570817Y-70954500D01*
X145570814Y-70954500D01*
X145437170Y-70990309D01*
X145437164Y-70990312D01*
X145317336Y-71059494D01*
X145317331Y-71059498D01*
X145219498Y-71157331D01*
X145219494Y-71157336D01*
X145150312Y-71277164D01*
X145150309Y-71277170D01*
X145114500Y-71410813D01*
X140385499Y-71410813D01*
X140349690Y-71277170D01*
X140349689Y-71277168D01*
X140349688Y-71277164D01*
X140280505Y-71157335D01*
X140182665Y-71059495D01*
X140062836Y-70990312D01*
X140062833Y-70990311D01*
X140062829Y-70990309D01*
X139929186Y-70954500D01*
X139929183Y-70954500D01*
X139790817Y-70954500D01*
X139790814Y-70954500D01*
X139657170Y-70990309D01*
X139657164Y-70990312D01*
X139537336Y-71059494D01*
X139537331Y-71059498D01*
X139470404Y-71126425D01*
X139426917Y-71144438D01*
X139383430Y-71126425D01*
X139370098Y-71106473D01*
X139316187Y-70976319D01*
X139316186Y-70976318D01*
X139206752Y-70812539D01*
X139206751Y-70812537D01*
X139067462Y-70673248D01*
X139067460Y-70673247D01*
X138903681Y-70563813D01*
X138903680Y-70563812D01*
X138721688Y-70488428D01*
X138721683Y-70488427D01*
X138680000Y-70480135D01*
X138680000Y-71283011D01*
X138670060Y-71265795D01*
X138614205Y-71209940D01*
X138545796Y-71170444D01*
X138469496Y-71150000D01*
X138390504Y-71150000D01*
X138314204Y-71170444D01*
X138245795Y-71209940D01*
X138189940Y-71265795D01*
X138180000Y-71283011D01*
X138180000Y-70480136D01*
X138179999Y-70480135D01*
X138138316Y-70488427D01*
X138138311Y-70488428D01*
X137956319Y-70563812D01*
X137956318Y-70563813D01*
X137792539Y-70673247D01*
X137792537Y-70673248D01*
X137653248Y-70812537D01*
X137653247Y-70812539D01*
X137543813Y-70976318D01*
X137543812Y-70976319D01*
X137468429Y-71158309D01*
X137468427Y-71158316D01*
X137430000Y-71351505D01*
X114031194Y-71351505D01*
X114097665Y-71300500D01*
X114098712Y-71299697D01*
X114101616Y-71297468D01*
X114104890Y-71294956D01*
X114294956Y-71104890D01*
X114458587Y-70891641D01*
X114592984Y-70658859D01*
X114695847Y-70410526D01*
X114765416Y-70150891D01*
X114800500Y-69884397D01*
X114800500Y-69615603D01*
X114765416Y-69349109D01*
X114695847Y-69089474D01*
X114592984Y-68841141D01*
X114458587Y-68608359D01*
X114441004Y-68585444D01*
X114294957Y-68395111D01*
X114104888Y-68205042D01*
X113891640Y-68041412D01*
X113806435Y-67992219D01*
X113658859Y-67907016D01*
X113410526Y-67804153D01*
X113410520Y-67804151D01*
X113150898Y-67734585D01*
X113150891Y-67734584D01*
X113122519Y-67730848D01*
X112884402Y-67699500D01*
X112884397Y-67699500D01*
X112615603Y-67699500D01*
X112615597Y-67699500D01*
X112349101Y-67734585D01*
X112089479Y-67804151D01*
X112089473Y-67804153D01*
X111841143Y-67907015D01*
X111608359Y-68041412D01*
X111395111Y-68205042D01*
X111205042Y-68395111D01*
X111041412Y-68608359D01*
X110907015Y-68841143D01*
X110804153Y-69089473D01*
X110804151Y-69089479D01*
X110734585Y-69349101D01*
X110699500Y-69615597D01*
X108256368Y-69615597D01*
X108256573Y-69610907D01*
X108256573Y-69610906D01*
X108257049Y-69599999D01*
X108267505Y-69360518D01*
X108267969Y-69355202D01*
X108318510Y-68971308D01*
X108319435Y-68966065D01*
X108403238Y-68588051D01*
X108404616Y-68582906D01*
X108521046Y-68213637D01*
X108522880Y-68208600D01*
X108535072Y-68179166D01*
X108671049Y-67850886D01*
X108673299Y-67846062D01*
X108852086Y-67502616D01*
X108854748Y-67498005D01*
X108932906Y-67375322D01*
X118649500Y-67375322D01*
X118649500Y-69124677D01*
X118664032Y-69197738D01*
X118691621Y-69239028D01*
X118719399Y-69280601D01*
X118781615Y-69322172D01*
X118802261Y-69335967D01*
X118860473Y-69347545D01*
X118875322Y-69350499D01*
X118875323Y-69350500D01*
X118875326Y-69350500D01*
X120624677Y-69350500D01*
X120624677Y-69350499D01*
X120653980Y-69344670D01*
X120697738Y-69335967D01*
X120697739Y-69335966D01*
X120697740Y-69335966D01*
X120780601Y-69280601D01*
X120835966Y-69197740D01*
X120835966Y-69197739D01*
X120835967Y-69197738D01*
X120847268Y-69140920D01*
X120850499Y-69124677D01*
X120850500Y-69124677D01*
X120850500Y-68163385D01*
X121189500Y-68163385D01*
X121189500Y-68336614D01*
X121216598Y-68507703D01*
X121270127Y-68672446D01*
X121348769Y-68826790D01*
X121450584Y-68966926D01*
X121573073Y-69089415D01*
X121672664Y-69161772D01*
X121713212Y-69191232D01*
X121867555Y-69269873D01*
X122032296Y-69323401D01*
X122032299Y-69323402D01*
X122203389Y-69350500D01*
X122203393Y-69350500D01*
X122376607Y-69350500D01*
X122376611Y-69350500D01*
X122547701Y-69323402D01*
X122712445Y-69269873D01*
X122866788Y-69191232D01*
X123006928Y-69089414D01*
X123129414Y-68966928D01*
X123231232Y-68826788D01*
X123309873Y-68672445D01*
X123363402Y-68507701D01*
X123390500Y-68336611D01*
X123390500Y-68163389D01*
X123390499Y-68163385D01*
X123729500Y-68163385D01*
X123729500Y-68336614D01*
X123756598Y-68507703D01*
X123810127Y-68672446D01*
X123888769Y-68826790D01*
X123990584Y-68966926D01*
X124113073Y-69089415D01*
X124212664Y-69161772D01*
X124253212Y-69191232D01*
X124407555Y-69269873D01*
X124572296Y-69323401D01*
X124572299Y-69323402D01*
X124743389Y-69350500D01*
X124743393Y-69350500D01*
X124916607Y-69350500D01*
X124916611Y-69350500D01*
X125087701Y-69323402D01*
X125252445Y-69269873D01*
X125406788Y-69191232D01*
X125546928Y-69089414D01*
X125669414Y-68966928D01*
X125771232Y-68826788D01*
X125849873Y-68672445D01*
X125903402Y-68507701D01*
X125930500Y-68336611D01*
X125930500Y-68163389D01*
X125930499Y-68163385D01*
X126269500Y-68163385D01*
X126269500Y-68336614D01*
X126296598Y-68507703D01*
X126350127Y-68672446D01*
X126428769Y-68826790D01*
X126530584Y-68966926D01*
X126653073Y-69089415D01*
X126752664Y-69161772D01*
X126793212Y-69191232D01*
X126947555Y-69269873D01*
X127112296Y-69323401D01*
X127112299Y-69323402D01*
X127283389Y-69350500D01*
X127283393Y-69350500D01*
X127456607Y-69350500D01*
X127456611Y-69350500D01*
X127627701Y-69323402D01*
X127792445Y-69269873D01*
X127946788Y-69191232D01*
X128086928Y-69089414D01*
X128209414Y-68966928D01*
X128311232Y-68826788D01*
X128389873Y-68672445D01*
X128443402Y-68507701D01*
X128452952Y-68447402D01*
X128477546Y-68407270D01*
X128523316Y-68396281D01*
X128563449Y-68420875D01*
X128574438Y-68447403D01*
X128593242Y-68566126D01*
X128658906Y-68768221D01*
X128658907Y-68768222D01*
X128755379Y-68957557D01*
X128794727Y-69011716D01*
X129427036Y-68379406D01*
X129444075Y-68442993D01*
X129509901Y-68557007D01*
X129602993Y-68650099D01*
X129717007Y-68715925D01*
X129780591Y-68732962D01*
X129148282Y-69365270D01*
X129202445Y-69404622D01*
X129391777Y-69501092D01*
X129391778Y-69501093D01*
X129593873Y-69566757D01*
X129803749Y-69599999D01*
X129803757Y-69600000D01*
X130016243Y-69600000D01*
X130016250Y-69599999D01*
X130226126Y-69566757D01*
X130428221Y-69501093D01*
X130428222Y-69501092D01*
X130617556Y-69404621D01*
X130671717Y-69365271D01*
X130039408Y-68732962D01*
X130102993Y-68715925D01*
X130217007Y-68650099D01*
X130310099Y-68557007D01*
X130375925Y-68442993D01*
X130392962Y-68379408D01*
X131025271Y-69011717D01*
X131064621Y-68957556D01*
X131161092Y-68768222D01*
X131161093Y-68768221D01*
X131226757Y-68566126D01*
X131259999Y-68356250D01*
X131260000Y-68356242D01*
X131260000Y-68143757D01*
X131259999Y-68143749D01*
X131242640Y-68034147D01*
X131226757Y-67933873D01*
X131161093Y-67731778D01*
X131161092Y-67731777D01*
X131064622Y-67542445D01*
X131025270Y-67488282D01*
X130392962Y-68120590D01*
X130375925Y-68057007D01*
X130310099Y-67942993D01*
X130217007Y-67849901D01*
X130102993Y-67784075D01*
X130039407Y-67767036D01*
X130504940Y-67301505D01*
X137430000Y-67301505D01*
X137430000Y-67550000D01*
X138130000Y-67550000D01*
X138130000Y-68050000D01*
X137430000Y-68050000D01*
X137430000Y-68298494D01*
X137468427Y-68491683D01*
X137468429Y-68491690D01*
X137543812Y-68673680D01*
X137543813Y-68673681D01*
X137653247Y-68837460D01*
X137653248Y-68837462D01*
X137792537Y-68976751D01*
X137792539Y-68976752D01*
X137956318Y-69086186D01*
X137956319Y-69086187D01*
X138138312Y-69161571D01*
X138138317Y-69161572D01*
X138179999Y-69169863D01*
X138180000Y-69169862D01*
X138180000Y-68366988D01*
X138189940Y-68384205D01*
X138245795Y-68440060D01*
X138314204Y-68479556D01*
X138390504Y-68500000D01*
X138469496Y-68500000D01*
X138545796Y-68479556D01*
X138614205Y-68440060D01*
X138670060Y-68384205D01*
X138680000Y-68366988D01*
X138680000Y-69169863D01*
X138721682Y-69161572D01*
X138721687Y-69161571D01*
X138903680Y-69086187D01*
X138903681Y-69086186D01*
X139067460Y-68976752D01*
X139067462Y-68976751D01*
X139206751Y-68837462D01*
X139206752Y-68837460D01*
X139316186Y-68673681D01*
X139316187Y-68673680D01*
X139391570Y-68491690D01*
X139391572Y-68491683D01*
X139429999Y-68298494D01*
X139430000Y-68298494D01*
X139430000Y-68050000D01*
X138730000Y-68050000D01*
X138730000Y-67550000D01*
X139430000Y-67550000D01*
X139430000Y-67301506D01*
X139429999Y-67301505D01*
X146070000Y-67301505D01*
X146070000Y-67550000D01*
X146770000Y-67550000D01*
X146770000Y-68050000D01*
X146070000Y-68050000D01*
X146070000Y-68298494D01*
X146108427Y-68491683D01*
X146108429Y-68491690D01*
X146183812Y-68673680D01*
X146183813Y-68673681D01*
X146293247Y-68837460D01*
X146293248Y-68837462D01*
X146432537Y-68976751D01*
X146432539Y-68976752D01*
X146596318Y-69086186D01*
X146596319Y-69086187D01*
X146778312Y-69161571D01*
X146778317Y-69161572D01*
X146819999Y-69169863D01*
X146820000Y-69169862D01*
X146820000Y-68366988D01*
X146829940Y-68384205D01*
X146885795Y-68440060D01*
X146954204Y-68479556D01*
X147030504Y-68500000D01*
X147109496Y-68500000D01*
X147185796Y-68479556D01*
X147254205Y-68440060D01*
X147310060Y-68384205D01*
X147320000Y-68366988D01*
X147320000Y-69169863D01*
X147361682Y-69161572D01*
X147361687Y-69161571D01*
X147543680Y-69086187D01*
X147543681Y-69086186D01*
X147707460Y-68976752D01*
X147707462Y-68976751D01*
X147846751Y-68837462D01*
X147846752Y-68837460D01*
X147940425Y-68697269D01*
X158599500Y-68697269D01*
X158599500Y-68802730D01*
X158626790Y-68904580D01*
X158626792Y-68904584D01*
X158626793Y-68904587D01*
X158679520Y-68995913D01*
X158754087Y-69070480D01*
X158845413Y-69123207D01*
X158845417Y-69123208D01*
X158845419Y-69123209D01*
X158947269Y-69150499D01*
X158947271Y-69150500D01*
X158947273Y-69150500D01*
X159052729Y-69150500D01*
X159052729Y-69150499D01*
X159141204Y-69126793D01*
X159154580Y-69123209D01*
X159154580Y-69123208D01*
X159154587Y-69123207D01*
X159245913Y-69070480D01*
X159320480Y-68995913D01*
X159321739Y-68993732D01*
X159322745Y-68992960D01*
X159322934Y-68992714D01*
X159322999Y-68992764D01*
X159359080Y-68965077D01*
X159405748Y-68971219D01*
X159428260Y-68993731D01*
X159429520Y-68995913D01*
X159504087Y-69070480D01*
X159595413Y-69123207D01*
X159595417Y-69123208D01*
X159595419Y-69123209D01*
X159697269Y-69150499D01*
X159697271Y-69150500D01*
X159697273Y-69150500D01*
X159802729Y-69150500D01*
X159802729Y-69150499D01*
X159891204Y-69126793D01*
X159904580Y-69123209D01*
X159904580Y-69123208D01*
X159904587Y-69123207D01*
X159995913Y-69070480D01*
X160070480Y-68995913D01*
X160071739Y-68993732D01*
X160072745Y-68992960D01*
X160072934Y-68992714D01*
X160072999Y-68992764D01*
X160109080Y-68965077D01*
X160155748Y-68971219D01*
X160178260Y-68993731D01*
X160179520Y-68995913D01*
X160254087Y-69070480D01*
X160345413Y-69123207D01*
X160345417Y-69123208D01*
X160345419Y-69123209D01*
X160447269Y-69150499D01*
X160447271Y-69150500D01*
X160447273Y-69150500D01*
X160552729Y-69150500D01*
X160552729Y-69150499D01*
X160641204Y-69126793D01*
X160654580Y-69123209D01*
X160654580Y-69123208D01*
X160654587Y-69123207D01*
X160745913Y-69070480D01*
X160820480Y-68995913D01*
X160821739Y-68993732D01*
X160822745Y-68992960D01*
X160822934Y-68992714D01*
X160822999Y-68992764D01*
X160859080Y-68965077D01*
X160905748Y-68971219D01*
X160928260Y-68993731D01*
X160929520Y-68995913D01*
X161004087Y-69070480D01*
X161095413Y-69123207D01*
X161095417Y-69123208D01*
X161095419Y-69123209D01*
X161197269Y-69150499D01*
X161197271Y-69150500D01*
X161197273Y-69150500D01*
X161302729Y-69150500D01*
X161302729Y-69150499D01*
X161391204Y-69126793D01*
X161404580Y-69123209D01*
X161404580Y-69123208D01*
X161404587Y-69123207D01*
X161495913Y-69070480D01*
X161570480Y-68995913D01*
X161571739Y-68993732D01*
X161572745Y-68992960D01*
X161572934Y-68992714D01*
X161572999Y-68992764D01*
X161609080Y-68965077D01*
X161655748Y-68971219D01*
X161678260Y-68993731D01*
X161679520Y-68995913D01*
X161754087Y-69070480D01*
X161754090Y-69070482D01*
X161754093Y-69070484D01*
X161756270Y-69071741D01*
X161757041Y-69072746D01*
X161757286Y-69072934D01*
X161757235Y-69072999D01*
X161784923Y-69109085D01*
X161778777Y-69155752D01*
X161756270Y-69178259D01*
X161754093Y-69179515D01*
X161754083Y-69179523D01*
X161679523Y-69254083D01*
X161679519Y-69254088D01*
X161626793Y-69345413D01*
X161626790Y-69345419D01*
X161599500Y-69447269D01*
X161599500Y-69552730D01*
X161626790Y-69654580D01*
X161626792Y-69654584D01*
X161626793Y-69654587D01*
X161679520Y-69745913D01*
X161754087Y-69820480D01*
X161845413Y-69873207D01*
X161845417Y-69873208D01*
X161845419Y-69873209D01*
X161947269Y-69900499D01*
X161947271Y-69900500D01*
X161947273Y-69900500D01*
X162052729Y-69900500D01*
X162052729Y-69900499D01*
X162154587Y-69873207D01*
X162245913Y-69820480D01*
X162320480Y-69745913D01*
X162321739Y-69743732D01*
X162322745Y-69742960D01*
X162322934Y-69742714D01*
X162322999Y-69742764D01*
X162359080Y-69715077D01*
X162405748Y-69721219D01*
X162428260Y-69743731D01*
X162429520Y-69745913D01*
X162504087Y-69820480D01*
X162595413Y-69873207D01*
X162595417Y-69873208D01*
X162595419Y-69873209D01*
X162697269Y-69900499D01*
X162697271Y-69900500D01*
X162697273Y-69900500D01*
X162802729Y-69900500D01*
X162802729Y-69900499D01*
X162904587Y-69873207D01*
X162995913Y-69820480D01*
X163070480Y-69745913D01*
X163071739Y-69743732D01*
X163072745Y-69742960D01*
X163072934Y-69742714D01*
X163072999Y-69742764D01*
X163109080Y-69715077D01*
X163155748Y-69721219D01*
X163178260Y-69743731D01*
X163179520Y-69745913D01*
X163254087Y-69820480D01*
X163345413Y-69873207D01*
X163345417Y-69873208D01*
X163345419Y-69873209D01*
X163447269Y-69900499D01*
X163447271Y-69900500D01*
X163447273Y-69900500D01*
X163552729Y-69900500D01*
X163552729Y-69900499D01*
X163654587Y-69873207D01*
X163745913Y-69820480D01*
X163820480Y-69745913D01*
X163873207Y-69654587D01*
X163874196Y-69650898D01*
X163900499Y-69552730D01*
X163900500Y-69552729D01*
X163900500Y-69447270D01*
X163900499Y-69447269D01*
X163873209Y-69345419D01*
X163873208Y-69345417D01*
X163873207Y-69345413D01*
X163820480Y-69254087D01*
X163745913Y-69179520D01*
X163743732Y-69178260D01*
X163742960Y-69177254D01*
X163742714Y-69177066D01*
X163742764Y-69177000D01*
X163736040Y-69168237D01*
X163725185Y-69161772D01*
X163722279Y-69150305D01*
X163715077Y-69140920D01*
X163716725Y-69128391D01*
X163713622Y-69116144D01*
X163713993Y-69115597D01*
X170699500Y-69115597D01*
X170699500Y-69384402D01*
X170734585Y-69650898D01*
X170804151Y-69910520D01*
X170804153Y-69910526D01*
X170907016Y-70158859D01*
X170992219Y-70306435D01*
X171041412Y-70391640D01*
X171205042Y-70604888D01*
X171395111Y-70794957D01*
X171521113Y-70891641D01*
X171608359Y-70958587D01*
X171841141Y-71092984D01*
X172089474Y-71195847D01*
X172271970Y-71244746D01*
X172349101Y-71265414D01*
X172349102Y-71265414D01*
X172349109Y-71265416D01*
X172615603Y-71300500D01*
X172615606Y-71300500D01*
X172884394Y-71300500D01*
X172884397Y-71300500D01*
X173150891Y-71265416D01*
X173410526Y-71195847D01*
X173658859Y-71092984D01*
X173891641Y-70958587D01*
X174104890Y-70794956D01*
X174294956Y-70604890D01*
X174458587Y-70391641D01*
X174592984Y-70158859D01*
X174695847Y-69910526D01*
X174765416Y-69650891D01*
X174800500Y-69384397D01*
X174800500Y-69115603D01*
X174765416Y-68849109D01*
X174695847Y-68589474D01*
X174592984Y-68341141D01*
X174458587Y-68108359D01*
X174455026Y-68103718D01*
X174294957Y-67895111D01*
X174104888Y-67705042D01*
X173891640Y-67541412D01*
X173799614Y-67488281D01*
X173658859Y-67407016D01*
X173410526Y-67304153D01*
X173410520Y-67304151D01*
X173150898Y-67234585D01*
X173150891Y-67234584D01*
X173117036Y-67230127D01*
X172884402Y-67199500D01*
X172884397Y-67199500D01*
X172615603Y-67199500D01*
X172615597Y-67199500D01*
X172349101Y-67234585D01*
X172089479Y-67304151D01*
X172089473Y-67304153D01*
X171917647Y-67375326D01*
X171841141Y-67407016D01*
X171834958Y-67410586D01*
X171608359Y-67541412D01*
X171395111Y-67705042D01*
X171205042Y-67895111D01*
X171041412Y-68108359D01*
X170965701Y-68239496D01*
X170909632Y-68336611D01*
X170907015Y-68341143D01*
X170804153Y-68589473D01*
X170804151Y-68589479D01*
X170734585Y-68849101D01*
X170699500Y-69115597D01*
X163713993Y-69115597D01*
X163719473Y-69107514D01*
X163721219Y-69094252D01*
X163737709Y-69075704D01*
X163740598Y-69073548D01*
X163745913Y-69070480D01*
X163820480Y-68995913D01*
X163873207Y-68904587D01*
X163900499Y-68802729D01*
X163900500Y-68802729D01*
X163900500Y-68697270D01*
X163900499Y-68697269D01*
X163873209Y-68595419D01*
X163873208Y-68595417D01*
X163873207Y-68595413D01*
X163820480Y-68504087D01*
X163745913Y-68429520D01*
X163654587Y-68376793D01*
X163654584Y-68376792D01*
X163654580Y-68376790D01*
X163552730Y-68349500D01*
X163552727Y-68349500D01*
X163447273Y-68349500D01*
X163447270Y-68349500D01*
X163345419Y-68376790D01*
X163345413Y-68376793D01*
X163254088Y-68429519D01*
X163254083Y-68429523D01*
X163179523Y-68504083D01*
X163179515Y-68504093D01*
X163178259Y-68506270D01*
X163177253Y-68507041D01*
X163177066Y-68507286D01*
X163177000Y-68507235D01*
X163140915Y-68534923D01*
X163094248Y-68528777D01*
X163071741Y-68506270D01*
X163070484Y-68504093D01*
X163070482Y-68504090D01*
X163070480Y-68504087D01*
X162995913Y-68429520D01*
X162904587Y-68376793D01*
X162904584Y-68376792D01*
X162904580Y-68376790D01*
X162802730Y-68349500D01*
X162802727Y-68349500D01*
X162697273Y-68349500D01*
X162697270Y-68349500D01*
X162595419Y-68376790D01*
X162595413Y-68376793D01*
X162504088Y-68429519D01*
X162504083Y-68429523D01*
X162429523Y-68504083D01*
X162429515Y-68504093D01*
X162428259Y-68506270D01*
X162427253Y-68507041D01*
X162427066Y-68507286D01*
X162427000Y-68507235D01*
X162390915Y-68534923D01*
X162344248Y-68528777D01*
X162321741Y-68506270D01*
X162320484Y-68504093D01*
X162320482Y-68504090D01*
X162320480Y-68504087D01*
X162245913Y-68429520D01*
X162154587Y-68376793D01*
X162154584Y-68376792D01*
X162154580Y-68376790D01*
X162052730Y-68349500D01*
X162052727Y-68349500D01*
X161947273Y-68349500D01*
X161947270Y-68349500D01*
X161845419Y-68376790D01*
X161845413Y-68376793D01*
X161754088Y-68429519D01*
X161754083Y-68429523D01*
X161679523Y-68504083D01*
X161679515Y-68504093D01*
X161678259Y-68506270D01*
X161677253Y-68507041D01*
X161677066Y-68507286D01*
X161677000Y-68507235D01*
X161640915Y-68534923D01*
X161594248Y-68528777D01*
X161571741Y-68506270D01*
X161570484Y-68504093D01*
X161570482Y-68504090D01*
X161570480Y-68504087D01*
X161495913Y-68429520D01*
X161404587Y-68376793D01*
X161404584Y-68376792D01*
X161404580Y-68376790D01*
X161302730Y-68349500D01*
X161302727Y-68349500D01*
X161197273Y-68349500D01*
X161197270Y-68349500D01*
X161095419Y-68376790D01*
X161095413Y-68376793D01*
X161004088Y-68429519D01*
X161004083Y-68429523D01*
X160929523Y-68504083D01*
X160929515Y-68504093D01*
X160928259Y-68506270D01*
X160927253Y-68507041D01*
X160927066Y-68507286D01*
X160927000Y-68507235D01*
X160890915Y-68534923D01*
X160844248Y-68528777D01*
X160821741Y-68506270D01*
X160820484Y-68504093D01*
X160820482Y-68504090D01*
X160820480Y-68504087D01*
X160745913Y-68429520D01*
X160654587Y-68376793D01*
X160654584Y-68376792D01*
X160654580Y-68376790D01*
X160552730Y-68349500D01*
X160552727Y-68349500D01*
X160447273Y-68349500D01*
X160447270Y-68349500D01*
X160345419Y-68376790D01*
X160345413Y-68376793D01*
X160254088Y-68429519D01*
X160254083Y-68429523D01*
X160179523Y-68504083D01*
X160179515Y-68504093D01*
X160178259Y-68506270D01*
X160177253Y-68507041D01*
X160177066Y-68507286D01*
X160177000Y-68507235D01*
X160140915Y-68534923D01*
X160094248Y-68528777D01*
X160071741Y-68506270D01*
X160070484Y-68504093D01*
X160070482Y-68504090D01*
X160070480Y-68504087D01*
X159995913Y-68429520D01*
X159904587Y-68376793D01*
X159904584Y-68376792D01*
X159904580Y-68376790D01*
X159802730Y-68349500D01*
X159802727Y-68349500D01*
X159697273Y-68349500D01*
X159697270Y-68349500D01*
X159595419Y-68376790D01*
X159595413Y-68376793D01*
X159504088Y-68429519D01*
X159504083Y-68429523D01*
X159429523Y-68504083D01*
X159429515Y-68504093D01*
X159428259Y-68506270D01*
X159427253Y-68507041D01*
X159427066Y-68507286D01*
X159427000Y-68507235D01*
X159390915Y-68534923D01*
X159344248Y-68528777D01*
X159321741Y-68506270D01*
X159320484Y-68504093D01*
X159320482Y-68504090D01*
X159320480Y-68504087D01*
X159245913Y-68429520D01*
X159154587Y-68376793D01*
X159154584Y-68376792D01*
X159154580Y-68376790D01*
X159052730Y-68349500D01*
X159052727Y-68349500D01*
X158947273Y-68349500D01*
X158947270Y-68349500D01*
X158845419Y-68376790D01*
X158845413Y-68376793D01*
X158754088Y-68429519D01*
X158754083Y-68429523D01*
X158679523Y-68504083D01*
X158679519Y-68504088D01*
X158626793Y-68595413D01*
X158626790Y-68595419D01*
X158599500Y-68697269D01*
X147940425Y-68697269D01*
X147956186Y-68673681D01*
X147956189Y-68673675D01*
X147957832Y-68669709D01*
X147957833Y-68669707D01*
X148031570Y-68491690D01*
X148031572Y-68491683D01*
X148069999Y-68298494D01*
X148070000Y-68298494D01*
X148070000Y-68050000D01*
X147370000Y-68050000D01*
X147370000Y-67550000D01*
X148070000Y-67550000D01*
X148070000Y-67301506D01*
X148069999Y-67301505D01*
X148031572Y-67108316D01*
X148031570Y-67108309D01*
X147956187Y-66926319D01*
X147956186Y-66926318D01*
X147846752Y-66762539D01*
X147846751Y-66762537D01*
X147707462Y-66623248D01*
X147707460Y-66623247D01*
X147543681Y-66513813D01*
X147543680Y-66513812D01*
X147361688Y-66438428D01*
X147361683Y-66438427D01*
X147320000Y-66430135D01*
X147320000Y-67233011D01*
X147310060Y-67215795D01*
X147254205Y-67159940D01*
X147185796Y-67120444D01*
X147109496Y-67100000D01*
X147030504Y-67100000D01*
X146954204Y-67120444D01*
X146885795Y-67159940D01*
X146829940Y-67215795D01*
X146820000Y-67233011D01*
X146820000Y-66430136D01*
X146819999Y-66430135D01*
X146778316Y-66438427D01*
X146778311Y-66438428D01*
X146596319Y-66513812D01*
X146596318Y-66513813D01*
X146432539Y-66623247D01*
X146432537Y-66623248D01*
X146293248Y-66762537D01*
X146293247Y-66762539D01*
X146183813Y-66926318D01*
X146183812Y-66926319D01*
X146108429Y-67108309D01*
X146108427Y-67108316D01*
X146070000Y-67301505D01*
X139429999Y-67301505D01*
X139391572Y-67108316D01*
X139391570Y-67108309D01*
X139316187Y-66926319D01*
X139316186Y-66926318D01*
X139206752Y-66762539D01*
X139206751Y-66762537D01*
X139067462Y-66623248D01*
X139067460Y-66623247D01*
X138903681Y-66513813D01*
X138903680Y-66513812D01*
X138721688Y-66438428D01*
X138721683Y-66438427D01*
X138680000Y-66430135D01*
X138680000Y-67233011D01*
X138670060Y-67215795D01*
X138614205Y-67159940D01*
X138545796Y-67120444D01*
X138469496Y-67100000D01*
X138390504Y-67100000D01*
X138314204Y-67120444D01*
X138245795Y-67159940D01*
X138189940Y-67215795D01*
X138180000Y-67233011D01*
X138180000Y-66430136D01*
X138179999Y-66430135D01*
X138138316Y-66438427D01*
X138138311Y-66438428D01*
X137956319Y-66513812D01*
X137956318Y-66513813D01*
X137792539Y-66623247D01*
X137792537Y-66623248D01*
X137653248Y-66762537D01*
X137653247Y-66762539D01*
X137543813Y-66926318D01*
X137543812Y-66926319D01*
X137468429Y-67108309D01*
X137468427Y-67108316D01*
X137430000Y-67301505D01*
X130504940Y-67301505D01*
X130551444Y-67255001D01*
X130671717Y-67134727D01*
X130617557Y-67095379D01*
X130428222Y-66998907D01*
X130428221Y-66998906D01*
X130226126Y-66933242D01*
X130016250Y-66900000D01*
X129803749Y-66900000D01*
X129593873Y-66933242D01*
X129391778Y-66998906D01*
X129391777Y-66998907D01*
X129202446Y-67095377D01*
X129148281Y-67134727D01*
X129780591Y-67767037D01*
X129717007Y-67784075D01*
X129602993Y-67849901D01*
X129509901Y-67942993D01*
X129444075Y-68057007D01*
X129427037Y-68120591D01*
X128794727Y-67488281D01*
X128755377Y-67542446D01*
X128658907Y-67731777D01*
X128658906Y-67731778D01*
X128593242Y-67933873D01*
X128574438Y-68052596D01*
X128549844Y-68092730D01*
X128504074Y-68103718D01*
X128463940Y-68079124D01*
X128452952Y-68052596D01*
X128450030Y-68034147D01*
X128443402Y-67992299D01*
X128389873Y-67827555D01*
X128311232Y-67673212D01*
X128215474Y-67541413D01*
X128209415Y-67533073D01*
X128086926Y-67410584D01*
X127946790Y-67308769D01*
X127792446Y-67230127D01*
X127771025Y-67223167D01*
X127691401Y-67197295D01*
X127627702Y-67176598D01*
X127627704Y-67176598D01*
X127456614Y-67149500D01*
X127456611Y-67149500D01*
X127283389Y-67149500D01*
X127283385Y-67149500D01*
X127112296Y-67176598D01*
X126947553Y-67230127D01*
X126793209Y-67308769D01*
X126653073Y-67410584D01*
X126653073Y-67410585D01*
X126653072Y-67410586D01*
X126530586Y-67533072D01*
X126530585Y-67533073D01*
X126530584Y-67533073D01*
X126428769Y-67673209D01*
X126350127Y-67827553D01*
X126296598Y-67992296D01*
X126269500Y-68163385D01*
X125930499Y-68163385D01*
X125903402Y-67992299D01*
X125849873Y-67827555D01*
X125771232Y-67673212D01*
X125675474Y-67541413D01*
X125669415Y-67533073D01*
X125546926Y-67410584D01*
X125406790Y-67308769D01*
X125252446Y-67230127D01*
X125087702Y-67176598D01*
X125087704Y-67176598D01*
X124916614Y-67149500D01*
X124916611Y-67149500D01*
X124743389Y-67149500D01*
X124743385Y-67149500D01*
X124572296Y-67176598D01*
X124407553Y-67230127D01*
X124253209Y-67308769D01*
X124113073Y-67410584D01*
X124113073Y-67410585D01*
X124113072Y-67410586D01*
X123990586Y-67533072D01*
X123990585Y-67533073D01*
X123990584Y-67533073D01*
X123888769Y-67673209D01*
X123810127Y-67827553D01*
X123756598Y-67992296D01*
X123729500Y-68163385D01*
X123390499Y-68163385D01*
X123363402Y-67992299D01*
X123309873Y-67827555D01*
X123231232Y-67673212D01*
X123135474Y-67541413D01*
X123129415Y-67533073D01*
X123006926Y-67410584D01*
X122866790Y-67308769D01*
X122712446Y-67230127D01*
X122547702Y-67176598D01*
X122547704Y-67176598D01*
X122376614Y-67149500D01*
X122376611Y-67149500D01*
X122203389Y-67149500D01*
X122203385Y-67149500D01*
X122032296Y-67176598D01*
X121867553Y-67230127D01*
X121713209Y-67308769D01*
X121573073Y-67410584D01*
X121573073Y-67410585D01*
X121573072Y-67410586D01*
X121450586Y-67533072D01*
X121450585Y-67533073D01*
X121450584Y-67533073D01*
X121348769Y-67673209D01*
X121270127Y-67827553D01*
X121216598Y-67992296D01*
X121189500Y-68163385D01*
X120850500Y-68163385D01*
X120850500Y-67375323D01*
X120850499Y-67375322D01*
X120835967Y-67302261D01*
X120804389Y-67255001D01*
X120780601Y-67219399D01*
X120708844Y-67171453D01*
X120697738Y-67164032D01*
X120624677Y-67149500D01*
X120624674Y-67149500D01*
X118875326Y-67149500D01*
X118875323Y-67149500D01*
X118802261Y-67164032D01*
X118719399Y-67219399D01*
X118664032Y-67302261D01*
X118649500Y-67375322D01*
X108932906Y-67375322D01*
X109062787Y-67171449D01*
X109065863Y-67167058D01*
X109301561Y-66859889D01*
X109304973Y-66855822D01*
X109566576Y-66570333D01*
X109570333Y-66566576D01*
X109855822Y-66304973D01*
X109859889Y-66301561D01*
X110167061Y-66065860D01*
X110171453Y-66062785D01*
X110498005Y-65854748D01*
X110502616Y-65852086D01*
X110846062Y-65673299D01*
X110850886Y-65671049D01*
X111208604Y-65522878D01*
X111213637Y-65521046D01*
X111582906Y-65404616D01*
X111588051Y-65403238D01*
X111966065Y-65319435D01*
X111971308Y-65318510D01*
X112355202Y-65267969D01*
X112360518Y-65267505D01*
X112714446Y-65252052D01*
X112748650Y-65250559D01*
X112751332Y-65250500D01*
X112815892Y-65250500D01*
X172684108Y-65250500D01*
X172748668Y-65250500D01*
X172751351Y-65250559D01*
G37*
%TD.AperFunction*%
%TD*%
%TA.AperFunction,Conductor*%
%TO.N,GNDA*%
G36*
X157042587Y-94019685D02*
G01*
X157088342Y-94072489D01*
X157098286Y-94141647D01*
X157069261Y-94205203D01*
X157056751Y-94217713D01*
X157009047Y-94259047D01*
X156845072Y-94448285D01*
X156845068Y-94448291D01*
X156709705Y-94658920D01*
X156709695Y-94658938D01*
X156605678Y-94886702D01*
X156605676Y-94886708D01*
X156535136Y-95126951D01*
X156535135Y-95126955D01*
X156499500Y-95374803D01*
X156499500Y-95625196D01*
X156535135Y-95873044D01*
X156535136Y-95873048D01*
X156605676Y-96113291D01*
X156605678Y-96113297D01*
X156709695Y-96341061D01*
X156709705Y-96341079D01*
X156845068Y-96551708D01*
X156845072Y-96551714D01*
X157009047Y-96740952D01*
X157198285Y-96904927D01*
X157198291Y-96904931D01*
X157408920Y-97040294D01*
X157408928Y-97040298D01*
X157408932Y-97040301D01*
X157408935Y-97040302D01*
X157408938Y-97040304D01*
X157636702Y-97144321D01*
X157636708Y-97144323D01*
X157839788Y-97203951D01*
X157876954Y-97214864D01*
X158124802Y-97250500D01*
X158184108Y-97250500D01*
X167934108Y-97250500D01*
X167995572Y-97250500D01*
X168004418Y-97250816D01*
X168240140Y-97267674D01*
X168257641Y-97270191D01*
X168484229Y-97319482D01*
X168501188Y-97324461D01*
X168635346Y-97374500D01*
X168718462Y-97405501D01*
X168734555Y-97412851D01*
X168938068Y-97523977D01*
X168952951Y-97533542D01*
X169138579Y-97672501D01*
X169151950Y-97684087D01*
X169315912Y-97848049D01*
X169327498Y-97861420D01*
X169466457Y-98047048D01*
X169476022Y-98061931D01*
X169587148Y-98265444D01*
X169594498Y-98281537D01*
X169675535Y-98498803D01*
X169680519Y-98515779D01*
X169729807Y-98742352D01*
X169732325Y-98759864D01*
X169749184Y-98995581D01*
X169749500Y-99004427D01*
X169749500Y-109125196D01*
X169785135Y-109373044D01*
X169785136Y-109373048D01*
X169855676Y-109613291D01*
X169855678Y-109613297D01*
X169959695Y-109841061D01*
X169959705Y-109841079D01*
X170095068Y-110051708D01*
X170095072Y-110051714D01*
X170259047Y-110240952D01*
X170448285Y-110404927D01*
X170448291Y-110404931D01*
X170658920Y-110540294D01*
X170658928Y-110540298D01*
X170658932Y-110540301D01*
X170658935Y-110540302D01*
X170658938Y-110540304D01*
X170886702Y-110644321D01*
X170886708Y-110644323D01*
X171089788Y-110703951D01*
X171126954Y-110714864D01*
X171374802Y-110750500D01*
X171374803Y-110750500D01*
X171625197Y-110750500D01*
X171625198Y-110750500D01*
X171873046Y-110714864D01*
X172001803Y-110677057D01*
X172113291Y-110644323D01*
X172113297Y-110644321D01*
X172113297Y-110644320D01*
X172113300Y-110644320D01*
X172341068Y-110540301D01*
X172551715Y-110404927D01*
X172740952Y-110240952D01*
X172904927Y-110051715D01*
X173040301Y-109841068D01*
X173144320Y-109613300D01*
X173160121Y-109559488D01*
X173178940Y-109495394D01*
X173214864Y-109373046D01*
X173250500Y-109125198D01*
X173250500Y-109000000D01*
X173250500Y-108934108D01*
X173250500Y-98934108D01*
X173250500Y-98782838D01*
X173227653Y-98507109D01*
X173214635Y-98350002D01*
X173146302Y-97940509D01*
X173143146Y-97921596D01*
X173036526Y-97500561D01*
X172895501Y-97089770D01*
X172721035Y-96692027D01*
X172514319Y-96310050D01*
X172464059Y-96233122D01*
X172385770Y-96113291D01*
X172276766Y-95946448D01*
X172009998Y-95603705D01*
X171969296Y-95559491D01*
X171715838Y-95284161D01*
X171396295Y-94990002D01*
X171053560Y-94723240D01*
X171053559Y-94723239D01*
X171053555Y-94723236D01*
X171053552Y-94723234D01*
X170888195Y-94615201D01*
X170689951Y-94485681D01*
X170307972Y-94278964D01*
X170307968Y-94278963D01*
X170289561Y-94270889D01*
X170213570Y-94237556D01*
X170160084Y-94192600D01*
X170139394Y-94125864D01*
X170158069Y-94058536D01*
X170210179Y-94011993D01*
X170263380Y-94000000D01*
X177125500Y-94000000D01*
X177192539Y-94019685D01*
X177238294Y-94072489D01*
X177249500Y-94124000D01*
X177249500Y-129747293D01*
X177249382Y-129752702D01*
X177232614Y-130136750D01*
X177231671Y-130147526D01*
X177181849Y-130525957D01*
X177179971Y-130536610D01*
X177097354Y-130909272D01*
X177094554Y-130919721D01*
X176979775Y-131283755D01*
X176976075Y-131293921D01*
X176830002Y-131646572D01*
X176825430Y-131656376D01*
X176649183Y-131994942D01*
X176643775Y-132004310D01*
X176438681Y-132326244D01*
X176432476Y-132335105D01*
X176200110Y-132637930D01*
X176193156Y-132646217D01*
X175935284Y-132927635D01*
X175927635Y-132935284D01*
X175646217Y-133193156D01*
X175637930Y-133200110D01*
X175335105Y-133432476D01*
X175326244Y-133438681D01*
X175004310Y-133643775D01*
X174994942Y-133649183D01*
X174656376Y-133825430D01*
X174646572Y-133830002D01*
X174293921Y-133976075D01*
X174283755Y-133979775D01*
X173919721Y-134094554D01*
X173909272Y-134097354D01*
X173536610Y-134179971D01*
X173525957Y-134181849D01*
X173147526Y-134231671D01*
X173136750Y-134232614D01*
X172752703Y-134249382D01*
X172747294Y-134249500D01*
X112752706Y-134249500D01*
X112747297Y-134249382D01*
X112363249Y-134232614D01*
X112352473Y-134231671D01*
X111974042Y-134181849D01*
X111963389Y-134179971D01*
X111590727Y-134097354D01*
X111580278Y-134094554D01*
X111216244Y-133979775D01*
X111206078Y-133976075D01*
X110853427Y-133830002D01*
X110843623Y-133825430D01*
X110505057Y-133649183D01*
X110495689Y-133643775D01*
X110173755Y-133438681D01*
X110164894Y-133432476D01*
X109862069Y-133200110D01*
X109853782Y-133193156D01*
X109572364Y-132935284D01*
X109564715Y-132927635D01*
X109306843Y-132646217D01*
X109299889Y-132637930D01*
X109067523Y-132335105D01*
X109061318Y-132326244D01*
X108856224Y-132004310D01*
X108850816Y-131994942D01*
X108749596Y-131800500D01*
X108674566Y-131656369D01*
X108669997Y-131646572D01*
X108647800Y-131592984D01*
X108523920Y-131293911D01*
X108520224Y-131283755D01*
X108463830Y-131104895D01*
X108405442Y-130919710D01*
X108402648Y-130909284D01*
X108320025Y-130536597D01*
X108318152Y-130525971D01*
X108268326Y-130147506D01*
X108267386Y-130136771D01*
X108250618Y-129752702D01*
X108250500Y-129747293D01*
X108250500Y-129615602D01*
X110699500Y-129615602D01*
X110699500Y-129884397D01*
X110734582Y-130150880D01*
X110734583Y-130150885D01*
X110734584Y-130150891D01*
X110734585Y-130150893D01*
X110804152Y-130410524D01*
X110907011Y-130658850D01*
X110907019Y-130658866D01*
X110987830Y-130798832D01*
X111041413Y-130891641D01*
X111041415Y-130891644D01*
X111041416Y-130891645D01*
X111205042Y-131104888D01*
X111205048Y-131104895D01*
X111395104Y-131294951D01*
X111395110Y-131294956D01*
X111608359Y-131458587D01*
X111757968Y-131544964D01*
X111841133Y-131592980D01*
X111841149Y-131592988D01*
X111982582Y-131651571D01*
X112089474Y-131695847D01*
X112349109Y-131765416D01*
X112537319Y-131790193D01*
X112615602Y-131800500D01*
X112615603Y-131800500D01*
X112884398Y-131800500D01*
X112944905Y-131792534D01*
X113150891Y-131765416D01*
X113410526Y-131695847D01*
X113597457Y-131618417D01*
X113658850Y-131592988D01*
X113658853Y-131592986D01*
X113658859Y-131592984D01*
X113891641Y-131458587D01*
X114104890Y-131294956D01*
X114294956Y-131104890D01*
X114458587Y-130891641D01*
X114592984Y-130658859D01*
X114695847Y-130410526D01*
X114765416Y-130150891D01*
X114800500Y-129884397D01*
X114800500Y-129615603D01*
X114765416Y-129349109D01*
X114695847Y-129089474D01*
X114643270Y-128962541D01*
X114592988Y-128841149D01*
X114592980Y-128841133D01*
X114520640Y-128715838D01*
X114458587Y-128608359D01*
X114391084Y-128520387D01*
X114294957Y-128395111D01*
X114294951Y-128395104D01*
X114104895Y-128205048D01*
X114104888Y-128205042D01*
X113891645Y-128041416D01*
X113891644Y-128041415D01*
X113891641Y-128041413D01*
X113798832Y-127987830D01*
X113658866Y-127907019D01*
X113658850Y-127907011D01*
X113410524Y-127804152D01*
X113271414Y-127766878D01*
X113150891Y-127734584D01*
X113150885Y-127734583D01*
X113150880Y-127734582D01*
X112884398Y-127699500D01*
X112884397Y-127699500D01*
X112615603Y-127699500D01*
X112615602Y-127699500D01*
X112349119Y-127734582D01*
X112349112Y-127734583D01*
X112349109Y-127734584D01*
X112294239Y-127749286D01*
X112089475Y-127804152D01*
X111841149Y-127907011D01*
X111841133Y-127907019D01*
X111608354Y-128041416D01*
X111395111Y-128205042D01*
X111395104Y-128205048D01*
X111205048Y-128395104D01*
X111205042Y-128395111D01*
X111041416Y-128608354D01*
X110907019Y-128841133D01*
X110907011Y-128841149D01*
X110804152Y-129089475D01*
X110761274Y-129249500D01*
X110736741Y-129341061D01*
X110734585Y-129349106D01*
X110734582Y-129349119D01*
X110699500Y-129615602D01*
X108250500Y-129615602D01*
X108250500Y-117947273D01*
X125849500Y-117947273D01*
X125849500Y-118052727D01*
X125876793Y-118154587D01*
X125929520Y-118245913D01*
X126004087Y-118320480D01*
X126095413Y-118373207D01*
X126197273Y-118400500D01*
X126197275Y-118400500D01*
X126302725Y-118400500D01*
X126302727Y-118400500D01*
X126404587Y-118373207D01*
X126495913Y-118320480D01*
X126570480Y-118245913D01*
X126623207Y-118154587D01*
X126650500Y-118052727D01*
X126650500Y-117947273D01*
X126623207Y-117845413D01*
X126570480Y-117754087D01*
X126495913Y-117679520D01*
X126404587Y-117626793D01*
X126302727Y-117599500D01*
X126197273Y-117599500D01*
X126095413Y-117626793D01*
X126095410Y-117626794D01*
X126004085Y-117679521D01*
X125929521Y-117754085D01*
X125876794Y-117845410D01*
X125876793Y-117845413D01*
X125849500Y-117947273D01*
X108250500Y-117947273D01*
X108250500Y-114927525D01*
X119949500Y-114927525D01*
X119949500Y-115072475D01*
X119987016Y-115212485D01*
X119987017Y-115212488D01*
X120059488Y-115338011D01*
X120059490Y-115338013D01*
X120059491Y-115338015D01*
X120161985Y-115440509D01*
X120161986Y-115440510D01*
X120161988Y-115440511D01*
X120287511Y-115512982D01*
X120287512Y-115512982D01*
X120287515Y-115512984D01*
X120427525Y-115550500D01*
X120427528Y-115550500D01*
X120572472Y-115550500D01*
X120572475Y-115550500D01*
X120712485Y-115512984D01*
X120838015Y-115440509D01*
X120940509Y-115338015D01*
X121012984Y-115212485D01*
X121050500Y-115072475D01*
X121050500Y-114927525D01*
X133449500Y-114927525D01*
X133449500Y-115072475D01*
X133487016Y-115212485D01*
X133487017Y-115212488D01*
X133559488Y-115338011D01*
X133559490Y-115338013D01*
X133559491Y-115338015D01*
X133661985Y-115440509D01*
X133661986Y-115440510D01*
X133661988Y-115440511D01*
X133787511Y-115512982D01*
X133787512Y-115512982D01*
X133787515Y-115512984D01*
X133927525Y-115550500D01*
X133927528Y-115550500D01*
X134072472Y-115550500D01*
X134072475Y-115550500D01*
X134212485Y-115512984D01*
X134338015Y-115440509D01*
X134440509Y-115338015D01*
X134512984Y-115212485D01*
X134550500Y-115072475D01*
X134550500Y-114927525D01*
X134536373Y-114874803D01*
X136749500Y-114874803D01*
X136749500Y-125217172D01*
X136785364Y-125649997D01*
X136835919Y-125952951D01*
X136856854Y-126078404D01*
X136963474Y-126499439D01*
X136963476Y-126499446D01*
X136963478Y-126499452D01*
X137104500Y-126910233D01*
X137212758Y-127157036D01*
X137247865Y-127237073D01*
X137278963Y-127307968D01*
X137278964Y-127307972D01*
X137485681Y-127689951D01*
X137567575Y-127815298D01*
X137715305Y-128041416D01*
X137723239Y-128053559D01*
X137723240Y-128053560D01*
X137990002Y-128396295D01*
X138284161Y-128715838D01*
X138456786Y-128874750D01*
X138603705Y-129009998D01*
X138946448Y-129276766D01*
X139310050Y-129514319D01*
X139692027Y-129721035D01*
X140089770Y-129895501D01*
X140500561Y-130036526D01*
X140921596Y-130143146D01*
X141243494Y-130196861D01*
X141350002Y-130214635D01*
X141725999Y-130245790D01*
X141782838Y-130250500D01*
X141782842Y-130250500D01*
X151875197Y-130250500D01*
X151875198Y-130250500D01*
X152123046Y-130214864D01*
X152251803Y-130177057D01*
X152363291Y-130144323D01*
X152363297Y-130144321D01*
X152363297Y-130144320D01*
X152363300Y-130144320D01*
X152591068Y-130040301D01*
X152801715Y-129904927D01*
X152990952Y-129740952D01*
X153154927Y-129551715D01*
X153290301Y-129341068D01*
X153394320Y-129113300D01*
X153396359Y-129106358D01*
X153438586Y-128962541D01*
X153464864Y-128873046D01*
X153500500Y-128625198D01*
X153500500Y-128374803D01*
X156499500Y-128374803D01*
X156499500Y-128625196D01*
X156535135Y-128873044D01*
X156535136Y-128873048D01*
X156605676Y-129113291D01*
X156605678Y-129113297D01*
X156709695Y-129341061D01*
X156709705Y-129341079D01*
X156845068Y-129551708D01*
X156845072Y-129551714D01*
X157009047Y-129740952D01*
X157198285Y-129904927D01*
X157198291Y-129904931D01*
X157408920Y-130040294D01*
X157408928Y-130040298D01*
X157408932Y-130040301D01*
X157408935Y-130040302D01*
X157408938Y-130040304D01*
X157636702Y-130144321D01*
X157636708Y-130144323D01*
X157839788Y-130203951D01*
X157876954Y-130214864D01*
X158124802Y-130250500D01*
X158124803Y-130250500D01*
X163375197Y-130250500D01*
X163375198Y-130250500D01*
X163623046Y-130214864D01*
X163751803Y-130177057D01*
X163863291Y-130144323D01*
X163863297Y-130144321D01*
X163863297Y-130144320D01*
X163863300Y-130144320D01*
X164091068Y-130040301D01*
X164301715Y-129904927D01*
X164490952Y-129740952D01*
X164599569Y-129615602D01*
X170699500Y-129615602D01*
X170699500Y-129884397D01*
X170734582Y-130150880D01*
X170734583Y-130150885D01*
X170734584Y-130150891D01*
X170734585Y-130150893D01*
X170804152Y-130410524D01*
X170907011Y-130658850D01*
X170907019Y-130658866D01*
X170987830Y-130798832D01*
X171041413Y-130891641D01*
X171041415Y-130891644D01*
X171041416Y-130891645D01*
X171205042Y-131104888D01*
X171205048Y-131104895D01*
X171395104Y-131294951D01*
X171395110Y-131294956D01*
X171608359Y-131458587D01*
X171757968Y-131544964D01*
X171841133Y-131592980D01*
X171841149Y-131592988D01*
X171982582Y-131651571D01*
X172089474Y-131695847D01*
X172349109Y-131765416D01*
X172537319Y-131790193D01*
X172615602Y-131800500D01*
X172615603Y-131800500D01*
X172884398Y-131800500D01*
X172944905Y-131792534D01*
X173150891Y-131765416D01*
X173410526Y-131695847D01*
X173597457Y-131618417D01*
X173658850Y-131592988D01*
X173658853Y-131592986D01*
X173658859Y-131592984D01*
X173891641Y-131458587D01*
X174104890Y-131294956D01*
X174294956Y-131104890D01*
X174458587Y-130891641D01*
X174592984Y-130658859D01*
X174695847Y-130410526D01*
X174765416Y-130150891D01*
X174800500Y-129884397D01*
X174800500Y-129615603D01*
X174765416Y-129349109D01*
X174695847Y-129089474D01*
X174643270Y-128962541D01*
X174592988Y-128841149D01*
X174592980Y-128841133D01*
X174520640Y-128715838D01*
X174458587Y-128608359D01*
X174391084Y-128520387D01*
X174294957Y-128395111D01*
X174294951Y-128395104D01*
X174104895Y-128205048D01*
X174104888Y-128205042D01*
X173891645Y-128041416D01*
X173891644Y-128041415D01*
X173891641Y-128041413D01*
X173798832Y-127987830D01*
X173658866Y-127907019D01*
X173658850Y-127907011D01*
X173410524Y-127804152D01*
X173271414Y-127766878D01*
X173150891Y-127734584D01*
X173150885Y-127734583D01*
X173150880Y-127734582D01*
X172884398Y-127699500D01*
X172884397Y-127699500D01*
X172615603Y-127699500D01*
X172615602Y-127699500D01*
X172349119Y-127734582D01*
X172349112Y-127734583D01*
X172349109Y-127734584D01*
X172294239Y-127749286D01*
X172089475Y-127804152D01*
X171841149Y-127907011D01*
X171841133Y-127907019D01*
X171608354Y-128041416D01*
X171395111Y-128205042D01*
X171395104Y-128205048D01*
X171205048Y-128395104D01*
X171205042Y-128395111D01*
X171041416Y-128608354D01*
X170907019Y-128841133D01*
X170907011Y-128841149D01*
X170804152Y-129089475D01*
X170761274Y-129249500D01*
X170736741Y-129341061D01*
X170734585Y-129349106D01*
X170734582Y-129349119D01*
X170699500Y-129615602D01*
X164599569Y-129615602D01*
X164654927Y-129551715D01*
X164678961Y-129514318D01*
X164790294Y-129341079D01*
X164790294Y-129341078D01*
X164790301Y-129341068D01*
X164894320Y-129113300D01*
X164896359Y-129106358D01*
X164938586Y-128962541D01*
X164964864Y-128873046D01*
X165000500Y-128625198D01*
X165000500Y-128374802D01*
X164964864Y-128126954D01*
X164927143Y-127998487D01*
X164894323Y-127886708D01*
X164894321Y-127886702D01*
X164790304Y-127658938D01*
X164790294Y-127658920D01*
X164654931Y-127448291D01*
X164654927Y-127448285D01*
X164490952Y-127259047D01*
X164301714Y-127095072D01*
X164301708Y-127095068D01*
X164091079Y-126959705D01*
X164091061Y-126959695D01*
X163863297Y-126855678D01*
X163863291Y-126855676D01*
X163623048Y-126785136D01*
X163623044Y-126785135D01*
X163446468Y-126759747D01*
X163375198Y-126749500D01*
X163315892Y-126749500D01*
X158315892Y-126749500D01*
X158250000Y-126749500D01*
X158124802Y-126749500D01*
X158089167Y-126754623D01*
X157876955Y-126785135D01*
X157876951Y-126785136D01*
X157636708Y-126855676D01*
X157636702Y-126855678D01*
X157408938Y-126959695D01*
X157408920Y-126959705D01*
X157198291Y-127095068D01*
X157198285Y-127095072D01*
X157009047Y-127259047D01*
X156845072Y-127448285D01*
X156845068Y-127448291D01*
X156709705Y-127658920D01*
X156709695Y-127658938D01*
X156605678Y-127886702D01*
X156605676Y-127886708D01*
X156535136Y-128126951D01*
X156535135Y-128126955D01*
X156499500Y-128374803D01*
X153500500Y-128374803D01*
X153500500Y-128374802D01*
X153464864Y-128126954D01*
X153427143Y-127998487D01*
X153394323Y-127886708D01*
X153394321Y-127886702D01*
X153290304Y-127658938D01*
X153290294Y-127658920D01*
X153154931Y-127448291D01*
X153154927Y-127448285D01*
X152990952Y-127259047D01*
X152801714Y-127095072D01*
X152801708Y-127095068D01*
X152591079Y-126959705D01*
X152591061Y-126959695D01*
X152363297Y-126855678D01*
X152363291Y-126855676D01*
X152123048Y-126785136D01*
X152123044Y-126785135D01*
X151946468Y-126759747D01*
X151875198Y-126749500D01*
X151875196Y-126749500D01*
X142004428Y-126749500D01*
X141995582Y-126749184D01*
X141759864Y-126732325D01*
X141742352Y-126729807D01*
X141515779Y-126680519D01*
X141498803Y-126675535D01*
X141281537Y-126594498D01*
X141265444Y-126587148D01*
X141061931Y-126476022D01*
X141047048Y-126466457D01*
X140861420Y-126327498D01*
X140848049Y-126315912D01*
X140684087Y-126151950D01*
X140672501Y-126138579D01*
X140533542Y-125952951D01*
X140523977Y-125938068D01*
X140412851Y-125734555D01*
X140405501Y-125718462D01*
X140375740Y-125638672D01*
X140324461Y-125501188D01*
X140319482Y-125484229D01*
X140270191Y-125257641D01*
X140267674Y-125240135D01*
X140250816Y-125004418D01*
X140250500Y-124995572D01*
X140250500Y-121155328D01*
X143929500Y-121155328D01*
X143929500Y-121394671D01*
X143966939Y-121631051D01*
X144040898Y-121858674D01*
X144149554Y-122071919D01*
X144290221Y-122265532D01*
X144290225Y-122265537D01*
X144459462Y-122434774D01*
X144459467Y-122434778D01*
X144628347Y-122557476D01*
X144653084Y-122575448D01*
X144788961Y-122644681D01*
X144866325Y-122684101D01*
X144866327Y-122684101D01*
X144866330Y-122684103D01*
X145093949Y-122758061D01*
X145215735Y-122777349D01*
X145330329Y-122795500D01*
X145330334Y-122795500D01*
X145569671Y-122795500D01*
X145674135Y-122778953D01*
X145806051Y-122758061D01*
X146033670Y-122684103D01*
X146246916Y-122575448D01*
X146440539Y-122434773D01*
X146609773Y-122265539D01*
X146750448Y-122071916D01*
X146859103Y-121858670D01*
X146933061Y-121631051D01*
X146953953Y-121499135D01*
X146970500Y-121394671D01*
X146970500Y-121155328D01*
X162979500Y-121155328D01*
X162979500Y-121394671D01*
X163016939Y-121631051D01*
X163090898Y-121858674D01*
X163199554Y-122071919D01*
X163340221Y-122265532D01*
X163340225Y-122265537D01*
X163509462Y-122434774D01*
X163509467Y-122434778D01*
X163678347Y-122557476D01*
X163703084Y-122575448D01*
X163838961Y-122644681D01*
X163916325Y-122684101D01*
X163916327Y-122684101D01*
X163916330Y-122684103D01*
X164143949Y-122758061D01*
X164265735Y-122777349D01*
X164380329Y-122795500D01*
X164380334Y-122795500D01*
X164619671Y-122795500D01*
X164724135Y-122778953D01*
X164856051Y-122758061D01*
X165083670Y-122684103D01*
X165296916Y-122575448D01*
X165490539Y-122434773D01*
X165659773Y-122265539D01*
X165800448Y-122071916D01*
X165909103Y-121858670D01*
X165983061Y-121631051D01*
X166003953Y-121499135D01*
X166020500Y-121394671D01*
X166020500Y-121155328D01*
X166000644Y-121029970D01*
X165983061Y-120918949D01*
X165909103Y-120691330D01*
X165909101Y-120691327D01*
X165909101Y-120691325D01*
X165840651Y-120556987D01*
X165800448Y-120478084D01*
X165674586Y-120304849D01*
X165659778Y-120284467D01*
X165659774Y-120284462D01*
X165490537Y-120115225D01*
X165490532Y-120115221D01*
X165296919Y-119974554D01*
X165296918Y-119974553D01*
X165296916Y-119974552D01*
X165217541Y-119934108D01*
X165083674Y-119865898D01*
X164856051Y-119791939D01*
X164619671Y-119754500D01*
X164619666Y-119754500D01*
X164380334Y-119754500D01*
X164380329Y-119754500D01*
X164143948Y-119791939D01*
X163916325Y-119865898D01*
X163703080Y-119974554D01*
X163509467Y-120115221D01*
X163509462Y-120115225D01*
X163340225Y-120284462D01*
X163340221Y-120284467D01*
X163199554Y-120478080D01*
X163090898Y-120691325D01*
X163016939Y-120918948D01*
X162979500Y-121155328D01*
X146970500Y-121155328D01*
X146950644Y-121029970D01*
X146933061Y-120918949D01*
X146859103Y-120691330D01*
X146859101Y-120691327D01*
X146859101Y-120691325D01*
X146790651Y-120556987D01*
X146750448Y-120478084D01*
X146624586Y-120304849D01*
X146609778Y-120284467D01*
X146609774Y-120284462D01*
X146440537Y-120115225D01*
X146440532Y-120115221D01*
X146246919Y-119974554D01*
X146246918Y-119974553D01*
X146246916Y-119974552D01*
X146167541Y-119934108D01*
X146033674Y-119865898D01*
X145806051Y-119791939D01*
X145569671Y-119754500D01*
X145569666Y-119754500D01*
X145330334Y-119754500D01*
X145330329Y-119754500D01*
X145093948Y-119791939D01*
X144866325Y-119865898D01*
X144653080Y-119974554D01*
X144459467Y-120115221D01*
X144459462Y-120115225D01*
X144290225Y-120284462D01*
X144290221Y-120284467D01*
X144149554Y-120478080D01*
X144040898Y-120691325D01*
X143966939Y-120918948D01*
X143929500Y-121155328D01*
X140250500Y-121155328D01*
X140250500Y-114874803D01*
X169749500Y-114874803D01*
X169749500Y-120125196D01*
X169785135Y-120373044D01*
X169785136Y-120373048D01*
X169855676Y-120613291D01*
X169855678Y-120613297D01*
X169959695Y-120841061D01*
X169959705Y-120841079D01*
X170095068Y-121051708D01*
X170095072Y-121051714D01*
X170259047Y-121240952D01*
X170448285Y-121404927D01*
X170448291Y-121404931D01*
X170658920Y-121540294D01*
X170658928Y-121540298D01*
X170658932Y-121540301D01*
X170658935Y-121540302D01*
X170658938Y-121540304D01*
X170886702Y-121644321D01*
X170886708Y-121644323D01*
X171089788Y-121703951D01*
X171126954Y-121714864D01*
X171374802Y-121750500D01*
X171374803Y-121750500D01*
X171625197Y-121750500D01*
X171625198Y-121750500D01*
X171873046Y-121714864D01*
X172001803Y-121677057D01*
X172113291Y-121644323D01*
X172113297Y-121644321D01*
X172113297Y-121644320D01*
X172113300Y-121644320D01*
X172341068Y-121540301D01*
X172551715Y-121404927D01*
X172740952Y-121240952D01*
X172904927Y-121051715D01*
X173040301Y-120841068D01*
X173144320Y-120613300D01*
X173214864Y-120373046D01*
X173250500Y-120125198D01*
X173250500Y-120000000D01*
X173250500Y-119934108D01*
X173250500Y-114934108D01*
X173250500Y-114874802D01*
X173214864Y-114626954D01*
X173195055Y-114559491D01*
X173144323Y-114386708D01*
X173144321Y-114386702D01*
X173040304Y-114158938D01*
X173040294Y-114158920D01*
X172904931Y-113948291D01*
X172904927Y-113948285D01*
X172740952Y-113759047D01*
X172551714Y-113595072D01*
X172551708Y-113595068D01*
X172341079Y-113459705D01*
X172341061Y-113459695D01*
X172113297Y-113355678D01*
X172113291Y-113355676D01*
X171873048Y-113285136D01*
X171873044Y-113285135D01*
X171696468Y-113259747D01*
X171625198Y-113249500D01*
X171374802Y-113249500D01*
X171339167Y-113254623D01*
X171126955Y-113285135D01*
X171126951Y-113285136D01*
X170886708Y-113355676D01*
X170886702Y-113355678D01*
X170658938Y-113459695D01*
X170658920Y-113459705D01*
X170448291Y-113595068D01*
X170448285Y-113595072D01*
X170259047Y-113759047D01*
X170095072Y-113948285D01*
X170095068Y-113948291D01*
X169959705Y-114158920D01*
X169959695Y-114158938D01*
X169855678Y-114386702D01*
X169855676Y-114386708D01*
X169785136Y-114626951D01*
X169785135Y-114626955D01*
X169749500Y-114874803D01*
X140250500Y-114874803D01*
X140214864Y-114626955D01*
X140214863Y-114626951D01*
X140144323Y-114386708D01*
X140144321Y-114386702D01*
X140040304Y-114158938D01*
X140040294Y-114158920D01*
X139904931Y-113948291D01*
X139904927Y-113948285D01*
X139740952Y-113759047D01*
X139551714Y-113595072D01*
X139551708Y-113595068D01*
X139341079Y-113459705D01*
X139341061Y-113459695D01*
X139113297Y-113355678D01*
X139113291Y-113355676D01*
X138873048Y-113285136D01*
X138873044Y-113285135D01*
X138696468Y-113259747D01*
X138625198Y-113249500D01*
X138374802Y-113249500D01*
X138339167Y-113254623D01*
X138126955Y-113285135D01*
X138126951Y-113285136D01*
X137886708Y-113355676D01*
X137886702Y-113355678D01*
X137658938Y-113459695D01*
X137658920Y-113459705D01*
X137448291Y-113595068D01*
X137448285Y-113595072D01*
X137259047Y-113759047D01*
X137095072Y-113948285D01*
X137095068Y-113948291D01*
X136959705Y-114158920D01*
X136959695Y-114158938D01*
X136855678Y-114386702D01*
X136855676Y-114386708D01*
X136785136Y-114626951D01*
X136785135Y-114626955D01*
X136749500Y-114874803D01*
X134536373Y-114874803D01*
X134512984Y-114787515D01*
X134459657Y-114695151D01*
X134440511Y-114661988D01*
X134440506Y-114661982D01*
X134338017Y-114559493D01*
X134338011Y-114559488D01*
X134212488Y-114487017D01*
X134212489Y-114487017D01*
X134201006Y-114483940D01*
X134072475Y-114449500D01*
X133927525Y-114449500D01*
X133798993Y-114483940D01*
X133787511Y-114487017D01*
X133661988Y-114559488D01*
X133661982Y-114559493D01*
X133559493Y-114661982D01*
X133559488Y-114661988D01*
X133487017Y-114787511D01*
X133487016Y-114787515D01*
X133449500Y-114927525D01*
X121050500Y-114927525D01*
X121012984Y-114787515D01*
X120959657Y-114695151D01*
X120940511Y-114661988D01*
X120940506Y-114661982D01*
X120838017Y-114559493D01*
X120838011Y-114559488D01*
X120712488Y-114487017D01*
X120712489Y-114487017D01*
X120701006Y-114483940D01*
X120572475Y-114449500D01*
X120427525Y-114449500D01*
X120298993Y-114483940D01*
X120287511Y-114487017D01*
X120161988Y-114559488D01*
X120161982Y-114559493D01*
X120059493Y-114661982D01*
X120059488Y-114661988D01*
X119987017Y-114787511D01*
X119987016Y-114787515D01*
X119949500Y-114927525D01*
X108250500Y-114927525D01*
X108250500Y-114374000D01*
X108270185Y-114306961D01*
X108322989Y-114261206D01*
X108374500Y-114250000D01*
X120000000Y-114250000D01*
X120000000Y-111633994D01*
X143680000Y-111633994D01*
X143680000Y-111866005D01*
X143680001Y-111866022D01*
X143710283Y-112096040D01*
X143710286Y-112096053D01*
X143770336Y-112320167D01*
X143859124Y-112534521D01*
X143859132Y-112534538D01*
X143975136Y-112735461D01*
X143975142Y-112735469D01*
X144034117Y-112812327D01*
X145050000Y-111796445D01*
X145050000Y-111802661D01*
X145077259Y-111904394D01*
X145129920Y-111995606D01*
X145204394Y-112070080D01*
X145295606Y-112122741D01*
X145397339Y-112150000D01*
X145403554Y-112150000D01*
X144387671Y-113165881D01*
X144464530Y-113224857D01*
X144464538Y-113224863D01*
X144665461Y-113340867D01*
X144665478Y-113340875D01*
X144879832Y-113429663D01*
X145103946Y-113489713D01*
X145103959Y-113489716D01*
X145333977Y-113519998D01*
X145333995Y-113520000D01*
X145566005Y-113520000D01*
X145566022Y-113519998D01*
X145796040Y-113489716D01*
X145796053Y-113489713D01*
X146020167Y-113429663D01*
X146234521Y-113340875D01*
X146234538Y-113340867D01*
X146435475Y-113224855D01*
X146512327Y-113165883D01*
X146512327Y-113165880D01*
X145496446Y-112150000D01*
X145502661Y-112150000D01*
X145604394Y-112122741D01*
X145695606Y-112070080D01*
X145770080Y-111995606D01*
X145822741Y-111904394D01*
X145850000Y-111802661D01*
X145850000Y-111796447D01*
X146865880Y-112812327D01*
X146865883Y-112812327D01*
X146924855Y-112735475D01*
X147040867Y-112534538D01*
X147040875Y-112534521D01*
X147129663Y-112320167D01*
X147189713Y-112096053D01*
X147189716Y-112096040D01*
X147219998Y-111866022D01*
X147220000Y-111866005D01*
X147220000Y-111633994D01*
X147219998Y-111633977D01*
X147189716Y-111403959D01*
X147189713Y-111403946D01*
X147129663Y-111179832D01*
X147040875Y-110965478D01*
X147040867Y-110965461D01*
X146924863Y-110764538D01*
X146924857Y-110764530D01*
X146865881Y-110687671D01*
X145850000Y-111703552D01*
X145850000Y-111697339D01*
X145822741Y-111595606D01*
X145770080Y-111504394D01*
X145695606Y-111429920D01*
X145604394Y-111377259D01*
X145502661Y-111350000D01*
X145496447Y-111350000D01*
X146512327Y-110334117D01*
X146435469Y-110275142D01*
X146435461Y-110275136D01*
X146234538Y-110159132D01*
X146234521Y-110159124D01*
X146020167Y-110070336D01*
X145796053Y-110010286D01*
X145796040Y-110010283D01*
X145566022Y-109980001D01*
X145566005Y-109980000D01*
X145333995Y-109980000D01*
X145333977Y-109980001D01*
X145103959Y-110010283D01*
X145103946Y-110010286D01*
X144879832Y-110070336D01*
X144665478Y-110159124D01*
X144665461Y-110159132D01*
X144464541Y-110275134D01*
X144464533Y-110275140D01*
X144387671Y-110334116D01*
X144387671Y-110334117D01*
X145403554Y-111350000D01*
X145397339Y-111350000D01*
X145295606Y-111377259D01*
X145204394Y-111429920D01*
X145129920Y-111504394D01*
X145077259Y-111595606D01*
X145050000Y-111697339D01*
X145050000Y-111703553D01*
X144034117Y-110687671D01*
X144034116Y-110687671D01*
X143975140Y-110764533D01*
X143975134Y-110764541D01*
X143859132Y-110965461D01*
X143859124Y-110965478D01*
X143770336Y-111179832D01*
X143710286Y-111403946D01*
X143710283Y-111403959D01*
X143680001Y-111633977D01*
X143680000Y-111633994D01*
X120000000Y-111633994D01*
X120000000Y-109927525D01*
X135449500Y-109927525D01*
X135449500Y-110072475D01*
X135487016Y-110212485D01*
X135487017Y-110212488D01*
X135559488Y-110338011D01*
X135559490Y-110338013D01*
X135559491Y-110338015D01*
X135661985Y-110440509D01*
X135661986Y-110440510D01*
X135661988Y-110440511D01*
X135787511Y-110512982D01*
X135787512Y-110512982D01*
X135787515Y-110512984D01*
X135927525Y-110550500D01*
X135927528Y-110550500D01*
X136072472Y-110550500D01*
X136072475Y-110550500D01*
X136212485Y-110512984D01*
X136338015Y-110440509D01*
X136440509Y-110338015D01*
X136512984Y-110212485D01*
X136550500Y-110072475D01*
X136550500Y-109927525D01*
X136512984Y-109787515D01*
X136488665Y-109745394D01*
X136440511Y-109661988D01*
X136440506Y-109661982D01*
X136338017Y-109559493D01*
X136338011Y-109559488D01*
X136212488Y-109487017D01*
X136212489Y-109487017D01*
X136201006Y-109483940D01*
X136072475Y-109449500D01*
X135927525Y-109449500D01*
X135798993Y-109483940D01*
X135787511Y-109487017D01*
X135661988Y-109559488D01*
X135661982Y-109559493D01*
X135559493Y-109661982D01*
X135559488Y-109661988D01*
X135487017Y-109787511D01*
X135487016Y-109787515D01*
X135449500Y-109927525D01*
X120000000Y-109927525D01*
X120000000Y-108927525D01*
X123449500Y-108927525D01*
X123449500Y-109072475D01*
X123481137Y-109190545D01*
X123487017Y-109212488D01*
X123559488Y-109338011D01*
X123559490Y-109338013D01*
X123559491Y-109338015D01*
X123661985Y-109440509D01*
X123661986Y-109440510D01*
X123661988Y-109440511D01*
X123787511Y-109512982D01*
X123787512Y-109512982D01*
X123787515Y-109512984D01*
X123927525Y-109550500D01*
X123927528Y-109550500D01*
X124072472Y-109550500D01*
X124072475Y-109550500D01*
X124212485Y-109512984D01*
X124338015Y-109440509D01*
X124440509Y-109338015D01*
X124512984Y-109212485D01*
X124550500Y-109072475D01*
X124550500Y-108927525D01*
X124512984Y-108787515D01*
X124440509Y-108661985D01*
X124338015Y-108559491D01*
X124338013Y-108559490D01*
X124338011Y-108559488D01*
X124212488Y-108487017D01*
X124212489Y-108487017D01*
X124201006Y-108483940D01*
X124072475Y-108449500D01*
X123927525Y-108449500D01*
X123798993Y-108483940D01*
X123787511Y-108487017D01*
X123661988Y-108559488D01*
X123661982Y-108559493D01*
X123559493Y-108661982D01*
X123559488Y-108661988D01*
X123487017Y-108787511D01*
X123487016Y-108787515D01*
X123449500Y-108927525D01*
X120000000Y-108927525D01*
X120000000Y-105465845D01*
X129137706Y-105465845D01*
X129266652Y-105519257D01*
X129266656Y-105519258D01*
X129421202Y-105549999D01*
X129421206Y-105550000D01*
X129578794Y-105550000D01*
X129578797Y-105549999D01*
X129733343Y-105519258D01*
X129733347Y-105519257D01*
X129862293Y-105465845D01*
X129500001Y-105103553D01*
X129500000Y-105103553D01*
X129137706Y-105465845D01*
X120000000Y-105465845D01*
X120000000Y-104374000D01*
X120019685Y-104306961D01*
X120072489Y-104261206D01*
X120124000Y-104250000D01*
X128655614Y-104250000D01*
X128722653Y-104269685D01*
X128768408Y-104322489D01*
X128778352Y-104391647D01*
X128770175Y-104421453D01*
X128730743Y-104516648D01*
X128730741Y-104516656D01*
X128700000Y-104671202D01*
X128700000Y-104828797D01*
X128730741Y-104983343D01*
X128730743Y-104983351D01*
X128784153Y-105112293D01*
X129235542Y-104660904D01*
X129296865Y-104627419D01*
X129366556Y-104632403D01*
X129390242Y-104647625D01*
X129372836Y-104665032D01*
X129350000Y-104720163D01*
X129350000Y-104779837D01*
X129372836Y-104834968D01*
X129415032Y-104877164D01*
X129470163Y-104900000D01*
X129529837Y-104900000D01*
X129584968Y-104877164D01*
X129627164Y-104834968D01*
X129650000Y-104779837D01*
X129650000Y-104720163D01*
X129627164Y-104665032D01*
X129611048Y-104648916D01*
X129650417Y-104627419D01*
X129720109Y-104632403D01*
X129764457Y-104660904D01*
X130215845Y-105112293D01*
X130269257Y-104983347D01*
X130269258Y-104983343D01*
X130299999Y-104828797D01*
X130300000Y-104828794D01*
X130300000Y-104671206D01*
X130299999Y-104671202D01*
X130269258Y-104516656D01*
X130269256Y-104516648D01*
X130229825Y-104421453D01*
X130222356Y-104351984D01*
X130253631Y-104289504D01*
X130313720Y-104253852D01*
X130344386Y-104250000D01*
X136625500Y-104250000D01*
X136692539Y-104269685D01*
X136738294Y-104322489D01*
X136749500Y-104374000D01*
X136749500Y-108875196D01*
X136785135Y-109123044D01*
X136785136Y-109123048D01*
X136855676Y-109363291D01*
X136855678Y-109363297D01*
X136959695Y-109591061D01*
X136959705Y-109591079D01*
X137095068Y-109801708D01*
X137095072Y-109801714D01*
X137259047Y-109990952D01*
X137448285Y-110154927D01*
X137448291Y-110154931D01*
X137658920Y-110290294D01*
X137658928Y-110290298D01*
X137658932Y-110290301D01*
X137658935Y-110290302D01*
X137658938Y-110290304D01*
X137886702Y-110394321D01*
X137886708Y-110394323D01*
X138043997Y-110440506D01*
X138126954Y-110464864D01*
X138374802Y-110500500D01*
X138374803Y-110500500D01*
X138625197Y-110500500D01*
X138625198Y-110500500D01*
X138873046Y-110464864D01*
X139001803Y-110427057D01*
X139113291Y-110394323D01*
X139113297Y-110394321D01*
X139113297Y-110394320D01*
X139113300Y-110394320D01*
X139341068Y-110290301D01*
X139551715Y-110154927D01*
X139740952Y-109990952D01*
X139904927Y-109801715D01*
X140040301Y-109591068D01*
X140144320Y-109363300D01*
X140151745Y-109338015D01*
X140214232Y-109125198D01*
X140214864Y-109123046D01*
X140250500Y-108875198D01*
X140250500Y-108750000D01*
X140250500Y-108684108D01*
X140250500Y-102105328D01*
X143929500Y-102105328D01*
X143929500Y-102344671D01*
X143966939Y-102581051D01*
X144040898Y-102808674D01*
X144073407Y-102872475D01*
X144138130Y-102999500D01*
X144149554Y-103021919D01*
X144290221Y-103215532D01*
X144290225Y-103215537D01*
X144459462Y-103384774D01*
X144459467Y-103384778D01*
X144587123Y-103477525D01*
X144653084Y-103525448D01*
X144788961Y-103594681D01*
X144866325Y-103634101D01*
X144866327Y-103634101D01*
X144866330Y-103634103D01*
X145093949Y-103708061D01*
X145215735Y-103727349D01*
X145330329Y-103745500D01*
X145330334Y-103745500D01*
X145569671Y-103745500D01*
X145674135Y-103728953D01*
X145806051Y-103708061D01*
X146033670Y-103634103D01*
X146246916Y-103525448D01*
X146440539Y-103384773D01*
X146609773Y-103215539D01*
X146750448Y-103021916D01*
X146859103Y-102808670D01*
X146933061Y-102581051D01*
X146953953Y-102449135D01*
X146970500Y-102344671D01*
X146970500Y-102105328D01*
X162979500Y-102105328D01*
X162979500Y-102344671D01*
X163016939Y-102581051D01*
X163090898Y-102808674D01*
X163123407Y-102872475D01*
X163188130Y-102999500D01*
X163199554Y-103021919D01*
X163340221Y-103215532D01*
X163340225Y-103215537D01*
X163509462Y-103384774D01*
X163509467Y-103384778D01*
X163637123Y-103477525D01*
X163703084Y-103525448D01*
X163838961Y-103594681D01*
X163916325Y-103634101D01*
X163916327Y-103634101D01*
X163916330Y-103634103D01*
X164143949Y-103708061D01*
X164265735Y-103727349D01*
X164380329Y-103745500D01*
X164380334Y-103745500D01*
X164619671Y-103745500D01*
X164724135Y-103728953D01*
X164856051Y-103708061D01*
X165083670Y-103634103D01*
X165296916Y-103525448D01*
X165490539Y-103384773D01*
X165659773Y-103215539D01*
X165800448Y-103021916D01*
X165909103Y-102808670D01*
X165983061Y-102581051D01*
X166003953Y-102449135D01*
X166020500Y-102344671D01*
X166020500Y-102105328D01*
X165996885Y-101956232D01*
X165983061Y-101868949D01*
X165909103Y-101641330D01*
X165909101Y-101641327D01*
X165909101Y-101641325D01*
X165869681Y-101563961D01*
X165800448Y-101428084D01*
X165687556Y-101272701D01*
X165659778Y-101234467D01*
X165659774Y-101234462D01*
X165490537Y-101065225D01*
X165490532Y-101065221D01*
X165296919Y-100924554D01*
X165296918Y-100924553D01*
X165296916Y-100924552D01*
X165230324Y-100890621D01*
X165083674Y-100815898D01*
X164856051Y-100741939D01*
X164619671Y-100704500D01*
X164619666Y-100704500D01*
X164380334Y-100704500D01*
X164380329Y-100704500D01*
X164143948Y-100741939D01*
X163916325Y-100815898D01*
X163703080Y-100924554D01*
X163509467Y-101065221D01*
X163509462Y-101065225D01*
X163340225Y-101234462D01*
X163340221Y-101234467D01*
X163199554Y-101428080D01*
X163090898Y-101641325D01*
X163016939Y-101868948D01*
X162979500Y-102105328D01*
X146970500Y-102105328D01*
X146946885Y-101956232D01*
X146933061Y-101868949D01*
X146859103Y-101641330D01*
X146859101Y-101641327D01*
X146859101Y-101641325D01*
X146819681Y-101563961D01*
X146750448Y-101428084D01*
X146637556Y-101272701D01*
X146609778Y-101234467D01*
X146609774Y-101234462D01*
X146440537Y-101065225D01*
X146440532Y-101065221D01*
X146246919Y-100924554D01*
X146246918Y-100924553D01*
X146246916Y-100924552D01*
X146180324Y-100890621D01*
X146033674Y-100815898D01*
X145806051Y-100741939D01*
X145569671Y-100704500D01*
X145569666Y-100704500D01*
X145330334Y-100704500D01*
X145330329Y-100704500D01*
X145093948Y-100741939D01*
X144866325Y-100815898D01*
X144653080Y-100924554D01*
X144459467Y-101065221D01*
X144459462Y-101065225D01*
X144290225Y-101234462D01*
X144290221Y-101234467D01*
X144149554Y-101428080D01*
X144040898Y-101641325D01*
X143966939Y-101868948D01*
X143929500Y-102105328D01*
X140250500Y-102105328D01*
X140250500Y-99447273D01*
X168599500Y-99447273D01*
X168599500Y-99552727D01*
X168626793Y-99654587D01*
X168679520Y-99745913D01*
X168754087Y-99820480D01*
X168845413Y-99873207D01*
X168947273Y-99900500D01*
X168947275Y-99900500D01*
X169052725Y-99900500D01*
X169052727Y-99900500D01*
X169154587Y-99873207D01*
X169245913Y-99820480D01*
X169320480Y-99745913D01*
X169373207Y-99654587D01*
X169400500Y-99552727D01*
X169400500Y-99447273D01*
X169373207Y-99345413D01*
X169320480Y-99254087D01*
X169245913Y-99179520D01*
X169154587Y-99126793D01*
X169052727Y-99099500D01*
X168947273Y-99099500D01*
X168845413Y-99126793D01*
X168845410Y-99126794D01*
X168754085Y-99179521D01*
X168679521Y-99254085D01*
X168626794Y-99345410D01*
X168626793Y-99345413D01*
X168599500Y-99447273D01*
X140250500Y-99447273D01*
X140250500Y-99004427D01*
X140250816Y-98995581D01*
X140267674Y-98759857D01*
X140270190Y-98742360D01*
X140319483Y-98515766D01*
X140324460Y-98498815D01*
X140405501Y-98281536D01*
X140412851Y-98265444D01*
X140438126Y-98219156D01*
X140523981Y-98061923D01*
X140533537Y-98047054D01*
X140672506Y-97861413D01*
X140684080Y-97848056D01*
X140848056Y-97684080D01*
X140861413Y-97672506D01*
X141047054Y-97533537D01*
X141061923Y-97523981D01*
X141265444Y-97412850D01*
X141281537Y-97405501D01*
X141498815Y-97324460D01*
X141515766Y-97319483D01*
X141742360Y-97270190D01*
X141759857Y-97267674D01*
X141995582Y-97250816D01*
X142004428Y-97250500D01*
X152125197Y-97250500D01*
X152125198Y-97250500D01*
X152373046Y-97214864D01*
X152553138Y-97161985D01*
X152613291Y-97144323D01*
X152613297Y-97144321D01*
X152613297Y-97144320D01*
X152613300Y-97144320D01*
X152841068Y-97040301D01*
X153051715Y-96904927D01*
X153240952Y-96740952D01*
X153404927Y-96551715D01*
X153540301Y-96341068D01*
X153644320Y-96113300D01*
X153646359Y-96106358D01*
X153677143Y-96001513D01*
X153714864Y-95873046D01*
X153750500Y-95625198D01*
X153750500Y-95374802D01*
X153714864Y-95126954D01*
X153651961Y-94912722D01*
X153644323Y-94886708D01*
X153644321Y-94886702D01*
X153540304Y-94658938D01*
X153540294Y-94658920D01*
X153404931Y-94448291D01*
X153404927Y-94448285D01*
X153240952Y-94259047D01*
X153193249Y-94217713D01*
X153155475Y-94158935D01*
X153155475Y-94089065D01*
X153193249Y-94030287D01*
X153256805Y-94001262D01*
X153274452Y-94000000D01*
X156975548Y-94000000D01*
X157042587Y-94019685D01*
G37*
%TD.AperFunction*%
%TD*%
%TA.AperFunction,Conductor*%
%TO.N,GNDA*%
G36*
X170257183Y-79268013D02*
G01*
X170275196Y-79311500D01*
X170264832Y-79345667D01*
X170181050Y-79471056D01*
X170181046Y-79471064D01*
X170120746Y-79616638D01*
X170120741Y-79616654D01*
X170090000Y-79771203D01*
X170090000Y-79928796D01*
X170120741Y-80083345D01*
X170120743Y-80083352D01*
X170174152Y-80212292D01*
X170669735Y-79716709D01*
X170713222Y-79698696D01*
X170756709Y-79716709D01*
X170783934Y-79743934D01*
X170762836Y-79765032D01*
X170740000Y-79820163D01*
X170740000Y-79879837D01*
X170762836Y-79934968D01*
X170805032Y-79977164D01*
X170860163Y-80000000D01*
X170919837Y-80000000D01*
X170974968Y-79977164D01*
X171017164Y-79934968D01*
X171040000Y-79879837D01*
X171040000Y-79820163D01*
X171017164Y-79765032D01*
X170996066Y-79743934D01*
X171023290Y-79716710D01*
X171066777Y-79698697D01*
X171110264Y-79716710D01*
X171605847Y-80212293D01*
X171605847Y-80212292D01*
X171659253Y-80083361D01*
X171659258Y-80083345D01*
X171689999Y-79928796D01*
X171690000Y-79928796D01*
X171690000Y-79771204D01*
X171689999Y-79771203D01*
X171659258Y-79616654D01*
X171659253Y-79616638D01*
X171598953Y-79471064D01*
X171598949Y-79471056D01*
X171515168Y-79345667D01*
X171505986Y-79299502D01*
X171532137Y-79260364D01*
X171566304Y-79250000D01*
X177188000Y-79250000D01*
X177231487Y-79268013D01*
X177249500Y-79311500D01*
X177249500Y-93688500D01*
X177231487Y-93731987D01*
X177188000Y-93750000D01*
X168225741Y-93750000D01*
X168220662Y-93749790D01*
X168217171Y-93749500D01*
X168217162Y-93749500D01*
X168065892Y-93749500D01*
X164061500Y-93749500D01*
X164018013Y-93731487D01*
X164000000Y-93688000D01*
X164000000Y-80565846D01*
X170527706Y-80565846D01*
X170656647Y-80619256D01*
X170656654Y-80619258D01*
X170811203Y-80649999D01*
X170811204Y-80650000D01*
X170968796Y-80650000D01*
X170968796Y-80649999D01*
X171123345Y-80619258D01*
X171123361Y-80619253D01*
X171252292Y-80565847D01*
X171252293Y-80565847D01*
X170890000Y-80203554D01*
X170527706Y-80565846D01*
X164000000Y-80565846D01*
X164000000Y-79311500D01*
X164018013Y-79268013D01*
X164061500Y-79250000D01*
X170213696Y-79250000D01*
X170257183Y-79268013D01*
G37*
%TD.AperFunction*%
%TD*%
M02*
