<?xml version="1.0" standalone="no"?>
<!DOCTYPE svg PUBLIC "-//W3C//DTD SVG 20010904//EN"
 "http://www.w3.org/TR/2001/REC-SVG-20010904/DTD/svg10.dtd">
<svg version="1.0" xmlns="http://www.w3.org/2000/svg"
 width="184.000000pt" height="111.000000pt" viewBox="0 0 184.000000 111.000000"
 preserveAspectRatio="xMidYMid meet">

<g transform="translate(0.000000,111.000000) scale(0.100000,-0.100000)"
fill="#000000" stroke="none">
<path d="M835 1060 c-224 -46 -394 -241 -395 -451 l0 -47 -97 -22 c-186 -43
-303 -109 -303 -173 0 -67 120 -140 293 -178 70 -15 105 -28 121 -44 31 -31
136 -62 253 -76 127 -15 435 -6 533 16 77 17 143 46 157 68 4 7 60 25 124 40
141 34 204 62 247 111 43 50 42 80 -7 126 -45 43 -134 80 -267 111 l-91 21 -6
75 c-20 268 -298 477 -562 423z m227 -49 c180 -62 308 -237 308 -421 l0 -58
-40 14 c-47 16 -200 44 -241 44 -29 0 -29 0 -29 65 0 36 -7 82 -15 102 -15 35
-14 39 5 65 11 15 20 30 20 33 0 12 -28 3 -45 -15 -15 -16 -26 -18 -80 -13
-37 3 -70 1 -81 -5 -15 -9 -24 -6 -46 15 -34 33 -55 22 -28 -15 19 -26 20 -30
5 -65 -8 -20 -15 -66 -15 -102 0 -65 0 -65 -28 -65 -45 0 -214 -31 -249 -46
l-33 -13 0 58 c0 181 128 359 303 421 73 26 215 26 289 1z m-70 -240 l33 -29
3 -171 3 -171 -110 0 -111 0 0 155 c0 119 4 163 15 185 34 67 111 81 167 31z
m-212 -287 l0 -77 -62 7 c-159 18 -262 52 -239 80 14 17 79 36 176 51 135 22
125 27 125 -61z m452 55 c62 -11 123 -33 133 -48 15 -26 -95 -60 -242 -77
l-63 -7 0 77 0 77 58 -6 c31 -4 83 -11 114 -16z m-792 -49 c0 -60 98 -92 343
-112 224 -18 501 11 585 62 25 15 32 27 32 50 0 25 4 30 23 30 46 0 183 -41
253 -75 85 -41 106 -71 80 -110 -38 -58 -224 -118 -461 -151 -180 -24 -568
-24 -750 0 -246 34 -430 96 -464 158 -15 26 -14 29 13 57 16 17 49 39 73 51
59 28 201 69 241 69 29 1 32 -2 32 -29z m252 -351 c159 -12 459 -7 578 11 71
10 88 6 44 -11 -108 -41 -439 -63 -606 -40 -103 15 -198 40 -198 53 0 6 7 8
15 5 8 -4 83 -11 167 -18z"/>
<path d="M820 977 c-82 -24 -190 -91 -190 -118 0 -17 32 -9 62 16 101 85 247
106 369 53 51 -21 66 -20 56 5 -15 40 -211 69 -297 44z"/>
<path d="M1144 899 c-10 -17 31 -53 52 -45 15 6 15 9 -6 31 -26 28 -35 30 -46
14z"/>
<path d="M875 725 c-30 -29 -32 -68 -5 -95 41 -41 120 -12 120 45 0 31 -41 75
-70 75 -11 0 -32 -11 -45 -25z m71 -26 c14 -15 16 -24 8 -37 -14 -22 -41 -27
-59 -12 -19 16 -19 35 1 54 20 21 27 20 50 -5z"/>
<path d="M905 681 c-7 -12 12 -24 25 -16 11 7 4 25 -10 25 -5 0 -11 -4 -15 -9z"/>
<path d="M840 571 c0 -19 45 -41 81 -41 37 0 91 32 77 45 -3 4 -23 1 -42 -6
-29 -10 -43 -11 -69 -1 -40 14 -47 15 -47 3z"/>
<path d="M160 346 c0 -24 183 -70 405 -102 145 -21 538 -24 690 -5 256 31 454
86 423 116 -2 3 -42 -6 -89 -19 -191 -55 -394 -79 -665 -78 -281 1 -491 27
-673 83 -75 23 -91 24 -91 5z"/>
</g>
</svg>
